<?xml version="1.0" encoding="utf-8"?>

<svg version="1.1" id="Layer_1" xmlns="http://www.w3.org/2000/svg" xmlns:xlink="http://www.w3.org/1999/xlink" x="0px" y="0px"
	 width="18px" height="16px" viewBox="0 0 18 18" enable-background="new 0 0 18 18" xml:space="preserve">
<g>
	<path fill="#ffffff" d="M17.086,8.009c0.256,0.257,0.385,0.583,0.385,0.98c0,0.374-0.129,0.688-0.385,0.945c-0.258,0.257-0.584,0.384-0.98,0.384
		H10.4v5.74c0,0.374-0.129,0.695-0.385,0.963c-0.257,0.269-0.583,0.402-0.98,0.402c-0.373,0-0.694-0.134-0.963-0.402
		c-0.269-0.268-0.402-0.589-0.402-0.963v-5.74h-5.74c-0.374,0-0.688-0.127-0.945-0.384C0.729,9.677,0.601,9.362,0.601,8.989
		c0-0.396,0.128-0.723,0.385-0.98c0.256-0.256,0.571-0.385,0.945-0.385h5.74v-5.74c0-0.396,0.134-0.723,0.402-0.98
		c0.269-0.256,0.59-0.385,0.963-0.385c0.396,0,0.723,0.128,0.98,0.385c0.256,0.257,0.385,0.583,0.385,0.98v5.74h5.705
		C16.502,7.624,16.828,7.752,17.086,8.009z"/>
</g>
</svg>
