<svg xmlns="http://www.w3.org/2000/svg" width="1297" height="506" viewBox="-200.5 163.5 1297 506"><path fill="#F5F6FA" d="M1096.5 425.889V670.5h-1297V239.035c1.332-.493 2.757-.941 3.994-1.523 30.528-13.622 62.958-26.034 99.001-36.25 37.565-10.62 77.318-18.596 120.97-21.732 7.038-.493 13.979-.896 21.018-1.389h32.239c1.047.135 2.092.359 3.139.403 37.09 1.389 71.421 6.856 103.661 15.549 41.178 11.113 75.416 26.079 105.563 43.196 23.871 13.577 46.504 27.558 70.376 41.135 49.166 28.05 101.282 54.801 157.963 79.491 55.729 24.287 114.883 46.422 181.266 63.942 55.824 14.742 114.5 25.721 178.504 29.35 58.3 3.316 114.694-.045 168.142-11.784 17.594-3.856 34.14-8.964 51.164-13.534z"/></svg>