<svg height="512" width="512" xmlns="http://www.w3.org/2000/svg"><linearGradient id="a" gradientUnits="userSpaceOnUse" x1="-11.953" x2="302.188" y1="367.812" y2="186.443"><stop offset="0" stop-color="#dcfdee" stop-opacity="0"/><stop offset=".629" stop-color="#d2f3e4"/></linearGradient><path d="M451.798 43.963c-160.556-97.869-410.51-8.611-439.594 61.949-38.908 94.394 26.578 110.528 38.743 187.874 9.761 62.061-51.182 121.495-16.394 176.282 37.883 59.663 163.465 44.681 211.198 16.447 87.376-51.683 43.309-112.012 84.684-187.299 39.407-71.707 116.244-42.625 160.961-99.99 42.5-54.521 14.31-122.402-39.598-155.263z" fill="url(#a)"/><path d="M350.232 500.339H161.768c-16.569 0-30-13.431-30-30V89.661c0-16.569 13.431-30 30-30h188.464c16.569 0 30 13.431 30 30v380.678c0 16.569-13.431 30-30 30z" fill="#2626bc" opacity=".1"/><path d="M350.232 476.339H161.768c-16.569 0-30-13.431-30-30V65.661c0-16.569 13.431-30 30-30h188.464c16.569 0 30 13.431 30 30v380.678c0 16.569-13.431 30-30 30z" fill="#6583fe"/><path d="M131.77 78.57h248.46v354.86H131.77z" fill="#fff"/><path d="M380.23 78.57v158.44h-33.07a5 5 0 01-5-5v-31.75c0-11.046-8.954-20-20-20H189.84c-11.046 0-20 8.954-20 20v31.75a5 5 0 01-5 5h-33.07V78.57z" fill="#9fb0fe"/><path d="M350.232 481.339H161.768c-19.299 0-35-15.701-35-35V65.661c0-19.299 15.701-35 35-35h188.464c19.299 0 35 15.701 35 35v380.678c0 19.299-15.701 35-35 35zM161.768 40.661c-13.785 0-25 11.215-25 25v380.678c0 13.785 11.215 25 25 25h188.464c13.785 0 25-11.215 25-25V65.661c0-13.785-11.215-25-25-25z" fill="#2626bc"/><path d="M273.483 63.031h-34.966a5 5 0 010-10h34.966a5 5 0 010 10z" fill="#b7c5ff"/><circle cx="296.813" cy="58.03" fill="#b7c5ff" r="5.002"/><path d="M302.148 333.462h-92.296c-8.753 0-15.849-7.096-15.849-15.849s7.096-15.849 15.849-15.849h92.296c8.753 0 15.849 7.096 15.849 15.849s-7.096 15.849-15.849 15.849z" fill="#ff7eb8"/><path d="M302.148 382.327h-92.296c-8.753 0-15.849-7.096-15.849-15.849s7.096-15.849 15.849-15.849h92.296c8.753 0 15.849 7.096 15.849 15.849s-7.096 15.849-15.849 15.849zm-96.408-137.6h100.52a5 5 0 110 10H205.74a5 5 0 110-10zm0-21.915h100.52a5 5 0 110 10H205.74a5 5 0 110-10z" fill="#6583fe"/><circle cx="256" cy="155.974" fill="#02ffb3" r="33.651"/><path d="M272.617 157.111c0-9.16-7.46-16.61-16.62-16.61s-16.61 7.45-16.61 16.61c0 4.52 1.82 8.62 4.75 11.62a16.55 16.55 0 00-4.75 11.61v4.9c3.07 1.74 6.43 3.02 10 3.73v-8.63c0-3.65 2.97-6.61 6.61-6.61 3.65 0 6.62 2.96 6.62 6.61v8.63c3.57-.71 6.93-1.99 10-3.73v-4.9c0-4.52-1.82-8.62-4.76-11.61 2.94-3 4.76-7.1 4.76-11.62zm-16.62 6.62c-3.64 0-6.61-2.97-6.61-6.62 0-3.64 2.97-6.61 6.61-6.61 3.65 0 6.62 2.97 6.62 6.61 0 3.65-2.97 6.62-6.62 6.62z" fill="#fff"/><circle cx="312.995" cy="400.613" fill="#ff7eb8" r="5.002"/><path d="M332.85 97.259h19.52a5 5 0 110 10h-19.52a5 5 0 110-10zm0 17.063h19.52a5 5 0 110 10h-19.52a5 5 0 110-10zm-253.869 4.229c-7.88 0-14.292-6.411-14.292-14.292S71.1 89.967 78.981 89.967s14.292 6.411 14.292 14.292-6.412 14.292-14.292 14.292zm0-18.583c-2.366 0-4.292 1.925-4.292 4.292s1.925 4.292 4.292 4.292 4.292-1.925 4.292-4.292-1.926-4.292-4.292-4.292z" fill="#6583fe"/><path d="M418.213 337.724c-7.88 0-14.292-6.411-14.292-14.292s6.411-14.292 14.292-14.292 14.292 6.411 14.292 14.292-6.412 14.292-14.292 14.292zm0-18.583c-2.366 0-4.292 1.925-4.292 4.292s1.925 4.292 4.292 4.292 4.292-1.925 4.292-4.292-1.926-4.292-4.292-4.292zm20.874-147.733c-7.88 0-14.292-6.411-14.292-14.292s6.411-14.292 14.292-14.292 14.292 6.411 14.292 14.292-6.411 14.292-14.292 14.292zm0-18.583c-2.366 0-4.292 1.925-4.292 4.292s1.925 4.292 4.292 4.292 4.292-1.925 4.292-4.292-1.925-4.292-4.292-4.292z" fill="#01eca5"/><path d="M439.087 382.478a5 5 0 01-5-5c0-3.309-2.691-6-6-6a5 5 0 010-10c3.309 0 6-2.691 6-6a5 5 0 0110 0c0 3.309 2.691 6 6 6a5 5 0 010 10c-3.309 0-6 2.691-6 6a5 5 0 01-5 5z" fill="#6583fe"/><path d="M88.272 173.116a5 5 0 01-5-5c0-3.309-2.691-6-6-6a5 5 0 010-10c3.309 0 6-2.691 6-6a5 5 0 0110 0c0 3.309 2.691 6 6 6a5 5 0 010 10c-3.309 0-6 2.691-6 6a5 5 0 01-5 5z" fill="#ff5ba8"/></svg>