<svg version="1.1" id="Capa_1" xmlns="http://www.w3.org/2000/svg" x="0" y="0" viewBox="0 0 512 512" xml:space="preserve"><style>.st2{fill:#7a17c5}.st3{fill:#fff}.st4{fill:#511bc5}.st5{fill:#b7c5ff}</style><linearGradient id="SVGID_1_" gradientUnits="userSpaceOnUse" x1="4.722" y1="64.847" x2="389.966" y2="523.963" gradientTransform="matrix(1 0 0 -1 0 514)"><stop offset="0" stop-color="#d2deff" stop-opacity="0"/><stop offset=".685" stop-color="#7a17c5" stop-opacity=".4"/></linearGradient><path d="M451.8 44C291.2-53.9 41.3 35.4 12.2 105.9c-38.9 94.4 26.6 110.5 38.7 187.9 9.8 62.1-51.2 121.5-16.4 176.3 37.9 59.7 163.5 44.7 211.2 16.4 87.4-51.7 43.3-112 84.7-187.3 39.4-71.7 116.2-42.6 161-100 42.5-54.5 14.3-122.4-39.6-155.2z" fill="url(#SVGID_1_)"/><path d="M350.2 500.3H161.8c-16.6 0-30-13.4-30-30V89.7c0-16.6 13.4-30 30-30h188.5c16.6 0 30 13.4 30 30v380.7c-.1 16.5-13.5 29.9-30.1 29.9z" opacity=".1" fill="#2626bc"/><path class="st2" d="M350.2 476.3H161.8c-16.6 0-30-13.4-30-30V65.7c0-16.6 13.4-30 30-30h188.5c16.6 0 30 13.4 30 30v380.7c-.1 16.5-13.5 29.9-30.1 29.9z"/><path class="st3" d="M131.8 78.6h248.5v354.9H131.8V78.6z"/><path class="st4" d="M131.8 317.9h248.5v115.5H131.8V317.9z"/><path class="st2" d="M351.5 317.9v36c0 5.5-4.5 10-10 10H170.6c-5.5 0-10-4.5-10-10v-36h190.9z"/><path class="st4" d="M350.2 481.3H161.8c-19.3 0-35-15.7-35-35V65.7c0-19.3 15.7-35 35-35h188.5c19.3 0 35 15.7 35 35v380.7c-.1 19.2-15.8 34.9-35.1 34.9zM161.8 40.7c-13.8 0-25 11.2-25 25v380.7c0 13.8 11.2 25 25 25h188.5c13.8 0 25-11.2 25-25V65.7c0-13.8-11.2-25-25-25H161.8z"/><path class="st5" d="M273.5 63h-35c-2.8 0-5-2.2-5-5s2.2-5 5-5h35c2.8 0 5 2.2 5 5s-2.3 5-5 5z"/><circle class="st5" cx="296.8" cy="58" r="5"/><circle class="st5" cx="256" cy="386.3" r="22.2"/><path class="st3" d="M264.8 381.3H261v-3.8c0-2.8-2.2-5-5-5s-5 2.2-5 5v3.8h-3.8c-2.8 0-5 2.2-5 5s2.2 5 5 5h3.8v3.8c0 2.8 2.2 5 5 5s5-2.2 5-5v-3.8h3.8c2.8 0 5-2.2 5-5s-2.2-5-5-5z"/><path class="st2" d="M251.4 260.6H80.6c-5.5 0-10-4.5-10-10v-51.9c0-5.5 4.5-10 10-10h170.9c5.5 0 10 4.5 10 10v51.9c-.1 5.5-4.5 10-10.1 10z"/><path class="st4" d="M251.4 346.9H80.6c-5.5 0-10-4.5-10-10V285c0-5.5 4.5-10 10-10h170.9c5.5 0 10 4.5 10 10v51.9c-.1 5.5-4.5 10-10.1 10z"/><path class="st3" d="M103.7 201.9H89c-2.8 0-5 2.2-5 5s2.2 5 5 5h14.7c2.8 0 5-2.2 5-5s-2.2-5-5-5zm0 86.4H89c-2.8 0-5 2.2-5 5s2.2 5 5 5h14.7c2.8 0 5-2.2 5-5s-2.2-5-5-5z"/><circle cx="240.1" cy="142.9" r="28.3" fill="#d2deff"/><path class="st4" d="M261.5 142.4v21.9c0 5.5-4.5 10-10 10H80.6c-5.5 0-10-4.5-10-10v-21.9c0-5.5 4.5-10 10-10h170.9c5.5 0 10 4.5 10 10z"/><path d="M261.5 142.4v19.1c-5.2 6-12.8 9.7-21.3 9.7-15.6 0-28.3-12.7-28.3-28.3 0-3.7.7-7.3 2-10.6h37.6c5.5.1 10 4.6 10 10.1z" fill="#9fb0fe"/><circle class="st2" cx="240.1" cy="127.9" r="28.3"/><path class="st5" d="M235.1 112.9c-1.5 0-3 .7-4 1.9-1.7 2.2-1.3 5.3.9 7l7.9 6.1-7.9 6.1a4.96 4.96 0 00-.9 7c1.7 2.2 4.8 2.6 7 .9l13-10c1.2-.9 2-2.4 2-4s-.7-3-2-4l-13-10c-.9-.7-1.9-1-3-1zm-48.2 290.6h-8.7c-2.8 0-5 2.2-5 5s2.2 5 5 5h8.7c2.8 0 5-2.2 5-5s-2.3-5-5-5zm32 0h-8.7c-2.8 0-5 2.2-5 5s2.2 5 5 5h8.7c2.8 0 5-2.2 5-5s-2.2-5-5-5zm82.8 0H293c-2.8 0-5 2.2-5 5s2.2 5 5 5h8.7c2.8 0 5-2.2 5-5s-2.2-5-5-5zm32.1 0h-8.7c-2.8 0-5 2.2-5 5s2.2 5 5 5h8.7c2.8 0 5-2.2 5-5s-2.2-5-5-5z"/><path d="M437.3 295.6c-7.9 0-14.3-6.4-14.3-14.3s6.4-14.3 14.3-14.3 14.3 6.4 14.3 14.3-6.4 14.3-14.3 14.3zm0-18.6c-2.4 0-4.3 1.9-4.3 4.3s1.9 4.3 4.3 4.3 4.3-1.9 4.3-4.3-2-4.3-4.3-4.3zM68.6 400.6c-7.9 0-14.3-6.4-14.3-14.3S60.7 372 68.6 372s14.3 6.4 14.3 14.3-6.4 14.3-14.3 14.3zm0-18.6c-2.4 0-4.3 1.9-4.3 4.3s1.9 4.3 4.3 4.3 4.3-1.9 4.3-4.3-2-4.3-4.3-4.3z" opacity=".4" fill="#7a17c5"/><path d="M422.8 338.9c-2.8 0-5-2.2-5-5 0-3.3-2.7-6-6-6-2.8 0-5-2.2-5-5s2.2-5 5-5c3.3 0 6-2.7 6-6 0-2.8 2.2-5 5-5s5 2.2 5 5c0 3.3 2.7 6 6 6 2.8 0 5 2.2 5 5s-2.2 5-5 5c-3.3 0-6 2.7-6 6 0 2.7-2.3 5-5 5zm5.4-206.4c-2.8 0-5-2.2-5-5 0-3.3-2.7-6-6-6-2.8 0-5-2.2-5-5s2.2-5 5-5c3.3 0 6-2.7 6-6 0-2.8 2.2-5 5-5s5 2.2 5 5c0 3.3 2.7 6 6 6 2.8 0 5 2.2 5 5s-2.2 5-5 5c-3.3 0-6 2.7-6 6 0 2.8-2.3 5-5 5z" fill="#511bc5" opacity=".4"/></svg>