<svg height="512" width="512" xmlns="http://www.w3.org/2000/svg"><linearGradient id="a" gradientUnits="userSpaceOnUse" x1="0" x2="512" y1="246.5" y2="246.5"><stop offset="0" stop-color="#ffdbed" stop-opacity="0"/><stop offset="1" stop-color="#ffdbed"/></linearGradient><path d="M4.896 314.759C22.344 487.63 297.313 481.901 425.7 451.024c82.47-19.834 87.596-59.472 86.106-144.001-.96-54.486 3.443-198.725-32.004-244.123-54.448-69.733-103.228-25.998-170.656-3.235-86.488 29.197-120.189-22.932-202.476-21.38C-13.971 40.563-4.109 225.537 4.896 314.759z" fill="url(#a)"/><path d="M350.232 490.839H161.768c-16.569 0-30-13.431-30-30V80.161c0-16.569 13.431-30 30-30h188.464c16.569 0 30 13.431 30 30v380.678c0 16.569-13.431 30-30 30z" fill="#2626bc" opacity=".1"/><path d="M350.232 466.839H161.768c-16.569 0-30-13.431-30-30V56.161c0-16.569 13.431-30 30-30h188.464c16.569 0 30 13.431 30 30v380.678c0 16.569-13.431 30-30 30z" fill="#6583fe"/><path d="M131.77 69.07h248.46v354.86H131.77z" fill="#fff"/><path d="M380.23 69.07v154.74c0 13.8-11.19 25-25 25H156.77c-13.81 0-25-11.2-25-25V69.07z" fill="#9fb0fe"/><path d="M250.44 69.07c-15.45 43.9-57.33 75.45-106.45 75.45-4.13 0-8.21-.22-12.22-.66v70.26c4.04.26 8.11.4 12.22.4 88.01 0 161.69-62.5 178.98-145.45z" fill="#8399fe"/><path d="M350.232 471.839H161.768c-19.299 0-35-15.701-35-35V56.161c0-19.299 15.701-35 35-35h188.465c19.299 0 35 15.701 35 35v380.678c-.001 19.299-15.702 35-35.001 35zM161.768 31.161c-13.785 0-25 11.215-25 25v380.678c0 13.785 11.215 25 25 25h188.465c13.785 0 25-11.215 25-25V56.161c0-13.785-11.215-25-25-25z" fill="#2626bc"/><path d="M273.483 53.531h-34.966a5 5 0 010-10h34.966a5 5 0 010 10z" fill="#b7c5ff"/><circle cx="296.813" cy="48.529" fill="#b7c5ff" r="5.002"/><path d="M290.782 334.872H171.101a5 5 0 000 10h119.681a5 5 0 000-10zm-39-19.428h-80.681a5 5 0 000 10h80.681a5 5 0 000-10z" fill="#8399fe"/><path d="M182.782 292.099h-11.681a5 5 0 000 10h11.681a5 5 0 000-10zm0 79.215h-11.681a5 5 0 000 10h11.681a5 5 0 000-10zm0 20.273h-11.681a5 5 0 000 10h11.681a5 5 0 000-10z" fill="#02ffb3"/><circle cx="199.753" cy="236.849" fill="#02ffb3" r="33.651"/><path d="M216.369 237.987c0-9.16-7.46-16.61-16.62-16.61s-16.61 7.45-16.61 16.61c0 4.52 1.82 8.62 4.75 11.62a16.55 16.55 0 00-4.75 11.61v4.9c3.07 1.74 6.43 3.02 10 3.73v-8.63c0-3.65 2.97-6.61 6.61-6.61 3.65 0 6.62 2.96 6.62 6.61v8.63c3.57-.71 6.93-1.99 10-3.73v-4.9c0-4.52-1.82-8.62-4.76-11.61 2.94-3 4.76-7.1 4.76-11.62zm-16.62 6.62c-3.64 0-6.61-2.97-6.61-6.62 0-3.64 2.97-6.61 6.61-6.61 3.65 0 6.62 2.97 6.62 6.61 0 3.65-2.97 6.62-6.62 6.62z" fill="#fff"/><path d="M295.782 168.901c-17.429 0-31.607-14.179-31.607-31.607s14.179-31.607 31.607-31.607 31.607 14.179 31.607 31.607-14.178 31.607-31.607 31.607zm0-53.214c-11.914 0-21.607 9.693-21.607 21.607s9.693 21.607 21.607 21.607 21.607-9.693 21.607-21.607c.001-11.914-9.693-21.607-21.607-21.607z" fill="#ff7eb8"/><circle cx="331.078" cy="382.75" fill="#ff7eb8" r="22.218"/><path d="M339.918 377.75h-3.84v-3.84a5 5 0 00-10 0v3.84h-3.84a5 5 0 000 10h3.84v3.84a5 5 0 0010 0v-3.84h3.84a5 5 0 000-10z" fill="#fff"/><path d="M93.204 311.391c-7.88 0-14.291-6.411-14.291-14.292s6.411-14.292 14.291-14.292c7.881 0 14.292 6.411 14.292 14.292s-6.411 14.292-14.292 14.292zm0-18.583c-2.366 0-4.291 1.925-4.291 4.292s1.925 4.292 4.291 4.292 4.292-1.925 4.292-4.292-1.926-4.292-4.292-4.292z" fill="#01eca5"/><path d="M422.665 83.361c-7.881 0-14.292-6.411-14.292-14.292 0-7.88 6.411-14.291 14.292-14.291 7.88 0 14.291 6.411 14.291 14.291 0 7.881-6.411 14.292-14.291 14.292zm0-18.582c-2.366 0-4.292 1.925-4.292 4.291s1.926 4.292 4.292 4.292 4.291-1.925 4.291-4.292-1.925-4.291-4.291-4.291z" fill="#ff5ba8"/><path d="M444.665 416.588a5 5 0 01-5-5c0-3.309-2.691-6-6-6a5 5 0 110-10c3.309 0 6-2.691 6-6a5 5 0 1110 0c0 3.309 2.691 6 6 6a5 5 0 110 10c-3.309 0-6 2.691-6 6a5 5 0 01-5 5zM82.204 131.687a5 5 0 01-5-5c0-3.309-2.691-6-6-6a5 5 0 110-10c3.309 0 6-2.691 6-6a5 5 0 1110 0c0 3.309 2.691 6 6 6a5 5 0 110 10c-3.309 0-6 2.691-6 6a5 5 0 01-5 5z" fill="#6583fe"/><path d="M422.665 375.658a5 5 0 01-5-5c0-3.309-2.691-6-6-6a5 5 0 110-10c3.309 0 6-2.691 6-6a5 5 0 1110 0c0 3.309 2.691 6 6 6a5 5 0 110 10c-3.309 0-6 2.691-6 6a5 5 0 01-5 5z" fill="#ff5ba8"/></svg>