<?xml version="1.0" encoding="utf-8"?>
<!-- Generator: Adobe Illustrator 23.0.1, SVG Export Plug-In . SVG Version: 6.00 Build 0)  -->
<svg version="1.1" id="Layer_1" xmlns="http://www.w3.org/2000/svg" xmlns:xlink="http://www.w3.org/1999/xlink" x="0px" y="0px"
	 viewBox="0 0 1059 270" style="enable-background:new 0 0 1059 270;" xml:space="preserve">
<style type="text/css">
	.st0{fill-rule:evenodd;clip-rule:evenodd;fill:url(#SVGID_1_);}
	.st1{fill-rule:evenodd;clip-rule:evenodd;fill:#FFFFFF;}
</style>
<linearGradient id="SVGID_1_" gradientUnits="userSpaceOnUse" x1="302.7059" y1="223.962" x2="1060.7646" y2="223.962">
	<stop  offset="0" style="stop-color:#84FED2"/>
	<stop  offset="1" style="stop-color:#0AFF99"/>
</linearGradient>
<path class="st0" d="M352.9,242.1c17.2-0.9,30.7,9.9,47.5,12.2c11.4,1.6,21.1-19.7,36.7-13.6c97.4,37.6,114-26.1,177.2-28.7
	c63.2-2.6,86,33.2,126.9,32.7c62.6-0.8,65-66.7,145.6-66.7c34.1,0,60.5,22.8,92.1,52.2c19.3,18,46.6,33.8,81.8,39.9H302.7
	C333.9,268.1,332.9,243.1,352.9,242.1z"/>
<path class="st1" d="M1059,267.3c-25.9,0-76.5-45.2-147.6-45.2c-55.4,0-38.6,46.3-127.2,31.5c-28.6-4.8-72.8-35.4-141.2-25.1
	c-68.4,10.3-100.3,50.3-196.2,31.9c-13.5-2.6-44.1-3.3-64.5,0c-22.8,3.7-69.6,8.7-95.5,9.5c549,3.6,841.7,2,787.2-1.8
	C1074,268.2,1059,267.3,1059,267.3z"/>
</svg>
