<svg height="512" width="512" xmlns="http://www.w3.org/2000/svg"><linearGradient id="a" gradientUnits="userSpaceOnUse" x1="0" x2="512" y1="256" y2="256"><stop offset="0" stop-color="#ffdbed" stop-opacity="0"/><stop offset="1" stop-color="#ffdbed"/></linearGradient><path d="M418.32 2.5c-55.666-9.521-178.298 12.183-200.004 105.017-14.431 61.722-14.007 112.075-50.427 113.02-21.67.562-32.97-44.31-62.889-48.001-39.047-4.817-66.145 27.695-83.057 57.138-37.205 64.772-25.571 174.918 23.354 228.632 118.488 130.086 259.197-5.952 319.358-112.309 38.585-68.213 125.637-123.352 143.767-200.248C523.599 81.373 489.919 14.746 418.32 2.5z" fill="url(#a)"/><path d="M350.232 500.339H161.768c-16.569 0-30-13.431-30-30V89.661c0-16.569 13.431-30 30-30h188.464c16.569 0 30 13.431 30 30v380.678c0 16.569-13.431 30-30 30z" fill="#2626bc" opacity=".1"/><path d="M350.232 476.339H161.768c-16.569 0-30-13.431-30-30V65.661c0-16.569 13.431-30 30-30h188.464c16.569 0 30 13.431 30 30v380.678c0 16.569-13.431 30-30 30z" fill="#6583fe"/><path d="M131.77 78.57h248.46v354.86H131.77z" fill="#fff"/><path d="M180.323 190.654l-5.394 5.39a5 5 0 00-.001 7.072l5.4 5.4a15 15 0 014.393 10.607V433.43h-52.95V78.57h52.95v101.473a15.006 15.006 0 01-4.398 10.611z" fill="#ff5ba8"/><path d="M350.232 481.339H161.768c-19.299 0-35-15.701-35-35V65.661c0-19.299 15.701-35 35-35h188.465c19.299 0 35 15.701 35 35v380.678c-.001 19.299-15.702 35-35.001 35zM161.768 40.661c-13.785 0-25 11.215-25 25v380.678c0 13.785 11.215 25 25 25h188.465c13.785 0 25-11.215 25-25V65.661c0-13.785-11.215-25-25-25z" fill="#2626bc"/><path d="M273.483 63.031h-34.966a5 5 0 010-10h34.966a5 5 0 010 10z" fill="#b7c5ff"/><circle cx="296.813" cy="58.03" fill="#b7c5ff" r="5.002"/><path d="M163.245 150.613v-14.681a5 5 0 00-10 0v14.681a5 5 0 0010 0z" fill="#fff"/><path d="M205.339 143.768h74.681a5 5 0 000-10h-74.681a5 5 0 000 10zm0 18.395h44.681a5 5 0 000-10h-44.681a5 5 0 000 10z" fill="#8399fe"/><path d="M163.245 206.925v-14.681a5 5 0 00-10 0v14.681a5 5 0 0010 0zm0 56.312v-14.681a5 5 0 00-10 0v14.681a5 5 0 0010 0zm0 56.312v-14.681a5 5 0 00-10 0v14.681a5 5 0 0010 0z" fill="#fff"/><path d="M363.42 197.24v90.19c0 5.52-4.47 10-10 10H214.25c-5.53 0-10-4.48-10-10v-90.19c0-5.52 4.47-10 10-10h139.17c5.53 0 10 4.48 10 10z" fill="#ff7eb8"/><path d="M351.41 194.75c0 7.05-5.72 12.77-12.76 12.77-7.05 0-12.77-5.72-12.77-12.77 0-2.82.91-5.41 2.45-7.51h20.63a12.64 12.64 0 012.45 7.51z" fill="#ff5ba8"/><circle cx="338.645" cy="187.245" fill="#ffdbed" r="12.764"/><path d="M363.42 347.31v86.12H204.25v-86.12c0-5.52 4.47-10 10-10h139.17c5.53 0 10 4.48 10 10z" fill="#8399fe"/><path d="M351.41 344.82c0 7.05-5.72 12.77-12.76 12.77-7.05 0-12.77-5.72-12.77-12.77 0-2.8.91-5.4 2.45-7.51h20.63c1.54 2.11 2.45 4.71 2.45 7.51z" fill="#6583fe"/><circle cx="338.645" cy="337.313" fill="#d2deff" r="12.764"/><path d="M358.423 117.559H203.241a5 5 0 01-5-5v-11.023a5 5 0 015-5h155.182a5 5 0 015 5v11.023a5 5 0 01-5 5z" fill="#d2deff"/><path d="M358.423 96.536h-20.528v21.023h20.528a5 5 0 005-5v-11.023a5 5 0 00-5-5z" fill="#9fb0fe"/><path d="M298.143 251.763h-65.681a5 5 0 000 10h65.681a5 5 0 000-10z" fill="#fff"/><path d="M322.771 260.021l10.54-21.535c1.626-3.322-.793-7.198-4.491-7.198a5 5 0 00-4.491 2.802l-10.54 21.535c-1.626 3.322.793 7.198 4.491 7.198a5 5 0 004.491-2.802z" fill="#02ffb3"/><path d="M298.143 232.335h-65.681a5 5 0 000 10h65.681a5 5 0 000-10zm-54-23.345h-11.681a5 5 0 000 10h11.681a5 5 0 000-10zm54 192.941h-65.681a5 5 0 000 10h65.681a5 5 0 000-10z" fill="#fff"/><path d="M322.771 410.189l10.54-21.535c1.626-3.322-.793-7.198-4.491-7.198a5 5 0 00-4.491 2.802l-10.54 21.535c-1.626 3.322.793 7.198 4.491 7.198a5 5 0 004.491-2.802z" fill="#02ffb3"/><path d="M298.143 382.504h-65.681a5 5 0 000 10h65.681a5 5 0 000-10zm-54-23.346h-11.681a5 5 0 000 10h11.681a5 5 0 000-10z" fill="#fff"/><path d="M429.288 271.054c-7.88 0-14.291-6.411-14.291-14.292s6.411-14.292 14.291-14.292c7.881 0 14.292 6.411 14.292 14.292s-6.411 14.292-14.292 14.292zm0-18.583c-2.366 0-4.291 1.925-4.291 4.292s1.925 4.292 4.291 4.292 4.292-1.925 4.292-4.292-1.926-4.292-4.292-4.292z" fill="#ff5ba8"/><path d="M87.757 131.851c-7.881 0-14.292-6.411-14.292-14.292s6.411-14.292 14.292-14.292c7.88 0 14.291 6.411 14.291 14.292s-6.411 14.292-14.291 14.292zm0-18.583c-2.366 0-4.292 1.925-4.292 4.292s1.926 4.292 4.292 4.292 4.291-1.925 4.291-4.292-1.925-4.292-4.291-4.292z" fill="#6583fe"/><path d="M87.757 79.031a5 5 0 01-5-5c0-3.309-2.691-6-6-6a5 5 0 110-10c3.309 0 6-2.691 6-6a5 5 0 1110 0c0 3.309 2.691 6 6 6a5 5 0 110 10c-3.309 0-6 2.691-6 6a5 5 0 01-5 5z" fill="#01eca5"/><path d="M429.288 340.549a5 5 0 01-5-5c0-3.309-2.691-6-6-6a5 5 0 110-10c3.309 0 6-2.691 6-6a5 5 0 1110 0c0 3.309 2.691 6 6 6a5 5 0 110 10c-3.309 0-6 2.691-6 6a5 5 0 01-5 5zM449.58 234.99a5 5 0 01-5-5c0-3.309-2.691-6-6-6a5 5 0 110-10c3.309 0 6-2.691 6-6a5 5 0 1110 0c0 3.309 2.691 6 6 6a5 5 0 110 10c-3.309 0-6 2.691-6 6a5 5 0 01-5 5z" fill="#6583fe"/></svg>