<svg height="512" width="512" xmlns="http://www.w3.org/2000/svg"><linearGradient id="a" gradientUnits="userSpaceOnUse" x1="0" x2="512" y1="252.822" y2="252.822"><stop offset="0" stop-color="#ffdbed" stop-opacity="0"/><stop offset=".998" stop-color="#ffdbed"/></linearGradient><path d="M20.337 130.334C-3.63 169.732-6.156 237.947 11.4 280.59c15.377 37.351 45.966 72.41 86.12 76.801 14.766 1.615 29.858-1.024 44.472 1.638 50.257 9.152 68.952 71.09 108.01 104.014 27.182 22.913 64.898 31.021 100.174 26.607s68.302-20.363 97.376-40.824c22.957-16.157 44.436-36.022 55.764-61.707 23.744-53.839-4.19-118.501-47.587-158.239-13.516-12.377-28.581-23.294-39.875-37.727-11.293-14.434-18.48-33.695-13.099-51.214 4.293-13.977 15.849-24.812 20.227-38.763 5.958-18.984-3.035-40.281-17.802-53.616s-34.308-20.039-53.666-24.64C270.411 3.639 92.691 11.395 20.337 130.334z" fill="url(#a)"/><path d="M350.232 497.161H161.768c-16.569 0-30-13.431-30-30V86.483c0-16.569 13.431-30 30-30h188.464c16.569 0 30 13.431 30 30v380.678c0 16.568-13.431 30-30 30z" fill="#2626bc" opacity=".1"/><path d="M350.232 473.161H161.768c-16.569 0-30-13.431-30-30V62.483c0-16.569 13.431-30 30-30h188.464c16.569 0 30 13.431 30 30v380.678c0 16.568-13.431 30-30 30z" fill="#6583fe"/><path d="M131.77 75.392h248.46v354.86H131.77z" fill="#fff"/><path d="M131.77 75.392h248.46v121.026H131.77z" fill="#d2deff"/><path d="M268.024 410.722h-82.206c-5.523 0-10-4.477-10-10V239.089c0-5.523 4.477-10 10-10h82.206c5.523 0 10 4.477 10 10v161.633c0 5.523-4.477 10-10 10z" fill="#ffa8cf"/><path d="M319.127 410.722h-82.206c-5.523 0-10-4.477-10-10V239.089c0-5.523 4.477-10 10-10h82.206c5.523 0 10 4.477 10 10v161.633c0 5.523-4.477 10-10 10z" fill="#ff7eb8"/><path d="M380.23 239.092v161.63c0 5.52-4.48 10-10 10h-82.21c-5.52 0-10-4.48-10-10v-161.63c0-5.53 4.48-10 10-10h82.21c5.52 0 10 4.47 10 10z" fill="#ff5ba8"/><path d="M205.181 243.986H196.5a5 5 0 000 10h8.681a5 5 0 000-10zm50.681 0h-8.681a5 5 0 000 10h8.681a5 5 0 000-10z" fill="#fff"/><path d="M380.23 334.902v10h-56.86c-2.76 0-5-2.24-5-5s2.24-5 5-5z" fill="#ffa8cf"/><path d="M380.23 373.762v10h-56.86c-2.76 0-5-2.24-5-5s2.24-5 5-5zm0-19.43v10h-56.86c-2.76 0-5-2.24-5-5s2.24-5 5-5z" fill="#fff"/><path d="M350.232 478.161H161.768c-19.299 0-35-15.701-35-35V62.483c0-19.299 15.701-35 35-35h188.464c19.299 0 35 15.701 35 35v380.678c0 19.299-15.701 35-35 35zM161.768 37.483c-13.785 0-25 11.215-25 25v380.678c0 13.785 11.215 25 25 25h188.464c13.785 0 25-11.215 25-25V62.483c0-13.785-11.215-25-25-25z" fill="#2626bc"/><path d="M273.483 59.853h-34.966a5 5 0 010-10h34.966a5 5 0 010 10z" fill="#b7c5ff"/><circle cx="296.813" cy="54.851" fill="#b7c5ff" r="5.002"/><circle cx="324.168" cy="138.188" fill="#02ffb3" r="33.651"/><path d="M340.784 139.326c0-9.16-7.46-16.61-16.62-16.61s-16.61 7.45-16.61 16.61c0 4.52 1.82 8.62 4.75 11.62a16.55 16.55 0 00-4.75 11.61v4.9c3.07 1.74 6.43 3.02 10 3.73v-8.63c0-3.65 2.97-6.61 6.61-6.61 3.65 0 6.62 2.96 6.62 6.61v8.63c3.57-.71 6.93-1.99 10-3.73v-4.9c0-4.52-1.82-8.62-4.76-11.61 2.94-3 4.76-7.1 4.76-11.62zm-16.62 6.62c-3.64 0-6.61-2.97-6.61-6.62 0-3.64 2.97-6.61 6.61-6.61 3.65 0 6.62 2.97 6.62 6.61 0 3.65-2.97 6.62-6.62 6.62z" fill="#fff"/><path d="M166.387 96.208h51.511a8.329 8.329 0 110 16.658h-51.511c-4.601 0-8.329-3.729-8.329-8.329s3.728-8.329 8.329-8.329z" fill="#97ffd2"/><path d="M228.739 169.448h-65.681a5 5 0 000 10h65.681a5 5 0 000-10zm0-19.428h-65.681a5 5 0 000 10h65.681a5 5 0 000-10z" fill="#8399fe"/><path d="M174.739 124.716h-11.681a5 5 0 000 10h11.681a5 5 0 000-10z" fill="#ff7eb8"/><path d="M322.365 253.151h-5.332c-6.508 0-11.803-5.295-11.803-11.803v-16.457c0-6.508 5.295-11.803 11.803-11.803h5.332c6.508 0 11.803 5.295 11.803 11.803v16.457c0 6.508-5.295 11.803-11.803 11.803zm-5.332-30.062c-.994 0-1.803.809-1.803 1.803v16.457c0 .994.809 1.803 1.803 1.803h5.332c.994 0 1.803-.809 1.803-1.803v-16.457c0-.994-.809-1.803-1.803-1.803zm34.148 30.062a5 5 0 01-5-5v-25.062h-.444a5 5 0 110-10h5.444a5 5 0 015 5v30.062a5 5 0 01-5 5z" fill="#db237a"/><circle cx="349.107" cy="115.868" fill="#ff7eb8" r="5.002"/><circle cx="183.572" cy="364.332" fill="#02ffb3" r="28.297"/><path d="M188.589 379.374a5 5 0 003.053-8.962l-7.897-6.08 7.897-6.08a5.002 5.002 0 00.912-7.013 5.003 5.003 0 00-7.012-.911L172.5 360.37a5 5 0 000 7.924l13.042 10.042a4.985 4.985 0 003.047 1.038z" fill="#00b574"/><path d="M67.738 223.939c-7.88 0-14.292-6.411-14.292-14.292s6.411-14.292 14.292-14.292 14.292 6.411 14.292 14.292-6.412 14.292-14.292 14.292zm0-18.583c-2.366 0-4.292 1.925-4.292 4.292s1.925 4.292 4.292 4.292 4.292-1.925 4.292-4.292-1.926-4.292-4.292-4.292z" fill="#ff5ba8"/><path d="M451.522 183.739c-7.88 0-14.291-6.411-14.291-14.292s6.411-14.292 14.291-14.292 14.292 6.411 14.292 14.292-6.411 14.292-14.292 14.292zm0-18.583c-2.366 0-4.291 1.925-4.291 4.292s1.925 4.292 4.291 4.292 4.292-1.925 4.292-4.292-1.925-4.292-4.292-4.292z" fill="#01eca5"/><path d="M432.94 406.92c-7.88 0-14.292-6.411-14.292-14.292s6.411-14.292 14.292-14.292 14.292 6.411 14.292 14.292-6.412 14.292-14.292 14.292zm0-18.583c-2.366 0-4.292 1.925-4.292 4.292s1.925 4.292 4.292 4.292 4.292-1.925 4.292-4.292-1.926-4.292-4.292-4.292zm-6.292-236.621a5 5 0 01-5-5c0-3.309-2.691-6-6-6a5 5 0 010-10c3.309 0 6-2.691 6-6a5 5 0 0110 0c0 3.309 2.691 6 6 6a5 5 0 010 10c-3.309 0-6 2.691-6 6a5 5 0 01-5 5z" fill="#6583fe"/><path d="M88.029 269.986a5 5 0 01-5-5c0-3.309-2.691-6-6-6a5 5 0 010-10c3.309 0 6-2.691 6-6a5 5 0 0110 0c0 3.309 2.691 6 6 6a5 5 0 010 10c-3.309 0-6 2.691-6 6a5 5 0 01-5 5z" fill="#ff5ba8"/></svg>