<svg xmlns="http://www.w3.org/2000/svg" width="55.167" height="24" viewBox="659.833 217.454 55.167 24"><g transform="translate(-107)"><g transform="translate(107)"><linearGradient id="a" gradientUnits="userSpaceOnUse" x1="-32.866" y1="1276.257" x2="2536.502" y2="1240.258" gradientTransform="translate(.681 76.329) scale(.3186)"><stop offset="0" stop-color="#5d4ee6"/><stop offset=".299" stop-color="#444ad6" stop-opacity=".99"/><stop offset=".641" stop-color="#162e8a"/><stop offset="1" stop-color="#162e66"/></linearGradient><path fill="url(#a)" d="M37.875 334.627l612 .16v286.566h-612z"/><radialGradient id="b" cx="651.432" cy="606.583" r="1.842" gradientTransform="matrix(53.8154 -26.2861 -26.2861 -53.8153 -18846.902 50289.328)" gradientUnits="userSpaceOnUse"><stop offset="0" stop-color="#0037bf"/><stop offset=".11" stop-color="#013dc0"/><stop offset=".25" stop-color="#054fc2"/><stop offset=".42" stop-color="#0a6bc6"/><stop offset=".61" stop-color="#1294cb"/><stop offset=".81" stop-color="#1cc6d2"/><stop offset="1" stop-color="#27ffd9"/></radialGradient><path opacity=".09" fill="url(#b)" d="M423.558 490.238c26.824 10.545 50.561 25.646 70.631 44.027h-308.2c62.252-56.898 153.781-76.937 237.569-44.027z"/><g transform="translate(483 857)"><radialGradient id="c" cx="-810.5" cy="-266.903" r="1.935" gradientTransform="matrix(11.7876 0 0 -11.7876 9229.712 -3477.323)" gradientUnits="userSpaceOnUse"><stop offset="0" stop-color="#ae36e5"/><stop offset=".17" stop-color="#b23be4"/><stop offset=".38" stop-color="#be4be3"/><stop offset=".61" stop-color="#d164e0"/><stop offset=".86" stop-color="#ec87dc"/><stop offset="1" stop-color="#ff9fd9"/></radialGradient><path fill="url(#c)" d="M-302.809-337.039a12.363 12.363 0 01-7.583 11.469c-4.62 1.945-9.94.893-13.508-2.611s-4.62-8.855-2.708-13.508a12.302 12.302 0 0111.405-7.646c6.819-.001 12.362 5.479 12.394 12.296z"/></g></g><path fill="#1351A8" d="M760.575 311.765c-3.345 14.242-14.975 25.041-29.405 27.398s-28.863-4.27-36.542-16.693c-7.678-12.426-7.136-28.291 1.402-40.143s23.416-17.427 37.655-14.082c19.404 4.622 31.446 24.089 26.89 43.52z"/><path fill="#162E66" d="M738.529 269.842c5.83 2.645 10.354 7.551 12.457 13.635 2.103 6.086 1.688 12.711-1.211 18.447-15.931 23.83-39.664-15.961-55.625 3.981a15.618 15.618 0 00-2.325 10.163c3.759 10.195 11.915 18.16 22.205 21.632 1.051.351 2.166.669 3.249.956 18.414 4.333 37.02-6.34 42.595-24.467s-3.695-37.499-21.345-44.347z"/><linearGradient id="d" gradientUnits="userSpaceOnUse" x1="979.117" y1="606.523" x2="978.462" y2="606.773" gradientTransform="matrix(-163.7522 0 0 -108.4104 160432.234 66241.82)"><stop offset="0" stop-opacity="0"/><stop offset="1" stop-color="#fff"/></linearGradient><path opacity=".256" fill="url(#d)" d="M171.163 433.465c3.505 8.57 5.894 18.129 13.572 24.148 5.735 4.492 13.381 5.895 20.135 8.252 7.072 2.453 14.113 5.258 20.134 9.813 5.543 4.205 10.673 9.207 11.565 16.471 1.561 12.713-9.175 20.867-20.262 23.799-8.379 2.23-24.531 3.027-34.63 10.449H72.912v-72.096c.095-.063.191-.158.287-.191 9.303-3.152 13.508-2.229 20.612-2.006 12.074.381 22.875-5.768 29.979-15.324 4.842-6.529 9.207-14.494 17.299-17.361a24.288 24.288 0 018.156-1.436c9.079-.001 17.713 5.224 21.918 15.482"/><path opacity=".58" fill="#5D4EE6" d="M689.021 357.388c-7.614 7.485-17.715 9.812-26.666 13.73-9.366 4.109-18.7 8.762-26.665 16.311-7.359 6.978-14.113 15.324-15.324 27.398-2.07 21.154 8.441 31.029 26.855 39.568 18.415 8.537 59.002 33.801 72.352 46.131l9.11-18.828 108.512-9.939V351.877c-.128-.128-.256-.256-.383-.318-12.298-5.258-17.938-3.696-27.336-3.313-16.023.604-30.328-9.62-39.727-25.487-6.436-10.832-12.202-24.084-22.938-28.896-3.568-1.593-7.231-2.356-10.832-2.356-11.979 0-23.416 8.666-28.991 25.741-4.65 14.239-7.804 30.137-17.967 40.14z"/></g><g transform="translate(-4 -.028)"><g transform="translate(0 369.028)" opacity=".558"><linearGradient id="e" gradientUnits="userSpaceOnUse" x1="640.444" y1="254.566" x2="640.703" y2="253.489" gradientTransform="scale(10.0673 -10.0673) rotate(76.5 482.897 -279.046)"><stop offset="0" stop-color="#0575e6"/><stop offset="1" stop-color="#021b79"/></linearGradient><circle fill="url(#e)" cx="13.717" cy="12.887" r="5.575"/></g><g transform="translate(801 796.028)"><linearGradient id="f" gradientUnits="userSpaceOnUse" x1="-1836.28" y1="-146.625" x2="-1836.021" y2="-147.703" gradientTransform="matrix(.6629 -2.761 -2.761 -.6629 301.251 -5435.592)"><stop offset="0" stop-color="#0575e6"/><stop offset="1" stop-color="#021b79"/></linearGradient><circle fill="url(#f)" cx="-509.573" cy="-268.425" r="1.562"/></g><g transform="translate(830 746.028)"><linearGradient id="g" gradientUnits="userSpaceOnUse" x1="-1839.814" y1="-151.46" x2="-1838.707" y2="-151.492" gradientTransform="scale(13.5387 -13.5387) rotate(16.38 -1523.74 6188.743)"><stop offset="0" stop-color="#25f0f7"/><stop offset="1" stop-color="#2925f7"/></linearGradient><circle fill="url(#g)" cx="-520.796" cy="-228.525" r="7.487"/><path opacity=".2" d="M-518.248-235.565c.064.191.128.414.191.605 1.052 3.98-1.338 8.061-5.29 9.111a7.556 7.556 0 01-4.524-.225c1.147 3.25 4.396 5.289 7.837 4.939 3.441-.352 6.149-3.061 6.594-6.5a7.486 7.486 0 00-4.808-7.93z"/><path opacity=".2" fill="#FFF" d="M-522.262-233.813a1.408 1.408 0 01-1.02 1.723 1.408 1.408 0 01-1.721-1.021c-.191-.764.255-1.529 1.02-1.721s1.53.287 1.721 1.019zm-2.803 1.594a.7.7 0 01-.51.859.701.701 0 01-.86-.51.7.7 0 01.51-.859.702.702 0 01.86.51z"/></g><g transform="translate(195 113.028)" opacity=".454"><linearGradient id="h" gradientUnits="userSpaceOnUse" x1="50.07" y1="474.497" x2="51.176" y2="474.466" gradientTransform="scale(7.7722 -7.7722) rotate(16.38 1745.424 -1.003)"><stop offset="0" stop-color="#25f0f7"/><stop offset="1" stop-color="#2925f7"/></linearGradient><circle fill="url(#h)" cx="-114.094" cy="176.912" r="4.301"/><path opacity=".2" fill="#FFF" d="M-114.89 173.981c.127.478-.159.956-.637 1.083s-.956-.159-1.083-.637c-.127-.479.16-.957.637-1.084s.955.161 1.083.638zm-1.753 1.019c.064.191-.063.383-.255.446-.191.063-.382-.063-.446-.255-.064-.191.063-.383.255-.446.224-.064.415.063.446.255z"/></g><g transform="translate(1370 135.028)"><linearGradient id="i" gradientUnits="userSpaceOnUse" x1="-3443.27" y1="464.206" x2="-3442.169" y2="464.329" gradientTransform="scale(16.5473 -16.5473) rotate(13.88 188.612 14202.576)"><stop offset="0" stop-color="#ff8b04"/><stop offset="1" stop-color="#ffe204"/></linearGradient><circle fill="url(#i)" cx="-678.82" cy="94.232" r="9.175"/><linearGradient id="j" gradientUnits="userSpaceOnUse" x1="-3440.939" y1="463.222" x2="-3439.843" y2="463.615" gradientTransform="matrix(15.6369 0 0 -15.1683 53117.813 7122.325)"><stop offset="0" stop-color="#ff8b04"/><stop offset="1" stop-color="#ffe204"/></linearGradient><path opacity=".2" fill="url(#j)" d="M-681.082 85.344c1.307 1.943 1.528 4.684.286 6.723-1.528 2.549-4.747 3.76-6.212 6.309.732 1.434 1.783 2.645 3.122 3.504.352-.224.7-.51.987-.828 1.529-1.594 2.835-3.791 5.002-4.11 2.07-.317 3.981 1.243 6.085 1.498.382.032.765.032 1.115 0 1.624-3.218 1.241-7.073-.988-9.876-2.229-2.838-5.893-4.08-9.397-3.22z"/><linearGradient id="k" gradientUnits="userSpaceOnUse" x1="-3440.34" y1="458.117" x2="-3439.308" y2="458.485" gradientTransform="matrix(10.5722 0 0 -10.2042 35690.113 4767.913)"><stop offset="0" stop-color="#ff8b04"/><stop offset="1" stop-color="#ffe204"/></linearGradient><path opacity=".2" fill="url(#k)" d="M-679.234 85.056c.382.479.699.988.955 1.529.669 1.435.669 3.313-.414 4.461-.541.572-1.242.924-1.849 1.465-.604.51-1.051 1.338-.797 2.07.256.733 1.052 1.051 1.753.988.732-.096 1.401-.415 2.007-.859a6.941 6.941 0 011.911-1.051 3.347 3.347 0 012.294.158c.798.382 1.402 1.083 2.071 1.657.414.382.86.669 1.37.86.669-2.804 0-5.767-1.849-7.965-1.814-2.197-4.585-3.406-7.452-3.313z"/><path opacity=".2" d="M-676.463 85.377c.127.223.224.478.318.732a9.112 9.112 0 01-1.849 9.334 9.168 9.168 0 01-9.144 2.676 9.202 9.202 0 0010.194 5.098 9.14 9.14 0 007.296-8.729c.098-4.238-2.706-8.029-6.815-9.111z"/><path opacity=".2" fill="#FFF" d="M-681.082 88.052c.351.924-.128 1.975-1.052 2.293-.924.351-1.976-.127-2.294-1.051s.128-1.976 1.052-2.295c.445-.158.925-.158 1.369.064.415.159.734.543.925.989zm-3.537 2.262c.159.479-.063.988-.541 1.146-.479.16-.987-.063-1.146-.51-.159-.479.064-.988.51-1.146.225-.096.479-.063.701.031a.722.722 0 01.476.479z"/><linearGradient id="l" gradientUnits="userSpaceOnUse" x1="-3441.67" y1="465.542" x2="-3440.564" y2="465.708" gradientTransform="matrix(47.5782 0 0 -19.3275 163043.344 9093.595)"><stop offset="0" stop-color="#ff8b04"/><stop offset="1" stop-color="#ffe204"/></linearGradient><path fill="url(#l)" d="M-672.99 87.16c.223.191.414.35.637.573 8.793-2.644 15.42-3.474 16.025-1.815.796 2.103-8.666 7.549-21.092 12.17-12.425 4.619-23.129 6.594-23.926 4.459-.604-1.655 4.97-5.319 13.381-9.047.032-.287.063-.574.096-.828-10.704 4.588-18.031 9.238-17.268 11.277.924 2.485 13.444.127 27.972-5.225 14.528-5.352 25.552-11.725 24.627-14.209-.733-2.039-9.334-.828-20.452 2.645z"/></g><circle fill="#FFF" cx="549.926" cy="379.166" r=".701"/><circle fill="#FFF" cx="558.719" cy="386.239" r=".701"/><circle fill="#FFF" cx="550.627" cy="395.414" r=".701"/><circle fill="#FFF" cx="569.327" cy="277.155" r=".701"/><circle fill="#FFF" cx="467.316" cy="319.527" r=".701"/><circle fill="#FFF" cx="489.554" cy="281.392" r=".701"/><circle fill="#FFF" cx="160.966" cy="252.465" r=".701"/><circle fill="#FFF" cx="104.131" cy="284.578" r=".701"/><circle fill="#FFF" cx="71.317" cy="310.702" r=".701"/><circle fill="#8DA8FF" cx="176.131" cy="476.939" r=".701"/><circle fill="#8DA8FF" cx="215.317" cy="478.341" r=".7"/><circle fill="#8DA8FF" cx="140.131" cy="474.104" r=".701"/><circle fill="#8DA8FF" cx="150.74" cy="524.566" r=".701"/><circle fill="#8DA8FF" cx="158.864" cy="500.93" r=".701"/><circle fill="#8DA8FF" cx="116.142" cy="479.773" r=".701"/><circle fill="#8DA8FF" cx="92.853" cy="307.516" r=".701"/><circle fill="#8DA8FF" cx="48.379" cy="320.578" r=".701"/><circle fill="#8DA8FF" cx="103.43" cy="270.814" r=".701"/><circle fill="#8DA8FF" cx="80.142" cy="272.217" r=".701"/><circle fill="#8DA8FF" cx="101.328" cy="519.98" r=".701"/><circle fill="#8DA8FF" cx="27.193" cy="446.578" r=".701"/><circle fill="#FFF" cx="84.379" cy="485.063" r=".701"/><circle fill="#FFF" cx="160.266" cy="486.465" r=".701"/><circle fill="#FFF" cx="190.977" cy="499.527" r=".701"/><circle fill="#FFF" cx="126.368" cy="513.641" r=".701"/><circle fill="#2791F7" cx="231.564" cy="245.393" r=".701"/><circle fill="#FFF" cx="410.131" cy="312.104" r=".701"/><circle fill="#FFF" cx="399.554" cy="247.177" r=".701"/><circle fill="#FFF" cx="441.193" cy="261.64" r=".701"/><circle fill="#2791F7" cx="455.688" cy="447.98" r=".701"/><circle fill="#2791F7" cx="537.915" cy="504.814" r=".701"/><circle fill="#FFF" cx="600.039" cy="499.176" r=".701"/><circle fill="#FFF" cx="590.863" cy="449.414" r=".701"/><circle fill="#FFF" cx="467.316" cy="518.229" r=".701"/><circle fill="#FFF" cx="411.564" cy="496.341" r=".7"/><circle fill="#FFF" cx="491.307" cy="486.465" r=".701"/><circle fill="#FFF" cx="498.729" cy="480.125" r="2.104"/><circle fill="#FFF" cx="609.564" cy="404.589" r=".7"/><circle fill="#FFF" cx="557.316" cy="314.239" r=".701"/><circle fill="#FFF" cx="532.627" cy="339.279" r="1.052"/><circle fill="#2791F7" cx="525.554" cy="341.414" r=".701"/><circle fill="#2791F7" cx="581.307" cy="349.888" r=".701"/><circle fill="#2791F7" cx="584.684" cy="355.336" r="1.943"/><circle fill="#FFF" cx="508.255" cy="384.805" r=".701"/><circle fill="#2791F7" cx="536.514" cy="265.877" r=".701"/><circle fill="#2791F7" cx="542.854" cy="423.99" r=".701"/><circle fill="#2791F7" cx="565.09" cy="435.65" r=".701"/><circle fill="#2791F7" cx="544.956" cy="431.063" r=".701"/><circle fill="#2791F7" cx="511.791" cy="420.104" r=".701"/><circle fill="#2791F7" cx="570.729" cy="531.99" r=".701"/><circle fill="#FFF" cx="505.101" cy="446.229" r=".701"/><g transform="translate(1259 133.028)"><radialGradient id="m" cx="-3125.352" cy="451.546" r=".962" gradientTransform="matrix(9.7169 0 0 -9.7169 29564.738 4555.563)" gradientUnits="userSpaceOnUse"><stop offset="0" stop-color="#0037bf"/><stop offset=".11" stop-color="#013dc0"/><stop offset=".25" stop-color="#054fc2"/><stop offset=".42" stop-color="#0a6bc6"/><stop offset=".61" stop-color="#1294cb"/><stop offset=".81" stop-color="#1cc6d2"/><stop offset="1" stop-color="#27ffd9"/></radialGradient><path fill="url(#m)" d="M-796.813 163.984a5.382 5.382 0 01-3.313 4.97c-2.007.829-4.332.382-5.861-1.179a5.406 5.406 0 01-1.179-5.862 5.381 5.381 0 014.97-3.313 5.376 5.376 0 015.383 5.384z"/><radialGradient id="n" cx="-3193.376" cy="354.349" r=".96" gradientTransform="matrix(1.9115 0 0 -1.9115 5301.4 839.288)" gradientUnits="userSpaceOnUse"><stop offset="0" stop-color="#5fd5ff"/><stop offset="1" stop-color="#60d4ff"/></radialGradient><path fill="url(#n)" d="M-801.305 161.179c0 .574-.479 1.052-1.052 1.052a1.062 1.062 0 01-1.052-1.052c0-.572.479-1.051 1.052-1.051a1.062 1.062 0 011.052 1.051z"/><radialGradient id="o" cx="-3205.841" cy="336.536" r=".985" gradientTransform="matrix(1.6662 0 0 -1.6662 4538.963 722.453)" gradientUnits="userSpaceOnUse"><stop offset="0" stop-color="#5fd5ff"/><stop offset="1" stop-color="#60d4ff"/></radialGradient><path fill="url(#o)" d="M-802.388 160.129c-.318 0-.638.159-.828.414.317-.287.765-.35 1.146-.191.383.16.639.543.639.957a.963.963 0 01-.225.637c.225-.191.352-.479.352-.796-.001-.543-.478-1.021-1.084-1.021z"/><radialGradient id="p" cx="-3240.822" cy="172.753" r=".934" gradientTransform="matrix(.8405 .1681 .1681 -.8405 1896.104 855.269)" gradientUnits="userSpaceOnUse"><stop offset="0" stop-color="#5fd5ff"/><stop offset="1" stop-color="#60d4ff"/></radialGradient><path fill="url(#p)" d="M-797.673 164.366a.506.506 0 01-.573.446c-.287-.063-.414-.35-.351-.637a.507.507 0 01.572-.447c.256.097.417.384.352.638z"/><radialGradient id="q" cx="-3270.641" cy="104.62" r="1.025" gradientTransform="matrix(.6858 .1372 .1372 -.6858 1430.016 685.578)" gradientUnits="userSpaceOnUse"><stop offset="0" stop-color="#5fd5ff"/><stop offset="1" stop-color="#60d4ff"/></radialGradient><path fill="url(#q)" d="M-798.023 163.728c-.158-.031-.285.033-.414.16.097-.063.225-.096.319-.063.255.063.414.351.351.638-.031.127-.096.223-.159.317a.635.635 0 00.255-.382.587.587 0 00-.352-.67z"/><radialGradient id="r" cx="-3357.408" cy="111.347" r=".969" gradientTransform="matrix(.6382 0 0 -.6382 1345.83 238.273)" gradientUnits="userSpaceOnUse"><stop offset="0" stop-color="#5fd5ff"/><stop offset="1" stop-color="#60d4ff"/></radialGradient><path fill="url(#r)" d="M-799.233 166.692a.36.36 0 01-.479.096.358.358 0 01-.095-.478.386.386 0 01.317-.159c.127 0 .224.096.286.19.066.096.034.254-.029.351z"/><radialGradient id="s" cx="-3099.975" cy="-201.128" r="1.322" gradientTransform="matrix(.3421 .24 .24 -.3421 312.007 842.26)" gradientUnits="userSpaceOnUse"><stop offset="0" stop-color="#5fd5ff"/><stop offset="1" stop-color="#60d4ff"/></radialGradient><path fill="url(#s)" d="M-799.297 166.151a.384.384 0 00-.319-.032.25.25 0 01.255.063.369.369 0 01.032.543.566.566 0 01-.223.158.459.459 0 00.286-.19c.16-.16.16-.383-.031-.542z"/><radialGradient id="t" cx="-3713.053" cy="323.892" r=".872" gradientTransform="scale(.4485 -.4485) rotate(41.52 -1835.64 2538.856)" gradientUnits="userSpaceOnUse"><stop offset="0" stop-color="#5fd5ff"/><stop offset="1" stop-color="#60d4ff"/></radialGradient><path fill="url(#t)" d="M-798.438 161.34a.25.25 0 010 .351c-.128.096-.256.063-.351-.063a.25.25 0 010-.351c.063-.032.127-.063.19-.032a.172.172 0 01.161.095z"/><radialGradient id="u" cx="-4028.898" cy="186.611" r="1.099" gradientTransform="matrix(.2386 -.1855 -.2112 -.2096 205.325 -545.33)" gradientUnits="userSpaceOnUse"><stop offset="0" stop-color="#5fd5ff"/><stop offset="1" stop-color="#60d4ff"/></radialGradient><path fill="url(#u)" d="M-798.787 161.276c-.063.063-.063.127-.063.19 0-.063.031-.127.063-.16.063-.031.127-.063.19-.031.063 0 .128.031.159.096a.249.249 0 01.063.159.344.344 0 00-.063-.19.177.177 0 00-.159-.097c-.063-.03-.127-.03-.19.033z"/><radialGradient id="v" cx="-3267.726" cy="247.857" r=".963" gradientTransform="matrix(1.0195 0 0 -1.0195 2526.195 420.445)" gradientUnits="userSpaceOnUse"><stop offset="0" stop-color="#5fd5ff"/><stop offset="1" stop-color="#60d4ff"/></radialGradient><path fill="url(#v)" d="M-804.427 167.329c0 .317-.255.573-.573.573s-.573-.256-.573-.573a.57.57 0 01.573-.573c.318.032.573.287.573.573z"/><radialGradient id="w" cx="-3285.982" cy="221.737" r=".962" gradientTransform="matrix(.9144 0 0 -.9144 2199.603 370.397)" gradientUnits="userSpaceOnUse"><stop offset="0" stop-color="#5fd5ff"/><stop offset="1" stop-color="#60d4ff"/></radialGradient><path fill="url(#w)" d="M-805 166.788c-.191 0-.351.063-.446.224a.535.535 0 01.605-.096c.19.096.351.318.317.543 0 .127-.03.254-.127.35.159-.159.224-.381.159-.604-.029-.258-.253-.385-.508-.417z"/><radialGradient id="x" cx="-3371.732" cy="651.303" r="1.038" gradientTransform="matrix(.0189 -.8983 -.8983 -.0189 -159.64 -2854.148)" gradientUnits="userSpaceOnUse"><stop offset="0" stop-color="#5fd5ff"/><stop offset="1" stop-color="#60d4ff"/></radialGradient><path fill="url(#x)" d="M-806.593 161.976a.527.527 0 01.478.543c0 .287-.223.51-.51.541a.525.525 0 01-.479-.541c0-.319.224-.543.511-.543z"/><radialGradient id="y" cx="-3405.421" cy="673.75" r="1.049" gradientTransform="scale(.7967 -.7967) rotate(88.792 -1762.181 1455.753)" gradientUnits="userSpaceOnUse"><stop offset="0" stop-color="#5fd5ff"/><stop offset="1" stop-color="#60d4ff"/></radialGradient><path fill="url(#y)" d="M-807.104 162.487c0 .16.063.319.191.415a.668.668 0 01-.128-.352.58.58 0 01.159-.381.514.514 0 01.351-.16c.097 0 .224.033.287.127-.096-.096-.224-.19-.351-.19a.583.583 0 00-.383.16.627.627 0 00-.126.381z"/><radialGradient id="z" cx="-3285.021" cy="593.285" r="1.026" gradientTransform="matrix(.0282 -1.3394 -1.3394 -.0282 80.906 -4219.479)" gradientUnits="userSpaceOnUse"><stop offset="0" stop-color="#5fd5ff"/><stop offset="1" stop-color="#60d4ff"/></radialGradient><path fill="url(#z)" d="M-804.682 162.965c.414.032.732.383.732.797s-.318.765-.765.765c-.414-.032-.733-.382-.733-.796s.352-.766.766-.766z"/><radialGradient id="A" cx="-3309.644" cy="609.663" r="1.047" gradientTransform="scale(1.176 -1.176) rotate(88.792 -1615.457 1575.152)" gradientUnits="userSpaceOnUse"><stop offset="0" stop-color="#5fd5ff"/><stop offset="1" stop-color="#60d4ff"/></radialGradient><path fill="url(#A)" d="M-805.414 163.728c0 .256.096.479.287.638a.775.775 0 01-.191-.51c0-.414.352-.765.766-.765.159 0 .317.063.444.158-.127-.158-.317-.287-.541-.287-.19 0-.383.096-.542.223-.159.128-.223.353-.223.543z"/></g><g transform="rotate(2 425.76 37360.069)"><radialGradient id="B" cx="-3229.884" cy="617.593" r=".551" gradientTransform="scale(4.5112 -4.5112) rotate(1.999 17712.098 87578.56)" gradientUnits="userSpaceOnUse"><stop offset="0" stop-color="#fff"/><stop offset=".09" stop-color="#fff" stop-opacity=".87"/><stop offset=".28" stop-color="#fff" stop-opacity=".61"/><stop offset=".46" stop-color="#fff" stop-opacity=".39"/><stop offset=".63" stop-color="#fff" stop-opacity=".22"/><stop offset=".78" stop-color="#fff" stop-opacity=".1"/><stop offset=".91" stop-color="#fff" stop-opacity=".03"/><stop offset="1" stop-color="#fff" stop-opacity="0"/></radialGradient><path fill="url(#B)" d="M-823.018 271.48c-.001 1.02-.607 1.911-1.529 2.326-.924.381-2.007.158-2.74-.543-.732-.7-.923-1.783-.541-2.707a2.498 2.498 0 012.295-1.528 2.445 2.445 0 012.515 2.452z"/></g><g transform="translate(1194 679.028)"><radialGradient id="C" cx="-2949.938" cy="-126.351" r=".552" gradientTransform="matrix(4.5112 0 0 -4.5112 12544.766 -729.42)" gradientUnits="userSpaceOnUse"><stop offset="0" stop-color="#fff"/><stop offset=".09" stop-color="#fff" stop-opacity=".87"/><stop offset=".28" stop-color="#fff" stop-opacity=".61"/><stop offset=".46" stop-color="#fff" stop-opacity=".39"/><stop offset=".63" stop-color="#fff" stop-opacity=".22"/><stop offset=".78" stop-color="#fff" stop-opacity=".1"/><stop offset=".91" stop-color="#fff" stop-opacity=".03"/><stop offset="1" stop-color="#fff" stop-opacity="0"/></radialGradient><path fill="url(#C)" d="M-760.517-159.389c0 1.02-.605 1.912-1.529 2.326-.924.381-2.007.158-2.74-.543a2.505 2.505 0 01-.541-2.707 2.5 2.5 0 012.294-1.529 2.45 2.45 0 012.516 2.453z"/></g><g transform="translate(304 168.028)" opacity=".449"><radialGradient id="D" cx="-286.716" cy="389.24" r=".553" gradientTransform="matrix(4.5112 0 0 -4.5112 1106.296 1894.698)" gradientUnits="userSpaceOnUse"><stop offset="0" stop-color="#fff"/><stop offset=".09" stop-color="#fff" stop-opacity=".87"/><stop offset=".28" stop-color="#fff" stop-opacity=".61"/><stop offset=".46" stop-color="#fff" stop-opacity=".39"/><stop offset=".63" stop-color="#fff" stop-opacity=".22"/><stop offset=".78" stop-color="#fff" stop-opacity=".1"/><stop offset=".91" stop-color="#fff" stop-opacity=".03"/><stop offset="1" stop-color="#fff" stop-opacity="0"/></radialGradient><path fill="url(#D)" d="M-184.641 138.797c0 1.021-.605 1.912-1.529 2.326-.924.383-2.007.159-2.74-.542a2.506 2.506 0 01-.542-2.708 2.5 2.5 0 012.293-1.529 2.449 2.449 0 012.518 2.453z"/></g><g transform="translate(1596 458.028)"><linearGradient id="E" gradientUnits="userSpaceOnUse" x1="-4139.091" y1="120.072" x2="-4137.982" y2="120.072" gradientTransform="matrix(7.9009 0 0 -7.9009 31676.527 901.354)"><stop offset="0" stop-color="#ea288d"/><stop offset=".22" stop-color="#f05c8f"/><stop offset=".49" stop-color="#f69592"/><stop offset=".71" stop-color="#fbbe94"/><stop offset=".89" stop-color="#fed795"/><stop offset="1" stop-color="#ffe095"/></linearGradient><path fill="url(#E)" d="M-1017.211-47.313a4.37 4.37 0 01-4.364 4.363c-2.421 0-4.364-1.975-4.364-4.363s1.976-4.365 4.364-4.365c1.146 0 2.263.445 3.09 1.275.797.829 1.274 1.944 1.274 3.09z"/><g opacity=".2" fill="#A3A3A3"><path d="M-1020.684-49.543a.891.891 0 01-.893.893.891.891 0 01-.892-.893c0-.479.382-.893.892-.893s.893.414.893.893z"/><path d="M-1021.575-50.436a.842.842 0 00-.701.352.923.923 0 01.574-.225c.351 0 .637.191.796.48a.821.821 0 01-.096.924.896.896 0 00.255-.988c-.127-.351-.478-.543-.828-.543z"/></g><g opacity=".2" fill="#A3A3A3"><path d="M-1017.656-46.867c0 .16-.096.287-.255.352-.159.063-.319.031-.414-.096-.096-.129-.16-.287-.096-.414.031-.225.223-.414.478-.383.222.062.35.318.287.541z"/><path d="M-1017.943-47.408a.3.3 0 00-.317.127.302.302 0 01.286-.064c.224.064.351.287.287.543-.032.096-.063.191-.127.256.095-.064.158-.191.189-.318.032-.226-.096-.482-.318-.544z"/></g><g opacity=".2" fill="#A3A3A3"><path d="M-1018.963-44.924c-.096.158-.287.191-.446.127-.127-.127-.159-.318-.031-.445.063-.096.159-.16.286-.127.128.031.225.096.255.189.032.065 0 .193-.064.256z"/><path d="M-1018.994-45.369a.312.312 0 00-.287-.033c.063-.031.159 0 .224.033.128.127.159.316.031.445-.031.063-.096.096-.159.127.097-.031.191-.063.224-.158.126-.096.094-.319-.033-.414z"/></g><g opacity=".2" fill="#A3A3A3"><path d="M-1018.294-49.416c.096.096.096.223 0 .287-.096.063-.191.031-.286-.031-.063-.033-.096-.129-.063-.191.031-.063.096-.127.159-.127.094-.034.159-.001.19.062z"/><path d="M-1018.549-49.479a.246.246 0 00-.063.158c0-.031.032-.096.063-.127.096-.064.224-.031.287.031a.253.253 0 01.063.127.238.238 0 00-.063-.158c-.032-.031-.096-.064-.128-.096-.063.032-.127.032-.159.065z"/></g><g opacity=".2" fill="#A3A3A3"><path d="M-1023.296-44.383c0 .191-.127.352-.286.445-.191.064-.383.033-.51-.096-.128-.127-.191-.35-.096-.51.063-.189.255-.285.445-.285.223-.031.447.161.447.446z"/><path d="M-1023.773-44.86a.454.454 0 00-.382.191c.096-.064.19-.129.318-.129.255 0 .478.225.478.479 0 .096-.03.191-.096.287a.51.51 0 00.159-.352.47.47 0 00-.477-.476z"/></g><g opacity=".2" fill="#A3A3A3"><path d="M-1025.111-48.873c.256 0 .446.223.446.443a.456.456 0 01-.446.447.455.455 0 01-.445-.447.431.431 0 01.445-.443z"/><path d="M-1025.525-48.428a.51.51 0 00.159.352.521.521 0 01-.096-.287c0-.254.191-.445.446-.445a.36.36 0 01.255.096.39.39 0 00-.319-.158c-.127 0-.223.063-.317.127-.096.061-.128.188-.128.315z"/></g><g opacity=".2" fill="#A3A3A3"><path d="M-1023.486-48.078a.662.662 0 01.605.67.64.64 0 01-.638.637.659.659 0 01-.605-.668c0-.352.287-.606.638-.639z"/><path d="M-1024.124-47.408c0 .191.063.383.224.541a.758.758 0 01-.16-.445c0-.352.287-.637.639-.637.127 0 .255.063.382.158-.096-.158-.286-.225-.479-.225a.63.63 0 00-.445.191c-.098.067-.161.256-.161.417z"/></g></g><g transform="translate(374 196.028)"><linearGradient id="F" gradientUnits="userSpaceOnUse" x1="-500.557" y1="356.413" x2="-499.449" y2="356.413" gradientTransform="matrix(4.1416 0 0 -4.1416 1837.835 1596.25)"><stop offset="0" stop-color="#ea288d"/><stop offset=".22" stop-color="#f05c8f"/><stop offset=".49" stop-color="#f69592"/><stop offset=".71" stop-color="#fbbe94"/><stop offset=".89" stop-color="#fed795"/><stop offset="1" stop-color="#ffe095"/></linearGradient><path fill="url(#F)" d="M-230.683 120.131c0 1.274-1.02 2.295-2.294 2.295s-2.294-1.021-2.294-2.295a2.285 2.285 0 012.294-2.293c.605 0 1.179.254 1.625.668.446.446.669 1.02.669 1.625z"/><g opacity=".2" fill="#A3A3A3"><path d="M-232.436 119.08c0 .256-.223.446-.542.446-.318 0-.542-.19-.542-.446 0-.255.223-.445.542-.445.32 0 .542.222.542.445z"/><path d="M-232.977 118.666a.513.513 0 00-.414.191.65.65 0 01.351-.096c.191 0 .382.096.478.254.096.16.064.32-.063.479.159-.127.223-.318.159-.479a.506.506 0 00-.511-.349z"/></g><g opacity=".2" fill="#A3A3A3"><path d="M-230.779 120.353c0 .096-.063.191-.159.256-.096.031-.223.031-.287-.064s-.096-.191-.064-.287a.31.31 0 01.319-.254c.128.031.223.191.191.349z"/><path d="M-230.97 120.004c-.096 0-.16 0-.223.096.032-.063.096-.063.159-.063.159.032.223.19.191.351a.178.178 0 01-.096.16c.063-.063.127-.127.127-.224.065-.129-.03-.289-.158-.32z"/></g><g opacity=".2" fill="#A3A3A3"><path d="M-231.639 121.533c-.063.096-.191.127-.287.096-.095-.063-.095-.224-.032-.318.032-.063.127-.096.191-.096s.127.063.16.127c.032.064 0 .127-.032.191z"/><path d="M-231.671 121.215a.197.197 0 00-.191 0c.063 0 .095 0 .127.031.095.063.095.223.032.318-.032.031-.064.063-.096.063.064 0 .127-.063.159-.095a.24.24 0 00-.031-.317z"/></g><g opacity=".2" fill="#A3A3A3"><path d="M-231.416 118.984c.032.031.032.096 0 .158-.032.033-.096.033-.127-.031-.032-.032-.032-.063-.032-.096 0-.032.032-.063.063-.063.033-.03.064 0 .096.032z"/><path d="M-231.575 118.952c-.032.032-.032.063-.032.097.032-.034.032-.065.032-.097.032 0 .096 0 .159.032 0 .031.032.031.032.064 0-.033 0-.064-.032-.097 0-.032-.032-.032-.063-.032-.033.003-.064.033-.096.033z"/></g><g opacity=".2" fill="#A3A3A3"><path d="M-233.933 121.756c0 .127-.064.254-.159.287-.096.063-.191.032-.255-.064a.44.44 0 01-.064-.35c.032-.127.127-.191.223-.191.16-.001.255.157.255.318z"/><path d="M-234.156 121.437c-.063 0-.127.031-.191.127a.176.176 0 01.159-.096c.127 0 .223.127.223.318 0 .063-.032.127-.063.191a.346.346 0 00.096-.223c-.001-.159-.096-.317-.224-.317z"/></g><g opacity=".2" fill="#A3A3A3"><path d="M-234.92 119.429c.159 0 .287.097.287.224s-.127.224-.318.224c-.159 0-.287-.097-.287-.224s.158-.224.318-.224z"/><path d="M-235.207 119.653c0 .063.032.127.096.19a.242.242 0 01-.064-.16c0-.127.127-.223.287-.223.064 0 .127.032.16.063-.064-.063-.127-.063-.191-.063a.35.35 0 00-.191.063c-.065.003-.097.067-.097.13z"/></g><g opacity=".2" fill="#A3A3A3"><path d="M-233.869 119.653c.159 0 .319.159.319.351a.319.319 0 01-.319.318c-.159 0-.318-.159-.318-.35.031-.16.159-.319.318-.319z"/><path d="M-234.156 119.972c0 .095.032.19.127.254-.063-.063-.063-.127-.063-.223 0-.191.127-.318.318-.318.063 0 .127.031.191.063-.063-.063-.127-.127-.223-.127a.284.284 0 00-.223.097c-.095.094-.127.19-.127.254z"/></g></g><g transform="translate(1452 595.028)"><radialGradient id="G" cx="-3693.322" cy="4.386" r=".963" gradientTransform="matrix(27.3982 0 0 -27.3982 100287.625 4.493)" gradientUnits="userSpaceOnUse"><stop offset="0" stop-color="#0037bf"/><stop offset=".11" stop-color="#013dc0"/><stop offset=".25" stop-color="#054fc2"/><stop offset=".42" stop-color="#0a6bc6"/><stop offset=".61" stop-color="#1294cb"/><stop offset=".81" stop-color="#1cc6d2"/><stop offset="1" stop-color="#27ffd9"/></radialGradient><path fill="url(#G)" d="M-881.334-119.258c-3.059 7.807-11.884 11.629-19.689 8.57-7.805-3.059-11.628-11.885-8.568-19.658 3.059-7.805 11.883-11.627 19.656-8.568 7.835 3.058 11.659 11.883 8.601 19.656z"/><g opacity=".2" fill="#5F9994"><path d="M-889.711-131.045c-.445 1.178-1.562 1.975-2.804 1.975-1.242.031-2.356-.732-2.867-1.879-.48-1.148-.255-2.52.605-3.441a2.948 2.948 0 013.313-.732 3.196 3.196 0 011.753 4.077z"/><path d="M-891.43-135.09a2.94 2.94 0 00-2.676.254 2.997 2.997 0 012.103 0c1.115.414 1.88 1.465 2.008 2.645.128 1.178-.48 2.357-1.497 2.963a3.068 3.068 0 002.007-2.898 3.21 3.21 0 00-1.945-2.964z"/></g><g opacity=".2" fill="#5F9994"><path d="M-883.147-118.399a1.312 1.312 0 01-1.848.129c-.542-.479-.67-1.34-.224-1.943.445-.605 1.21-.766 1.815-.352.608.51.735 1.498.257 2.166z"/><path d="M-883.434-120.565a1.235 1.235 0 00-1.242-.031c.318-.096.669-.031.956.129.638.539.732 1.496.224 2.164a2.175 2.175 0 01-.732.701 1.567 1.567 0 001.05-.797c.54-.701.414-1.656-.256-2.166z"/></g><g opacity=".2" fill="#5F9994"><path d="M-889.87-113.78c-.541.256-1.18 0-1.466-.51-.286-.541-.063-1.18.446-1.496a1.125 1.125 0 011.497.383 1.2 1.2 0 01-.476 1.623z"/><path d="M-889.391-115.403c-.19-.287-.542-.447-.892-.447.254.033.51.191.669.414a1.19 1.19 0 01-.51 1.625c-.225.16-.511.225-.798.256.352.063.732-.031 1.02-.225.608-.318.829-1.05.51-1.623z"/></g><g opacity=".2" fill="#5F9994"><path d="M-881.936-127.35a.68.68 0 01-.032.732.667.667 0 01-.7.254c-.256-.063-.445-.285-.511-.541-.127-.223-.127-.51.032-.732s.446-.318.7-.256a.69.69 0 01.51.543z"/><path d="M-882.83-127.86a.595.595 0 00-.381.479.493.493 0 01.35-.318c.19-.031.383-.031.542.096a.66.66 0 01.319.445c.063.16.063.318.03.479a.733.733 0 000-.637.697.697 0 00-.86-.544z"/></g><g opacity=".2" fill="#5F9994"><path d="M-904.62-117.571a1.702 1.702 0 01-2.23.957 1.701 1.701 0 01-.955-2.23 1.676 1.676 0 012.198-.955c.892.381 1.338 1.369.987 2.228z"/><path d="M-905.576-119.768c-.51-.189-1.051-.16-1.497.127a1.606 1.606 0 011.21 0 1.7 1.7 0 01.957.926 1.7 1.7 0 01.03 1.305 1.622 1.622 0 01-.7.83c.479-.16.829-.51 1.02-.988a1.795 1.795 0 00-1.02-2.2z"/></g><g opacity=".2" fill="#5F9994"><path d="M-904.587-134.422c.766.35 1.084 1.305.732 2.068-.351.734-1.211 1.053-1.911.701-.701-.35-1.02-1.242-.701-2.006.318-.732 1.146-1.083 1.88-.763z"/><path d="M-906.531-133.498c-.191.445-.16.986.063 1.434-.096-.352-.096-.766.063-1.115.128-.383.414-.701.797-.893.35-.16.765-.191 1.146-.031.287.127.542.352.7.668a1.583 1.583 0 00-.796-.955c-.794-.319-1.654.095-1.973.892z"/></g><g opacity=".2" fill="#5F9994"><path d="M-900.67-129.899c1.148.51 1.658 1.879 1.148 3.025a2.243 2.243 0 01-2.9 1.02c-1.082-.51-1.56-1.783-1.082-2.867a2.178 2.178 0 012.835-1.178z"/><path d="M-903.632-128.561a2.367 2.367 0 00.097 2.07 2.476 2.476 0 01.096-1.656 2.26 2.26 0 011.21-1.273 2.234 2.234 0 011.753-.064c.446.191.828.543 1.052.988a2.241 2.241 0 00-1.211-1.369 2.29 2.29 0 00-2.997 1.304z"/></g><path opacity=".5" fill="#F3FFFF" d="M-880.251-125.981c.063.67.063 1.338.031 2.008 13.827 6.627 21.44 12.553 20.708 14.4-.732 1.879-10.642.986-25.741-3.855a215.13 215.13 0 01-12.106-4.332 188.298 188.298 0 01-13.188-5.768c-13.444-6.498-20.804-12.266-20.07-14.113.732-1.848 9.686-1.082 23.479 3.154.414-.51.892-1.02 1.369-1.465-12.488-3.92-25.009-6.34-26.569-2.357-1.593 4.109 9.908 11.182 22.078 16.947a204.839 204.839 0 0012.2 5.289c3.378 1.338 7.2 2.707 11.057 4.014 13.284 4.365 27.462 7.486 29.15 3.188 1.655-4.174-10.101-11.311-22.398-17.11z"/><path opacity=".5" fill="#F3FFFF" d="M-880.283-123.24c-.063.637-.19 1.273-.317 1.879 5.098 2.613 8.124 4.684 8.696 5.639-1.083.32-4.684-.189-10.194-1.752-3.728-1.051-8.348-2.58-13.604-4.65a140.06 140.06 0 01-14.463-6.531c-4.27-2.262-6.818-4.045-7.328-4.938.956-.287 4.078.127 8.762 1.369.318-.541.638-1.084 1.021-1.592-5.607-1.529-10.832-2.357-11.597-.447-.766 1.912 3.632 4.844 8.761 7.52 5.894 3.09 12.808 5.861 14.177 6.371 1.243.479 7.264 2.805 13.254 4.557 6.148 1.783 12.201 2.932 13.029.859.794-2.105-4.494-5.417-10.197-8.284z"/></g></g><g transform="translate(483 857)"><radialGradient id="H" cx="-822.153" cy="-250.648" r=".923" gradientTransform="matrix(11.7876 0 0 -11.7876 9229.712 -3477.326)" gradientUnits="userSpaceOnUse"><stop offset="0" stop-color="#ae36e5"/><stop offset=".17" stop-color="#b23be4"/><stop offset=".38" stop-color="#be4be3"/><stop offset=".61" stop-color="#d164e0"/><stop offset=".86" stop-color="#ec87dc"/><stop offset="1" stop-color="#ff9fd9"/></radialGradient><path fill="url(#H)" d="M-451.333-525.577c0 2.39-1.402 4.556-3.6 5.479a5.877 5.877 0 01-6.436-1.243 5.945 5.945 0 01-1.306-6.436c.892-2.23 3.059-3.664 5.448-3.664 3.25.002 5.894 2.614 5.894 5.864z"/></g><g transform="translate(483 857)"><radialGradient id="I" cx="-792.044" cy="-264.163" r=".923" gradientTransform="matrix(11.7876 0 0 -11.7876 9229.712 -3477.326)" gradientUnits="userSpaceOnUse"><stop offset="0" stop-color="#ae36e5"/><stop offset=".17" stop-color="#b23be4"/><stop offset=".38" stop-color="#be4be3"/><stop offset=".61" stop-color="#d164e0"/><stop offset=".86" stop-color="#ec87dc"/><stop offset="1" stop-color="#ff9fd9"/></radialGradient><path fill="url(#I)" d="M-96.43-366.286c0 2.391-1.402 4.557-3.602 5.48-2.199.922-4.747.445-6.436-1.242a5.95 5.95 0 01-1.307-6.438 5.903 5.903 0 015.447-3.662c3.254.001 5.898 2.614 5.898 5.862z"/></g><radialGradient id="J" cx="92.756" cy="-316.238" r="1.139" gradientTransform="matrix(.3186 0 0 -.3186 .681 212.248)" gradientUnits="userSpaceOnUse"><stop offset=".247" stop-color="#fff"/><stop offset=".667" stop-color="#5e9c70"/><stop offset="1" stop-color="#000006"/></radialGradient><path fill="url(#J)" d="M30.042 313.294c-.159-.127-.223-.35-.096-.51.127-.158.351-.223.51-.095.159.127.223.351.096.511a.384.384 0 01-.287.158.431.431 0 01-.223-.064z"/><radialGradient id="K" cx="-49.524" cy="48.49" r="3.771" gradientTransform="matrix(.3186 0 0 -.3186 .681 212.248)" gradientUnits="userSpaceOnUse"><stop offset=".247" stop-color="#fff"/><stop offset=".667" stop-color="#5e9c70"/><stop offset="1" stop-color="#000006"/></radialGradient><path fill="url(#K)" d="M-15.77 197.809c-.542-.382-.701-1.115-.318-1.656.382-.542 1.115-.7 1.657-.319.542.383.701 1.115.318 1.658-.223.35-.605.51-.988.51a1.268 1.268 0 01-.669-.193z"/><path opacity=".21" fill="#162E66" fill-opacity=".651" d="M1.593 323.298c-33.865 0-61.327-27.461-61.327-61.326 0-33.866 27.462-61.328 61.327-61.328 33.866 0 61.359 27.462 61.359 61.328 0 33.865-27.462 61.326-61.359 61.326zm.095-15.961c25.009 0 45.271-20.262 45.271-45.271s-20.262-45.271-45.271-45.271-45.271 20.262-45.271 45.271 20.294 45.271 45.271 45.271z"/></svg>