<svg xmlns="http://www.w3.org/2000/svg" viewBox="0 0 1600.5 265.7"><path d="M-.5 164.3c9.5 9.4 99.4 28.6 107.4 29.9 115 18.1 233.8 8.3 347.9-11.4C675.3 144.5 872.1 33 1100.6 14 1273.9-.4 1458.3-28.1 1602 86.1v179.3H-.5V164.3z" opacity=".5" fill="#fff"/><path d="M-1 203.8c5 4 44.1 14.4 47.5 15.2 46.2 11.7 94 17.2 141.6 19.1 108.2 4.2 218-12.5 323.7-38.3 106.1-25.9 206.2-70.6 308-109.2 192.2-72.9 429.6-122.4 632.1-64.5 45.6 13 89.3 32.6 128.4 59.4 3.1 2.1 21.8 12.7 21.8 16.1v163.8H-.5l-.5-61.6z" fill="#fff"/></svg>