<?xml version="1.0" encoding="iso-8859-1"?>
<!-- Generator: Adobe Illustrator 19.0.0, SVG Export Plug-In . SVG Version: 6.00 Build 0)  -->
<svg version="1.1" id="Capa_1" xmlns="http://www.w3.org/2000/svg" xmlns:xlink="http://www.w3.org/1999/xlink" x="0px" y="0px"
	 viewBox="0 0 512 512" style="enable-background:new 0 0 512 512;" xml:space="preserve">
<g>
	<g>
		<path d="M271.759,38.074h-31.52c-4.143,0-7.5,3.358-7.5,7.5c0,4.142,3.357,7.5,7.5,7.5h31.52c4.143,0,7.5-3.358,7.5-7.5
			C279.26,41.432,275.903,38.074,271.759,38.074z"/>
	</g>
</g>
<g>
	<g>
		<path d="M277.584,441.511h-43.169c-10.025,0-18.182,8.156-18.182,18.182v7.007c0.001,10.025,8.157,18.181,18.182,18.181h43.169
			c10.025,0,18.182-8.156,18.182-18.181v-7.007C295.766,449.667,287.609,441.511,277.584,441.511z M280.766,466.7
			c0,1.724-1.457,3.18-3.181,3.18h-43.169c-1.724,0-3.181-1.457-3.181-3.18v-7.007c0-1.724,1.457-3.181,3.181-3.181h43.169
			c1.724,0,3.181,1.457,3.181,3.181V466.7z"/>
	</g>
</g>
<g>
	<g>
		<path d="M362.5,75.206H149.498c-7.518,0-13.645,6.116-13.645,13.645c0,10.05,0.001,315.062,0.001,326.846
			c0.001,7.522,6.121,13.643,13.644,13.643H362.5c7.523,0,13.645-6.12,13.645-13.643c0-4.348,0-319.834,0-326.846
			C376.145,81.328,370.025,75.206,362.5,75.206z M150.856,90.206h28.878v32.561h-28.878V90.206z M361.144,414.338H150.856v-276.57
			c11.084,0,202.406,0,210.288,0V414.338z M361.144,122.767H194.735V90.206h166.409V122.767z"/>
	</g>
</g>
<g>
	<g>
		<path d="M323.025,330.054H188.975c-4.143,0-7.5,3.358-7.5,7.5s3.357,7.5,7.5,7.5h134.049c4.143,0,7.5-3.358,7.5-7.5
			S327.167,330.054,323.025,330.054z"/>
	</g>
</g>
<g>
	<g>
		<path d="M323.025,370.806H188.975c-4.143,0-7.5,3.358-7.5,7.5c0,4.142,3.357,7.5,7.5,7.5h134.049c4.143,0,7.5-3.358,7.5-7.5
			C330.525,374.165,327.167,370.806,323.025,370.806z"/>
	</g>
</g>
<g>
	<g>
		<path d="M256.016,187.513c-22.153-30.939-72.062-15.618-72.026,23.248c0.041,40.04,34.848,70.728,67.41,86.097
			c2.975,1.402,6.424,1.391,9.374-0.011c32.531-15.436,67.276-46.196,67.236-86.234
			C327.967,172.111,278.841,156.194,256.016,187.513z M256.07,282.462c-27.898-13.639-57.047-39.346-57.08-71.713
			c-0.022-25.478,33.846-34.111,46.279-12.236c4.142,7.299,16.078,8.59,21.526-0.167c14.277-22.947,46.188-11.569,46.214,12.285
			C313.041,242.996,283.944,268.763,256.07,282.462z"/>
	</g>
</g>
<g>
	<g>
		<path d="M401.032,262.273c-4.143,0-7.5,3.358-7.5,7.5v210.593c0,9.172-7.461,16.633-16.633,16.633H273.501
			c-4.143,0-7.5,3.358-7.5,7.5s3.357,7.5,7.5,7.5h103.398c17.442,0,31.634-14.191,31.634-31.634V269.773
			C408.533,265.631,405.174,262.273,401.032,262.273z"/>
	</g>
</g>
<g>
	<g>
		<path d="M376.899,0H135.101c-17.442,0-31.634,14.191-31.634,31.634v448.732c0,17.443,14.191,31.634,31.634,31.634h103.398
			c4.143,0,7.5-3.358,7.5-7.5s-3.357-7.5-7.5-7.5H135.101c-9.172,0-16.633-7.461-16.633-16.633V31.634
			c0-9.172,7.461-16.633,16.633-16.633h241.798c9.172,0,16.633,7.461,16.633,16.633v203.137c0,4.142,3.357,7.5,7.5,7.5
			s7.5-3.358,7.5-7.5V31.634C408.533,14.191,394.341,0,376.899,0z"/>
	</g>
</g>
<g>
</g>
<g>
</g>
<g>
</g>
<g>
</g>
<g>
</g>
<g>
</g>
<g>
</g>
<g>
</g>
<g>
</g>
<g>
</g>
<g>
</g>
<g>
</g>
<g>
</g>
<g>
</g>
<g>
</g>
</svg>
