<?xml version="1.0" encoding="iso-8859-1"?>
<!-- Generator: Adobe Illustrator 19.0.0, SVG Export Plug-In . SVG Version: 6.00 Build 0)  -->
<svg version="1.1" id="Capa_1" xmlns="http://www.w3.org/2000/svg" xmlns:xlink="http://www.w3.org/1999/xlink" x="0px" y="0px"
	 viewBox="0 0 512 512" style="enable-background:new 0 0 512 512;" xml:space="preserve">
<g>
	<g>
		<path d="M210.292,38.074h-31.52c-4.143,0-7.5,3.358-7.5,7.5c0,4.142,3.358,7.5,7.5,7.5h31.52c4.142,0,7.5-3.358,7.5-7.5
			C217.792,41.432,214.434,38.074,210.292,38.074z"/>
	</g>
</g>
<g>
	<g>
		<path d="M216.116,441.511h-43.17c-10.025,0-18.181,8.156-18.181,18.182v7.007c0,10.025,8.156,18.181,18.181,18.181h43.17
			c10.025,0,18.181-8.156,18.181-18.181v-7.007C234.297,449.667,226.141,441.511,216.116,441.511z M219.296,466.7
			c0,1.724-1.457,3.18-3.18,3.18h-43.17c-1.724,0-3.18-1.456-3.18-3.18v-7.007c0-1.724,1.457-3.181,3.18-3.181h43.17
			c1.724,0,3.18,1.457,3.18,3.181V466.7z"/>
	</g>
</g>
<g>
	<g>
		<path d="M261.556,330.054H127.507c-4.142,0-7.5,3.358-7.5,7.5s3.358,7.5,7.5,7.5h134.049c4.143,0,7.5-3.358,7.5-7.5
			S265.699,330.054,261.556,330.054z"/>
	</g>
</g>
<g>
	<g>
		<path d="M261.555,370.806H127.507c-4.142,0-7.5,3.358-7.5,7.5c0,4.142,3.358,7.5,7.5,7.5h134.049c4.143,0,7.5-3.358,7.5-7.5
			C269.056,374.165,265.698,370.806,261.555,370.806z"/>
	</g>
</g>
<g>
	<g>
		<path d="M467.072,390.211l-28.916-28.915l16.321-9.043c7.146-3.963,5.88-14.512-1.892-16.514c0,0,0,0-0.001,0l-75.343-19.401
			c-7.617-1.962-14.731,5.161-12.772,12.765l19.393,75.309c2.002,7.797,12.583,9.053,16.545,1.894l9.022-16.282l28.3,28.3
			c4.261,4.261,11.378,4.286,15.916-0.25l13.239-13.239C470.965,400.748,471.051,394.189,467.072,390.211z M445.561,404.942
			l-30.484-30.485c-4.634-4.633-12.365-3.263-15.5,2.396l-4.998,9.022l-13.674-53.101l53.102,13.674l-9.724,5.387
			c-5.325,2.951-6.574,10.229-2.213,14.591l31.004,31.004L445.561,404.942z"/>
	</g>
</g>
<g>
	<g>
		<path d="M175.074,202.706h-14.747v-0.001c-3.416,0-5.665,1.833-5.665,3.916v53.074c0,2.083,2.249,3.916,5.665,3.916h14.747
			c11.499,0,20.496-5.332,20.496-19.663v-21.579C195.57,208.039,186.572,202.706,175.074,202.706z M182.573,243.948
			c0,5.666-2.833,8.333-7.499,8.333h-7.414v-38.243h7.414c4.666-0.001,7.499,2.665,7.499,8.331V243.948z"/>
	</g>
</g>
<g>
	<g>
		<path d="M223.564,202.705c-11.498,0-20.413,5.332-20.413,19.663v22.079c0,14.331,8.916,19.663,20.413,19.663
			s20.496-5.332,20.496-19.663v-22.079C244.06,208.038,235.061,202.705,223.564,202.705z M231.062,244.448
			c0,5.749-2.833,8.333-7.498,8.333c-4.666,0-7.415-2.583-7.415-8.333v-22.079c0-5.749,2.749-8.333,7.415-8.333
			c4.665,0,7.498,2.583,7.498,8.333V244.448z"/>
	</g>
</g>
<g>
	<g>
		<path d="M288.466,202.705c-3.249,0-6.498,1.166-6.498,3.915v28.329l-13.498-25.746c-3.166-6.082-4.915-6.499-9.582-6.499
			c-3.249,0-6.498,1.25-6.498,3.999v52.907c0,5.332,12.998,5.332,12.998,0v-28.327l15.83,28.828
			c1.583,2.916,4.249,3.499,7.248,3.499c3.249,0,6.499-1.333,6.499-3.999v-52.99C294.966,203.872,291.716,202.705,288.466,202.705z"
			/>
	</g>
</g>
<g>
	<g>
		<path d="M348.036,257.363l-15.58-50.824c-0.917-2.917-4.666-4.333-8.499-4.333c-3.833,0-7.582,1.417-8.498,4.333l-15.497,50.824
			c-0.083,0.333-0.167,0.667-0.167,0.917c0,3.083,4.749,5.332,8.333,5.332c2.082,0,3.749-0.667,4.248-2.416l2.833-10.415h17.58
			l2.833,10.415c0.499,1.75,2.166,2.416,4.249,2.416c3.582,0,8.331-2.25,8.331-5.332C348.203,258.03,348.12,257.697,348.036,257.363
			z M317.875,240.782l6.082-22.329l6.082,22.329H317.875z"/>
	</g>
</g>
<g>
	<g>
		<path d="M383.861,202.704h-35.993c-2.749,0-3.916,3-3.916,5.749c0,3.166,1.417,5.916,3.916,5.916h11.498v45.242
			c0,2.666,3.249,3.999,6.499,3.999c3.249,0,6.498-1.333,6.498-3.999V214.37h11.498c2.5,0,3.916-2.75,3.916-5.916
			C387.777,205.704,386.61,202.704,383.861,202.704z"/>
	</g>
</g>
<g>
	<g>
		<path d="M428.268,252.278H405.94v-14.164h12.498c2.749,0,3.915-2.666,3.915-4.916c0-2.666-1.416-5.082-3.915-5.082H405.94v-14.081
			h22.328v0.001c2.5,0,3.916-2.666,3.916-5.749c0-2.666-1.166-5.582-3.916-5.582h-29.661c-2.833,0-5.665,1.333-5.665,3.999v52.907
			c0,2.666,2.832,3.999,5.665,3.999h29.661c2.75,0,3.916-2.916,3.916-5.582C432.184,254.944,430.768,252.278,428.268,252.278z"/>
	</g>
</g>
<g>
	<g>
		<path d="M459.817,245.747c-4.143,0-7.5,3.358-7.5,7.5v28.752c0,2.439-2.061,4.5-4.5,4.5c-24.628,0-293.989,0-305.535,0
			c-4.011,0-7.274-3.263-7.274-7.274v-92.43c0-4.008,3.258-7.268,7.264-7.273h305.544c2.439,0,4.5,2.061,4.5,4.5v34.223
			c0,4.142,3.357,7.5,7.5,7.5s7.5-3.358,7.5-7.5v-34.223c0-10.753-8.749-19.501-19.501-19.501H347.064V31.634
			C347.064,14.191,332.873,0,315.43,0H212.033c-4.142,0-7.5,3.358-7.5,7.5c0,4.142,3.358,7.5,7.5,7.5h103.398
			c9.172,0,16.633,7.461,16.633,16.633v132.887h-17.387c0-7.68,0-68.063,0-75.672c0-7.522-6.119-13.645-13.645-13.645H88.029
			c-7.479,0-13.644,6.103-13.644,13.645c0,10.05,0,315.062,0,326.846c0,7.522,6.12,13.643,13.644,13.643h213.003
			c7.523,0,13.645-6.12,13.645-13.643V301.5h17.387v178.865c0,9.172-7.461,16.633-16.633,16.633H73.632
			c-9.172,0-16.633-7.461-16.633-16.633V31.634c0-9.172,7.461-16.633,16.633-16.633h103.398c4.142,0,7.5-3.358,7.5-7.5
			c0-4.142-3.358-7.5-7.5-7.5H73.632C56.189,0,41.999,14.191,41.999,31.634v448.732c0,17.443,14.191,31.634,31.634,31.634h241.799
			c17.442,0,31.634-14.191,31.634-31.634V301.5h100.751c10.753,0,19.501-8.749,19.501-19.501v-28.752
			C467.317,249.105,463.96,245.747,459.817,245.747z M133.266,90.206h166.41v32.561h-166.41V90.206z M89.387,90.206h28.878v32.561
			H89.387V90.206z M299.676,414.338H89.387v-276.57c11.084,0,202.407,0,210.289,0v26.753c-6.977,0-152.901,0-160.169,0
			c-10.753,0-19.501,8.749-19.501,19.501c0,11.418,0,87.636,0,97.977c0,10.753,8.749,19.501,19.501,19.501
			c7.289,0,152.859,0,160.169,0V414.338z"/>
	</g>
</g>
<g>
</g>
<g>
</g>
<g>
</g>
<g>
</g>
<g>
</g>
<g>
</g>
<g>
</g>
<g>
</g>
<g>
</g>
<g>
</g>
<g>
</g>
<g>
</g>
<g>
</g>
<g>
</g>
<g>
</g>
</svg>
