<?xml version="1.0" encoding="iso-8859-1"?>
<!-- Generator: Adobe Illustrator 19.0.0, SVG Export Plug-In . SVG Version: 6.00 Build 0)  -->
<svg version="1.1" id="Capa_1" xmlns="http://www.w3.org/2000/svg" xmlns:xlink="http://www.w3.org/1999/xlink" x="0px" y="0px"
	 viewBox="0 0 511.999 511.999" style="enable-background:new 0 0 511.999 511.999;" xml:space="preserve">
<g>
	<g>
		<path d="M471.26,482.442l-52.381-81.196l52.38-81.128c1.745-2.704,1.572-6.218-0.431-8.736l-25.893-32.557
			c-1.363-1.714-3.561-2.832-5.869-2.832h-70.198c-25.501-62.195-57.254-108.769-94.432-138.466
			c-6.803-5.435-15.097-8.689-23.641-9.338c0-15.689,0-25.707,0-39.26c10.773-3.674,20.181-11.367,25.828-22.281
			c1.903-3.679,0.464-8.204-3.214-10.107c-3.677-1.903-8.203-0.463-10.107,3.214c-7.744,14.966-25.592,20.476-40.07,13.767
			c0,0-0.001,0-0.002-0.001c-3.711-1.72-8.298-1.924-12.45,0.001c-20.891,9.685-44.851-6.462-43.426-29.758
			c1.261-20.615,23.227-35.032,43.187-25.989c4.108,1.863,8.822,1.862,12.929,0c14.758-6.686,32.246-0.58,39.814,13.903
			c1.918,3.669,6.448,5.092,10.12,3.173c3.67-1.918,5.091-6.448,3.173-10.12C265.329,3.206,239.284-5.853,217.281,4.118
			c-0.164,0.074-0.384,0.075-0.549,0c-29.75-13.479-62.461,7.876-64.346,38.734c-1.293,21.136,11.703,39.465,30.834,46.075
			c0,13.57,0,23.565,0,39.249c-8.385,0.586-16.423,3.641-22.896,8.762c-60.025,47.49-95.501,131.571-114.693,193.745
			c-24.741,80.152,25.707,182.241,154.725,181.311c1.876-0.013,3.698-0.026,5.463-0.026c4.141,0,7.499-3.358,7.499-7.499
			c0-4.141-3.358-7.499-7.499-7.499c-22.166,0-50.569,1.916-85.709-16.776c-52.227-27.779-77.523-88.798-60.148-145.087
			c18.564-60.144,52.66-141.305,109.667-186.407c4.595-3.635,10.473-5.637,16.55-5.637c10.644,0,54.906,0,61.456,0
			c6.254,0,12.447,2.197,17.441,6.186c34.041,27.191,63.466,69.799,87.553,126.748h-18.638c-2.301,0-4.501,1.11-5.869,2.832
			l-25.893,32.557c-2.003,2.518-2.176,6.032-0.431,8.735l52.38,81.128l-52.382,81.195c-0.662,1.026-1.176,2.458-1.197,3.967
			c-21.274,8.631-38.909,10.562-59.785,10.562c-4.141,0-7.499,3.358-7.499,7.499c0,4.141,3.358,7.499,7.499,7.499
			c23.633,0,45.954-2.509,72.124-14.573L339.9,511.15c3.431,1.749,7.623,0.617,9.708-2.613l36.92-57.183l36.92,57.183
			c2.087,3.232,6.28,4.361,9.708,2.613l35.211-17.962C472.323,491.169,473.665,486.17,471.26,482.442z M235.797,128.063h-37.579
			v-12.957h37.579V128.063z M235.797,100.109h-37.579v-8.717c6.662-0.048,13.039-1.569,18.789-4.222
			c5.691,2.623,12.054,4.16,18.789,4.206V100.109z M425.304,290.993c-6.722,10.421-4.275,6.628-11.327,17.559H359.08l-11.328-17.559
			C355.567,290.993,417.507,290.993,425.304,290.993z M404.301,323.55l-17.773,27.549l-17.773-27.549H404.301z M317.317,316.507
			l16.038-20.165c3.937,6.103,42.772,66.301,44.249,68.591c-8.702,13.488-5.58,8.65-14.504,22.483L317.317,316.507z M340.682,494.71
			l-21.784-11.113c6.065-9.402,116.708-180.908,119.874-185.813l0.931-1.443l16.038,20.164L340.682,494.71z M432.374,494.71
			l-36.92-57.182l14.497-22.454l44.207,68.524L432.374,494.71z"/>
	</g>
</g>
<g>
	<g>
		<path d="M228.073,317.228v-36.834c12.701,0.907,17.419,6.713,21.773,6.713c5.443,0,7.984-6.895,7.984-10.343
			c0-8.891-17.42-12.701-29.758-13.064v-4.899c0-2.178-2.723-4.173-5.443-4.173c-3.085,0-5.262,1.996-5.262,4.173v5.262
			c-17.238,1.815-34.474,10.888-34.474,33.749c0,23.226,18.144,29.758,34.474,35.564v42.64
			c-18.508-1.452-23.407-14.153-29.394-14.153c-4.536,0-8.347,5.988-8.347,10.343c0,8.891,15.241,21.048,37.741,21.411v5.624
			c0,2.178,2.178,4.173,5.262,4.173c2.722,0,5.443-1.996,5.443-4.173v-6.169c19.596-2.721,33.024-15.059,33.024-37.377
			C261.095,331.018,243.859,323.034,228.073,317.228z M218.456,313.781c-9.617-3.629-17.42-7.439-17.42-17.782
			c0-9.436,7.259-13.972,17.42-15.242V313.781z M226.984,375.655v-38.286c8.891,3.81,15.968,8.891,15.968,20.322
			C242.952,368.034,236.783,373.84,226.984,375.655z"/>
	</g>
</g>
<g>
</g>
<g>
</g>
<g>
</g>
<g>
</g>
<g>
</g>
<g>
</g>
<g>
</g>
<g>
</g>
<g>
</g>
<g>
</g>
<g>
</g>
<g>
</g>
<g>
</g>
<g>
</g>
<g>
</g>
</svg>
