<?xml version="1.0" encoding="iso-8859-1"?>
<!-- Generator: Adobe Illustrator 19.0.0, SVG Export Plug-In . SVG Version: 6.00 Build 0)  -->
<svg version="1.1" id="Capa_1" xmlns="http://www.w3.org/2000/svg" xmlns:xlink="http://www.w3.org/1999/xlink" x="0px" y="0px"
	 viewBox="0 0 511.999 511.999" style="enable-background:new 0 0 511.999 511.999;" xml:space="preserve">
<g>
	<g>
		<path d="M200.332,217.217v-32.465c11.196,0.8,15.353,5.917,19.191,5.917c4.798,0,7.037-6.077,7.037-9.116
			c0-7.837-15.353-11.195-26.229-11.515v-4.318c0-1.919-2.398-3.678-4.798-3.678c-2.718,0-4.638,1.759-4.638,3.678v4.638
			c-15.193,1.599-30.385,9.595-30.385,29.747c0,20.471,15.993,26.227,30.385,31.345v37.583
			c-16.312-1.279-20.63-12.474-25.908-12.474c-3.997,0-7.357,5.278-7.357,9.116c0,7.837,13.435,18.552,33.265,18.871v4.957
			c0,1.919,1.92,3.678,4.638,3.678c2.399,0,4.798-1.759,4.798-3.678v-5.438c17.273-2.399,29.107-13.274,29.107-32.945
			C229.439,229.371,214.246,222.334,200.332,217.217z M191.856,214.178c-8.476-3.199-15.353-6.558-15.353-15.673
			c0-8.316,6.398-12.315,15.353-13.434V214.178z M199.373,268.713v-33.745c7.836,3.358,14.073,7.837,14.073,17.911
			C213.445,261.996,208.008,267.113,199.373,268.713z"/>
	</g>
</g>
<g>
	<g>
		<path d="M456.666,323.644l54.133-83.844c1.747-2.705,1.573-6.223-0.431-8.743l-26.72-33.596c-1.364-1.716-3.543-2.833-5.875-2.833
			h-46.709c0-10.706,0-94.636,0-104.936v-1.136c0-7.846-6.382-14.228-14.228-14.228H415.7c-6.417,0-156.175,0-163.206,0
			c-4.146,0-7.506,3.361-7.506,7.506s3.361,7.506,7.506,7.506h98.024c-0.165,9.805,1.832,19.005,5.561,27.336H113.743
			c3.727-8.327,5.725-17.527,5.56-27.336h98.161c4.146,0,7.506-3.361,7.506-7.506s-3.361-7.506-7.506-7.506H111.172H54.26h-1.135
			c-7.846,0-14.228,6.382-14.228,14.228v28.122H15.363h-0.227C6.79,116.677,0,123.467,0,131.812v0.227c0,10.058,0,182.038,0,192.217
			v0.227c0,8.345,6.79,15.136,15.136,15.136h0.227c8.996,0,354.985,0,361.441,0c1.19,0,2.246-0.083,3.589-0.389l-44.081,68.329
			c-2.41,3.735-1.06,8.737,2.896,10.756l36.336,18.536c3.433,1.75,7.629,0.619,9.717-2.615l38.294-59.311l38.295,59.311
			c2.09,3.236,6.287,4.366,9.717,2.615l36.335-18.536c1.891-0.965,3.285-2.685,3.837-4.735c0.551-2.05,0.21-4.238-0.941-6.021
			L456.666,323.644z M463.997,209.639c-9.093,14.095-7.18,11.13-11.988,18.583h-56.903c-11.324-17.551-8.337-12.922-11.988-18.583
			C394.72,209.639,454.474,209.639,463.997,209.639z M442.323,243.235l-18.766,29.089l-18.766-29.089H442.323z M392.167,194.625
			c0-10.227,0,7.622,0-43.908c7.583,2.871,15.606,4.294,23.883,4.154v39.754H392.167z M365.523,89.341H415.7
			c0.193,0,0.35,0.157,0.35,0.35v50.177c-8.352,0.178-16.547-1.74-23.883-5.562v-2.265v-0.229v-0.907
			c0-7.355-5.61-13.424-12.776-14.154c-0.477-0.049-0.963-0.073-1.452-0.073h-0.908h-0.227h-3.749
			c-4.946-7.862-7.543-16.865-7.543-26.258C365.511,90.062,365.515,89.701,365.523,89.341z M376.804,131.69
			c0.193,0,0.35,0.157,0.35,0.35c0,9.925,0-4.725,0,50.177c-28.115,0.611-51.137-22.41-50.526-50.526
			C332.593,131.69,371.515,131.69,376.804,131.69z M53.909,89.689c0-0.192,0.157-0.349,0.35-0.349h50.039
			c0.008,0.36,0.012,0.721,0.012,1.08c0,9.393-2.597,18.397-7.543,26.257c-4.853,0-38.703,0-42.858,0V89.689z M15.013,132.041
			c0-0.193,0.157-0.35,0.35-0.35c11.471,0,39.99,0,50.04,0c0.609,28.031-22.282,51.084-50.39,50.529V132.041z M15.363,324.607
			c-0.193,0-0.35-0.157-0.35-0.35v-49.576c27.816-0.563,50.655,22.1,50.399,49.926H15.363z M80.419,324.607
			c0.278-35.97-29.16-65.465-65.406-64.931v-62.453c0.314,0.005,0.63,0.018,0.944,0.018c35.851,0,65.058-29.446,64.451-65.551
			c27.435,0,55.5,0,60.435,0c-71.927,43.077-71.877,149.868,0,192.916H80.419z M249.164,324.61
			c5.644-3.369,11.015-7.266,16.027-11.682c19.258-16.97,32.182-40.425,36.389-66.045c0.673-4.095-2.1-7.955-6.19-8.626
			c-4.09-0.668-7.952,2.1-8.623,6.191c-7.628,46.448-46.227,80.16-91.781,80.16c-51.341,0-93.111-43.271-93.111-96.458
			s41.769-96.458,93.111-96.458c45.554,0,84.153,33.712,91.781,80.16c0.672,4.091,4.531,6.861,8.623,6.191
			c4.091-0.672,6.863-4.533,6.191-8.623c-4.208-25.62-17.131-49.075-36.389-66.045c-5.011-4.416-10.383-8.314-16.027-11.682h62.46
			c-0.539,32.099,22.546,59.076,53.096,64.529c-1.196,0.94,0.075-0.428-27.973,34.836c-2.005,2.52-2.179,6.038-0.431,8.745
			l15.814,24.492c-23.973,9.653-40.724,33.469-40.517,60.315H249.164z M377.154,324.257c0,0.193-0.157,0.35-0.35,0.35h-50.186
			c-0.197-21.458,13.751-40.699,33.845-47.405l16.691,25.851V324.257z M351.851,236.184l16.854-21.191l45.919,71.178
			c-5.509,8.537-9.43,14.618-15.244,23.629C399.38,309.8,351.854,236.189,351.851,236.184z M376.328,420.395l-22.896-11.679
			c6.696-10.378,119.453-185.161,124.978-193.724l16.854,21.192L376.328,420.395z M470.787,420.396l-38.295-59.311l15.237-23.599
			l45.952,71.23L470.787,420.396z"/>
	</g>
</g>
<g>
</g>
<g>
</g>
<g>
</g>
<g>
</g>
<g>
</g>
<g>
</g>
<g>
</g>
<g>
</g>
<g>
</g>
<g>
</g>
<g>
</g>
<g>
</g>
<g>
</g>
<g>
</g>
<g>
</g>
</svg>
