<?xml version="1.0" encoding="iso-8859-1"?>
<!-- Generator: Adobe Illustrator 19.0.0, SVG Export Plug-In . SVG Version: 6.00 Build 0)  -->
<svg version="1.1" id="Capa_1" xmlns="http://www.w3.org/2000/svg" xmlns:xlink="http://www.w3.org/1999/xlink" x="0px" y="0px"
	 viewBox="0 0 512.002 512.002" style="enable-background:new 0 0 512.002 512.002;" xml:space="preserve">
<g>
	<g>
		<path d="M485.744,497.001h-10.627c-6.704-46.804-51.57-79.823-99.901-71.622c-0.728,0.13-1.415-0.153-1.747-0.706
			c-22.549-37.657-63.011-63.14-109.531-65.668v-53.108h34.26c26.179,0,47.477-21.298,47.477-47.477v-13.385
			c0-5.933-4.827-10.76-10.76-10.76h-16.925c-4.143,0-7.5,3.357-7.5,7.5s3.357,7.5,7.5,7.5h12.685v9.146
			c0,17.908-14.568,32.478-32.478,32.478h-34.26v-14.419c1.921-11.604,10.079-21.47,21.507-25.427
			c3.914-1.354,5.989-5.626,4.634-9.54c-1.354-3.915-5.629-5.993-9.54-4.634c-6.291,2.178-11.898,5.59-16.601,9.898v-67.561
			c39.855-19.562,81.163-54.442,92.527-98.112c1.044-4.009-1.36-8.104-5.369-9.146c-4.006-1.045-8.104,1.361-9.146,5.369
			c-10.299,39.57-50.01,71.681-85.401,88.806c-42.901-20.53-88.358-60.174-88.41-110.54c-0.024-24.202,21.29-43.361,45.772-40.061
			c21.742,2.929,29.404,20.055,30.861,21.576c7.33,7.646,16.919,7.285,23.446-0.196c1.91-2.206,11.339-21.832,36.112-21.858
			c18.723,0,34.872,12.717,39.271,30.926c0.974,4.027,5.025,6.508,9.052,5.528c4.026-0.973,6.501-5.025,5.528-9.052
			C347-3.828,284.365-17.225,256.647,27.327l-0.027,0.043c-0.053,0.052-0.101,0.097-0.146,0.136
			c-0.093-0.065-0.202-0.15-0.328-0.258c-18.404-30.961-61.143-36.507-86.797-10.82c-10.468,10.481-16.224,24.395-16.209,39.18
			c0.058,56.859,49.101,100.828,95.8,123.505v50.997c-12.719-16.404-32.599-26.992-54.914-26.992h-62.01
			c-6.016,0-10.909,4.894-10.909,10.909v22.395c0,38.308,31.166,69.475,69.474,69.475h58.359v53.111
			c-45.48,2.492-87.091,27.493-110.076,66.585c-48.752-8.968-94.34,24.199-101.101,71.409H26.256c-4.143,0-7.5,3.357-7.5,7.5
			c0,4.143,3.357,7.5,7.5,7.5c4.607,0,455.258,0,459.489,0c4.143,0,7.5-3.357,7.5-7.5
			C493.245,500.359,489.887,497.001,485.744,497.001z M248.501,290.898h-57.92c-30.037,0-54.475-24.438-54.475-54.476v-18.304
			h57.919c30.038,0,54.476,24.437,54.476,54.475C248.501,279.221,248.501,284.275,248.501,290.898z M52.928,497.001
			c6.698-38.179,44.381-64.293,84.064-56.496c5.672,1.113,11.456-1.537,14.386-6.6c45.858-79.25,162.118-80.193,209.223-1.526
			c3.532,5.898,10.255,8.958,17.126,7.789c38.973-6.613,75.618,19.179,82.224,56.833H52.928z"/>
	</g>
</g>
<g>
</g>
<g>
</g>
<g>
</g>
<g>
</g>
<g>
</g>
<g>
</g>
<g>
</g>
<g>
</g>
<g>
</g>
<g>
</g>
<g>
</g>
<g>
</g>
<g>
</g>
<g>
</g>
<g>
</g>
</svg>
