<?xml version="1.0" encoding="iso-8859-1"?>
<!-- Generator: Adobe Illustrator 19.0.0, SVG Export Plug-In . SVG Version: 6.00 Build 0)  -->
<svg version="1.1" id="Capa_1" xmlns="http://www.w3.org/2000/svg" xmlns:xlink="http://www.w3.org/1999/xlink" x="0px" y="0px"
	 viewBox="0 0 512.001 512.001" style="enable-background:new 0 0 512.001 512.001;" xml:space="preserve">
<g>
	<g>
		<path d="M471.583,467.601l-49.789-77.178l49.789-77.114c1.747-2.707,1.574-6.227-0.432-8.748l-24.676-31.024
			c-1.343-1.688-3.576-2.836-5.878-2.836h-32.544c-4.148,0-7.51,3.362-7.51,7.51c0,4.147,3.361,7.51,7.51,7.51h18.762
			l-10.325,16.005h-51.918l-10.325-16.005h18.762c4.148,0,7.51-3.362,7.51-7.51c0-4.147-3.361-7.51-7.51-7.51h-32.544
			c-2.16,0-4.405,1.007-5.85,2.805l-80.844-31.308v-5.177h32.769c10.523,0,19.083-8.561,19.083-19.083v-54.374
			c4.06-5.423,6.309-12.042,6.309-18.979c0-6.934-2.249-13.553-6.309-18.975v-30.8C305.625,42.531,263.094,0,210.815,0
			c-52.276,0-94.807,42.531-94.807,94.809v123.13c0,10.523,8.561,19.083,19.084,19.083h32.666v5.18
			c-0.089,0.034-89.066,34.528-89.154,34.565c-1.608,0.661-39.388,16.699-39.388,60.819c0,10.278,0,150.797,0,155.331
			c0,10.523,8.561,19.083,19.085,19.083c7.476,0,129.263,0,136.927,0c4.148,0,7.51-3.362,7.51-7.51s-3.361-7.51-7.51-7.51h-81.877
			c0-10.64,0-104.036,0-114.788c0-4.147-3.361-7.51-7.51-7.51s-7.51,3.362-7.51,7.51v32.458c-1.311-0.285-2.668-0.446-4.064-0.446
			H54.237v-76.619c0-33.538,28.303-46.168,30.035-46.909l53.472-20.731l23.492,47.081c3.586,7.185,12.753,9.497,19.32,4.834
			l30.236-21.474l30.235,21.474c6.577,4.67,15.738,2.343,19.32-4.834l23.491-47.079l40.983,15.871l-14.907,18.742
			c-2.006,2.521-2.179,6.041-0.432,8.748l49.788,77.113l-15.342,23.781h-16.564c-1.396,0-2.753,0.16-4.064,0.446v-32.458
			c0-4.147-3.361-7.51-7.51-7.51c-4.148,0-7.51,3.362-7.51,7.51c0,10.773,0,102.138,0,114.788H230.27c-4.148,0-7.51,3.362-7.51,7.51
			c0,4.147,3.361,7.51,7.51,7.51h85.508c0.003,0,0.006,0,0.01,0h47.539c10.606,0,19.083-8.645,19.083-19.083v-41.496l8.119-12.576
			l34.878,54.019c2.09,3.236,6.288,4.368,9.721,2.616l33.555-17.117C472.646,476.341,473.99,471.335,471.583,467.601z
			 M94.268,429.222L94.268,429.222c2.241,0.001,4.064,1.824,4.064,4.065c0,7.666,0,56.31,0,63.693h-40.03
			c-2.241,0-4.065-1.823-4.065-4.064v-63.694H94.268z M286.542,222.002h-31.588c13.775-10.854,23.559-27.029,26.043-45.573
			c3.086-0.146,6.493-0.765,9.607-1.859v43.368h0.001C290.606,220.179,288.784,222.002,286.542,222.002z M296.914,144.585
			c0,8.333-6.204,15.689-15.276,16.747v-33.49C290.542,128.857,296.914,136.122,296.914,144.585z M135.093,222.003L135.093,222.003
			c-2.241-0.001-4.065-1.824-4.065-4.065V94.809c0.001-43.996,35.793-79.789,79.787-79.789c43.995,0,79.79,35.793,79.79,79.789
			v19.796c-2.597-0.916-5.991-1.639-9.071-1.83c-0.657-5.252-4.374-9.544-9.325-11.044c-0.001,0-0.002,0-0.002-0.001
			c-12.748-3.872-25.021-12.019-34.456-21.751c-5.289-5.454-14.311-5.472-19.544,0.491c-18.053,20.591-43.457,41.439-69.525,51.063
			c-5.199,1.919-8.692,6.932-8.692,12.474V167.1c0,22.269,10.434,42.219,26.703,54.902H135.093z M155.011,167.1v-21.901
			c27.493-10.449,53.829-31.678,73.264-53.443c11.739,11.697,25.427,19.788,38.345,23.961c0,6.524,0,44.372,0,51.383
			c0,29.762-24.249,54.902-54.902,54.902C176.335,222.002,155.011,194.184,155.011,167.1z M173.678,308.324L151.811,264.5
			l21.079-8.164l27.023,33.356L173.678,308.324z M182.779,244.624v-13.247c16.846,6.987,37.543,7.958,55.975,0.202v13.104
			c-17.442,21.532-14.477,17.87-27.963,34.517L182.779,244.624z M247.903,308.324l-26.265-18.654l27.016-33.348l21.116,8.178
			L247.903,308.324z M406.802,316.745l-16.27,25.219l-16.27-25.219H406.802z M325.023,309.691l14.806-18.614
			c4.377,6.785,38.026,58.942,41.767,64.739l-13.39,20.756L325.023,309.691z M323.301,433.287c0-2.241,1.822-4.064,4.064-4.064
			h6.875l-10.939,16.956V433.287z M367.394,492.916c0,2.242-1.854,4.064-4.064,4.064h-40.029v-13.046l22.633,11.545
			c3.466,1.767,7.674,0.557,9.721-2.616l11.739-18.181V492.916z M346.717,479.018l-20.11-10.258
			c56.579-87.698,50.669-78.54,114.629-177.683l14.805,18.615C451.255,317.106,352.116,470.656,346.717,479.018z M434.348,479.018
			l-34.877-54.019c5.494-8.511,3.614-5.597,13.382-20.727l41.604,64.489L434.348,479.018z"/>
	</g>
</g>
<g>
</g>
<g>
</g>
<g>
</g>
<g>
</g>
<g>
</g>
<g>
</g>
<g>
</g>
<g>
</g>
<g>
</g>
<g>
</g>
<g>
</g>
<g>
</g>
<g>
</g>
<g>
</g>
<g>
</g>
</svg>
