<?xml version="1.0" encoding="iso-8859-1"?>
<!-- Generator: Adobe Illustrator 19.0.0, SVG Export Plug-In . SVG Version: 6.00 Build 0)  -->
<svg version="1.1" id="Capa_1" xmlns="http://www.w3.org/2000/svg" xmlns:xlink="http://www.w3.org/1999/xlink" x="0px" y="0px"
	 viewBox="0 0 512 512" style="enable-background:new 0 0 512 512;" xml:space="preserve">
<g>
	<g>
		<path d="M368.192,142.411h-59.517v-59.92c0-7.194-5.853-13.048-13.048-13.048h-39.871c-7.194,0-13.048,5.853-13.048,13.048v59.92
			h-59.517c-7.194,0-13.048,5.853-13.048,13.048v39.871c0,7.194,5.853,13.048,13.048,13.048h59.517V366.85
			c0,7.194,5.853,13.048,13.048,13.048h39.871c7.194,0,13.048-5.853,13.048-13.048V208.378h59.517
			c7.194,0,13.048-5.853,13.048-13.048v-39.871C381.24,148.264,375.386,142.411,368.192,142.411z M366.24,193.377h-59.517
			c-7.194,0-13.048,5.853-13.048,13.048v158.473H257.71V206.424c0-7.194-5.853-13.048-13.048-13.048h-59.517v-35.965h59.517
			c7.194,0,13.048-5.853,13.048-13.048v-59.92h35.965v59.92c0,7.194,5.853,13.048,13.048,13.048h59.517V193.377z"/>
	</g>
</g>
<g>
	<g>
		<path d="M454.801,232.522c-4.143,0-7.5,3.357-7.5,7.5v194.319H109.4V15.001h335.056c1.567,0,2.843,1.275,2.843,2.843V205.02
			c0,4.142,3.358,7.5,7.5,7.5c4.143,0,7.5-3.357,7.5-7.5V17.844c0-9.84-8.005-17.844-17.844-17.844H101.899
			c-28.783,0-52.2,23.417-52.2,52.2V473.17c0,21.41,17.419,38.829,38.829,38.829h169.663c4.143,0,7.5-3.357,7.5-7.5
			s-3.357-7.5-7.5-7.5H88.528c-13.139,0-23.828-10.689-23.828-23.828c0-13.14,10.69-23.828,23.829-23.828
			c9.218,0,349.569,0,358.772,0v45.514c0,1.182-0.962,2.144-2.144,2.144H293.193c-4.143,0-7.5,3.357-7.5,7.5s3.357,7.5,7.5,7.5
			h151.963c9.454,0,17.145-7.69,17.145-17.145V240.023C462.302,235.879,458.944,232.522,454.801,232.522z M94.399,434.34
			c-5.202,0-17.685-1.176-29.7,8.192V52.2c0-17.942,12.771-32.96,29.7-36.44V434.34z"/>
	</g>
</g>
<g>
</g>
<g>
</g>
<g>
</g>
<g>
</g>
<g>
</g>
<g>
</g>
<g>
</g>
<g>
</g>
<g>
</g>
<g>
</g>
<g>
</g>
<g>
</g>
<g>
</g>
<g>
</g>
<g>
</g>
</svg>
