<?xml version="1.0" encoding="iso-8859-1"?>
<!-- Generator: Adobe Illustrator 19.0.0, SVG Export Plug-In . SVG Version: 6.00 Build 0)  -->
<svg version="1.1" id="Capa_1" xmlns="http://www.w3.org/2000/svg" xmlns:xlink="http://www.w3.org/1999/xlink" x="0px" y="0px"
	 viewBox="0 0 512 512" style="enable-background:new 0 0 512 512;" xml:space="preserve">
<g>
	<g>
		<path d="M471.006,190.121l-39.125-31.192c0-7.98,0-144.773,0-151.426c0-4.144-3.359-7.503-7.503-7.503s-7.503,3.358-7.503,7.503
			v19.208l-59.156,33.148c-3.615,2.026-4.904,6.598-2.878,10.213c2.026,3.614,6.597,4.901,10.213,2.878l51.822-29.037
			c0,4.065,0,336.17,0,339.702l-139.338-78.077v-74.268c0-4.144-3.359-7.503-7.503-7.503c-4.144,0-7.503,3.358-7.503,7.503v65.86
			l-59.762-33.487v-99.758l59.762-33.487v65.859c0,4.145,3.359,7.503,7.503,7.503c4.143,0,7.503-3.358,7.503-7.503v-74.267
			l56.972-31.924c3.615-2.026,4.904-6.598,2.878-10.213c-2.025-3.614-6.597-4.901-10.213-2.878L191.75,152.857h-54.527V118.21
			c0-12.615-10.263-22.878-22.878-22.878s-22.878,10.264-22.878,22.878v34.648H70.542c-22.569,0-40.931,18.361-40.931,40.931v39.947
			c0,22.57,18.361,40.931,40.931,40.931H81.71c-1.968,7.344-48.058,179.355-50.888,189.917c-5.054,18.864,6.12,38.222,24.987,43.276
			l10.92,2.926c18.819,5.047,38.21-6.078,43.277-24.985l56.573-211.133h25.171l225.125,126.148v19.208
			c0,4.145,3.359,7.503,7.503,7.503s7.503-3.358,7.503-7.503c0-6.724,0-143.49,0-151.427l39.125-31.192
			C486.203,225.287,486.175,202.215,471.006,190.121z M106.47,118.211c0-4.342,3.532-7.873,7.874-7.873
			c4.341,0,7.873,3.531,7.873,7.873v34.648H106.47V118.211z M95.51,481.915c-2.908,10.854-14.042,17.282-24.899,14.375l-10.92-2.926
			c-10.854-2.909-17.283-14.043-14.375-24.899l30.667-114.452h53.797L95.51,481.915z M133.802,339.008H80.004l17.24-64.341h53.797
			L133.802,339.008z M187.763,259.661c-5.123,0-112.629,0-117.221,0c-14.295,0-25.925-11.63-25.925-25.925v-39.947
			c0-14.295,11.629-25.925,25.925-25.925c54.627,0,83.92,0,117.221,0V259.661z M461.651,225.671l-29.772,23.735v-71.286
			l29.772,23.735C469.305,207.955,469.294,219.576,461.651,225.671z"/>
	</g>
</g>
<g>
</g>
<g>
</g>
<g>
</g>
<g>
</g>
<g>
</g>
<g>
</g>
<g>
</g>
<g>
</g>
<g>
</g>
<g>
</g>
<g>
</g>
<g>
</g>
<g>
</g>
<g>
</g>
<g>
</g>
</svg>
