<?xml version="1.0" encoding="iso-8859-1"?>
<!-- Generator: Adobe Illustrator 19.0.0, SVG Export Plug-In . SVG Version: 6.00 Build 0)  -->
<svg version="1.1" id="Capa_1" xmlns="http://www.w3.org/2000/svg" xmlns:xlink="http://www.w3.org/1999/xlink" x="0px" y="0px"
	 viewBox="0 0 511.999 511.999" style="enable-background:new 0 0 511.999 511.999;" xml:space="preserve">
<g>
	<g>
		<path d="M121.842,177.931c-24.208,0-43.902,19.695-43.902,43.902s19.694,43.902,43.902,43.902
			c24.208,0,43.902-19.695,43.902-43.902S146.05,177.931,121.842,177.931z M121.842,250.731c-15.934,0-28.896-12.963-28.896-28.896
			s12.963-28.896,28.896-28.896s28.896,12.963,28.896,28.896S137.776,250.731,121.842,250.731z"/>
	</g>
</g>
<g>
	<g>
		<path d="M255.999,177.932c-30.44,0-55.206,24.765-55.206,55.206c0,30.441,24.765,55.206,55.206,55.206
			c30.441,0,55.205-24.765,55.205-55.206C311.204,202.697,286.439,177.932,255.999,177.932z M255.999,273.338
			c-22.166,0-40.201-18.034-40.201-40.201s18.034-40.201,40.201-40.201s40.2,18.034,40.2,40.201S278.165,273.338,255.999,273.338z"
			/>
	</g>
</g>
<g>
	<g>
		<path d="M390.156,177.931c-24.208,0-43.902,19.695-43.902,43.902s19.695,43.902,43.902,43.902
			c24.207,0,43.901-19.695,43.901-43.902S414.362,177.931,390.156,177.931z M390.156,250.731c-15.934,0-28.896-12.963-28.896-28.896
			s12.964-28.896,28.896-28.896c15.933,0,28.896,12.963,28.896,28.896S406.088,250.731,390.156,250.731z"/>
	</g>
</g>
<g>
	<g>
		<path d="M405.254,281.774c-0.054,0-0.108-0.003-0.162-0.003h-29.871c-0.054,0-0.108,0.003-0.162,0.003
			c-29.723,0.068-53.966,18.637-58.646,42.409c-12.402-6.75-26.389-10.165-40.839-10.165c-18.138,0-29.375-0.12-37.441,0
			c-15.037,0-28.863,2.717-42.546,10.165c-4.652-23.627-28.754-42.341-58.646-42.409c-0.054,0-0.108-0.003-0.162-0.003h-29.871
			c-0.054,0-0.108,0.003-0.162,0.003c-32.77,0.075-59.484,22.817-59.484,50.852v85.932c0,9.834,8,17.833,17.833,17.833h95.492
			v54.565c0,11.603,9.439,21.042,21.043,21.042h56.865c4.143,0,7.503-3.358,7.503-7.503c0-4.144-3.359-7.503-7.503-7.503H181.63
			c-3.329,0-6.037-2.708-6.037-6.036v-62.068v-50.552c0-21.615,16.819-38.53,37.451-45.521l32.619,45.51
			c2.303,3.213,6.168,5.131,10.338,5.131c4.171,0,8.036-1.918,10.338-5.131l32.618-45.51c20.95,7.099,37.451,24.25,37.451,45.52
			v112.622c0,3.328-2.708,6.036-6.037,6.036h-56.864c-4.144,0-7.503,3.358-7.503,7.503c0,4.144,3.359,7.503,7.503,7.503h56.864
			c11.603,0,21.043-9.439,21.043-21.042v-54.565h95.492c9.834,0,17.835-8,17.835-17.833v-85.932
			C464.738,304.688,438.139,281.849,405.254,281.774z M106.906,296.776h29.871c0.779,0,1.558,0.017,2.333,0.049l-17.268,24.093
			l-17.268-24.093C105.348,296.793,106.126,296.776,106.906,296.776z M160.585,378.338v43.05H65.093
			c-1.56,0-2.828-1.269-2.828-2.828v-85.932c0-14.467,10.732-26.952,26.133-32.612l24.11,33.638v0.001
			c2.091,2.915,5.58,4.656,9.333,4.656s7.243-1.741,9.333-4.657l24.11-33.638c14.699,5.402,26.133,17.069,26.133,34.023
			C167.256,346.645,160.585,362.558,160.585,378.338z M255.999,366.994l-26.943-37.591c2.511-0.208,5.404-0.321,9.095-0.379h37.421
			c1.153,0,2.304,0.032,3.451,0.084c0.354,0.016,0.703,0.044,1.056,0.065c0.796,0.048,1.593,0.103,2.385,0.176
			c0.161,0.015,0.32,0.034,0.48,0.05L255.999,366.994z M375.22,296.776h29.871c0.779,0,1.558,0.017,2.333,0.049l-17.268,24.093
			l-17.268-24.093C373.662,296.793,374.44,296.776,375.22,296.776z M446.903,421.388h-95.492v-43.05
			c0-15.996-6.839-31.843-20.832-44.299c0-16.871,11.338-28.585,26.132-34.023l24.11,33.638c4.453,6.214,14.22,6.202,18.667,0
			l24.11-33.638c15.401,5.66,26.133,18.145,26.133,32.612v85.932h0.001C449.732,420.119,448.463,421.388,446.903,421.388z"/>
	</g>
</g>
<g>
	<g>
		<path d="M220.977,15.388c17.153,2.311,23.01,15.733,24.483,17.269c6.649,6.937,15.412,6.439,21.217-0.212
			c1.609-1.863,9.018-17.416,28.555-17.437c14.772,0,27.806,10.473,30.992,24.901c0.894,4.046,4.897,6.608,8.944,5.708
			c4.045-0.893,6.602-4.898,5.709-8.943c-8.552-38.73-60.715-51.439-84.876-15.221c-16.011-24.824-51.106-28.872-72.312-7.638
			c-8.832,8.843-13.689,20.583-13.676,33.059c0.051,47.954,41.916,84.793,81.088,103.283c3.087,1.452,6.76,1.525,10.01-0.016
			c28.474-13.512,63.322-40.12,75.729-74.276c1.415-3.895-0.596-8.198-4.491-9.613c-3.894-1.412-8.199,0.596-9.613,4.491
			c-10.66,29.346-41.144,52.748-66.65,65.167c-34.597-16.718-71.025-48.65-71.067-89.05C185,27.903,201.691,12.796,220.977,15.388z"
			/>
	</g>
</g>
<g>
</g>
<g>
</g>
<g>
</g>
<g>
</g>
<g>
</g>
<g>
</g>
<g>
</g>
<g>
</g>
<g>
</g>
<g>
</g>
<g>
</g>
<g>
</g>
<g>
</g>
<g>
</g>
<g>
</g>
</svg>
