<?xml version="1.0" encoding="iso-8859-1"?>
<!-- Generator: Adobe Illustrator 19.0.0, SVG Export Plug-In . SVG Version: 6.00 Build 0)  -->
<svg version="1.1" id="Capa_1" xmlns="http://www.w3.org/2000/svg" xmlns:xlink="http://www.w3.org/1999/xlink" x="0px" y="0px"
	 viewBox="0 0 512 512" style="enable-background:new 0 0 512 512;" xml:space="preserve">
<g>
	<g>
		<path d="M501.391,282.566l-46.394-91.313c-4.177-8.221-12.162-13.326-20.839-13.326c-15.644,0-340.699,0-356.315,0
			c-8.678,0-16.662,5.105-20.839,13.326l-46.394,91.313c-2.453,4.828-2.223,10.688,0.601,15.289
			c2.618,4.267,7.064,6.813,11.892,6.813h37.775v183.686c0,13.037,9.821,23.645,21.894,23.645c4.953,0,341.508,0,346.461,0
			c12.072,0,21.894-10.607,21.894-23.645V409.5c0-4.143-3.357-7.501-7.501-7.501s-7.501,3.357-7.501,7.501v78.855
			c0,4.685-3.156,8.644-6.893,8.644h-165.73v-280.25l39.12,76.994c3.423,6.74,9.997,10.927,17.154,10.927h116.347v69.829
			c0,4.143,3.357,7.501,7.501,7.501s7.501-3.357,7.501-7.501v-69.829h37.775c4.828,0,9.273-2.547,11.892-6.813
			C503.614,293.253,503.845,287.395,501.391,282.566z M23.912,289.669c0-0.095,0.019-0.201,0.072-0.307l46.394-91.313
			c1.604-3.158,4.465-5.12,7.466-5.12h165.933c-5.733,11.285-40.032,78.789-47.77,94.02v0.001c-0.853,1.677-2.301,2.719-3.78,2.719
			C187.995,289.669,28.48,289.669,23.912,289.669z M248.5,496.998H82.771c-3.736,0.001-6.892-3.957-6.892-8.643V304.669h116.347
			c7.183,0,13.743-4.21,17.154-10.926l39.12-76.995V496.998z M319.776,289.668c-1.479,0-2.928-1.042-3.78-2.72l-47.77-94.02h165.933
			c3,0,5.86,1.962,7.466,5.12l46.394,91.313c0.054,0.106,0.072,0.212,0.072,0.307C483.515,289.668,324.009,289.668,319.776,289.668z
			"/>
	</g>
</g>
<g>
	<g>
		<path d="M255.998,23.321C239.28-3.502,201.765-8.032,179.175,14.59c-9.332,9.345-14.464,21.75-14.451,34.931
			c0.038,38.088,25.54,74.959,69.966,101.158c1.196,0.706,2.508,1.041,3.803,1.041c2.567,0,5.068-1.319,6.467-3.691
			c2.104-3.567,0.918-8.167-2.65-10.271c-18.801-11.089-62.538-41.885-62.587-88.252c-0.02-20.658,18.178-36.898,38.96-34.1
			c18.574,2.503,25.006,17.097,26.435,18.587c6.624,6.911,15.664,6.935,21.897-0.207c1.665-1.925,9.706-18.768,30.868-18.79
			c18.944,0,34.375,15.411,34.396,34.354c0.045,44.146-39.226,74.324-62.638,88.384c-3.551,2.133-4.701,6.74-2.568,10.292
			c2.134,3.552,6.74,4.699,10.292,2.568c45.124-27.099,69.955-63.061,69.916-101.26C347.227,1.05,283.771-19.503,255.998,23.321z"/>
	</g>
</g>
<g>
</g>
<g>
</g>
<g>
</g>
<g>
</g>
<g>
</g>
<g>
</g>
<g>
</g>
<g>
</g>
<g>
</g>
<g>
</g>
<g>
</g>
<g>
</g>
<g>
</g>
<g>
</g>
<g>
</g>
</svg>
