<?xml version="1.0" encoding="iso-8859-1"?>
<!-- Generator: Adobe Illustrator 19.0.0, SVG Export Plug-In . SVG Version: 6.00 Build 0)  -->
<svg version="1.1" id="Capa_1" xmlns="http://www.w3.org/2000/svg" xmlns:xlink="http://www.w3.org/1999/xlink" x="0px" y="0px"
	 viewBox="0 0 511.999 511.999" style="enable-background:new 0 0 511.999 511.999;" xml:space="preserve">
<g>
	<g>
		<path d="M504.5,262.858h-11.309l-46.692-107.804c4.656-4.132,7.598-10.156,7.598-16.856c0-12.43-10.112-22.541-22.541-22.541
			c-6.361,0-12.112,2.653-16.215,6.906c-36.178-16.469-74.429-27.193-113.885-31.927c-2.479-15.055-12.001-27.759-25.062-34.615
			V41.312c0-10.421-8.479-18.898-18.898-18.898h-6.559c-10.421,0-18.898,8.479-18.898,18.898v14.709
			c-13.112,6.883-22.659,19.659-25.092,34.791c-38.398,4.757-75.666,15.2-110.955,31.087c-4.048-3.863-9.523-6.242-15.547-6.242
			c-12.43,0-22.541,10.112-22.541,22.541c0,6.7,2.942,12.724,7.598,16.856L18.809,262.858H7.5c-4.143,0-7.5,3.357-7.5,7.5v9.782
			c0,31.4,25.547,56.946,56.946,56.946h46.995c31.4,0,56.946-25.547,56.946-56.946v-9.782c0-4.143-3.357-7.5-7.5-7.5h-11.309
			L95.387,155.054c2.665-2.365,4.765-5.35,6.076-8.729h122.692v231.149h-4.578c-29.301,0-56.946,22.597-56.946,59.447
			c-9.448,1.347-16.743,9.469-16.743,19.283v13.879c0,10.753,8.749,19.501,19.501,19.501h71.326c4.143,0,7.5-3.357,7.5-7.5
			s-3.357-7.5-7.5-7.5h-71.326c-2.439,0-4.5-2.061-4.5-4.5v-13.879c0-2.439,2.061-4.5,4.5-4.5c2.4,0,175.203,0,177.656,0
			c2.439,0,4.5,2.061,4.5,4.5v13.879c0,2.439-2.061,4.5-4.5,4.5h-71.326c-4.143,0-7.5,3.357-7.5,7.5s3.357,7.5,7.5,7.5h71.326
			c10.753,0,19.501-8.748,19.501-19.501v-13.879c0-9.814-7.295-17.936-16.743-19.283c0-36.526-27.365-59.447-56.946-59.447h-4.578
			v-89.615c0-4.143-3.357-7.5-7.5-7.5c-4.143,0-7.5,3.357-7.5,7.5v89.615h-30.119V143.934c9.784,3.27,20.335,3.27,30.119,0v108.924
			c0,4.143,3.357,7.501,7.5,7.501c4.143,0,7.5-3.357,7.5-7.501V146.326h126.26c1.311,3.378,3.411,6.363,6.076,8.729l-46.692,107.804
			h-11.311c-4.143,0-7.5,3.357-7.5,7.5v9.782c0,31.4,25.547,56.946,56.946,56.946h46.995c31.4,0,56.946-25.547,56.946-56.946v-9.782
			C512,266.215,508.642,262.858,504.5,262.858z M80.444,130.658c4.172,0,7.698,3.449,7.516,7.855
			c-0.002,0.053,0.003,0.105,0.001,0.157c-0.253,4.056-3.655,7.066-7.516,7.066c-4.082,0-7.54-3.318-7.54-7.539
			C72.903,134.041,76.287,130.658,80.444,130.658z M145.888,277.859c0,27.825-20.505,44.227-41.946,44.227H56.946
			c-21.505,0-41.946-16.442-41.946-44.227C19.409,277.859,141.695,277.859,145.888,277.859z M125.732,262.858H35.156l44.241-102.145
			c0.693,0.038,1.483,0.033,2.094,0L125.732,262.858z M111.93,131.325c30.417-12.661,62.27-21.182,94.99-25.404
			c1.471,9.336,5.694,18.239,12.476,25.404H111.93z M247.039,41.312c0-2.149,1.748-3.897,3.897-3.897h6.559
			c2.149,0,3.897,1.748,3.897,3.897v9.781c-2.232-0.338-4.937-0.537-7.177-0.537c-2.194,0-4.9,0.193-7.176,0.537V41.312z
			 M288.856,392.476c21.506,0,41.945,16.442,41.945,44.228H177.632c0-27.825,20.505-44.228,41.945-44.228
			C226.54,392.476,281.897,392.476,288.856,392.476z M254.216,131.326c-18.358,0-33.268-15.119-32.863-33.613
			c0-0.018-0.002-0.035-0.002-0.053c0.33-14.008,9.472-25.91,22.102-30.285c21.462-7.466,43.648,8.726,43.648,31.066
			C287.101,116.6,272.336,131.326,254.216,131.326z M289.029,131.325c6.793-7.187,11.083-16.245,12.517-25.582
			c33.217,4.157,65.538,12.737,96.392,25.582H289.029z M424.04,138.515c-0.179-4.361,3.305-7.857,7.515-7.857
			c4.157,0,7.54,3.383,7.54,7.54c0,4.219-3.46,7.539-7.54,7.539c-3.899,0-7.264-3.039-7.516-7.066
			C424.038,138.619,424.043,138.567,424.04,138.515z M430.508,160.713c0.002,0,0.004,0,0.007,0c0.675,0.031,1.35,0.04,2.087,0
			l44.241,102.145h-90.576L430.508,160.713z M455.053,322.085h-46.995c-21.506,0-41.945-16.442-41.945-44.228
			c4.408,0,126.694,0,130.887,0C496.999,305.684,476.494,322.085,455.053,322.085z"/>
	</g>
</g>
<g>
	<g>
		<path d="M254.216,76.263c-12.23,0-22.178,9.949-22.178,22.177c0,12.23,9.95,22.178,22.178,22.178
			c12.23,0,22.178-9.949,22.178-22.178C276.395,86.211,266.446,76.263,254.216,76.263z M254.216,105.618
			c-3.957,0-7.177-3.22-7.177-7.177c0-3.957,3.22-7.176,7.177-7.176c3.957,0,7.177,3.219,7.177,7.176
			C261.394,102.398,258.174,105.618,254.216,105.618z"/>
	</g>
</g>
<g>
</g>
<g>
</g>
<g>
</g>
<g>
</g>
<g>
</g>
<g>
</g>
<g>
</g>
<g>
</g>
<g>
</g>
<g>
</g>
<g>
</g>
<g>
</g>
<g>
</g>
<g>
</g>
<g>
</g>
</svg>
