<?xml version="1.0" encoding="iso-8859-1"?>
<!-- Generator: Adobe Illustrator 19.0.0, SVG Export Plug-In . SVG Version: 6.00 Build 0)  -->
<svg version="1.1" id="Capa_1" xmlns="http://www.w3.org/2000/svg" xmlns:xlink="http://www.w3.org/1999/xlink" x="0px" y="0px"
	 viewBox="0 0 512.001 512.001" style="enable-background:new 0 0 512.001 512.001;" xml:space="preserve">
<g>
	<g>
		<path d="M261.405,233.955c3.867,1.823,8.366,1.821,12.231-0.015c55.144-26.166,117.409-77.847,126.789-144.423
			c0.578-4.102-2.279-7.895-6.381-8.473c-4.09-0.573-7.895,2.278-8.473,6.381c-8.532,60.562-66.523,108.285-118.068,132.822
			c-8.88-4.205-17.621-8.916-26.041-14.032c0-43.44,0.002-33.446-0.008-49.441v-0.001c-0.011-15.03-12.245-27.255-27.283-27.255
			c-0.005,0-0.012,0-0.017,0c-15.009,0.012-27.21,12.258-27.199,27.292v5.14c-19.87-21.986-38.937-52.941-38.976-90.789
			c-0.033-33.428,29.398-60.04,63.377-55.469c29.884,4.027,40.729,27.664,42.302,29.302c10.42,10.872,23.09,7.069,28.771-2.063
			c28.451-45.714,89.523-31.129,102.112,12.618c1.144,3.98,5.301,6.282,9.281,5.133c3.98-1.146,6.278-5.301,5.133-9.281
			C382.662-5.24,304.715-21.264,269.698,35.002c-0.064,0.104-0.123,0.198-0.175,0.282c-1.632,1.722-2.384,1.811-4.458-0.105
			C241.604-4.75,186.668-11.968,153.738,21.008c-13.403,13.421-20.774,31.236-20.756,50.167
			c0.041,39.701,18.697,78.459,53.976,112.27v145.479l-24.035-31.551c-21.613-30.073-62.099-3.471-48.797,25.58l38.941,89.115
			c0.019,0.044,0.039,0.087,0.058,0.13c7.34,15.894,17.756,24.627,28.445,35.213c5.916,5.861,5.79,20.995,5.604,29.383
			c-0.203,9.208-0.456,20.668,7.072,28.362c4.439,4.538,10.782,6.839,18.853,6.839h26.046c4.142,0,7.5-3.357,7.5-7.5
			s-3.358-7.5-7.5-7.5H213.1c-3.883,0-6.619-0.783-8.13-2.328c-3.731-3.814-2.75-14.44-2.734-21.652
			c0.002-0.089,0.003-0.178,0.002-0.267c-0.11-12.679-0.992-26.961-10.111-35.994c-10.89-10.786-18.815-17.212-25.356-30.786
			l-38.928-89.084c-0.02-0.046-0.041-0.092-0.062-0.137c-5.86-12.713,11.933-26.06,23.007-10.557
			c0.045,0.063,0.09,0.124,0.137,0.186l37.566,49.315c4.336,5.691,13.466,2.614,13.466-4.545c0-7.043,0-188.461,0-194.344
			c-0.005-6.77,5.473-12.28,12.21-12.286c0.003,0,0.005,0,0.007,0c6.732,0,12.276,5.462,12.282,12.268
			c0.008,144.006,0.008,125.49,0.008,168.857c0,4.143,3.358,7.5,7.5,7.5c4.142,0,7.5-3.357,7.5-7.5v-26.927
			c0.396-1.398,0.29-0.453,0.29-21.206c0-6.757,5.497-12.254,12.254-12.254c6.756,0,12.253,5.497,12.253,12.254
			c0,26.828,0,25.773,0,48.133c0,4.143,3.357,7.5,7.5,7.5s7.5-3.357,7.5-7.5v-42.805c0-6.757,5.497-12.254,12.254-12.254
			c6.756,0,12.253,5.497,12.253,12.254c0,4.597,0,38.112,0,42.805c0,4.143,3.357,7.5,7.5,7.5s7.5-3.357,7.5-7.5v-38.809
			c0-6.757,5.497-12.254,12.254-12.254c6.756,0,12.253,5.497,12.253,12.254v114.292c0.015,15.752-6.112,22.091-13.207,29.431
			c-17.325,17.926-15.104,23.759-15.104,54.674c0,7.425-2.524,10.967-8.422,11.766h-34.394c-4.143,0-7.5,3.357-7.5,7.5
			s3.357,7.5,7.5,7.5c37.186,0,35.049,0.027,35.695-0.048c13.851-1.564,22.12-11.553,22.12-26.722l-0.011-22.451
			c-0.007-10.509,4.568-15.243,10.901-21.795c7.771-8.04,17.441-18.047,17.421-39.862V286.833c0-23.289-27.527-35.882-45.128-20.557
			c-9.47-12.341-27.085-14.212-38.9-4.508c-8.024-11.303-22.934-14.621-34.779-8.452v-29.709
			C247.988,227.307,254.658,230.769,261.405,233.955z"/>
	</g>
</g>
<g>
</g>
<g>
</g>
<g>
</g>
<g>
</g>
<g>
</g>
<g>
</g>
<g>
</g>
<g>
</g>
<g>
</g>
<g>
</g>
<g>
</g>
<g>
</g>
<g>
</g>
<g>
</g>
<g>
</g>
</svg>
