<?xml version="1.0" encoding="iso-8859-1"?>
<!-- Generator: Adobe Illustrator 19.0.0, SVG Export Plug-In . SVG Version: 6.00 Build 0)  -->
<svg version="1.1" id="Capa_1" xmlns="http://www.w3.org/2000/svg" xmlns:xlink="http://www.w3.org/1999/xlink" x="0px" y="0px"
	 viewBox="0 0 512.001 512.001" style="enable-background:new 0 0 512.001 512.001;" xml:space="preserve">
<g>
	<g>
		<path d="M119.524,42.81h-16.973c-3.932,0-6.521,2.109-6.521,4.507V108.4c0,2.397,2.589,4.507,6.521,4.507h16.973
			c13.233,0,23.589-6.137,23.589-22.63V65.44C143.113,48.948,132.758,42.81,119.524,42.81z M128.154,90.277
			c0,6.52-3.26,9.589-8.631,9.589h-8.534V55.851h8.534c5.371,0,8.631,3.068,8.631,9.589V90.277z"/>
	</g>
</g>
<g>
	<g>
		<path d="M175.328,42.81c-13.233,0-23.493,6.136-23.493,22.63v25.411c0,16.493,10.261,22.63,23.493,22.63
			c13.232,0,23.589-6.137,23.589-22.63V65.44C198.917,48.948,188.561,42.81,175.328,42.81z M183.958,90.852
			c0,6.616-3.26,9.589-8.629,9.589c-5.37,0-8.534-2.973-8.534-9.589V65.44c0-6.616,3.164-9.589,8.534-9.589
			c5.369,0,8.629,2.972,8.629,9.589V90.852z"/>
	</g>
</g>
<g>
	<g>
		<path d="M250.022,42.809c-3.74,0.001-7.479,1.343-7.479,4.507V79.92c-19.315-36.841-17.545-37.11-26.562-37.11
			c-3.74,0-7.479,1.438-7.479,4.603v60.891c0,6.137,14.959,6.137,14.959,0V75.7l18.22,33.179c1.822,3.356,4.891,4.027,8.342,4.027
			c3.74,0,7.479-1.534,7.479-4.603V47.317C257.501,44.152,253.762,42.809,250.022,42.809z"/>
	</g>
</g>
<g>
	<g>
		<path d="M318.579,105.715l-17.932-58.493c-2.093-6.66-17.467-6.668-19.562,0c-18.774,61.57-18.027,58.883-18.027,59.548
			c0,5.379,12.905,8.865,14.48,3.356l3.26-11.987h20.233l3.26,11.987C305.922,115.825,320.143,111.988,318.579,105.715z
			 M283.865,86.633l7-25.699l7,25.699H283.865z"/>
	</g>
</g>
<g>
	<g>
		<path d="M359.807,42.809h-41.425c-6.116,0-5.925,13.425,0,13.425h13.233v52.069c0.001,6.137,14.96,6.138,14.96,0.001v-52.07
			h13.233C365.74,56.234,365.921,42.809,359.807,42.809z"/>
	</g>
</g>
<g>
	<g>
		<path d="M410.914,99.866h-25.699V83.565h14.384c3.165,0,4.507-3.068,4.507-5.657c0-3.068-1.63-5.85-4.507-5.85h-14.384V55.851
			h25.699c5.932,0,6.112-13.041,0-13.041h-34.138c-3.26,0-6.521,1.534-6.521,4.603v60.891c0,3.068,3.261,4.603,6.521,4.603h34.138
			c3.164,0,4.506-3.356,4.506-6.425C415.42,102.934,413.79,99.866,410.914,99.866z"/>
	</g>
</g>
<g>
	<g>
		<path d="M447.221,87.691c-4.142,0-7.5,3.357-7.5,7.5v39.149c0,3.33-2.709,6.039-6.039,6.039h-177.63
			c-5.233-6.992-13.391-10.887-21.794-10.889c-0.001,0-0.002,0-0.003,0c-0.005,0-0.012,0-0.017,0
			c-8.282,0.006-16.452,3.805-21.736,10.889H78.319c-3.33,0-6.039-2.709-6.039-6.039V21.04c0-3.33,2.709-6.039,6.039-6.039H433.68
			c3.33,0,6.039,2.709,6.039,6.039v39.148c0,4.143,3.358,7.501,7.5,7.501c4.142,0,7.5-3.357,7.5-7.5V21.04
			C454.72,9.438,445.281,0,433.68,0H78.319c-11.602,0-21.04,9.438-21.04,21.04v113.3c0,11.602,9.438,21.04,21.04,21.04h128.753
			c-0.054,1.074-0.035,172.452-0.035,173.531L183,297.357c-21.572-30.014-62.126-3.522-48.799,25.582l38.944,89.122
			c0.019,0.044,0.039,0.087,0.058,0.13c7.34,15.895,17.757,24.628,28.448,35.216c5.916,5.861,5.79,20.996,5.604,29.386
			c-0.203,9.208-0.456,20.669,7.072,28.363c4.439,4.538,10.783,6.839,18.854,6.839h30.869c4.142,0,7.5-3.357,7.5-7.5
			c0-4.143-3.358-7.5-7.5-7.5h-30.869c-3.883,0-6.619-0.783-8.13-2.328c-3.731-3.814-2.75-14.441-2.734-21.653
			c0.002-0.089,0.003-0.178,0.002-0.267c-0.11-12.68-0.992-26.963-10.112-35.997c-10.891-10.787-18.816-17.213-25.357-30.789
			l-38.931-89.091c-0.02-0.046-0.041-0.092-0.062-0.137c-5.859-12.712,11.933-26.062,23.007-10.558
			c0.045,0.063,0.09,0.124,0.137,0.186l37.569,49.319c4.338,5.695,13.467,2.613,13.467-4.545V156.779
			c-0.005-6.692,5.414-12.283,12.211-12.287c6.875-0.004,12.285,5.651,12.29,12.269c0.013,17.154,0.008,148.852,0.008,168.869
			c0,4.143,3.358,7.5,7.5,7.5c4.142,0,7.5-3.357,7.5-7.5V298.7c0.393-1.389,0.289-0.409,0.289-21.205
			c0-6.757,5.497-12.255,12.255-12.255c6.756,0,12.254,5.497,12.254,12.255c0,0.488,0-2.582,0,48.137c0,4.143,3.358,7.5,7.5,7.5
			s7.5-3.357,7.5-7.5c0-2.473,0-41.571,0-42.808c0-6.757,5.497-12.255,12.254-12.255s12.254,5.497,12.254,12.255
			c0,4.597,0,38.115,0,42.808c0,4.143,3.358,7.5,7.5,7.5s7.5-3.357,7.5-7.5v-38.812c0-6.757,5.497-12.255,12.255-12.255
			c6.756,0,12.254,5.497,12.254,12.246l-0.142,118.364c-0.959,12.853-6.611,18.7-13.064,25.376
			c-17.326,17.927-15.105,23.76-15.105,54.678c0,7.425-2.524,10.968-8.422,11.767h-29.575c-4.142,0-7.5,3.357-7.5,7.5
			c0,4.143,3.358,7.5,7.5,7.5c31.98,0,30.23,0.027,30.877-0.048c13.852-1.564,22.122-11.553,22.122-26.723
			c-0.015-30.459-1.855-31.063,10.892-44.248c7.771-8.04,17.442-18.048,17.422-39.872c-0.092-91.944-0.278,115.423,0-114.286
			c0-23.29-27.528-35.886-45.13-20.558c-9.471-12.342-27.086-14.214-38.904-4.508c-8.024-11.304-22.933-14.622-34.782-8.452
			c0.002-103.182,0.007-96.912-0.044-97.919h172.177c11.602,0,21.04-9.438,21.04-21.04V95.191
			C454.722,91.048,451.364,87.691,447.221,87.691z"/>
	</g>
</g>
<g>
</g>
<g>
</g>
<g>
</g>
<g>
</g>
<g>
</g>
<g>
</g>
<g>
</g>
<g>
</g>
<g>
</g>
<g>
</g>
<g>
</g>
<g>
</g>
<g>
</g>
<g>
</g>
<g>
</g>
</svg>
