<?xml version="1.0" encoding="iso-8859-1"?>
<!-- Generator: Adobe Illustrator 19.0.0, SVG Export Plug-In . SVG Version: 6.00 Build 0)  -->
<svg version="1.1" id="Capa_1" xmlns="http://www.w3.org/2000/svg" xmlns:xlink="http://www.w3.org/1999/xlink" x="0px" y="0px"
	 viewBox="0 0 512 512" style="enable-background:new 0 0 512 512;" xml:space="preserve">
<g>
	<g>
		<path d="M442.322,69.049V14.95c0-8.243-6.707-14.95-14.951-14.95h-0.613h-53.486H138.597H85.241h-0.613
			c-8.243,0-14.951,6.706-14.951,14.95v0.613v53.502v74.614v52.932v0.612c0,8.243,6.707,14.951,14.951,14.951h0.613
			c31.16,0,42.94,0,73.939,0v116.738l-24.036-31.554c-21.616-30.08-62.101-3.467-48.8,25.582l38.944,89.122
			c0.021,0.05,0.043,0.099,0.066,0.147c7.049,15.254,17.123,23.988,28.44,35.197c5.907,5.852,5.79,21.003,5.604,29.386
			c-0.203,9.208-0.456,20.669,7.072,28.364c4.439,4.538,10.783,6.839,18.854,6.839h27.096c4.142,0,7.5-3.357,7.5-7.5
			s-3.358-7.5-7.5-7.5h-27.096c-10.285,0-11.261-4.817-10.929-19.872c0.757-34.255-6.426-36.78-22.628-52.836
			c-7.394-7.322-12.414-17.576-12.779-18.334l-38.927-89.083c-0.02-0.046-0.041-0.092-0.062-0.137
			c-5.86-12.712,11.934-26.062,23.007-10.558c0.045,0.063,0.09,0.124,0.137,0.186l37.569,49.319
			c4.336,5.692,13.467,2.612,13.467-4.545c0-2.692,0-191.116,0-194.356c-0.005-6.59,5.325-12.284,12.211-12.288
			c6.767-0.004,12.285,5.497,12.29,12.269c0.011,61.088,0.008,25.571,0.008,168.869c0,4.143,3.358,7.5,7.5,7.5s7.5-3.357,7.5-7.5
			v-26.93c0.393-1.389,0.289-0.409,0.289-21.205c0-6.757,5.497-12.255,12.254-12.255c6.756,0,12.254,5.497,12.254,12.255
			c0,26.829,0,25.775,0,48.137c0,4.143,3.358,7.5,7.5,7.5s7.5-3.357,7.5-7.5V282.82c0-6.757,5.497-12.255,12.255-12.255
			c6.756,0,12.254,5.497,12.254,12.255c0,4.597,0,38.115,0,42.808c0,4.143,3.358,7.5,7.5,7.5s7.5-3.357,7.5-7.5v-38.812
			c0-6.757,5.497-12.255,12.254-12.255s12.254,5.497,12.254,12.255v114.3c0.015,15.753-6.112,22.092-13.208,29.434
			c-17.326,17.927-15.105,23.76-15.105,54.678c0,7.425-2.524,10.968-8.422,11.767h-33.345c-4.142,0-7.5,3.357-7.5,7.5
			c0,4.143,3.358,7.5,7.5,7.5c36.057,0,34.003,0.027,34.649-0.048c13.852-1.564,22.122-11.553,22.122-26.723
			c-0.015-30.459-1.855-31.063,10.892-44.248c7.771-8.04,17.442-18.048,17.422-39.865V286.818c0-23.29-27.529-35.886-45.13-20.558
			c-9.47-12.341-27.087-14.214-38.904-4.508c-8.025-11.304-22.933-14.622-34.782-8.452v-41.126H373.2h53.559h0.613
			c8.243,0,14.951-6.707,14.951-14.951v-53.525c0-0.004,0-0.007,0-0.011V69.06C442.321,69.056,442.322,69.053,442.322,69.049z
			 M380.164,15.001h46.594c0.31,0,0.562,0.252,0.562,0.563v46.592c-0.214,0.003-0.428,0.005-0.642,0.005
			c-25.649,0-46.517-20.868-46.517-46.518C380.16,15.429,380.161,15.215,380.164,15.001z M84.679,15.564
			c0-0.311,0.252-0.563,0.563-0.563h46.462c0.003,0.214,0.004,0.428,0.004,0.642c0,25.649-20.868,46.518-46.517,46.518
			c-0.17,0-0.341-0.001-0.512-0.003V15.564z M85.241,197.172c-0.31,0-0.563-0.252-0.563-0.563v-46.022
			c0.171-0.002,0.342-0.003,0.512-0.003c25.649,0,46.517,20.867,46.517,46.517c0.001,0.024,0.001,0.047,0.001,0.071H85.241z
			 M152.045,106.087c0,14.693,2.855,28.879,8.483,42.217c-0.873,2.672-1.35,5.521-1.348,8.48v40.388h-12.473
			c0-0.023,0.001-0.047,0.001-0.07c0-33.921-27.597-61.518-61.518-61.518c-0.17,0-0.342,0.008-0.512,0.01V77.152
			c0.17,0.001,0.342,0.01,0.512,0.01c33.921,0,61.518-27.597,61.518-61.519c0-0.214-0.01-0.428-0.012-0.642h55.559
			C172.207,33.546,152.045,67.433,152.045,106.087z M427.32,196.61c0,0.311-0.252,0.563-0.562,0.563H380.16v-0.001
			c0-0.023,0-0.047,0-0.07c0-25.649,20.868-46.517,46.517-46.517c0.214,0,0.428,0.002,0.642,0.005V196.61z M427.321,135.597
			c-0.214-0.002-0.428-0.012-0.642-0.012c-33.921,0-61.518,27.597-61.518,61.518c0,0.023,0.001,0.047,0.001,0.07h-57.416
			c24.779-15.253,42.992-41.003,48.459-71.996c0.718-4.08-2.005-7.971-6.085-8.69c-4.078-0.726-7.969,2.004-8.689,6.083
			c-10.704,60.695-75.493,92.765-127.74,63.955c0-20.586,0.002-14.279-0.008-29.776v-0.002
			c-0.016-21.751-24.584-34.654-42.416-22.687c-2.803-8.982-4.219-18.351-4.219-27.977c0-50.226,39.437-91.086,87.912-91.086
			c42.74,0,79.146,31.598,86.566,75.131c0.696,4.083,4.566,6.829,8.654,6.134c4.083-0.696,6.829-4.57,6.133-8.653
			c-5.332-31.283-23.575-57.263-48.503-72.61h57.364c-0.002,0.214-0.012,0.428-0.012,0.642c0,33.922,27.597,61.519,61.518,61.519
			c0.214,0,0.428-0.01,0.642-0.012V135.597z"/>
	</g>
</g>
<g>
	<g>
		<path d="M260.024,95.721V64.936c10.616,0.758,14.559,5.61,18.198,5.61c4.549,0,6.672-5.762,6.672-8.644
			c0-7.43-14.559-10.615-24.87-10.919v-4.095c0-1.819-2.274-3.487-4.55-3.487c-2.577,0-4.397,1.668-4.397,3.487v4.398
			c-14.407,1.516-28.813,9.099-28.813,28.207c0,19.411,15.165,24.87,28.813,29.724v35.638
			c-15.468-1.213-19.563-11.829-24.566-11.829c-3.791,0-6.976,5.004-6.976,8.644c0,7.431,12.738,17.592,31.543,17.895v4.701
			c0,1.82,1.82,3.488,4.397,3.488c2.275,0,4.55-1.668,4.55-3.488v-5.155c16.378-2.275,27.6-12.588,27.6-31.24
			C287.624,107.246,273.217,100.573,260.024,95.721z M251.987,92.84c-8.037-3.033-14.559-6.218-14.559-14.862
			c0-7.886,6.065-11.678,14.559-12.738V92.84z M259.113,144.553v-31.999c7.431,3.185,13.346,7.431,13.346,16.985
			C272.459,138.183,267.302,143.036,259.113,144.553z"/>
	</g>
</g>
<g>
</g>
<g>
</g>
<g>
</g>
<g>
</g>
<g>
</g>
<g>
</g>
<g>
</g>
<g>
</g>
<g>
</g>
<g>
</g>
<g>
</g>
<g>
</g>
<g>
</g>
<g>
</g>
<g>
</g>
</svg>
