<?xml version="1.0" encoding="iso-8859-1"?>
<!-- Generator: Adobe Illustrator 19.0.0, SVG Export Plug-In . SVG Version: 6.00 Build 0)  -->
<svg version="1.1" id="Capa_1" xmlns="http://www.w3.org/2000/svg" xmlns:xlink="http://www.w3.org/1999/xlink" x="0px" y="0px"
	 viewBox="0 0 512 512" style="enable-background:new 0 0 512 512;" xml:space="preserve">
<g>
	<g>
		<path d="M157.764,434.559c-57.058-28.643-84.583-102.22-48.983-163.75c2.076-3.584,0.85-8.173-2.735-10.249
			c-3.583-2.069-8.173-0.85-10.249,2.736c-39.956,69.06-9.481,152.18,55.237,184.67c3.704,1.859,8.211,0.363,10.069-3.338
			C162.96,440.926,161.465,436.417,157.764,434.559z"/>
	</g>
</g>
<g>
	<g>
		<path d="M469.999,392.714c4.143,0,7.501-3.357,7.501-7.501V368.89c0-6.556-5.272-11.895-11.806-11.902h-51.751v-51.804
			c-0.008-6.481-5.348-11.753-11.902-11.753h-13.371c-3.972-17.819-10.632-34.895-19.853-50.835
			c-0.083-0.144-128.44-222.006-128.526-222.148c-19.198-33.08-41.612-19.623-50.492-4.18
			c-0.656,1.136-128.933,222.861-130.939,226.328C-7.57,357.413,69.542,499.706,197.432,511.228
			c0.229,0.021,0.456,0.031,0.682,0.031c3.838-0.001,7.111-2.932,7.462-6.829c0.372-4.125-2.671-7.772-6.798-8.144
			C80.996,485.676,11.359,354.653,71.845,250.107c0.484-0.836,128.465-222.05,128.465-222.05
			c1.009-1.745,7.094-13.281,13.563-13.078c5.398,0.145,10.844,8.744,13.567,13.211l128.39,221.918
			c7.889,13.636,13.738,28.173,17.443,43.323h-38.883c-6.555,0-11.894,5.272-11.901,11.806v51.751h-51.809h-0.001
			c-6.074,0.01-11.085,4.703-11.687,10.689c-0.04,0.399-0.061,0.804-0.061,1.213v67.651c0,6.555,5.272,11.894,11.806,11.901h51.752
			v7.257c-24.419,21.571-55.547,36.26-90.231,40.215c-4.116,0.47-7.072,4.187-6.604,8.303c0.47,4.116,4.202,7.076,8.303,6.603
			c31.259-3.565,61.771-15.303,88.531-35.736v25.163c0.008,6.481,5.348,11.753,11.901,11.753h67.65
			c6.556,0,11.895-5.272,11.902-11.806v-51.751h51.804c6.481-0.008,11.753-5.348,11.753-11.901v-16.324
			c0-4.143-3.357-7.501-7.501-7.501c-4.143,0-7.501,3.357-7.501,7.501v13.224h-51.653c-6.564,0-11.902,5.34-11.902,11.902v51.654
			h-61.451v-37.961v-13.692c0-6.564-5.341-11.902-11.903-11.902h-51.654v-61.452h51.654c6.564,0,11.903-5.34,11.903-11.902v-51.657
			c7.696,0,54.919,0,61.451,0v51.654c0,6.564,5.34,11.902,11.902,11.902h51.654v13.224
			C462.498,389.356,465.857,392.714,469.999,392.714z"/>
	</g>
</g>
<g>
</g>
<g>
</g>
<g>
</g>
<g>
</g>
<g>
</g>
<g>
</g>
<g>
</g>
<g>
</g>
<g>
</g>
<g>
</g>
<g>
</g>
<g>
</g>
<g>
</g>
<g>
</g>
<g>
</g>
</svg>
