<?xml version="1.0" encoding="iso-8859-1"?>
<!-- Generator: Adobe Illustrator 19.0.0, SVG Export Plug-In . SVG Version: 6.00 Build 0)  -->
<svg version="1.1" id="Capa_1" xmlns="http://www.w3.org/2000/svg" xmlns:xlink="http://www.w3.org/1999/xlink" x="0px" y="0px"
	 viewBox="0 0 512 512" style="enable-background:new 0 0 512 512;" xml:space="preserve">
<g>
	<g>
		<path d="M299.746,244.564H147.819c-4.143,0-7.5,3.357-7.5,7.5s3.357,7.5,7.5,7.5h151.926c4.143,0,7.5-3.357,7.5-7.5
			S303.889,244.564,299.746,244.564z"/>
	</g>
</g>
<g>
	<g>
		<path d="M299.746,285.56H147.819c-4.143,0-7.5,3.357-7.5,7.5s3.357,7.5,7.5,7.5h151.926c4.143,0,7.5-3.357,7.5-7.5
			S303.889,285.56,299.746,285.56z"/>
	</g>
</g>
<g>
	<g>
		<path d="M355.184,396.626V377.77c7.178,0.535,9.643,3.964,12.643,3.964c3.964,0,5.678-4.928,5.678-7.393
			c0-6.213-11.356-8.25-18.32-8.464v-2.785c0-1.394-1.821-2.679-3.643-2.679c-2.035,0-3.643,1.285-3.643,2.679v2.999
			c-10.714,1.393-20.784,7.285-20.784,20.892c0,13.714,11.035,17.893,20.784,21.535v21.32c-9.429-1.071-12.643-8.035-16.713-8.035
			c-3.321,0-6,4.499-6,7.499c0,5.999,9.75,12.964,22.713,13.285v3c0,1.393,1.607,2.679,3.643,2.679c1.821,0,3.643-1.286,3.643-2.679
			v-3.321c12-1.928,20.249-9.535,20.249-22.713C375.433,404.982,364.72,400.161,355.184,396.626z M348.756,394.268
			c-4.928-1.928-8.57-3.964-8.57-8.679c0-4.07,3.214-6.642,8.57-7.499V394.268z M354.328,429.731v-18.642
			c4.606,2.035,8.034,4.606,8.034,9.856C362.362,425.981,359.041,428.767,354.328,429.731z"/>
	</g>
</g>
<g>
	<g>
		<path d="M350.524,335.589c-42.132,0-77.439,36.09-73.067,80.767c6.038,60.815,80.191,87.785,123.604,45.924
			c14.768-14.017,22.899-32.926,22.899-53.256C423.959,368.532,391.016,335.589,350.524,335.589z M390.594,451.53
			c-35.351,33.341-93.467,11.146-98.21-36.646c-3.484-35.608,24.641-64.294,58.141-64.294
			C402.714,350.59,429.185,414.482,390.594,451.53z"/>
	</g>
</g>
<g>
	<g>
		<path d="M445.735,419.15c-4.066-0.754-7.985,1.935-8.74,6.008c-7.508,40.521-43.062,71.84-86.471,71.84
			c-44.844,0-83.554-34.34-87.622-80.158c-0.004-0.12-0.001-0.239-0.011-0.359c-4.365-52.189,36.973-95.434,87.634-95.434
			c42.061,0,78.698,29.861,86.492,71.841c0.754,4.072,4.673,6.762,8.742,6.007c4.072-0.755,6.762-4.668,6.007-8.742
			c-6.543-35.359-31.015-64.486-64.311-77.266V104.337c0-26.633-21.666-48.299-48.298-48.299h-22.483V14.784
			C316.674,6.632,310.041,0,301.89,0c-6.132,0-149.008,0-155.153,0c-8.738,0-15.847,7.108-15.847,15.847v40.191h-22.483
			c-26.633,0-48.299,21.666-48.299,48.299v359.364c0,26.633,21.666,48.299,48.299,48.299c0.002,0,0.004,0,0.006,0
			c34.305,0,45.586,0,45.432,0c35.905,0,97.03,0,196.68,0c52.113,0,92.641-37.803,101.219-84.109
			C452.499,423.819,449.809,419.904,445.735,419.15z M327.014,308.755c-13.675,3.202-26.721,9.285-38.118,17.804H147.819
			c-4.143,0-7.5,3.357-7.5,7.5c0,4.143,3.357,7.5,7.5,7.5h124.927c-6.86,7.9-12.373,16.725-16.468,25.996H147.819
			c-4.143,0-7.5,3.357-7.5,7.5c0,4.143,3.357,7.5,7.5,7.5h103.184c-2.402,9.024-3.536,18.485-3.452,27.052H122.876
			c-1.283,0-2.327-1.044-2.327-2.327V218.567h206.466V308.755z M282.518,15.001h19.155v41.037h-19.155V15.001z M248.361,15.001
			h19.156v41.037h-19.156V15.001z M214.204,15.001h19.155v41.037h-19.155V15.001z M180.047,15.001h19.155v41.037h-19.155V15.001z
			 M146.737,15.001h18.31v41.037h-19.155V15.847h-0.001C145.891,15.38,146.27,15.001,146.737,15.001z M108.406,496.999
			c-18.36,0-33.298-14.938-33.298-33.298V104.337c0-18.36,14.938-33.298,33.298-33.298c15.074,0,222.348,0,230.751,0
			c18.359,0,33.297,14.938,33.297,33.298v204.066c-9.634-2.092-19.939-2.865-30.44-2.002v-95.336v-50.595
			c0-9.556-7.772-17.329-17.328-17.329h-83.404c-4.143,0-7.5,3.357-7.5,7.5c0,4.143,3.357,7.5,7.5,7.5h83.404
			c1.283,0,2.327,1.044,2.327,2.328v43.095H120.549v-43.095c0-1.284,1.044-2.328,2.327-2.328h83.404c4.143,0,7.5-3.357,7.5-7.5
			c0-4.143-3.357-7.5-7.5-7.5h-83.404c-9.556,0-17.328,7.773-17.328,17.329v50.595V407.28c0,9.556,7.773,17.328,17.328,17.328
			h125.863c4.459,29.21,21.048,55.599,48.429,72.409C297.141,497.018,171.053,496.999,108.406,496.999z"/>
	</g>
</g>
<g>
</g>
<g>
</g>
<g>
</g>
<g>
</g>
<g>
</g>
<g>
</g>
<g>
</g>
<g>
</g>
<g>
</g>
<g>
</g>
<g>
</g>
<g>
</g>
<g>
</g>
<g>
</g>
<g>
</g>
</svg>
