<?xml version="1.0" encoding="iso-8859-1"?>
<!-- Generator: Adobe Illustrator 19.0.0, SVG Export Plug-In . SVG Version: 6.00 Build 0)  -->
<svg version="1.1" id="Capa_1" xmlns="http://www.w3.org/2000/svg" xmlns:xlink="http://www.w3.org/1999/xlink" x="0px" y="0px"
	 viewBox="0 0 511.999 511.999" style="enable-background:new 0 0 511.999 511.999;" xml:space="preserve">
<g>
	<g>
		<path d="M226.368,269.883L94.973,211.912c-4.969-2.19-10.565,1.453-10.565,6.887c0,4.95,0,167.089,0,171.197
			c0,5.441,3.217,10.376,8.195,12.573l127.689,56.336c0.972,0.429,2.007,0.64,3.038,0.64c1.438,0,2.869-0.411,4.111-1.221
			c2.132-1.39,3.417-3.762,3.417-6.306c0-4.368,0-170.31,0-175.248C230.857,273.787,229.097,271.087,226.368,269.883z
			 M215.801,440.469l-116.34-51.328V277.01l116.34,51.329V440.469z M215.801,311.884l-116.34-51.33v-30.206l116.34,51.329V311.884z"
			/>
	</g>
</g>
<g>
	<g>
		<path d="M258.072,79.639V62.855c6.389,0.478,8.583,3.529,11.253,3.529c3.529,0,5.054-4.387,5.054-6.58
			c0-5.532-10.109-7.343-16.307-7.534v-2.48c0-1.238-1.621-2.384-3.242-2.384c-1.813,0-3.242,1.145-3.242,2.384v2.671
			c-9.536,1.24-18.501,6.484-18.501,18.595c0,12.206,9.823,15.925,18.501,19.167V109.2c-8.391-0.953-11.253-7.152-14.877-7.152
			c-2.956,0-5.339,4.005-5.339,6.675c0,5.34,8.677,11.539,20.217,11.825v2.67c0,1.24,1.43,2.384,3.242,2.384
			c1.621,0,3.242-1.144,3.242-2.384v-2.956c10.681-1.717,18.023-8.488,18.023-20.217C276.095,87.077,266.558,82.786,258.072,79.639z
			 M252.35,77.541c-4.387-1.717-7.63-3.529-7.63-7.724c0-3.624,2.861-5.913,7.63-6.675V77.541z M257.309,109.106V92.513
			c4.101,1.813,7.153,4.101,7.153,8.774C264.462,105.769,261.505,108.247,257.309,109.106z"/>
	</g>
</g>
<g>
	<g>
		<path d="M452.735,310.667c-4.158,0-7.527,3.369-7.527,7.527v93.42c0,0.704-0.417,1.343-1.06,1.627l-180.622,79.688V246.986
			l47.118-20.788l134.563-59.369v116.238c0,4.158,3.369,7.527,7.527,7.527c4.158,0,7.527-3.369,7.527-7.527
			c0-4.347-0.001-129.424-0.001-127.798c0.001-2.998-1.812-5.713-4.523-6.892L345.944,100.63
			c5.206-48.647-28.152-91.047-72.89-100.459c-4.069-0.863-8.059,1.747-8.915,5.816c-0.857,4.068,1.747,8.059,5.816,8.915
			c57.266,12.051,81.593,82.111,42.081,126.932h-15.874c47.162-38.462,20.511-117.362-42.237-117.362
			c-62.067,0-89.831,77.768-42.007,117.362h-16.104c-39.238-44.521-15.478-114.845,42.111-126.938
			c4.069-0.854,6.674-4.845,5.82-8.913c-0.855-4.07-4.849-6.676-8.913-5.82c-46.04,9.667-78.858,53.633-72.733,102.188
			L56.262,148.378c-2.647,1.15-4.473,3.799-4.518,6.791c0,0.031-0.007,0.061-0.007,0.092c0,0.003,0.001,0.006,0.001,0.009
			s-0.001,0.007-0.001,0.01v256.334c0,6.666,3.94,12.71,10.037,15.4l191.187,84.352c1.872,0.824,4.108,0.867,6.078,0l191.188-84.351
			c6.096-2.692,10.035-8.736,10.035-15.4v-93.42C460.263,314.036,456.893,310.667,452.735,310.667z M253.925,39.525
			c22.535,0,42.169,14.443,48.855,35.94c13.709,44.071-33.015,80.842-72.172,60.74C182.796,111.63,200.613,39.525,253.925,39.525z
			 M66.79,411.614V166.829c5.127,2.261,177.523,78.322,181.681,80.157V492.93L67.85,413.24
			C67.206,412.957,66.79,412.318,66.79,411.614z M255.999,233.853L78.025,155.33l87.273-37.953
			c2.603,8.609,6.484,16.846,11.569,24.457h-4.337c-4.157,0-7.527,3.369-7.527,7.527c0,4.158,3.37,7.527,7.527,7.527
			c5.649,0,152.255,0,162.823,0c4.158,0,7.527-3.369,7.527-7.527c0-4.158-3.369-7.527-7.527-7.527h-4.371
			c5.399-8.081,9.437-16.871,12.034-26.06l90.96,39.557L255.999,233.853z"/>
	</g>
</g>
<g>
	<g>
		<path d="M196.681,349.946l-72.653-32.054c-3.805-1.675-8.247,0.046-9.925,3.849c-1.678,3.804,0.045,8.247,3.848,9.926
			l72.653,32.054c3.823,1.683,8.254-0.061,9.925-3.849C202.207,356.067,200.484,351.625,196.681,349.946z"/>
	</g>
</g>
<g>
	<g>
		<path d="M196.681,383.826l-72.653-32.055c-3.804-1.675-8.247,0.046-9.925,3.849c-1.678,3.804,0.045,8.247,3.848,9.925
			l72.653,32.054c3.806,1.68,8.248-0.046,9.925-3.848C202.207,389.946,200.484,385.504,196.681,383.826z"/>
	</g>
</g>
<g>
</g>
<g>
</g>
<g>
</g>
<g>
</g>
<g>
</g>
<g>
</g>
<g>
</g>
<g>
</g>
<g>
</g>
<g>
</g>
<g>
</g>
<g>
</g>
<g>
</g>
<g>
</g>
<g>
</g>
</svg>
