<?xml version="1.0" encoding="iso-8859-1"?>
<!-- Generator: Adobe Illustrator 19.0.0, SVG Export Plug-In . SVG Version: 6.00 Build 0)  -->
<svg version="1.1" id="Capa_1" xmlns="http://www.w3.org/2000/svg" xmlns:xlink="http://www.w3.org/1999/xlink" x="0px" y="0px"
	 viewBox="0 0 512 512" style="enable-background:new 0 0 512 512;" xml:space="preserve">
<g>
	<g>
		<path d="M256.255,171.014c-15.337-22.952-48.152-26.551-68.057-6.618c-8.361,8.371-12.959,19.486-12.948,31.298
			c0.047,45.128,39.39,79.768,76.194,97.14c3.075,1.451,6.674,1.472,9.796-0.01c36.771-17.448,76.046-52.171,76-97.297
			C337.192,152.357,281.375,134.452,256.255,171.014z M256.329,278.517c-32.198-15.616-66.017-45.316-66.056-82.839
			c-0.028-29.705,39.773-40.619,54.647-14.448c4.224,7.425,16.83,9.301,22.747-0.227c16.815-27.022,54.52-13.663,54.552,14.539
			C322.257,233.063,288.496,262.834,256.329,278.517z"/>
	</g>
</g>
<g>
	<g>
		<path d="M256.245,59.547c-85.712,0-155.443,69.733-155.443,155.445s69.732,155.444,155.443,155.444
			s155.443-69.733,155.443-155.444S341.957,59.547,256.245,59.547z M256.245,355.414c-77.429,0-140.422-62.993-140.422-140.423
			S178.817,74.569,256.245,74.569s140.422,62.993,140.422,140.423S333.674,355.414,256.245,355.414z"/>
	</g>
</g>
<g>
	<g>
		<path d="M463.03,232.697c-4.123-0.515-7.869,2.409-8.382,6.525c-7.421,59.555-40.848,112.127-91.71,144.236
			c-8.745,5.519-4.201,1.25-83.723,98.704c-20.765,20.683-26.99,18.13-44.398,1.586c-1.284-1.223-6.316-7.541-74.748-91.398
			c-2.632-3.227-5.735-5.963-9.223-8.133c-46.573-28.97-80.265-75.544-91.841-137.104c-19.668-119.005,68.083-222.74,180.34-232.115
			c4.134-0.346,7.206-3.976,6.86-8.11c-0.346-4.134-3.978-7.214-8.11-6.86C91.912,12.236-2.344,167.617,61.048,304.038
			c12.525,26.957,36.896,64.962,81.863,92.933c2.079,1.293,3.936,2.933,5.52,4.875c74.927,91.818,73.893,90.745,76.028,92.778
			c0.094,0.09,0.199,0.189,0.336,0.326c24.412,24.436,41.173,21.704,65.309-2.434c0.413-0.413,72.811-89.169,73.181-89.621
			c2.114-2.591,4.696-4.857,7.673-6.737c54.682-34.521,90.619-91.046,98.598-155.081
			C470.067,236.963,467.146,233.208,463.03,232.697z"/>
	</g>
</g>
<g>
	<g>
		<path d="M274.386,0.08c-4.133-0.346-7.761,2.735-8.1,6.871c-0.34,4.135,2.736,7.761,6.87,8.101
			c96.641,7.938,178.374,86.194,182.858,190.37c0.174,4.035,3.499,7.188,7.499,7.188c4.294,0,7.693-3.576,7.51-7.833
			C466.242,93.744,378.944,8.66,274.386,0.08z"/>
	</g>
</g>
<g>
</g>
<g>
</g>
<g>
</g>
<g>
</g>
<g>
</g>
<g>
</g>
<g>
</g>
<g>
</g>
<g>
</g>
<g>
</g>
<g>
</g>
<g>
</g>
<g>
</g>
<g>
</g>
<g>
</g>
</svg>
