<?xml version="1.0" encoding="iso-8859-1"?>
<!-- Generator: Adobe Illustrator 19.0.0, SVG Export Plug-In . SVG Version: 6.00 Build 0)  -->
<svg version="1.1" id="Capa_1" xmlns="http://www.w3.org/2000/svg" xmlns:xlink="http://www.w3.org/1999/xlink" x="0px" y="0px"
	 viewBox="0 0 512.001 512.001" style="enable-background:new 0 0 512.001 512.001;" xml:space="preserve">
<g>
	<g>
		<path d="M510.802,434.214L458.8,353.608l52.001-80.541c1.746-2.703,1.572-6.219-0.431-8.738l-25.716-32.332
			c-1.355-1.704-3.591-2.831-5.87-2.831h-62.702v-25.064h2.541c12.897,0,23.389-10.492,23.389-23.389v-5.339
			c0-4.143-3.358-7.5-7.5-7.5s-7.5,3.357-7.5,7.5v5.339c0,4.625-3.763,8.388-8.389,8.388c-4.283,0-113.846,0-119.925,0
			l-5.464-62.457c1.678,0,117.64,0,125.389,0c4.625,0,8.389,3.763,8.389,8.388v5.339c0,4.143,3.358,7.5,7.5,7.5s7.5-3.357,7.5-7.5
			v-5.339c0-12.897-10.493-23.389-23.389-23.389h-72.728c13.021-20.553,15.746-42.664-3.878-56.944
			c-26.089-18.984-63.113,8.736-85.968,31.325c-4.541-6.672-12.197-11.064-20.859-11.064h-28.366
			c-8.663,0-16.317,4.391-20.859,11.064c-22.838-22.571-59.872-50.313-85.968-31.325c-19.653,14.304-16.87,36.437-3.878,56.944
			H23.389C10.493,111.644,0,122.136,0,135.033v45.681c0,12.897,10.493,23.389,23.389,23.389h2.541v236.127
			c0,12.897,10.493,23.389,23.389,23.389h154.186c4.142,0,7.5-3.357,7.5-7.5s-3.358-7.5-7.5-7.5H49.319
			c-4.625,0-8.388-3.763-8.388-8.389V204.102h101.071l-9.255,105.785c-0.742,8.485,9.025,13.911,15.83,8.63l24.638-19.115
			l20.944,23.102c5.704,6.297,16.337,2.82,17.088-5.747v-0.001l9.76-111.551l9.76,111.551v0.001
			c0.74,8.448,11.275,12.163,17.087,5.748l20.944-23.103l24.638,19.114c6.771,5.256,16.576-0.103,15.83-8.629l-9.255-105.785
			h101.071v25.064h-26.65c-2.308,0-4.508,1.12-5.87,2.831l-25.715,32.332c-2.003,2.519-2.176,6.034-0.431,8.738l52.001,80.541
			l-52.002,80.608c-2.408,3.732-1.059,8.73,2.894,10.747l7.167,3.656h-113.97c-4.142,0-7.5,3.357-7.5,7.5c0,4.143,3.358,7.5,7.5,7.5
			h145.156c0.006,0,0.011,0.001,0.017,0.001c2.42,0,4.891-1.249,6.309-3.438l36.618-56.715l36.622,56.72
			c2.083,3.225,6.272,4.365,9.71,2.612l34.968-17.838C511.864,442.942,513.208,437.944,510.802,434.214z M260.406,103.046
			c14.58-15.891,53.177-50.491,72.783-36.217c4.845,3.525,7.44,7.723,7.936,12.831c1.101,11.355-8.14,25.255-13.664,31.984
			c-7.202,0-59.751,0-67.056,0V103.046z M100.884,79.687c0.489-5.121,3.085-9.327,7.938-12.858
			c19.606-14.272,58.204,20.325,72.783,36.218v8.598c-7.309,0-59.859,0-67.067,0C109.016,104.941,99.794,91.101,100.884,79.687z
			 M143.315,189.101c-6.137,0.001-115.7,0.001-119.925,0.001c-4.625,0-8.388-3.763-8.388-8.388v-45.681
			c0-4.625,3.763-8.388,8.388-8.388c6.815,0,122.431,0,125.39,0C145.356,165.775,144.176,179.261,143.315,189.101z M197.332,303.672
			l-16.217-17.888c-3.454-3.812-9.34-4.248-13.317-1.165l-19.077,14.801l15.116-172.774c10.085,0,38.921,0,48.983,0
			C212.216,133.549,197.936,296.771,197.332,303.672z M196.607,111.644v-11.468c0-5.633,4.583-10.216,10.217-10.216h28.366
			c5.633,0,10.216,4.582,10.216,10.216v11.468C238.189,111.644,203.822,111.644,196.607,111.644z M274.212,284.617
			c-4.034-3.13-9.886-2.618-13.316,1.166l-16.217,17.889c-0.605-6.91-14.884-170.127-15.488-177.028c10.063,0,38.899,0,48.983,0
			c0.414,4.733,14.717,168.212,15.116,172.774L274.212,284.617z M465.019,244.167l-11.181,17.331h-54.461l-11.181-17.331
			C396.275,244.167,455.371,244.167,465.019,244.167z M444.162,276.498l-17.554,27.21l-17.553-27.21H444.162z M357.939,269.452
			l15.857-19.937l43.887,68.027l-14.342,22.23L357.939,269.452z M381.058,446.359l-21.539-10.988L479.42,249.515l15.857,19.938
			L381.058,446.359z M472.158,446.359l-36.622-56.72l14.335-22.201l43.826,67.934L472.158,446.359z"/>
	</g>
</g>
<g>
</g>
<g>
</g>
<g>
</g>
<g>
</g>
<g>
</g>
<g>
</g>
<g>
</g>
<g>
</g>
<g>
</g>
<g>
</g>
<g>
</g>
<g>
</g>
<g>
</g>
<g>
</g>
<g>
</g>
</svg>
