<?xml version="1.0" encoding="iso-8859-1"?>
<!-- Generator: Adobe Illustrator 19.0.0, SVG Export Plug-In . SVG Version: 6.00 Build 0)  -->
<svg version="1.1" id="Capa_1" xmlns="http://www.w3.org/2000/svg" xmlns:xlink="http://www.w3.org/1999/xlink" x="0px" y="0px"
	 viewBox="0 0 511.999 511.999" style="enable-background:new 0 0 511.999 511.999;" xml:space="preserve">
<g>
	<g>
		<path d="M491.092,141.387c-0.078-0.021-0.156-0.041-0.234-0.06c-8.664-2.081-16.6-0.462-22.986,4.3
			c-18.442-17.609-49.615-3.399-47.743,22.578l4.321,59.942c0.176,2.448,0.672,4.837,1.466,7.141l-0.952,2.286
			c-7.039-4.252-16.758-5.92-27.561,0.111c-47.397,26.445-54.276,29.164-63.376,40.013c-0.031,0.037-0.062,0.075-0.092,0.112
			c-24.264,30.09-29.602,37.209-35.399,58.728c-4.22,15.665-7.199,32.034-8.884,48.758L285.59,385
			c-8.764-0.624-16.304,5.924-16.941,14.631l-5.957,81.287c-0.673,9.217,6.639,17.086,15.882,17.086h109.928
			c8.359,0,15.386-6.53,15.996-14.867l1.51-20.616c0.303-4.13-2.8-7.723-6.93-8.024c-4.135-0.296-7.724,2.801-8.024,6.93
			l-1.51,20.616c-0.04,0.543-0.498,0.968-1.043,0.968h-109.93c-0.269,0-0.498-0.1-0.681-0.297c-0.184-0.196-0.267-0.433-0.247-0.7
			l5.957-81.286c0.017-0.229,0.112-0.421,0.286-0.57c0.174-0.149,0.386-0.209,0.606-0.201c11.421,0.837,90.875,6.658,109.638,8.032
			c0.459,0.034,0.805,0.435,0.771,0.894l-1.286,17.558c-0.303,4.13,2.8,7.723,6.93,8.025c4.111,0.288,7.724-2.8,8.025-6.931
			l1.285-17.557c0.64-8.704-5.923-16.305-14.629-16.943l-3.787-0.278c0.434-5.931,0.384-14.299,7.277-23.34
			c8.607-11.285,9.976-10.689,53.278-34.86c0.105-0.058,0.208-0.119,0.311-0.183c6.483-4.038,22.023-15.719,26.628-37.096
			c0.087-0.32,32.176-118.301,32.244-118.626C513.533,167.502,511.951,147.105,491.092,141.387z M458.326,157.315
			c-1.602,3.132,1.551-3.641-20.407,49.128l-2.835-39.315C434.173,154.479,449.935,147.815,458.326,157.315z M496.548,175.362
			l-32.134,118.172c-0.015,0.053-0.028,0.105-0.041,0.158c-0.022,0.091-0.044,0.183-0.063,0.274
			c-3.208,15.178-13.704,23.77-19.782,27.589c-43.345,24.179-46.998,24.696-57.732,38.77c-9.54,12.509-9.789,24.258-10.309,31.337
			c-11.613-0.851-65.013-4.763-71.877-5.266c1.609-15.775,4.43-31.2,8.405-45.955c4.885-18.137,8.268-23.051,32.548-53.158
			c7.065-8.405,13.124-10.817,59.149-36.503c9.708-5.419,15.26,1.44,16.688,3.607c0.013,0.021,0.029,0.038,0.043,0.058
			c0.027,0.042,0.049,0.085,0.078,0.126c1.692,2.602,3.703,7.596-1.86,11.813c-12.128,9.192-40.902,31.18-41.191,31.402
			c-3.29,2.514-3.92,7.219-1.404,10.509c2.516,3.292,7.222,3.918,10.509,1.404c0.289-0.221,29.042-22.191,41.144-31.366
			c11.189-8.481,10.826-20.38,7.325-28.347c34.909-83.892,33.684-81.084,33.684-81.084c2.906-9.009,8.185-15.204,17.518-13.023
			C499.031,159.2,497.168,172.266,496.548,175.362z"/>
	</g>
</g>
<g>
	<g>
		<path d="M370.832,73.923H339.42c-30.514,0-57.296,16.279-72.12,40.608C255.209,57.179,204.215,13.993,143.318,13.993h-40.245
			c-7.75,0-14.055,6.305-14.055,14.055v43.077c0,69.866,56.839,126.704,126.704,126.704c9.048,0,75.303,0,84.483,0
			c46.535,0,84.394-37.859,84.394-84.393V87.69C384.599,80.098,378.423,73.923,370.832,73.923z M255.028,171.988L136.096,50.809
			c-2.901-2.955-7.648-2.997-10.602-0.099c-2.955,2.9-2.999,7.646-0.099,10.602l119.267,121.522h-28.938
			c-61.597,0-111.71-50.113-111.71-111.71V28.988h39.304c61.597,0,111.71,50.113,111.71,111.71
			C255.028,152.552,255.028,160.146,255.028,171.988z M369.605,113.435c0,38.266-31.133,69.398-69.399,69.398h-18.965l69.301-66.136
			c2.996-2.858,3.106-7.604,0.248-10.6c-2.857-2.994-7.603-3.106-10.6-0.248l-70.167,66.963v-14.499
			c0-38.265,31.132-69.397,69.397-69.397h30.185V113.435z"/>
	</g>
</g>
<g>
	<g>
		<path d="M249.47,480.918l-5.955-81.286c-0.31-4.217-2.241-8.061-5.441-10.825c-5.566-4.802-11.042-3.839-15.563-3.508
			c-1.684-16.725-4.664-33.094-8.885-48.758c-5.797-21.52-11.136-28.64-35.401-58.729c-0.03-0.037-0.061-0.074-0.091-0.111
			c-9.12-10.873-16.039-13.596-63.375-40.014c-10.806-6.032-20.521-4.363-27.561-0.111l-0.952-2.286
			c1.609-4.675,1.046-1.325,5.787-67.084c1.856-25.76-29.13-40.346-47.743-22.576C26.446,132.324-6.058,145.3,0.982,178.653
			c0.068,0.325,32.157,118.306,32.244,118.626c4.604,21.377,20.145,33.058,26.628,37.096c0.806,0.499,17.806,9.88,18.636,10.338
			c25.714,14.185,27.813,15.344,34.952,24.705c6.856,8.99,6.833,17.267,7.277,23.34l-3.788,0.278
			c-8.705,0.639-15.266,8.239-14.628,16.942l5.359,73.162c0.61,8.337,7.637,14.867,15.996,14.867h34.734
			c4.141,0,7.497-3.356,7.497-7.497c0-4.141-3.356-7.497-7.497-7.497h-34.734c-0.545,0-1.003-0.425-1.043-0.968
			c-5.676-77.484-5.803-73.963-4.589-74.054c115.783-8.482,110.454-8.261,110.531-7.261l5.955,81.285
			c0.021,0.269-0.063,0.505-0.246,0.701c-0.183,0.197-0.412,0.297-0.681,0.297h-40.208c-4.141,0-7.497,3.356-7.497,7.497
			s3.356,7.497,7.497,7.497h40.208C242.831,498.005,250.145,490.138,249.47,480.918z M77.077,167.128l-2.835,39.315
			c-22.465-53.986-18.742-45.875-20.407-49.128C62.247,147.796,77.986,154.513,77.077,167.128z M135.676,391.664
			c-0.452-6.158-0.485-18.454-10.309-31.337c-10.735-14.077-14.386-14.594-57.733-38.773c-6.078-3.818-16.574-12.411-19.782-27.589
			c-0.02-0.092-0.041-0.184-0.063-0.274c-0.013-0.053-0.026-0.105-0.041-0.158L15.613,175.362
			c-0.62-3.096-2.483-16.162,9.306-19.481c6.075-1.417,10.479,0.551,13.941,5.554c1.781,2.573-1.218-3.916,37.261,88.554
			c-3.501,7.966-3.864,19.866,7.325,28.346c12.103,9.175,40.855,31.146,41.144,31.367c1.359,1.039,2.959,1.541,4.546,1.54
			c2.256,0,4.487-1.015,5.963-2.945c2.515-3.29,1.885-7.995-1.404-10.509c-0.289-0.222-29.064-22.21-41.191-31.403
			c-7.091-5.374-2.546-12.999,2.761-16.165c3.688-2.197,7.56-2.02,12.187,0.562c46.026,25.686,52.084,28.098,59.152,36.504
			c24.274,30.103,27.66,35.021,32.545,53.158c3.976,14.755,6.796,30.178,8.405,45.954L135.676,391.664z"/>
	</g>
</g>
<g>
</g>
<g>
</g>
<g>
</g>
<g>
</g>
<g>
</g>
<g>
</g>
<g>
</g>
<g>
</g>
<g>
</g>
<g>
</g>
<g>
</g>
<g>
</g>
<g>
</g>
<g>
</g>
<g>
</g>
</svg>
