<?xml version="1.0" encoding="iso-8859-1"?>
<!-- Generator: Adobe Illustrator 19.0.0, SVG Export Plug-In . SVG Version: 6.00 Build 0)  -->
<svg version="1.1" id="Capa_1" xmlns="http://www.w3.org/2000/svg" xmlns:xlink="http://www.w3.org/1999/xlink" x="0px" y="0px"
	 viewBox="0 0 512 512" style="enable-background:new 0 0 512 512;" xml:space="preserve">
<g>
	<g>
		<path d="M176.768,288.232c-50.754,0-91.681,41.313-91.681,91.681c0,50.372,40.895,91.681,91.681,91.681
			c50.752,0,91.681-41.312,91.681-91.681C268.449,329.161,227.138,288.232,176.768,288.232z M117.53,331.282l41.13,41.13h-58.2
			C101.975,356.889,108.132,342.708,117.53,331.282z M100.461,387.413h58.2l-41.13,41.13
			C108.132,417.117,101.975,402.936,100.461,387.413z M169.268,456.221c-15.523-1.514-29.705-7.672-41.132-17.069l41.132-41.132
			V456.221z M169.268,361.805l-41.132-41.13c11.426-9.398,25.608-15.555,41.132-17.069V361.805z M253.076,372.413h-58.2l41.13-41.13
			C245.403,342.708,251.562,356.89,253.076,372.413z M184.269,303.604c15.523,1.514,29.705,7.672,41.13,17.069l-41.13,41.13V303.604
			z M184.269,456.221v-58.2l41.13,41.13C213.973,448.548,199.792,454.707,184.269,456.221z M236.007,428.544l-41.13-41.13h58.2
			C251.562,402.936,245.404,417.118,236.007,428.544z"/>
	</g>
</g>
<g>
	<g>
		<path d="M427.658,457.97c-4.546-0.917-8.961,2.571-8.961,7.359c0,4.097,3.32,7.5,7.5,7.5c4.086,0,7.5-3.336,7.5-7.5
			C433.699,461.922,431.368,458.739,427.658,457.97z"/>
	</g>
</g>
<g>
	<g>
		<path d="M426.196,433.656c12.047,0,22.9,6.718,28.325,17.534c1.857,3.701,6.364,5.198,10.068,3.341
			c3.702-1.857,5.198-6.364,3.341-10.068c-6.842-13.639-19.563-22.845-34.233-25.205V402.4h16.348
			c12.586,0,22.824-10.239,22.824-22.824c0-12.585-10.239-22.823-22.824-22.823h-72.498c0-6.442,0-146.48,0-152.514h6.931
			c12.586,0,22.824-10.239,22.824-22.824s-10.239-22.824-22.824-22.824h-44.259c-4.143,0-7.5,3.357-7.5,7.5s3.357,7.5,7.5,7.5
			h44.259c4.313,0,7.823,3.51,7.823,7.823s-3.51,7.823-7.823,7.823c-5.869,0-119.022,0-123.521,0c-4.313,0-7.822-3.51-7.822-7.823
			s3.509-7.823,7.822-7.823h44.26c4.143,0,7.5-3.357,7.5-7.5s-3.357-7.5-7.5-7.5h-44.26c-12.585,0-22.823,10.239-22.823,22.824
			c0,2.747,0.488,5.382,1.382,7.823h-21.799V76.865c0-13.048-10.616-23.663-23.663-23.663h-9.785v-6.529
			c0-11.748-9.558-21.306-21.306-21.306h-22.131c0-4.402,0-8.208,0-17.865c0-4.143-3.358-7.5-7.5-7.5c-4.142,0-7.5,3.357-7.5,7.5
			v2.542H61.955c-12.585,0-22.824,10.239-22.824,22.823c0,12.586,10.239,22.824,22.824,22.824h63.875v2.317
			c0,4.143,3.358,7.5,7.5,7.5c4.142,0,7.5-3.357,7.5-7.5c0-6.599,0-10.897,0-17.642h22.131c3.477,0,6.305,2.828,6.305,6.305
			c0,3.095,0,196.713,0,201.371c-69.356,3.903-124.586,61.555-124.586,131.871C44.681,452.746,103.935,512,176.768,512
			c65.169,0,119.457-47.441,130.164-109.6h111.764v16.866c-22.18,3.599-39.171,22.879-39.171,46.061
			c0,25.736,20.937,46.673,46.672,46.673c17.756,0,33.747-9.89,41.734-25.808c1.857-3.702,0.361-8.211-3.341-10.068
			c-3.7-1.854-8.209-0.362-10.068,3.341c-5.425,10.815-16.278,17.533-28.325,17.533c-17.463,0-31.671-14.208-31.671-31.672
			C394.525,447.864,408.733,433.656,426.196,433.656z M125.83,40.691H61.955V40.69c-4.313,0-7.823-3.51-7.823-7.823
			c0-4.313,3.509-7.823,7.823-7.823h63.875V40.691z M184.27,68.202h9.784c4.776,0,8.663,3.886,8.663,8.663v112.372H184.27V68.202z
			 M184.269,204.238c6.665,0,170.527,0,178.277,0v43.588H184.269V204.238z M176.768,496.999
			c-64.562,0-117.086-52.524-117.086-117.086s52.524-117.086,117.086-117.086c63.986,0,117.086,51.922,117.086,117.086
			C293.854,444.254,241.527,496.999,176.768,496.999z M306.82,356.753c-7.316-40.895-33.236-75.209-68.969-93.926h124.694v93.926
			H306.82z M308.64,387.398c0.275-4.752,0.303-10.145-0.037-15.646c7.707,0,133.945,0,141.442,0c4.313,0,7.823,3.509,7.823,7.823
			c0,4.313-3.51,7.823-7.823,7.823H308.64z"/>
	</g>
</g>
<g>
</g>
<g>
</g>
<g>
</g>
<g>
</g>
<g>
</g>
<g>
</g>
<g>
</g>
<g>
</g>
<g>
</g>
<g>
</g>
<g>
</g>
<g>
</g>
<g>
</g>
<g>
</g>
<g>
</g>
</svg>
