<?xml version="1.0" encoding="iso-8859-1"?>
<!-- Generator: Adobe Illustrator 19.0.0, SVG Export Plug-In . SVG Version: 6.00 Build 0)  -->
<svg version="1.1" id="Capa_1" xmlns="http://www.w3.org/2000/svg" xmlns:xlink="http://www.w3.org/1999/xlink" x="0px" y="0px"
	 viewBox="0 0 512 512" style="enable-background:new 0 0 512 512;" xml:space="preserve">
<g>
	<g>
		<path d="M316.062,290.692h-12.168v-12.168c0-11.132-9.058-20.189-20.189-20.189c-11.133,0-20.189,9.058-20.189,20.189v12.168
			h-12.168c-11.133,0-20.189,9.058-20.189,20.189s9.058,20.189,20.189,20.189h12.168v12.168c0,11.134,9.058,20.19,20.189,20.19
			c11.132,0,20.189-9.058,20.189-20.19V331.07h12.168c11.133,0,20.189-9.058,20.189-20.189S327.194,290.692,316.062,290.692z
			 M316.062,316.07h-19.668c-4.142,0-7.5,3.357-7.5,7.5v19.668c0,2.861-2.328,5.189-5.188,5.189s-5.188-2.328-5.188-5.189v-19.668
			c0-4.143-3.358-7.5-7.5-7.5h-19.668c-2.861,0-5.188-2.327-5.188-5.188c0-2.861,2.328-5.188,5.188-5.188h19.668
			c4.142,0,7.5-3.357,7.5-7.5v-19.668c0-2.861,2.328-5.188,5.188-5.188s5.188,2.327,5.188,5.188v19.668c0,4.143,3.358,7.5,7.5,7.5
			h19.668c2.861,0,5.188,2.327,5.188,5.188C321.25,313.743,318.922,316.07,316.062,316.07z"/>
	</g>
</g>
<g>
	<g>
		<path d="M302.632,213.696c-4.063-0.786-8.003,1.871-8.791,5.937c-0.788,4.067,1.871,8.002,5.937,8.791
			c39.359,7.624,67.927,42.304,67.927,82.459c0,46.318-37.683,84.001-84.001,84.001c-46.318,0-84.001-37.683-84.001-84.001
			c0-40.155,28.567-74.835,67.926-82.459c4.066-0.788,6.725-4.723,5.937-8.791c-0.788-4.067-4.728-6.723-8.791-5.937
			c-46.399,8.988-80.074,49.861-80.074,97.187c0,54.59,44.413,99.002,99.002,99.002c54.589,0,99.002-44.412,99.002-99.002
			C382.707,263.558,349.031,222.684,302.632,213.696z"/>
	</g>
</g>
<g>
	<g>
		<path d="M504.5,300.881c4.142,0,7.5-3.357,7.5-7.5v-94.8c0-24.076-19.588-43.665-43.666-43.665h-62.079v-22.531
			c0-32.123-26.135-58.258-58.258-58.258h-14.381h-99.823h-14.381c-32.124,0-58.258,26.135-58.258,58.258v22.531h-49.427
			L91.32,119.884c-2.705-4.643-7.558-7.65-12.871-8.059V52.654c0-4.143-3.358-7.5-7.5-7.5c-4.142,0-7.5,3.357-7.5,7.5v59.194
			c-5.368,0.484-10.256,3.548-12.997,8.252l-39.702,68.15c-0.013,0.021-0.021,0.045-0.033,0.066
			c-0.649,1.136-0.983,2.442-0.986,3.697c0,0.004-0.001,0.008-0.001,0.012v165.074H7.5c-4.142,0-7.5,3.357-7.5,7.5
			s3.358,7.5,7.5,7.5c15.136,0,17.189,0,40.187,0v45.908H30.563c-11.488,0-20.834,9.347-20.834,20.834v7.17
			c0,11.488,9.347,20.834,20.834,20.834c5.997,0,428.886,0,437.771,0c24.077,0,43.666-19.588,43.666-43.665v-94.8
			c0-4.143-3.358-7.5-7.5-7.5c-4.142,0-7.5,3.357-7.5,7.5v94.8c0,15.806-12.859,28.664-28.665,28.664H131.319
			c0.542-1.853,0.847-3.807,0.847-5.833v-7.17c0-11.488-9.347-20.834-20.834-20.834h-3.584H94.207v-45.908
			c15.15,0,24.437,0,39.764,0c4.142,0,7.5-3.357,7.5-7.5s-3.358-7.5-7.5-7.5h-1.805V192.026c0-0.004-0.001-0.008-0.001-0.012
			c0-0.025-0.003-0.049-0.004-0.074c-0.014-1.213-0.336-2.491-0.982-3.623c-0.012-0.022-0.021-0.045-0.033-0.066l-10.68-18.332
			c12.631,0,336.921,0,347.868,0c15.806,0,28.665,12.858,28.665,28.664v94.8C496.999,297.524,500.357,300.881,504.5,300.881z
			 M63.412,127.651c0.315-0.541,0.899-0.877,1.525-0.877h12.268c0.472,0,0.914,0.254,1.151,0.662
			c3.951,6.782,29.364,50.404,33.258,57.089H30.279L63.412,127.651z M107.747,433.009c5.193,0,9.419,4.225,9.419,9.419
			c0,5.193-4.225,9.419-9.419,9.419H30.563c-3.216,0-5.833-2.616-5.833-5.833v-7.17c0-3.217,2.617-5.833,5.833-5.833
			C32.632,433.009,105.69,433.009,107.747,433.009z M62.689,418.008v-45.908h16.517v45.908H62.689z M117.165,357.1
			c-9.869,0-82.752,0-92.436,0v-30.839h20.416c4.142,0,7.5-3.357,7.5-7.5s-3.358-7.5-7.5-7.5H24.729v-25.447h20.416
			c4.142,0,7.5-3.357,7.5-7.5s-3.358-7.5-7.5-7.5H24.729v-25.446h20.416c4.142,0,7.5-3.357,7.5-7.5c0-4.143-3.358-7.5-7.5-7.5
			H24.729v-30.84h92.436V357.1z M241.295,89.128h84.822v10.378h-84.822V89.128z M186.533,132.385v22.531h-10.378v-22.531
			c0-23.852,19.405-43.257,43.257-43.257h6.88v10.378h-6.88C201.283,99.506,186.533,114.256,186.533,132.385z M201.534,154.916
			v-22.531c0-9.858,8.021-17.878,17.878-17.878h14.381h99.823h14.381c9.858,0,17.878,8.021,17.878,17.878v22.531H201.534z
			 M391.255,154.916h-10.378v-22.531c0-18.129-14.75-32.879-32.879-32.879h-6.88V89.128h6.88c23.852,0,43.257,19.404,43.257,43.257
			V154.916z"/>
	</g>
</g>
<g>
</g>
<g>
</g>
<g>
</g>
<g>
</g>
<g>
</g>
<g>
</g>
<g>
</g>
<g>
</g>
<g>
</g>
<g>
</g>
<g>
</g>
<g>
</g>
<g>
</g>
<g>
</g>
<g>
</g>
</svg>
