<?xml version="1.0" encoding="iso-8859-1"?>
<!-- Generator: Adobe Illustrator 19.0.0, SVG Export Plug-In . SVG Version: 6.00 Build 0)  -->
<svg version="1.1" id="Capa_1" xmlns="http://www.w3.org/2000/svg" xmlns:xlink="http://www.w3.org/1999/xlink" x="0px" y="0px"
	 viewBox="0 0 511.999 511.999" style="enable-background:new 0 0 511.999 511.999;" xml:space="preserve">
<g>
	<g>
		<path d="M249.257,217.795h-11.634V206.16c0-10.941-8.902-19.845-19.845-19.845c-10.943,0-19.846,8.902-19.846,19.845v11.635
			h-11.634c-10.943,0-19.846,8.902-19.846,19.845c0,10.942,8.902,19.846,19.846,19.846h11.634v11.635
			c0,10.942,8.902,19.846,19.846,19.846s19.845-8.902,19.845-19.846v-11.635h11.634c10.943,0,19.846-8.902,19.846-19.846
			C269.103,226.699,260.201,217.795,249.257,217.795z M249.257,242.485h-19.135c-4.142,0-7.5,3.357-7.5,7.5v19.135
			c0,2.672-2.173,4.845-4.844,4.845c-2.671,0-4.845-2.173-4.845-4.845v-19.135c0-4.143-3.358-7.5-7.5-7.5h-19.135
			c-2.671,0-4.845-2.174-4.845-4.845s2.173-4.844,4.845-4.844h19.135c4.143,0,7.5-3.357,7.5-7.5v-19.136
			c0-2.671,2.173-4.844,4.845-4.844c2.671,0,4.844,2.173,4.844,4.844v19.136c0,4.143,3.358,7.5,7.5,7.5h19.135
			c2.671,0,4.845,2.173,4.845,4.844C254.102,240.31,251.929,242.485,249.257,242.485z"/>
	</g>
</g>
<g>
	<g>
		<path d="M432.477,63.02c-3.942-1.265-8.167,0.906-9.433,4.851c-9.749,30.39-40.835,54.615-67.218,67.463
			c-61.652-29.726-85.789-86.647-61.51-110.962c14.751-14.773,39.472-11.435,49.789,6.719c4.135,7.268,17.071,9.836,23.354-0.258
			c16.018-25.745,50.108-17.704,57.538,6.526c1.214,3.96,5.409,6.186,9.369,4.972c3.96-1.215,6.186-5.409,4.972-9.37
			c-11.031-35.971-60.388-46.365-83.608-11.616c-21.751-33.65-73.972-25.814-84.168,13.609H131.543
			c-32.651,0-59.215,26.564-59.215,59.216c0,9.907,0,252.336,0,266.253c0,32.651,26.564,59.216,59.215,59.216h34.292v12.438
			c0,12.305,10.01,22.314,22.314,22.314h22.128v50.109c0,4.143,3.358,7.5,7.5,7.5c4.142,0,7.5-3.357,7.5-7.5v-50.11h22.127
			c12.305,0,22.314-10.01,22.314-22.314v-12.438h34.291c32.651,0,59.215-26.564,59.215-59.216c0-8.907,0-203.143,0-212.015
			c29.016-14.336,63.018-41.408,74.101-75.954C438.592,68.508,436.421,64.285,432.477,63.02z M254.72,432.075L254.72,432.075
			c-0.001,4.032-3.282,7.313-7.314,7.313h-59.255c-4.033,0-7.313-3.281-7.313-7.313v-12.438h73.883V432.075z M348.226,360.422
			c0,24.38-19.835,44.215-44.215,44.215c-2.721,0-171.226,0-172.468,0c-24.38,0-44.214-19.835-44.214-44.215v-14.67h260.897V360.422
			z M348.226,330.751H87.329v-30.367h17.19c4.142,0,7.5-3.357,7.5-7.5s-3.358-7.5-7.5-7.5h-17.19V245.14h17.19
			c4.142,0,7.5-3.357,7.5-7.5c0-4.143-3.358-7.5-7.5-7.5h-17.19v-40.243h17.19c4.142,0,7.5-3.357,7.5-7.5s-3.358-7.5-7.5-7.5h-17.19
			v-32.836h112.948c4.142,0,7.5-3.357,7.5-7.5s-3.358-7.5-7.5-7.5H87.329v-32.89c0-24.38,19.834-44.215,44.214-44.215h138.483
			c0.797,30.006,20.63,57.94,44.449,77.105h-79.196c-4.142,0-7.5,3.357-7.5,7.5s3.358,7.5,7.5,7.5h101.2
			c3.963,2.288,8.338,4.602,11.748,6.271V330.751z"/>
	</g>
</g>
<g>
</g>
<g>
</g>
<g>
</g>
<g>
</g>
<g>
</g>
<g>
</g>
<g>
</g>
<g>
</g>
<g>
</g>
<g>
</g>
<g>
</g>
<g>
</g>
<g>
</g>
<g>
</g>
<g>
</g>
</svg>
