<?xml version="1.0" encoding="iso-8859-1"?>
<!-- Generator: Adobe Illustrator 19.0.0, SVG Export Plug-In . SVG Version: 6.00 Build 0)  -->
<svg version="1.1" id="Capa_1" xmlns="http://www.w3.org/2000/svg" xmlns:xlink="http://www.w3.org/1999/xlink" x="0px" y="0px"
	 viewBox="0 0 512.001 512.001" style="enable-background:new 0 0 512.001 512.001;" xml:space="preserve">
<g>
	<g>
		<path d="M510.803,413.085l-60.118-93.184l60.115-93.108c1.745-2.703,1.572-6.219-0.431-8.738l-29.534-37.134
			c-1.366-1.718-3.597-2.831-5.87-2.831h-80.846l42.889-61.997c9.866-14.25,6.322-33.787-7.945-43.65
			c-14.247-9.862-33.784-6.32-43.65,7.95l-97.898,141.514c-2.987,4.021-14.133,16.652-36.011,16.652h-60.434
			c-21.862,0-33.02-12.632-36.012-16.655L57.16,80.393c-9.861-14.26-29.385-17.818-43.65-7.952
			c-14.223,9.841-17.789,29.42-7.95,43.649l120.097,173.599c1.46,2.482,18.935,32.937,18.935,67.095v71.299
			c0,9.406,7.653,17.058,17.059,17.058h42.135c4.143,0,7.501-3.357,7.501-7.501s-3.357-7.501-7.501-7.501h-42.135
			c-1.135,0-2.058-0.923-2.058-2.057v-71.299c0-32.486-15.026-66.16-21.454-75.419L17.897,107.557
			c-5.134-7.425-3.273-17.643,4.148-22.778c7.421-5.135,17.618-3.31,22.776,4.148l97.967,141.611
			c0.043,0.063,0.087,0.124,0.132,0.185c3.95,5.357,19.1,22.838,48.148,22.838h60.434c22.116,0,40.124-11.074,48.28-23.023
			l97.966-141.612c5.095-7.372,15.273-9.34,22.778-4.146c7.42,5.129,9.308,15.318,4.144,22.776l-48.794,70.534H355.11
			c-2.192,0-4.426,1.015-5.87,2.832l-29.534,37.133c-2.003,2.519-2.176,6.035-0.431,8.738l11.06,17.131l-25.899,37.44
			c-0.082,0.118-0.161,0.24-0.236,0.363c-0.866,1.421-21.219,35.271-21.219,75.056v71.37c0,1.095-0.891,1.985-1.985,1.985h-42.207
			c-4.143,0-7.501,3.357-7.501,7.501c0,4.143,3.357,7.501,7.501,7.501h42.207c9.367,0,16.986-7.62,16.986-16.986v-71.37
			c0-34.18,17.497-64.651,18.936-67.094l22.225-32.128L379.39,319.9l-60.116,93.185c-1.149,1.782-1.491,3.968-0.939,6.016
			c0.552,2.048,1.944,3.767,3.834,4.73l40.162,20.488c3.437,1.752,7.627,0.613,9.71-2.612l42.997-66.596l42.998,66.596
			c2.083,3.225,6.273,4.365,9.71,2.612l40.162-20.488C511.865,421.814,513.208,416.815,510.803,413.085z M461.198,193.091
			c-2.773,4.298-10.982,17.022-14.278,22.133h-63.764l-14.278-22.133C383.431,193.091,452.364,193.091,461.198,193.091z
			 M437.242,230.225l-22.205,34.419l-22.205-34.419H437.242z M334.797,223.179l19.677-24.739c3.297,5.11,45.872,71.103,51.637,80.04
			l-17.797,27.587L334.797,223.179z M363.113,427.88l-26.733-13.638c9.688-15.016,133.876-207.516,139.222-215.802l19.677,24.739
			C489.297,232.442,371.677,414.616,363.113,427.88z M466.962,427.88l-42.997-66.596l17.789-27.553l51.941,80.511L466.962,427.88z"
			/>
	</g>
</g>
<g>
	<g>
		<path d="M282.666,151.115c-3.977-1.171-8.145,1.1-9.315,5.072c-6.756,22.907-28.164,38.906-52.064,38.906
			c-29.935,0-54.289-24.353-54.289-54.286c0-29.933,24.354-54.287,54.289-54.287c23.898,0,45.308,15.999,52.064,38.906
			c1.171,3.973,5.339,6.245,9.316,5.072c3.973-1.172,6.244-5.343,5.071-9.316c-8.624-29.241-35.95-49.664-66.452-49.664
			c-38.206,0-69.29,31.083-69.29,69.288c0,38.205,31.084,69.287,69.29,69.287c30.503,0,57.829-20.423,66.452-49.664
			C288.911,156.458,286.639,152.286,282.666,151.115z"/>
	</g>
</g>
<g>
</g>
<g>
</g>
<g>
</g>
<g>
</g>
<g>
</g>
<g>
</g>
<g>
</g>
<g>
</g>
<g>
</g>
<g>
</g>
<g>
</g>
<g>
</g>
<g>
</g>
<g>
</g>
<g>
</g>
</svg>
