<?xml version="1.0" encoding="iso-8859-1"?>
<!-- Generator: Adobe Illustrator 19.0.0, SVG Export Plug-In . SVG Version: 6.00 Build 0)  -->
<svg version="1.1" id="Capa_1" xmlns="http://www.w3.org/2000/svg" xmlns:xlink="http://www.w3.org/1999/xlink" x="0px" y="0px"
	 viewBox="0 0 512 512" style="enable-background:new 0 0 512 512;" xml:space="preserve">
<g>
	<g>
		<path d="M439.675,76.637L380.975,2.832C379.622,1.131,377.394,0,375.104,0h-93.262c-4.143,0-7.501,3.358-7.501,7.5
			s3.357,7.5,7.501,7.5h79.497l-6.348,9.841H157.009l-6.348-9.841h96.179c4.143,0,7.5-3.358,7.5-7.5s-3.357-7.5-7.5-7.5H136.896
			c-2.179,0-4.421,1.012-5.87,2.832c-6.605,8.305-52.053,65.447-58.701,73.805c-2.003,2.518-2.176,6.033-0.431,8.738
			l122.072,189.068L75.838,457.548c-5.017,7.776,1.341,17.878,10.518,16.712c9.869-1.245,37.617-4.746,47.6-6.005l6.354,15.973
			l7.94,19.959c3.42,8.595,15.143,9.769,20.177,1.97l87.572-135.634l88.068,136.401c4.784,7.415,15.899,6.536,19.467-1.526
			c9.34-21.101,7.357-16.622,16.441-37.146l47.61,6.229c8.389,1.097,14.234-8.166,9.654-15.26l-52.914-82.021
			c-2.245-3.48-6.888-4.481-10.369-2.236c-3.481,2.246-4.482,6.887-2.237,10.369l47.004,72.859l-12.569-1.645L303.348,297.189
			l5.756-8.916l43.63,67.63c2.246,3.48,6.89,4.482,10.369,2.236c3.481-2.246,4.482-6.887,2.237-10.369l-47.306-73.328
			L440.106,85.375C441.852,82.67,441.679,79.155,439.675,76.637z M345.313,39.843l-5.884,9.122H172.571
			c-2.527-3.917-1.685-2.612-5.884-9.122H345.313z M188.597,73.805l-6.348-9.841H329.75l-6.347,9.841H188.597z M313.725,88.806
			L256,178.284l-57.726-89.478H313.725z M136.259,20.35l2.442,3.785l108.371,167.985l-5.754,8.92L129.905,28.34L136.259,20.35z
			 M120.048,40.733l112.344,174.143l-15.185,23.539L103.279,61.817L120.048,40.733z M87.417,81.76l6.005-7.551l114.86,178.041
			l-5.391,8.358L87.417,81.76z M93.221,458.274L375.741,20.35l6.55,8.236L106.136,456.645L93.221,458.274z M148.868,465.158
			l-3.12-7.844c-1.146-2.881-3.927-4.728-6.965-4.728c-0.312,0-0.627,0.02-0.943,0.06l-12.27,1.548L392.147,40.98l16.77,21.084
			L148.868,465.158z M352.746,492.71l-87.818-136.014l5.369-8.317l86.788,134.528L352.746,492.71z M386.658,453.997l-10.296-1.347
			c-3.309-0.432-6.485,1.36-7.833,4.401l-4.18,9.444l-85.122-131.947l10.201-15.8l4.99-7.729L386.658,453.997z M159.61,492.159
			l-3.932-9.885L418.774,74.456l5.81,7.305C416.099,94.903,166.003,482.256,159.61,492.159z"/>
	</g>
</g>
<g>
</g>
<g>
</g>
<g>
</g>
<g>
</g>
<g>
</g>
<g>
</g>
<g>
</g>
<g>
</g>
<g>
</g>
<g>
</g>
<g>
</g>
<g>
</g>
<g>
</g>
<g>
</g>
<g>
</g>
</svg>
