<?xml version="1.0" encoding="iso-8859-1"?>
<!-- Generator: Adobe Illustrator 19.0.0, SVG Export Plug-In . SVG Version: 6.00 Build 0)  -->
<svg version="1.1" id="Capa_1" xmlns="http://www.w3.org/2000/svg" xmlns:xlink="http://www.w3.org/1999/xlink" x="0px" y="0px"
	 viewBox="0 0 512.001 512.001" style="enable-background:new 0 0 512.001 512.001;" xml:space="preserve">
<g>
	<g>
		<path d="M459.703,222.252c0-87.776-50.941-162.415-119.537-174.22c-4.07-0.698-7.961,2.037-8.664,6.12
			c-0.702,4.082,2.037,7.962,6.12,8.664c61.045,10.506,107.079,79.047,107.079,159.436c0,88.683-55.317,160.831-123.309,160.831
			c-68.055,0-123.309-72.249-123.309-160.831c0-70.529,38.912-147.704,107.079-159.436c4.083-0.702,6.822-4.581,6.12-8.664
			c-0.703-4.082-4.58-6.816-8.664-6.12c-4.803,0.826-9.546,1.981-14.216,3.432c-53.433-67.859-141.567-69.622-196.24,0.734
			c-77.311,99.49-36.193,269.786,71.863,296.249c-2.736,4.137-4.335,9.091-4.335,14.411v14.779c0,5.847,4.757,10.605,10.605,10.605
			h12.787v69.834c0,4.143,3.357,7.5,7.5,7.5c4.143,0,7.5-3.357,7.5-7.5v-69.834h12.787c5.847,0,10.605-4.757,10.605-10.605v-14.779
			c0-5.338-1.608-10.306-4.36-14.451c2.162-0.533,4.315-1.116,6.453-1.779c19.736,25.101,44.399,41.662,71.268,48.242
			c-2.736,4.137-4.335,9.091-4.335,14.412v14.779c0,5.847,4.757,10.605,10.605,10.605h12.787v69.835c0,4.143,3.357,7.501,7.5,7.501
			c4.143,0,7.5-3.357,7.5-7.501v-69.835h12.787c5.847,0,10.605-4.757,10.605-10.605v-14.779c0-5.321-1.599-10.274-4.335-14.412
			C412.365,379.094,459.703,306.995,459.703,222.252z M206.474,373.241h-31.781v-10.383c0-6.174,5.022-11.198,11.197-11.198h9.387
			c6.174,0,11.198,5.023,11.198,11.198V373.241z M67.275,175.829c0-88.683,55.317-160.831,123.309-160.831
			c31.131,0,60.343,14.883,83.128,42.133c-60.039,28.07-90.628,99.361-90.628,165.12c0,38.788,9.932,78.402,31.243,111.416
			C137.677,353.233,67.275,276.18,67.275,175.829z M337.283,419.664h-31.781v-10.383c0-6.174,5.022-11.198,11.197-11.198h9.388
			c6.174,0,11.197,5.023,11.197,11.198V419.664z"/>
	</g>
</g>
<g>
	<g>
		<path d="M390.067,229.646c-3.954-1.246-8.163,0.949-9.407,4.9c-8.452,26.833-35.805,48.275-59.191,59.743
			c-30.338-14.761-62.139-42.735-62.176-78.029c-0.026-27.693,37.127-37.966,51.035-13.492c1.271,2.238,5.699,6.279,11.425,6.163
			c4.407-0.104,8.539-2.763,10.785-6.364c12.968-20.844,40.018-16.302,48.509,2.339c1.717,3.77,6.164,5.435,9.935,3.717
			c3.77-1.717,5.434-6.164,3.717-9.935c-13.055-28.664-53.385-34.765-73.293-6.472c-14.772-21.491-45.823-24.798-64.737-5.857
			c-7.992,8.003-12.388,18.626-12.377,29.916c0.045,42.924,37.423,75.852,72.384,92.352c2.947,1.394,6.489,1.477,9.613-0.008
			c26.582-12.612,58.582-37.512,68.679-69.567C396.212,235.103,394.019,230.89,390.067,229.646z"/>
	</g>
</g>
<g>
</g>
<g>
</g>
<g>
</g>
<g>
</g>
<g>
</g>
<g>
</g>
<g>
</g>
<g>
</g>
<g>
</g>
<g>
</g>
<g>
</g>
<g>
</g>
<g>
</g>
<g>
</g>
<g>
</g>
</svg>
