<?xml version="1.0" encoding="iso-8859-1"?>
<!-- Generator: Adobe Illustrator 19.0.0, SVG Export Plug-In . SVG Version: 6.00 Build 0)  -->
<svg version="1.1" id="Capa_1" xmlns="http://www.w3.org/2000/svg" xmlns:xlink="http://www.w3.org/1999/xlink" x="0px" y="0px"
	 viewBox="0 0 512 512" style="enable-background:new 0 0 512 512;" xml:space="preserve">
<g>
	<g>
		<path d="M486.589,2.24H25.411C11.399,2.24,0,13.638,0,27.65v294.02v61.192c0,14.012,11.399,25.411,25.411,25.411h174.335v41.714
			H163.9c-10.753,0-19.501,8.749-19.501,19.501v20.772c0,10.753,8.749,19.501,19.501,19.501h71.061c4.142,0,7.5-3.357,7.5-7.5
			s-3.358-7.5-7.5-7.5H163.9c-2.439,0-4.5-2.061-4.5-4.5v-20.772c0-2.439,2.061-4.5,4.5-4.5c5.18,0,179.843,0,184.201,0
			c2.439,0,4.5,2.061,4.5,4.5v20.772c0,2.439-2.061,4.5-4.5,4.5h-78.139c-4.143,0-7.5,3.357-7.5,7.5s3.357,7.5,7.5,7.5h78.139
			c10.753,0,19.501-8.748,19.501-19.501v-20.772c0-10.753-8.749-19.501-19.501-19.501h-35.846v-41.714h174.335
			c14.012,0,25.411-11.399,25.411-25.411V27.65C512,13.638,500.601,2.24,486.589,2.24z M297.254,449.987h-82.508v-41.714h82.508
			V449.987z M496.998,382.862c0,5.739-4.669,10.409-10.409,10.409c-7.681,0-454.976,0-461.179,0c-5.381,0-9.822-4.104-10.356-9.347
			c-0.036-0.349-0.054-0.704-0.054-1.063v-53.69c3.043,0,334.708,0,337.58,0l8.231,31.968c2.044,7.93,12.797,9.167,16.823,1.9
			l10.439-18.841l31.918,31.918c4.377,4.381,11.75,4.43,16.459-0.275l14.595-14.595c4.2-4.204,4.293-10.949,0.208-15.035
			l-17.041-17.04c7.272,0,52.723,0,62.785,0V382.862z M402.73,318.904c10.731,10.731,6.908,6.908,34.722,34.721l-9.369,9.369
			l-34.148-34.149c-4.734-4.732-12.657-3.338-15.872,2.47l-6.444,11.631l-15.879-61.664l61.664,15.879l-12.404,6.872
			C399.528,307.067,398.319,314.497,402.73,318.904z M418.657,313.615l18.879-10.46c7.27-4.026,6.003-14.753-1.897-16.791
			c-0.001,0-0.002,0-0.003,0l-83.056-21.387c-7.809-2.015-15.166,5.299-13.146,13.136l9.285,36.057H56.121V60.107
			c0-0.8,0.65-1.45,1.45-1.45h396.856c0.8,0,1.45,0.65,1.45,1.45V314.17h-36.665L418.657,313.615z M496.999,314.17h-26.121V60.107
			c0-9.072-7.38-16.451-16.451-16.451H57.571c-9.072,0-16.451,7.379-16.451,16.451V314.17h-26.12V27.65
			c0-5.74,4.669-10.41,10.41-10.41h461.179c5.739,0,10.41,4.669,10.41,10.41V314.17z"/>
	</g>
</g>
<g>
	<g>
		<path d="M254.538,353.862c-3.679,0.77-6.04,3.95-6.04,7.36c0,4.049,3.302,7.5,7.5,7.5c4.054,0,7.5-3.269,7.5-7.5
			C263.499,356.468,259.146,352.952,254.538,353.862z"/>
	</g>
</g>
<g>
	<g>
		<path d="M260.539,174.445v-18.359c6.988,0.521,9.389,3.859,12.31,3.859c3.859,0,5.528-4.798,5.528-7.197
			c0-6.05-11.059-8.032-17.838-8.241v-2.712c0-1.356-1.773-2.608-3.547-2.608c-1.981,0-3.547,1.252-3.547,2.608v2.92
			c-10.432,1.356-20.236,7.093-20.236,20.341c0,13.353,10.744,17.42,20.236,20.967v20.758c-9.18-1.043-12.31-7.823-16.272-7.823
			c-3.234,0-5.842,4.381-5.842,7.302c0,5.842,9.493,12.623,22.114,12.936v2.921c0,1.355,1.565,2.607,3.547,2.607
			c1.773,0,3.547-1.252,3.547-2.607v-3.233c11.684-1.878,19.715-9.285,19.715-22.115
			C280.254,182.583,269.822,177.888,260.539,174.445z M254.279,172.151c-4.798-1.878-8.346-3.86-8.346-8.45
			c0-3.964,3.129-6.467,8.346-7.302V172.151z M259.704,206.68v-18.151c4.485,1.982,7.823,4.485,7.823,9.598
			C267.527,203.028,264.294,205.74,259.704,206.68z"/>
	</g>
</g>
<g>
	<g>
		<path d="M256,114.833c-39.529,0-71.69,32.16-71.69,71.69c0,45.632,41.563,74.409,72.233,71.689
			c39.419-0.295,71.147-32.427,71.147-71.689C327.69,146.993,295.53,114.833,256,114.833z M256,243.214
			c-32.245,0-56.689-26.33-56.689-56.69c0-31.259,25.432-56.689,56.69-56.689c31.259,0,56.689,25.431,56.689,56.689
			C312.689,217.846,287.228,243.214,256,243.214z"/>
	</g>
</g>
<g>
	<g>
		<path d="M348.69,196.545c-4.07-0.767-7.993,1.905-8.765,5.975c-7.362,38.896-41.557,69.453-83.927,69.453
			c-46.795,0-85.449-38.005-85.449-85.45c0-47.117,38.333-85.449,85.45-85.449c40.93,0,76.222,29.125,83.917,69.251
			c0.781,4.068,4.708,6.729,8.78,5.953c4.067-0.78,6.732-4.71,5.953-8.779c-9.05-47.182-50.538-81.426-98.652-81.426
			c-55.388,0-100.45,45.062-100.45,100.45c0,55.671,45.266,100.451,100.451,100.451c48.692,0,89.81-34.887,98.665-81.665
			C355.437,201.24,352.761,197.315,348.69,196.545z"/>
	</g>
</g>
<g>
</g>
<g>
</g>
<g>
</g>
<g>
</g>
<g>
</g>
<g>
</g>
<g>
</g>
<g>
</g>
<g>
</g>
<g>
</g>
<g>
</g>
<g>
</g>
<g>
</g>
<g>
</g>
<g>
</g>
</svg>
