<?xml version="1.0" encoding="iso-8859-1"?>
<!-- Generator: Adobe Illustrator 19.0.0, SVG Export Plug-In . SVG Version: 6.00 Build 0)  -->
<svg version="1.1" id="Capa_1" xmlns="http://www.w3.org/2000/svg" xmlns:xlink="http://www.w3.org/1999/xlink" x="0px" y="0px"
	 viewBox="0 0 512 512" style="enable-background:new 0 0 512 512;" xml:space="preserve">
<g>
	<g>
		<path d="M498.058,81.41L432.453,4.95c-0.125-0.145-0.254-0.285-0.389-0.419c-5.729-5.729-15.019-6.068-21.149-0.774
			l-52.278,45.139c-6.419,5.541-7.129,15.222-1.585,21.643l2.047,2.371l-3.372,2.912c-8.949,7.729-22.417,10.041-36.023,6.182
			c-0.276-0.078-38.994-11.066-39.274-11.131c-7.056-1.64-25.315-4.23-42.752,7.02c-0.281,0.161-100.189,57.343-100.46,57.52
			c-27.212,17.726-14.109,48.261,6.648,51.584c0.904,24.187,31.424,35.328,47.592,16.649c40.021-46.24,38.703-44.229,40.799-48.459
			l1.528-0.63c1.996,7.485,7.453,14.936,18.604,18.097c46.771,13.265,56.163,16.99,69.139,15.556
			c36.264-3.886,44.575-5.076,62.839-15.588c13.137-7.561,25.923-16.4,38.1-26.319l2.227,2.579
			c5.551,6.427,15.238,7.118,21.644,1.585l49.764-42.969C503.813,100.842,504.689,89.139,498.058,81.41z M180.117,193.826
			c-7.502,8.667-21.66,2.921-21.247-8.321c-0.001,0,44.313-18.332,44.317-18.333L180.117,193.826z M376.886,159.618
			c-15.539,8.944-20.77,9.794-56.799,13.657c-9.883,1.059-17.708-2.038-63.603-15.055c-5.893-1.671-7.432-4.822-8.076-7.046
			c-0.881-3.039-0.319-5.943-0.321-5.943c0.377-1.637,1.065-3.038,1.828-4.067c1.118-1.508,2.801-2.977,6.827-2.421
			c14.193,1.953,47.991,6.472,48.33,6.518c4.119,0.549,7.881-2.335,8.429-6.441c0.549-4.106-2.334-7.88-6.44-8.429
			c-0.34-0.045-34.109-4.56-48.274-6.509c-13.256-1.827-21.073,6.362-24.153,14.098l-10.941,4.511c0,0-66.646,27.806-73.291,29.724
			c-12.063,1.694-20.324-14.006-5.159-24.123l100.056-57.275c0.007-0.003,0.014-0.007,0.021-0.011
			c0.121-0.07,0.241-0.143,0.358-0.219c12.527-8.156,25.864-6.352,31.189-5.139l38.744,10.99c18.476,5.238,37.139,1.776,49.92-9.26
			l3.372-2.912c5.721,6.626,38.679,44.795,43.762,50.682C401.213,144.247,389.205,152.527,376.886,159.618z M486.3,96.142
			c-0.403,0.348-49.901,43.337-50.248,42.934c-0.346-0.401-68.011-78.478-67.611-78.824l52.278-45.14h0.001
			c0.101-0.087,0.227-0.13,0.353-0.13c0.102,0,0.203,0.028,0.291,0.084l65.308,76.114C487.934,92.649,487.768,94.876,486.3,96.142z"
			/>
	</g>
</g>
<g>
	<g>
		<path d="M261.773,250.352v-16.099c6.13,0.457,8.233,3.384,10.794,3.384c3.385,0,4.849-4.208,4.849-6.312
			c0-5.306-9.696-7.043-15.643-7.227v-2.378c0-1.189-1.555-2.287-3.109-2.287c-1.738,0-3.109,1.098-3.109,2.287v2.561
			c-9.147,1.189-17.746,6.22-17.746,17.836c0,11.709,9.421,15.276,17.746,18.386v18.203c-8.05-0.915-10.794-6.861-14.27-6.861
			c-2.836,0-5.124,3.842-5.124,6.403c0,5.123,8.325,11.068,19.394,11.343v2.561c0,1.192,1.371,2.289,3.109,2.289
			c1.555,0,3.109-1.097,3.109-2.287v-2.835c10.245-1.646,17.289-8.141,17.289-19.393
			C279.063,257.487,269.916,253.37,261.773,250.352z M256.285,248.34c-4.208-1.647-7.317-3.385-7.317-7.41
			c0-3.475,2.744-5.671,7.317-6.403V248.34z M261.043,278.618v-15.917c3.933,1.738,6.86,3.934,6.86,8.416
			C267.903,275.416,265.067,277.794,261.043,278.618z"/>
	</g>
</g>
<g>
	<g>
		<path d="M369.584,325.351c-0.904-24.188-31.427-35.327-47.591-16.649l-37.032,42.786c-1.501,1.734-2.758,3.635-3.768,5.674
			l-1.528,0.63c-1.996-7.485-7.453-14.936-18.604-18.097c-49.189-13.952-55.598-16.746-68.994-15.57
			c-0.048,0.004-0.096,0.009-0.144,0.014c-36.264,3.888-44.576,5.077-62.84,15.588c-13.138,7.562-25.924,16.401-38.1,26.32
			l-2.227-2.579c-5.533-6.405-15.241-7.116-21.644-1.585L14.637,407.19c-3.02,2.606-4.835,6.235-5.111,10.214
			c-0.275,3.981,1.021,7.824,3.653,10.824l69.158,78.812c5.177,5.899,14.183,6.638,20.061,1.667
			c0.024-0.021,0.114-0.097,0.139-0.118l52.277-45.14c6.419-5.543,7.13-15.223,1.586-21.643l-2.047-2.371l3.372-2.911
			c8.949-7.728,22.417-10.041,36.023-6.182l37.991,10.776c3.985,1.13,8.133-1.184,9.264-5.169c1.13-3.985-1.185-8.133-5.17-9.263
			l-37.992-10.776c-18.476-5.239-37.138-1.776-49.92,9.259l-3.372,2.911l-28.878-33.444L100.787,377.4
			c11.451-9.299,23.458-17.58,35.779-24.671c15.552-8.951,20.774-9.795,56.882-13.665c10.203-0.888,15.831,1.537,63.52,15.063
			c5.893,1.671,7.432,4.822,8.076,7.046c0.881,3.039,0.319,5.943,0.321,5.943c-0.364,1.6-1.054,3.023-1.828,4.068
			c-1.118,1.507-2.809,2.975-6.826,2.421c-14.195-1.953-47.992-6.472-48.331-6.518c-4.12-0.546-7.88,2.334-8.429,6.441
			c-0.549,4.106,2.334,7.88,6.44,8.429c0.34,0.045,34.109,4.56,48.274,6.509c1.272,0.175,2.493,0.258,3.665,0.258
			c11.046,0,17.698-7.362,20.484-14.354l10.945-4.513c0,0,64.46-26.55,65.264-26.959c4.284-2.206,6.936-2.45,8.03-2.766
			c12.063-1.692,20.321,14.008,5.156,24.124c-105.389,60.326-103.014,59.041-103.014,59.041c-3.636,1.985-4.974,6.543-2.987,10.178
			c1.986,3.635,6.545,4.976,10.178,2.987c0.001,0,103.846-59.528,103.847-59.528C403.434,359.219,390.351,328.674,369.584,325.351z
			 M145.044,451.611c0.35,0.399-51.364,44.804-51.766,45.151l-68.724-78.316l52.361-45.212c0.032-0.027,0.116-0.098,0.248-0.082
			c0.143,0.01,0.208,0.086,0.235,0.118L145.044,451.611z M310.265,345.174l23.07-26.656c7.375-8.521,21.666-3.105,21.246,8.322
			C354.581,326.841,310.272,345.171,310.265,345.174z"/>
	</g>
</g>
<g>
	<g>
		<path d="M312.63,266.327c-3.964-1.212-8.155,1.015-9.368,4.977c-6.158,20.108-24.791,33.615-45.461,33.615
			c-26.034,0-47.559-21.13-47.559-47.559c0-26.223,21.335-47.558,47.559-47.558c19.905-0.001,37.862,12.563,44.685,31.263
			c1.419,3.892,5.723,5.896,9.617,4.477c3.893-1.42,5.897-5.726,4.477-9.617c-8.974-24.598-32.595-41.125-58.779-41.125
			c-34.497,0-62.561,28.065-62.561,62.56c0,34.83,28.36,62.561,62.561,62.561c27.074,0,51.661-17.625,59.805-44.225
			C318.819,271.735,316.591,267.54,312.63,266.327z"/>
	</g>
</g>
<g>
</g>
<g>
</g>
<g>
</g>
<g>
</g>
<g>
</g>
<g>
</g>
<g>
</g>
<g>
</g>
<g>
</g>
<g>
</g>
<g>
</g>
<g>
</g>
<g>
</g>
<g>
</g>
<g>
</g>
</svg>
