<?xml version="1.0" encoding="iso-8859-1"?>
<!-- Generator: Adobe Illustrator 19.0.0, SVG Export Plug-In . SVG Version: 6.00 Build 0)  -->
<svg version="1.1" id="Capa_1" xmlns="http://www.w3.org/2000/svg" xmlns:xlink="http://www.w3.org/1999/xlink" x="0px" y="0px"
	 viewBox="0 0 512 512" style="enable-background:new 0 0 512 512;" xml:space="preserve">
<g>
	<g>
		<path d="M498.06,81.41L432.455,4.95c-0.125-0.145-0.254-0.285-0.389-0.419c-5.73-5.729-15.019-6.068-21.149-0.774L358.64,48.896
			c-3.103,2.678-4.977,6.406-5.275,10.493c-0.298,4.088,1.012,8.047,3.69,11.149l2.047,2.371l-3.372,2.912
			c-8.949,7.729-22.418,10.041-36.023,6.182c-0.276-0.078-38.994-11.066-39.274-11.131c-7.057-1.64-25.315-4.23-42.752,7.02
			c-0.281,0.161-100.189,57.343-100.46,57.52c-9.119,5.941-21.821,20.793-11.578,38.773c0.04,0.07,0.081,0.139,0.123,0.208
			c4.389,7.158,10.717,11.42,18.102,12.603c0.275,7.339,3.543,14.373,9.358,19.406c11.299,9.78,28.453,8.545,38.234-2.756
			l37.029-42.784c1.501-1.734,2.759-3.636,3.771-5.676l1.528-0.63c1.996,7.485,7.453,14.936,18.604,18.097
			c46.46,13.177,56.131,16.994,69.139,15.556c36.264-3.887,44.575-5.076,62.839-15.588c13.137-7.561,25.923-16.4,38.1-26.318
			l2.227,2.579c5.551,6.427,15.238,7.118,21.644,1.585l49.764-42.969C503.814,100.842,504.69,89.139,498.06,81.41z M180.118,193.826
			c-7.502,8.667-21.661,2.921-21.247-8.321c0,0,44.314-18.332,44.317-18.333L180.118,193.826z M376.888,159.618
			c-15.539,8.944-20.77,9.794-56.799,13.657c-9.867,1.058-17.599-2.007-63.603-15.055c-5.893-1.671-7.432-4.822-8.076-7.046
			c-0.881-3.039-0.319-5.943-0.321-5.943c0.008-0.035,0.009-0.07,0.017-0.105c0.014-0.065,0.033-0.128,0.045-0.193
			c0.004-0.019,0.474-2.024,1.767-3.769c1.118-1.508,2.801-2.977,6.827-2.421c14.193,1.953,47.991,6.472,48.33,6.518
			c4.117,0.549,7.881-2.335,8.429-6.441c0.549-4.106-2.334-7.88-6.44-8.429c-0.34-0.045-34.109-4.56-48.274-6.509
			c-13.261-1.827-21.075,6.362-24.154,14.098l-10.94,4.511c-86.349,35.603-66.882,27.874-73.291,29.724
			c-12.062,1.693-20.327-14.004-5.159-24.123l100.056-57.275c0.007-0.003,0.014-0.007,0.021-0.011
			c0.121-0.07,0.241-0.143,0.358-0.219c12.528-8.156,25.864-6.352,31.189-5.139l38.744,10.99c18.475,5.238,37.139,1.776,49.92-9.26
			l3.372-2.912c5.721,6.626,38.679,44.795,43.762,50.682C401.215,144.247,389.208,152.527,376.888,159.618z M486.302,96.142
			c-0.159,0.137-49.804,43.077-50.013,43.052c-0.287-0.021-68.294-78.555-67.846-78.942l52.277-45.14h0.001
			c0.101-0.087,0.227-0.13,0.353-0.13c0.102,0,0.203,0.028,0.291,0.084l65.308,76.114C487.935,92.649,487.769,94.876,486.302,96.142
			z"/>
	</g>
</g>
<g>
	<g>
		<path d="M369.585,325.351c-0.904-24.188-31.427-35.327-47.591-16.649l-37.032,42.786c-1.501,1.734-2.758,3.635-3.768,5.674
			l-1.528,0.63c-1.996-7.485-7.453-14.936-18.604-18.097c-49.183-13.95-55.595-16.746-68.994-15.57
			c-0.048,0.004-0.096,0.009-0.144,0.014c-36.264,3.888-44.576,5.077-62.84,15.588c-13.138,7.562-25.924,16.401-38.1,26.32
			l-2.227-2.579c-5.532-6.405-15.241-7.116-21.644-1.585L14.638,407.19c-6.25,5.395-6.903,14.831-1.458,21.039l69.158,78.812
			c5.177,5.899,14.183,6.638,20.061,1.667c0.024-0.021,0.114-0.097,0.139-0.118l52.277-45.14c6.419-5.543,7.13-15.223,1.586-21.643
			l-2.047-2.371l3.372-2.911c8.95-7.729,22.42-10.039,36.023-6.182l34.783,9.866c3.984,1.127,8.133-1.184,9.264-5.169
			c1.13-3.986-1.185-8.133-5.17-9.263l-34.784-9.866c-18.476-5.239-37.138-1.777-49.92,9.259l-3.372,2.911l-43.762-50.681
			c11.451-9.299,23.458-17.58,35.779-24.672c15.552-8.951,20.774-9.795,56.882-13.665c8.441-0.735,13.718,0.786,42.653,9.098
			c22.421,6.44,27.049,6.473,28.943,13.011c0.881,3.039,0.319,5.943,0.321,5.943c-0.369,1.612-1.062,3.034-1.828,4.068
			c-1.119,1.507-2.809,2.975-6.826,2.421c-14.195-1.953-47.992-6.472-48.331-6.518c-4.116-0.546-7.88,2.334-8.429,6.441
			c-0.549,4.106,2.334,7.88,6.44,8.429c0.34,0.045,34.109,4.56,48.274,6.509c11.716,1.614,20.402-4.69,24.149-14.096
			c0.374-0.154,75.535-31.132,75.896-31.312c7.922-4.023,15.406-4.943,20.125,2.633c5.431,9.705-4.2,16.947-6.626,18.565
			l-100.056,57.274c-0.045,0.026-0.089,0.052-0.133,0.078c-0.079,0.047-0.169,0.103-0.245,0.153
			c-1.655,1.077-3.422,2.038-5.253,2.855c-3.782,1.689-5.479,6.126-3.789,9.908c1.689,3.784,6.129,5.48,9.907,3.789
			c2.492-1.113,4.906-2.42,7.141-3.865c0.297-0.17,100.164-57.328,100.451-57.515C403.437,359.219,390.352,328.674,369.585,325.351z
			 M145.047,451.611c0.028,0.032,0.093,0.107,0.083,0.249c-0.017,0.22-51.683,44.758-51.849,44.902l-68.724-78.316l52.361-45.212
			c0.032-0.027,0.118-0.098,0.248-0.082c0.143,0.01,0.208,0.086,0.235,0.118C84.465,381.451,137.805,443.224,145.047,451.611z
			 M310.268,345.174l23.07-26.656c7.408-8.56,21.664-3.066,21.246,8.322C354.583,326.841,310.275,345.171,310.268,345.174z"/>
	</g>
</g>
<g>
	<g>
		<path d="M248.145,233.08c1.403,2.475,5.546,5.792,10.443,5.673c4.051-0.095,7.802-2.509,9.833-5.779
			c9.662-15.524,29.875-12.025,35.909,2.106c1.627,3.808,6.034,5.58,9.845,3.952c3.81-1.627,5.579-6.035,3.952-9.844
			c-10.244-23.982-42.908-29.415-59.842-7.857c-20.529-26.302-62.717-11.36-62.686,21.69c0.036,34.748,30.123,61.323,58.27,74.608
			c2.897,1.368,6.195,1.298,8.945-0.009c20.237-9.601,41.751-26.638,51.708-47.212c1.805-3.729,0.244-8.215-3.484-10.019
			c-3.731-1.807-8.215-0.245-10.019,3.484c-8.113,16.763-26.081,30.872-42.7,39.245c-23.411-11.577-47.689-33.119-47.717-60.112
			C210.584,222.65,237.9,215.054,248.145,233.08z"/>
	</g>
</g>
<g>
</g>
<g>
</g>
<g>
</g>
<g>
</g>
<g>
</g>
<g>
</g>
<g>
</g>
<g>
</g>
<g>
</g>
<g>
</g>
<g>
</g>
<g>
</g>
<g>
</g>
<g>
</g>
<g>
</g>
</svg>
