<?xml version="1.0" encoding="iso-8859-1"?>
<!-- Generator: Adobe Illustrator 19.0.0, SVG Export Plug-In . SVG Version: 6.00 Build 0)  -->
<svg version="1.1" id="Capa_1" xmlns="http://www.w3.org/2000/svg" xmlns:xlink="http://www.w3.org/1999/xlink" x="0px" y="0px"
	 viewBox="0 0 511.998 511.998" style="enable-background:new 0 0 511.998 511.998;" xml:space="preserve">
<g>
	<g>
		<path d="M138.1,187.802c-13.357,0-24.224,10.867-24.224,24.223s10.867,24.223,24.224,24.223c13.357,0,24.223-10.867,24.223-24.223
			S151.457,187.802,138.1,187.802z M138.1,221.248c-5.085,0-9.223-4.137-9.223-9.223s4.137-9.223,9.223-9.223
			s9.223,4.137,9.223,9.223S143.186,221.248,138.1,221.248z"/>
	</g>
</g>
<g>
	<g>
		<path d="M504.5,223.437c-4.143,0-7.5,3.358-7.5,7.5c0,22.189-15.44,30.503-37.649,29.925
			c-4.36-69.391-57.499-124.419-124.863-148.518c2.221-5.111,3.981-10.309,5.239-15.591c0.96-4.029-1.529-8.074-5.559-9.034
			c-4.032-0.961-8.074,1.529-9.034,5.559c-5.553,23.324-22.012,42.581-40.794,57.493h-68.126
			c-27.486-21.901-42.604-48.406-42.63-74.855c-0.022-20.742,18.255-37.192,39.256-34.358c10.824,1.458,20.125,7.74,25.521,17.232
			c1.479,2.602,6.479,6.794,12.423,6.665c4.898-0.115,9.338-3.072,11.755-6.962c16.547-26.598,51.93-20.769,62.115,4.339
			c1.557,3.838,5.927,5.69,9.771,4.13c3.838-1.557,5.688-5.931,4.131-9.77c-14.649-36.108-64.893-43.538-88.174-7.536
			c-7.851-12.636-20.694-20.965-35.536-22.965c-30.161-4.069-56.291,19.555-56.26,49.24c0.013,12.613,2.845,25.15,8.271,37.252
			c-31.849,11.79-59.585,30.001-80.765,53.112H41.063c-13.514,0-24.508,10.995-24.508,24.509v7.135
			C6.239,204.942,0,216.548,0,229.232v64.419c0,12.152,6.342,23.154,16.524,29.272v4.885c0,14.392,11.709,26.101,26.101,26.101
			h25.237c1.625,0,3.173,0.825,4.144,2.207c12.218,17.394,27.905,32.76,46.65,45.698v60.974c0,12.746,10.369,23.114,23.114,23.114
			h53.184c12.746,0,23.114-10.369,23.114-23.114v-23.339c5.368,0.721,10.86,1.275,16.381,1.654c4.13,0.293,7.712-2.837,7.995-6.97
			c0.283-4.132-2.837-7.712-6.97-7.995c-6.637-0.455-13.223-1.18-19.572-2.154c-6.753-1.035-12.835,4.212-12.835,11.043v27.764
			c0,4.474-3.639,8.113-8.114,8.113h-53.185c-4.474,0-8.113-3.639-8.113-8.113v-63.009c0-3.708-1.84-7.165-4.921-9.248
			c-17.969-12.146-32.926-26.627-44.453-43.037c-3.775-5.376-9.914-8.586-16.42-8.586H42.625c-6.12,0-11.1-4.979-11.1-11.1v-1.373
			h25.294c4.142,0,7.5-3.358,7.5-7.5s-3.358-7.5-7.5-7.5h-29.84c-0.026-0.011-0.049-0.027-0.076-0.038
			c-7.229-2.97-11.902-9.936-11.902-17.747v-64.418c0-8.62,4.778-16.418,12.469-20.35c2.508-1.282,4.085-3.861,4.085-6.678v-11.397
			c0-5.242,4.265-9.508,9.507-9.508H89.43c2.152,0,4.2-0.924,5.624-2.538c20.217-22.916,47.399-40.887,78.883-52.211
			c5.299,8.459,11.871,16.555,19.653,24.223h-2.934c-4.142,0-7.5,3.358-7.5,7.5c0,4.142,3.358,7.5,7.5,7.5
			c25.611,0,93.532,0,119.45,0c4.143,0,7.5-3.358,7.5-7.5c0-4.142-3.357-7.5-7.5-7.5h-3.065c7.748-7.55,14.789-15.943,20.42-25.011
			C397.8,150.231,444.64,207.548,444.64,269.961c0,45.357-24.214,88.483-66.43,118.32c-2.961,2.092-4.729,5.499-4.729,9.114v65.394
			c0,4.474-3.64,8.114-8.114,8.114h-53.185c-4.474,0-8.112-3.639-8.112-8.114v-28.323c0-6.911-6.221-12.159-13.055-11.009
			c-7.002,1.177-14.272,2.049-21.606,2.59c-4.131,0.305-7.232,3.9-6.928,8.031c0.305,4.13,3.882,7.239,8.031,6.928
			c6.262-0.461,12.485-1.151,18.557-2.054v23.835c0,12.746,10.369,23.114,23.113,23.114h53.185
			c12.746,0,23.114-10.369,23.114-23.114v-63.41c43.45-31.349,69.052-75.996,71.021-123.503
			c30.469,0.554,52.495-14.172,52.495-44.936C512,226.795,508.643,223.437,504.5,223.437z"/>
	</g>
</g>
<g>
</g>
<g>
</g>
<g>
</g>
<g>
</g>
<g>
</g>
<g>
</g>
<g>
</g>
<g>
</g>
<g>
</g>
<g>
</g>
<g>
</g>
<g>
</g>
<g>
</g>
<g>
</g>
<g>
</g>
</svg>
