<?xml version="1.0" encoding="iso-8859-1"?>
<!-- Generator: Adobe Illustrator 19.0.0, SVG Export Plug-In . SVG Version: 6.00 Build 0)  -->
<svg version="1.1" id="Capa_1" xmlns="http://www.w3.org/2000/svg" xmlns:xlink="http://www.w3.org/1999/xlink" x="0px" y="0px"
	 viewBox="0 0 512 512" style="enable-background:new 0 0 512 512;" xml:space="preserve">
<g>
	<g>
		<path d="M283.004,236.72l40.448-62.649c1.745-2.703,1.572-6.218-0.431-8.736l-20.276-25.495c-1.368-1.721-3.602-2.831-5.87-2.831
			h-23.643c-4.143,0-7.5,3.358-7.5,7.5c0,4.142,3.357,7.5,7.5,7.5h9.878l-6.77,10.494h-41.215l-6.77-10.494h9.877
			c4.143,0,7.5-3.358,7.5-7.5c0-4.142-3.357-7.5-7.5-7.5h-23.642c-2.262,0-4.507,1.118-5.87,2.831l-20.277,25.495
			c-2.003,2.518-2.176,6.033-0.431,8.737l40.448,62.648l-40.45,62.702c-2.407,3.732-1.057,8.73,2.895,10.746l27.574,14.066
			c3.428,1.748,7.622,0.619,9.709-2.613l27.544-42.662l27.545,42.663c2.087,3.232,6.281,4.361,9.709,2.613
			c30.079-15.344,30.283-14.623,31.407-18.797c0.552-2.048,0.21-4.234-0.939-6.016L283.004,236.72z M266.663,177.503l-10.931,16.943
			l-10.93-16.943H266.663z M203.532,170.458l10.42-13.101c0.967,1.499,21.664,33.579,32.853,50.925
			c-8.903,13.801-6.649,10.308-9.422,14.605L203.532,170.458z M219.26,307.794l-14.146-7.216
			c3.802-5.893,89.007-137.966,92.397-143.22l10.419,13.1C305.362,174.438,224.146,300.229,219.26,307.794z M292.203,307.794
			l-27.544-42.663c1.014-1.571-1.262,1.955,9.414-14.582l32.276,50.029L292.203,307.794z"/>
	</g>
</g>
<g>
	<g>
		<path d="M508.086,147.553l-79.263-84.268c-0.025-0.027-0.051-0.054-0.077-0.081c-8.354-8.62-20.058-12.219-106.131-50.942
			c-0.977-0.439-2.115-0.66-3.077-0.66H191.927c-0.949,0-2.109,0.226-3.077,0.66C89.461,56.975,95.396,54.29,94.38,54.853
			c-10.464,5.778-7.78,4.223-90.979,92.68c-0.131,0.139-0.256,0.282-0.375,0.431c-4.851,6.014-3.501,13.612,1.436,19.599
			l0.017-0.014c1.85,2.277,11.566,14.063,66.109,80.211c4.799,5.819,12.051,7.093,20.196,0.33c0.119-0.099,0.235-0.202,0.349-0.309
			c20.416-19.212,19.13-17.939,19.702-18.653l0.001,253.822c0,9.62,7.826,17.446,17.445,17.446h114.906c4.143,0,7.5-3.358,7.5-7.5
			c0-4.142-3.357-7.5-7.5-7.5H128.281c-1.349,0-2.445-1.097-2.445-2.446l-0.001-259.439c0.323-15.792-11.29-18.89-19.692-10.98
			c0,0-0.289,0.272-0.793,0.746l-67.892-80.091c58.704-62.568,57.073-61.276,64.513-65.391l85.452-38.442
			c12.522,32.831,46.699,57.482,68.942,57.379c18.78-0.045,54.305-22.41,67.674-57.384c72.874,32.705,88.189,38.409,93.899,44.261
			l56.351,59.91l-67.861,80.055l-1.352-1.272c-0.034-0.032-0.069-0.064-0.104-0.096c-9.323-8.444-19.616-4.09-19.616,7.901v263.365
			c0,1.062-0.864,1.926-1.927,1.926h-105.24c-4.143,0-7.5,3.358-7.5,7.5s3.357,7.5,7.5,7.5H383.43
			c9.333,0,16.927-7.593,16.927-16.926V228.455l20.538,19.326c5.325,5.004,14.893,6.144,22.21-2.723l-0.021-0.018
			c5.45-6.55,57.441-69.607,64.945-78.765C513.229,161.037,513.397,152.962,508.086,147.553z M94.411,223.57
			c-5.228,4.919-10.771,10.135-13.351,12.562c-0.464-0.457-64.94-78.689-65.354-79.191l11.689-12.428L94.411,223.57z
			 M257.206,71.703c-11.709,0.6-42.486-15.944-54.728-45.101h106.512C296.475,56.383,265.936,71.255,257.206,71.703z
			 M430.687,236.398l-13.319-12.534l67.265-79.351l11.69,12.428C428.021,239.781,431.306,235.871,430.687,236.398z"/>
	</g>
</g>
<g>
</g>
<g>
</g>
<g>
</g>
<g>
</g>
<g>
</g>
<g>
</g>
<g>
</g>
<g>
</g>
<g>
</g>
<g>
</g>
<g>
</g>
<g>
</g>
<g>
</g>
<g>
</g>
<g>
</g>
</svg>
