<?xml version="1.0" encoding="iso-8859-1"?>
<!-- Generator: Adobe Illustrator 19.0.0, SVG Export Plug-In . SVG Version: 6.00 Build 0)  -->
<svg version="1.1" id="Capa_1" xmlns="http://www.w3.org/2000/svg" xmlns:xlink="http://www.w3.org/1999/xlink" x="0px" y="0px"
	 viewBox="0 0 512 512" style="enable-background:new 0 0 512 512;" xml:space="preserve">
<g>
	<g>
		<path d="M449.938,385.002l-33.877-52.513l33.875-52.467c1.75-2.71,1.576-6.235-0.432-8.759l-17.187-21.608
			c-1.371-1.724-3.602-2.84-5.886-2.84H356.69c-2.314,0-4.533,1.139-5.886,2.84l-17.187,21.608c-2.008,2.525-2.182,6.049-0.432,8.76
			l33.876,52.467l-33.878,52.513c-2.414,3.743-1.061,8.754,2.903,10.776l23.371,11.922c3.438,1.753,7.642,0.621,9.735-2.62
			l22.369-34.646l22.368,34.645c2.093,3.241,6.297,4.374,9.735,2.62l23.371-11.922C451.003,393.754,452.348,388.741,449.938,385.002
			z M412.631,261.854l-4.237,6.568h-33.665l-4.237-6.568H412.631z M398.691,283.463l-7.13,11.051l-7.13-11.051H398.691z
			 M348.749,276.399l7.303-9.181c0.301,0.466,13.821,21.422,26.559,41.167l-6.602,10.234L348.749,276.399z M360.242,391.215
			l-9.907-5.053c3.356-5.202,73.311-113.635,76.736-118.943l7.302,9.181C427.132,287.614,366.85,380.979,360.242,391.215z
			 M422.88,391.215l-22.368-34.645c2.124-3.289,0.307-0.476,6.594-10.214l25.681,39.806L422.88,391.215z"/>
	</g>
</g>
<g>
	<g>
		<path d="M505.625,334.868c-4.104-0.63-7.945,2.181-8.578,6.287c-7.938,51.501-53.287,90.338-105.486,90.338
			c-59.33,0-106.738-48.345-106.738-106.738c0-58.902,47.91-106.739,106.738-106.739c52.127,0,97.541,38.783,105.486,90.338
			c0.633,4.104,4.457,6.92,8.578,6.287c4.105-0.633,6.918-4.473,6.287-8.578c-4.382-28.435-18.84-54.516-40.71-73.438
			c-16.813-14.546-37.207-24.113-58.884-27.861l-58.651-88.741c-2.243-4.311-5.807-7.664-10.1-9.653V65.902
			c4.468-2.306,7.535-6.959,7.535-12.324V42.782c0-7.648-6.221-13.87-13.87-13.87h-66.026c-7.648,0-13.87,6.223-13.87,13.87v10.794
			c0,5.686,3.442,10.578,8.349,12.717v38.026h-37.893c-4.153,0-7.52,3.367-7.52,7.52s3.367,7.52,7.52,7.52h37.893
			c0,7.206,0,51.986,0,59.327c0,5.327,4.333,9.662,9.662,9.662h58.392c5.418,0,9.828-4.409,9.828-9.828c0-25.207,0-29.253,0-50.504
			l49.547,74.969c-33.245-0.425-66.497,12.901-90.573,38.683c-10.286,0-267.465,0-280.775,0c-4.856,0-8.014-4.966-6.183-9.28
			L87.25,123.952c0.178-0.27,0.339-0.549,0.48-0.839c1.117-2.28,3.478-3.754,6.018-3.754h98.951c4.153,0,7.52-3.367,7.52-7.52
			s-3.367-7.52-7.52-7.52h-98.95c-8.059,0-15.569,4.575-19.283,11.701L2.722,224.569c-0.178,0.27-0.339,0.55-0.48,0.84
			c-7.074,14.451,3.457,31.297,19.526,31.297h25.271v211.341H28.133c-4.153,0-7.52,3.367-7.52,7.52s3.367,7.52,7.52,7.52
			c7.168,0,366.05,0,374.316,0c4.154,0,7.52-3.367,7.52-7.52s-3.366-7.52-7.52-7.52h-21.357v-21.971
			c64.938,5.554,121.246-40.529,130.818-102.631C512.544,339.341,509.729,335.501,505.625,334.868z M328.527,173.308h-47.802
			c0-15.934,0-93.735,0-105.862h47.802C328.527,81.695,328.527,147.391,328.527,173.308z M336.062,52.407h-0.015h-62.842h-0.829
			v-8.454h63.686V52.407z M298.88,403.748h-59.237c-0.622,0-1.127-0.505-1.127-1.127v-70.348h31.503
			C271.654,358.731,281.823,383.73,298.88,403.748z M238.517,317.233v-18.162c0-0.622,0.505-1.127,1.127-1.127h33.105
			c-1.387,6.166-2.349,12.953-2.737,19.289H238.517z M185.178,468.047h-82.837l-0.03-135.774h82.867V468.047z M185.179,317.233
			h-82.836v-18.872c0-0.23,0.188-0.418,0.418-0.418h82c0.23,0,0.417,0.188,0.417,0.418V317.233z M366.053,468.047H200.218
			c0-9.032,0-162.296,0-169.686v-0.457c0-8.272-6.729-15.001-15-15.001h-0.457h-82h-0.457c-8.272,0-15.001,6.729-15.001,15.001
			v0.457c0,7.393,0,160.656,0,169.686H62.077V256.707h228.491c-5.566,8.253-10.123,17.338-13.375,26.197h-37.549
			c-8.915,0-16.167,7.252-16.167,16.167c0,10.895,0,92.068,0,103.55c0,8.915,7.252,16.167,16.167,16.167h74.571
			c15.558,12.799,33.651,21.177,51.838,25.06V468.047z"/>
	</g>
</g>
<g>
</g>
<g>
</g>
<g>
</g>
<g>
</g>
<g>
</g>
<g>
</g>
<g>
</g>
<g>
</g>
<g>
</g>
<g>
</g>
<g>
</g>
<g>
</g>
<g>
</g>
<g>
</g>
<g>
</g>
</svg>
