<?xml version="1.0" encoding="iso-8859-1"?>
<!-- Generator: Adobe Illustrator 19.0.0, SVG Export Plug-In . SVG Version: 6.00 Build 0)  -->
<svg version="1.1" id="Capa_1" xmlns="http://www.w3.org/2000/svg" xmlns:xlink="http://www.w3.org/1999/xlink" x="0px" y="0px"
	 viewBox="0 0 512 512" style="enable-background:new 0 0 512 512;" xml:space="preserve">
<g>
	<g>
		<path d="M257.312,321.6c-16.587-26.465-53.686-30.95-76.063-8.546c-9.248,9.261-14.333,21.552-14.319,34.613
			c0.052,50.448,44.141,89.222,85.383,108.689c3.214,1.517,6.94,1.546,10.219-0.01c41.206-19.552,85.216-58.419,85.165-108.864
			C347.644,298.851,284.544,279.796,257.312,321.6z M257.408,442.168c-36.71-17.687-75.434-51.578-75.478-94.515
			c-0.019-18.821,15.309-33.966,33.842-33.966c21.171,0,29.33,17.227,30.717,18.675c8.157,8.51,18.425,5.391,22.881-1.772
			c19.416-31.205,63.29-15.996,63.326,16.909C332.739,390.43,294.083,424.403,257.408,442.168z"/>
	</g>
</g>
<g>
	<g>
		<path d="M257.301,285.998c-49.316-33.105-115.702,2.473-115.644,61.695c0.063,62.245,51.637,108.755,99.883,131.526
			c1,1,16.014,7.462,31.828-0.041c7.53-3.573,27.158-13.66,46.724-30.101c35.126-29.517,52.917-63.707,52.878-101.622
			C372.906,287.507,305.282,253.22,257.301,285.998z M266.937,465.626c-6.032,2.861-12.957,2.872-18.995,0.028
			c-44.094-20.811-91.23-62.733-91.285-117.974c-0.048-49.439,57.361-77.2,96.012-46.499c2.746,2.181,6.636,2.169,9.368-0.029
			c17.605-14.166,41.454-16.789,62.241-6.848C383.076,322.422,366.041,418.599,266.937,465.626z"/>
	</g>
</g>
<g>
	<g>
		<path d="M298.755,323.865c-12.473,0.018-18.039,8.244-21.029,12.664c-11.552,17.073-33.741,12.693-41.273-0.576
			c-5.381-9.467-16.122-13.94-26.726-11.129c-31.673,8.392-22.53,67.179,43.986,103.876c2.272,1.253,5.031,1.244,7.295-0.027
			c22.955-12.889,61.459-40.572,61.417-81.164C322.411,334.484,311.8,323.878,298.755,323.865z M257.309,413.484
			c-23.731-13.965-50.105-38.305-50.105-65.857c-0.01-8.927,11.876-11.882,16.206-4.265c12.95,22.813,48.849,28.024,66.741,1.573
			c2.771-4.094,4.294-6.063,8.609-6.069c4.772,0.005,8.659,3.89,8.666,8.659C307.458,379.333,274.864,403.032,257.309,413.484z"/>
	</g>
</g>
<g>
	<g>
		<path d="M192.203,347.644C192.203,357.644,202.203,347.644,192.203,347.644L192.203,347.644z"/>
	</g>
</g>
<g>
	<g>
		<path d="M436.452,359.249c4.142,0,7.5-3.358,7.5-7.5v-95.959h29.611c19.631,0,29.093-22.141,20.711-34.804L413.05,98.089
			c-2.532-4.895-6.635-8.656-11.57-10.782V40.529c5.001-2.086,8.528-7.023,8.528-12.773V13.834C410.009,6.206,403.803,0,396.175,0
			h-76.433c-7.628,0-13.834,6.206-13.834,13.834v13.922c0,6.094,3.966,11.272,9.45,13.111v44.476h-40.543
			c-4.142,0-7.5,3.358-7.5,7.5c0,4.142,3.358,7.5,7.5,7.5h40.543v68.443c0,5.313,4.323,9.636,9.637,9.636h66.684
			c5.405,0,9.803-4.397,9.803-9.803c0-6.488,0-50.319,0-60.83l79.973,121.002c2.441,5.606-1.633,11.996-7.891,11.996
			c-13.137,0-414.229,0-435.274,0c-6.261,0-10.33-6.39-7.891-11.996c85.913-129.991,81.307-122.959,81.638-123.634
			c1.432-2.924,4.461-4.814,7.717-4.814h120.058c4.142,0,7.5-3.358,7.5-7.5c0-4.142-3.358-7.5-7.5-7.5H119.754
			c-8.765,0-16.929,4.984-20.952,12.746c-0.412,0.624-81.375,123.063-81.704,123.734c-7.678,15.684,3.752,33.967,21.19,33.967
			h29.611v241.21H45.495c-4.142,0-7.5,3.358-7.5,7.5c0,4.142,3.358,7.5,7.5,7.5c5.728,0,417.875,0,423.639,0
			c4.142,0,7.5-3.358,7.5-7.5c0-4.142-3.358-7.5-7.5-7.5h-25.182V386.75c0-4.142-3.358-7.5-7.5-7.5c-4.142,0-7.5,3.358-7.5,7.5
			v110.249H82.901v-241.21h346.05v95.959C428.951,355.891,432.309,359.249,436.452,359.249z M386.481,163.422h-56.12
			c0-4.768,0-116.245,0-121.83h56.121C386.481,49.163,386.481,160.028,386.481,163.422z M395.008,26.59c-7.295,0-63.381,0-74.099,0
			V15.001h74.099V26.59z"/>
	</g>
</g>
<g>
</g>
<g>
</g>
<g>
</g>
<g>
</g>
<g>
</g>
<g>
</g>
<g>
</g>
<g>
</g>
<g>
</g>
<g>
</g>
<g>
</g>
<g>
</g>
<g>
</g>
<g>
</g>
<g>
</g>
</svg>
