<?xml version="1.0" encoding="iso-8859-1"?>
<!-- Generator: Adobe Illustrator 19.0.0, SVG Export Plug-In . SVG Version: 6.00 Build 0)  -->
<svg version="1.1" id="Capa_1" xmlns="http://www.w3.org/2000/svg" xmlns:xlink="http://www.w3.org/1999/xlink" x="0px" y="0px"
	 viewBox="0 0 511.999 511.999" style="enable-background:new 0 0 511.999 511.999;" xml:space="preserve">
<g>
	<g>
		<path d="M426.817,396.686H262.88c-4.142,0-7.5,3.358-7.5,7.5c0,4.142,3.358,7.5,7.5,7.5h163.937c4.142,0,7.5-3.358,7.5-7.5
			C434.317,400.044,430.959,396.686,426.817,396.686z"/>
	</g>
</g>
<g>
	<g>
		<path d="M426.817,456.329H262.88c-4.142,0-7.5,3.358-7.5,7.5c0,4.142,3.358,7.5,7.5,7.5h163.937c4.142,0,7.5-3.358,7.5-7.5
			C434.317,459.687,430.959,456.329,426.817,456.329z"/>
	</g>
</g>
<g>
	<g>
		<path d="M344.848,366.865H262.88c-4.142,0-7.5,3.358-7.5,7.5c0,4.142,3.358,7.5,7.5,7.5h81.969c4.142,0,7.5-3.358,7.5-7.5
			C352.349,370.223,348.99,366.865,344.848,366.865z"/>
	</g>
</g>
<g>
	<g>
		<path d="M426.817,426.507H262.88c-4.142,0-7.5,3.358-7.5,7.5c0,4.142,3.358,7.5,7.5,7.5h163.937c4.142,0,7.5-3.358,7.5-7.5
			C434.317,429.865,430.959,426.507,426.817,426.507z"/>
	</g>
</g>
<g>
	<g>
		<path d="M151.339,335.076c-16.809-18.321-48.624-6.714-48.599,19.123c0.028,26.768,22.998,47.144,44.488,57.286
			c2.638,1.244,5.661,1.24,8.298-0.01c21.467-10.188,44.397-30.609,44.37-57.377C199.868,328.733,168.398,316.434,151.339,335.076z
			 M151.362,396.808c-16.646-8.452-33.601-23.718-33.621-42.624c-0.013-13.21,17.734-18.127,24.376-6.441
			c1.355,2.386,5.017,5.286,9.487,5.192c10.154-0.238,8.372-11.831,20.257-11.845c7.18,0.003,13.028,5.845,13.036,13.025
			C184.916,373.021,167.99,388.323,151.362,396.808z"/>
	</g>
</g>
<g>
	<g>
		<path d="M322.249,166.956c7.421-10.299,7.799-22.037-1.591-31.427c-10.223-10.223-21.809-5.754-31.274-1.438l-11.057-11.057
			c5.301-4.543,9.162-3.559,11.662-6.058c3.332-3.332,0.53-8.86-1.514-10.905c-5.225-5.225-15.298,2.423-20.144,6.966l-1.893-1.893
			c-1.061-1.061-3.483-0.606-4.922,0.833c-1.666,1.666-1.894,3.862-0.833,4.922l2.12,2.12c-6.891,9.163-9.391,20.902,0.227,30.519
			c9.693,9.693,21.129,4.771,30.745,0.454l12.269,12.269c-6.589,4.618-13.631,2.726-16.812,5.906
			c-2.877,2.877-1.363,8.934,1.212,11.51c4.847,4.847,16.962,2.12,26.352-6.664l1.893,1.893c1.061,1.061,3.257,0.833,4.923-0.833
			c1.438-1.439,1.893-3.862,0.832-4.922L322.249,166.956z M272.95,137.347c-1.818-1.818-2.121-4.998,0.606-9.087l9.01,9.011
			C278.478,138.937,275.146,139.543,272.95,137.347z M310.964,157.186l-10.148-10.148c4.013-1.438,7.497-1.741,9.997,0.758
			C313.539,150.523,312.933,154.006,310.964,157.186z"/>
	</g>
</g>
<g>
	<g>
		<path d="M219.155,267.172h-49.513c-4.142,0-7.5,3.358-7.5,7.5s3.358,7.5,7.5,7.5h46.054v174.156H86.942V282.173h47.699
			c4.142,0,7.5-3.358,7.5-7.5s-3.358-7.5-7.5-7.5H83.483c-6.364,0-11.542,5.177-11.542,11.542v181.074
			c0,6.364,5.177,11.542,11.542,11.542h135.672c6.364,0,11.542-5.177,11.542-11.542V278.714
			C230.697,272.349,225.52,267.172,219.155,267.172z"/>
	</g>
</g>
<g>
	<g>
		<path d="M477.095,366.395c4.142,0,7.5-3.358,7.5-7.5V242.601c0-8.878-7.222-16.1-16.1-16.1H318.473
			c8.385-8.384,110.132-110.132,113.691-113.691c4.976-4.976,4.976-13.072,0-18.048c-9.914-9.914-81.738-81.738-91.021-91.021
			c-4.988-4.988-13.06-4.987-18.048,0c-4.428,4.428-157.934,157.934-171.154,171.154c-4.976,4.976-4.976,13.072,0,18.047
			c7.159,7.159,26.317,26.317,33.558,33.558H43.503c-8.877,0-16.1,7.222-16.1,16.1v253.299c0,8.877,7.222,16.1,16.1,16.1h424.993
			c8.878,0,16.1-7.222,16.1-16.1V393.896c0-4.142-3.358-7.5-7.5-7.5c-4.142,0-7.5,3.358-7.5,7.5v102.005
			c0,0.606-0.493,1.099-1.099,1.099H43.503c-0.606,0-1.099-0.493-1.099-1.099v-253.3c0-0.606,0.493-1.099,1.099-1.099
			c9.818,0,420.023,0,424.993,0c0.606,0,1.099,0.493,1.099,1.099v116.293C469.595,363.036,472.953,366.395,477.095,366.395z
			 M399.852,83.665l19.528,19.528c0.331,0.331,0.328,0.858,0,1.187l-19.791,19.79C389.49,112.612,389.59,95.109,399.852,83.665z
			 M331.525,16.526c0.326-0.326,0.859-0.326,1.187,0c6.956,6.956,12.893,12.893,19.814,19.814
			c-11.552,10.369-29.282,10.345-40.815-0.001L331.525,16.526z M301.098,46.953c17.223,16.049,44.481,16.372,62.043,0.001
			l26.098,26.097c-16.101,17.284-16.232,44.302-0.27,61.738l-22.178,22.178c6.961-50.716-37.229-94.803-87.854-87.855
			L301.098,46.953z M247.605,100.446c11.394-11.393,26.438-17.056,41.676-17.056c54.802,0,84.089,67.001,46.179,104.911
			c-23.348,23.348-62.047,22.636-86.27-1.585C224.968,162.495,224.258,123.793,247.605,100.446z M184.533,204.322
			c-20.329-20.329-20.778-20.023-19.809-20.995l19.749-19.749C194.794,175.084,194.844,192.757,184.533,204.322z M297.259,226.501
			h-90.545l-11.565-11.565c16.226-17.482,16.057-44.676-0.061-61.973l21.186-21.186c-6.936,50.536,37.058,94.826,87.849,87.86
			L297.259,226.501z"/>
	</g>
</g>
<g>
</g>
<g>
</g>
<g>
</g>
<g>
</g>
<g>
</g>
<g>
</g>
<g>
</g>
<g>
</g>
<g>
</g>
<g>
</g>
<g>
</g>
<g>
</g>
<g>
</g>
<g>
</g>
<g>
</g>
</svg>
