<?xml version="1.0" encoding="iso-8859-1"?>
<!-- Generator: Adobe Illustrator 19.0.0, SVG Export Plug-In . SVG Version: 6.00 Build 0)  -->
<svg version="1.1" id="Capa_1" xmlns="http://www.w3.org/2000/svg" xmlns:xlink="http://www.w3.org/1999/xlink" x="0px" y="0px"
	 viewBox="0 0 512 512" style="enable-background:new 0 0 512 512;" xml:space="preserve">
<g>
	<g>
		<path d="M326.805,119.071v-20.56c7.827,0.584,10.514,4.322,13.785,4.322c4.322,0,6.191-5.374,6.191-8.061
			c0-6.776-12.383-8.996-19.977-9.229v-3.038c0-1.519-1.985-2.92-3.972-2.92c-2.22,0-3.972,1.402-3.972,2.92v3.271
			c-11.683,1.519-22.664,7.944-22.664,22.779c0,14.953,12.033,19.509,22.664,23.481v23.247c-10.28-1.168-13.785-8.762-18.225-8.762
			c-3.621,0-6.542,4.907-6.542,8.178c0,6.542,10.631,14.135,24.766,14.486v3.271c0,1.519,1.752,2.92,3.972,2.92
			c1.986,0,3.972-1.402,3.972-2.92v-3.622c13.084-2.103,22.079-10.397,22.079-24.765
			C348.883,128.183,337.202,122.926,326.805,119.071z M319.796,116.501c-5.374-2.103-9.346-4.322-9.346-9.462
			c0-4.439,3.505-7.243,9.346-8.178V116.501z M325.87,155.168v-20.327c5.023,2.22,8.762,5.023,8.762,10.748
			C334.632,151.079,331.011,154.116,325.87,155.168z"/>
	</g>
</g>
<g>
	<g>
		<path d="M465.058,265.285l-33.467-51.874l33.463-51.829c1.745-2.704,1.572-6.219-0.431-8.737l-16.989-21.36
			c-1.383-1.737-3.624-2.832-5.87-2.832h-8.455c-0.155-54.922-40.083-100.77-92.834-109.702c-4.081-0.688-7.956,2.059-8.646,6.143
			c-0.691,4.084,2.059,7.955,6.143,8.646c46.453,7.865,80.196,47.752,80.344,94.912h-17.216
			c-0.171-43.629-35.708-79.071-79.376-79.071c-43.773,0-79.385,35.611-79.385,79.384c0,65.386,75.053,102.667,127.083,63.417
			l9.363,14.501c-63.704,46.676-153.654,0.899-153.654-77.917c0-47.295,33.79-87.343,80.345-95.226
			c4.084-0.691,6.834-4.563,6.143-8.646c-0.691-4.083-4.55-6.833-8.646-6.143c-25.685,4.349-49.189,17.715-66.184,37.636
			c-17.191,20.151-26.657,45.855-26.657,72.377c-0.002,83.623,89.283,137.959,163.699,98.652l-24.3,37.668
			c-2.408,3.733-1.058,8.731,2.895,10.747l23.102,11.785c3.429,1.748,7.622,0.619,9.709-2.613l22.057-34.161l22.057,34.161
			c2.087,3.232,6.28,4.362,9.709,2.613l23.102-11.785C466.12,274.014,467.462,269.014,465.058,265.285z M428,143.654l-4.103,6.36
			h-33.205l-4.103-6.36C401.955,143.654,412.642,143.654,428,143.654z M414.221,165.014l-6.927,10.736l-6.926-10.736H414.221z
			 M257.339,128.968c0-35.501,28.883-64.385,64.386-64.385c35.397,0,64.216,28.712,64.384,64.072h-13.283
			c-2.295,0-4.506,1.116-5.87,2.832l-16.989,21.359c-2.003,2.518-2.176,6.033-0.431,8.737l11.735,18.176
			C319.234,212.585,257.339,182.505,257.339,128.968z M365.056,157.968l7.132-8.966c0.685,1.062,25.121,38.938,26.181,40.581
			l-6.448,9.994L365.056,157.968z M376.311,271.376l-9.675-4.935c22.349-34.642,53.079-82.275,75.762-117.436c0,0,0,0,0.001-0.002
			l7.132,8.967C441.353,170.638,383.888,259.641,376.311,271.376z M438.277,271.376l-22.056-34.161
			c2.199-3.406,0.891-1.38,6.44-9.974l25.29,39.2L438.277,271.376z"/>
	</g>
</g>
<g>
	<g>
		<path d="M492.422,354.27c11.015-29.814-21.839-57.759-49.673-41.237l-66.433,39.436c-2.785,1.654-5.292,3.676-7.492,6.028
			l-6.509,0.453c1.621-10.002-0.769-22.6-14.811-32.164c-54.704-37.266-64.933-45.878-81.88-49.576
			c-49.129-10.722-59.257-12.563-86.991-6.922c-20.975,4.265-42.053,10.485-62.771,18.483l-2.793-6.782
			c-3.832-9.307-14.465-13.737-23.771-9.904l-77.79,32.034C4.518,306.999,0,313.746,0,321.308v156.083
			c0,11.243,11.424,18.807,21.738,14.573l135.238-55.534c9.284-3.823,13.727-14.486,9.904-23.771h-0.001l-2.672-6.488
			c9.197-3.788,19.002-8.881,34.208-5.992c15.373,2.921,18.563,5.119,49.076,26.145c0.978,0.674,21.734,14.97,22.744,15.592
			c10.594,6.497,22.273,9.597,24.739,9.597c8.825,0,10.343-12.826,1.668-14.812c-13.724-3.143-19.405-8.095-40.641-22.727
			c-31.47-21.687-36.307-25.019-54.787-28.531c-11.668-2.216-23.619-1.007-34.56,3.498l-8.159,3.36
			c-3.624-8.801-33.301-80.867-36.926-89.67c19.836-7.639,40.003-13.566,60.052-17.642c24.775-5.039,33.359-3.476,80.629,6.84
			c14.582,3.645,19.143,8.071,76.81,47.356c8.461,5.763,11.399,14.482,5.949,24.345c-1.487,2.575-7.142,10.584-17.445,5.497
			c-17.538-8.655-59.36-29.091-59.78-29.297c-3.725-1.819-8.214-0.275-10.031,3.446c-1.818,3.722-0.276,8.212,3.445,10.031
			c64.637,31.493,63.951,32.476,72.658,32.476c9.573,0,17.274-5.388,21.839-11.234c116.65-8.113,112.252-7.78,113.252-7.93
			c13.379-2.077,24.463,1.236,27.559,14.301c3.38,17.431-14.489,23.311-18.646,24.432L328.488,435.26
			c-4.061,0.816-6.691,4.769-5.876,8.83c0.816,4.061,4.761,6.694,8.831,5.876c0.328-0.066,149.693-30.066,150.017-30.15
			C522.308,409.139,518.22,365.593,492.422,354.27z M153.011,418.371c0.673,1.635-0.11,3.515-1.739,4.186L16.041,478.087
			c-0.103,0.042-0.373,0.153-0.707-0.071C15,477.793,15,477.5,15,477.391V321.308c0-1.46,0.872-2.763,2.222-3.318l77.792-32.033
			c1.649-0.68,3.519,0.118,4.189,1.746C101.431,293.112,150.797,412.994,153.011,418.371z M477.507,351.024
			c-1.323-0.051-34.405,2.308-78.413,5.368l51.312-30.46C466.881,316.154,485.996,333.978,477.507,351.024z"/>
	</g>
</g>
<g>
</g>
<g>
</g>
<g>
</g>
<g>
</g>
<g>
</g>
<g>
</g>
<g>
</g>
<g>
</g>
<g>
</g>
<g>
</g>
<g>
</g>
<g>
</g>
<g>
</g>
<g>
</g>
<g>
</g>
</svg>
