<?xml version="1.0" encoding="iso-8859-1"?>
<!-- Generator: Adobe Illustrator 19.0.0, SVG Export Plug-In . SVG Version: 6.00 Build 0)  -->
<svg version="1.1" id="Capa_1" xmlns="http://www.w3.org/2000/svg" xmlns:xlink="http://www.w3.org/1999/xlink" x="0px" y="0px"
	 viewBox="0 0 512 512" style="enable-background:new 0 0 512 512;" xml:space="preserve">
<g>
	<g>
		<path d="M473.287,73.275c-9.685-18.876-35.464-22.348-49.543-6.116c-19.543-22.411-61.317-6.715-51.285,32.504
			c-6.88,2.849-14.537,8.048-20.891,17.51c-15.817-24.292-50.259-28.22-71.101-7.351c-8.696,8.708-13.479,20.269-13.468,32.555
			c0.048,47.15,41.196,83.363,79.697,101.535c3.187,1.5,6.84,1.458,9.942-0.015c6.199-2.941,22.361-11.248,38.513-24.821
			c26.176-21.996,39.92-46.762,40.907-73.669c13.607-7.927,25.292-18.655,32.156-29.764c2.177-3.523,1.085-8.145-2.438-10.322
			s-8.146-1.087-10.323,2.438c-6.958,11.262-19.62,21.075-31.691,27.276c-18.749-9.423-37.891-26.819-37.912-47.958
			c-0.015-15.629,20.768-20.924,28.395-7.504c3.754,6.6,14.258,7.542,18.965-0.042c7.091-11.394,21.633-9.341,26.73,0.593
			c1.892,3.685,6.411,5.139,10.097,3.249C473.724,81.482,475.178,76.96,473.287,73.275z M420.673,150.115
			c-2.38,20.538-14.182,39.839-35.172,57.478c-13.7,11.512-27.384,18.884-33.856,22.06c-33.915-16.407-69.604-47.706-69.646-87.289
			c-0.008-8.278,3.217-16.07,9.081-21.942c14.5-14.518,38.795-11.229,48.931,6.603c1.313,2.311,6.019,6.555,11.928,6.418
			c4.726-0.11,8.957-2.942,11.279-6.668c4.52-7.264,10.009-11.149,14.882-13.208C388.909,132.696,411.961,147.258,420.673,150.115z"
			/>
	</g>
</g>
<g>
	<g>
		<path d="M511.227,339.806c-0.016-0.079-0.033-0.158-0.051-0.236c-2.584-11.116-9.239-19.108-18.726-23.272
			c11.012-29.811-21.839-57.763-49.677-41.238c-72.573,43.081-69.493,40.725-73.928,45.468l-6.509,0.453
			c1.621-10.002-0.769-22.602-14.812-32.166c-55.297-37.671-65.134-45.959-81.886-49.579c-49.132-10.721-59.262-12.562-86.995-6.922
			c-20.978,4.266-42.058,10.486-62.774,18.484l-2.793-6.782c-3.832-9.306-14.466-13.738-23.772-9.904L11.51,266.145
			C4.518,269.025,0,275.772,0,283.335v156.091c0,11.243,11.424,18.809,21.739,14.575l135.246-55.537
			c9.284-3.823,13.728-14.487,9.904-23.772h-0.001l-2.672-6.489l8.16-3.36c15.785-6.501,35.193-3.581,51.917,7.809
			c47.057,32.059,47.659,33.504,59.703,37.934c3.891,1.43,8.197-0.563,9.628-4.45c1.43-3.887-0.563-8.198-4.45-9.628
			c-9.064-3.334-8.54-3.622-56.437-36.252c-20.909-14.24-45.608-17.709-66.072-9.282l-8.16,3.36
			c-1.141-2.772-25.64-62.262-36.928-89.675c19.836-7.639,40.003-13.565,60.055-17.643c20.825-4.234,31.869-4.708,80.67,6.849
			c14.225,3.391,20.354,8.911,76.778,47.35c8.49,5.782,11.397,14.497,5.918,24.403c-0.625,1.128-6.421,10.868-17.415,5.44
			c-17.539-8.655-59.363-29.093-59.783-29.299c-3.725-1.818-8.215-0.275-10.031,3.446c-1.818,3.722-0.276,8.212,3.445,10.031
			c0.421,0.205,42.219,20.63,59.731,29.272c13.77,6.795,26.904,2.045,34.773-8.029c154.977-10.778,111.519-8.214,125.606-8.056
			c6.885,1.209,13.004,5.115,15.212,14.427c3.38,17.431-14.49,23.313-18.647,24.434l-154.415,31.021
			c-4.061,0.816-6.691,4.769-5.876,8.83c0.716,3.563,3.846,6.024,7.346,6.024c0.489,0,0.986-0.048,1.485-0.148
			c0.328-0.066,154.736-31.079,155.06-31.163C494.939,378.33,516.337,365.52,511.227,339.806z M153.019,380.403
			c0.673,1.636-0.11,3.515-1.739,4.186L16.042,440.123c-0.103,0.042-0.372,0.153-0.707-0.071c-0.334-0.224-0.334-0.517-0.334-0.626
			V283.335c0-1.46,0.872-2.763,2.222-3.318l77.797-32.035c0.436-0.18,0.848-0.244,1.214-0.244c0.533,0,0.97,0.135,1.241,0.249
			c0.459,0.191,1.294,0.671,1.734,1.741C123.257,308.13,130.175,324.927,153.019,380.403z M477.534,313.053
			c-3.864-0.147-7.175,0.144-10.854,0.67l-33.726,2.346l-33.837,2.353l51.315-30.463
			C466.906,278.181,486.022,296.005,477.534,313.053z"/>
	</g>
</g>
<g>
</g>
<g>
</g>
<g>
</g>
<g>
</g>
<g>
</g>
<g>
</g>
<g>
</g>
<g>
</g>
<g>
</g>
<g>
</g>
<g>
</g>
<g>
</g>
<g>
</g>
<g>
</g>
<g>
</g>
</svg>
