<?xml version="1.0" encoding="iso-8859-1"?>
<!-- Generator: Adobe Illustrator 19.0.0, SVG Export Plug-In . SVG Version: 6.00 Build 0)  -->
<svg version="1.1" id="Capa_1" xmlns="http://www.w3.org/2000/svg" xmlns:xlink="http://www.w3.org/1999/xlink" x="0px" y="0px"
	 viewBox="0 0 511.999 511.999" style="enable-background:new 0 0 511.999 511.999;" xml:space="preserve">
<g>
	<g>
		<path d="M249.391,480.849l-5.956-81.259c-0.309-4.215-2.24-8.058-5.439-10.821c-3.199-2.763-7.287-4.111-11.497-3.804l-4.06,0.298
			c-1.684-16.721-4.663-33.084-8.881-48.743c-5.795-21.512-11.131-28.629-35.387-58.71c-8.676-10.767-18.103-14.808-63.448-40.112
			c-10.802-6.029-20.514-4.362-27.552-0.111l-0.951-2.285c0.792-2.303,1.288-4.691,1.465-7.139l4.32-59.923
			c1.122-15.569-10.632-29.15-26.201-30.272c-8.151-0.585-15.877,2.31-21.526,7.703c-17.81-13.284-50.339-0.366-43.293,33.012
			c0.03,0.141,0.063,0.28,0.101,0.418l32.134,118.171c3.559,16.52,15.311,30.75,26.929,37.265
			c43.318,24.174,44.672,23.587,53.26,34.848c6.848,8.98,6.828,17.238,7.275,23.333c-4.088,0.3-9.776,0.124-14.605,5.717
			c-2.762,3.199-4.113,7.282-3.804,11.497l5.358,73.137c0.611,8.334,7.635,14.863,15.991,14.863h109.893
			C242.754,497.932,250.066,490.065,249.391,480.849z M77.051,167.162l-2.833,39.303c-22.724-54.609-18.727-45.841-20.4-49.113
			C62.129,147.944,77.969,154.424,77.051,167.162z M67.612,321.538c-4.957-3.117-16.456-11.871-19.793-27.656
			c-0.062-0.279-32.136-118.213-32.211-118.489c-0.621-3.093-2.483-16.157,9.303-19.476c6.094-1.421,10.487,0.573,13.936,5.553
			c1.543,2.228-2.095-6.021,37.248,88.524c-3.5,7.964-3.863,19.859,7.322,28.338c12.1,9.172,40.842,31.136,41.131,31.355
			c3.296,2.518,7.998,1.878,10.506-1.404c2.513-3.29,1.885-7.992-1.404-10.506c-0.29-0.221-29.055-22.203-41.178-31.393
			c-6.626-5.023-3.137-12.642,2.76-16.16c3.686-2.198,7.558-2.021,12.184,0.562c46.109,25.732,52.092,28.098,59.173,36.544
			c25.857,30.839,28.611,38.676,32.494,53.089c3.973,14.749,6.792,30.168,8.402,45.94c-47.93,3.511-25.081,1.837-71.856,5.263
			c-0.448-6.109-0.475-18.436-10.306-31.328C114.581,346.209,110.919,345.702,67.612,321.538z M234.193,482.645
			c-0.183,0.197-0.413,0.297-0.681,0.297H123.62c-0.544,0-1.001-0.426-1.041-0.968c-5.643-77.025-5.587-73.956-4.588-74.029
			l109.603-8.031c0.022-0.001,0.045-0.002,0.067-0.002c0.201,0,0.382,0.068,0.538,0.203c0.173,0.149,0.27,0.341,0.287,0.57
			l5.954,81.259C234.458,482.214,234.376,482.448,234.193,482.645z"/>
	</g>
</g>
<g>
	<g>
		<path d="M467.72,145.668c-18.443-17.618-49.595-3.334-47.729,22.572l4.32,59.922c0.176,2.447,0.672,4.837,1.465,7.14l-0.95,2.284
			c-7.038-4.251-16.752-5.92-27.552,0.11c-47.306,26.404-54.234,29.125-63.357,40.002c-0.031,0.037-0.062,0.074-0.092,0.112
			c-24.255,30.079-29.591,37.195-35.388,58.709c-4.217,15.656-7.196,32.02-8.881,48.744l-4.06-0.298
			c-8.7-0.641-16.298,5.923-16.936,14.625l-5.953,81.259c-0.677,9.215,6.635,17.082,15.876,17.082h40.194
			c4.14,0,7.495-3.356,7.495-7.495s-3.355-7.495-7.495-7.495h-40.194c-0.27,0-0.498-0.1-0.682-0.297
			c-0.183-0.197-0.266-0.432-0.246-0.701l5.953-81.259c0.034-0.459,0.439-0.804,0.893-0.77c23.428,1.717,86.2,6.316,109.602,8.029
			c0.459,0.034,0.805,0.435,0.771,0.892l-5.358,73.137c-0.04,0.543-0.498,0.968-1.042,0.968h-34.721
			c-4.14,0-7.495,3.356-7.495,7.495s3.355,7.495,7.495,7.495h34.721c8.356,0,15.381-6.529,15.991-14.863l5.359-73.138
			c0.637-8.7-5.924-16.298-14.626-16.936l-3.784-0.277l0.381-5.186c0.482-6.588,2.866-12.862,6.894-18.146
			c8.589-11.263,9.942-10.674,53.26-34.848c0.105-0.059,0.208-0.12,0.311-0.183c6.489-4.04,22.05-15.739,26.619-37.08
			c0.086-0.317,32.168-118.271,32.235-118.592C518.066,145.286,485.529,132.39,467.72,145.668z M458.177,157.351
			c-1.965,3.84-2.526,6.162-20.4,49.114l-2.834-39.303C434.032,154.506,449.823,147.893,458.177,157.351z M496.387,175.394
			c-0.093,0.343-32.153,118.218-32.228,118.565c-3.321,15.709-14.819,24.463-19.776,27.58c-43.306,24.163-46.97,24.67-57.712,38.757
			c-5.798,7.604-9.23,16.644-9.925,26.14l-0.381,5.186l-71.855-5.264c1.61-15.773,4.43-31.194,8.402-45.94
			c4.885-18.133,8.265-23.045,32.538-53.142c7.068-8.409,13.139-10.824,59.13-36.491c7.071-3.946,13.205-1.776,16.747,3.694
			c2.903,4.473,2.342,8.762-1.804,11.905c-12.125,9.189-40.889,31.171-41.178,31.392c-3.289,2.513-3.918,7.217-1.404,10.506
			c2.513,3.288,7.216,3.918,10.506,1.404c0.289-0.221,29.031-22.185,41.131-31.356c11.184-8.478,10.822-20.372,7.322-28.336
			c44.987-108.111,33.679-81.653,37.711-89.301C481.623,150.108,500.303,155.843,496.387,175.394z"/>
	</g>
</g>
<g>
	<g>
		<path d="M307.5,45.491c-0.003,0-0.006,0-0.008,0c-21.108,0.023-39.144,10.344-50.789,29.061c-0.021,0.035-0.042,0.068-0.062,0.1
			c-0.24,0.243-0.438,0.397-0.572,0.487c-0.181-0.096-0.466-0.283-0.832-0.605c-9.261-15.631-24.834-25.954-42.898-28.389
			c-18.389-2.476-36.468,3.641-49.596,16.788c-11.148,11.163-17.28,25.983-17.265,41.73c0.064,61.853,54.325,109.49,105.085,133.449
			c1.767,0.832,3.66,1.249,5.556,1.249c1.904,0,3.808-0.421,5.58-1.262c8.198-3.89,29.576-14.877,50.945-32.833
			c35.783-30.068,53.907-63.992,53.87-100.829C366.479,71.934,340.006,45.491,307.5,45.491z M303,193.789
			c-19.343,16.254-38.664,26.405-46.886,30.365c-46.364-22.119-95.59-64.982-95.646-119.506
			c-0.011-11.741,4.563-22.794,12.882-31.124c8.364-8.375,19.417-12.928,31.007-12.928c1.982,0,3.979,0.133,5.982,0.403
			c13.749,1.853,25.565,9.831,32.419,21.89c0.306,0.539,0.677,1.036,1.105,1.483c4.736,4.941,9.461,5.881,12.583,5.817
			c3.05-0.071,7.566-1.167,11.789-6.006c0.466-0.539,0.771-1.031,1.196-1.714c6.234-10.019,17.9-21.967,38.076-21.989
			c24.247,0.002,43.992,19.727,44.019,43.971C351.558,136.648,335.231,166.706,303,193.789z"/>
	</g>
</g>
<g>
	<g>
		<path d="M314.907,77.9c-12.204-3.481-24.283,1.598-31.534,13.251c-5.771,9.288-15.941,15.212-26.53,15.46
			c-12.653,0.26-23.844-7.639-28.366-15.605c-6.273-11.034-18.776-16.249-31.121-12.982c-12.256,3.248-20.479,13.94-20.465,26.608
			c0.053,53.378,57.81,89.389,75.511,99.154c1.127,0.622,2.373,0.932,3.62,0.932c1.265,0,2.53-0.32,3.669-0.959
			c14.465-8.121,35.071-21.708,51.089-40.308c16.158-18.762,24.339-38.607,24.318-58.982
			C335.088,92.016,326.973,81.339,314.907,77.9z M256,188.591c-18.943-11.048-64.076-41.821-64.118-83.976
			c-0.008-7.1,4.806-10.907,9.314-12.102c1.107-0.294,2.306-0.463,3.539-0.463c3.86,0,8.039,1.661,10.709,6.358
			c6.509,11.465,22.346,23.613,41.739,23.188c15.598-0.367,30.512-9.002,38.919-22.532c5.219-8.387,12.017-7.513,14.694-6.75
			c4.632,1.321,9.307,5.596,9.315,12.17C320.154,145.504,277.878,175.714,256,188.591z"/>
	</g>
</g>
<g>
	<g>
		<path d="M390.364,113.315c-4.106-0.494-7.842,2.436-8.335,6.547c-7.453,62.016-63.406,109.405-113.286,133.075
			c-7.997,3.794-17.174,3.806-25.174,0.035c-55.314-26.107-114.444-78.774-114.513-148.292
			c-0.021-21.771,9.404-42.516,25.857-56.917c16.555-14.489,37.73-20.843,59.621-17.896c13.563,1.829,26.298,7.216,36.828,15.581
			c2.743,2.18,6.629,2.167,9.361-0.029c20.027-16.115,46.71-20.649,71.37-12.129c24.721,8.542,42.995,28.797,48.883,54.182
			c0.934,4.033,4.963,6.543,8.994,5.608c4.032-0.935,6.544-4.962,5.607-8.994c-7.058-30.441-28.961-54.727-58.588-64.963
			c-27.695-9.569-57.545-5.383-80.997,11.105c-11.653-8.062-25.178-13.293-39.456-15.218c-25.866-3.484-51.923,4.342-71.494,21.471
			c-19.711,17.251-31.001,42.113-30.976,68.211c0.077,76.516,63.643,133.767,123.109,161.835c6.022,2.838,12.482,4.257,18.944,4.257
			c6.5,0,13-1.436,19.051-4.307c30.632-14.535,57.874-34.278,78.782-57.093c24.758-27.017,39.212-56.535,42.962-87.735
			C397.405,117.54,394.475,113.809,390.364,113.315z"/>
	</g>
</g>
<g>
</g>
<g>
</g>
<g>
</g>
<g>
</g>
<g>
</g>
<g>
</g>
<g>
</g>
<g>
</g>
<g>
</g>
<g>
</g>
<g>
</g>
<g>
</g>
<g>
</g>
<g>
</g>
<g>
</g>
</svg>
