<?xml version="1.0" encoding="iso-8859-1"?>
<!-- Generator: Adobe Illustrator 19.0.0, SVG Export Plug-In . SVG Version: 6.00 Build 0)  -->
<svg version="1.1" id="Capa_1" xmlns="http://www.w3.org/2000/svg" xmlns:xlink="http://www.w3.org/1999/xlink" x="0px" y="0px"
	 viewBox="0 0 512.001 512.001" style="enable-background:new 0 0 512.001 512.001;" xml:space="preserve">
<g>
	<g>
		<path d="M256.037,14.073c-74.1,0-133.728,60.221-133.728,133.728c0,73.376,59.538,133.728,133.728,133.728
			c74.563,0,133.727-60.676,133.728-133.728C389.765,74.357,330.295,14.073,256.037,14.073z M215.322,36.262
			c-9.26,11.268-16.041,25.158-20.815,38.947c-8.725-2.645-16.826-5.858-24.078-9.603C182.847,52.658,198.258,42.501,215.322,36.262
			z M160.548,77.31c8.821,4.848,18.813,8.955,29.655,12.237c-3.972,15.421-6.392,32.553-6.915,50.758h-45.746
			C138.949,117.843,146.435,96.574,160.548,77.31z M160.548,218.289c-13.208-17.845-21.535-39.504-23.005-62.994h45.746
			c0.524,18.206,2.943,35.337,6.915,50.757C179.363,209.334,169.37,213.442,160.548,218.289z M170.431,229.993
			c7.251-3.745,15.352-6.958,24.077-9.603c4.775,13.792,11.56,27.689,20.825,38.958C198.172,253.067,182.855,242.93,170.431,229.993
			z M248.542,265.492c-19.535-5.452-32.552-29.774-39.321-48.895c12.357-2.65,25.625-4.237,39.321-4.665V265.492z M248.542,196.924
			c-15.188,0.451-29.938,2.272-43.693,5.314c-3.961-15.296-6.051-31.216-6.557-46.943h50.25V196.924z M248.542,140.306h-50.25
			c0.516-16.096,2.686-32.009,6.556-46.944c13.757,3.043,28.507,4.864,43.694,5.314V140.306z M248.542,83.668
			c-13.697-0.429-26.966-2.015-39.321-4.665c6.738-19.031,19.887-43.463,39.321-48.895V83.668z M351.525,77.31
			c13.838,18.887,21.567,40.014,23.006,62.995h-45.746c-0.524-18.206-2.943-35.338-6.915-50.758
			C332.712,86.265,342.704,82.158,351.525,77.31z M341.644,65.605c-7.252,3.746-15.352,6.959-24.078,9.603
			c-5.377-15.534-12.467-28.788-20.815-38.947C313.666,42.446,329.108,52.533,341.644,65.605z M263.532,30.109
			c15.969,4.457,30.117,22.89,39.321,48.895c-12.357,2.65-25.625,4.237-39.321,4.665V30.109z M263.532,98.676
			c15.188-0.451,29.938-2.272,43.694-5.314c3.703,14.294,6.019,30.211,6.556,46.944h-50.25V98.676z M263.532,155.295h50.25
			c-0.537,16.733-2.853,32.65-6.556,46.944c-13.757-3.043-28.508-4.865-43.694-5.315V155.295z M263.532,265.491v-53.56
			c13.697,0.429,26.965,2.015,39.321,4.665C293.649,242.601,279.501,261.034,263.532,265.491z M296.743,259.349
			c8.352-10.161,15.444-23.419,20.825-38.958c8.725,2.645,16.826,5.858,24.078,9.604C329.22,242.93,313.903,253.068,296.743,259.349
			z M321.871,206.053c3.972-15.42,6.392-32.552,6.915-50.757h45.746c-1.471,23.49-9.798,45.149-23.005,62.994
			C342.705,213.442,332.713,209.334,321.871,206.053z"/>
	</g>
</g>
<g>
	<g>
		<path d="M467.724,145.666c-18.498-17.662-49.592-3.282-47.728,22.57l4.32,59.924c0.177,2.447,0.673,4.836,1.465,7.139l-0.95,2.284
			c-7.039-4.252-16.752-5.919-27.552,0.11c-7.745,4.322-14.38,7.996-20.098,11.162c-29.329,16.239-35.546,19.682-43.146,28.706
			c-0.07,0.08-0.139,0.161-0.206,0.244c-24.255,30.081-29.592,37.197-35.387,58.709c-4.219,15.659-7.197,32.023-8.881,48.744
			l-4.06-0.298c-4.216-0.307-8.298,1.042-11.497,3.804c-3.2,2.762-5.131,6.605-5.439,10.821l-5.954,81.26
			c-0.676,9.215,6.635,17.082,15.876,17.082h109.893c8.356,0,15.38-6.529,15.991-14.863l1.215-16.584
			c0.303-4.128-2.799-7.72-6.927-8.023c-4.125-0.3-7.72,2.799-8.023,6.927l-1.215,16.584c-0.04,0.543-0.498,0.968-1.041,0.968
			H278.485c-0.269,0-0.498-0.1-0.681-0.297c-0.183-0.197-0.266-0.432-0.246-0.701l5.954-81.261c0.017-0.228,0.113-0.42,0.287-0.569
			c0.174-0.15,0.377-0.216,0.606-0.201c44.967,3.295,57.607,4.221,109.602,8.03c0.459,0.034,0.805,0.435,0.771,0.892l-1.581,21.577
			c-0.303,4.128,2.799,7.72,6.927,8.023c4.122,0.306,7.72-2.799,8.023-6.927l1.581-21.577c0.637-8.7-5.924-16.298-14.625-16.936
			l-3.784-0.277l0.38-5.186c0.483-6.589,2.867-12.864,6.895-18.147c8.588-11.262,9.942-10.674,53.261-34.848
			c11.395-6.39,23.34-20.498,26.929-37.263c0.088-0.323,32.166-118.265,32.235-118.592
			C518.062,145.303,485.547,132.375,467.724,145.666z M458.181,157.348c0,0-20.399,49.11-20.4,49.114l-2.833-39.303
			C434.032,154.464,449.841,147.908,458.181,157.348z M496.391,175.389c-0.088,0.323-32.159,118.237-32.228,118.565
			c-3.321,15.709-14.82,24.463-19.778,27.58c-43.33,24.177-46.974,24.676-57.712,38.758c-5.797,7.602-9.23,16.642-9.925,26.141
			l-0.38,5.186l-71.855-5.264c1.61-15.771,4.429-31.191,8.402-45.94c4.881-18.116,8.263-23.038,32.477-53.068
			c5.665-7.026,12.775-10.83,39.048-25.378c5.731-3.174,12.382-6.855,20.142-11.187c6.247-3.487,12.372-2.654,16.851,3.861
			c0.775,1.13,4.33,7.01-1.908,11.738c-12.124,9.189-40.889,31.171-41.179,31.393c-3.289,2.513-3.917,7.217-1.404,10.506
			c2.513,3.289,7.217,3.917,10.506,1.404c0.289-0.221,29.031-22.185,41.131-31.356c11.184-8.478,10.822-20.374,7.321-28.338
			c34.621-83.199,33.367-80.117,33.649-80.988c2.92-9.123,8.245-15.256,17.536-13.09
			C498.872,159.233,497.01,172.295,496.391,175.389z"/>
	</g>
</g>
<g>
	<g>
		<path d="M249.392,480.847l-5.954-81.261c-0.309-4.215-2.24-8.059-5.439-10.821c-3.2-2.763-7.286-4.111-11.497-3.804l-4.06,0.298
			c-1.684-16.721-4.663-33.084-8.881-48.743c-5.795-21.512-11.131-28.629-35.387-58.71c-8.676-10.767-18.103-14.808-63.449-40.113
			c-10.802-6.029-20.514-4.362-27.552-0.111l-0.951-2.285c1.617-4.698,1.04-1.256,5.785-67.062
			c1.864-25.853-29.23-40.23-47.727-22.57C26.466,132.382-6.063,145.3,0.983,178.678c0.069,0.327,32.147,118.267,32.235,118.589
			c3.559,16.52,15.311,30.75,26.929,37.266c43.318,24.175,44.673,23.587,53.261,34.848c5.749,7.539,6.681,14.128,7.322,23.329
			l-3.832,0.281c-8.701,0.639-15.262,8.237-14.624,16.937l5.358,73.137c0.611,8.334,7.635,14.863,15.991,14.863h32.956
			c4.139,0,7.495-3.356,7.495-7.495s-3.356-7.495-7.495-7.495h-32.956c-0.544,0-1.001-0.426-1.041-0.968l-5.358-73.138
			c-0.034-0.458,0.313-0.858,0.771-0.892c11.856-0.868,96.195-7.047,109.603-8.03c0.224-0.015,0.432,0.051,0.605,0.201
			c0.173,0.149,0.27,0.341,0.287,0.57l5.954,81.261c0.02,0.268-0.063,0.504-0.246,0.701c-0.183,0.197-0.413,0.297-0.681,0.297
			h-41.961c-4.139,0-7.495,3.356-7.495,7.495s3.356,7.495,7.495,7.495h41.961C242.755,497.929,250.067,490.062,249.392,480.847z
			 M77.053,167.158l-2.833,39.303c-22.729-54.618-18.728-45.845-20.4-49.114C62.167,147.899,77.968,154.481,77.053,167.158z
			 M135.68,391.616c-0.735-10.439-2.076-20.47-10.354-31.324c-10.743-14.086-14.405-14.593-57.712-38.758
			c-4.957-3.117-16.456-11.871-19.794-27.656c-0.026-0.116-0.056-0.237-0.088-0.356L15.61,175.39
			c-0.621-3.093-2.483-16.157,9.303-19.476c6.069-1.415,10.475,0.554,13.937,5.553c1.543,2.228-2.095-6.021,37.249,88.525
			c-3.5,7.964-3.863,19.859,7.322,28.338c12.1,9.172,40.842,31.136,41.131,31.356c3.296,2.518,7.998,1.878,10.506-1.404
			c2.513-3.29,1.885-7.993-1.404-10.506c-0.29-0.221-29.055-22.203-41.178-31.393c-6.591-4.996-3.179-12.617,2.76-16.16
			c3.686-2.198,7.558-2.021,12.184,0.562c46.11,25.732,52.093,28.098,59.174,36.544c25.857,30.839,28.612,38.677,32.494,53.089
			c3.973,14.749,6.792,30.168,8.402,45.939L135.68,391.616z"/>
	</g>
</g>
<g>
</g>
<g>
</g>
<g>
</g>
<g>
</g>
<g>
</g>
<g>
</g>
<g>
</g>
<g>
</g>
<g>
</g>
<g>
</g>
<g>
</g>
<g>
</g>
<g>
</g>
<g>
</g>
<g>
</g>
</svg>
