<?xml version="1.0" encoding="iso-8859-1"?>
<!-- Generator: Adobe Illustrator 19.0.0, SVG Export Plug-In . SVG Version: 6.00 Build 0)  -->
<svg version="1.1" id="Capa_1" xmlns="http://www.w3.org/2000/svg" xmlns:xlink="http://www.w3.org/1999/xlink" x="0px" y="0px"
	 viewBox="0 0 512 512" style="enable-background:new 0 0 512 512;" xml:space="preserve">
<g>
	<g>
		<path d="M249.391,480.848l-5.954-81.26c-0.639-8.724-8.213-15.262-16.936-14.625l-4.06,0.298
			c-1.684-16.721-4.663-33.084-8.881-48.743c-5.795-21.512-11.131-28.63-35.387-58.71c-8.676-10.767-18.103-14.808-63.449-40.113
			c-10.802-6.029-20.514-4.362-27.552-0.111l-0.951-2.285c0.792-2.303,1.288-4.691,1.465-7.139l4.32-59.923
			c1.864-25.849-29.224-40.231-47.727-22.57C26.438,132.36-6.056,145.34,0.982,178.679c0.069,0.327,32.147,118.268,32.235,118.589
			c3.559,16.52,15.311,30.75,26.929,37.266c43.319,24.175,44.673,23.587,53.261,34.848c5.749,7.539,6.681,14.128,7.322,23.33
			c-4.132,0.303-9.818,0.122-14.652,5.72c-2.762,3.199-4.113,7.282-3.804,11.497l5.358,73.137
			c0.611,8.334,7.635,14.863,15.991,14.863h109.893C242.756,497.93,250.067,490.063,249.391,480.848z M77.052,167.159l-2.833,39.303
			c-23.297-55.985-18.658-45.708-20.4-49.114C62.166,147.9,77.966,154.481,77.052,167.159z M67.614,321.535
			c-4.957-3.117-16.456-11.871-19.794-27.656c-0.026-0.116-0.056-0.237-0.088-0.356L15.609,175.39
			c-0.621-3.093-2.483-16.157,9.303-19.476c6.069-1.415,10.475,0.553,13.937,5.553c1.543,2.228-2.095-6.021,37.249,88.525
			c-3.5,7.964-3.863,19.859,7.322,28.338c44.413,33.664,42.014,32.897,45.677,32.897c7.129-0.002,10.248-9.101,4.557-13.45
			c-0.29-0.221-29.055-22.203-41.178-31.393c-6.592-4.996-3.179-12.617,2.76-16.16c3.686-2.199,7.558-2.021,12.184,0.562
			c46.11,25.733,52.093,28.098,59.174,36.544c0.005,0.006,0.01,0.012,0.016,0.019c24.218,30.035,27.597,34.953,32.478,53.07
			c3.973,14.749,6.792,30.169,8.402,45.94l-71.807,5.261c-0.737-10.442-2.079-20.473-10.356-31.328
			C114.583,346.206,110.92,345.699,67.614,321.535z M234.195,482.643c-0.183,0.197-0.413,0.297-0.681,0.297H123.622
			c-0.544,0-1.001-0.426-1.041-0.968c-5.643-77.026-5.587-73.957-4.588-74.03c0.052-0.004,109.62-8.033,109.671-8.033
			c1.194,0,0.372-5.401,6.778,82.032C234.46,482.211,234.378,482.446,234.195,482.643z"/>
	</g>
</g>
<g>
	<g>
		<path d="M467.723,145.665c-18.498-17.662-49.591-3.281-47.728,22.571c4.67,64.779,4.14,62.283,5.785,67.062l-0.95,2.285
			c-7.04-4.252-16.753-5.919-27.552,0.11c-45.262,25.259-54.762,29.333-63.45,40.114c-24.256,30.081-29.592,37.197-35.387,58.709
			c-4.219,15.659-7.197,32.023-8.881,48.744l-4.06-0.298c-8.746-0.636-16.3,5.92-16.938,14.625l-5.954,81.26
			c-0.676,9.215,6.635,17.082,15.876,17.082h109.893c8.356,0,15.381-6.529,15.991-14.863l1.73-23.607
			c0.303-4.128-2.799-7.72-6.927-8.023c-4.127-0.302-7.721,2.799-8.023,6.927l-1.73,23.607c-0.04,0.543-0.498,0.968-1.041,0.968
			c-116.791,0-110.925,0.45-110.82-0.997c6.278-85.682,5.846-82.098,6.845-82.03c116.083,8.504,110.465,7.681,110.374,8.922
			l-1.066,14.554c-0.303,4.128,2.799,7.721,6.927,8.023c4.132,0.304,7.721-2.799,8.023-6.927l1.066-14.555
			c0.637-8.7-5.924-16.298-14.625-16.937l-3.831-0.281c0.641-9.201,1.573-15.791,7.322-23.329
			c8.588-11.262,9.942-10.674,53.261-34.848c11.395-6.39,23.34-20.498,26.929-37.263c0.088-0.323,32.166-118.266,32.235-118.592
			C518.061,145.312,485.55,132.371,467.723,145.665z M458.177,157.352c-0.277,0.542-20.167,48.525-20.4,49.087l-2.831-39.28
			C434.03,154.443,449.845,147.918,458.177,157.352z M496.39,175.389c-0.088,0.323-32.159,118.238-32.228,118.565
			c-3.321,15.709-14.82,24.463-19.778,27.58c-43.331,24.177-46.974,24.676-57.712,38.758c-8.277,10.855-9.618,20.886-10.353,31.324
			l-71.808-5.26c1.61-15.771,4.429-31.191,8.402-45.94c4.881-18.116,8.263-23.038,32.477-53.068
			c6.717-8.331,15.12-11.969,59.191-36.564c9.703-5.416,15.255,1.441,16.683,3.607c0,0.001,0.167,0.254,0.168,0.255
			c0.775,1.13,4.33,7.01-1.908,11.738c-12.124,9.189-40.889,31.171-41.179,31.393c-3.289,2.513-3.917,7.217-1.404,10.506
			c2.513,3.289,7.217,3.917,10.506,1.404c0.289-0.221,29.031-22.185,41.131-31.356c11.184-8.478,10.822-20.374,7.321-28.338
			c45.313-108.894,34.134-82.51,37.711-89.299C481.627,150.108,500.307,155.835,496.39,175.389z"/>
	</g>
</g>
<g>
	<g>
		<path d="M345.924,232.245l-55.561-86.123l55.56-86.052c1.744-2.702,1.571-6.215-0.431-8.731l-27.389-34.437
			c-1.438-1.808-3.659-2.83-5.866-2.83h-38.085c-4.139,0-7.495,3.356-7.495,7.495c0,4.139,3.356,7.495,7.495,7.495h24.331
			l-12.546,19.447H227.39c-4.809-7.454-7.988-12.382-12.546-19.447h24.331c4.139,0,7.495-3.356,7.495-7.495
			c0-4.139-3.356-7.495-7.495-7.495c-43.561,0-37.484-0.008-38.297,0.014c-2.256,0.06-4.307,1.122-5.654,2.815l-27.389,34.437
			c-2.002,2.516-2.174,6.029-0.431,8.73l55.558,86.055l-55.561,86.123c-2.406,3.729-1.057,8.725,2.892,10.74
			c40.369,20.593,38.167,19.82,40.646,19.82c2.473,0,4.878-1.226,6.302-3.431l39.421-61.057l39.421,61.057
			c2.086,3.23,6.277,4.358,9.702,2.611l37.246-19C346.986,240.967,348.327,235.971,345.924,232.245z M276.265,63.499l-19.603,30.386
			L237.06,63.499H276.265z M182.913,56.458l17.539-22.051c5.23,8.107,42.214,65.436,47.29,73.303l-15.863,24.588L182.913,56.458z
			 M208.32,245.556l-23.826-12.155L312.872,34.407l17.539,22.052C324.578,65.492,211.293,240.952,208.32,245.556z M305.004,245.557
			l-39.421-61.055c8.076-12.511,7.734-11.98,15.856-24.559l47.391,73.46L305.004,245.557z"/>
	</g>
</g>
<g>
</g>
<g>
</g>
<g>
</g>
<g>
</g>
<g>
</g>
<g>
</g>
<g>
</g>
<g>
</g>
<g>
</g>
<g>
</g>
<g>
</g>
<g>
</g>
<g>
</g>
<g>
</g>
<g>
</g>
</svg>
