<?xml version="1.0" encoding="iso-8859-1"?>
<!-- Generator: Adobe Illustrator 19.0.0, SVG Export Plug-In . SVG Version: 6.00 Build 0)  -->
<svg version="1.1" id="Capa_1" xmlns="http://www.w3.org/2000/svg" xmlns:xlink="http://www.w3.org/1999/xlink" x="0px" y="0px"
	 viewBox="0 0 512 512" style="enable-background:new 0 0 512 512;" xml:space="preserve">
<g>
	<g>
		<path d="M271.759,38.074h-31.52c-4.143,0-7.5,3.358-7.5,7.5c0,4.142,3.357,7.5,7.5,7.5h31.52c4.143,0,7.5-3.358,7.5-7.5
			C279.26,41.432,275.903,38.074,271.759,38.074z"/>
	</g>
</g>
<g>
	<g>
		<path d="M277.584,441.511h-43.169c-10.025,0-18.182,8.156-18.182,18.182v7.007c0.001,10.025,8.157,18.181,18.182,18.181h43.169
			c10.025,0,18.182-8.156,18.182-18.181v-7.007C295.766,449.667,287.609,441.511,277.584,441.511z M280.766,466.7
			c0,1.724-1.457,3.18-3.181,3.18h-43.169c-1.724,0-3.181-1.457-3.181-3.18v-7.007c0-1.724,1.457-3.181,3.181-3.181h43.169
			c1.724,0,3.181,1.457,3.181,3.181V466.7z"/>
	</g>
</g>
<g>
	<g>
		<path d="M362.5,75.206H149.498c-7.518,0-13.645,6.116-13.645,13.645l0.001,326.846c0.001,7.522,6.121,13.643,13.644,13.643H362.5
			c7.523,0,13.645-6.12,13.645-13.643c0-4.348,0-319.834,0-326.846C376.145,81.328,370.025,75.206,362.5,75.206z M150.856,90.206
			h28.878v32.561h-28.878V90.206z M361.144,414.338H150.856v-276.57c11.084,0,202.406,0,210.288,0V414.338z M361.144,122.767
			H194.735V90.206h166.409V122.767z"/>
	</g>
</g>
<g>
	<g>
		<path d="M323.025,370.806H188.975c-4.143,0-7.5,3.358-7.5,7.5c0,4.142,3.357,7.5,7.5,7.5h134.049c4.143,0,7.5-3.358,7.5-7.5
			C330.525,374.165,327.167,370.806,323.025,370.806z"/>
	</g>
</g>
<g>
	<g>
		<path d="M320.585,320.14l-38.25-59.291l38.248-59.24c1.745-2.704,1.572-6.219-0.431-8.738l-19.241-24.192
			c-1.382-1.735-3.599-2.831-5.87-2.831H216.96c-2.244,0-4.486,1.089-5.87,2.832l-19.241,24.191
			c-2.003,2.518-2.176,6.033-0.431,8.737l38.247,59.24l-38.25,59.291c-2.408,3.733-1.058,8.733,2.895,10.748l26.165,13.348
			c3.428,1.748,7.622,0.62,9.71-2.613l25.816-39.984l25.817,39.984c2.087,3.232,6.281,4.361,9.71,2.613l26.165-13.348
			C321.646,328.871,322.991,323.871,320.585,320.14z M281.275,180.851l-5.929,9.191h-38.691l-5.929-9.191H281.275z M265.668,205.042
			l-9.669,14.987l-9.669-14.987H265.668z M206.939,197.996l9.384-11.797c1.398,2.167,22.895,35.49,30.751,47.666l-8.485,13.151
			L206.939,197.996z M221.256,327.795l-12.736-6.497c3.517-5.452,84.055-130.291,87.156-135.099l9.384,11.798
			C303.646,200.187,224.815,322.284,221.256,327.795z M290.744,327.795l-25.815-39.983l8.477-13.13l30.074,46.617L290.744,327.795z"
			/>
	</g>
</g>
<g>
	<g>
		<path d="M401.032,270.849c-4.143,0-7.5,3.358-7.5,7.5v202.015c0,9.172-7.461,16.633-16.633,16.633H273.501
			c-4.143,0-7.5,3.358-7.5,7.5s3.357,7.5,7.5,7.5h103.398c17.442,0,31.634-14.191,31.634-31.634V278.35
			C408.533,274.208,405.174,270.849,401.032,270.849z"/>
	</g>
</g>
<g>
	<g>
		<path d="M376.899,0H135.101c-17.442,0-31.634,14.191-31.634,31.634v448.732c0,17.443,14.191,31.634,31.634,31.634h103.398
			c4.143,0,7.5-3.358,7.5-7.5s-3.357-7.5-7.5-7.5H135.101c-9.172,0-16.633-7.461-16.633-16.633V31.634
			c0-9.172,7.461-16.633,16.633-16.633h241.798c9.172,0,16.633,7.461,16.633,16.633v211.715c0,4.142,3.357,7.5,7.5,7.5
			s7.5-3.358,7.5-7.5V31.634C408.533,14.191,394.341,0,376.899,0z"/>
	</g>
</g>
<g>
</g>
<g>
</g>
<g>
</g>
<g>
</g>
<g>
</g>
<g>
</g>
<g>
</g>
<g>
</g>
<g>
</g>
<g>
</g>
<g>
</g>
<g>
</g>
<g>
</g>
<g>
</g>
<g>
</g>
</svg>
