<?xml version="1.0" encoding="iso-8859-1"?>
<!-- Generator: Adobe Illustrator 19.0.0, SVG Export Plug-In . SVG Version: 6.00 Build 0)  -->
<svg version="1.1" id="Capa_1" xmlns="http://www.w3.org/2000/svg" xmlns:xlink="http://www.w3.org/1999/xlink" x="0px" y="0px"
	 viewBox="0 0 512 512" style="enable-background:new 0 0 512 512;" xml:space="preserve">
<g>
	<g>
		<path d="M508.062,476.025l-27.261-42.257c-2.247-3.481-6.888-4.482-10.369-2.236c-3.48,2.246-4.482,6.887-2.236,10.369
			l22.761,35.281l-34.415,17.557l-52.427-81.201c11.304-17.507,5.405-8.372,22.901-35.47l22.185,34.389
			c2.246,3.48,6.888,4.48,10.369,2.236c3.48-2.246,4.482-6.887,2.236-10.369l-25.861-40.086l72.115-111.695
			c1.745-2.703,1.572-6.218-0.431-8.737l-35.184-44.238c-1.006-1.264-2.415-2.197-4.092-2.606
			c-1.285-0.314-1.262-0.226-14.062-0.226c-7.841-59.168-38.699-112.629-85.845-149.233C328.737,16.676,280.005,0,229.508,0
			c-0.001,0-0.002,0-0.004,0C105.022,0,2.739,100.68,2.739,226.769c0,128.9,105.774,226.949,226.886,226.949
			c25.457,0,50.973-4.353,75.52-13.09l-22.835,35.396c-2.408,3.732-1.059,8.731,2.894,10.748l47.845,24.407
			c3.428,1.748,7.622,0.62,9.71-2.613l52.427-81.201l52.427,81.201c2.089,3.235,6.286,4.36,9.71,2.612l47.845-24.406
			C509.125,484.753,510.467,479.753,508.062,476.025z M222.008,15.541v105.5c-28.437-0.505-55.94-3.875-81.166-9.78
			C153.976,71.646,181.258,21.267,222.008,15.541z M177.515,21.467c-24.455,21.526-41.075,55.06-51.222,86.035
			c-20.134-5.709-38.522-13.112-54.376-22.031C99.2,55.072,135.698,32.042,177.515,21.467z M222.008,317.495
			c-29.908,0.516-58.897,4.114-85.528,10.431c-7.906-28.562-12.353-60.434-12.937-93.654h98.464L222.008,317.495L222.008,317.495z
			 M62.16,97.156c17.343,10.06,37.59,18.367,59.815,24.687c-8.228,29.82-12.848,62.969-13.435,97.427H17.887
			C19.443,174.715,34.894,132.272,62.16,97.156z M62.037,356.455c-26.915-34.588-42.589-77.049-44.158-122.185h90.661
			c0.587,34.458,5.206,67.606,13.435,97.427C99.697,338.031,79.407,346.363,62.037,356.455z M71.829,368.118
			c15.873-8.943,34.293-16.36,54.465-22.08c10.18,31.077,26.832,64.6,51.287,86.092C137.074,421.751,99.989,399.357,71.829,368.118z
			 M222.009,437.999c-41.025-5.765-68.125-56.385-81.166-95.721c25.225-5.904,52.729-9.275,81.166-9.78V437.999z M222.009,219.27
			h-98.465v-0.001c0.583-33.221,5.03-65.093,12.937-93.654c26.63,6.316,55.62,9.915,85.528,10.431V219.27z M412.688,255.975h11.584
			l-29.086,45.085l-29.085-45.085h11.585c4.142,0,7.5-3.358,7.5-7.5c0-4.142-3.358-7.5-7.5-7.5h-21.261l-18.862-29.237
			c11.83,0,103.484,0,115.249,0l-18.862,29.237h-21.261c-4.142,0-7.5,3.358-7.5,7.5
			C405.188,252.617,408.546,255.975,412.688,255.975z M386.261,314.896l-22.908,35.509L297.834,248.93l25.326-31.843
			L386.261,314.896z M397.171,96.975c22.308,28.842,36.813,63.023,41.996,99.762h-89.665c-1.838-26.349-6.092-51.663-12.493-74.884
			C359.382,115.494,379.751,107.121,397.171,96.975z M387.2,85.416c-15.883,8.949-34.316,16.372-54.503,22.094
			c-10.118-30.952-26.64-64.436-51.345-86.092C321.901,31.616,358.751,53.675,387.2,85.416z M237.009,15.553
			c40.897,5.951,68.089,56.231,81.145,95.713c-25.219,5.901-52.716,9.271-81.145,9.775V15.553z M237.009,136.045
			c29.894-0.516,58.872-4.11,85.492-10.422c6.077,21.992,10.157,46.026,11.97,71.113h-10.673c-2.201,0-4.43,1.021-5.87,2.832
			l-15.67,19.701h-65.249V136.045z M237.009,234.27h53.318l-7.583,9.536c-1.998,2.512-2.181,6.027-0.431,8.737
			c4.973,7.703,38.647,59.859,42.621,66.014c-0.775,3.169-1.589,6.286-2.436,9.357c-26.788-6.357-55.761-9.91-85.489-10.421V234.27z
			 M237.009,437.995V332.491c28.243,0.502,55.736,3.835,81.146,9.796C299.988,397.407,269.881,433.231,237.009,437.995z
			 M281.312,432.185c24.551-21.521,41.152-54.851,51.377-86.132c4.224,1.199,8.385,2.469,12.465,3.821l9.274,14.363
			c-4.232,6.56-31.044,48.12-35.06,54.345C307.597,424.098,294.857,428.752,281.312,432.185z M333.832,494.738l-34.416-17.557
			c2.766-4.288,164.232-254.572,167.796-260.096l25.326,31.844C489.294,253.954,338.698,487.202,333.832,494.738z"/>
	</g>
</g>
<g>
</g>
<g>
</g>
<g>
</g>
<g>
</g>
<g>
</g>
<g>
</g>
<g>
</g>
<g>
</g>
<g>
</g>
<g>
</g>
<g>
</g>
<g>
</g>
<g>
</g>
<g>
</g>
<g>
</g>
</svg>
