<svg xmlns="http://www.w3.org/2000/svg" viewBox="0 0 65.2 68.21"><defs><style>.cls-1{fill:#fecd97;}.cls-2{opacity:0.2;}.cls-3{fill:#871e44;}.cls-4{fill:#f4df02;}.cls-5{fill:#f3ab87;}.cls-6{fill:#fff;}</style></defs><title>Ресурс 4</title><g id="Слой_2" data-name="Слой 2"><g id="Layer_1" data-name="Layer 1"><path class="cls-1" d="M1.48,67.74A.47.47,0,0,1,1,67.28L.47,20.62a.47.47,0,0,1,.46-.47l62.79-.74a.47.47,0,0,1,.47.46l.55,46.66a.47.47,0,0,1-.46.47Z"/><path class="cls-2" d="M64.19,19.75a.47.47,0,0,0-.47-.46l-3.58,0,.51,43.46a.47.47,0,0,1-.46.47L1,64l0,3.2a.47.47,0,0,0,.47.46l62.79-.74a.47.47,0,0,0,.46-.47Z"/><path class="cls-3" d="M63.72,19.87l.55,46.66-62.79.74L.93,20.62l62.79-.74Zm0-.93h0L.92,19.68a.93.93,0,0,0-.92.94L.55,67.29a.93.93,0,0,0,.93.92h0l62.79-.74a.93.93,0,0,0,.92-.94l-.55-46.66a.93.93,0,0,0-.93-.92Z"/><path class="cls-3" d="M33.92,57.06l0,3.55-2.39,0,0-3.45a13.36,13.36,0,0,1-6.2-1.43l-.05-4.53a9.53,9.53,0,0,0,2.85,1.39,13,13,0,0,0,3.36.71l-.07-6a12.66,12.66,0,0,1-5.26-3,6.08,6.08,0,0,1-1.45-4,6,6,0,0,1,1.76-4.4,7.63,7.63,0,0,1,4.79-2.16l0-3,2.39,0,0,3a12.12,12.12,0,0,1,5.17,1.05l.05,4.42a12.38,12.38,0,0,0-5.17-1.64l.07,6.2a13.14,13.14,0,0,1,5.17,2.89,5.67,5.67,0,0,1,1.6,4A5.78,5.78,0,0,1,38.86,55,8.28,8.28,0,0,1,33.92,57.06ZM31.36,42.77l-.06-5.19Q29,38,29.06,40,29.08,41.67,31.36,42.77Zm2.45,5.5.06,5q2.34-.39,2.31-2.37Q36.17,49.26,33.82,48.28Z"/><path class="cls-4" d="M.94,21a.47.47,0,0,1-.4-.7L11.84,1.17a.47.47,0,0,1,.4-.23L52,.47a.47.47,0,0,1,.4.22L64.13,19.56a.47.47,0,0,1-.39.71Z"/><path class="cls-2" d="M64.13,19.44,52.38.57A.47.47,0,0,0,52,.35l-3.44,0L58.3,16.06a.47.47,0,0,1-.39.71l-55.74.66L.54,20.19a.47.47,0,0,0,.4.7l62.79-.74a.47.47,0,0,0,.39-.71Z"/><path class="cls-3" d="M52,.93,63.73,19.81.94,20.55,12.24,1.4,52,.93ZM52,0h0L12.23.47a.93.93,0,0,0-.79.46L.14,20.07a.93.93,0,0,0,.8,1.41H1l62.79-.74a.93.93,0,0,0,.78-1.43L52.78.44A.93.93,0,0,0,52,0Z"/><path class="cls-5" d="M19.55,13.59a2.34,2.34,0,0,1-2.33-2.3v-.88a2.34,2.34,0,0,1,2.3-2.36l25.36-.3a2.34,2.34,0,0,1,2.36,2.3v.88a2.34,2.34,0,0,1-2.3,2.36Z"/><path class="cls-2" d="M47,10.06a2.34,2.34,0,0,0-1.85-2.25,2.28,2.28,0,0,1,.1.61V9.3A2.33,2.33,0,0,1,43,11.66L17.57,12a2.31,2.31,0,0,1-.48-.05,2.33,2.33,0,0,0,2.23,1.68l25.39-.3A2.34,2.34,0,0,0,47,10.93Z"/><path class="cls-3" d="M44.9,8.22a1.87,1.87,0,0,1,1.87,1.84v.88a1.87,1.87,0,0,1-1.84,1.89l-25.36.3h0a1.87,1.87,0,0,1-1.87-1.84v-.88a1.87,1.87,0,0,1,1.84-1.89l25.36-.3Zm0-.93h0l-25.36.3a2.8,2.8,0,0,0-2.76,2.83v.88a2.81,2.81,0,0,0,2.8,2.76l25.39-.3a2.8,2.8,0,0,0,2.76-2.83v-.88a2.81,2.81,0,0,0-2.8-2.77Z"/><path class="cls-6" d="M3.28,43.27a.93.93,0,0,1-.93-.93V23.69a.93.93,0,0,1,.93-.93h15a.93.93,0,1,1,0,1.87H4.21V42.34A.93.93,0,0,1,3.28,43.27Z"/><path class="cls-6" d="M10.27,8.77a.47.47,0,0,1-.41-.69l2.8-5.25a.47.47,0,0,1,.41-.25H26.71a.47.47,0,0,1,0,.93H13.35l-2.67,5A.47.47,0,0,1,10.27,8.77Z"/></g></g></svg>