<svg xmlns="http://www.w3.org/2000/svg" viewBox="0 0 110.12 114.78"><defs><style>.cls-1{fill:#01c7ff;}.cls-2{opacity:0.2;}.cls-3{fill:#871e44;}.cls-4{fill:#fecd97;}.cls-5{fill:#f23a52;}.cls-6{fill:#fff;}</style></defs><title>Ресурс 9</title><g id="Слой_2" data-name="Слой 2"><g id="Layer_1" data-name="Layer 1"><path class="cls-1" d="M44.3,114c-7.43,0-13.62-3.2-17-8.78s-3.08-12.52-2.78-18.57c.08-1.6.16-3.26.16-4.8a2.89,2.89,0,0,1,5.78,0c0,1.69-.09,3.49-.17,5.09C30,92.39,29.73,98,32.24,102.2c3.16,5.22,8.91,6,12.05,6A18.85,18.85,0,0,0,57.69,103c3.51-3.63,3.43-8.18,3.34-13.45,0-.88,0-1.77,0-2.65V22c0-.77-.45-19.45,18.83-21.21h.33c2,0,19.46.63,20.85,22.3,0,0,0,42.78,0,42.78a2.89,2.89,0,0,1-5.78,0V23.35C94.18,7.39,82.66,6.58,80.37,6.58H80.2C66.15,7.86,66.75,21.24,66.78,21.81c0,0,0,65.05,0,65.05,0,.78,0,1.56,0,2.33v.22c.11,6,.22,12.23-5,17.58a24.72,24.72,0,0,1-17.55,7Z"/><g class="cls-2"><path d="M78,4.77H77.8C63.74,6.06,64.35,19.44,64.38,20c0,0,0,65.05,0,65.05,0,.78,0,1.56,0,2.33v.22c.11,6,.22,12.23-5,17.58a24.72,24.72,0,0,1-17.55,7A21,21,0,0,1,30,108.77a20.31,20.31,0,0,0,13.65,4.81,24.72,24.72,0,0,0,17.55-7c5.18-5.35,5.07-11.57,5-17.58v-.22c0-.77,0-1.55,0-2.33,0,0,0-65,0-65.05,0-.57-.64-13.95,13.42-15.23h.16a14.84,14.84,0,0,1,7.7,2.28A14.58,14.58,0,0,0,78,4.77Z"/><path d="M28.06,80c0,1.69-.09,3.49-.17,5.09-.28,5.48-.56,11.14,1.95,15.29a11.47,11.47,0,0,0,3.73,3.8,11.59,11.59,0,0,1-1.93-2.4c-2.51-4.15-2.22-9.81-1.95-15.29.08-1.6.17-3.41.17-5.09a2.89,2.89,0,0,0-2.17-2.79A2.86,2.86,0,0,1,28.06,80Z"/><path d="M100.41,22.7c-.65-10.07-4.77-15.6-9.19-18.63,3.69,3.24,6.83,8.54,7.39,17.23,0,0,0,42.78,0,42.78A2.9,2.9,0,0,1,95.72,67a2.86,2.86,0,0,1-.72-.1,2.88,2.88,0,0,0,5.41-1.39S100.41,22.72,100.41,22.7Z"/></g><path class="cls-3" d="M80.16,1.6c2.26,0,18.72.76,20.05,21.55,0,0,0,.09,0,.13V65.88a2.09,2.09,0,1,1-4.18,0V23.35C94.91,6.3,82.14,5.77,80.37,5.77h-.18C65.32,7.13,65.95,21.25,66,21.85c0,0,0,.09,0,.12V86.86c0,.86,0,1.71,0,2.56.1,5.85.21,11.89-4.74,17a23.91,23.91,0,0,1-17,6.75h0c-7.14,0-13.09-3.06-16.32-8.4s-3-12.18-2.66-18.12c.09-1.7.17-3.31.17-4.84a2.09,2.09,0,1,1,4.18,0c0,1.64-.09,3.37-.17,5.05-.28,5.6-.57,11.39,2.06,15.74C34.92,108.16,41,109,44.3,109h0a19.66,19.66,0,0,0,14-5.47c3.75-3.87,3.66-8.58,3.57-14,0-.87,0-1.75,0-2.63V22c-.05-1.45-.24-18.74,18.1-20.41Zm0-1.6h-.36c-16,1.46-19.86,14.55-19.6,22.06V86.86c0,.89,0,1.78,0,2.66.09,5.31.17,9.5-3.12,12.89a18,18,0,0,1-12.82,5c-3,0-8.42-.73-11.37-5.61-2.38-3.94-2.1-9.48-1.84-14.83.08-1.61.17-3.44.17-5.13a3.69,3.69,0,1,0-7.39,0c0,1.5-.08,3.08-.16,4.76-.31,6.17-.66,13.15,2.89,19s10,9.17,17.69,9.17a25.54,25.54,0,0,0,18.13-7.23c5.41-5.59,5.3-12.27,5.19-18.15v-.14c0-.79,0-1.59,0-2.39V22c0-.08,0-.17,0-.25-.07-1.31-.36-13.13,12.69-14.35h.1c2.17,0,13,.77,14.06,16V65.88a3.69,3.69,0,1,0,7.39,0V23.29c0-.08,0-.16,0-.24C100.38.65,82.23,0,80.16,0Z"/><rect class="cls-4" x="14.39" y="62.46" width="26.95" height="22.77" rx="8.81" ry="8.81"/><path class="cls-2" d="M35.55,63.16a8.75,8.75,0,0,1,1.38,4.71V73a8.82,8.82,0,0,1-8.81,8.81H18.8a8.76,8.76,0,0,1-3.43-.69,8.81,8.81,0,0,0,7.43,4.1h9.32a8.82,8.82,0,0,0,8.81-8.81V71.28A8.83,8.83,0,0,0,35.55,63.16Z"/><path class="cls-3" d="M32.52,63.26a8,8,0,0,1,8,8v5.14a8,8,0,0,1-8,8H23.2a8,8,0,0,1-8-8V71.28a8,8,0,0,1,8-8Zm0-1.6H23.2a9.62,9.62,0,0,0-9.61,9.61v5.14A9.62,9.62,0,0,0,23.2,86h9.32a9.62,9.62,0,0,0,9.61-9.61V71.28a9.62,9.62,0,0,0-9.61-9.61Z"/><rect class="cls-5" x="0.8" y="2.63" width="54.12" height="72.15" rx="8.81" ry="8.81"/><path class="cls-4" d="M48.9,2.63H6.83a6,6,0,0,0-6,6v16.2a.8.8,0,0,0,.8.8H54.12a.8.8,0,0,0,.8-.8V8.65A6,6,0,0,0,48.9,2.63ZM38.21,17.68H17.51a2.89,2.89,0,0,1,0-5.78h20.7a2.89,2.89,0,0,1,0,5.78Z"/><path class="cls-6" d="M27.86,60.93A2.89,2.89,0,0,1,25,58V50.61H17.54a2.89,2.89,0,0,1,0-5.78H25V37.4a2.89,2.89,0,1,1,5.78,0v7.43h7.43a2.89,2.89,0,0,1,0,5.78H30.75V58A2.89,2.89,0,0,1,27.86,60.93Z"/><g class="cls-2"><path d="M39.68,44.66A2.85,2.85,0,0,1,36.84,48H29.41v7.43a2.89,2.89,0,0,1-2.89,2.89,2.86,2.86,0,0,1-1.44-.4,2.89,2.89,0,0,0,5.73-.49V50h7.43a2.88,2.88,0,0,0,1.44-5.38Z"/></g><path class="cls-3" d="M38.21,12.7a2.07,2.07,0,0,1,2.06,2.06v.06a2.07,2.07,0,0,1-2.06,2.06H17.51a2.07,2.07,0,0,1-2.06-2.06v-.06a2.07,2.07,0,0,1,2.06-2.06Zm0-1.6H17.51a3.69,3.69,0,0,0,0,7.39h20.7a3.69,3.69,0,0,0,0-7.39Z"/><path class="cls-5" d="M98,105.83a9.43,9.43,0,0,1-2.67-.39,12,12,0,0,1-8.19-8.72c-1.91-9.14,6.09-18.83,10.38-24a.8.8,0,0,1,1.13-.11.82.82,0,0,1,.22.29c.24.36,1.59,2.1,2.49,3.26S102.84,78,103,78.26A53.35,53.35,0,0,1,106,83.19a27.12,27.12,0,0,1,3.09,8.24,12.43,12.43,0,0,1-2.39,9.85A11.39,11.39,0,0,1,98,105.83Z"/><path class="cls-2" d="M109.13,91.63A27.12,27.12,0,0,0,106,83.39,53.34,53.34,0,0,0,103,78.46c-.15-.21-.84-1.11-1.64-2.13s-2.25-2.9-2.49-3.26a.82.82,0,0,0-.22-.29.75.75,0,0,0-1,0c.64.83,1.18,1.52,1.3,1.7A53.32,53.32,0,0,1,102,79.39a27.11,27.11,0,0,1,3.09,8.24,12.43,12.43,0,0,1-2.39,9.85A11.39,11.39,0,0,1,94,102a9.42,9.42,0,0,1-2.67-.39,11.61,11.61,0,0,1-2.75-1.24,12.14,12.14,0,0,0,6.75,5.25A9.43,9.43,0,0,0,98,106a11.39,11.39,0,0,0,8.75-4.54A12.43,12.43,0,0,0,109.13,91.63Z"/><path class="cls-3" d="M98.13,73.19h0Zm0,0c-.06.07,3.83,5,4.2,5.52a52.56,52.56,0,0,1,3,4.86,26.86,26.86,0,0,1,3,8,11.65,11.65,0,0,1-2.23,9.22A10.59,10.59,0,0,1,98,105a8.58,8.58,0,0,1-2.45-.36,11.21,11.21,0,0,1-7.63-8.12c-1.77-8.43,5.28-17.39,10.22-23.36Zm0-1.6h-.06a1.6,1.6,0,0,0-1.15.54l0,0c-4.39,5.31-12.53,15.19-10.54,24.7a12.8,12.8,0,0,0,8.74,9.33,10.2,10.2,0,0,0,2.9.42,12.2,12.2,0,0,0,9.38-4.85,13.24,13.24,0,0,0,2.55-10.49,27.93,27.93,0,0,0-3.17-8.48,53.8,53.8,0,0,0-3.1-5c-.16-.23-.7-.93-1.65-2.15-.8-1-2.1-2.7-2.43-3.17a1.6,1.6,0,0,0-1.43-.89Z"/><ellipse class="cls-6" cx="90.41" cy="91.81" rx="4.08" ry="1.6" transform="matrix(0.13, -0.99, 0.99, 0.13, -12.01, 170)"/><path class="cls-3" d="M27.86,35.31A2.1,2.1,0,0,1,30,37.4v8.23h8.23a2.09,2.09,0,0,1,0,4.18H30V58a2.09,2.09,0,0,1-4.18,0V49.81H17.54a2.09,2.09,0,0,1,0-4.18h8.23V37.4a2.1,2.1,0,0,1,2.09-2.09Zm0-1.6a3.7,3.7,0,0,0-3.69,3.69V44H17.54a3.69,3.69,0,0,0,0,7.39h6.63V58a3.69,3.69,0,0,0,7.39,0V51.41h6.63a3.69,3.69,0,0,0,0-7.39H31.56V37.4a3.7,3.7,0,0,0-3.69-3.69Z"/><path class="cls-2" d="M48.82,3.4a8.77,8.77,0,0,1,.3,2.23V60.16A8.82,8.82,0,0,1,40.3,69H3.81A8.75,8.75,0,0,1,.7,68.39,8.82,8.82,0,0,0,9.21,75h36.5a8.82,8.82,0,0,0,8.81-8.81V11.64A8.82,8.82,0,0,0,48.82,3.4Z"/><path class="cls-3" d="M46.11,3.43a8,8,0,0,1,8,8V66a8,8,0,0,1-8,8H9.61a8,8,0,0,1-8-8V11.44a8,8,0,0,1,8-8Zm0-1.6H9.61A9.62,9.62,0,0,0,0,11.44V66a9.62,9.62,0,0,0,9.61,9.61h36.5A9.62,9.62,0,0,0,55.73,66V11.44a9.62,9.62,0,0,0-9.61-9.61Z"/><path class="cls-6" d="M4.88,57.16h0A1.21,1.21,0,0,1,3.68,56V29.12a1.21,1.21,0,0,1,1.2-1.2h0a1.21,1.21,0,0,1,1.2,1.2V56A1.21,1.21,0,0,1,4.88,57.16Z"/></g></g></svg>