<svg xmlns="http://www.w3.org/2000/svg" viewBox="0 0 114.77 96.51"><defs><style>.cls-1{fill:#f3b200;}.cls-2{fill:#871e44;}.cls-3{opacity:0.2;}.cls-4{opacity:0.5;}.cls-5{fill:#fcf2d6;}.cls-6{fill:#f4df02;}.cls-7{fill:#f23a52;}.cls-8{fill:#0eb1e2;}.cls-9{fill:#fff;}</style></defs><title>Ресурс 5</title><g id="Слой_2" data-name="Слой 2"><g id="Layer_1" data-name="Layer 1"><path class="cls-1" d="M64.3,44.58l-.27.34a15.38,15.38,0,0,1-24.22-19l.27-.34a15.38,15.38,0,0,1,24.22,19Z"/><path class="cls-2" d="M40.27,26.29l.26-.33A14.82,14.82,0,0,1,63.86,44.23l-.26.33A14.82,14.82,0,0,1,40.27,26.29Zm-.9-.68A15.95,15.95,0,0,0,64.48,45.27l.28-.35A15.95,15.95,0,0,0,39.65,25.26l-.28.35Z"/><g class="cls-3"><path class="cls-2" d="M40.55,25.85q-.32.39-.6.8A14.82,14.82,0,0,1,63,45.21q.34-.36.65-.75a14.82,14.82,0,1,0-23.07-18.6Z"/></g><g class="cls-4"><path class="cls-5" d="M66.87,35.67q0-.21,0-.43L37.25,34.8a14.9,14.9,0,0,0,.17,2.77Z"/></g><g class="cls-4"><path class="cls-5" d="M38.49,41.21l28.31-4.35,0-.2-28.91,3A14.83,14.83,0,0,0,38.49,41.21Z"/></g><path class="cls-6" d="M62,42.79l-.22.27A12.43,12.43,0,0,1,42.17,27.74l.22-.27A12.43,12.43,0,0,1,62,42.79Z"/><path class="cls-2" d="M42.62,28.08l.21-.26A11.86,11.86,0,0,1,61.5,42.45l-.21.26A11.86,11.86,0,0,1,42.62,28.08Zm-.9-.68a13,13,0,0,0,20.45,16l.22-.29a13,13,0,0,0-20.45-16l-.22.29Z"/><g class="cls-3"><path class="cls-2" d="M43,27.8A12,12,0,0,0,42.13,29,11.87,11.87,0,0,1,60.46,43.76a12,12,0,0,0,1-1.07A11.86,11.86,0,0,0,43,27.8Z"/></g><path class="cls-5" d="M41.24,37.09s1.2,9.16,11.83,9.15C53.06,46.24,43.79,44.4,41.24,37.09Z"/><path class="cls-2" d="M56.9,38.16l1.39,1.06-.71.94-1.36-1a6.59,6.59,0,0,1-2.44,2L52,39.76a4.71,4.71,0,0,0,1.41-.69A6.43,6.43,0,0,0,54.71,38L52.37,36.2a6.25,6.25,0,0,1-2.77,1.13,3,3,0,0,1-2-.66,2.94,2.94,0,0,1-1.18-2A3.77,3.77,0,0,1,47,32.13l-1.2-.91.71-.94,1.17.89a6,6,0,0,1,2-1.69l1.73,1.32a6.11,6.11,0,0,0-2.21,1.52l2.44,1.85A6.49,6.49,0,0,1,54.35,33a2.8,2.8,0,0,1,2,.59,2.85,2.85,0,0,1,1.2,2A4.09,4.09,0,0,1,56.9,38.16Zm-6.34-3.34-2-1.55a1.15,1.15,0,0,0,.25,1.6A1.63,1.63,0,0,0,50.57,34.82Zm2.89.72L55.4,37a1.13,1.13,0,0,0-.22-1.62Q54.55,34.92,53.45,35.54Z"/><path class="cls-7" d="M46.85,68.43c-.8,0-13.58-4.53-20.66-11.8-3.42-3.51-5.1-7.18-5-10.91,0-.17,1.48-9,9.75-9a18.86,18.86,0,0,1,8,2.17c3.23-4.87,6.78-7.34,10.58-7.34,4.75,0,8,3.91,8.15,4.07,4.13,6.58.78,15.48-2.74,21.8-2.22,4-6.41,9.89-7.8,10.84l0,0A.72.72,0,0,1,46.85,68.43Z"/><path class="cls-3" d="M57.7,35.66c-.14-.17-3.4-4.07-8.15-4.07a10,10,0,0,0-6.38,2.53,12,12,0,0,1,7.56,5A18.18,18.18,0,0,0,49.6,50.38H22a18.42,18.42,0,0,0,4.17,6.26c6.12,6.28,16.48,10.51,19.7,11.54l1.29.16,0,0c1.39-.95,5.58-6.86,7.8-10.84C58.48,51.14,61.83,42.23,57.7,35.66Z"/><path class="cls-2" d="M49.55,32.26c4.48,0,7.63,3.82,7.63,3.82,7.27,11.59-10.07,31.66-10.32,31.66h0c-.58,0-25.34-8.43-25-22,0,0,1.29-8.32,9.07-8.32a18.61,18.61,0,0,1,8.28,2.37c3.69-5.8,7.32-7.53,10.34-7.53Zm0-1.36c-3.91,0-7.54,2.41-10.81,7.15a19,19,0,0,0-7.8-2c-7.08,0-9.91,6.19-10.41,9.47a1.34,1.34,0,0,0,0,.17c-.1,3.92,1.65,7.75,5.2,11.4,7.37,7.56,20.29,12,21.15,12h.08c.58,0,.94-.13,3.58-3.63a67.59,67.59,0,0,0,5.12-7.84c5.11-9.23,6-16.93,2.69-22.27l-.1-.14c-.14-.18-3.61-4.32-8.67-4.32v0Z"/><path class="cls-1" d="M61.21,65.34,60.74,65a21,21,0,0,1,25.9-33.07l.46.36a21,21,0,0,1-25.9,33.07Z"/><path class="cls-2" d="M86.18,32.52l.45.35a20.24,20.24,0,0,1-25,31.86l-.45-.35a20.24,20.24,0,0,1,25-31.86Zm.93-1.22A21.78,21.78,0,0,0,60.26,65.58l.48.38A21.78,21.78,0,0,0,87.59,31.67l-.48-.38Z"/><g class="cls-3"><path class="cls-2" d="M86.77,32.9q-.53-.43-1.09-.82A20.24,20.24,0,0,1,60.34,63.52q.5.46,1,.89A20.24,20.24,0,0,0,86.77,32.9Z"/></g><g class="cls-4"><path class="cls-5" d="M73.37,68.85H74l.6-40.46a20.35,20.35,0,0,0-3.79.24Z"/></g><g class="cls-4"><path class="cls-5" d="M65.8,30.09l5.94,38.66.27,0L67.93,29.29A20.23,20.23,0,0,0,65.8,30.09Z"/></g><path class="cls-6" d="M63.65,62.13l-.38-.29A17,17,0,0,1,84.2,35.12l.38.29A17,17,0,0,1,63.65,62.13Z"/><path class="cls-2" d="M83.73,35.73l.36.28a16.2,16.2,0,0,1-20,25.51l-.36-.28a16.2,16.2,0,0,1,20-25.51Zm.93-1.22A17.74,17.74,0,0,0,62.79,62.44l.39.31A17.74,17.74,0,0,0,85.06,34.81l-.39-.31Z"/><g class="cls-3"><path class="cls-2" d="M84.11,36.2a16.39,16.39,0,0,0-1.61-1.14,16.2,16.2,0,0,1-20.19,25,16.2,16.2,0,1,0,21.8-23.9Z"/></g><path class="cls-5" d="M71.43,33.84S58.93,35.48,58.94,50C58.94,50,61.45,37.33,71.43,33.84Z"/><path class="cls-2" d="M70,55.24l-1.45,1.9-1.28-1,1.41-1.85A9,9,0,0,1,65.94,51l1.85-2.43a6.42,6.42,0,0,0,.94,1.92,8.77,8.77,0,0,0,1.49,1.77L72.65,49a8.53,8.53,0,0,1-1.54-3.79,4.09,4.09,0,0,1,.9-2.74,4,4,0,0,1,2.76-1.61,5.15,5.15,0,0,1,3.44.84l1.24-1.63,1.28,1-1.22,1.6a8.17,8.17,0,0,1,2.31,2.7L80,47.76a8.34,8.34,0,0,0-2.07-3l-2.53,3.33A8.86,8.86,0,0,1,77,51.75a3.82,3.82,0,0,1-.81,2.79,3.9,3.9,0,0,1-2.72,1.64A5.58,5.58,0,0,1,70,55.24Zm4.57-8.65,2.12-2.78a1.56,1.56,0,0,0-2.19.34A2.23,2.23,0,0,0,74.53,46.58Zm-1,3.94-2,2.66a1.55,1.55,0,0,0,2.21-.3Q74.39,52,73.55,50.52Z"/><path class="cls-6" d="M57.39,92.14a45.73,45.73,0,1,1,45.73-45.73A45.78,45.78,0,0,1,57.39,92.14Zm0-83.55A37.82,37.82,0,1,0,95.2,46.41,37.86,37.86,0,0,0,57.39,8.59Z"/><g class="cls-3"><path d="M57.84,1.13c-.72,0-1.43,0-2.15.05a45.73,45.73,0,0,1,0,91.35c.71,0,1.43.05,2.15.05a45.73,45.73,0,1,0,0-91.46Z"/></g><path class="cls-2" d="M57.39,1.35A45.05,45.05,0,1,1,12.34,46.41,45.05,45.05,0,0,1,57.39,1.35Zm0,83.55A38.49,38.49,0,1,0,18.89,46.41,38.49,38.49,0,0,0,57.39,84.9Zm0-84.9a46.41,46.41,0,1,0,46.41,46.41A46.46,46.46,0,0,0,57.39,0Zm0,83.55A37.14,37.14,0,1,1,94.53,46.41,37.18,37.18,0,0,1,57.39,83.55Z"/><path class="cls-8" d="M90.3,95.83H24.48c-4,0-14.57-32.54-14.57-32.54,0-4,10.56-7.29,14.57-7.29H90.3c4,0,14.57,3.28,14.57,7.29C104.87,63.29,94.3,95.83,90.3,95.83Z"/><path class="cls-3" d="M101.2,59.16c-.78,2.37-10.67,32.38-14.52,32.38H20.93c1.39,2.6,2.64,4.29,3.55,4.29H90.3c4,0,14.57-32.54,14.57-32.54C104.87,61.76,103.33,60.34,101.2,59.16Z"/><path class="cls-2" d="M90.3,96.51H24.48c-4.18,0-12.7-25.27-15.22-33l0-.21c0-4.75,11.45-8,15.25-8H90.3c3.8,0,15.25,3.22,15.25,8l0,.21C103,71.24,94.47,96.51,90.3,96.51ZM10.59,63.19c5,15.4,11.73,32,13.89,32H90.3c2.17,0,8.89-16.57,13.89-32C104,60,94.51,56.68,90.3,56.68H24.48C20.27,56.68,10.78,60,10.59,63.19Z"/><rect class="cls-6" x="0.68" y="54.3" width="113.42" height="9.23" rx="3.17" ry="3.17"/><path class="cls-3" d="M111.28,54.28a4.25,4.25,0,0,1,.11.92v.65a4.3,4.3,0,0,1-4.29,4.29H2.26A4.21,4.21,0,0,1,1,59.93,4.3,4.3,0,0,0,5.19,63.3H110A4.3,4.3,0,0,0,114.32,59v-.65A4.29,4.29,0,0,0,111.28,54.28Z"/><path class="cls-2" d="M109.81,64.21H5a5,5,0,0,1-5-5v-.65a5,5,0,0,1,5-5H109.81a5,5,0,0,1,5,5v.65A5,5,0,0,1,109.81,64.21ZM5,55a3.62,3.62,0,0,0-3.61,3.61v.65A3.62,3.62,0,0,0,5,62.85H109.81a3.62,3.62,0,0,0,3.61-3.61v-.65A3.62,3.62,0,0,0,109.81,55Z"/><ellipse class="cls-9" cx="27.22" cy="41.08" rx="3.45" ry="1.35" transform="translate(-18.62 23) rotate(-34.94)"/><path class="cls-9" d="M46.1,4.36S19.51,9.11,14.43,38.07C14.43,38.07,17.64,15.2,46.1,4.36Z"/><path class="cls-9" d="M15.44,57.89H4.09A.85.85,0,0,1,3.25,57h0a.85.85,0,0,1,.85-.85H15.44a.85.85,0,0,1,.85.85h0A.85.85,0,0,1,15.44,57.89Z"/><path class="cls-9" d="M20,81.77a1.36,1.36,0,0,1-1.27-.88L13.67,67.34a1.36,1.36,0,0,1,1.27-1.83H29a1.36,1.36,0,0,1,0,2.71H16.89l4.39,11.72A1.36,1.36,0,0,1,20,81.77Z"/></g></g></svg>