<svg xmlns="http://www.w3.org/2000/svg" viewBox="0 0 68.21 64.48"><defs><style>.cls-1{fill:#f4df02;}.cls-2{opacity:0.2;}.cls-3{fill:#871e44;}.cls-4{fill:#f23a52;}.cls-5{fill:#fff;}</style></defs><title>Ресурс 7</title><g id="Слой_2" data-name="Слой 2"><g id="Layer_1" data-name="Layer 1"><path class="cls-1" d="M59,32.6c-1.11-1.69-2.2-3.4-3.33-5.07a.77.77,0,0,1,0-1c1.09-1.65,2.16-3.31,3.23-5a2.93,2.93,0,0,0-1.58-4.7c-1.86-.68-3.7-1.41-5.54-2.09a.75.75,0,0,1-.56-.79c-.09-2-.21-4-.32-6A2.92,2.92,0,0,0,47,5.09c-2,.53-3.91,1-5.84,1.6a.78.78,0,0,1-1-.32C39,4.81,37.71,3.25,36.45,1.71a2.91,2.91,0,0,0-4.83,0c-1.24,1.54-2.5,3.06-3.7,4.64a.89.89,0,0,1-1.13.36c-1.9-.54-3.81-1-5.19-1.41-2.67-.64-4.23.45-4.38,2.63S17,12,16.93,14.05a.74.74,0,0,1-.54.77c-1.92.71-3.83,1.45-5.73,2.2a2.88,2.88,0,0,0-1.43,4.51c1,1.73,2.14,3.42,3.27,5.11a.77.77,0,0,1,0,1c-1.15,1.73-2.27,3.46-3.36,5.2a2.87,2.87,0,0,0,1.47,4.36c1.94.75,3.85,1.48,5.79,2.2a.73.73,0,0,1,.56.77c.09,2,.3,3.91.28,5.86a3,3,0,0,0,4.09,3c1.88-.6,3.81-1,5.71-1.58a.7.7,0,0,1,.86.28c1.26,1.58,2.54,3.16,3.83,4.72a2.91,2.91,0,0,0,4.83,0c1.28-1.58,2.54-3.14,3.79-4.73a.69.69,0,0,1,.85-.3c2,.55,3.95,1.07,5.94,1.6A2.92,2.92,0,0,0,51,46.23c.11-2,.23-4.08.3-6.12a.79.79,0,0,1,.62-.81c1.88-.7,3.74-1.43,5.6-2.16A2.91,2.91,0,0,0,59,32.6ZM40,35.25a6.69,6.69,0,0,1-3.44,2.22,1,1,0,0,0-.85,1.09c0,.6,0,1.22,0,1.82a.74.74,0,0,1-.81.84q-1,0-2,0a.79.79,0,0,1-.84-.9c0-.45,0-.88,0-1.33,0-1,0-1-1-1.16a12.71,12.71,0,0,1-3.51-1c-.88-.43-1-.66-.71-1.56.19-.68.38-1.35.58-2s.45-.88,1.16-.51a11.34,11.34,0,0,0,3.89,1.17,4.75,4.75,0,0,0,2.55-.34,2,2,0,0,0,.47-3.47,6.18,6.18,0,0,0-1.45-.85,34.25,34.25,0,0,1-4-1.79c-2-1.22-3.34-2.89-3.17-5.39a5.94,5.94,0,0,1,4.34-5.5c1.07-.39,1.07-.38,1.07-1.48V13.94c0-.84.17-1,1-1h.77c1.77,0,1.77,0,1.78,1.77,0,1.26,0,1.26,1.26,1.46a10.89,10.89,0,0,1,2.76.83.81.81,0,0,1,.53,1.07c-.22.77-.43,1.54-.68,2.29s-.47.83-1.15.49A8.6,8.6,0,0,0,34.23,20a3.15,3.15,0,0,0-1.16.24,1.65,1.65,0,0,0-.41,2.93,7.85,7.85,0,0,0,1.9,1.07c1.17.49,2.35,1,3.46,1.56A6.23,6.23,0,0,1,40,35.25Z"/><path class="cls-2" d="M17.23,46a3,3,0,0,0,4.09,3c1.88-.6,3.81-1,5.71-1.58a.7.7,0,0,1,.86.28c1.26,1.58,2.54,3.16,3.83,4.72a2.91,2.91,0,0,0,4.83,0c1.28-1.58,2.54-3.14,3.79-4.73a.69.69,0,0,1,.85-.3c2,.55,3.95,1.07,5.94,1.6A2.92,2.92,0,0,0,51,46.23c.11-2,.23-4.08.3-6.12a.79.79,0,0,1,.62-.81c1.88-.7,3.74-1.43,5.6-2.16A2.91,2.91,0,0,0,59,32.6c-1.11-1.69-2.2-3.4-3.33-5.07a.77.77,0,0,1,0-1c1.09-1.65,2.16-3.31,3.23-5a2.93,2.93,0,0,0-1.58-4.7c-1.86-.68-3.7-1.41-5.54-2.09a.75.75,0,0,1-.56-.79c-.09-2-.21-4-.32-6A2.87,2.87,0,0,0,48,5a3.85,3.85,0,0,0-.69.11l-2.48.66a3.17,3.17,0,0,1,.92,2.15c.11,2,.22,4,.32,6a.75.75,0,0,0,.56.79c1.84.68,3.68,1.41,5.54,2.09a2.93,2.93,0,0,1,1.58,4.7c-1.07,1.67-2.14,3.33-3.23,5a.77.77,0,0,0,0,1c1.13,1.67,2.22,3.38,3.33,5.07a2.91,2.91,0,0,1-1.48,4.55c-1.86.73-3.72,1.46-5.6,2.16a.79.79,0,0,0-.62.81c0,.75-.06,1.5-.1,2.25h-29C17.17,43.59,17.24,44.82,17.23,46Z"/><path class="cls-3" d="M34.16,54.16a3.6,3.6,0,0,1-2.75-1.44c-1.2-1.45-2.46-3-3.84-4.72-.17-.2-.22-.2-.41-.14-.76.22-1.53.42-2.3.62-1.13.29-2.29.6-3.41,1A3.51,3.51,0,0,1,18.23,49a3.62,3.62,0,0,1-1.43-3c0-1.29-.08-2.6-.16-3.88,0-.65-.09-1.31-.12-2,0-.26,0-.3-.28-.39-1.94-.71-3.86-1.45-5.79-2.2a3.3,3.3,0,0,1-1.67-5c1-1.54,2-3.19,3.37-5.21.16-.24.16-.32,0-.53h0c-1.08-1.61-2.22-3.35-3.28-5.13a3.31,3.31,0,0,1,1.64-5.13c1.81-.72,3.68-1.44,5.74-2.2.21-.08.25-.12.27-.39.07-2,.15-4.05.3-6.14a3.35,3.35,0,0,1,1.27-2.58,4.33,4.33,0,0,1,3.64-.43l1.66.45c1.09.29,2.32.62,3.54,1a.49.49,0,0,0,.67-.21c.9-1.18,1.85-2.36,2.77-3.49l.93-1.15A3.58,3.58,0,0,1,34,0h0a3.54,3.54,0,0,1,2.73,1.44l.19.23c1.2,1.46,2.41,2.94,3.59,4.43.19.23.25.25.5.17,1.47-.43,3-.83,4.45-1.22l1.4-.38a3.52,3.52,0,0,1,3,.47,3.52,3.52,0,0,1,1.37,2.74c.11,2,.22,4,.32,6.05,0,.26.05.32.29.41l2.59,1c1,.37,2,.75,2.95,1.11a3.64,3.64,0,0,1,2.34,2.17,3.65,3.65,0,0,1-.54,3.16c-1.07,1.67-2.14,3.33-3.23,5-.17.26-.15.33,0,.53.74,1.1,1.47,2.22,2.19,3.33l1.14,1.75a3.52,3.52,0,0,1,.5,3,3.55,3.55,0,0,1-2.19,2.17C55.95,38.22,54,39,52.06,39.7c-.28.11-.33.17-.34.42-.07,2-.18,3.94-.29,5.91v.22A3.35,3.35,0,0,1,47,49.43c-2-.52-4-1.05-5.94-1.6-.18-.05-.22-.05-.4.16-1.26,1.59-2.52,3.15-3.79,4.73a3.56,3.56,0,0,1-2.73,1.44ZM27.33,47a1.14,1.14,0,0,1,.9.49c1.38,1.73,2.63,3.27,3.83,4.71a2.77,2.77,0,0,0,2.09,1.13h0a2.73,2.73,0,0,0,2.07-1.12C37.51,50.61,38.76,49,40,47.45a1.11,1.11,0,0,1,1.3-.45c2,.54,3.94,1.07,5.93,1.59a2.5,2.5,0,0,0,3.31-2.39V46c.11-2,.22-3.93.29-5.9a1.22,1.22,0,0,1,.9-1.19c1.93-.72,3.88-1.48,5.59-2.16A2.72,2.72,0,0,0,59,35.11a2.68,2.68,0,0,0-.4-2.28l-1.14-1.75c-.72-1.11-1.44-2.22-2.18-3.31a1.18,1.18,0,0,1,0-1.49c1.09-1.65,2.16-3.3,3.23-5A2.82,2.82,0,0,0,59,18.88a2.81,2.81,0,0,0-1.82-1.64c-1-.36-2-.74-3-1.11l-2.58-1A1.18,1.18,0,0,1,50.79,14c-.09-2-.21-4-.32-6a2.68,2.68,0,0,0-1-2.09,2.68,2.68,0,0,0-2.31-.34l-1.4.38c-1.48.4-3,.79-4.43,1.22a1.2,1.2,0,0,1-1.41-.46c-1.18-1.49-2.39-3-3.58-4.42L36.12,2A2.7,2.7,0,0,0,34.05.86h0A2.74,2.74,0,0,0,32,2L31,3.13c-.92,1.13-1.86,2.3-2.76,3.48a1.31,1.31,0,0,1-1.59.51c-1.21-.35-2.43-.67-3.52-1L21.5,5.71A3.52,3.52,0,0,0,18.58,6a2.5,2.5,0,0,0-.92,2c-.15,2.07-.23,4.13-.3,6.11a1.16,1.16,0,0,1-.81,1.15c-2.06.77-3.93,1.49-5.73,2.2A2.67,2.67,0,0,0,9.17,19a2.66,2.66,0,0,0,.41,2.26c1.06,1.77,2.19,3.5,3.27,5.1a1.19,1.19,0,0,1,0,1.49c-1.34,2-2.4,3.67-3.36,5.2a2.44,2.44,0,0,0,1.25,3.73c1.93.75,3.85,1.48,5.78,2.2a1.14,1.14,0,0,1,.84,1.15c0,.65.07,1.29.12,1.94.09,1.29.18,2.62.16,3.94a2.76,2.76,0,0,0,1.08,2.25,2.67,2.67,0,0,0,2.46.32c1.14-.37,2.31-.67,3.45-1,.76-.2,1.52-.4,2.27-.61A1.43,1.43,0,0,1,27.33,47Zm6.61-5.32h-1a1.2,1.2,0,0,1-1.26-1.33c0-.44,0-.87,0-1.32a2.8,2.8,0,0,0-.05-.65,3.18,3.18,0,0,0-.57-.11,13,13,0,0,1-3.64-1c-1.05-.52-1.25-.94-.94-2.06h0l0-.12c.18-.64.36-1.28.55-1.92a1.38,1.38,0,0,1,.66-1,1.33,1.33,0,0,1,1.12.2,10.84,10.84,0,0,0,3.74,1.12,4.32,4.32,0,0,0,2.33-.31,1.55,1.55,0,0,0,.37-2.75,5.85,5.85,0,0,0-1.35-.79l-1.21-.5a19.71,19.71,0,0,1-2.82-1.31c-2.44-1.46-3.55-3.35-3.38-5.79a6.35,6.35,0,0,1,4.62-5.88c.79-.29.79-.29.79-1.08V13.94c0-1.07.35-1.4,1.42-1.42h.78c2,0,2.19.18,2.21,2.19a3.13,3.13,0,0,0,.05.85,3.18,3.18,0,0,0,.84.19,11.34,11.34,0,0,1,2.87.86,1.22,1.22,0,0,1,.76,1.58l-.19.66c-.16.55-.31,1.1-.49,1.64a1.07,1.07,0,0,1-1.74.74,8.1,8.1,0,0,0-4.16-.82,2.72,2.72,0,0,0-1,.21,1.37,1.37,0,0,0-.88,1,1.31,1.31,0,0,0,.56,1.17,7.38,7.38,0,0,0,1.79,1l.5.21a32.11,32.11,0,0,1,3,1.37,6.91,6.91,0,0,1,3.5,4.71,6.53,6.53,0,0,1-1.37,5.38,7.09,7.09,0,0,1-3.66,2.36c-.47.13-.54.3-.53.66s0,.82,0,1.24v.6a1.16,1.16,0,0,1-1.24,1.27Zm-6.66-6.29c-.19.71-.2.73.49,1.06a12.17,12.17,0,0,0,3.39,1c1.21.17,1.34.45,1.36,1.58,0,.45,0,.89,0,1.34s.14.46.43.47c.65,0,1.3,0,1.95,0,.26,0,.39-.07.39-.42v-.61c0-.4,0-.8,0-1.2A1.39,1.39,0,0,1,36.47,37,6.24,6.24,0,0,0,39.69,35a5.68,5.68,0,0,0,1.19-4.68,6.05,6.05,0,0,0-3.07-4.13,31.59,31.59,0,0,0-2.92-1.33l-.5-.21a8.23,8.23,0,0,1-2-1.13,2.14,2.14,0,0,1-.87-2,2.2,2.2,0,0,1,1.38-1.71,3.63,3.63,0,0,1,1.32-.28,9,9,0,0,1,4.59.91.92.92,0,0,0,.39.14h0a1.48,1.48,0,0,0,.16-.37c.17-.53.33-1.07.48-1.62L40,18c.07-.25.05-.42-.28-.56a10.53,10.53,0,0,0-2.66-.8c-1.47-.24-1.62-.42-1.62-1.89a3.56,3.56,0,0,0-.11-1.24,3.56,3.56,0,0,0-1.25-.1h-.77c-.39,0-.48,0-.5.07s-.06.1-.07.51v1.12c0,1.27-.11,1.43-1.3,1.87-2.63,1-4,2.64-4.11,5.15-.14,2.12.8,3.71,3,5A19.16,19.16,0,0,0,33,28.33l1.24.51a6.68,6.68,0,0,1,1.55.91,2.4,2.4,0,0,1-.57,4.2,5.17,5.17,0,0,1-2.78.37,11.67,11.67,0,0,1-4-1.21,1.13,1.13,0,0,0-.41-.16h0s0,.08-.15.42c-.19.63-.37,1.26-.55,1.9Z"/><rect class="cls-4" x="0.43" y="44.97" width="67.35" height="19.08" rx="9.24" ry="9.24"/><path class="cls-2" d="M63.59,46.54a9.17,9.17,0,0,1,.9,4v.6a9.25,9.25,0,0,1-9.24,9.24H6.38A9.18,9.18,0,0,1,1,58.63a9.24,9.24,0,0,0,8.34,5.28H58.25a9.25,9.25,0,0,0,9.24-9.24v-.6A9.23,9.23,0,0,0,63.59,46.54Z"/><path class="cls-3" d="M58.54,45.4a8.84,8.84,0,0,1,8.81,8.81v.6a8.84,8.84,0,0,1-8.81,8.81H9.67A8.84,8.84,0,0,1,.86,54.81v-.6A8.84,8.84,0,0,1,9.67,45.4Zm0-.86H9.67A9.68,9.68,0,0,0,0,54.21v.6a9.68,9.68,0,0,0,9.67,9.67H58.54a9.68,9.68,0,0,0,9.67-9.67v-.6a9.68,9.68,0,0,0-9.67-9.67Z"/><path class="cls-3" d="M10.74,49.73a17.57,17.57,0,0,1,2.65-.18,5.59,5.59,0,0,1,3.56.93,3.84,3.84,0,0,1,1.47,3.27A4.4,4.4,0,0,1,17,57.26a6.24,6.24,0,0,1-4,1.12,17,17,0,0,1-2.23-.13Zm2,7.09a3.55,3.55,0,0,0,.68,0c1.78,0,2.94-1,2.94-3a2.49,2.49,0,0,0-2.73-2.76,4.08,4.08,0,0,0-.89.08Z"/><path class="cls-3" d="M27.66,53.86c0,2.85-1.73,4.57-4.26,4.57S19.31,56.49,19.31,54s1.66-4.55,4.23-4.55S27.66,51.47,27.66,53.86ZM21.39,54c0,1.7.8,2.9,2.11,2.9s2.09-1.26,2.09-3-.75-2.9-2.1-2.9S21.39,52.29,21.39,54Z"/><path class="cls-3" d="M28.95,58.29V49.61h2.29L33,52.79a25.16,25.16,0,0,1,1.42,3h0a32.22,32.22,0,0,1-.17-3.62V49.61h1.8v8.68H34.08l-1.86-3.35a32.19,32.19,0,0,1-1.51-3.07h0c.05,1.15.08,2.37.08,3.79v2.62Z"/><path class="cls-3" d="M39.86,56.07l-.62,2.23h-2l2.65-8.68h2.58l2.69,8.68H43l-.67-2.23Zm2.2-1.47-.54-1.84c-.15-.51-.31-1.16-.44-1.67h0c-.13.51-.26,1.17-.4,1.67l-.51,1.84Z"/><path class="cls-3" d="M46.9,51.26H44.57V49.61h6.67v1.65H48.87v7h-2Z"/><path class="cls-3" d="M57.45,54.62H54.26v2.06h3.57v1.61H52.29V49.61h5.36v1.61H54.26V53h3.19Z"/><ellipse class="cls-5" cx="5.25" cy="49" rx="2.93" ry="1.21" transform="translate(-30.08 14.64) rotate(-39.68)"/><path class="cls-5" d="M12.32,33.5a.86.86,0,0,1-.68-1.38l3.68-4.73L12,20.3a.86.86,0,0,1,.42-1.14L19.32,16V9.79a.86.86,0,1,1,1.71,0V16.5a.86.86,0,0,1-.5.78l-6.64,3.07,3.2,6.79A.86.86,0,0,1,17,28l-4,5.14A.86.86,0,0,1,12.32,33.5Z"/></g></g></svg>