<svg xmlns="http://www.w3.org/2000/svg" viewBox="0 0 102.67 102.67"><defs><style>.cls-1{fill:#226cb3;}.cls-2{fill:#09d2f5;}.cls-3{opacity:0.2;}.cls-4{fill:#871e44;}.cls-5{fill:#f23a52;}.cls-6{fill:#fff;}</style></defs><title>Ресурс 2</title><g id="Слой_2" data-name="Слой 2"><g id="Layer_1" data-name="Layer 1"><path class="cls-1" d="M51.33,102.06a50.73,50.73,0,1,1,50.73-50.73A50.78,50.78,0,0,1,51.33,102.06Z"/><path class="cls-2" d="M51.33,102.06c-1,0-1.95,0-3.14-.11a.61.61,0,0,1-.44-.23A87.48,87.48,0,0,1,32.43,73.85H6.25a.61.61,0,0,1-.55-.34c-.62-1.27-1.21-2.64-1.76-4.08a.61.61,0,0,1,.57-.83H31a75.22,75.22,0,0,1-.47-32.53H3.79a.61.61,0,0,1-.58-.8c.47-1.42,1-2.79,1.55-4.08a.61.61,0,0,1,.56-.37H31.74A102.59,102.59,0,0,1,45.32,1.19a.61.61,0,0,1,.44-.27c1.67-.18,3.38-.28,5.1-.3h0a.61.61,0,0,1,.49,1,96.88,96.88,0,0,0-14.27,29l-.08.28H67.25l-.08-.29A96.86,96.86,0,0,0,52.93,1.62a.61.61,0,0,1,.49-1h0a51.3,51.3,0,0,1,5.22.48.61.61,0,0,1,.42.27A102.6,102.6,0,0,1,72.52,30.83H97.34a.61.61,0,0,1,.56.37c.56,1.29,1.08,2.66,1.55,4.08a.61.61,0,0,1-.58.8H73.74a75.21,75.21,0,0,1-.47,32.53H98.16a.61.61,0,0,1,.57.82c-.55,1.43-1.14,2.81-1.76,4.08a.61.61,0,0,1-.55.34H71.83A87.39,87.39,0,0,1,56.6,101.6a.61.61,0,0,1-.42.23C54.53,102,52.9,102.06,51.33,102.06ZM37.87,73.85a83.8,83.8,0,0,0,14.26,25,83.8,83.8,0,0,0,14.26-25ZM68,68.61a69.45,69.45,0,0,0,.57-32.53H35.7a69.44,69.44,0,0,0,.57,32.53Z"/><g class="cls-3"><path d="M70.61,4.1a50.71,50.71,0,0,1-51.72,86,50.71,50.71,0,1,0,51.72-86Z"/></g><path class="cls-4" d="M99.26,69.72s0-.05,0-.08A51.15,51.15,0,0,0,100,35.16s0-.05,0-.08c-.07-.2-.14-.39-.21-.58-.14-.39-.27-.78-.42-1.17-.2-.55-.41-1.07-.63-1.6l-.18-.45L98.45,31s0-.06-.06-.09A51.47,51.47,0,0,0,58.77.54h0l-.25,0C57.73.4,56.94.31,56.16.23h-.1Q54.78.11,53.49.05h-.06C52.73,0,52,0,51.33,0h-.52Q49.53,0,48.26.1h-.06Q47,.18,45.73.31h0A51.45,51.45,0,0,0,4.27,30.86s0,.06-.06.09l-.13.33-.18.45c-.22.52-.43,1.05-.63,1.6-.15.39-.28.78-.42,1.17-.07.2-.14.39-.21.58,0,0,0,.05,0,.08a51.16,51.16,0,0,0,.73,34.4s0,.06,0,.09c.15.38.3.75.46,1.12.09.22.17.44.27.65.34.81.69,1.6,1.06,2.35a1.12,1.12,0,0,0,.07.11,51.41,51.41,0,0,0,42.92,28.67h0l.87,0c.81,0,1.55.06,2.26.06s1.62,0,2.45-.06,1.47-.09,2.2-.16l.26,0h0A51.43,51.43,0,0,0,97.44,73.89a1.16,1.16,0,0,0,.07-.11c.36-.75.71-1.54,1.06-2.34.09-.21.17-.42.26-.63S99.12,70.09,99.26,69.72Zm-.69-1.64a1.19,1.19,0,0,0-.41-.08H74a75.78,75.78,0,0,0,.44-31.32H98.87a1.21,1.21,0,0,0,.38-.07,50.25,50.25,0,0,1-.68,31.47Zm-1.29,3.27c-.28.64-.56,1.27-.87,1.89h-25a86.14,86.14,0,0,1-15.25,28h0q-1.18.11-2.37.17c-.8,0-1.61.06-2.42.06-1,0-2.07,0-3.1-.1h0a86.22,86.22,0,0,1-15.36-28.1H6.25c-.3-.62-.59-1.26-.87-1.89l0-.11q-.43-1-.82-2H31.76a74.65,74.65,0,0,1-.5-33.75H3.8q.34-1,.72-2l0-.11q.37-1,.77-1.91H32.21A101.23,101.23,0,0,1,45.83,1.52q2.48-.27,5-.3h0A97.5,97.5,0,0,0,36.5,30.38c-.1.36-.17.71-.27,1.06H68c-.1-.35-.17-.71-.27-1.06A97.49,97.49,0,0,0,53.43,1.27h0q1.3.05,2.59.17h0q1.29.12,2.56.3A101.16,101.16,0,0,1,72.05,31.44H97.34c.27.63.53,1.27.77,1.91l0,.11q.38,1,.72,2H73a74.65,74.65,0,0,1-.5,33.75H98.16q-.39,1-.82,2ZM52.44,2a96.46,96.46,0,0,1,14,28.25H37.81a96.47,96.47,0,0,1,14-28.29,1.21,1.21,0,0,0,.22-.7h.16A1.2,1.2,0,0,0,52.44,2ZM96.79,30.22H73A103,103,0,0,0,60.21,2,50.17,50.17,0,0,1,96.79,30.22ZM44.24,1.72a103,103,0,0,0-13,28.5H5.88A50.16,50.16,0,0,1,44.24,1.72ZM3.42,36.62a1.21,1.21,0,0,0,.38.07h26A75.78,75.78,0,0,0,30.22,68H4.51a1.21,1.21,0,0,0-.42.08,50.25,50.25,0,0,1-.68-31.47ZM6.87,74.46H32a87.8,87.8,0,0,0,14.62,26.76A50.12,50.12,0,0,1,6.87,74.46ZM57.81,101A87.67,87.67,0,0,0,72.27,74.46H95.79A50.13,50.13,0,0,1,57.81,101Z"/><path class="cls-4" d="M35.21,35.47a69.83,69.83,0,0,0,.59,33.75H68.46a69.83,69.83,0,0,0,.59-33.75ZM67.52,68H36.74a68.81,68.81,0,0,1-.55-31.32H68.07A68.81,68.81,0,0,1,67.52,68Z"/><path class="cls-4" d="M52.13,99.81A84,84,0,0,0,67.24,73.25H37A84,84,0,0,0,52.13,99.81Zm0-1.93a83.27,83.27,0,0,1-13.4-23.42h26.8A83.27,83.27,0,0,1,52.13,97.88Z"/><path class="cls-5" d="M51.32,81.13A.75.75,0,0,1,51,81v0C48.5,79.77,35.14,70.18,26.4,58.42c-7.13-9.6-9.57-18.38-7.25-26.08.23-.52,4.94-10.8,15.24-10.8,5.22,0,10.92,2.71,16.94,8,6-5.34,11.71-8,16.94-8,10.3,0,15,10.28,15.21,10.72,2.37,7.82-.11,16.64-7.32,26.29C67.43,70.25,54.17,79.77,51.7,81l0,0a.75.75,0,0,1-.37.11h0Z"/><path class="cls-3" d="M83.24,32A20.74,20.74,0,0,0,81,28.34c1.08,7.1-1.59,15-7.95,23.47C64.31,63.52,51,73,48.57,74.26l0,0a.75.75,0,0,1-.37.11h0a.74.74,0,0,1-.37-.11v0C45.37,73,32,63.44,23.28,51.69a54.36,54.36,0,0,1-3.9-6,44.4,44.4,0,0,0,6.78,12.49C34.9,69.94,48.26,79.53,50.73,80.76v0a.75.75,0,0,0,.37.11h0a.75.75,0,0,0,.37-.11l0,0C53.93,79.53,67.19,70,75.93,58.31,83.14,48.66,85.61,39.84,83.24,32Z"/><path class="cls-4" d="M68.27,22.26c10,0,14.55,10.29,14.55,10.29C89.61,55,51.91,80.41,51.34,80.41h0c-.58,0-38.27-25.38-31.49-47.86,0,0,4.6-10.29,14.55-10.29,4.52,0,10.14,2.12,16.94,8.29,6.8-6.17,12.42-8.29,16.94-8.29ZM34.4,20.82C23.63,20.82,18.73,31.51,18.53,32a1.45,1.45,0,0,0-.06.17c-2.39,7.93.08,16.92,7.36,26.72,8.18,11,21.31,21,24.78,22.74l0,0a1.46,1.46,0,0,0,.74.22h0a1.46,1.46,0,0,0,.75-.22l0,0c3.47-1.72,16.59-11.73,24.77-22.74,7.28-9.79,9.75-18.78,7.36-26.71a1.45,1.45,0,0,0-.06-.17c-.2-.45-5.11-11.14-15.87-11.14h0c-5.26,0-11,2.62-16.94,7.81-6-5.18-11.67-7.81-16.94-7.81Z"/><path class="cls-6" d="M7,66.78a1.44,1.44,0,0,1-1.4-1.11C2,50.15,5.15,38.9,5.29,38.43a1.44,1.44,0,0,1,2.77.8C8,39.34,5,50.27,8.44,65a1.44,1.44,0,0,1-1.07,1.74A1.49,1.49,0,0,1,7,66.78Z"/><ellipse class="cls-6" cx="27.23" cy="29.36" rx="5.5" ry="2.16" transform="translate(-12.79 27.85) rotate(-45)"/></g></g></svg>