<svg xmlns="http://www.w3.org/2000/svg" viewBox="0 0 70.73 113.96"><defs><style>.cls-1{fill:#fecd97;}.cls-2{opacity:0.1;}.cls-3{fill:#871e44;}.cls-4{fill:#fff;}</style></defs><title>Ресурс 6</title><g id="Слой_2" data-name="Слой 2"><g id="Layer_1" data-name="Layer 1"><path class="cls-1" d="M64.82,14.43a5.11,5.11,0,0,0-5.11,5.11V41.7a1.7,1.7,0,1,1-3.41,0V9.32a5.11,5.11,0,1,0-10.22,0v29a1.7,1.7,0,1,1-3.41,0V5.92a5.11,5.11,0,1,0-10.22,0V38.29a1.71,1.71,0,0,1-1.7,1.7c-.94,0-1.09-.76-1.09-1.7V12.73a5.11,5.11,0,1,0-10.22,0s0,18.77,0,20.69a4.48,4.48,0,0,0,.93,3.1l8,10.5c2.91,3.76,3.18,2.1,10.41,3.83h0a12.81,12.81,0,0,1,1.36.39c3.57,1.23,11.72,4.24,11.72,4.24A2.82,2.82,0,0,1,53.74,59,2.91,2.91,0,0,1,50,60.61l-3.61-1c-.33-.1-1.22-.27-.44.74L56.48,73.93a2.24,2.24,0,0,1-3.54,2.74L46.1,67.82c-.25-.32-.51-.55-.83-.3a.75.75,0,0,0-.13,1L53.8,79.78a2.24,2.24,0,1,1-3.54,2.74L41.59,71.3a.75.75,0,0,0-1.18.91l7.75,10A2.24,2.24,0,0,1,44.63,85L36,73.77a.75.75,0,0,0-1.18.91l5.93,7.67a2.24,2.24,0,0,1-3.54,2.74L24.86,69.16l-.08-.11c-4.86-6.36-2.05-9.35-5.28-13.86l-.42-.56c-1-1.26-2.52-3.34-4.33-5.78l-2.22-3a6.65,6.65,0,0,0-9-2.4,6.45,6.45,0,0,0-1.62,9S12.47,69.34,17.21,76.55a30.46,30.46,0,0,0,1.91,2.6h0l0,0c5.69,7.31,9.45,13.78,9.45,20.15,0,2.17,0,7-.09,10,0,1.77-.43,3.86,2.7,3.86H57.38c2.67,0,2.6-2,2.62-2.88.27-10.83.07-2.74.07-10.95,0-13.64,9.74-14.7,9.85-33.47,0-.11,0-.22,0-.32v-46A5.11,5.11,0,0,0,64.82,14.43Z"/><path class="cls-2" d="M64.82,15a5.12,5.12,0,0,0-1,.1A5.07,5.07,0,0,1,64,16.32v46c0,.1,0,.21,0,.32-.11,18.77-9.85,19.83-9.85,33.47,0,8.21.2.12-.07,10.95,0,.88,0,2.88-2.62,2.88h-23c0,1.74-.37,3.76,2.71,3.76H57.38c2.67,0,2.6-2,2.62-2.88.27-10.83.07-2.74.07-10.95,0-13.64,9.74-14.7,9.85-33.47,0-.11,0-.22,0-.32v-46A5.11,5.11,0,0,0,64.82,15Z"/><path class="cls-3" d="M57.38,114H31.2a3.63,3.63,0,0,1-2.75-.92,4.23,4.23,0,0,1-.77-3.28l0-.48c.06-2.95.09-7.79.09-10C27.78,93.91,25,88,18.5,79.68l0,0A31,31,0,0,1,16.54,77C11.84,69.86,1.37,53.09,1.27,52.92A7.79,7.79,0,0,1,.17,47.08a6.72,6.72,0,0,1,3-4.28A7.5,7.5,0,0,1,13.2,45.45l2.19,2.92c1.8,2.43,3.36,4.52,4.32,5.77l.43.57a11.91,11.91,0,0,1,2.09,6,14.44,14.44,0,0,0,3.19,7.9l12.39,16a1.44,1.44,0,0,0,2,.26,1.43,1.43,0,0,0,.26-2l-5.93-7.67a1.55,1.55,0,0,1,2.45-1.9l8.67,11.21a1.43,1.43,0,0,0,2.27-1.75l-7.75-10a1.55,1.55,0,0,1,2.45-1.9L50.89,82a1.43,1.43,0,0,0,2.27-1.75L44.5,69.06a1.55,1.55,0,0,1,.28-2.18c.3-.24,1.11-.66,2,.44l6.84,8.85a1.43,1.43,0,1,0,2.27-1.75L45.31,60.8c-.19-.25-.77-1-.31-1.67.18-.25.62-.64,1.62-.33l3.6,1A2.14,2.14,0,0,0,53,58.76a1.79,1.79,0,0,0-.08-1.37,2.25,2.25,0,0,0-1.29-1.14c-.09,0-8.19-3-11.71-4.24a11.8,11.8,0,0,0-1.27-.37h0a42.54,42.54,0,0,0-5.16-.9c-2.69-.33-3.64-.56-5.69-3.21l-8-10.46a5.33,5.33,0,0,1-1.13-3.63c0-1.92,0-20.69,0-20.69a5.92,5.92,0,1,1,11.83,0V38.29c0,.74.12.86.13.88a.38.38,0,0,0,.16,0,.9.9,0,0,0,.9-.9V5.92a5.92,5.92,0,1,1,11.83,0V38.29a.9.9,0,1,0,1.8,0v-29a5.92,5.92,0,1,1,11.83,0V41.7a.9.9,0,1,0,1.8,0V19.55a5.92,5.92,0,1,1,11.83,0V65.87c-.06,10.32-3,15.48-5.63,20-2.26,3.94-4.21,7.34-4.21,13.42,0,3.48,0,4,.06,4.29,0,.44,0,.44-.12,6.48v.19C60.79,111.28,60.74,114,57.38,114ZM19.77,78.69l0,0c4.72,6.06,9.58,13.29,9.58,20.6,0,2.17,0,7-.09,10l0,.51c0,.83-.06,1.7.33,2.1a2.23,2.23,0,0,0,1.59.43H57.38c1.65,0,1.79-.82,1.82-2v-.3c.15-5.91.15-6,.12-6.33s-.06-.86-.06-4.4c0-6.51,2.15-10.26,4.42-14.22,2.64-4.6,5.36-9.36,5.42-19.25V19.55a4.31,4.31,0,1,0-8.61,0V41.7a2.51,2.51,0,1,1-5,0V9.32a4.31,4.31,0,1,0-8.61,0v29a2.51,2.51,0,1,1-5,0V5.92a4.31,4.31,0,1,0-8.61,0V38.29a2.51,2.51,0,0,1-2.51,2.51c-1.26,0-1.9-.84-1.9-2.51V12.73a4.31,4.31,0,1,0-8.61,0s0,18.77,0,20.69A3.71,3.71,0,0,0,21,36c3.88,5.12,7.49,9.86,8,10.52,1.74,2.24,2.23,2.31,4.61,2.6a44,44,0,0,1,5.32.93l.08,0a13.74,13.74,0,0,1,1.4.41C44,51.7,52.09,54.7,52.17,54.73a3.87,3.87,0,0,1,2.2,2,3.38,3.38,0,0,1,.13,2.62,3.73,3.73,0,0,1-4.77,2h0l-2.5-.72,9.89,12.79a3,3,0,0,1-2.79,4.88,3.07,3.07,0,0,1-.82-.22l.93,1.19A3,3,0,0,1,49.62,83l-.39-.51a3,3,0,0,1-5.24,3l-2.22-2.87a3,3,0,0,1-5.24,3L24.22,69.66a16.17,16.17,0,0,1-3.59-8.77,10.3,10.3,0,0,0-1.79-5.22l-.41-.55c-1-1.25-2.52-3.34-4.33-5.78l-2.22-3c-1.82-2.8-5.35-3.77-7.89-2.2a5.13,5.13,0,0,0-2.24,3.26,6.18,6.18,0,0,0,.88,4.64c.11.18,10.57,16.93,15.26,24a29.66,29.66,0,0,0,1.86,2.53Z"/><path class="cls-4" d="M22.79,19.91h0a1.41,1.41,0,0,1-1.41-1.41V11.85a1.41,1.41,0,0,1,1.41-1.41h0a1.41,1.41,0,0,1,1.41,1.41V18.5A1.41,1.41,0,0,1,22.79,19.91Z"/><path class="cls-4" d="M36.08,13.06h0a1.41,1.41,0,0,1-1.41-1.41V5a1.41,1.41,0,0,1,1.41-1.41h0A1.41,1.41,0,0,1,37.49,5v6.65A1.41,1.41,0,0,1,36.08,13.06Z"/><path class="cls-4" d="M49.37,16.48h0A1.41,1.41,0,0,1,48,15.07V8.43A1.41,1.41,0,0,1,49.37,7h0a1.41,1.41,0,0,1,1.41,1.41v6.65A1.41,1.41,0,0,1,49.37,16.48Z"/><path class="cls-4" d="M7.94,55.87h0A1.41,1.41,0,0,1,6,55.31L2.84,49.48a1.41,1.41,0,0,1,.56-1.91h0a1.41,1.41,0,0,1,1.91.56L8.5,54A1.41,1.41,0,0,1,7.94,55.87Z"/></g></g></svg>