<svg xmlns="http://www.w3.org/2000/svg" viewBox="0 0 93.77 102.67"><defs><style>.cls-1{fill:#fecd97;}.cls-2{fill:#871e44;}.cls-3{opacity:0.1;}.cls-4{fill:#f23a52;}.cls-5{opacity:0.2;}.cls-6{fill:#fff;}</style></defs><title>Ресурс 14</title><g id="Слой_2" data-name="Слой 2"><g id="Layer_1" data-name="Layer 1"><path class="cls-1" d="M74.22,57.24a.72.72,0,0,1-.68-1c.21-.6-1.48-2.75-2.39-3.91-1.35-1.71-2.51-3.19-2.51-4.31a19.46,19.46,0,0,0-.36-2.92A18.61,18.61,0,0,1,68,38.27a15.9,15.9,0,0,0-6-2.75.72.72,0,0,1-.72.62h-.12a15.88,15.88,0,0,0-10,1.64.73.73,0,0,1-.34.08.73.73,0,0,1-.73-.73V19.28A5.94,5.94,0,0,1,60.52,15.4V6.66a5.93,5.93,0,1,1,11.87,0V8a5.93,5.93,0,0,1,10.42,3.88V26.82a.73.73,0,0,1-.17.5c-.8.93.27,4.11,1.06,6.44a18.23,18.23,0,0,1,1.23,4.88.72.72,0,0,1,0,.2L80,56.13a.72.72,0,0,1-.7.53,21.43,21.43,0,0,0-4.9.56Z"/><path class="cls-2" d="M66.46,1.45a5.21,5.21,0,0,1,5.21,5.21v5.27a5.21,5.21,0,1,1,10.42,0V26.84h0c-1.75,2,2.11,8.9,2.11,11.79l-4.92,17.3a22.13,22.13,0,0,0-5.06.58c.64-1.8-4.86-6.57-4.86-8.46,0-2.52-1.47-6.47-.54-10.08a16.51,16.51,0,0,0-7.57-3.33v.77a16.62,16.62,0,0,0-10.42,1.71V19.28a5.21,5.21,0,1,1,10.42,0V6.66a5.21,5.21,0,0,1,5.21-5.21Zm0-1.45A6.67,6.67,0,0,0,59.8,6.66v7.12a6.66,6.66,0,0,0-10.42,5.5V37.13a1.45,1.45,0,0,0,2.13,1.28A15.17,15.17,0,0,1,61,36.85l.23,0a1.45,1.45,0,0,0,.94-.35l.16-.16a15.16,15.16,0,0,1,4.86,2.23,20.65,20.65,0,0,0,.35,6.66,19,19,0,0,1,.35,2.8c0,1.3,1,2.66,2.66,4.75a14.85,14.85,0,0,1,2.24,3.34,1.45,1.45,0,0,0,1.74,1.77,20.73,20.73,0,0,1,4.73-.54,1.45,1.45,0,0,0,1.39-1.05L85.6,39a1.45,1.45,0,0,0,.06-.4,18.55,18.55,0,0,0-1.27-5.11c-.52-1.53-1.73-5.12-1.2-5.73a1.45,1.45,0,0,0,.35-1V11.93A6.66,6.66,0,0,0,73.11,6.43,6.67,6.67,0,0,0,66.46,0Z"/><path class="cls-1" d="M25.06,56.2l-.17,0c-.41-.1-1.19-.3-2.15-.56-2.49-.66-7.12-1.9-8.33-1.9A.72.72,0,0,1,13.7,53V34.42a10.89,10.89,0,0,0-2.64-7.1.73.73,0,0,1-.17-.52V11.93A5.94,5.94,0,0,1,21.31,8V6.66a5.94,5.94,0,1,1,11.87,0V15.4a5.93,5.93,0,0,1,10.42,3.88V32.92a.73.73,0,0,1-1.07.64,15.9,15.9,0,0,0-9.36-1.72v1.66a.72.72,0,0,1-.61.72,15.76,15.76,0,0,0-8.68,4.44l-.24.26c.49.92,1.05,1.89,1.61,2.83,1.46,2.48,2.84,4.83,2.84,6.54a8.87,8.87,0,0,1-1.23,3.46c-.62,1.23-1.38,2.76-1.13,3.48a.72.72,0,0,1-.68,1Z"/><path class="cls-2" d="M27.24,1.45a5.21,5.21,0,0,1,5.21,5.21V19.28a5.21,5.21,0,1,1,10.42,0V32.92a16.63,16.63,0,0,0-10.42-1.71v2.29a16.52,16.52,0,0,0-9.07,4.65c-.21.21-.39.45-.59.67,1.69,3.36,4.59,7.25,4.59,9.47,0,1.89-3,5.38-2.31,7.18C23.44,55.09,16.16,53,14.42,53V34.42a11.57,11.57,0,0,0-2.81-7.58h0V11.93a5.21,5.21,0,0,1,10.42,0V6.66a5.21,5.21,0,0,1,5.21-5.21ZM22,37.1V33.64c-.65.83-.51,2.05,0,3.46ZM27.24,0a6.67,6.67,0,0,0-6.65,6.43,6.66,6.66,0,0,0-10.43,5.49V26.79a1.45,1.45,0,0,0,.35,1A10.16,10.16,0,0,1,13,34.42V53a1.45,1.45,0,0,0,1.45,1.45,69.57,69.57,0,0,1,8.15,1.87c1,.26,1.75.47,2.16.56a1.45,1.45,0,0,0,1.7-1.9c-.14-.46.66-2.05,1.09-2.91a9.29,9.29,0,0,0,1.31-3.79c0-1.91-1.36-4.22-2.94-6.91-.46-.78-.92-1.57-1.34-2.34a15,15,0,0,1,8.14-4.11,1.45,1.45,0,0,0,1.22-1.43v-1c.4,0,.81,0,1.21,0A15.17,15.17,0,0,1,42.2,34.2a1.45,1.45,0,0,0,2.13-1.28V19.28a6.66,6.66,0,0,0-10.42-5.5V6.66A6.67,6.67,0,0,0,27.24,0Z"/><path class="cls-3" d="M37.67,14.07a5.21,5.21,0,0,0-5.21,5.21v27a16.91,16.91,0,0,1,1.35-1.52,16.63,16.63,0,0,1,3.44-2.64V19.28a5.21,5.21,0,0,1,2.81-4.63A5.2,5.2,0,0,0,37.67,14.07Z"/><path class="cls-3" d="M56,14.07a5.21,5.21,0,0,0-5.21,5.21v27a16.77,16.77,0,0,1,1.35-1.52,16.58,16.58,0,0,1,3.44-2.64V19.28a5.21,5.21,0,0,1,2.82-4.63A5.2,5.2,0,0,0,56,14.07Z"/><path class="cls-3" d="M66.45,1.45a5.21,5.21,0,0,0-5.21,5.21v27A16.69,16.69,0,0,1,66,29.48V6.66A5.21,5.21,0,0,1,68.85,2,5.19,5.19,0,0,0,66.45,1.45Z"/><path class="cls-3" d="M76.88,6.71a5.21,5.21,0,0,0-5.21,5.21V46.39l2.55,3,2.24-.4V11.93A5.21,5.21,0,0,1,79.27,7.3,5.18,5.18,0,0,0,76.88,6.71Z"/><path class="cls-3" d="M27.24,1.45A5.21,5.21,0,0,0,22,6.66v27a16.73,16.73,0,0,1,4.79-4.16V6.66A5.21,5.21,0,0,1,29.64,2,5.19,5.19,0,0,0,27.24,1.45Z"/><path class="cls-3" d="M16.41,6.53a5.21,5.21,0,0,0-5.21,5.21v27c.41-.53-1,13.06-.56,12.57,1.05-1.05,4.12-1.82,5.35-2.53v-37A5.21,5.21,0,0,1,18.8,7.12,5.19,5.19,0,0,0,16.41,6.53Z"/><path class="cls-4" d="M74.84,40.47a16.6,16.6,0,0,0-13.59-13,16.57,16.57,0,0,0-14.39,4.65,16.63,16.63,0,0,0-4-2.94,16.42,16.42,0,0,0-5-1.69,16.59,16.59,0,0,0-19.36,16c0,.06,0,.13,0,.19v.15c0,.09,0,.18,0,.27a16.55,16.55,0,0,0,1,5.31s0,0,.05,0c1.93,8.5-1.3,16.28,16.89,19.07v.14L46.85,79.06l.08-.08L57.26,68.66c.54-5.18,7.71-5,11.2-8.48,2.86-2.86,1.68-9.78,5.76-10.74a16.61,16.61,0,0,0,.62-9Z"/><path class="cls-5" d="M68.45,60.17c2.86-2.86,1.68-9.78,5.76-10.74A16.54,16.54,0,0,0,53.92,28c5.58,1.91,12.53,6.71,11.54,18.87,0,0-12.33,4.35-12.51,19.22L43.82,76l3,3,.08-.08L57.26,68.66C57.8,63.47,65,63.66,68.45,60.17Z"/><path class="cls-2" d="M46.89,79.75a.78.78,0,0,1-.55-.17l-10.4-10.4c-15-2.39-15.66-8.5-16.4-15-.16-1.42-.33-2.89-.65-4.37a.68.68,0,0,1-.08-.16,17.25,17.25,0,0,1-1-5.54v-.63A17.16,17.16,0,0,1,21.47,33.2a17.42,17.42,0,0,1,1.4-1.58,17.34,17.34,0,0,1,20.35-3.07,17.37,17.37,0,0,1,3.63,2.57,17.22,17.22,0,0,1,3.63-2.57,17.5,17.5,0,0,1,10.88-1.79A17.32,17.32,0,0,1,75.55,40.33a17.32,17.32,0,0,1-.65,9.35.72.72,0,0,1-.52.46c-1.9.44-2.43,2.59-3,5.08-.49,2-1,4.09-2.38,5.46a16.18,16.18,0,0,1-5.39,3.1C60.73,65,58.27,66,58,68.73a.72.72,0,0,1-.21.44L47.44,79.5A.86.86,0,0,1,46.89,79.75ZM37.12,68.31,46.85,78l9.72-9.72c.5-3.39,3.52-4.65,6.45-5.87a15.14,15.14,0,0,0,4.92-2.79c1.08-1.08,1.55-3,2-4.79.63-2.57,1.28-5.22,3.72-6a15.87,15.87,0,0,0,.8-5,16,16,0,0,0-.33-3.24,15.63,15.63,0,0,0-3-6.53,15.9,15.9,0,0,0-10-5.9,16,16,0,0,0-10,1.64,15.82,15.82,0,0,0-3.8,2.81.73.73,0,0,1-1,0,15.9,15.9,0,0,0-3.8-2.81,15.66,15.66,0,0,0-4.77-1.62A15.86,15.86,0,0,0,23.9,32.64a16.14,16.14,0,0,0-1.29,1.45,15.72,15.72,0,0,0-3.36,9.45v.57A15.84,15.84,0,0,0,20.1,49a.69.69,0,0,1,.15.3A43.5,43.5,0,0,1,21,54c.75,6.47,1.34,11.57,15.56,13.76A.73.73,0,0,1,37.12,68.31Z"/><path class="cls-1" d="M91,22.91a11.57,11.57,0,0,0-8.23,3.39c-.2.2-.4.42-.59.64a11.57,11.57,0,0,0-2.83,7.57l0,14.43A22.14,22.14,0,0,0,57.24,68.68l-4.19,4.17-6.24,6.21L36.43,68.63a22.12,22.12,0,0,0-22-19.86l0-14.43a11.57,11.57,0,0,0-2.8-7.59,11.59,11.59,0,0,0-8.8-4.06A2.06,2.06,0,0,0,.83,24.74l-.11,45a9.39,9.39,0,0,0,1.8,5.55L15,92.42l0,9.37,63.55.15,0-9.37,12.56-17A9.38,9.38,0,0,0,92.94,70L93,25A2.06,2.06,0,0,0,91,22.91Z"/><path class="cls-6" d="M13.11,80.23,5.9,70.32V42.93a1.54,1.54,0,1,0-3.08,0V71a1.52,1.52,0,0,0,.7,1.26L10.62,82a1.54,1.54,0,1,0,2.49-1.81Z"/><ellipse class="cls-6" cx="26.12" cy="35.14" rx="5.71" ry="1.99" transform="translate(-17.17 28.61) rotate(-44.8)"/><path class="cls-3" d="M90.9,22.8a11.58,11.58,0,0,0-8.22,3.4c-.2.2-.4.42-.59.64a11.57,11.57,0,0,0-2.81,7.58V48.85h0v.08A22.14,22.14,0,0,0,57.24,68.68l-4.19,4.17-5.84,5.82,0,0-.38.38V102h6.22V80.93l8.58-7.09c1.45-14.5,14.87-17.95,14.87-17.95,9.43-2.18,8.88-14.14,8.88-14.14h-.13V34.42a11.57,11.57,0,0,1,2.81-7.58c.19-.22.39-.43.59-.64a11.62,11.62,0,0,1,3.88-2.57A2.05,2.05,0,0,0,90.9,22.8Z"/><path class="cls-2" d="M78.53,102.67h0L15,102.51a.73.73,0,0,1-.72-.73l0-9.13L1.94,75.75a10.19,10.19,0,0,1-1.94-6l.11-45A2.79,2.79,0,0,1,2.89,22h0A12.35,12.35,0,0,1,15.22,34.34l0,13.72A22.85,22.85,0,0,1,37.12,68.3L46.81,78l9.74-9.69a22.84,22.84,0,0,1,22-20.13l0-13.72a12.34,12.34,0,0,1,3-8c.2-.23.41-.46.63-.68A12.26,12.26,0,0,1,91,22.18h0A2.79,2.79,0,0,1,93.77,25l-.11,45a10,10,0,0,1-2,6L79.28,92.81l0,9.13A.73.73,0,0,1,78.53,102.67Zm-62.83-1.6,62.1.15,0-8.65a.72.72,0,0,1,.14-.43l12.56-17A8.6,8.6,0,0,0,92.22,70l.11-45A1.33,1.33,0,0,0,91,23.63h0a10.82,10.82,0,0,0-7.69,3.17c-.19.19-.38.39-.56.59a10.9,10.9,0,0,0-2.65,7.1l0,14.43a.73.73,0,0,1-.73.72h0a22.23,22.23,0,0,0-4.9.55A21.43,21.43,0,0,0,58,68.76a.72.72,0,0,1-.21.44L47.32,79.58a.73.73,0,0,1-.51.21h0a.73.73,0,0,1-.51-.21L35.92,69.14a.72.72,0,0,1-.21-.44A21.4,21.4,0,0,0,14.45,49.5a.73.73,0,0,1-.72-.73l0-14.43A10.9,10.9,0,0,0,2.9,23.42h0a1.34,1.34,0,0,0-1.33,1.33l-.11,45a8.71,8.71,0,0,0,1.66,5.12L15.59,92a.73.73,0,0,1,.14.43Z"/><path class="cls-6" d="M30.48,12.2h0a.91.91,0,0,1-.91-.91v-6a.91.91,0,0,1,.91-.91h0a.91.91,0,0,1,.91.91v6A.91.91,0,0,1,30.48,12.2Z"/><path class="cls-6" d="M20.14,17.37h0a.91.91,0,0,1-.91-.91v-6a.91.91,0,0,1,.91-.91h0a.91.91,0,0,1,.91.91v6A.91.91,0,0,1,20.14,17.37Z"/><path class="cls-6" d="M40.63,24.62h0a.91.91,0,0,1-.91-.91v-6a.91.91,0,0,1,.91-.91h0a.91.91,0,0,1,.91.91v6A.91.91,0,0,1,40.63,24.62Z"/></g></g></svg>