<svg xmlns="http://www.w3.org/2000/svg" viewBox="0 0 59.46 68.21"><defs><style>.cls-1{fill:#fecd97;}.cls-2{opacity:0.1;}.cls-3{fill:#0eb1e2;}.cls-4{opacity:0.2;}.cls-5{fill:#871e44;}.cls-6{fill:#226cb3;}.cls-7{fill:#f23a52;}.cls-8{fill:#fff;}</style></defs><title>Ресурс 1</title><g id="Слой_2" data-name="Слой 2"><g id="Layer_1" data-name="Layer 1"><path class="cls-1" d="M31.84,67.74a15,15,0,0,1-2.77-.27L6.75,64.7a.47.47,0,0,1-.37.18l-.15,0a.47.47,0,0,1-.32-.48L7.14,48.69a.47.47,0,0,1,.32-.41,17.68,17.68,0,0,1,5.88-1,22,22,0,0,1,8,1.65,12.56,12.56,0,0,0,2.75.66l12,1.1h.05A3.35,3.35,0,0,1,39.36,54a3.44,3.44,0,0,1-3.22,3.52l-13.61.27a.3.3,0,0,0-.22.09.32.32,0,0,0-.08.24.31.31,0,0,0,.3.29l.53,0s2.91.18,6.48.18a66.35,66.35,0,0,0,8.86-.49,8.46,8.46,0,0,0,3-1l.53-.3a73.78,73.78,0,0,1,8.16-4.1l.12-.05a12.48,12.48,0,0,1,4.15-1.28l.34,0a2.91,2.91,0,0,1,2.46,3.35,3.43,3.43,0,0,1-1.92,2.64l-18,9.08-.7.31a11.37,11.37,0,0,1-4.74,1Z"/><path class="cls-2" d="M54.59,54.77l-18,9.08-.7.31a11.37,11.37,0,0,1-4.74,1h0a15,15,0,0,1-2.77-.27L11,62.72l.4-15.35a18.86,18.86,0,0,0-3.9.91.47.47,0,0,0-.32.41L5.91,64.38a.47.47,0,0,0,.32.48l.15,0a.47.47,0,0,0,.37-.18l22.32,2.76a15.09,15.09,0,0,0,2.48.26,11.32,11.32,0,0,0,4.44-1l.7-.31,18-9.08a3.43,3.43,0,0,0,1.92-2.64,3.32,3.32,0,0,0-.31-1.8A3.56,3.56,0,0,1,54.59,54.77Z"/><path class="cls-3" d="M21.9,46a2.8,2.8,0,0,1-3-2.47V19.59a.47.47,0,0,1,.17-.36C22.85,16.1,34.25,5,34.37,4.93a.47.47,0,0,1,.33-.13c.29,0,.3,0,8,6.82,3.51,3.12,7.13,6.36,8.6,7.59a.47.47,0,0,1,.17.36V43.49a2.8,2.8,0,0,1-3,2.47Z"/><path class="cls-4" d="M51.42,19.57a.47.47,0,0,0-.17-.36c-1.47-1.23-5.1-4.46-8.6-7.59C35,4.8,35,4.8,34.7,4.8a.47.47,0,0,0-.33.13l-.9.87-.63,3L48.12,23.94V40.43a2.8,2.8,0,0,1-3,2.47H18.51v.48a2.8,2.8,0,0,0,3,2.47H48a2.8,2.8,0,0,0,3-2.47V26.87l.35.35Z"/><path class="cls-5" d="M13,47.72a21.26,21.26,0,0,1,7.8,1.61,12.94,12.94,0,0,0,2.88.69l12,1.1h.1A2.9,2.9,0,0,1,38.54,54a3,3,0,0,1-2.77,3l-13.6.27a.78.78,0,0,0,0,1.56l.53,0s2.87.18,6.5.18a68.29,68.29,0,0,0,8.93-.5,9,9,0,0,0,3.22-1.08l.53-.3A72.83,72.83,0,0,1,50,53.11a13.62,13.62,0,0,1,4.08-1.3l.27,0a2.43,2.43,0,0,1,2.07,2.83,2.94,2.94,0,0,1-1.66,2.27L36.71,66l-.68.3a11,11,0,0,1-4.55,1A14.46,14.46,0,0,1,28.8,67L6.15,64.2,6,64.42,7.26,48.73a17.09,17.09,0,0,1,5.73-1Zm0-.94a18.09,18.09,0,0,0-6,1.06.94.94,0,0,0-.63.82L5.09,64.34a.94.94,0,0,0,1.47.85l22.1,2.73a15.46,15.46,0,0,0,2.83.28,11.84,11.84,0,0,0,4.93-1l.67-.3,0,0,18-9.08a3.9,3.9,0,0,0,2.18-3,3.36,3.36,0,0,0-2.86-3.86,2.7,2.7,0,0,0-.41,0,12.82,12.82,0,0,0-4.34,1.32l-.12.05a74.35,74.35,0,0,0-8.23,4.13l-.22.12-.28.16a8,8,0,0,1-2.89,1l-1.1.14A4,4,0,0,0,39.48,54a3.83,3.83,0,0,0-3.72-3.8h-.07L23.75,49.08a12,12,0,0,1-2.62-.63A22.42,22.42,0,0,0,13,46.78ZM28.72,58.12l4.87-.1c-1.35.07-2.82.1-4.4.1Z"/><path class="cls-6" d="M4.14,67.11a3.82,3.82,0,0,1-3.66-4L1,49.79A3.8,3.8,0,0,1,4.8,46.12H5a3.82,3.82,0,0,1,3.66,4L8.1,63.44a3.8,3.8,0,0,1-3.81,3.67Z"/><path class="cls-4" d="M1.93,64.81h.15a3.82,3.82,0,0,0,4-3.67l.49-13.36a3.8,3.8,0,0,0-.13-1.08,3.79,3.79,0,0,1,2,3.46L7.86,63.53a3.82,3.82,0,0,1-4,3.67H3.76A3.79,3.79,0,0,1,.37,64.33,3.79,3.79,0,0,0,1.93,64.81Z"/><path class="cls-5" d="M4.8,46.59h.13a3.35,3.35,0,0,1,3.21,3.47L7.62,63.43a3.35,3.35,0,0,1-3.34,3.21H4.15A3.35,3.35,0,0,1,.94,63.17l.52-13.36A3.35,3.35,0,0,1,4.8,46.59Zm0-.94h0A4.27,4.27,0,0,0,.52,49.77L0,63.13a4.29,4.29,0,0,0,4.11,4.45h.17a4.27,4.27,0,0,0,4.28-4.12L9.09,50.1A4.29,4.29,0,0,0,5,45.65Z"/><path class="cls-5" d="M34.7,5.27c.23,0,13.13,11.68,16.25,14.3V43.49a2.34,2.34,0,0,1-2.56,2H21.9a2.34,2.34,0,0,1-2.56-2V19.59C23.21,16.41,34.7,5.27,34.7,5.27Zm0-.94a.94.94,0,0,0-.66.27c-.11.11-11.5,11.15-15.3,14.27a.94.94,0,0,0-.34.73v23.9a3.27,3.27,0,0,0,3.51,2.94H48.39a3.27,3.27,0,0,0,3.51-2.94V19.57a.94.94,0,0,0-.34-.72c-1.47-1.23-5.08-4.45-8.58-7.57-7.79-6.95-7.79-6.95-8.27-6.95Z"/><path class="cls-6" d="M56,27.27A2.93,2.93,0,0,1,54,26.41L35.14,7.59,16.32,26.41a2.95,2.95,0,0,1-4.17-4.17L33.06,1.33a3,3,0,0,1,4.17,0l20.9,20.91a2.95,2.95,0,0,1-2.09,5Z"/><g class="cls-4"><path d="M57.9,22.12,37,1.21A2.95,2.95,0,0,0,33.83.56c.07.06.15.11.22.18L55,21.65a2.94,2.94,0,0,1-1,4.82,2.94,2.94,0,0,0,3.95-4.35Z"/></g><path class="cls-5" d="M35.14.94a2.47,2.47,0,0,1,1.75.72l20.9,20.9a2.48,2.48,0,0,1-3.5,3.5L35.14,6.92,16,26.07a2.48,2.48,0,0,1-3.5-3.5l20.9-20.9A2.47,2.47,0,0,1,35.14.94Zm0-.94a3.4,3.4,0,0,0-2.42,1L11.82,21.9a3.42,3.42,0,0,0,4.84,4.84L35.14,8.25,53.63,26.74a3.42,3.42,0,0,0,4.84-4.84L37.56,1a3.4,3.4,0,0,0-2.42-1Z"/><path class="cls-7" d="M35.12,40.86h0c-.71-.17-5.34-3.58-8.14-7.35-2.33-3.13-3.12-6-2.36-8.55.09-.2,1.66-3.63,5.1-3.63a8.58,8.58,0,0,1,5.42,2.49,8.58,8.58,0,0,1,5.42-2.49c3.45,0,5,3.42,5.08,3.57.79,2.61,0,5.49-2.36,8.64-2.84,3.81-7.52,7.23-8.12,7.32h0Z"/><path class="cls-4" d="M45.41,25a7.09,7.09,0,0,0-.95-1.47q.44,3.46-2.59,7.52c-2.84,3.81-7.52,7.23-8.12,7.32h0C33,38.21,28.37,34.8,25.56,31a17.94,17.94,0,0,1-1.06-1.61,14.18,14.18,0,0,0,2.24,4.2c2.8,3.78,7.43,7.18,8.14,7.35h0c.6-.09,5.28-3.52,8.12-7.32C45.39,30.51,46.19,27.62,45.41,25Z"/><path class="cls-5" d="M40.56,21.8c3.18,0,4.65,3.29,4.65,3.29,2.17,7.19-9.88,15.3-10.07,15.3h0c-.18,0-12.24-8.11-10.07-15.3,0,0,1.47-3.29,4.65-3.29,1.44,0,3.24.68,5.42,2.65,2.17-2,4-2.65,5.42-2.65Zm0-.94h0a8.73,8.73,0,0,0-5.42,2.35,8.73,8.73,0,0,0-5.42-2.35c-3.75,0-5.44,3.69-5.51,3.85l0,.11c-.81,2.69,0,5.71,2.43,9a31.69,31.69,0,0,0,8.06,7.38l0,0a1,1,0,0,0,.49.14h0a1,1,0,0,0,.48-.14l0,0a31.65,31.65,0,0,0,8.07-7.38c2.42-3.26,3.24-6.28,2.43-9l0-.11c-.07-.16-1.76-3.85-5.51-3.85Z"/><ellipse class="cls-8" cx="27.54" cy="24.76" rx="2.35" ry="1.12" transform="translate(-9.44 26.73) rotate(-45)"/><path class="cls-8" d="M36.33,53.6l-4.69-.46a.89.89,0,0,1-.79-1h0a.89.89,0,0,1,1-.79l4.69.46a.89.89,0,0,1,.79,1h0A.89.89,0,0,1,36.33,53.6Z"/><rect class="cls-8" x="2.12" y="48.54" width="1.58" height="5.45" rx="0.69" ry="0.69" transform="translate(2.17 -0.08) rotate(2.42)"/><path class="cls-8" d="M12.76,24.42h0a.71.71,0,0,1,0-1l3.93-3.93a.71.71,0,0,1,1,0h0a.71.71,0,0,1,0,1l-3.93,3.93A.71.71,0,0,1,12.76,24.42Z"/></g></g></svg>