<svg xmlns="http://www.w3.org/2000/svg" viewBox="0 0 43.74 68.21"><defs><style>.cls-1{fill:#fecd97;}.cls-2{opacity:0.1;}.cls-3{fill:#871e44;}.cls-4{fill:#f4df02;}.cls-5{opacity:0.2;}.cls-6{fill:#fff;}</style></defs><title>Ресурс 13</title><g id="Слой_2" data-name="Слой 2"><g id="Layer_1" data-name="Layer 1"><rect class="cls-1" x="14.09" y="47.94" width="6.17" height="19.82" rx="2.9" ry="2.9"/><rect class="cls-1" x="23.47" y="47.94" width="6.17" height="19.82" rx="2.9" ry="2.9"/><path class="cls-2" d="M27.7,48.09A2.87,2.87,0,0,1,28,49.27v14a2.9,2.9,0,0,1-2.9,2.9h-.37a2.87,2.87,0,0,1-1.18-.26,2.9,2.9,0,0,0,2.64,1.71h.37a2.9,2.9,0,0,0,2.9-2.9v-14A2.9,2.9,0,0,0,27.7,48.09Z"/><path class="cls-2" d="M18.41,48.2a2.87,2.87,0,0,1,.26,1.18v14a2.9,2.9,0,0,1-2.9,2.9H15.4A2.87,2.87,0,0,1,14.21,66a2.9,2.9,0,0,0,2.64,1.71h.37a2.9,2.9,0,0,0,2.9-2.9v-14A2.9,2.9,0,0,0,18.41,48.2Z"/><path class="cls-1" d="M13.91,22.1a1.57,1.57,0,0,1-1.12-.46L9.2,18a1.58,1.58,0,0,1,.72-2.64l3.43-.88a9.62,9.62,0,1,1,17,0l3.4.76A1.58,1.58,0,0,1,34.54,18l-3.6,3.6a1.57,1.57,0,0,1-1.12.46,1.58,1.58,0,0,1-1.53-1.19l-.77-3a9.58,9.58,0,0,1-11.38-.06l-.69,3.08A1.58,1.58,0,0,1,14.35,22a1.56,1.56,0,0,1-.44.06Z"/><g class="cls-2"><path d="M35,16.41a1.58,1.58,0,0,0-1.17-1.1l-3.4-.76A9.6,9.6,0,0,0,17.87,1.38,9.6,9.6,0,0,1,28,15.34l3.4.76a1.58,1.58,0,0,1,.77,2.66l-3.05,3.05a1.58,1.58,0,0,0,1.92-.24l3.6-3.6A1.58,1.58,0,0,0,35,16.41Z"/></g><path class="cls-3" d="M21.87.9a9.15,9.15,0,0,1,7.8,14l4,.89a1.13,1.13,0,0,1,.55,1.9l-3.6,3.6a1.13,1.13,0,0,1-1.89-.52l-.94-3.67A9.14,9.14,0,0,1,15.86,17L15,20.76a1.13,1.13,0,0,1-1.9.55l-3.6-3.6A1.13,1.13,0,0,1,10,15.83l4-1A9.15,9.15,0,0,1,21.87.9Zm0-.9a10,10,0,0,0-9.16,14.21L9.81,15a2,2,0,0,0-.93,3.4l3.6,3.6a2,2,0,0,0,3.41-1l.54-2.43a10,10,0,0,0,10.81,0L27.86,21a2,2,0,0,0,3.39.93l3.6-3.6a2,2,0,0,0-1-3.41L31,14.25A10,10,0,0,0,21.87,0Z"/><path class="cls-3" d="M17.37,48.39a2.46,2.46,0,0,1,2.45,2.45v14a2.46,2.46,0,0,1-2.45,2.45H17a2.46,2.46,0,0,1-2.45-2.45v-14A2.46,2.46,0,0,1,17,48.39Zm0-.9H17a3.35,3.35,0,0,0-3.35,3.35v14A3.35,3.35,0,0,0,17,68.21h.37a3.35,3.35,0,0,0,3.35-3.35v-14a3.35,3.35,0,0,0-3.35-3.35Z"/><path class="cls-3" d="M26.74,48.39a2.46,2.46,0,0,1,2.45,2.45v14a2.46,2.46,0,0,1-2.45,2.45h-.37a2.46,2.46,0,0,1-2.45-2.45v-14a2.46,2.46,0,0,1,2.45-2.45Zm0-.9h-.37A3.35,3.35,0,0,0,23,50.84v14a3.35,3.35,0,0,0,3.35,3.35h.37a3.35,3.35,0,0,0,3.35-3.35v-14a3.35,3.35,0,0,0-3.35-3.35Z"/><path class="cls-4" d="M21.87,51.77A84.2,84.2,0,0,1,7.49,50.68c-4.93-.9-7-2.1-7-4,0-.2,0-.54,15.77-23.25a.45.45,0,0,1,.37-.19.44.44,0,0,1,.2,0,11.08,11.08,0,0,0,5.08,1.22,11.22,11.22,0,0,0,5.37-1.37.45.45,0,0,1,.59.14c15.47,22.87,15.47,23.2,15.47,23.4,0,1.91-2.11,3.1-7,4A84.21,84.21,0,0,1,21.87,51.77Z"/><path class="cls-5" d="M27.93,23.39a.45.45,0,0,0-.59-.14,11.12,11.12,0,0,1-2.11.86c13,19.26,13,19.58,13,19.77,0,1.91-2.11,3.1-7,4A84.22,84.22,0,0,1,16.83,49,84.21,84.21,0,0,1,2.45,47.88c-.64-.12-1.23-.24-1.77-.37C1.18,49,3.33,50,7.6,50.79A84.2,84.2,0,0,0,22,51.88a84.22,84.22,0,0,0,14.38-1.09c4.93-.9,7-2.1,7-4C43.4,46.59,43.4,46.25,27.93,23.39Z"/><path class="cls-3" d="M27.45,23.52c2.06,3,15.39,22.77,15.39,23.15,0,1.62-2.06,2.72-6.67,3.56a83.8,83.8,0,0,1-14.3,1.08,83.8,83.8,0,0,1-14.3-1.08C3,49.4.9,48.3.9,46.67c0-.38,13.24-19.46,15.69-23a11.65,11.65,0,0,0,10.86-.16Zm0-.9a.89.89,0,0,0-.43.11,10.77,10.77,0,0,1-5.15,1.31A10.64,10.64,0,0,1,17,22.88a.9.9,0,0,0-1.14.29C0,46,0,46.29,0,46.67c0,2.73,3.74,3.78,7.41,4.44a84.72,84.72,0,0,0,14.46,1.1,84.72,84.72,0,0,0,14.46-1.1c3.66-.67,7.41-1.72,7.41-4.44,0-.37,0-.67-15.54-23.65a.9.9,0,0,0-.74-.39Z"/><path class="cls-6" d="M21.87,46.79a2.13,2.13,0,0,1-2.12-2.12V40.76H15.84a2.12,2.12,0,0,1,0-4.24h3.91V32.61a2.12,2.12,0,0,1,4.24,0v3.91H27.9a2.12,2.12,0,0,1,0,4.24H24v3.91A2.13,2.13,0,0,1,21.87,46.79Z"/><g class="cls-5"><path d="M28.21,36.55a2.1,2.1,0,0,1,.46,1.31A2.12,2.12,0,0,1,26.55,40H22.65v3.91A2.13,2.13,0,0,1,20.52,46a2.1,2.1,0,0,1-.32,0A2.11,2.11,0,0,0,24,44.66V40.76H27.9a2.12,2.12,0,0,0,.32-4.21Z"/></g><path class="cls-3" d="M21.87,30.93a1.68,1.68,0,0,1,1.67,1.67V37H27.9a1.67,1.67,0,1,1,0,3.35H23.54v4.35a1.67,1.67,0,0,1-3.35,0V40.31H15.84a1.67,1.67,0,0,1,0-3.35h4.35V32.61a1.68,1.68,0,0,1,1.67-1.67Zm0-.9a2.57,2.57,0,0,0-2.57,2.57v3.46H15.84a2.57,2.57,0,0,0,0,5.14H19.3v3.46a2.57,2.57,0,0,0,5.14,0V41.21H27.9a2.57,2.57,0,0,0,0-5.14H24.44V32.61A2.57,2.57,0,0,0,21.87,30Z"/><path class="cls-6" d="M15.58,64.79h0a.62.62,0,0,1-.62-.62V60a.62.62,0,0,1,.62-.62h0a.62.62,0,0,1,.62.62v4.14A.62.62,0,0,1,15.58,64.79Z"/><path class="cls-6" d="M25,64.67h0a.62.62,0,0,1-.62-.62V59.91A.62.62,0,0,1,25,59.3h0a.62.62,0,0,1,.62.62v4.14A.62.62,0,0,1,25,64.67Z"/><ellipse class="cls-6" cx="15.75" cy="6.28" rx="3.19" ry="1.41" transform="translate(2.4 16.74) rotate(-59.81)"/><path class="cls-6" d="M3,46.32H3a.79.79,0,0,1-.2-1.09l3.36-4.89a.79.79,0,0,1,1.09-.2h0a.79.79,0,0,1,.2,1.09L4.08,46.12A.79.79,0,0,1,3,46.32Z"/></g></g></svg>