<svg xmlns="http://www.w3.org/2000/svg" viewBox="0 0 68.21 57.13"><defs><style>.cls-1{fill:#fecd97;}.cls-2{opacity:0.1;}.cls-3{fill:#f23a52;}.cls-4{opacity:0.2;}.cls-5{fill:#871e44;}.cls-6{fill:#01c7ff;}.cls-7{fill:#fff;}</style></defs><title>Ресурс 12</title><g id="Слой_2" data-name="Слой 2"><g id="Layer_1" data-name="Layer 1"><path class="cls-1" d="M35.87,56.73a17.12,17.12,0,0,1-3.16-.31L7,53.24l0,0a.4.4,0,0,1-.34.19l-.13,0A.4.4,0,0,1,6.26,53L7.68,35a.4.4,0,0,1,.27-.35,20.08,20.08,0,0,1,6.7-1.19,25.05,25.05,0,0,1,9.09,1.88,14.52,14.52,0,0,0,3.19.77L40.69,37.4h.07a3.71,3.71,0,0,1,3.59,3.7A3.81,3.81,0,0,1,40.79,45l-15.61.31a.48.48,0,0,0-.35.15.5.5,0,0,0-.13.37.49.49,0,0,0,.48.46l.61,0s3.34.2,7.45.2a76.15,76.15,0,0,0,10.18-.57A9.85,9.85,0,0,0,47,44.76l.61-.34a84.56,84.56,0,0,1,9.35-4.69l.14-.06a15.13,15.13,0,0,1,4.71-1.46l.37,0a3.21,3.21,0,0,1,2.71,3.69,3.8,3.8,0,0,1-2.13,2.92L42,55.25l-.8.35a12.92,12.92,0,0,1-5.38,1.13Z"/><path class="cls-2" d="M64.85,41.31a3.28,3.28,0,0,0-1.12-2.36,1.44,1.44,0,0,1,0,.15A3.8,3.8,0,0,1,61.6,42L40.93,52.43l-.8.35a12.92,12.92,0,0,1-5.38,1.13h0a17.12,17.12,0,0,1-3.16-.31L11.67,51.13l.39-17.45a21.58,21.58,0,0,0-4.11,1,.4.4,0,0,0-.27.35L6.26,53a.4.4,0,0,0,.28.41l.13,0A.4.4,0,0,0,7,53.27l0,0,4.58.57v-.1l21.1,2.61a17.13,17.13,0,0,0,3.16.31h0a12.92,12.92,0,0,0,5.38-1.13l.8-.35L62.71,44.73a3.8,3.8,0,0,0,2.13-2.92s0-.09,0-.14,0-.22,0-.34Z"/><path class="cls-3" d="M47.68,36.69a.42.42,0,0,1-.2-.06h0a60.21,60.21,0,0,1-15-13.77C28.16,17,26.67,11.66,28.08,7c0-.11,3-6.57,9.27-6.57C40.54.4,44,2.06,47.68,5.32,51.36,2.06,54.83.4,58,.4c6.26,0,9.22,6.45,9.25,6.52,1.44,4.75-.07,10.12-4.45,16a60.24,60.24,0,0,1-14.93,13.7h0a.41.41,0,0,1-.21.06h0Z"/><path class="cls-4" d="M67.27,6.52a12.7,12.7,0,0,0-1.13-1.87c.34,4.09-1.32,8.59-4.93,13.43a60.24,60.24,0,0,1-14.93,13.7h0a.41.41,0,0,1-.21.06h0a.42.42,0,0,1-.2-.06h0A60.2,60.2,0,0,1,30.89,18a31.33,31.33,0,0,1-3-4.78,24.9,24.9,0,0,0,4.57,9.21,60.2,60.2,0,0,0,15,13.77h0a.42.42,0,0,0,.2.06h0a.41.41,0,0,0,.21-.06h0a60.24,60.24,0,0,0,14.93-13.7C67.2,16.64,68.7,11.27,67.27,6.52Z"/><path class="cls-5" d="M58,.81c6.07,0,8.88,6.28,8.88,6.28C71,20.8,48,36.29,47.69,36.29h0c-.35,0-23.35-15.49-19.21-29.2,0,0,2.81-6.28,8.88-6.28,2.76,0,6.19,1.3,10.34,5.06C51.83,2.1,55.26.81,58,.81ZM37.35,0c-6.52,0-9.49,6.48-9.62,6.76l0,.1c-1.45,4.82.05,10.28,4.48,16.24A59.6,59.6,0,0,0,41.82,33a51.42,51.42,0,0,0,5.45,4v0a.82.82,0,0,0,.41.12h0a.82.82,0,0,0,.41-.12v0a51.57,51.57,0,0,0,5.45-4,59.62,59.62,0,0,0,9.64-9.89c4.43-6,5.93-11.42,4.48-16.23l0-.1C67.51,6.48,64.54,0,58,0h0c-3.21,0-6.68,1.61-10.33,4.79C44,1.61,40.56,0,37.35,0Z"/><path class="cls-5" d="M14.65,33.9a24.38,24.38,0,0,1,8.94,1.85,14.84,14.84,0,0,0,3.3.79L40.65,37.8h.11A3.32,3.32,0,0,1,44,41.11a3.4,3.4,0,0,1-3.17,3.49l-15.6.31a.89.89,0,0,0,0,1.79l.6,0s3.29.2,7.46.2a78.34,78.34,0,0,0,10.24-.57,10.26,10.26,0,0,0,3.69-1.24l.6-.34a83.53,83.53,0,0,1,9.31-4.67c.72-.32,3.27-1.49,4.68-1.49l.31,0a2.79,2.79,0,0,1,2.37,3.24,3.38,3.38,0,0,1-1.91,2.6L41.86,54.89l-.78.34a12.59,12.59,0,0,1-5.22,1.09,16.6,16.6,0,0,1-3.08-.3L6.8,52.8l-.14.25,1.42-18a19.6,19.6,0,0,1,6.57-1.16Zm0-.81v0A20.49,20.49,0,0,0,7.82,34.3a.81.81,0,0,0-.54.7L5.86,53a.81.81,0,0,0,1.33.67l25.47,3.15a17.48,17.48,0,0,0,3.2.31A13.31,13.31,0,0,0,41.41,56l.77-.34,0,0L62.89,45.19A4.2,4.2,0,0,0,65.24,42a3.59,3.59,0,0,0-3-4.12,2.81,2.81,0,0,0-.43,0,14.51,14.51,0,0,0-4.87,1.49l-.14.06a85,85,0,0,0-9.4,4.72l-.26.15-.32.18a9.47,9.47,0,0,1-3.41,1.14,75.76,75.76,0,0,1-10.13.56c-4.09,0-7.38-.2-7.41-.2l-.63,0a.09.09,0,0,1-.07-.15.07.07,0,0,1,.06,0L40.8,45.4a4.22,4.22,0,0,0,4-4.31,4.11,4.11,0,0,0-4-4.09h-.09L27,35.74A14.05,14.05,0,0,1,23.89,35a25.45,25.45,0,0,0-9.23-1.91Z"/><path class="cls-6" d="M5.18,56,3.83,56A3.57,3.57,0,0,1,.4,52.28l.65-16.68a3.55,3.55,0,0,1,3.56-3.42h.14l1.35.05a3.57,3.57,0,0,1,3.42,3.7L8.87,52.61A3.55,3.55,0,0,1,5.32,56Z"/><path class="cls-4" d="M7.46,32.58a3.56,3.56,0,0,1,0,.73L6.86,50A3.55,3.55,0,0,1,3.3,53.42H3.16l-1.35-.05a3.52,3.52,0,0,1-1.56-.45,3.57,3.57,0,0,0,3.37,3L5,55.93h.14a3.55,3.55,0,0,0,3.56-3.42l.65-16.68A3.55,3.55,0,0,0,7.46,32.58Z"/><path class="cls-5" d="M4.61,32.59h.12l1.35.05a3.17,3.17,0,0,1,3,3.28L8.47,52.6a3.17,3.17,0,0,1-3.15,3H5.19l-1.35-.05a3.17,3.17,0,0,1-3-3.28l.65-16.68a3.17,3.17,0,0,1,3.15-3Zm0-.81h0a4,4,0,0,0-4,3.81L0,52.27a4,4,0,0,0,3.81,4.11l1.35.05h.15a4,4,0,0,0,4-3.81L9.92,36a4,4,0,0,0-3.81-4.11l-1.35-.05Z"/><ellipse class="cls-7" cx="33.09" cy="5.5" rx="4.24" ry="1.56" transform="translate(5.8 25.01) rotate(-45)"/><path class="cls-7" d="M2.94,39.2h0a1,1,0,0,1-.9-1l.18-2.91a1,1,0,0,1,1-.9h0a1,1,0,0,1,.9,1L4,38.31A1,1,0,0,1,2.94,39.2Z"/><path class="cls-7" d="M40.79,40,37,39.44a.71.71,0,0,1-.6-.8h0a.71.71,0,0,1,.8-.6l3.79.53a.71.71,0,0,1,.6.79h0A.71.71,0,0,1,40.79,40Z"/></g></g></svg>