<svg xmlns="http://www.w3.org/2000/svg" viewBox="0 0 68.21 53.88"><defs><style>.cls-1{fill:#fecd97;}.cls-2{fill:#871e44;}.cls-3{fill:#0eb1e2;}.cls-4{fill:#f4df02;}.cls-5{opacity:0.2;}.cls-6{opacity:0.1;}.cls-7{fill:#fff;}</style></defs><title>Ресурс 16</title><g id="Слой_2" data-name="Слой 2"><g id="Layer_1" data-name="Layer 1"><path class="cls-1" d="M18.84,53.51a.37.37,0,0,1-.26-.11L.48,35.3a.37.37,0,0,1,0-.53L34.78.48a.37.37,0,0,1,.53,0l18.1,18.1a.37.37,0,0,1,0,.53L19.11,53.4A.37.37,0,0,1,18.84,53.51Z"/><path class="cls-2" d="M35,.75l18.1,18.1L18.84,53.14.75,35,35,.75ZM35,0a.74.74,0,0,0-.53.22L.22,34.51a.75.75,0,0,0,0,1.06l18.1,18.1a.75.75,0,0,0,1.06,0L53.66,19.37a.75.75,0,0,0,0-1.06L35.57.22A.74.74,0,0,0,35,0Z"/><path class="cls-3" d="M24.52,44.69a.38.38,0,0,1-.27-.12l-.15-.16a5.71,5.71,0,0,0-8.07,0,.37.37,0,0,1-.53,0l-6-6a.37.37,0,0,1,0-.54l.06-.05a5.7,5.7,0,0,0,0-8.11l-.17-.15a.37.37,0,0,1,0-.54L28.76,9.63A.37.37,0,0,1,29,9.52h0a.37.37,0,0,1,.27.13l.06.07.19.21a5.71,5.71,0,0,0,8.07,0l.06-.06.18-.19.07-.08a.38.38,0,0,1,.27-.12h0a.37.37,0,0,1,.26.11l6.07,6.07a.37.37,0,0,1,0,.55c-.15.12-.3.26-.44.4a5.72,5.72,0,0,0,0,8.07.45.45,0,0,1,.06.58L24.8,44.58a.37.37,0,0,1-.26.11Z"/><path class="cls-2" d="M38.21,9.84l6.07,6.07a6.15,6.15,0,0,0-.47.42,6.08,6.08,0,0,0,0,8.6l.06.05L24.53,44.32l-.16-.18a6.08,6.08,0,0,0-8.6,0l-6-6,.11-.1a6.08,6.08,0,0,0,0-8.6l-.18-.16L29,9.89c.09.1.17.2.27.29a6.08,6.08,0,0,0,8.6,0l.05-.06.06-.05.21-.23Zm0-.75h0a.75.75,0,0,0-.54.25l-.08.09-.11.12-.05,0-.07.07a5.34,5.34,0,0,1-7.54,0l-.18-.19-.06-.07A.75.75,0,0,0,29,9.15h0a.75.75,0,0,0-.53.22L9.15,28.71a.75.75,0,0,0,0,1.08l.09.08.07.06a5.33,5.33,0,0,1,0,7.54l-.1.09a.75.75,0,0,0,0,1.07l6,6a.75.75,0,0,0,1.06,0,5.33,5.33,0,0,1,7.54,0l.06.07.08.09a.75.75,0,0,0,.53.24h0a.75.75,0,0,0,.53-.22L44.39,25.51a.75.75,0,0,0,0-1.06l-.06-.06a5.34,5.34,0,0,1,0-7.54,5.47,5.47,0,0,1,.41-.37.75.75,0,0,0,.06-1.11L38.74,9.31a.75.75,0,0,0-.53-.22Z"/><path class="cls-4" d="M26.94,35.13a8.19,8.19,0,1,1,5.79-2.4A8.14,8.14,0,0,1,26.94,35.13Z"/><path class="cls-2" d="M26.94,19.12a7.82,7.82,0,1,1-5.53,2.29,7.8,7.8,0,0,1,5.53-2.29Zm0-.75A8.57,8.57,0,1,0,33,20.88a8.51,8.51,0,0,0-6.06-2.51Z"/><path class="cls-2" d="M30.63,29.88l1,1-.69.7-1-1A5.49,5.49,0,0,1,27.76,32l-1.33-1.3a3.92,3.92,0,0,0,1.23-.42,5.35,5.35,0,0,0,1.19-.77l-1.75-1.71a5.21,5.21,0,0,1-2.41.65,2.5,2.5,0,0,1-1.59-.75,2.45,2.45,0,0,1-.77-1.79,3.14,3.14,0,0,1,.76-2l-.9-.87.69-.7.88.86A5,5,0,0,1,25.56,22l1.3,1.27a5.09,5.09,0,0,0-2,1L26.7,26A5.41,5.41,0,0,1,29,25.37a2.33,2.33,0,0,1,1.63.7,2.38,2.38,0,0,1,.79,1.77A3.41,3.41,0,0,1,30.63,29.88Zm-4.9-3.41L24.21,25a1,1,0,0,0,0,1.35A1.36,1.36,0,0,0,25.73,26.47Zm2.31.89,1.46,1.42a.94.94,0,0,0,0-1.36Q29,27,28,27.35Z"/><path class="cls-5" d="M17,24.92a.43.43,0,0,0-.43.43V51.44l2,2a.37.37,0,0,0,.53,0L47.59,24.92Z"/><path class="cls-6" d="M34.61.31,33,1.89,49.19,18.05a.37.37,0,0,1,0,.53L16.48,51.29l1.94,1.94a.37.37,0,0,0,.53,0L53.24,18.93a.37.37,0,0,0,0-.53L35.14.31A.37.37,0,0,0,34.61.31Z"/><g class="cls-5"><path d="M37.95,9.38a.37.37,0,0,0-.25.11l-.08.09-.11.12-.07.07-.06.07c-.13.13-.26.24-.39.35l4.49,4.49a.37.37,0,0,1,0,.53l0,0a5.8,5.8,0,0,0-.44.4,5.72,5.72,0,0,0,0,8.07.45.45,0,0,1,.06.58L22.18,43.16a5.67,5.67,0,0,1,1.68,1.16l.15.17a.37.37,0,0,0,.54,0L43.88,25.16a.45.45,0,0,0-.06-.58,5.72,5.72,0,0,1,0-8.07,5.78,5.78,0,0,1,.44-.4l0,0a.37.37,0,0,0,0-.53L38.22,9.49A.37.37,0,0,0,37.95,9.38Z"/></g><path class="cls-5" d="M21.38,21A8.19,8.19,0,0,1,30.9,34.06c-.13.13-.26.24-.39.35A8.19,8.19,0,1,0,21.38,21Z"/><path class="cls-7" d="M12.72,38.43a.75.75,0,0,1-1.14-1h0c.12-.16,3-3.85.11-7.06a.75.75,0,0,1,1.11-1c3,3.32,1.26,7.33-.06,9Z"/><ellipse class="cls-7" cx="20.79" cy="27.53" rx="0.81" ry="1.93" transform="matrix(0.99, -0.16, 0.16, 0.99, -4.22, 3.77)"/><path class="cls-7" d="M10.93,42.85a.75.75,0,0,1-1.06,0L2.48,35.45a.75.75,0,0,1,0-1.06l2.73-2.73a.75.75,0,0,1,1.06,1.06l-2.2,2.2,6.87,6.87A.75.75,0,0,1,10.93,42.85Z"/><rect class="cls-1" x="18.59" y="27.04" width="49.24" height="26.34" rx="0.37" ry="0.37"/><path class="cls-6" d="M67.46,26.79H65.22V49.65a.37.37,0,0,1-.37.37H18.59v2.74a.37.37,0,0,0,.37.37h48.5a.37.37,0,0,0,.37-.37V27.17A.37.37,0,0,0,67.46,26.79Z"/><path class="cls-2" d="M67.46,27.42V53H19V27.42Zm0-.75H19a.75.75,0,0,0-.75.75V53a.75.75,0,0,0,.75.75h48.5a.75.75,0,0,0,.75-.75V27.42a.75.75,0,0,0-.75-.75Z"/><path class="cls-3" d="M29.22,51.17a.37.37,0,0,1-.37-.39s0-.18,0-.22a5.71,5.71,0,0,0-5.7-5.71.37.37,0,0,1-.37-.37V35.94a.37.37,0,0,1,.37-.37h.1A5.72,5.72,0,0,0,29,29.86s0-.22,0-.22a.37.37,0,0,1,.37-.39H56.74a.37.37,0,0,1,.37.4c0,.17,0,.27,0,.37a5.72,5.72,0,0,0,5.71,5.71h.47a.37.37,0,0,1,.37.37v8.58a.37.37,0,0,1-.37.37h0a5.81,5.81,0,0,0-.59,0,5.72,5.72,0,0,0-5.71,5.71c0,.21-.16.45-.37.45Z"/><g class="cls-5"><path d="M63.4,35.57a.37.37,0,0,0-.26-.1h-.47l-.53,0V41.8a.37.37,0,0,1-.37.37h0a5.81,5.81,0,0,0-.59,0,5.72,5.72,0,0,0-5.71,5.71c0,.21-.16.45-.37.45H28.36a5.67,5.67,0,0,1,.37,2s0,.22,0,.22a.37.37,0,0,0,.37.39H56.44c.21,0,.37-.25.37-.45a5.72,5.72,0,0,1,5.71-5.71,5.78,5.78,0,0,1,.59,0h0a.37.37,0,0,0,.37-.37V35.84A.37.37,0,0,0,63.4,35.57Z"/></g><path class="cls-2" d="M56.74,29.63c0,.13,0,.26,0,.39A6.08,6.08,0,0,0,62.8,36.1H63l.31,0v8.58a6.08,6.08,0,0,0-6.71,6s0,.05,0,.08H29.22c0-.08,0-.16,0-.24a6.08,6.08,0,0,0-6.08-6.08V35.94h.15a6.08,6.08,0,0,0,6.08-6.08c0-.08,0-.16,0-.24Zm0-.75H29.38a.75.75,0,0,0-.75.78v.12s0,.06,0,.09a5.34,5.34,0,0,1-5.33,5.33h-.15a.75.75,0,0,0-.75.75v8.54a.75.75,0,0,0,.75.75,5.34,5.34,0,0,1,5.33,5.33s0,.06,0,.09v.12a.75.75,0,0,0,.75.78H56.56a.75.75,0,0,0,.75-.76s0-.05,0-.08a5.34,5.34,0,0,1,5.33-5.32l.55,0h.08a.75.75,0,0,0,.75-.75V36.09a.75.75,0,0,0-.75-.75h-.48A5.34,5.34,0,0,1,57.47,30c0-.09,0-.17,0-.26v-.09a.75.75,0,0,0-.75-.79Z"/><circle class="cls-4" cx="43.21" cy="40.21" r="8.19"/><path class="cls-5" d="M43.49,32A8.19,8.19,0,0,1,41,48l-.53,0a8.19,8.19,0,1,0,3-16Z"/><path class="cls-2" d="M43.21,32.39a7.82,7.82,0,1,1-7.82,7.82,7.82,7.82,0,0,1,7.82-7.82Zm0-.75a8.57,8.57,0,1,0,8.57,8.57,8.58,8.58,0,0,0-8.57-8.57Z"/><path class="cls-2" d="M43.75,44.9l0,1.46h-1l0-1.42a5.49,5.49,0,0,1-2.55-.59l0-1.86a3.92,3.92,0,0,0,1.17.57,5.36,5.36,0,0,0,1.38.29l0-2.45a5.21,5.21,0,0,1-2.17-1.24A2.5,2.5,0,0,1,40,38a2.45,2.45,0,0,1,.73-1.81,3.14,3.14,0,0,1,2-.89V34.06h1v1.23a5,5,0,0,1,2.13.43l0,1.82a5.09,5.09,0,0,0-2.13-.67l0,2.55a5.41,5.41,0,0,1,2.13,1.19,2.33,2.33,0,0,1,.66,1.64A2.38,2.38,0,0,1,45.78,44,3.41,3.41,0,0,1,43.75,44.9ZM42.69,39l0-2.13q-.93.18-.92,1T42.69,39Zm1,2.26,0,2q1-.16,1-1Q44.67,41.69,43.7,41.29Z"/><path class="cls-7" d="M25,38.27a.75.75,0,0,1-.12-1.49h0c.2,0,4.83-.62,5.07-4.91a.75.75,0,0,1,1.49.08c-.25,4.45-4.29,6.07-6.4,6.31Z"/><ellipse class="cls-7" cx="38.44" cy="36.27" rx="1.93" ry="0.81" transform="translate(-13.43 46.42) rotate(-54.41)"/><path class="cls-7" d="M20.63,40.13a.75.75,0,0,1-.75-.75V28.93a.75.75,0,0,1,.75-.75h3.86a.75.75,0,1,1,0,1.49H21.38v9.71A.75.75,0,0,1,20.63,40.13Z"/></g></g></svg>