<svg xmlns="http://www.w3.org/2000/svg" viewBox="0 0 113.96 108.33"><defs><style>.cls-1{fill:#f3b200;}.cls-2{fill:#871e44;}.cls-3{opacity:0.2;}.cls-4{opacity:0.5;}.cls-5{fill:#fcf2d6;}.cls-6{fill:#f4df02;}.cls-7{fill:#fecd97;}.cls-8{opacity:0.1;}.cls-9{fill:#226cb3;}.cls-10{fill:#fff;}</style></defs><title>Ресурс 10</title><g id="Слой_2" data-name="Слой 2"><g id="Layer_1" data-name="Layer 1"><path class="cls-1" d="M57.73,71.9h-1A35.3,35.3,0,0,1,22.43,35.62,35.11,35.11,0,0,1,57.7,1.29h1a35.3,35.3,0,0,1-1,70.59Z"/><path class="cls-2" d="M57.7,2.59h1a34,34,0,0,1-.92,68h-1a34,34,0,0,1,.92-68ZM57.7,0A36.59,36.59,0,0,0,31.14,61.75,36.35,36.35,0,0,0,56.71,73.18h1A36.59,36.59,0,0,0,58.73,0Z"/><g class="cls-3"><path class="cls-2" d="M58.89,2.49c-.77,0-1.53,0-2.29,0a34,34,0,0,1-1.87,67.83c.75.07,1.52.12,2.28.14a34,34,0,1,0,1.88-68Z"/></g><g class="cls-4"><path class="cls-5" d="M77.57,64.2l.79-.58L38,8.91a34.21,34.21,0,0,0-4.82,4.18Z"/></g><g class="cls-4"><path class="cls-5" d="M28,20.08l47.3,45.64.39-.24L30,16.85A33.94,33.94,0,0,0,28,20.08Z"/></g><path class="cls-6" d="M57.73,65.12h-.8a28.52,28.52,0,0,1,.77-57h.8a28.52,28.52,0,0,1-.77,57Z"/><path class="cls-2" d="M57.7,9.37h.77a27.23,27.23,0,0,1-.74,54.45H57A27.23,27.23,0,0,1,57.7,9.37Zm0-2.59a29.82,29.82,0,0,0-.81,59.62h.84a29.82,29.82,0,0,0,.81-59.62Z"/><g class="cls-3"><path class="cls-2" d="M58.69,9.61a27.5,27.5,0,0,0-3.32.11,27.23,27.23,0,0,1-1.49,54,27.51,27.51,0,0,0,3.31.29,27.23,27.23,0,1,0,1.5-54.44Z"/></g><path class="cls-2" d="M59.15,49.47v4H56.44V49.58a15.13,15.13,0,0,1-7-1.71V42.74a10.8,10.8,0,0,0,3.21,1.61,14.74,14.74,0,0,0,3.8.85V38.46Q52.11,36.85,50.52,35a6.88,6.88,0,0,1-1.58-4.59,6.74,6.74,0,0,1,2.06-5A8.65,8.65,0,0,1,56.44,23V19.59h2.71V23A13.73,13.73,0,0,1,65,24.22v5a14,14,0,0,0-5.84-1.93v7A14.89,14.89,0,0,1,65,37.67a6.42,6.42,0,0,1,1.76,4.55,6.55,6.55,0,0,1-2,5A9.38,9.38,0,0,1,59.15,49.47ZM56.44,33.25V27.37q-2.58.46-2.58,2.69Q53.87,32,56.44,33.25Zm2.71,6.27v5.62q2.65-.41,2.65-2.65Q61.8,40.67,59.15,39.52Z"/><path class="cls-7" d="M79.86,96.46a.75.75,0,0,1-.66-.51c-1.83-5.36-3.37-13,1.06-24.26a22.13,22.13,0,0,0,1.17-4.84l1.92-21.06a5.35,5.35,0,0,1,1.53-3.85,6.07,6.07,0,0,1,4.27-1.89h0a6,6,0,0,1,6.1,5.59l.48,23.88a.61.61,0,0,0,1.23,0l0-.93c0-.18,1-16-.55-27a14.94,14.94,0,0,0-1.8-5.38l-.52-.93A129.61,129.61,0,0,1,86.92,21l-.09-.21c-1.18-2.65-2.5-5.94-2.2-7.84a5,5,0,0,1,5.13-4.3,6.08,6.08,0,0,1,.67,0A6,6,0,0,1,95,12.05l15.94,31.62.54,1.22A21.48,21.48,0,0,1,112.73,58l-4.85,39.22a.75.75,0,0,1-.43,1.38Z"/><path class="cls-8" d="M108.17,98.12a.75.75,0,0,0-.29-.86L112.73,58a21.48,21.48,0,0,0-1.26-13.14l-.54-1.22L95,12.05a6.38,6.38,0,0,0-1.16-1.61A5.61,5.61,0,0,0,90.67,9a6.08,6.08,0,0,0-.67,0,5.85,5.85,0,0,0-1.39.18l.1.17,15.94,31.62.54,1.22a21.48,21.48,0,0,1,1.26,13.14l-4.11,33.21-24.86-.75A32.11,32.11,0,0,0,79.21,96a.75.75,0,0,0,.66.51l27.59,2.17A.75.75,0,0,0,108.17,98.12Z"/><path class="cls-5" d="M39.33,19.37s-15.05,14.91-.26,34.31C39.07,53.68,29.54,34.2,39.33,19.37Z"/><path class="cls-2" d="M89.75,9.44a5.37,5.37,0,0,1,.58,0,5.17,5.17,0,0,1,4,2.92L110.26,44l.52,1.19A20.78,20.78,0,0,1,112,57.9l-4.92,39.76.38.22L79.92,95.71C78.38,91.19,76.41,83.63,81,72a22.7,22.7,0,0,0,1.21-5l1.92-21.06a5.07,5.07,0,0,1,5.05-5.05h.11a5.2,5.2,0,0,1,5.22,4.86L95,69.54a1.37,1.37,0,0,0,1.37,1.35h.09a1.37,1.37,0,0,0,1.27-1.33l0-.92s1-16-.56-27.08a15.71,15.71,0,0,0-1.9-5.64L94.77,35a127.86,127.86,0,0,1-7.15-14.25c-.52-1.19-2.56-5.61-2.25-7.64a4.19,4.19,0,0,1,4.38-3.66Zm0-1.51a5.67,5.67,0,0,0-5.87,4.94c-.32,2.09,1,5.51,2.26,8.26l.1.22a130.34,130.34,0,0,0,7.24,14.42l.22.39.28.49a14.22,14.22,0,0,1,1.72,5.12c1.08,7.71.9,17.94.71,23.25L96,45.63a6.68,6.68,0,0,0-6.73-6.34h-.14a6.83,6.83,0,0,0-4.8,2.13,6.19,6.19,0,0,0-1.74,4.39l-1.92,21a21.15,21.15,0,0,1-1.12,4.64c-4.52,11.53-2.95,19.3-1.07,24.78a1.51,1.51,0,0,0,1.31,1l27.53,2.17h.12a1.51,1.51,0,0,0,1.22-2.4l4.81-38.86a22.2,22.2,0,0,0-1.32-13.55l-.52-1.18,0-.07L95.67,11.71A6.71,6.71,0,0,0,90.49,8a6.85,6.85,0,0,0-.74,0Z"/><path class="cls-7" d="M5.65,98.62a.75.75,0,0,1-.42-1.38L1.14,57.88A21.43,21.43,0,0,1,2.66,44.81l.55-1.17L19.77,12.29A6,6,0,0,1,24.42,9L25,9a5,5,0,0,1,5.16,4.4c.26,1.9-1.12,5.16-2.35,7.79l-.1.22a129.76,129.76,0,0,1-7.48,14.19l-.53.89a14.93,14.93,0,0,0-1.91,5.35C16,52.74,16.67,68.62,16.67,68.78v.95a.62.62,0,0,0,.57.62h0a.62.62,0,0,0,.66-.59l.95-23.87a5.94,5.94,0,0,1,6-5.48h.24a6.07,6.07,0,0,1,4.23,2,5.43,5.43,0,0,1,1.45,4l1.51,21a22.15,22.15,0,0,0,1.07,4.86c4.21,11.38,2.53,19,.59,24.28a.75.75,0,0,1-.66.5Z"/><path class="cls-2" d="M25,9.78a4.21,4.21,0,0,1,4.41,3.74c.28,2-1.85,6.41-2.39,7.59a127.82,127.82,0,0,1-7.43,14.11l-.54.91a15.7,15.7,0,0,0-2,5.61c-1.77,11.08-1.08,27.07-1.08,27.07v.92a1.37,1.37,0,0,0,1.25,1.36h.11a1.37,1.37,0,0,0,1.37-1.33l.95-23.86a5.2,5.2,0,0,1,5.21-4.76H25a5.07,5.07,0,0,1,5,5.15L31.51,67.4a22.7,22.7,0,0,0,1.12,5.07c4.34,11.74,2.22,19.26.59,23.76L5.65,97.86,6,97.65,1.89,57.8A20.78,20.78,0,0,1,3.34,45.13L3.89,44,20.44,12.64a5.17,5.17,0,0,1,4-2.84l.48,0Zm0-1.51h0l-.62,0a6.71,6.71,0,0,0-5.24,3.64L2.55,43.25l0,.07L2,44.49A22.19,22.19,0,0,0,.39,58L4.44,97a1.51,1.51,0,0,0,1.2,2.42h.09L33.3,97.74a1.51,1.51,0,0,0,1.33-1c2-5.44,3.7-13.18-.59-24.8a21.17,21.17,0,0,1-1-4.66l-1.51-21a6.19,6.19,0,0,0-1.65-4.42,6.83,6.83,0,0,0-4.76-2.22h-.27a6.71,6.71,0,0,0-6.72,6.19l-.77,19.37c-.09-5.33-.06-15.54,1.16-23.23a14.2,14.2,0,0,1,1.81-5.07l.29-.49.25-.43a130.24,130.24,0,0,0,7.51-14.25l.09-.2c1.28-2.73,2.7-6.12,2.42-8.22A5.74,5.74,0,0,0,25,8.27Z"/><path class="cls-9" d="M105.23,107.55l-23.45-.91A6.62,6.62,0,0,1,82,93.4h.26l23.45.91a6.62,6.62,0,0,1-.26,13.24Z"/><path class="cls-3" d="M109.28,96a6.49,6.49,0,0,1,.06,1,6.6,6.6,0,0,1-6.62,6.36h-.26L79,102.36a6.54,6.54,0,0,1-3.79-1.4,6.59,6.59,0,0,0,6.3,5.93l23.45.91h.26a6.61,6.61,0,0,0,4-11.85Z"/><path class="cls-2" d="M82,94.16h.23l23.45.91a5.88,5.88,0,0,1,5.64,6.09h0a5.89,5.89,0,0,1-5.86,5.64h-.23l-23.45-.91a5.88,5.88,0,0,1-5.63-6.09h0A5.89,5.89,0,0,1,82,94.16Zm0-1.51h0a7.38,7.38,0,0,0-.29,14.75l23.45.91h.29a7.38,7.38,0,0,0,.29-14.75l-23.45-.91Z"/><rect class="cls-10" x="85.2" y="43.2" width="3.62" height="12.33" rx="0.83" ry="0.83" transform="translate(4.64 -7.41) rotate(5.01)"/><path class="cls-8" d="M35.35,88a36.51,36.51,0,0,0-2.52-15.77,22.15,22.15,0,0,1-1.07-4.86l-1.51-21a5.43,5.43,0,0,0-1.45-4,6.07,6.07,0,0,0-4.15-2,6,6,0,0,0-.63.06,5.23,5.23,0,0,1,.44,2.35l1.51,21A22.17,22.17,0,0,0,27,68.69c3.07,8.32,3,14.59,2,19.45l-24.68.63.88,8.47a.75.75,0,0,0,.42,1.38L33.26,97a.75.75,0,0,0,.66-.5A31.92,31.92,0,0,0,35.85,88Z"/><path class="cls-9" d="M7.55,107.58a6.66,6.66,0,0,1-6.62-6.49,6.64,6.64,0,0,1,6.49-6.75l23.47-.46a6.68,6.68,0,0,1,6.75,6.49,6.64,6.64,0,0,1-6.49,6.75Z"/><path class="cls-3" d="M33.78,94.29a6.5,6.5,0,0,1,.58,2.56,6.64,6.64,0,0,1-6.49,6.75l-23.6.46a6.51,6.51,0,0,1-2.75-.63,6.66,6.66,0,0,0,6,3.9l23.6-.46a6.59,6.59,0,0,0,2.64-12.58Z"/><path class="cls-2" d="M31,94.63a5.89,5.89,0,0,1,5.87,5.75h0a5.88,5.88,0,0,1-5.75,6l-23.47.46H7.55a5.87,5.87,0,0,1-.11-11.73l23.47-.46Zm0-1.51h-.14l-23.47.46a7.38,7.38,0,0,0,.14,14.75h.14l23.47-.46a7.39,7.39,0,0,0,7.23-7.52A7.42,7.42,0,0,0,31,93.12Z"/><path class="cls-10" d="M16.92,99.81H6.35a1.64,1.64,0,0,1-1.64-1.64h0a1.64,1.64,0,0,1,1.64-1.64H16.92a1.64,1.64,0,0,1,1.64,1.64h0A1.64,1.64,0,0,1,16.92,99.81Z"/><path class="cls-10" d="M91.41,99.07H80.84a1.64,1.64,0,0,1-1.63-1.64h0a1.64,1.64,0,0,1,1.64-1.63H91.41A1.64,1.64,0,0,1,93,97.43h0A1.64,1.64,0,0,1,91.41,99.07Z"/><path class="cls-10" d="M5.08,63.2a1.2,1.2,0,0,1-1.18-1C1.44,48.45,5.37,43.28,5.54,43.07a1.2,1.2,0,0,1,1.89,1.48c-.07.1-3.4,4.78-1.17,17.24a1.2,1.2,0,0,1-1,1.39Z"/></g></g></svg>