<svg xmlns="http://www.w3.org/2000/svg" viewBox="0 0 78.98 102.67"><defs><style>.cls-1{fill:#fecd97;}.cls-2{opacity:0.1;}.cls-3{fill:#871e44;}.cls-4{fill:#f23a52;}.cls-5{opacity:0.2;}.cls-6{fill:#4eb4ac;}.cls-7{fill:#fff;}</style></defs><title>Ресурс 11</title><g id="Слой_2" data-name="Слой 2"><g id="Layer_1" data-name="Layer 1"><path class="cls-1" d="M56.93,96.59a.7.7,0,0,1-.39-.11L40.21,85.87a.71.71,0,0,1-.31-.71c.67-4,2.29-9.23,8.89-14.78A15.37,15.37,0,0,0,51.1,67.8l8.28-12.4a4.13,4.13,0,0,1,3.71-2.16,4.47,4.47,0,0,1,2,.49,4.39,4.39,0,0,1,2,5.75l-7.74,15a.25.25,0,0,0,0,.2.27.27,0,0,0,.14.16h.08c.14,0,.2,0,.24-.11l.33-.57c.07-.11,6-9.61,8.72-16.86a10.4,10.4,0,0,0,.68-3.88v-.75a91.67,91.67,0,0,1,.36-11.31v-.15c.16-2.07.46-4.58,1.31-5.7a3.55,3.55,0,0,1,2.9-1.5,4.21,4.21,0,0,1,2.37.77,4.37,4.37,0,0,1,1.79,3.76l-.77,25-.08.95a15.32,15.32,0,0,1-3.68,8.66L57.6,95.67a.71.71,0,0,1-.67.93Z"/><path class="cls-2" d="M60.88,90.54l12.86-18a15.32,15.32,0,0,0,3.68-8.66l.08-.95.75-24.57a4.35,4.35,0,0,0-1.78-3.62,4.26,4.26,0,0,0-2-.74,4.55,4.55,0,0,1,.29,1.67l-.77,25-.08.95a15.32,15.32,0,0,1-3.68,8.66L57.27,88.36,41.8,79a22.61,22.61,0,0,0-1.9,6.15.71.71,0,0,0,.31.71L56.54,96.48a.7.7,0,0,0,.39.11.71.71,0,0,0,.67-.93l3.55-5Z"/><path class="cls-1" d="M18.46,83a.71.71,0,0,1-.65-1L3.62,58.14A15.25,15.25,0,0,1,.71,49.23v-.91l1.36-25a4.36,4.36,0,0,1,2.11-3.59,4.23,4.23,0,0,1,2.1-.58,3.57,3.57,0,0,1,3.08,1.75c.75,1.18.83,3.71.82,5.78v.17a91.76,91.76,0,0,1-.6,11.32l-.07.72a10.36,10.36,0,0,0,.35,3.93c2.1,7.46,7.19,17.42,7.24,17.52l.29.61a.25.25,0,0,0,.24.15c.18,0,.22-.12.24-.16a.24.24,0,0,0,0-.2L11.41,45.2a4.41,4.41,0,0,1,4.15-5.91,4.2,4.2,0,0,1,3.93,2.57l7.16,13a15.37,15.37,0,0,0,2.09,2.76c6.1,6.09,7.26,11.47,7.6,15.48a.7.7,0,0,1-.37.68L18.8,83A.7.7,0,0,1,18.46,83Z"/><g class="cls-2"><path d="M28.92,58.13a15.38,15.38,0,0,1-2.09-2.76l-7.16-13a4.2,4.2,0,0,0-3.93-2.57,4.4,4.4,0,0,0-1.11.16l6.54,11.85a15.37,15.37,0,0,0,2.09,2.76c6.1,6.09,7.26,11.47,7.6,15.48a.7.7,0,0,1-.37.68L15.67,78.68,18,82.58a.71.71,0,0,0,1,.9L36.15,74.3a.7.7,0,0,0,.37-.68C36.18,69.6,35,64.22,28.92,58.13Z"/></g><path class="cls-3" d="M6.27,19.88a2.86,2.86,0,0,1,2.48,1.42c.78,1.22.71,4.65.71,5.57A90.12,90.12,0,0,1,8.87,38.1c0,.22-.05.52-.08.74A11.08,11.08,0,0,0,9.17,43c2.14,7.62,7.3,17.65,7.3,17.65l.28.59a1,1,0,0,0,.87.56,1,1,0,0,0,.33-.06,1,1,0,0,0,.56-1.29L12.06,44.93a3.67,3.67,0,0,1,2.07-4.65A3.73,3.73,0,0,1,15.56,40a3.48,3.48,0,0,1,3.27,2.12L26,55.18a16,16,0,0,0,2.21,2.92c6.25,6.24,7.11,11.68,7.39,15L18.46,82.33l.19-.25L4.23,57.78a14.65,14.65,0,0,1-2.81-8.55v-.92L2.77,23.38a3.65,3.65,0,0,1,1.75-3,3.56,3.56,0,0,1,1.75-.49Zm0-1.41h0a5,5,0,0,0-2.46.67,5,5,0,0,0-2.46,4.17L0,48.24s0,0,0,.07v.92a16,16,0,0,0,3,9.31l14,23.63a1.41,1.41,0,0,0,2.07,1.41L36.3,74.39A1.41,1.41,0,0,0,37,73c-.34-4.13-1.54-9.67-7.8-15.93a14.75,14.75,0,0,1-2-2.6l-7.16-13a4.92,4.92,0,0,0-4.55-2.92,5.12,5.12,0,0,0-2,.39,5.2,5.2,0,0,0-3.06,3.69v0A9.68,9.68,0,0,1,10.2,39l0-.4,0-.35a92.19,92.19,0,0,0,.6-11.38v-.15c0-2.3-.09-4.84-.93-6.17a4.26,4.26,0,0,0-3.67-2.08Z"/><path class="cls-4" d="M20.61,88.59a4.84,4.84,0,0,1-2.13-9.21l14.89-7.22a4.78,4.78,0,0,1,2.1-.48,4.88,4.88,0,0,1,4.37,2.73,4.86,4.86,0,0,1-2.25,6.47L22.71,88.11a4.78,4.78,0,0,1-2.1.48Z"/><path class="cls-3" d="M74.11,34.69a3.49,3.49,0,0,1,2,.64,3.65,3.65,0,0,1,1.49,3.15l-.77,25-.08.91a14.65,14.65,0,0,1-3.53,8.28l-16.43,23,.16.26L40.59,85.28c.56-3.32,1.89-8.67,8.64-14.36a16,16,0,0,0,2.45-2.72L60,55.79a3.45,3.45,0,0,1,3.12-1.85,3.73,3.73,0,0,1,1.71.42,3.67,3.67,0,0,1,1.67,4.8l-7.74,15a1,1,0,0,0,.45,1.33,1,1,0,0,0,.4.09,1,1,0,0,0,.84-.48l.33-.56s6-9.56,8.77-17a11.08,11.08,0,0,0,.73-4.14c0-.22,0-.52,0-.75A90.17,90.17,0,0,1,70.6,41.4c.08-.91.3-4.34,1.18-5.49a2.87,2.87,0,0,1,2.34-1.22Zm0-1.41A4.3,4.3,0,0,0,70.65,35c-1,1.25-1.27,3.77-1.45,6.07v.17a92.29,92.29,0,0,0-.37,11.42v.7A9.69,9.69,0,0,1,68.2,57v0a5.14,5.14,0,0,0-5.1-4.52,4.9,4.9,0,0,0-4.34,2.54L50.51,67.41a14.75,14.75,0,0,1-2.19,2.42C41.56,75.53,39.89,81,39.2,85a1.41,1.41,0,0,0,.62,1.42L56.16,97.07a1.41,1.41,0,0,0,2.19-1.23l16-22.35a16,16,0,0,0,3.81-9l.07-.91s0,0,0-.07l.77-25a5,5,0,0,0-2.1-4.36,4.91,4.91,0,0,0-2.76-.89Z"/><path class="cls-4" d="M54.67,102a4.82,4.82,0,0,1-2.46-.68L38,92.82a4.85,4.85,0,0,1,5-8.33L57.16,93a4.86,4.86,0,0,1,1.69,6.64A4.88,4.88,0,0,1,54.67,102Z"/><path class="cls-5" d="M59.37,95.75a4.89,4.89,0,0,0-.47-1.14,4.81,4.81,0,0,1-.59,1.62,4.88,4.88,0,0,1-4.18,2.37,4.82,4.82,0,0,1-2.46-.68L37.45,89.46a4.79,4.79,0,0,1-1.75-1.83,4.84,4.84,0,0,0,2.28,5l14.23,8.46a4.82,4.82,0,0,0,2.46.68,4.88,4.88,0,0,0,4.18-2.37A4.81,4.81,0,0,0,59.37,95.75Z"/><path class="cls-5" d="M37.15,72a4.88,4.88,0,0,0-1.2-.27,4.8,4.8,0,0,1,1,1.41,4.88,4.88,0,0,1-.46,4.78,4.82,4.82,0,0,1-2,1.63L19.43,86.38a4.79,4.79,0,0,1-2.5.38,4.84,4.84,0,0,0,5.42,1L37.43,81a4.82,4.82,0,0,0,2-1.63,4.88,4.88,0,0,0,.46-4.78A4.81,4.81,0,0,0,37.15,72Z"/><path class="cls-3" d="M40.46,84.53a4.1,4.1,0,0,1,2.1.58L56.8,93.56a4.14,4.14,0,0,1-2.13,7.69,4.1,4.1,0,0,1-2.1-.58L38.34,92.22a4.14,4.14,0,0,1,2.13-7.69Zm0-1.41h0a5.55,5.55,0,0,0-2.85,10.32l14.23,8.46a5.55,5.55,0,0,0,5.68-9.55L43.29,83.89a5.53,5.53,0,0,0-2.83-.78Z"/><path class="cls-3" d="M35.48,72.39a4.14,4.14,0,0,1,1.82,7.86L22.4,87.47a4.1,4.1,0,0,1-1.79.41A4.14,4.14,0,0,1,18.79,80L33.68,72.8a4.1,4.1,0,0,1,1.79-.41Zm0-1.41a5.48,5.48,0,0,0-2.41.55L18.17,78.75A5.55,5.55,0,0,0,20.61,89.3,5.48,5.48,0,0,0,23,88.74l14.89-7.22A5.55,5.55,0,0,0,35.48,71Z"/><path class="cls-6" d="M47.41,51.88a.34.34,0,0,1-.31-.22c0-.1-3.83-10.26,1-18.38,3.21-5.35,9.37-8.64,18.33-9.77h0a.34.34,0,0,1,.33.28c0,.14,2.32,13.88-4.54,22C58.91,49.84,53.91,51.88,47.41,51.88Z"/><g class="cls-5"><path class="cls-3" d="M66.74,24a.34.34,0,0,0-.33-.28h0c-1,.13-2,.29-2.94.47.37,4,.63,13.84-4.76,20.25-2.88,3.43-7,5.41-12.13,5.91.25.94.46,1.49.47,1.52a.34.34,0,0,0,.31.22c6.5,0,11.51-2,14.88-6C69.07,37.84,66.77,24.09,66.74,24Z"/></g><path class="cls-3" d="M66.5,23.85s4.83,27.69-19.09,27.69c0,0-9.23-24.13,19.09-27.69Zm0-.67h-.08c-9.06,1.14-15.31,4.48-18.57,9.93-5,8.26-1.23,18.25-1.06,18.67a.67.67,0,0,0,.63.43c6.61,0,11.7-2.08,15.14-6.17,7-8.28,4.71-21.74,4.61-22.31a.67.67,0,0,0-.66-.56Z"/><path class="cls-6" d="M38.69,51.94c-.11,0-10.94-.46-16.53-8.11-3.68-5-4.31-12-1.87-20.68a.34.34,0,0,1,.32-.25h.08c.14,0,13.69,3.26,18.54,12.76,2.38,4.67,2.31,10.07-.22,16.06a.34.34,0,0,1-.31.21Z"/><g class="cls-5"><path class="cls-3" d="M39.14,35.42c-3-5.89-9.35-9.36-13.78-11.16,3.83,2,8,5.09,10.33,9.57,2.38,4.67,2.31,10.07-.22,16.06a.34.34,0,0,1-.31.21h0a27,27,0,0,1-7.5-1.63A26.81,26.81,0,0,0,38.6,51.69h0a.34.34,0,0,0,.31-.21C41.45,45.49,41.53,40.09,39.14,35.42Z"/></g><path class="cls-3" d="M20.62,23.24S48,29.57,38.7,51.6c0,0-25.82-.88-18.08-28.36Zm0-.67a.67.67,0,0,0-.65.49c-2.47,8.79-1.83,15.84,1.92,21,5.68,7.78,16.34,8.23,16.79,8.25h0a.67.67,0,0,0,.62-.41c2.57-6.09,2.64-11.59.21-16.35-4.92-9.64-18.2-12.8-18.76-12.93l-.15,0Z"/><ellipse class="cls-7" cx="48.83" cy="35.97" rx="3.41" ry="0.96" transform="translate(-3.02 67.43) rotate(-67.62)"/><ellipse class="cls-7" cx="22.67" cy="41.6" rx="0.96" ry="3.41" transform="translate(-18.56 18.26) rotate(-31.9)"/><path class="cls-6" d="M42.74,34.58a.34.34,0,0,1-.38,0c-.09-.06-8.84-6.46-9.25-15.92C32.85,12.42,36.19,6.28,43,.42l0,0a.34.34,0,0,1,.43.05c.1.1,9.58,10.31,8.34,20.9C51.23,26.55,48.17,31,42.74,34.58Z"/><g class="cls-5"><path class="cls-3" d="M43.53.63A.34.34,0,0,0,43.1.58l0,0c-.78.67-1.51,1.34-2.2,2C43.38,5.76,49,13.83,48,22.14c-.52,4.45-2.84,8.34-6.88,11.61.73.64,1.21,1,1.23,1a.34.34,0,0,0,.38,0c5.43-3.58,8.49-8,9.1-13.24C53.1,10.94,43.62.73,43.53.63Z"/></g><path class="cls-3" d="M43.26.67s19.27,20.47-.7,33.63c0,0-21-15.07.7-33.63ZM42.89.11l-.07.05c-6.94,5.94-10.32,12.16-10,18.51.41,9.63,9,15.92,9.39,16.18a.67.67,0,0,0,.76,0c5.52-3.63,8.63-8.17,9.25-13.48C53.43,10.64,44.15.63,43.75.21a.67.67,0,0,0-.86-.1Z"/><path class="cls-3" d="M61.31,32.12h0a.75.75,0,0,0-1,.19L52.88,43l-1.21-5.37a.74.74,0,0,0-.33-.47.72.72,0,0,0-.56-.09.75.75,0,0,0-.56.89l1.51,6.71L43.61,56.45l.28-29.89,5.17-4.92a.75.75,0,0,0,0-1.06.75.75,0,0,0-1.06,0l-4.09,3.89.28-13.26a.75.75,0,0,0-.73-.77h0a.75.75,0,0,0-.76.73l-.28,13-4-3.82a.74.74,0,0,0-.54-.21.72.72,0,0,0-.52.23.75.75,0,0,0,0,1.06l5,4.77-.32,14.86c.15,7.93.26,12.56.34,15.28l-9-12.23,1.36-6a.75.75,0,0,0-1.13-.8.74.74,0,0,0-.33.47l-1.07,4.69L25,32.65a.75.75,0,0,0-1-.16.75.75,0,0,0-.16,1l7.28,9.89-4.92-.55A.75.75,0,0,0,26,44.38l6.29.7,10.08,13.7V71.42a.75.75,0,1,0,1.5,0V58.76l8.94-12.95,7-1.26a.75.75,0,0,0,.6-.87.75.75,0,0,0-.87-.6l-5.56,1L61.5,33.16A.75.75,0,0,0,61.31,32.12Z"/><ellipse class="cls-7" cx="35.18" cy="20.52" rx="0.96" ry="3.41" transform="translate(-3.27 7.09) rotate(-11)"/><path class="cls-7" d="M4.37,31.14h0a1.33,1.33,0,0,1-1.2-1.44l.68-7.4a1.33,1.33,0,0,1,1.44-1.2h0a1.33,1.33,0,0,1,1.2,1.44l-.68,7.4A1.33,1.33,0,0,1,4.37,31.14Z"/><path class="cls-7" d="M57.5,64h0a1.33,1.33,0,0,1-.34-1.85l4.22-6.11a1.33,1.33,0,0,1,1.85-.34h0a1.33,1.33,0,0,1,.34,1.85l-4.22,6.11A1.33,1.33,0,0,1,57.5,64Z"/><path class="cls-7" d="M22.83,81.8l-3.47,1.76a1.15,1.15,0,0,1-1.55-.51h0a1.15,1.15,0,0,1,.51-1.55l3.47-1.76a1.15,1.15,0,0,1,1.55.51h0A1.15,1.15,0,0,1,22.83,81.8Z"/><path class="cls-7" d="M42.74,89.41l-3.29-2.08a1.15,1.15,0,0,1-.36-1.59h0a1.15,1.15,0,0,1,1.59-.36L44,87.47a1.15,1.15,0,0,1,.36,1.59h0A1.15,1.15,0,0,1,42.74,89.41Z"/></g></g></svg>