<svg xmlns="http://www.w3.org/2000/svg" viewBox="0 0 68.21 47.44"><defs><style>.cls-1{fill:#f23a52;}.cls-2{opacity:0.2;}.cls-3{fill:#226cb3;}.cls-4{fill:#0eb1e2;}.cls-5{fill:#fff;}.cls-6{fill:#871e44;}</style></defs><title>Ресурс 3</title><g id="Слой_2" data-name="Слой 2"><g id="Layer_1" data-name="Layer 1"><path class="cls-1" d="M37.71,46.92a2.36,2.36,0,0,1-2.35-2.36V34.23l-1.25,0-1.25,0V44.56a2.36,2.36,0,0,1-4.71,0V34.07c0-.06,0-.12,0-.18-1-.13-1.91-.29-2.72-.48-2.95-.69-4.26-1.63-4.26-3.06,0-.14,0-.37,8.87-16.72a7.18,7.18,0,1,1,8.3-.11C47,30,47,30.21,47,30.35c0,1.43-1.31,2.37-4.26,3.06-.81.19-1.72.35-2.72.48,0,.06,0,.12,0,.18v10.5A2.36,2.36,0,0,1,37.71,46.92Z"/><g class="cls-2"><path d="M33.39,33.91l-1.25,0-1.25,0V44.24a2.36,2.36,0,0,1-1.42,2.16,2.33,2.33,0,0,0,1.14.3A2.36,2.36,0,0,0,33,44.35V34h.43Z"/><path d="M38.45,13.3A7.19,7.19,0,0,0,34.21.3c-.22,0-.44,0-.65,0a7.19,7.19,0,0,1,2.82,12.85c8.7,16.47,8.7,16.7,8.7,16.84,0,1.43-1.31,2.37-4.26,3.06-.81.19-1.72.35-2.72.48,0,.06,0,.12,0,.18v10.5a2.36,2.36,0,0,1-1.42,2.16,2.33,2.33,0,0,0,1.14.31,2.36,2.36,0,0,0,2.36-2.36V33.85c0-.06,0-.12,0-.18,1-.13,1.91-.29,2.72-.48,2.95-.69,4.26-1.63,4.26-3.06C47.15,30,47.15,29.77,38.45,13.3Z"/></g><path class="cls-3" d="M62.32,47.11a2.41,2.41,0,0,1-2.41-2.41V36.33H57.33v8.38a2.41,2.41,0,0,1-4.81,0V36.2a4.11,4.11,0,0,1-3.16-4V17.76a4.13,4.13,0,0,1,4.13-4.13h.8a7.36,7.36,0,1,1,8.66,0h.8a4.13,4.13,0,0,1,4.13,4.13V32.2a4.11,4.11,0,0,1-3.16,4v8.5A2.41,2.41,0,0,1,62.32,47.11Z"/><path class="cls-4" d="M13.28,47.11a2.41,2.41,0,0,1-2.41-2.41V36.33H8.3v8.38a2.41,2.41,0,0,1-4.81,0V36.2a4.11,4.11,0,0,1-3.16-4V17.76a4.13,4.13,0,0,1,4.13-4.13h.8a7.36,7.36,0,1,1,8.66,0h.8a4.13,4.13,0,0,1,4.13,4.13V32.2a4.11,4.11,0,0,1-3.16,4v8.5A2.41,2.41,0,0,1,13.28,47.11Z"/><g class="cls-2"><path d="M7.93,36.11H5.35v8.38a2.4,2.4,0,0,1-1.05,2,2.38,2.38,0,0,0,3.78-1.2,2.38,2.38,0,0,1-.14-.79Z"/><path d="M16.15,13.82h-.64a4,4,0,0,0-.79-.08h-.8A7.36,7.36,0,0,0,6.76,1l.43,0a7.37,7.37,0,0,1,7.36,7.36c0,2.53-1.32,3.89-2.68,5.77.93.1,1.93-.19,2.76.46a2.84,2.84,0,0,1,.79,1.09c1.24,2.7.48,7.07.48,10V32a4.11,4.11,0,0,1-3.16,4v8.5a2.4,2.4,0,0,1-1.05,2,2.38,2.38,0,0,0,1.48.53,2.41,2.41,0,0,0,2.41-2.41V36.1a4.12,4.12,0,0,0,3.16-4V17.65A4.13,4.13,0,0,0,16.15,13.82Z"/></g><g class="cls-2"><path d="M57.22,36.11H54.64v8.38a2.4,2.4,0,0,1-1.05,2,2.38,2.38,0,0,0,3.78-1.2,2.38,2.38,0,0,1-.14-.79Z"/><path d="M65.44,13.82H64.8a4,4,0,0,0-.79-.08h-.8A7.36,7.36,0,0,0,56,1l.43,0a7.37,7.37,0,0,1,7.36,7.36c0,2.53-1.32,3.89-2.68,5.77.93.1,1.93-.19,2.76.46a2.84,2.84,0,0,1,.79,1.09c1.24,2.7.48,7.07.48,10V32A4.11,4.11,0,0,1,62,36v8.5a2.4,2.4,0,0,1-1.05,2,2.38,2.38,0,0,0,1.48.53,2.41,2.41,0,0,0,2.41-2.41V36.1a4.12,4.12,0,0,0,3.16-4V17.65A4.13,4.13,0,0,0,65.44,13.82Z"/></g><ellipse class="cls-5" cx="4.9" cy="4.99" rx="2.23" ry="0.93" transform="translate(-1.69 7.33) rotate(-65.07)"/><ellipse class="cls-5" cx="29.32" cy="5.21" rx="2.23" ry="0.93" transform="translate(12.24 29.6) rotate(-65.07)"/><ellipse class="cls-5" cx="53.64" cy="5.21" rx="2.23" ry="0.93" transform="translate(26.3 51.65) rotate(-65.07)"/><path class="cls-6" d="M34.1.85a6.86,6.86,0,0,1,3.81,12.56c2.09,4,8.79,16.67,8.79,16.94,0,1.25-1.24,2.09-4,2.74a28.59,28.59,0,0,1-3,.52,2,2,0,0,1,.06.46v10.5a2,2,0,1,1-4.06,0V34.07c0-.06,0-.11,0-.17l-1.6,0-1.6,0c0,.06,0,.11,0,.17v10.5a2,2,0,1,1-4.06,0V34.07a2,2,0,0,1,.06-.46,28.6,28.6,0,0,1-3-.52c-2.77-.65-4-1.49-4-2.74,0-.27,6.76-12.75,9-16.83A6.85,6.85,0,0,1,34.1.85Zm0-.65a7.51,7.51,0,0,0-4.49,13.53c-8.77,16.17-8.77,16.39-8.77,16.63,0,2.06,2.41,2.89,4.52,3.38.74.17,1.56.32,2.46.45V44.56a2.68,2.68,0,1,0,5.36,0v-10H35v10a2.68,2.68,0,1,0,5.36,0V34.17c.9-.12,1.72-.27,2.46-.45,2.1-.49,4.52-1.32,4.52-3.38,0-.23,0-.44-8.61-16.74A7.51,7.51,0,0,0,34.1.19Z"/><path class="cls-6" d="M58.62.65A7,7,0,0,1,61.79,14h2a3.81,3.81,0,0,1,3.8,3.8V32.2a3.81,3.81,0,0,1-3.16,3.74v8.77a2.08,2.08,0,0,1-4.16,0V36H57v8.7a2.08,2.08,0,1,1-4.16,0V35.94a3.81,3.81,0,0,1-3.16-3.74V17.76a3.81,3.81,0,0,1,3.8-3.8h2A7,7,0,0,1,58.62.65Zm0-.65a7.68,7.68,0,0,0-5.24,13.31A4.46,4.46,0,0,0,49,17.76V32.2a4.44,4.44,0,0,0,3.16,4.25v8.25a2.73,2.73,0,1,0,5.47,0v-8h1.93v8a2.73,2.73,0,1,0,5.47,0V36.45a4.44,4.44,0,0,0,3.16-4.25V17.76a4.46,4.46,0,0,0-4.34-4.45A7.68,7.68,0,0,0,58.62,0Z"/><path class="cls-6" d="M9.59.65A7,7,0,0,1,12.76,14h2a3.81,3.81,0,0,1,3.8,3.8V32.2a3.81,3.81,0,0,1-3.16,3.74v8.77a2.08,2.08,0,0,1-4.16,0V36H8v8.7a2.08,2.08,0,0,1-4.16,0V35.94A3.81,3.81,0,0,1,.65,32.2V17.76A3.81,3.81,0,0,1,4.46,14h2A7,7,0,0,1,9.59.65Zm0-.65A7.68,7.68,0,0,0,4.34,13.31,4.46,4.46,0,0,0,0,17.76V32.2a4.44,4.44,0,0,0,3.16,4.25v8.25a2.73,2.73,0,1,0,5.47,0v-8h1.93v8a2.73,2.73,0,1,0,5.47,0V36.45a4.44,4.44,0,0,0,3.16-4.25V17.76a4.46,4.46,0,0,0-4.34-4.45A7.68,7.68,0,0,0,9.59,0Z"/></g></g></svg>