<svg xmlns="http://www.w3.org/2000/svg" viewBox="0 0 68.21 54.28"><defs><style>.cls-1{fill:#0eb1e2;}.cls-2{fill:#f23a52;}.cls-3{opacity:0.2;}.cls-4{fill:#871e44;}.cls-5{fill:#f4df02;}.cls-6{fill:#fff;}</style></defs><title>Ресурс 15</title><g id="Слой_2" data-name="Слой 2"><g id="Layer_1" data-name="Layer 1"><path class="cls-1" d="M16.7,53.91a.38.38,0,0,1-.38-.38V22.06l-4.64,4.35a.38.38,0,0,1-.53,0L.48,15.5A.38.38,0,0,1,.5,15L16,.48a.38.38,0,0,1,.26-.1h9.57a.38.38,0,0,1,.37.31A8,8,0,0,0,34.1,7.34,8,8,0,0,0,42,.69a.38.38,0,0,1,.37-.31H52a.38.38,0,0,1,.26.1L67.71,15a.38.38,0,0,1,0,.54L57.06,26.39a.38.38,0,0,1-.53,0l-4.64-4.35V53.53a.38.38,0,0,1-.38.38Z"/><path class="cls-2" d="M34.08,36.64h0a26.25,26.25,0,0,1-7.21-6.53c-2.06-2.78-2.77-5.33-2.09-7.57.07-.17,1.46-3.2,4.5-3.2a7.62,7.62,0,0,1,4.82,2.23,7.62,7.62,0,0,1,4.82-2.23c3,0,4.43,3,4.48,3.15.7,2.3,0,4.86-2.1,7.66a26.26,26.26,0,0,1-7.18,6.49h0Z"/><path class="cls-3" d="M43.6,22.59a6.2,6.2,0,0,0-.71-1.14q.17,2.89-2.34,6.25a26.25,26.25,0,0,1-7.18,6.49h0a26.25,26.25,0,0,1-7.21-6.53,15.27,15.27,0,0,1-1.24-1.94,11.59,11.59,0,0,0,2.18,4.49,26.25,26.25,0,0,0,7.21,6.53h0a26.25,26.25,0,0,0,7.18-6.49C43.58,27.45,44.29,24.89,43.6,22.59Z"/><path class="cls-4" d="M38.92,19.72c2.83,0,4.14,2.93,4.14,2.93,1.93,6.4-8.8,13.62-9,13.62h0c-.16,0-10.89-7.22-9-13.62,0,0,1.31-2.93,4.14-2.93,1.29,0,2.89.6,4.82,2.36,1.93-1.76,3.53-2.36,4.82-2.36Zm0-.75v0a7.74,7.74,0,0,0-4.82,2.11A7.74,7.74,0,0,0,29.28,19c-3.28,0-4.77,3.24-4.83,3.37l0,.09c-.71,2.37,0,5,2.15,7.91a28.69,28.69,0,0,0,7.16,6.55v0a.76.76,0,0,0,.39.11h0a.76.76,0,0,0,.39-.11v0a28.71,28.71,0,0,0,7.15-6.55c2.14-2.88,2.86-5.54,2.15-7.91l0-.09C43.69,22.2,42.21,19,38.92,19Z"/><path class="cls-5" d="M34.1,11.12c-6,0-10.88-4.6-10.88-10.26V.78a.43.43,0,0,1,.38-.4h2.21a.38.38,0,0,1,.37.31A8,8,0,0,0,34.1,7.34,8,8,0,0,0,42,.69a.38.38,0,0,1,.37-.31H44.6A.38.38,0,0,1,45,.75V.87C45,6.52,40.1,11.12,34.1,11.12Z"/><g class="cls-3"><path d="M45,.75A.38.38,0,0,0,44.6.38h-.48c-.2,5.49-5,9.9-10.86,9.9a11.18,11.18,0,0,1-7.51-2.86,11.12,11.12,0,0,0,8.36,3.7C40.1,11.12,45,6.52,45,.87Z"/></g><rect class="cls-5" x="16.32" y="48.66" width="35.56" height="5.25" rx="0.38" ry="0.38"/><g class="cls-3"><path d="M67.71,15,65,12.42l-9.63,9.83a.38.38,0,0,1-.53,0l-4.64-4.35,0,33.92H16.32v1.7a.38.38,0,0,0,.38.38H51.51a.38.38,0,0,0,.38-.38V22.06l4.64,4.35a.38.38,0,0,0,.53,0L67.72,15.5a.38.38,0,0,0,0-.54Z"/></g><path class="cls-4" d="M68,14.69,52.47.2A.75.75,0,0,0,52,0H42.39a.75.75,0,0,0-.74.62A7.65,7.65,0,0,1,34.1,7,7.65,7.65,0,0,1,26.56.62.75.75,0,0,0,25.82,0H16.25a.75.75,0,0,0-.51.2L.24,14.69a.75.75,0,0,0,0,1.08L10.88,26.66a.75.75,0,0,0,1.05,0l4-3.75v30.6a.75.75,0,0,0,.75.75H51.51a.75.75,0,0,0,.75-.75V22.93l4,3.75a.75.75,0,0,0,1.05,0L68,15.77a.75.75,0,0,0,0-1.08ZM25.82.75A8.44,8.44,0,0,0,30.48,6.9a8.37,8.37,0,0,0,3.62.82,8.37,8.37,0,0,0,5.44-2,8.45,8.45,0,0,0,.78-.77A8.44,8.44,0,0,0,41.5,3.29,8.37,8.37,0,0,0,42.39.75H44.6s0,.07,0,.11c0,5.46-4.7,9.88-10.5,9.88S23.6,6.32,23.6.87c0,0,0-.07,0-.11ZM51.51,53.53H16.7V49H51.51Zm5.28-27.4-5.28-4.94V48.28H16.7V21.19l-5.28,4.94L.75,15.24,16.25.75h6.61s0,.08,0,.11c0,5.86,5,10.64,11.25,10.64S45.36,6.73,45.36.87c0,0,0-.08,0-.11H52l15.5,14.49Z"/><ellipse class="cls-6" cx="27.78" cy="22.15" rx="1.88" ry="0.9" transform="translate(-7.52 26.13) rotate(-45)"/><path class="cls-6" d="M9.26,22.33a.75.75,0,0,1-.54-.23L2.6,15.79a.75.75,0,0,1,0-1.07l7-6.6a.75.75,0,1,1,1,1.1L4.21,15.29,9.8,21.06a.75.75,0,0,1-.54,1.28Z"/><path class="cls-6" d="M26.41,50.6H17.93a.57.57,0,0,1-.57-.57h0a.57.57,0,0,1,.57-.57h8.48A.57.57,0,0,1,27,50h0A.57.57,0,0,1,26.41,50.6Z"/><path class="cls-6" d="M28.72,7.59a.62.62,0,0,1-.2,0A6.31,6.31,0,0,1,24.34,2,.61.61,0,0,1,25.57,2a5.08,5.08,0,0,0,3.35,4.44.61.61,0,0,1-.2,1.2Z"/></g></g></svg>