<svg xmlns="http://www.w3.org/2000/svg" viewBox="0 0 81.57 102.67"><defs><style>.cls-1{fill:#226cb3;}.cls-2{opacity:0.2;}.cls-3{fill:#871e44;}.cls-4{fill:#01c7ff;}.cls-5{fill:#fff;}</style></defs><title>Ресурс 8</title><g id="Слой_2" data-name="Слой 2"><g id="Layer_1" data-name="Layer 1"><path class="cls-1" d="M64.65,39.57A.7.7,0,0,1,64,39.1,25.44,25.44,0,0,0,40.12,21.69,25.33,25.33,0,0,0,16.87,37.4a.7.7,0,0,1-.64.43h0a.7.7,0,0,1-.64-.47A28.15,28.15,0,0,1,14,28.21C14,13,26,.7,40.79.7S67.52,13,67.52,28.21a28,28,0,0,1-2.2,10.94.7.7,0,0,1-.64.43Z"/><g class="cls-2"><path d="M40.79.23a25.91,25.91,0,0,0-8.47,1.44c.26,0,.52,0,.79,0C47.85,1.63,59.85,14,59.85,29.14c0,.58-.05,1.16-.09,1.73A26.19,26.19,0,0,1,64,38.63a.7.7,0,0,0,.64.47h0a.7.7,0,0,0,.64-.43,28,28,0,0,0,2.2-10.94C67.52,12.57,55.53.23,40.79.23Z"/></g><path class="cls-3" d="M40.79,1.4c14.38,0,26,12,26,26.81a27.39,27.39,0,0,1-2.15,10.67A26.11,26.11,0,0,0,40.12,21,26,26,0,0,0,16.23,37.13a27.47,27.47,0,0,1-1.49-8.93c0-14.81,11.66-26.81,26-26.81Zm0-1.4C25.66,0,13.35,12.65,13.35,28.21a28.85,28.85,0,0,0,1.56,9.38,1.4,1.4,0,0,0,1.27.94h0a1.4,1.4,0,0,0,1.29-.85A24.64,24.64,0,0,1,40.12,22.39,24.75,24.75,0,0,1,63.36,39.33a1.4,1.4,0,0,0,1.27.94h0A1.4,1.4,0,0,0,66,39.42a28.68,28.68,0,0,0,2.26-11.21C68.22,12.65,55.91,0,40.79,0Z"/><path class="cls-4" d="M13.25,102a.7.7,0,0,1-.5-.22L.89,89.23a.7.7,0,0,1,0-1L66.17,24a.7.7,0,0,1,1.19.5V48.2a.7.7,0,0,1-.21.49l-53.4,53.07a.7.7,0,0,1-.49.2Z"/><path class="cls-2" d="M66.93,24.06h0V41.22a.7.7,0,0,1-.21.49L13.29,94.79a.69.69,0,0,1-.49.2h0a.7.7,0,0,1-.5-.22L3.71,85.72.91,88.48a.7.7,0,0,0,0,1L12.76,102a.7.7,0,0,0,.5.22h0a.7.7,0,0,0,.49-.2l53.4-53.07a.7.7,0,0,0,.21-.49V24.7A.7.7,0,0,0,66.93,24.06Z"/><path class="cls-3" d="M66.66,24.47V48.2l-53.4,53.07L1.4,88.75,66.66,24.47Zm0-1.4a1.4,1.4,0,0,0-1,.4L.42,87.75a1.4,1.4,0,0,0,0,2l11.87,12.53a1.4,1.4,0,0,0,1,.44h0a1.4,1.4,0,0,0,1-.41l53.4-53.07a1.4,1.4,0,0,0,.41-1V24.47a1.4,1.4,0,0,0-1.4-1.4Z"/><path class="cls-4" d="M68.31,102a.7.7,0,0,1-.49-.2L14.42,48.7a.7.7,0,0,1-.21-.49V24.47A.7.7,0,0,1,15.4,24L80.67,88.25a.7.7,0,0,1,0,1L68.82,101.75a.7.7,0,0,1-.5.22Z"/><path class="cls-2" d="M80.43,88.25,15.17,24a.7.7,0,0,0-1.19.5v5.2L73.22,88a.7.7,0,0,1,0,1l-9,9.47,3.32,3.3a.7.7,0,0,0,.49.2h0a.7.7,0,0,0,.5-.22L80.45,89.23A.7.7,0,0,0,80.43,88.25Z"/><path class="cls-3" d="M14.91,24.47,80.18,88.75,68.31,101.27,14.91,48.2V24.47Zm0-1.4a1.4,1.4,0,0,0-1.4,1.4V48.2a1.4,1.4,0,0,0,.41,1l53.4,53.07a1.4,1.4,0,0,0,1,.41h0a1.4,1.4,0,0,0,1-.44L81.19,89.71a1.4,1.4,0,0,0,0-2L15.89,23.48a1.4,1.4,0,0,0-1-.4Z"/><path class="cls-5" d="M64.89,93.79h0a1.28,1.28,0,0,1-1.81,0L52.56,83.26a1.28,1.28,0,0,1,0-1.81h0a1.28,1.28,0,0,1,1.81,0L64.89,92A1.28,1.28,0,0,1,64.89,93.79Z"/><path class="cls-5" d="M8.35,85.88h0a1.28,1.28,0,0,1,0-1.81L18.88,73.54a1.28,1.28,0,0,1,1.81,0h0a1.28,1.28,0,0,1,0,1.81L10.16,85.88A1.28,1.28,0,0,1,8.35,85.88Z"/><path class="cls-5" d="M18.71,22.94a1.38,1.38,0,0,1-.35,0,1.39,1.39,0,0,1-1-1.7C17.49,20.64,21,7.56,34.18,4.13a1.4,1.4,0,1,1,.7,2.7c-11.63,3-14.79,14.93-14.82,15A1.4,1.4,0,0,1,18.71,22.94Z"/></g></g></svg>