<svg xmlns="http://www.w3.org/2000/svg" viewBox="0 0 64.52 89.3"><defs><style>.cls-1{fill:#a8371d;}.cls-2{fill:#bf4928;}.cls-3{fill:#d35933;}.cls-4{fill:#3a3a3a;}.cls-5{fill:#fff;}.cls-6{fill:#5e5e5e;}.cls-7{fill:#7c7c7c;}.cls-8{fill:#9e9e9e;}.cls-9{fill:#e8b679;}.cls-10{fill:#ffe1c0;}.cls-11{fill:#dba763;}</style></defs><title>Ресурс 15</title><g id="Слой_2" data-name="Слой 2"><g id="Layer_1" data-name="Layer 1"><path class="cls-1" d="M23.33,43.2c-3.8-2.9-6.2-2.37-7.95-.62C13,45,13.67,48.39,14.19,50.08a52.68,52.68,0,0,0,2.55,5,7.47,7.47,0,0,0-4.57,1.77C11,57.93,10.31,60,11,61.23s4.86-2.47,8.58-5c5.37-3.68,5.81-4.24,5.75-6.15C25.25,47.8,25.52,44.88,23.33,43.2Z"/><path class="cls-2" d="M10.42,40.52S9.73,45.68,11.8,55c1.24,5.57.64,6.27-.24,6.59A3.86,3.86,0,0,0,8.92,65c-.14,2,1.42,1.85,2.65,1.32,2.24-1,3-1.85,3.45-2.93,1.58-4,1.83-17.23,1.83-17.23Z"/><path class="cls-3" d="M12.48,14.06C8.5,15.4,7,18.94,6.39,20.44s-4,4.62-5.18,5.82c-2,2.12-1.37,3.43,1,4.19s5.86-2.54,7.89-2.32,2.37.65,2.71,2-1.35,5.06-2.37,7.41c-.83,1.93-.75,6.95,1,11a5.74,5.74,0,0,0,.49-2.22,26.09,26.09,0,0,1,.56,4.64,2.12,2.12,0,0,0,.88-1.59,10.32,10.32,0,0,0,1.54,3.4c2.14,2.68,6.87,4.22,9.74,5C28.36,58.7,34.79,62,39.2,60c4.7-2.16,4.57-7.13,2.44-11.24C38.15,42,34.19,44.47,31,39.22c-2.58-4.28-3.4-6.59-5.19-8.41s-3.54-4.14-4-5.86C20.39,20.1,20.26,11.42,12.48,14.06Z"/><path class="cls-2" d="M19.77,56.34l.77-5a11.59,11.59,0,0,0,5.67,2.82,8.62,8.62,0,0,1,2.28.59s2,6.71.91,6.71C23.89,61.42,19.77,56.34,19.77,56.34Z"/><path class="cls-3" d="M35.86,50.41c-3.8-2.9-6.2-2.37-7.95-.61-2.43,2.43-1.71,5.81-1.2,7.49a52.7,52.7,0,0,0,2.55,5,7.47,7.47,0,0,0-4.57,1.77c-1.13,1-1.86,3.13-1.18,4.33.29.51,1.67.11,4.94-1.74C32.1,64.63,37.1,61.52,37.4,61a7.53,7.53,0,0,0,.44-3.69C37.78,55,38.05,52.08,35.86,50.41Z"/><path class="cls-3" d="M14.52,44.09s1.56,8.88,2.56,14c1.09,5.61.64,6.27-.24,6.59A3.86,3.86,0,0,0,14.2,68.2c-.14,2,1.42,1.85,2.65,1.32,2.24-1,3-1.85,3.45-2.93,1.58-4,1.83-17.23,1.83-17.23Z"/><path class="cls-2" d="M16.84,19.57a36.16,36.16,0,0,0,1.4,9.13,7,7,0,0,1,.92-1.18s-.22,1.17-.33,2a3.86,3.86,0,0,0,.8,2,20.48,20.48,0,0,0,.6-2.42,20.28,20.28,0,0,0,.35,3.27c.16.81,1.12,1.25,1.32,1.8a4.64,4.64,0,0,0,2.39-6c-2.44-5.72-1.87-8.13-4.24-11C18.86,15.71,16.84,17.39,16.84,19.57Z"/><path class="cls-2" d="M1.69,28.77a3,3,0,0,0,.48,1.1A3.59,3.59,0,0,0,4,30.42a3.82,3.82,0,0,1-1.78,0,3.24,3.24,0,0,1-2-1.26s.8-.2.88-.37S1.69,28.77,1.69,28.77Z"/><path class="cls-4" d="M.9,26.61c-.24.34-1,.86-.46,1.62a5,5,0,0,0,1,1.05,2.94,2.94,0,0,0,1.68-1.39A15,15,0,0,0,.9,26.61Z"/><path class="cls-2" d="M12.78,31.11a5.74,5.74,0,0,1-1,2.22C11.07,34,10,35,10,35a2.86,2.86,0,0,0,1.44-.5,8.56,8.56,0,0,1-1.25,1.87A6.05,6.05,0,0,0,9,39.1a13.43,13.43,0,0,0,0,1.47,11.18,11.18,0,0,1,.9-1.75c-.26,1.25-.57,2.23-.61,2.91a8,8,0,0,0,.4,2.55,12.56,12.56,0,0,1,.35-1.86c.23-.65.45-1.47.45-1.47a18.13,18.13,0,0,0,.28,3.14,7,7,0,0,1,.19,2,4.35,4.35,0,0,0,.92-1.77c.12-.88.19-1.7.19-1.7a11,11,0,0,0,.52,2.29c.52,1.18,1.13,1.18,1.13,1.18a8.92,8.92,0,0,1-.4-3.15c0-.49,0-1.79,0-1.79a10.91,10.91,0,0,1,.48,1.62c.09.61.12,1.14.12,1.14a2.29,2.29,0,0,0,.66-1.51A7.38,7.38,0,0,0,14,39.81a5.69,5.69,0,0,1,1,1,4.59,4.59,0,0,1,.5,1.23,3.11,3.11,0,0,0,0-2.27c-.29-.79-1.18-1.46-1.11-2.32a14.74,14.74,0,0,0,0-1.9,4.86,4.86,0,0,0,.54,1.57,2.7,2.7,0,0,0,1,.84,5.14,5.14,0,0,1-.76-1.84c-.09-.85-.62-2.6-.69-3.36a8.2,8.2,0,0,0-.66-2s-.25,1-.46,2.16a3.82,3.82,0,0,1-.88,1.34,4,4,0,0,0,.45-1.5A7,7,0,0,0,12.78,31.11Z"/><path class="cls-2" d="M17.35,43.4a23.26,23.26,0,0,0-1,3.83c-.21,1.63,0,6.9,0,6.9a3,3,0,0,1-.61-2.53c.22-1.84-.67-1.7-.57-3.58a3.49,3.49,0,0,0-.39,2.16,2.78,2.78,0,0,1-.58-2.27,4.09,4.09,0,0,1,1.39-2.52A21.78,21.78,0,0,0,17.35,43.4Z"/><path class="cls-2" d="M37.2,52.11s.48,1.7.88,3.7a10.7,10.7,0,0,1-.31,4.56A5.73,5.73,0,0,0,39.2,60a4.79,4.79,0,0,0,2.44-2.35,3.54,3.54,0,0,0,.39-2,11.37,11.37,0,0,0-2.1-2.39A7.3,7.3,0,0,0,37.2,52.11Z"/><path class="cls-3" d="M42,52.87s.34,3.65-1,5.13a6.54,6.54,0,0,0-1.74,3.89c0,.78-1.39,3.55-2.74,3.92a3.93,3.93,0,0,1-2.44-.11,2.34,2.34,0,0,0,1.51,1.16c-.25.14-.83.25-1.77.75A4.7,4.7,0,0,0,32,70.42a4.88,4.88,0,0,1,2.46-1.11,10,10,0,0,0,2.64-.68,4.41,4.41,0,0,0-1.35,1.43c-.25.66-.49,1.36-.49,1.36a5.44,5.44,0,0,1,2.15-1.36,4.69,4.69,0,0,0,3.44-1.43,5.61,5.61,0,0,0,1.63-2.83s.52.92.34,1.47-.34,1.29-.34,1.29,1.45-.86,1.57-2-.12-2.62.61-3.55a6.76,6.76,0,0,0,1.23-3.45,4.94,4.94,0,0,0-.25-1.17A7.05,7.05,0,0,0,47,59.6a3.51,3.51,0,0,0,1.17,0A4.89,4.89,0,0,1,46.73,58,12.83,12.83,0,0,0,42,52.87Z"/><path class="cls-2" d="M24.64,57.72s-2.74-5.53,1.51-9a3.77,3.77,0,0,1,5,0s-6.42.28-4.76,8C27.09,59.92,24.64,57.72,24.64,57.72Z"/><path class="cls-2" d="M7,18.41s.38-1,1.08-1.1c.5.29-.44,2.19-.44,2.19Z"/><path class="cls-2" d="M9.65,21.45s.62-2.91,2.07-2.05c1.17.69.66,2,.49,2.51C11.24,21.72,9.65,21.45,9.65,21.45Z"/><path class="cls-5" d="M9.65,21.45s.44-1.5,1.64-1.17c1,.27.91,1.62.91,1.62a3.61,3.61,0,0,1-1.37.24A2.44,2.44,0,0,1,9.65,21.45Z"/><ellipse class="cls-4" cx="10.85" cy="21.12" rx="0.87" ry="0.85"/><path class="cls-5" d="M7.34,20.15s.88-1.43.18-2A1.22,1.22,0,0,0,6.6,19.4C6.61,20,7.34,20.15,7.34,20.15Z"/><ellipse class="cls-4" cx="7.28" cy="19.07" rx="0.73" ry="0.5" transform="translate(-12.89 22.21) rotate(-77.97)"/><ellipse class="cls-5" cx="10.83" cy="20.74" rx="0.24" ry="0.27"/><ellipse class="cls-5" cx="7.38" cy="18.77" rx="0.18" ry="0.23"/><path class="cls-6" d="M34.65,62.59c-1.05-.7-1.67.45-2.34,1.82a5.63,5.63,0,0,0,0,4.5,6.22,6.22,0,0,0,2.34,2.38,15.9,15.9,0,0,0-3.7,2.25c-.92,1-.69,2.72,0,2.75,1.62.07,4.83-2.12,6.46-3A8.31,8.31,0,0,0,40,71.46C40.42,71,40.77,66.64,34.65,62.59Z"/><path class="cls-7" d="M32.51,64.79c-1.61,0-.36,5.22-.57,6.11s-.18,3-.78,3.45-1.67.44-2.11,1.37a1.84,1.84,0,0,0,.13,2.12c.58.48,2.1,0,3.1-.56.79-.48,1.52-.74,1.82-1.64s1.22-8.84,1.22-8.84S35.44,64.79,32.51,64.79Z"/><path class="cls-8" d="M32.54,57.38s1.15,1.86,0,3.32c-2.84,3.58-1.67,6.41-1.67,6.41l.67-1s-.22,1.44-.57,3.17a6.24,6.24,0,0,0,1.17-1.72,11.87,11.87,0,0,0,2.79,6.14,12,12,0,0,0,4.67,2.61c.92.32,4,1.52,6.33,1.33s5.45,2.11,5.45-2.66a14.56,14.56,0,0,0-3.6-10c-1.4-1.45-3.5-1.12-4.71-4.48a9.44,9.44,0,0,0-2.95-3.91S35.28,60.05,32.54,57.38Z"/><path class="cls-8" d="M34.65,47.5a31.66,31.66,0,0,0-3.42-2.74A11,11,0,0,0,31.45,46c.18.18.38.37.62.57,1.22,1,2.13,2.33,2.17,3.09s0,1.74,0,1.74a1.64,1.64,0,0,1-.47.93l2.29-.93A4.58,4.58,0,0,0,34.65,47.5Z"/><path class="cls-7" d="M33.77,52.37l-1.32.54A2,2,0,0,0,33.77,52.37Z"/><path class="cls-7" d="M34.24,49.7c0-.76-1-2.05-2.17-3.09-.24-.2-.44-.39-.62-.57a9.13,9.13,0,0,0,.69,2c.76,1.52.3,4.85.3,4.85l1.32-.54a1.64,1.64,0,0,0,.47-.93S34.27,50.46,34.24,49.7Z"/><path class="cls-7" d="M33.11,58.82a2.62,2.62,0,0,1,0,2.43,5.69,5.69,0,0,0-1.19,3.19l1.19-1.15a10.45,10.45,0,0,0-.26,1.5,4.2,4.2,0,0,0,.81,2.55,5,5,0,0,1,.1-1.9,6.57,6.57,0,0,1,.89-1.33,2.49,2.49,0,0,1,.11,2.43c-.33.78-.72,1.6-.72,1.6a2.72,2.72,0,0,0,2-1.37c.68-1,.09-1.94.31-2.55a2.24,2.24,0,0,0,1.6,1.2,2.23,2.23,0,0,1-.35-2.13c.5-1.06,1.23-2.12,1-3s-.65-2-.65-2Z"/><path class="cls-8" d="M41.74,55.13c0,3.17-1.91,5-5.34,5.5-1.1.17-3.06.11-3.29-.94-1.34.3-2.22-1.59-2.45-2.71a5.93,5.93,0,0,1-.32-1.74,5.84,5.84,0,0,1,5.72-5.84A5.71,5.71,0,0,1,41.74,55.13Z"/><path class="cls-8" d="M41.58,52.89a7.29,7.29,0,0,0-4.28-4.57l.1,1.06c.46.56,1.13,1.44,1.56,2.05a3.16,3.16,0,0,1,.64,2.91,7.16,7.16,0,0,1-.78,1.36l.83,2.11S42.24,55,41.58,52.89Z"/><path class="cls-7" d="M39,51.44c-.42-.61-1.1-1.49-1.56-2.05a10.23,10.23,0,0,1,.32,3.51,6.8,6.8,0,0,1,1.11,2.82,7.16,7.16,0,0,0,.78-1.36A3.16,3.16,0,0,0,39,51.44Z"/><path class="cls-7" d="M37.4,75a13,13,0,0,0,4.33,2.21,14.24,14.24,0,0,0,4.5.55s.15-1.42-.22-1.47c-5-.67-7.26-3.27-7.39-3S37.4,75,37.4,75Z"/><path class="cls-8" d="M37.54,67.76c-1.61,0-.36,5.22-.57,6.11s-.18,3-.78,3.45-1.67.44-2.11,1.37a1.84,1.84,0,0,0,.13,2.12c.58.48,2.1,0,3.1-.56.79-.48,1.52-.74,1.82-1.64s1.22-8.84,1.22-8.84S40.47,67.76,37.54,67.76Z"/><path class="cls-8" d="M45.39,68.62c-1.05-.7-1.67.45-2.34,1.82a5.63,5.63,0,0,0,0,4.5,6.22,6.22,0,0,0,2.34,2.38,15.9,15.9,0,0,0-3.7,2.25c-.92,1-.69,2.72,0,2.75,1.62.07,4.83-2.12,6.46-3a8.31,8.31,0,0,0,2.62-1.83C51.16,77,51.52,72.67,45.39,68.62Z"/><path class="cls-7" d="M36.8,75.11l-.75-.46a6.85,6.85,0,0,1-.29-3,14.56,14.56,0,0,1,1.32-3.89,26.2,26.2,0,0,0-.26,3.18C36.81,72.08,36.8,75.11,36.8,75.11Z"/><path class="cls-7" d="M44.32,76.54a5,5,0,0,1-1.52-4.31c.31-2.06,2.75-2.58,2.75-2.58a2.56,2.56,0,0,0-3.15.58,5.52,5.52,0,0,0-.35,5.13c.62,1.41,1.17,1.66,1.17,1.66Z"/><path class="cls-8" d="M50.56,73.65s3.29-.39,4.83,2.2a6.37,6.37,0,0,1,.75,6,10.47,10.47,0,0,1-4.5,5.37,6.61,6.61,0,0,0-2,2.05,1.19,1.19,0,0,1-.22-1.12,8.26,8.26,0,0,1-7.41.44c-.15-.8,1.52-2.14,1.52-2.14a2.45,2.45,0,0,1-1.52.06c.67-.25,1-1.12,2.29-1.71,3.87-1.74,4.6-1.12,7-3A4.22,4.22,0,0,0,53.06,78c-.12-1.37-2.83-2.1-2.83-2.1Z"/><path class="cls-7" d="M34.54,57c-1-.73-3-1.74-3.54-2.07a.5.5,0,0,0-.81.28,2.81,2.81,0,0,0,.37,2.51c.4.4.66.07.89-.19a2.07,2.07,0,0,0,1.75,1.75,1.66,1.66,0,0,0,1.67-.53A1.39,1.39,0,0,0,34.54,57Z"/><path class="cls-8" d="M35.16,56.67s0,0,0-.06c-.2-.16-.42-.27-.63-.41a.45.45,0,0,0-.4-.07c0-.06-.07-.13-.11-.19a.59.59,0,0,0-.77-.19.9.9,0,0,0-.21,0,1.07,1.07,0,0,1,0-.15.52.52,0,0,0-1,0c0,.3-.05.26,0,.56a2.94,2.94,0,0,0-.15,1.21c0,.66.58,1.09,1.2,1.39a2.13,2.13,0,0,0,2.6-1.48A.52.52,0,0,0,35.16,56.67Z"/><path class="cls-8" d="M31.77,55.3a.36.36,0,0,0,0-.2,2.6,2.6,0,0,0-.21-.57.49.49,0,0,0-.62-.22c0-.08,0-.17,0-.25h0v0h0a.15.15,0,0,0-.29-.08,4.71,4.71,0,0,0-.55,1.93c-.05.46.07,1.34.61,1.49s.75-.66.75-1.27C31.45,55.74,31.83,55.66,31.77,55.3Z"/><path class="cls-4" d="M31.83,55.38c-.84-.51-1,0-.89.42a2.47,2.47,0,0,0,.67.81,1.48,1.48,0,0,0,.56-.32C32.53,56,32.38,55.71,31.83,55.38Z"/><path class="cls-5" d="M33.33,54.79a3.65,3.65,0,0,1,.34-1.06c.31-.56,1-.26,1.23.5a5.17,5.17,0,0,1,.16,1.55,5.79,5.79,0,0,1-1.29-.41A1.23,1.23,0,0,1,33.33,54.79Z"/><ellipse class="cls-4" cx="34.08" cy="54.57" rx="0.55" ry="0.79" transform="translate(-0.82 0.52) rotate(-0.87)"/><path class="cls-5" d="M31.93,54s.37-1.29.16-1.67c-.49-.87-1.19,1.07-1.19,1.07a1.6,1.6,0,0,0,.43.57A.54.54,0,0,0,31.93,54Z"/><ellipse class="cls-4" cx="31.74" cy="53.23" rx="0.76" ry="0.4" transform="translate(-26.04 75.64) rotate(-80.39)"/><ellipse class="cls-5" cx="34.25" cy="54.36" rx="0.17" ry="0.23"/><ellipse class="cls-5" cx="31.8" cy="52.93" rx="0.17" ry="0.23"/><path class="cls-4" d="M30.77,55.45s-1.41-.07-2.26,0-1.59.1-1.59.1a6.82,6.82,0,0,1,1.86-.33A4.27,4.27,0,0,1,30.77,55.45Z"/><path class="cls-4" d="M27.79,56.79a4.47,4.47,0,0,1,1.31-.6,6.66,6.66,0,0,1,1.54-.13l-1.2.25C29,56.41,27.79,56.79,27.79,56.79Z"/><path class="cls-4" d="M33.53,57.2a5.57,5.57,0,0,1,2.05,1,7.65,7.65,0,0,1,1.15,2,11.65,11.65,0,0,0-1.4-1.82C34.88,58,33.53,57.2,33.53,57.2Z"/><path class="cls-4" d="M33.11,57.48a8.23,8.23,0,0,1,1.55,1.6,5.35,5.35,0,0,1,.58,1.62,14,14,0,0,0-.82-1.62C34.13,58.7,33.11,57.48,33.11,57.48Z"/><path class="cls-7" d="M31.92,51.5s.4-.11.53.2a1.78,1.78,0,0,1,.12.66.84.84,0,0,0,.13-.95C32.46,51,31.92,51.5,31.92,51.5Z"/><path class="cls-7" d="M33.33,52.7s.48-.71,1.09-.59a1.21,1.21,0,0,1,.85.76,2.14,2.14,0,0,0-1.08-.4A3.37,3.37,0,0,0,33.33,52.7Z"/><polygon class="cls-9" points="31.02 1.12 31.02 27.26 62.57 45.49 62.57 19.4 31.02 1.12"/><polygon class="cls-10" points="32.87 0 31.02 1.12 62.57 19.4 64.52 18.27 32.87 0"/><polygon class="cls-11" points="62.57 19.3 64.52 18.27 64.52 44.34 62.57 45.49 62.57 19.3"/><path class="cls-4" d="M38.31,15.62,37,14.87l-.26,1.19-1-.57,1.35-4.89,1.14.66,1.32,6.44-1-.59Zm-.19-1.11-.1-.58c-.12-.63-.22-1.37-.34-2l0,0c-.1.54-.22,1.13-.34,1.63l-.1.46Z"/><path class="cls-4" d="M40,12.3l1,.57,1.1,3.46.42,1.5,0,0c0-.63-.12-1.47-.12-2.14v-2l.91.53,0,5.66-1-.57-1.1-3.46-.41-1.47,0,0c0,.65.12,1.45.12,2.12v2L40,18Z"/><path class="cls-4" d="M44.35,14.81l1,.56,0,5.66-1-.56Z"/><path class="cls-4" d="M46.3,15.95l1,.59.7,3,.25,1.14h0l.26-.84.7-2.14,1,.59,0,5.66-.9-.52V21.31c0-.56.08-1.33.13-1.86l0,0-.35,1.11-.66,1.81-.38-.22-.64-2.57-.33-1.51,0,0c0,.57.12,1.44.12,2v2.08l-.88-.51Z"/><path class="cls-4" d="M53.23,24.3l-1.3-.76-.26,1.19-1-.57L52,19.28l1.14.67,1.32,6.44-1-.59ZM53,23.19l-.1-.58c-.12-.63-.22-1.37-.34-2l0,0c-.1.54-.22,1.13-.34,1.63l-.11.46Z"/><path class="cls-4" d="M55,21l1,.56v4.58l1.67,1v1.08l-2.63-1.53Z"/><path class="cls-4" d="M34.94,22.15a3.38,3.38,0,0,0,1,1.19c.4.23.59.14.59-.2s-.24-.61-.61-1l-.54-.63a3.13,3.13,0,0,1-.85-2c0-.94.64-1.32,1.51-.81a3.88,3.88,0,0,1,1.36,1.54l-.48.53a2.67,2.67,0,0,0-.88-1c-.33-.19-.54-.12-.54.2s.28.63.65,1l.54.61a3,3,0,0,1,.83,2c0,.94-.59,1.41-1.6.83a4.55,4.55,0,0,1-1.57-1.73Z"/><path class="cls-4" d="M38.27,20l1,.56v2.18l1.46.85V21.42l1,.56,0,5.66-1-.56V24.71l-1.46-.85v2.36l-1-.56Z"/><path class="cls-4" d="M42.64,22.54l2.66,1.55v1.08l-1.7-1v1.14l1.44.84v1.07l-1.44-.84v1.3l1.76,1v1.08l-2.72-1.59Z"/><path class="cls-4" d="M46.19,24.61l1,.56v4.59l1.67,1V31.8l-2.63-1.53Z"/><path class="cls-4" d="M49.59,27.67,48.42,27V25.91l3.29,1.91V28.9l-1.16-.68v4.59l-1-.56Z"/><path class="cls-4" d="M52.37,28.2,55,29.75v1.08l-1.7-1V31l1.44.84v1.07L53.32,32v1.3l1.76,1v1.08l-2.73-1.58Z"/><path class="cls-4" d="M58.2,37.26l-.81-2.51-.52-.3v2l-1-.56,0-5.66,1.53.89a3,3,0,0,1,1.63,2.71c0,.83-.31,1.19-.76,1.19l.95,2.82Zm-1.32-3.83.49.28c.5.29.78.16.78-.39a1.3,1.3,0,0,0-.77-1.2l-.49-.28Z"/></g></g></svg>