<svg xmlns="http://www.w3.org/2000/svg" viewBox="0 0 73.95 119.93"><defs><style>.cls-1{fill:#4d4d4d;}.cls-2{fill:#3a3a3a;}.cls-3{fill:#ffa08d;}.cls-4{fill:#11a58c;}.cls-5{fill:#1dbca5;}.cls-6{fill:#ffc5b3;}.cls-7{fill:#bf4928;}.cls-8{fill:#dba763;}.cls-9{fill:#e8b679;}.cls-10{fill:#996c36;}.cls-11{fill:#ffc200;}.cls-12{fill:#eaad00;}.cls-13{fill:#fff;}.cls-14{fill:#d35933;}.cls-15{fill:#ef8265;}.cls-16{fill:red;}.cls-17{fill:#d30505;}</style></defs><title>Ресурс 1</title><g id="Слой_2" data-name="Слой 2"><g id="Layer_1" data-name="Layer 1"><path class="cls-1" d="M44.32,95.62S43.09,97,41.44,98.57s-2,1.91-3.41,3.29c-.83.81-.15,1.55,1.43,1.49A28.27,28.27,0,0,0,45.73,102a31.82,31.82,0,0,0,4.69-2.45,3.11,3.11,0,0,0,1.39-1.76V95.3Z"/><path class="cls-1" d="M66.84,93.42a20.62,20.62,0,0,1-2.43,2.76A26.89,26.89,0,0,0,61.08,100c-.31.4-.49,1.56,1.09,1.5a20.73,20.73,0,0,0,5.24-1.27c2-.71,3.69-2.73,4.86-3.47a4.9,4.9,0,0,0,1.68-2.37L73.14,92Z"/><path class="cls-2" d="M66.21,53.23c.58-9.09-4.43-13.87-4.43-13.87C62.18,36.29,48,40.58,48,40.58s-3,16.47-4.33,25.14c-1.46,9.86-.58,29.93-.58,29.93s.18,2.14,3.86,2.13a7.3,7.3,0,0,0,4.9-2.48l.29-22.84,3.26-16.2s3.14,13.17,4.14,17.89c1.06,5,5.12,19.9,5.12,19.9s2.63,3,5.89,1.39S73.14,92,73.14,92a65.92,65.92,0,0,0-4.84-20C68,64.82,65.94,57.4,66.21,53.23Z"/><polygon class="cls-3" points="43.73 24.16 41.34 27.79 48.4 32.27 49.7 26.99 43.73 24.16"/><path class="cls-4" d="M51.44,13.25s-2-.1-4.13,3.84-4,7.73-4,7.73a17.43,17.43,0,0,1,6.3,3.9C54.13,24.62,54.87,15.17,51.44,13.25Z"/><path class="cls-5" d="M51.56,14.1a43.36,43.36,0,0,0-3.84,8.83c-1,4-.67,22.72-.67,22.72A13.54,13.54,0,0,0,57.91,51C63,51,65,50,65.94,48.1c-.62-6.94,1.79-21.33,1.44-24s-5.84-8.78-5.84-8.78S55.93,12.38,51.56,14.1Z"/><path class="cls-3" d="M54.88,14.16,54,19.07s2.5,2.81,4.95.71,2.8-3.06,2.8-3.06L60.58,10Z"/><path class="cls-6" d="M58.33,2.65a5.67,5.67,0,0,0-8.85,3C47.59,11,52.44,17.72,55,16.59c1.45-.64,4.49-2.9,5.35-5.73C61.35,7.68,60,3.89,58.33,2.65Z"/><path class="cls-7" d="M49.06,7.36a4.79,4.79,0,0,0,4.71,1.43,10.44,10.44,0,0,0,3.64-1.34l.43,2.84a2.49,2.49,0,0,0,.75-.27c0-1.12.45-1.47,1.06-1.14s.73,2,.73,2a5.82,5.82,0,0,0,1.4-5.24c-.44-2-3.14-5.94-6.9-5.59s-5.95,2.84-6.41,5A2.64,2.64,0,0,0,49.06,7.36Z"/><polygon class="cls-8" points="38.36 61.74 38.36 42.28 54.03 34.47 54.03 52.82 38.36 61.74"/><polygon class="cls-9" points="38.36 61.74 38.36 42.28 22.68 34.47 22.68 52.82 38.36 61.74"/><polygon class="cls-10" points="22.68 33.22 38.36 42.28 54.03 33.22 38.36 24.16 22.68 33.22"/><path class="cls-11" d="M42.84,27.63c-.24-.16-.57-.32-.68-.57l-.4-.19a.45.45,0,0,1-.58.12,1.77,1.77,0,0,1-.91-.71L40,26.15l0,.07a1,1,0,0,1-.24,1.19c-.48.38-.91,0-1.2-.43a.87.87,0,0,1-.07-1.14.82.82,0,0,1,.8-.15,3,3,0,0,1-.41-.41,3.4,3.4,0,0,1-.18-.3.94.94,0,0,1-.39-.29c-.26-.31-.23-.53-.06-.69A6,6,0,0,1,38,22.93a.83.83,0,0,1-.07-.18.79.79,0,0,1,0-.37,10.47,10.47,0,0,1,.09-2,1.53,1.53,0,0,1-.55-.22,1.14,1.14,0,0,1-.33-1.72,8.54,8.54,0,0,1,1.27-1.12c0-.31,0-.61,0-.92a3.13,3.13,0,0,0-.93-1.71,3.27,3.27,0,0,0,.85-1.16c.22-.8-.06-1.19-.85-1.15-.5,0-1,1.05-1.33,1.47a1.82,1.82,0,0,0-.55-1.08c-.36-.33-.92-.54-1.28-.1s-.09,1.33.48,1.84a5,5,0,0,0-2.78,1.29,3,3,0,0,0-1,2.19,2.29,2.29,0,0,0,2.79.37,7,7,0,0,0,2.56-1.6,3.87,3.87,0,0,1-.79,1.52l.12-.09a11.24,11.24,0,0,0,.57,6.63,5,5,0,0,1,.72,2.4,27.21,27.21,0,0,0,.06,3.37c.05.76.6.27,1.41.61a8.12,8.12,0,0,0,3.21.36,13,13,0,0,0,2.92-.22,4.73,4.73,0,0,0-1.22-3.38A1.6,1.6,0,0,1,42.84,27.63Zm-6.55-4.36c-.21-.29,0-.64-.06-1,0-.92.41-1,.75-1a.45.45,0,0,1,.5.35c0,.15-.1.29-.12.44s.11.42.13.65C37.57,23.33,36.72,23.87,36.29,23.26Zm4,5.41c-.16-.35.45-.92,1-.88s1,.64.89.89A1.21,1.21,0,0,1,40.32,28.67Z"/><path class="cls-12" d="M33.88,18.31a2.29,2.29,0,0,1-2.79-.37,1.69,1.69,0,0,0,.22.73c.9,1.56,2.88.64,4.35-.43a3.87,3.87,0,0,0,.79-1.52A7,7,0,0,1,33.88,18.31Z"/><path class="cls-12" d="M39.33,25.69a3.55,3.55,0,0,0,.68.46A1.11,1.11,0,0,0,39.33,25.69Z"/><path class="cls-12" d="M42.14,26.73a1.44,1.44,0,0,1,.48-.68l-.46-.19-.34-.15a1.76,1.76,0,0,1,.09.81.73.73,0,0,1-.15.35l.4.19A.48.48,0,0,1,42.14,26.73Z"/><path class="cls-12" d="M39.24,23.67c0-.08-.08-.16-.12-.25A.82.82,0,0,1,38,22.93,6,6,0,0,0,38.29,24,1.77,1.77,0,0,1,39.24,23.67Z"/><path class="cls-12" d="M44.59,27.2a3.34,3.34,0,0,0-.75-.57c.13.38.34.76,0,1.12a.45.45,0,0,1-.44.17,4.73,4.73,0,0,1,1.22,3.38A1.52,1.52,0,0,0,45.2,31C46.17,30.23,45.29,27.94,44.59,27.2Z"/><path class="cls-12" d="M39.33,25.69a1.11,1.11,0,0,1,.68.46l.25.11a.75.75,0,0,1-.09-.33A2,2,0,0,1,40.5,25a4.72,4.72,0,0,1-.56-.46,1.1,1.1,0,0,1-1.19.44,3.4,3.4,0,0,0,.18.3A3,3,0,0,0,39.33,25.69Z"/><path class="cls-12" d="M38,22.38a.86.86,0,0,1,.7-.51l0-.17a10.8,10.8,0,0,1-.16-1.41.72.72,0,0,1-.42.05A10.47,10.47,0,0,0,38,22.38Z"/><path class="cls-2" d="M37.21,18.39a1.14,1.14,0,0,0,.33,1.72,1,1,0,0,0,1,.17c-.05-1,0-2,0-3A8.54,8.54,0,0,0,37.21,18.39Z"/><path class="cls-2" d="M37.48,21.59a.45.45,0,0,0-.5-.35c-.34,0-.78.12-.75,1,0,.34-.15.69.06,1,.43.61,1.29.07,1.21-.58,0-.22-.17-.41-.13-.65S37.5,21.75,37.48,21.59Z"/><path class="cls-2" d="M38,22.75a.84.84,0,0,0,1.14.68,6.9,6.9,0,0,1-.42-1.56C38.27,22,37.89,22.2,38,22.75Z"/><path class="cls-2" d="M38.54,25.84A.87.87,0,0,0,38.61,27c.3.39.72.81,1.2.43a1,1,0,0,0,.24-1.19A1.06,1.06,0,0,0,38.54,25.84Z"/><path class="cls-2" d="M41.18,27c.41.17.67-.06.73-.47a1.76,1.76,0,0,0-.09-.81A8.52,8.52,0,0,1,40.5,25a2,2,0,0,0-.32.94C40.18,26.47,40.74,26.79,41.18,27Z"/><path class="cls-2" d="M38.35,24.68a1,1,0,0,0,1.59-.15,3.71,3.71,0,0,1-.65-.77l0-.1C38.55,23.75,37.79,24,38.35,24.68Z"/><path class="cls-2" d="M42.14,26.73c-.13.47.38.68.7.9s.71.5,1,.12.1-.74,0-1.12A8.87,8.87,0,0,0,42.63,26,1.44,1.44,0,0,0,42.14,26.73Z"/><path class="cls-2" d="M41.34,27.79c-.57,0-1.18.53-1,.88a1.21,1.21,0,0,0,1.91,0C42.34,28.43,41.86,27.82,41.34,27.79Z"/><ellipse class="cls-13" cx="35.6" cy="15.33" rx="0.46" ry="0.52"/><ellipse class="cls-2" cx="35.44" cy="15.45" rx="0.16" ry="0.16"/><path class="cls-2" d="M52.19,30.19a6.64,6.64,0,0,1-11.86,5.09,6.64,6.64,0,1,0,11.86-5.09Z"/><path class="cls-13" d="M45.64,37.95a6.61,6.61,0,0,0,6.54-7.76,6.63,6.63,0,0,0-11.86,5.09A6.63,6.63,0,0,0,45.64,37.95Z"/><path class="cls-2" d="M52.29,34.57c-.3-1.29-.67-4.39-2.59-5.39s-3.31,3.07-3.84,5a16.31,16.31,0,0,0,0,5.29L43.4,38.5a9.85,9.85,0,0,1,1.92-7.45c1.6-2,3.21-3.58,4.32-2.92s3.56,4.07,3.56,4.07Z"/><path class="cls-2" d="M40.7,31.68a13.22,13.22,0,0,0,3.45-2,14.24,14.24,0,0,0,2.11-2.12,6.07,6.07,0,0,0-3.07,1A5.8,5.8,0,0,0,40.7,31.68Z"/><path class="cls-14" d="M35.9,28.12a5.87,5.87,0,0,0,1.63-1.27,3.14,3.14,0,0,0-.69-1.74c-.75-1-1.83.15-2.92,1a5.87,5.87,0,0,1-2.68,1.07l1.09,1.4A5.28,5.28,0,0,0,35.9,28.12Z"/><path class="cls-7" d="M37.17,28.08a2.11,2.11,0,0,0,.36-1.24,5.87,5.87,0,0,1-1.63,1.27,5.28,5.28,0,0,1-3.57.48l.67.85S36.54,29,37.17,28.08Z"/><ellipse class="cls-15" cx="36.54" cy="26.16" rx="0.37" ry="1.07" transform="translate(-7.85 19.18) rotate(-26.66)"/><path class="cls-14" d="M25.38,28.33a40.46,40.46,0,0,0,1.1,5.92c.62,1.93,1.28,4.58,3.68,5.08s6.53-2.86,7.4-4.87-6.55-8.88-7.4-8.76S25.38,28.33,25.38,28.33Z"/><path class="cls-14" d="M27.53,28.09a4.18,4.18,0,0,0,3.58-2.93s0,.21-.06.54a4.29,4.29,0,0,0-.13-2.86,3.92,3.92,0,0,0-1-1.41,4.68,4.68,0,0,0,.19-1,1.83,1.83,0,0,0-1.32-2c-1.3-.49-2.24.86-2.23,1.86a4.39,4.39,0,0,0-3.8,2.32,3,3,0,0,0-1.46-.14,2.2,2.2,0,0,0-1.54,2.35,2.15,2.15,0,0,0,1.44,2.24,2.91,2.91,0,0,0,1.87.13A7.64,7.64,0,0,0,27.53,28.09Z"/><path class="cls-7" d="M25.11,28.71a4.55,4.55,0,0,0,5.94-3c.05-.33.06-.54.06-.54a4.18,4.18,0,0,1-3.58,2.93,7.64,7.64,0,0,1-4.44-.85A3.61,3.61,0,0,0,25.11,28.71Z"/><ellipse class="cls-13" cx="25.56" cy="23.2" rx="0.69" ry="0.7"/><ellipse class="cls-13" cx="27.38" cy="22.15" rx="0.69" ry="0.7"/><ellipse class="cls-15" cx="28.14" cy="24.92" rx="2.09" ry="1.71" transform="translate(-8.16 15.18) rotate(-26.51)"/><ellipse class="cls-2" cx="27.9" cy="23.79" rx="0.83" ry="0.62" transform="translate(-7.68 14.91) rotate(-26.44)"/><ellipse class="cls-2" cx="25.92" cy="23.23" rx="0.2" ry="0.23"/><ellipse class="cls-2" cx="27.73" cy="22.15" rx="0.2" ry="0.23"/><path class="cls-2" d="M29.87,25.09c-.29.6-.7.39-.91,0a3.28,3.28,0,0,0-.46-.71,0,0,0,0,0,0,0c.42.67.49,2.16-.72,1.89-.06,0-.08,0,0,.06a.87.87,0,0,0,1.18-.44,1.2,1.2,0,0,0,.12-.36.47.47,0,0,0,.32.18c.34,0,.55-.34.58-.62C29.94,25,29.89,25,29.87,25.09Z"/><path class="cls-15" d="M27.38,20.33s.34-1.51,1.38-1.21.62,1.87.62,1.87A6.24,6.24,0,0,0,27.38,20.33Z"/><path class="cls-15" d="M22.68,23.51S21,23.32,21,24.92c0,1.25,1.84,1.32,1.84,1.32A10.84,10.84,0,0,1,22.68,23.51Z"/><path class="cls-7" d="M26.25,30l1.34-.2a4.24,4.24,0,0,0,2.08-.94,1.72,1.72,0,0,1,1.7-.53,1.51,1.51,0,0,1,1.19,1,2.33,2.33,0,0,1-.51,2.54C31.56,32.51,27,31.77,26.25,30Z"/><path class="cls-14" d="M30.26,32.21a5.87,5.87,0,0,0,1.95-.7,3.14,3.14,0,0,0-.11-1.87c-.39-1.21-1.79-.44-3.09.06a5.87,5.87,0,0,1-2.88.17l.6,1.67A5.28,5.28,0,0,0,30.26,32.21Z"/><path class="cls-7" d="M31.48,32.57a2.11,2.11,0,0,0,.73-1.06,5.87,5.87,0,0,1-1.95.7,5.8,5.8,0,0,1-3.71-.7,4.51,4.51,0,0,0,.54,1.05A4.75,4.75,0,0,0,31.48,32.57Z"/><ellipse class="cls-15" cx="31.48" cy="30.54" rx="0.36" ry="1.06" transform="translate(-4.07 4.86) rotate(-8.28)"/><path class="cls-11" d="M36.68,31.3A9.05,9.05,0,0,0,32.06,35l-1.94,3.65,2.62,0Z"/><path class="cls-11" d="M42.05,34.15a9.05,9.05,0,0,1-.51,5.91l-1.94,3.65-1.49-2.15Z"/><path class="cls-16" d="M40.22,30.88A4.09,4.09,0,0,1,38.56,29a11,11,0,0,0-3.49,4l-.41.77a6.2,6.2,0,0,0,2.69,2.84,8.61,8.61,0,0,0,3.7.89l.55-1A10.93,10.93,0,0,0,43,31.26,4.79,4.79,0,0,1,40.22,30.88Z"/><path class="cls-17" d="M40.22,30.88a4.79,4.79,0,0,0,2.73.38,8.5,8.5,0,0,0-.79-3.75A8.5,8.5,0,0,0,38.56,29,4.09,4.09,0,0,0,40.22,30.88Z"/><path class="cls-17" d="M33.76,43.32,37,45.05l4-7.59a8.61,8.61,0,0,1-3.7-.89,6.2,6.2,0,0,1-2.69-2.84L30.5,41.59Z"/><ellipse class="cls-13" cx="38.11" cy="34.77" rx="1.24" ry="1.22" transform="translate(-10.47 52.13) rotate(-62.03)"/><ellipse class="cls-5" cx="38.1" cy="34.77" rx="0.86" ry="0.84" transform="translate(-10.47 52.12) rotate(-62.03)"/><ellipse class="cls-13" cx="36.2" cy="38.49" rx="1.55" ry="1.52" transform="translate(-14.77 52.41) rotate(-62.03)"/><ellipse class="cls-5" cx="36.19" cy="38.48" rx="1.08" ry="1.06" transform="translate(-14.77 52.39) rotate(-62.03)"/><ellipse class="cls-13" cx="39.15" cy="29.19" rx="0.21" ry="0.19" transform="translate(-9.21 36.03) rotate(-44.77)"/><ellipse class="cls-13" cx="42.39" cy="30.69" rx="0.19" ry="0.21" transform="translate(-2.12 3.16) rotate(-4.16)"/><ellipse class="cls-13" cx="40.41" cy="30.54" rx="0.21" ry="0.17" transform="translate(-2.47 57.5) rotate(-69.23)"/><polygon class="cls-8" points="38.36 61.91 38.36 42.28 54.03 33.22 54.03 52.82 38.36 61.91"/><polygon class="cls-9" points="38.36 61.91 38.36 42.28 22.68 33.22 22.68 52.82 38.36 61.91"/><polygon class="cls-13" points="35.65 52.78 35.65 45.85 25.38 39.92 25.38 46.83 35.65 52.78"/><path class="cls-2" d="M27.12,43.45l-.6-.35v-.55l1.68,1v.55l-.59-.35v2.34l-.49-.28Z"/><path class="cls-2" d="M28.34,45c0-.95.41-1.25,1-.92a2.33,2.33,0,0,1,1,2.06c0,.95-.4,1.28-1,.94A2.38,2.38,0,0,1,28.34,45Zm1.47.85a1.37,1.37,0,0,0-.48-1.2c-.29-.17-.48.07-.49.64a1.42,1.42,0,0,0,.48,1.23C29.62,46.74,29.81,46.48,29.81,45.89Z"/><path class="cls-2" d="M31,47l-.65-2.24.52.3.19.78.17.74h0c.06-.19.13-.35.19-.53l.19-.55.51.3-.66,1.48v1L31,48.06Z"/><path class="cls-2" d="M32.47,48.09a1.73,1.73,0,0,0,.53.61c.2.12.3.07.3-.1s-.12-.31-.31-.53l-.28-.32a1.6,1.6,0,0,1-.44-1c0-.48.33-.67.77-.41a2,2,0,0,1,.7.79l-.25.27a1.36,1.36,0,0,0-.45-.49c-.17-.1-.28-.06-.28.1s.14.32.33.54l.28.31a1.51,1.51,0,0,1,.43,1c0,.48-.3.72-.82.42a2.32,2.32,0,0,1-.8-.88Z"/><path class="cls-6" d="M57.91,33.65s-3,6.24-4.2,8-6.23,5.72-7.25,6.29a10.59,10.59,0,0,1-4.61,1.19c-1.23-.12-2.06.48-.87.93a10,10,0,0,0,2.33.55,14.76,14.76,0,0,0-3,3c-.69,1.09-1.27,3.1,1.39,2.52,2.15-.47,5.13-3.76,5.91-4.49,1.47-1.38,7.33-4.55,8.66-5.49C58.11,44.78,63.41,37,63.41,37S61.78,32.83,57.91,33.65Z"/><path class="cls-4" d="M66.44,21.89c-1.54-1.24-4.83,3-6.58,5.58A36,36,0,0,0,56.71,34s2.11,1.53,4,2.72A30.57,30.57,0,0,0,64,38.49S71.72,26.14,66.44,21.89Z"/><path class="cls-3" d="M12.92,62.32a43,43,0,0,0,5.41-4.37c2.06-2.37,2.45-4.6,2.89-5.16s0-2.79,0-4c0-1.44-.21-3-1.06-1.87-1.5,2,0,3.58-.36,4.75A11.72,11.72,0,0,1,17,55.38,48.85,48.85,0,0,1,11.44,59Z"/><path class="cls-17" d="M9,65.26S12.84,63.46,13.6,63s1.62-3.71.25-5c-.23-.22-1.22-1.38-1.22-1.38L8.08,58.65Z"/><path class="cls-16" d="M8.2,62.61c.25.08,3.43.92,4.72,3.33s-1.22,5.2-1.22,5.2L7.9,68.55Z"/><path class="cls-16" d="M6.39,66.91,6,60.79a5.77,5.77,0,0,0-3.13,2.77c-.75,1.92,0,5.34,0,5.34Z"/><path class="cls-6" d="M7.86,51c2.26.11,4.91.79,5.77,4.38C14.93,60.8,10.76,62,10.76,62V66.3H5.85L5.93,63Z"/><path class="cls-3" d="M10.76,62A2.66,2.66,0,0,0,9,63a11.06,11.06,0,0,0-.62,3.33l2.44-.54Z"/><path class="cls-1" d="M8.56,119.1c.47,1.11,1.55,1,3.73.23a18.76,18.76,0,0,0,4.9-2.5c1.38-1,1.39-1.15,1.57-1.84.25-1-1.11-1.35-3.49-.78-3.32.8-6.32,3-6.65,2.86C8.48,118,8.28,118.43,8.56,119.1Z"/><path class="cls-1" d="M.43,114.23c.47,1.11,1.55,1,3.73.23a18.76,18.76,0,0,0,4.9-2.5c1.38-1,1.39-1.15,1.57-1.84.25-1-1.11-1.35-3.49-.78-3.32.8-6.32,3-6.65,2.86C.34,113.12.15,113.56.43,114.23Z"/><path class="cls-2" d="M3.18,77.63A43.24,43.24,0,0,0,1,87.36c-.15,1.59.31,4.77,0,8.42-.71,8.38-1,15.48-1,15.48s.69,2.18,1.93,2.67c2.44,1,4.46-1.54,4.46-1.54l.71-20.82.5.29.49,23.77a4.08,4.08,0,0,0,2.08,2.76c1.49.75,3.25-.43,4.39-1.38,1.35-7.61.18-13.15.33-18.91.06-2.08.09-4.45.13-5,.29-4.7.16-11.15.07-13.54C12.2,80.07,3.18,77.63,3.18,77.63Z"/><path class="cls-2" d="M5.93,63c2.25-1,5-1.47,6.42-5.5,1-2.89.8-5.24-2-6.59-2.43-1.16-5.7.14-7.07,3.5C1.76,58,5,60.22,5.93,63Z"/><path class="cls-6" d="M12,65.26s4.17-1.42,5.63-2.65,3.38-2.57,5.25-4,3.68-2.28,4.63-3.88.48-3.43,1.11-3.09.78,1.57.51,2.4.72.58,3,.26,3.66.72,1.72,2.39S31.25,57.95,29.83,58s-2.93,1.57-4.09,2.91a60.49,60.49,0,0,1-6.1,5.54,32.19,32.19,0,0,1-5.76,3Z"/><path class="cls-16" d="M3.45,83.76c1.77,1.4,5.13,2.25,7.2,2.38s1.42-2.12,1.3-4-2.37-.15-3.87,0S5.45,82,5.47,80.88s1.23.13,4.08,0,2.45-3.42,3.11-4.71c.92-1.79.42-2.42-.71-1.67s-1.8,1.52-1.78,0,1.28-1.29,2.75-2.67A37,37,0,0,1,18,67.54c1.26-.81,2.36-2.84,3-4.12a4.45,4.45,0,0,0-1.89-2s-2.49.9-5.16,2.19a13.16,13.16,0,0,1-3.12,1.28S6.51,66.34,5.9,64c-1-.1-3-.05-3.37,2.33s.49,9.37-.8,15.8A14,14,0,0,0,3.45,83.76Z"/><path class="cls-17" d="M7.48,88.19c3.11,1.31,6.3.73,7.71-.77.64-6.75-1.15-15-.4-15.92,1.53-2,5.69-3.31,6.08-5.2a3.67,3.67,0,0,0,.06-2.88c-.6,1.28-1.7,3.31-3,4.12a37,37,0,0,0-5.06,4.35c-1.47,1.38-2.74,1.19-2.75,2.67s.66.71,1.78,0,1.63-.12.71,1.67c-.66,1.29-.27,4.58-3.11,4.71s-4.06-1.12-4.08,0,1.11,1.38,2.61,1.25,3.75-1.82,3.88,0,.78,4.1-1.3,4-5.44-1-7.2-2.37A14,14,0,0,1,1.74,82.1l0,.26C1.69,84.76,2.86,86.24,7.48,88.19Z"/></g></g></svg>