<svg xmlns="http://www.w3.org/2000/svg" viewBox="0 0 92.84 130.03"><defs><style>.cls-1{fill:#3a3a3a;}.cls-2{fill:#4d4d4d;}.cls-3{fill:#dba763;}.cls-4{fill:#e8b679;}.cls-5{fill:#ffe1c0;}.cls-6{fill:#ffa08d;}.cls-7{fill:red;}.cls-8{fill:#ffc5b3;}.cls-9{fill:#a02d12;}.cls-10{fill:#d30505;}.cls-11{fill:#bf4928;}.cls-12{fill:#a3361d;}.cls-13{fill:#d35933;}.cls-14{fill:#ea7554;}.cls-15{fill:#fff;}.cls-16{fill:#996c36;}.cls-17{fill:#ffc200;}.cls-18{fill:#eaad00;}.cls-19{fill:#ef8265;}.cls-20{fill:#1dbca5;}.cls-21{fill:#6d6d6d;}</style></defs><title>Ресурс 16</title><g id="Слой_2" data-name="Слой 2"><g id="Layer_1" data-name="Layer 1"><polygon class="cls-1" points="61.76 92.59 63.01 91.87 63.01 65.03 61.76 65.75 61.76 92.59"/><polygon class="cls-2" points="61.76 92.59 60.5 91.87 60.5 65.03 61.76 65.75 61.76 92.59"/><polygon class="cls-1" points="73.46 65.15 73.46 85.84 74.72 85.12 74.72 65.15 73.46 65.15"/><polygon class="cls-2" points="72.21 65.15 72.21 85.12 73.46 85.84 73.46 65.15 72.21 65.15"/><polygon class="cls-1" points="47.43 64.11 47.43 84.41 48.69 83.68 48.69 64.11 47.43 64.11"/><polygon class="cls-2" points="46.17 64.11 46.17 83.68 47.43 84.41 47.43 64.11 46.17 64.11"/><polygon class="cls-1" points="59.14 60.15 59.14 77.66 60.39 76.93 60.39 60.15 59.14 60.15"/><polygon class="cls-2" points="57.88 60.15 57.88 76.93 59.14 77.66 59.14 60.15 57.88 60.15"/><polygon class="cls-3" points="61.33 74.29 61.33 72.07 74.72 64.41 74.72 66.63 61.33 74.29"/><polygon class="cls-4" points="61.33 74.29 61.33 72.07 46.17 63.3 46.17 65.52 61.33 74.29"/><polygon class="cls-5" points="46.17 63.3 61.34 72.07 74.72 64.41 59.52 55.62 46.17 63.3"/><path class="cls-6" d="M46.17,56.11S41.69,59.86,42,63.82c.18,2.16-.08,3.13.26,5.81.32,2.53.5,12.65.35,16s-2.34,6.33-3.16,7.5,1.51,3.17,3.43,1.5,2.13-2,3.19-2.5,1.95-2.83,1.25-5.5,0-7.83,1.05-12.33a35.84,35.84,0,0,0,.55-8.5c0-1.66,6.1-7,6.33-7.5C55.84,56.94,46.17,56.11,46.17,56.11Z"/><path class="cls-7" d="M39.47,93.11a33.9,33.9,0,0,0-3.15,2.65c-.8.88,1.47,2.35,3.74,1.68s4.19-2.68,6-4.17,2.3-2,2.3-3.77a3.48,3.48,0,0,0-.86-1.84s-.73,3.57-3.34,5S40.7,94.12,39.47,93.11Z"/><path class="cls-8" d="M50.11,61.94a6.41,6.41,0,0,0-1.72,5.5,29.23,29.23,0,0,1,.76,6c0,2.55.5,13.08.35,16.42s-2.34,6.33-3.16,7.5,1.51,3.17,3.43,1.5,2.13-2,3.19-2.5,1.95-2.83,1.25-5.5,0-7.83,1.05-12.33S55,68,55.88,66.86c1.88-2.25,5.81-4.21,5.94-6.49.17-2.84-2.67-7.51-5.47-6.24C55.42,54.56,53.61,58.44,50.11,61.94Z"/><path class="cls-7" d="M46.34,97.36A33.9,33.9,0,0,0,43.19,100c-.8.88,1.47,2.35,3.74,1.68s4.19-2.68,6-4.17,2.3-2,2.3-3.77a3.48,3.48,0,0,0-.86-1.84s-.73,3.57-3.34,5S47.58,98.37,46.34,97.36Z"/><path class="cls-1" d="M70.38,45.46s2.06,6.6-.44,11.11c-2.06,3.72-12.81,9.2-12.81,9.2a11.13,11.13,0,0,0-6.44-6.59,54.45,54.45,0,0,0-5.92-1.68L55.88,43.36A11.18,11.18,0,0,0,70.38,45.46Z"/><path class="cls-9" d="M58,11.07a13.12,13.12,0,0,0,0,4,11.16,11.16,0,0,0,.86,2.66l5.3-2.16Z"/><path class="cls-10" d="M63.07,17.78a5.91,5.91,0,0,0-3.72.2c-2.05,1.12-5.89,5.36-8.17,7.95a7,7,0,0,1,3.26,4.37,88.38,88.38,0,0,0,7-6.19C62.25,23,62.14,18.72,63.07,17.78Z"/><path class="cls-7" d="M74.63,26.63c-.35-1.73-5.39-5.56-5.39-5.56L65.14,24a26.26,26.26,0,0,0-2.91,2.78h0a22.28,22.28,0,0,1,1.52-5.65,10.56,10.56,0,0,0,0-3.44s-.4-.12-1-.26c-.94.94-2.81,3.46-3.8,4.5S54.27,26,55.1,29.44a27.77,27.77,0,0,0,1,3.17c.53,1.42.36,4.07.22,5.5A35.89,35.89,0,0,1,54.44,44s3.58,4.58,7.66,4.6a13.55,13.55,0,0,0,8.29-3.17s-.79-7.24-.49-10.2C69.89,35.27,75.77,32.33,74.63,26.63Z"/><path class="cls-6" d="M63.4,18.07a18.2,18.2,0,0,1-.7,4.48,8.73,8.73,0,0,0-.84,4.65,25.89,25.89,0,0,0,3.6-2.9c1.14-1,4.14-2.92,4.14-2.92l-.1-8.7Z"/><path class="cls-8" d="M66.9,7.74a5.22,5.22,0,0,0-8.14,2.77c-1.74,4.94,2.72,11.1,5.1,10.05C65.2,20,68,17.9,68.79,15.3,69.68,12.38,68.4,8.88,66.9,7.74Z"/><path class="cls-11" d="M70.88,9.08a10.6,10.6,0,0,0-4-4c-2.76-1.14-4.65-.16-7.25,2.23a7.15,7.15,0,0,0-2.28,5.82s4,2.86,6.43,3.36a6.51,6.51,0,0,0,3.57-.88c.11,1.23.21,2.63.21,3.3a19,19,0,0,1-.43,3.27s3.62-.69,4.68-2.25S72.32,11.73,70.88,9.08Z"/><polygon class="cls-1" points="3.96 94.54 5.93 93.4 5.93 51.27 3.96 52.41 3.96 94.54"/><polygon class="cls-2" points="3.96 94.54 1.99 93.4 1.99 51.27 3.96 52.41 3.96 94.54"/><polygon class="cls-1" points="65.63 130.03 67.6 128.9 67.6 86.76 65.63 87.9 65.63 130.03"/><polygon class="cls-2" points="65.63 130.03 63.66 128.9 63.66 86.76 65.63 87.9 65.63 130.03"/><polygon class="cls-1" points="27.82 80.82 29.79 79.68 29.79 37.55 27.82 38.69 27.82 80.82"/><polygon class="cls-2" points="27.82 80.82 25.85 79.68 25.85 37.55 27.82 38.69 27.82 80.82"/><polygon class="cls-1" points="89.48 116.23 91.45 115.09 91.45 72.96 89.48 74.1 89.48 116.23"/><polygon class="cls-2" points="89.48 116.23 87.51 115.09 87.51 72.96 89.48 74.1 89.48 116.23"/><polygon class="cls-11" points="65.63 78.53 2 41.79 2 52.31 65.63 89.04 65.63 78.53"/><polygon class="cls-12" points="65.63 89.04 65.63 78.53 91.38 64.16 91.38 74.08 65.63 89.04"/><polygon class="cls-13" points="65.63 80.82 0 42.76 0 39.65 65.63 77.71 65.63 80.82"/><polygon class="cls-11" points="65.63 77.71 92.84 61.99 92.84 65.1 65.63 80.82 65.63 77.71"/><polygon class="cls-14" points="0 39.65 27.21 23.9 92.84 61.99 65.63 77.71 0 39.65"/><polygon class="cls-15" points="44.16 53.2 32.81 46.65 48.5 38.64 58.91 44.68 44.16 53.2"/><path class="cls-8" d="M66.25,36.73S64,40.91,63.13,42.08s-7.53,2.4-9.09,1.6c-2.8-1.44-4.59-1.29-6.09-.79s-1.9,1.8,1.5,2.72a61.59,61.59,0,0,0,7.91,1.93c2.13.25,6.25-.41,7.52-.29s6-7.6,6-7.6S69.38,36,66.25,36.73Z"/><path class="cls-10" d="M74.17,25.71c-.4-.58-3.2,1-5.09,4.27a24,24,0,0,0-3,7.07s2.26-.93,4.58,2.92c2-2.86,3.31-4.14,4.29-6.7C76.15,30.11,76.23,28.7,74.17,25.71Z"/><path class="cls-6" d="M51.18,25.92s-3.74,4.23-4.49,5a11.85,11.85,0,0,0-1.92,2.69c-.74,1.38-1,3.61-1.42,4.92a6.37,6.37,0,0,0,.73,4.29c.58,1.1,4,.23,3.94-1.52,0-1.33-1.37-1.82-1.18-2.19,1.25-2.46,2.5-4.72,2.5-4.72L55,30A6.58,6.58,0,0,0,51.18,25.92Z"/><polygon class="cls-3" points="21.82 49.41 21.82 29.95 37.5 22.13 37.5 40.49 21.82 49.41"/><polygon class="cls-4" points="21.82 49.41 21.82 29.95 6.14 22.13 6.14 40.49 21.82 49.41"/><polygon class="cls-16" points="6.14 20.89 21.82 29.95 37.5 20.89 21.83 11.82 6.14 20.89"/><path class="cls-17" d="M26.3,15.29c-.24-.16-.57-.32-.68-.57l-.4-.19a.45.45,0,0,1-.58.12,1.77,1.77,0,0,1-.91-.71l-.25-.11,0,.07a1,1,0,0,1-.24,1.19c-.48.38-.91,0-1.2-.43A.87.87,0,0,1,22,13.5a.82.82,0,0,1,.8-.15,3,3,0,0,1-.41-.41,3.44,3.44,0,0,1-.18-.3.94.94,0,0,1-.39-.29c-.26-.31-.23-.53-.06-.69a6,6,0,0,1-.24-1.07.83.83,0,0,1-.07-.18.79.79,0,0,1,0-.37,10.47,10.47,0,0,1,.09-2A1.53,1.53,0,0,1,21,7.78a1.14,1.14,0,0,1-.33-1.72,8.53,8.53,0,0,1,1.27-1.12c0-.31,0-.61,0-.92A3.13,3.13,0,0,0,21,2.31a3.27,3.27,0,0,0,.85-1.16C22.06.36,21.78,0,21,0c-.5,0-1,1.05-1.33,1.47A1.82,1.82,0,0,0,19.12.39c-.36-.33-.92-.54-1.28-.1s-.09,1.33.48,1.84a5,5,0,0,0-2.78,1.29,3,3,0,0,0-1,2.19A2.29,2.29,0,0,0,17.35,6a7,7,0,0,0,2.56-1.6,3.87,3.87,0,0,1-.79,1.52l.12-.09a11.24,11.24,0,0,0,.57,6.62,5,5,0,0,1,.72,2.4,27.18,27.18,0,0,0,.06,3.37c.05.76.6.27,1.41.61a8.11,8.11,0,0,0,3.21.36A13,13,0,0,0,28.12,19a4.73,4.73,0,0,0-1.22-3.38A1.6,1.6,0,0,1,26.3,15.29Zm-6.55-4.36c-.21-.29,0-.64-.06-1,0-.92.41-1,.75-1a.45.45,0,0,1,.5.35c0,.15-.1.29-.12.44s.11.42.13.65C21,11,20.18,11.54,19.75,10.93Zm4,5.41c-.16-.35.45-.92,1-.88s1,.64.89.89A1.21,1.21,0,0,1,23.78,16.34Z"/><path class="cls-18" d="M17.35,6a2.29,2.29,0,0,1-2.79-.37,1.69,1.69,0,0,0,.22.73c.9,1.56,2.88.64,4.35-.43a3.87,3.87,0,0,0,.79-1.52A7,7,0,0,1,17.35,6Z"/><path class="cls-18" d="M22.8,13.35a3.55,3.55,0,0,0,.68.46A1.11,1.11,0,0,0,22.8,13.35Z"/><path class="cls-18" d="M25.61,14.39a1.44,1.44,0,0,1,.48-.68l-.46-.19-.34-.15a1.77,1.77,0,0,1,.09.81.73.73,0,0,1-.15.35l.4.19A.48.48,0,0,1,25.61,14.39Z"/><path class="cls-18" d="M22.71,11.34c0-.08-.08-.16-.12-.25a.82.82,0,0,1-1.07-.49,6,6,0,0,0,.24,1.07A1.77,1.77,0,0,1,22.71,11.34Z"/><path class="cls-18" d="M28.05,14.86a3.34,3.34,0,0,0-.75-.57c.13.38.34.76,0,1.12a.45.45,0,0,1-.44.17A4.73,4.73,0,0,1,28.12,19a1.52,1.52,0,0,0,.54-.25C29.64,17.9,28.75,15.61,28.05,14.86Z"/><path class="cls-18" d="M22.8,13.35a1.11,1.11,0,0,1,.68.46l.25.11a.75.75,0,0,1-.09-.33,2,2,0,0,1,.32-.94,4.73,4.73,0,0,1-.56-.46,1.1,1.1,0,0,1-1.19.44,3.44,3.44,0,0,0,.18.3A3,3,0,0,0,22.8,13.35Z"/><path class="cls-18" d="M21.47,10a.86.86,0,0,1,.7-.51l0-.17A10.79,10.79,0,0,1,22,7.95a.72.72,0,0,1-.42.05A10.47,10.47,0,0,0,21.47,10Z"/><path class="cls-1" d="M20.67,6.06A1.14,1.14,0,0,0,21,7.78a1,1,0,0,0,1,.17c-.05-1,0-2,0-3A8.53,8.53,0,0,0,20.67,6.06Z"/><path class="cls-1" d="M20.94,9.26a.45.45,0,0,0-.5-.35c-.34,0-.78.12-.75,1,0,.34-.15.69.06,1,.43.61,1.29.07,1.21-.58,0-.22-.17-.41-.13-.65S21,9.41,20.94,9.26Z"/><path class="cls-1" d="M21.44,10.41a.84.84,0,0,0,1.14.68,6.89,6.89,0,0,1-.42-1.56C21.73,9.63,21.36,9.86,21.44,10.41Z"/><path class="cls-1" d="M22,13.5a.87.87,0,0,0,.07,1.14c.3.39.72.81,1.2.43a1,1,0,0,0,.24-1.19A1.06,1.06,0,0,0,22,13.5Z"/><path class="cls-1" d="M24.64,14.64c.41.17.67-.06.73-.47a1.77,1.77,0,0,0-.09-.81A8.53,8.53,0,0,1,24,12.66a2,2,0,0,0-.32.94C23.65,14.13,24.2,14.46,24.64,14.64Z"/><path class="cls-1" d="M21.81,12.35a1,1,0,0,0,1.59-.15,3.71,3.71,0,0,1-.65-.77l0-.1C22,11.41,21.26,11.68,21.81,12.35Z"/><path class="cls-1" d="M25.61,14.39c-.13.47.38.68.7.9s.71.49,1,.12.1-.74,0-1.12a8.87,8.87,0,0,0-1.21-.58A1.44,1.44,0,0,0,25.61,14.39Z"/><path class="cls-1" d="M24.81,15.45c-.57,0-1.18.53-1,.88a1.21,1.21,0,0,0,1.91,0C25.81,16.09,25.32,15.49,24.81,15.45Z"/><ellipse class="cls-15" cx="19.06" cy="3" rx="0.46" ry="0.52"/><ellipse class="cls-1" cx="18.91" cy="3.12" rx="0.16" ry="0.16"/><path class="cls-1" d="M35.65,17.85a6.64,6.64,0,0,1-11.86,5.09,6.64,6.64,0,1,0,11.86-5.09Z"/><path class="cls-15" d="M29.11,25.61a6.61,6.61,0,0,0,6.54-7.76,6.63,6.63,0,0,0-11.86,5.09A6.63,6.63,0,0,0,29.11,25.61Z"/><path class="cls-1" d="M35.75,22.24c-.3-1.29-.67-4.39-2.59-5.39s-3.31,3.07-3.84,5a16.31,16.31,0,0,0,0,5.29l-2.45-.94a9.85,9.85,0,0,1,1.92-7.45c1.6-2,3.21-3.58,4.32-2.92s3.56,4.07,3.56,4.07Z"/><path class="cls-1" d="M24.17,19.34a13.22,13.22,0,0,0,3.45-2,14.25,14.25,0,0,0,2.11-2.12,6.07,6.07,0,0,0-3.07,1A5.8,5.8,0,0,0,24.17,19.34Z"/><path class="cls-13" d="M19.36,15.79A5.87,5.87,0,0,0,21,14.51a3.14,3.14,0,0,0-.69-1.74c-.75-1-1.83.15-2.92,1a5.86,5.86,0,0,1-2.68,1.07l1.09,1.4A5.28,5.28,0,0,0,19.36,15.79Z"/><path class="cls-11" d="M20.63,15.75A2.11,2.11,0,0,0,21,14.51a5.87,5.87,0,0,1-1.63,1.27,5.28,5.28,0,0,1-3.57.48l.67.85S20,16.71,20.63,15.75Z"/><ellipse class="cls-19" cx="20.01" cy="13.83" rx="0.37" ry="1.07" transform="translate(-4.08 10.45) rotate(-26.66)"/><path class="cls-13" d="M8.85,16a40.46,40.46,0,0,0,1.1,5.92c.62,1.93,1.28,4.58,3.68,5.08s6.53-2.86,7.4-4.87-6.55-8.88-7.4-8.76S8.85,16,8.85,16Z"/><path class="cls-13" d="M11,15.76a4.18,4.18,0,0,0,3.58-2.93s0,.21-.06.54a4.29,4.29,0,0,0-.13-2.86,3.92,3.92,0,0,0-1-1.41,4.67,4.67,0,0,0,.19-1,1.83,1.83,0,0,0-1.32-2C11,5.65,10,7,10,8a4.39,4.39,0,0,0-3.8,2.32,3,3,0,0,0-1.46-.14,2.2,2.2,0,0,0-1.54,2.35,2.15,2.15,0,0,0,1.44,2.24,2.91,2.91,0,0,0,1.87.13A7.64,7.64,0,0,0,11,15.76Z"/><path class="cls-11" d="M8.57,16.37a4.55,4.55,0,0,0,5.94-3c.05-.33.06-.54.06-.54A4.18,4.18,0,0,1,11,15.76a7.64,7.64,0,0,1-4.44-.85A3.61,3.61,0,0,0,8.57,16.37Z"/><ellipse class="cls-15" cx="9.02" cy="10.86" rx="0.69" ry="0.7"/><ellipse class="cls-15" cx="10.85" cy="9.82" rx="0.69" ry="0.7"/><ellipse class="cls-19" cx="11.61" cy="12.59" rx="2.09" ry="1.71" transform="translate(-4.4 6.51) rotate(-26.51)"/><ellipse class="cls-1" cx="11.36" cy="11.46" rx="0.83" ry="0.62" transform="translate(-3.91 6.26) rotate(-26.44)"/><ellipse class="cls-1" cx="9.39" cy="10.89" rx="0.2" ry="0.23"/><ellipse class="cls-1" cx="11.2" cy="9.82" rx="0.2" ry="0.23"/><path class="cls-1" d="M13.34,12.76c-.29.6-.7.39-.91,0A3.28,3.28,0,0,0,12,12s0,0,0,0c.42.67.49,2.16-.72,1.89-.06,0-.08,0,0,.06a.87.87,0,0,0,1.18-.44,1.2,1.2,0,0,0,.12-.36.47.47,0,0,0,.32.18c.34,0,.55-.34.58-.62C13.4,12.7,13.36,12.71,13.34,12.76Z"/><path class="cls-19" d="M10.85,8s.34-1.51,1.38-1.21.62,1.87.62,1.87A6.24,6.24,0,0,0,10.85,8Z"/><path class="cls-19" d="M6.14,11.18S4.46,11,4.47,12.59c0,1.25,1.84,1.32,1.84,1.32A10.85,10.85,0,0,1,6.14,11.18Z"/><path class="cls-11" d="M9.72,17.64l1.34-.2a4.24,4.24,0,0,0,2.08-.94,1.72,1.72,0,0,1,1.7-.53A1.51,1.51,0,0,1,16,17a2.33,2.33,0,0,1-.51,2.54C15,20.18,10.42,19.44,9.72,17.64Z"/><path class="cls-13" d="M13.73,19.87a5.87,5.87,0,0,0,1.95-.7,3.14,3.14,0,0,0-.11-1.87c-.39-1.21-1.79-.44-3.09.06a5.87,5.87,0,0,1-2.88.17l.6,1.67A5.28,5.28,0,0,0,13.73,19.87Z"/><path class="cls-11" d="M14.94,20.24a2.11,2.11,0,0,0,.73-1.06,5.87,5.87,0,0,1-1.95.7,5.8,5.8,0,0,1-3.71-.7,4.51,4.51,0,0,0,.54,1.05A4.75,4.75,0,0,0,14.94,20.24Z"/><ellipse class="cls-19" cx="14.95" cy="18.21" rx="0.36" ry="1.06" transform="translate(-2.47 2.35) rotate(-8.29)"/><path class="cls-17" d="M20.14,19a9.05,9.05,0,0,0-4.62,3.73l-1.94,3.65,2.62,0Z"/><path class="cls-17" d="M25.51,21.82A9.05,9.05,0,0,1,25,27.73l-1.94,3.65-1.49-2.15Z"/><path class="cls-7" d="M23.69,18.54A4.09,4.09,0,0,1,22,16.64a11,11,0,0,0-3.49,4l-.41.77a6.2,6.2,0,0,0,2.69,2.84,8.61,8.61,0,0,0,3.7.89l.55-1a10.92,10.92,0,0,0,1.35-5.17A4.79,4.79,0,0,1,23.69,18.54Z"/><path class="cls-10" d="M23.69,18.54a4.79,4.79,0,0,0,2.73.38,8.5,8.5,0,0,0-.79-3.75A8.5,8.5,0,0,0,22,16.64,4.09,4.09,0,0,0,23.69,18.54Z"/><path class="cls-10" d="M17.23,31l3.26,1.73,4-7.59a8.61,8.61,0,0,1-3.7-.89,6.2,6.2,0,0,1-2.69-2.84L14,29.25Z"/><ellipse class="cls-15" cx="21.58" cy="22.44" rx="1.24" ry="1.22" transform="translate(-8.36 30.97) rotate(-62.03)"/><ellipse class="cls-20" cx="21.57" cy="22.43" rx="0.86" ry="0.84" transform="translate(-8.36 30.96) rotate(-62.03)"/><ellipse class="cls-15" cx="19.66" cy="26.15" rx="1.55" ry="1.52" transform="translate(-12.66 31.25) rotate(-62.03)"/><ellipse class="cls-20" cx="19.65" cy="26.15" rx="1.08" ry="1.06" transform="translate(-12.66 31.24) rotate(-62.03)"/><ellipse class="cls-15" cx="22.61" cy="16.86" rx="0.21" ry="0.19" transform="translate(-5.31 20.81) rotate(-44.77)"/><ellipse class="cls-15" cx="25.85" cy="18.36" rx="0.19" ry="0.21" transform="translate(-1.27 1.93) rotate(-4.18)"/><ellipse class="cls-15" cx="23.88" cy="18.21" rx="0.21" ry="0.17" transform="translate(-1.6 34.09) rotate(-69.25)"/><polygon class="cls-3" points="21.83 49.57 21.82 29.95 37.5 20.89 37.5 40.49 21.83 49.57"/><polygon class="cls-4" points="21.83 49.57 21.82 29.95 6.14 20.89 6.14 40.49 21.83 49.57"/><polygon class="cls-15" points="19.11 40.45 19.11 33.52 8.85 27.59 8.85 34.5 19.11 40.45"/><path class="cls-2" d="M10.59,31.11l-.6-.35v-.55l1.68,1v.55l-.59-.35v2.34l-.49-.28Z"/><path class="cls-2" d="M11.81,32.71c0-.95.41-1.25,1-.91a2.33,2.33,0,0,1,1,2.06c0,.95-.4,1.28-1,.94A2.38,2.38,0,0,1,11.81,32.71Zm1.47.85a1.37,1.37,0,0,0-.48-1.2c-.29-.17-.48.07-.49.64a1.42,1.42,0,0,0,.48,1.23C13.08,34.4,13.27,34.14,13.27,33.56Z"/><path class="cls-2" d="M14.49,34.7l-.65-2.24.52.3.19.78.17.74h0c.06-.19.13-.35.19-.53l.19-.55.51.3L15,35v1l-.49-.28Z"/><path class="cls-2" d="M15.94,35.76a1.73,1.73,0,0,0,.53.61c.2.12.3.07.3-.1s-.12-.31-.31-.53l-.28-.32a1.6,1.6,0,0,1-.44-1c0-.48.33-.67.77-.41a2,2,0,0,1,.7.79L17,35a1.36,1.36,0,0,0-.45-.49c-.17-.1-.28-.06-.28.1s.14.32.33.54l.28.31a1.51,1.51,0,0,1,.43,1c0,.48-.3.72-.82.42a2.32,2.32,0,0,1-.8-.88Z"/><polygon class="cls-3" points="66.26 75.86 66.25 66.33 81.53 57.5 81.53 67.03 66.26 75.86"/><polygon class="cls-4" points="66.26 75.86 66.25 66.33 48.42 56.02 48.42 65.55 66.26 75.86"/><polygon class="cls-5" points="48.42 56.02 66.25 66.33 81.53 57.5 63.7 47.2 48.42 56.02"/><polygon class="cls-15" points="49.84 59.15 49.84 64.44 64.61 72.96 64.61 67.67 49.84 59.15"/><polygon class="cls-2" points="77.67 64.73 72.39 67.8 72.39 62.78 77.67 59.71 77.67 64.73"/><polygon class="cls-21" points="77.67 59.71 59.86 49.42 54.57 52.47 72.39 62.79 77.67 59.71"/><path class="cls-2" d="M51.69,61.25a1.87,1.87,0,0,1,.64.75l-.27.25a1,1,0,0,0-.37-.43c-.3-.18-.54,0-.54.62a1.41,1.41,0,0,0,.52,1.25.32.32,0,0,0,.41,0l.27.55a.53.53,0,0,1-.69,0,2.38,2.38,0,0,1-1-2.08C50.65,61.21,51.13,60.92,51.69,61.25Z"/><path class="cls-2" d="M52.69,61.88l.49.29v2.34L54,65v.55l-1.35-.78Z"/><path class="cls-2" d="M54.18,64.18c0-.95.41-1.25,1-.91a2.33,2.33,0,0,1,1,2.06c0,.95-.4,1.28-1,.94A2.38,2.38,0,0,1,54.18,64.18Zm1.47.85a1.37,1.37,0,0,0-.48-1.2c-.29-.17-.48.07-.49.64a1.42,1.42,0,0,0,.48,1.23C55.46,65.88,55.64,65.62,55.64,65Z"/><path class="cls-2" d="M56.92,64.89l-.6-.35V64L58,65v.55l-.59-.35v2.34l-.49-.28Z"/><path class="cls-2" d="M58.34,65.16l.49.29v1.11l.75.44V65.89l.49.28v2.89l-.49-.28V67.57l-.75-.43v1.21l-.49-.29Z"/><path class="cls-2" d="M60.57,66.46l1.36.79v.55l-.87-.5v.58l.74.43v.55l-.74-.43v.67l.9.52v.55l-1.39-.81Z"/><path class="cls-2" d="M62.53,69.69a1.73,1.73,0,0,0,.53.61c.2.12.3.07.3-.1s-.12-.31-.31-.53l-.28-.32a1.6,1.6,0,0,1-.44-1c0-.48.33-.67.78-.41a2,2,0,0,1,.7.79l-.25.27a1.36,1.36,0,0,0-.45-.49c-.17-.1-.28-.06-.28.1s.14.32.33.54l.28.31a1.51,1.51,0,0,1,.43,1c0,.48-.3.72-.82.42a2.33,2.33,0,0,1-.8-.88Z"/><polygon class="cls-3" points="67.45 63.19 67.44 55.83 77.96 49.77 77.96 57.13 67.45 63.19"/><polygon class="cls-4" points="67.45 63.19 67.44 55.83 55.27 48.78 55.27 56.14 67.45 63.19"/><polygon class="cls-5" points="55.27 48.78 67.44 55.83 77.96 49.77 65.76 42.72 55.27 48.78"/><polygon class="cls-2" points="74.89 51.52 72.18 53.09 72.18 56.96 74.89 55.39 74.89 51.52"/><polygon class="cls-21" points="74.89 51.52 62.72 44.48 60 46.05 72.18 53.1 74.89 51.52"/><polygon class="cls-15" points="66.4 56.35 56.09 50.4 56.09 55.7 66.4 61.65 66.4 56.35"/><path class="cls-2" d="M56.73,53.77a1.72,1.72,0,0,0,.53.61c.2.12.3.07.3-.1s-.12-.31-.31-.53L57,53.42a1.6,1.6,0,0,1-.44-1c0-.48.33-.67.78-.41a2,2,0,0,1,.7.79l-.25.27a1.37,1.37,0,0,0-.45-.49c-.17-.1-.28-.06-.28.1s.14.32.33.54l.28.31a1.51,1.51,0,0,1,.43,1c0,.48-.3.72-.82.42a2.33,2.33,0,0,1-.8-.88Z"/><path class="cls-2" d="M58.33,54c0-.95.41-1.25,1-.91a2.33,2.33,0,0,1,1,2.06c0,.95-.4,1.28-1,.94A2.38,2.38,0,0,1,58.33,54Zm1.47.85a1.36,1.36,0,0,0-.48-1.2c-.29-.17-.48.07-.49.64a1.42,1.42,0,0,0,.48,1.23C59.6,55.74,59.79,55.48,59.79,54.9Z"/><path class="cls-2" d="M61.64,54.48a1.85,1.85,0,0,1,.64.75l-.27.25a1,1,0,0,0-.36-.43c-.3-.18-.54,0-.54.62a1.41,1.41,0,0,0,.52,1.25.32.32,0,0,0,.41,0l.27.55a.53.53,0,0,1-.69,0,2.38,2.38,0,0,1-1-2.08C60.6,54.44,61.08,54.16,61.64,54.48Z"/><path class="cls-2" d="M62.63,55.12l.49.29v1.19h0l.65-.81.54.31-.66.77.77,2.19-.54-.31-.52-1.53-.25.3v.78L62.63,58Z"/><path class="cls-2" d="M64.74,58.43a1.72,1.72,0,0,0,.53.61c.2.12.3.07.3-.1s-.12-.31-.31-.53L65,58.08a1.6,1.6,0,0,1-.44-1c0-.48.33-.67.78-.41a2,2,0,0,1,.7.79l-.25.27a1.36,1.36,0,0,0-.45-.49c-.17-.1-.28-.06-.28.1s.14.32.33.54l.27.31a1.51,1.51,0,0,1,.43,1c0,.48-.3.72-.82.42a2.33,2.33,0,0,1-.8-.88Z"/></g></g></svg>