<svg xmlns="http://www.w3.org/2000/svg" viewBox="0 0 92.84 145.01"><defs><style>.cls-1{fill:#ffa08d;}.cls-2{fill:red;}.cls-3{fill:#ffc5b3;}.cls-4{fill:#ffe7a4;}.cls-5{fill:#3a3a3a;}.cls-6{fill:#d30505;}.cls-7{fill:#4d4d4d;}.cls-8{fill:#bf4928;}.cls-9{fill:#a3361d;}.cls-10{fill:#d35933;}.cls-11{fill:#ea7554;}.cls-12{fill:#c1c1c1;}.cls-13{fill:#777;}</style></defs><title>Ресурс 4</title><g id="Слой_2" data-name="Слой 2"><g id="Layer_1" data-name="Layer 1"><path class="cls-1" d="M40.89,58s.53,4.88.46,7a28.66,28.66,0,0,0,.26,5.81c.32,2.53.5,12.65.35,16s-2.34,6.33-3.16,7.5,1.51,3.17,3.43,1.5,2.13-2,3.19-2.5,1.95-2.83,1.25-5.5,0-7.83,1.05-12.33.11-10.33.68-11.67S40.89,58,40.89,58Z"/><path class="cls-2" d="M38.8,94.3A33.89,33.89,0,0,0,35.65,97c-.8.88,1.47,2.35,3.74,1.68s4.19-2.68,6-4.17,2.3-2,2.3-3.77a3.48,3.48,0,0,0-.86-1.84s-.73,3.57-3.33,5S40,95.3,38.8,94.3Z"/><path class="cls-3" d="M47.77,62.21s0,4.88,0,7,.24,2.88.76,5.38S49,87.71,48.84,91s-2.34,6.33-3.16,7.5,1.51,3.17,3.43,1.5,2.13-2,3.19-2.5,1.95-2.83,1.25-5.5,0-7.83,1.05-12.33-.08-10.37.31-11.77c.95-3.44,3.09-8.71,1.19-10S47.77,62.21,47.77,62.21Z"/><path class="cls-2" d="M45.68,98.55a33.89,33.89,0,0,0-3.15,2.65c-.8.88,1.47,2.35,3.74,1.68s4.19-2.68,6-4.17,2.3-2,2.3-3.77a3.48,3.48,0,0,0-.86-1.84s-.73,3.57-3.33,5S46.91,99.55,45.68,98.55Z"/><path class="cls-4" d="M40.37,41.39s-.37,3.44-.67,7.89a96,96,0,0,0,.15,12s7.83,6.69,10.77,5.8a14.7,14.7,0,0,0,7.25-5s.72-12.48-1.19-20.74S40.75,37.15,40.37,41.39Z"/><path class="cls-5" d="M43.89,6.52a13.11,13.11,0,0,0,0,4,11.16,11.16,0,0,0,.86,2.66L50.06,11Z"/><path class="cls-6" d="M49,13.23a5.91,5.91,0,0,0-3.72.2c-2.05,1.12-5.89,5.36-8.17,7.95a7,7,0,0,1,3.26,4.37,88.36,88.36,0,0,0,7-6.19C48.18,18.4,48.06,14.16,49,13.23Z"/><path class="cls-2" d="M60.55,22.07c-.35-1.73-5.39-5.56-5.39-5.56l-4.09,2.94a26.25,26.25,0,0,0-2.91,2.78h0a22.28,22.28,0,0,1,1.52-5.65,10.56,10.56,0,0,0,0-3.44s-.4-.12-1-.26c-.94.94-2.81,3.46-3.8,4.5s-4.67,4.08-3.83,7.5a27.78,27.78,0,0,0,1,3.17c.53,1.42.36,4.07.22,5.5a35.89,35.89,0,0,1-1.92,5.93s3.58,4.58,7.66,4.6a13.55,13.55,0,0,0,8.29-3.17s-.79-7.24-.49-10.2C55.82,30.71,61.69,27.77,60.55,22.07Z"/><path class="cls-4" d="M49.65,25.12a11.79,11.79,0,0,1,3.85-5A19.36,19.36,0,0,1,57,18l1.05.94A27,27,0,0,0,54.67,21c-1.42,1.08-3.48,5-3.48,5Z"/><path class="cls-4" d="M42.91,21.65a12.81,12.81,0,0,1,4-5.26c2.67-1.83,3.69-1.95,3.69-1.95l1.07,1a20.55,20.55,0,0,0-3.9,1.83C45.58,18.7,44.3,22.1,44.3,22.1Z"/><path class="cls-1" d="M49.33,13.52a18.2,18.2,0,0,1-.7,4.48,8.74,8.74,0,0,0-.84,4.65,25.9,25.9,0,0,0,3.6-2.9c1.14-1,4.14-2.92,4.14-2.92l-.1-8.7Z"/><path class="cls-3" d="M52.83,3.19A5.22,5.22,0,0,0,44.69,6c-1.74,4.94,2.72,11.1,5.1,10.05,1.33-.59,4.14-2.67,4.92-5.27C55.61,7.82,54.33,4.32,52.83,3.19Z"/><path class="cls-5" d="M56.8,4.52a10.6,10.6,0,0,0-4-4C50-.66,48.1.31,45.51,2.7a7.15,7.15,0,0,0-2.28,5.82s4,2.86,6.43,3.36A6.51,6.51,0,0,0,53.23,11c.11,1.23.21,2.63.21,3.3A19,19,0,0,1,53,17.58s3.62-.69,4.68-2.25S58.25,7.18,56.8,4.52Z"/><path class="cls-4" d="M43.05,21.37,51.18,26a51.76,51.76,0,0,0-1.53,7.21c-.11,2.13.28,6.74,2,7.5s4.66-1.06,4.66-1.06l.38,1.75s-2.08,5.69-11.17,4.69c-2.46-.27-5.3-3-5.3-3S40.41,26.31,43.05,21.37Z"/><path class="cls-6" d="M60.1,21.16c-.4-.58-3.2,1-5.09,4.27a24,24,0,0,0-3,7.07s2.26-.93,4.58,2.92c2-2.86,3.31-4.14,4.29-6.7C62.08,25.55,62.15,24.14,60.1,21.16Z"/><polygon class="cls-5" points="3.96 109.52 5.93 108.38 5.93 66.25 3.96 67.38 3.96 109.52"/><polygon class="cls-7" points="3.96 109.52 1.99 108.38 1.99 66.25 3.96 67.38 3.96 109.52"/><polygon class="cls-5" points="65.63 145.01 67.6 143.87 67.6 101.74 65.63 102.88 65.63 145.01"/><polygon class="cls-7" points="65.63 145.01 63.66 143.87 63.66 101.74 65.63 102.88 65.63 145.01"/><polygon class="cls-5" points="27.82 95.8 29.79 94.66 29.79 52.53 27.82 53.67 27.82 95.8"/><polygon class="cls-7" points="27.82 95.8 25.85 94.66 25.85 52.53 27.82 53.67 27.82 95.8"/><polygon class="cls-5" points="89.48 131.21 91.45 130.07 91.45 87.94 89.48 89.08 89.48 131.21"/><polygon class="cls-7" points="89.48 131.21 87.51 130.07 87.51 87.94 89.48 89.08 89.48 131.21"/><polygon class="cls-8" points="65.63 93.51 2 56.77 2 67.28 65.63 104.02 65.63 93.51"/><polygon class="cls-9" points="65.63 104.02 65.63 93.51 91.38 79.14 91.38 89.05 65.63 104.02"/><polygon class="cls-10" points="65.63 95.8 0 57.73 0 54.62 65.63 92.69 65.63 95.8"/><polygon class="cls-8" points="65.63 92.69 92.84 76.97 92.84 80.08 65.63 95.8 65.63 92.69"/><polygon class="cls-11" points="0 54.62 27.21 38.88 92.84 76.97 65.63 92.69 0 54.62"/><path class="cls-12" d="M15.05,45.36V56.11h0c0,3.24,5.27,5.86,11.78,5.86s11.78-2.62,11.78-5.86h0V45.36Z"/><path class="cls-13" d="M26.83,43.13c5.23,0,9.66,1.7,11.2,4a3.29,3.29,0,0,0,.58-1.82c0-3.24-5.27-5.86-11.78-5.86s-11.78,2.62-11.78,5.86a3.3,3.3,0,0,0,.58,1.82C17.17,44.83,21.6,43.13,26.83,43.13Z"/><path class="cls-4" d="M26.83,51.22c5.23,0,9.66-1.7,11.2-4-1.54-2.35-6-4-11.2-4s-9.66,1.7-11.2,4C17.17,49.52,21.6,51.22,26.83,51.22Z"/><path class="cls-7" d="M19.92,32.07a11.55,11.55,0,0,1,3.54,4.51c.9,2.54,2.1,10.4,2.1,10.4l.94-.36s-.84-8.84-1.91-11.21c-1.17-2.57-1.8-3.32-3.5-4.22C19.92,30.57,18.67,30.93,19.92,32.07Z"/><path class="cls-1" d="M37.11,21.37s-3.74,4.23-4.49,5S27,32.06,24.33,34.88c-1.12,1.17-2,3-1.39,4.06s.57,1.71,2.3,1.44c2.07-.33,1.89-3.42,2.08-3.79,1.25-2.46,7.93-6.77,7.93-6.77l5.61-4.39A6.58,6.58,0,0,0,37.11,21.37Z"/><path class="cls-12" d="M31.25,36.81c0,.07,0,.14,0,.21a5.09,5.09,0,1,0,10.18,0c0-.07,0-.14,0-.21Z"/><path class="cls-13" d="M36.33,35.42c2.36,0,4.34.75,4.92,1.78a1.24,1.24,0,0,0,.17-.61c0-1.32-2.28-2.39-5.09-2.39s-5.09,1.07-5.09,2.39a1.24,1.24,0,0,0,.17.61C32,36.18,34,35.42,36.33,35.42Z"/><path class="cls-4" d="M36.33,39c2.36,0,4.34-.76,4.92-1.78-.57-1-2.56-1.78-4.92-1.78s-4.34.75-4.92,1.78C32,38.22,34,39,36.33,39Z"/><path class="cls-12" d="M44.13,57.2c0,.07,0,.14,0,.21a5.09,5.09,0,1,0,10.18,0c0-.07,0-.14,0-.21Z"/><path class="cls-13" d="M49.21,55.81c2.36,0,4.34.75,4.92,1.78A1.24,1.24,0,0,0,54.3,57c0-1.32-2.28-2.39-5.09-2.39S44.12,55.66,44.12,57a1.24,1.24,0,0,0,.17.61C44.87,56.56,46.85,55.81,49.21,55.81Z"/><path class="cls-4" d="M49.21,59.36c2.36,0,4.34-.76,4.92-1.78-.57-1-2.56-1.78-4.92-1.78s-4.34.75-4.92,1.78C44.87,58.61,46.85,59.36,49.21,59.36Z"/><path class="cls-12" d="M36.56,61.52c0,.07,0,.14,0,.21a5.09,5.09,0,1,0,10.18,0c0-.07,0-.14,0-.21Z"/><path class="cls-13" d="M41.64,60.13c2.36,0,4.34.75,4.92,1.78a1.24,1.24,0,0,0,.17-.61c0-1.32-2.28-2.39-5.09-2.39S36.55,60,36.55,61.3a1.24,1.24,0,0,0,.17.61C37.3,60.88,39.28,60.13,41.64,60.13Z"/><path class="cls-4" d="M41.64,63.68c2.36,0,4.34-.76,4.92-1.78-.57-1-2.56-1.78-4.92-1.78s-4.34.75-4.92,1.78C37.3,62.93,39.28,63.68,41.64,63.68Z"/><path class="cls-12" d="M28.87,66c0,.07,0,.14,0,.21a5.09,5.09,0,1,0,10.18,0c0-.07,0-.14,0-.21Z"/><path class="cls-13" d="M33.95,64.61c2.36,0,4.34.75,4.92,1.78a1.24,1.24,0,0,0,.17-.61c0-1.32-2.28-2.39-5.09-2.39s-5.09,1.07-5.09,2.39a1.24,1.24,0,0,0,.17.61C29.6,65.37,31.58,64.61,33.95,64.61Z"/><path class="cls-4" d="M33.95,68.17c2.36,0,4.34-.76,4.92-1.78-.57-1-2.56-1.78-4.92-1.78s-4.34.75-4.92,1.78C29.6,67.41,31.58,68.17,33.95,68.17Z"/><path class="cls-12" d="M52,61.75c0,.07,0,.14,0,.21a5.09,5.09,0,1,0,10.18,0c0-.07,0-.14,0-.21Z"/><path class="cls-13" d="M57.07,60.36c2.36,0,4.34.75,4.92,1.78a1.24,1.24,0,0,0,.17-.61c0-1.32-2.28-2.39-5.09-2.39S52,60.21,52,61.53a1.24,1.24,0,0,0,.17.61C52.73,61.12,54.71,60.36,57.07,60.36Z"/><path class="cls-4" d="M57.07,63.92c2.36,0,4.34-.76,4.92-1.78-.57-1-2.56-1.78-4.92-1.78s-4.34.75-4.92,1.78C52.73,63.16,54.71,63.92,57.07,63.92Z"/><path class="cls-12" d="M44.42,66.07c0,.07,0,.14,0,.21a5.09,5.09,0,1,0,10.18,0c0-.07,0-.14,0-.21Z"/><path class="cls-13" d="M49.5,64.68c2.36,0,4.34.76,4.92,1.78a1.24,1.24,0,0,0,.17-.61c0-1.32-2.28-2.39-5.09-2.39s-5.09,1.07-5.09,2.39a1.24,1.24,0,0,0,.17.61C45.15,65.44,47.13,64.68,49.5,64.68Z"/><path class="cls-4" d="M49.5,68.24c2.36,0,4.34-.75,4.92-1.78-.57-1-2.56-1.78-4.92-1.78s-4.34.76-4.92,1.78C45.15,67.48,47.13,68.24,49.5,68.24Z"/><path class="cls-12" d="M36.72,70.56c0,.07,0,.14,0,.21a5.09,5.09,0,1,0,10.18,0c0-.07,0-.14,0-.21Z"/><path class="cls-13" d="M41.8,69.17c2.36,0,4.34.75,4.92,1.78a1.24,1.24,0,0,0,.17-.61C46.9,69,44.62,68,41.8,68S36.71,69,36.71,70.34a1.24,1.24,0,0,0,.17.61C37.46,69.92,39.44,69.17,41.8,69.17Z"/><path class="cls-4" d="M41.8,72.72c2.36,0,4.34-.76,4.92-1.78-.57-1-2.56-1.78-4.92-1.78s-4.34.75-4.92,1.78C37.46,72,39.44,72.72,41.8,72.72Z"/><path class="cls-3" d="M52.18,32.17s-2.28,4.18-3.12,5.34-9.37,3.94-11,3.37c-3.05-1-7.69-2.69-7.2-1,.35,1.18.56,2.87,4,3.79s5.69.45,8.12.1c2.12-.31,5.76-.6,7.89-1,1.24-.26,6-7.6,6-7.6S55.31,31.43,52.18,32.17Z"/><path class="cls-12" d="M57.3,68.86V79.61h0c0,3.24,5.27,5.86,11.78,5.86s11.78-2.62,11.78-5.86h0V68.86Z"/><path class="cls-13" d="M69.08,66.63c5.23,0,9.66,1.7,11.2,4a3.29,3.29,0,0,0,.58-1.82c0-3.24-5.27-5.86-11.78-5.86S57.3,65.62,57.3,68.86a3.3,3.3,0,0,0,.58,1.82C59.42,68.33,63.85,66.63,69.08,66.63Z"/><path class="cls-8" d="M69.08,74.72c5.23,0,9.66-1.7,11.2-4-1.54-2.35-6-4-11.2-4s-9.66,1.7-11.2,4C59.42,73,63.85,74.72,69.08,74.72Z"/></g></g></svg>