<svg xmlns="http://www.w3.org/2000/svg" viewBox="0 0 70.4 127.68"><defs><style>.cls-1{fill:red;}.cls-2{fill:#3a3a3a;}.cls-3{fill:#d30505;}.cls-4{fill:#ffa08d;}.cls-5{fill:#ffc5b3;}.cls-6{fill:#9e9e9e;}.cls-7{fill:#c1c1c1;}.cls-8{fill:#dba763;}.cls-9{fill:#e8b679;}.cls-10{fill:#ffe1c0;}.cls-11{fill:#4d4d4d;}.cls-12{fill:#6d6d6d;}.cls-13{fill:#fff;}</style></defs><title>Ресурс 7</title><g id="Слой_2" data-name="Слой 2"><g id="Layer_1" data-name="Layer 1"><path class="cls-1" d="M9.56,95.09S8.33,96.43,6.68,98s-2,1.91-3.41,3.29c-.83.81-.15,1.55,1.43,1.49A28.27,28.27,0,0,0,11,101.45,31.82,31.82,0,0,0,15.66,99a3.11,3.11,0,0,0,1.39-1.76V94.77Z"/><path class="cls-1" d="M19.65,100.92s-1.23,1.34-2.88,2.95-2,1.91-3.41,3.29c-.83.81-.15,1.55,1.43,1.49a28.27,28.27,0,0,0,6.27-1.36,31.82,31.82,0,0,0,4.69-2.45,3.11,3.11,0,0,0,1.39-1.76V100.6Z"/><path class="cls-2" d="M31.45,53.23C32,44.14,27,39.36,27,39.36c.4-3.06-15.3,2-15.3,2S10.78,61.2,10.41,70C10,79.85,8.66,94.64,8.66,94.64s1.3,2,5,2c2.11,0,4.28-3,4.28-3l1.35-24.17,1.34-13.21s.34,11.43.34,17c0,5.14-2.17,26.7-2.17,26.7A6.16,6.16,0,0,0,24,102.81c3.92,0,5.25-2.54,5.25-2.54S29,86.1,29.69,75.79C30.17,68.18,31.18,57.4,31.45,53.23Z"/><path class="cls-3" d="M16.68,12.82s-2.88,0-5,3.9a73.19,73.19,0,0,0-3.27,6.95s.24,2.15,5.87,4.15C18.84,23.71,20.11,14.74,16.68,12.82Z"/><path class="cls-1" d="M16.53,14s-2.24,2.08-4.07,8.66c-1.12,4-1,23.45-1,23.45a15.14,15.14,0,0,0,11.15,4.6c5.07,0,7.52-1.21,8.43-3.13-.62-6.94,2.17-22.18,1.82-24.81s-6.62-7.66-6.62-7.66S20.9,12.3,16.53,14Z"/><path class="cls-4" d="M20.12,14.16l-.84,4.91s2.5,2.81,4.95.71S27,16.71,27,16.71L25.81,10Z"/><path class="cls-5" d="M23.57,2.65a5.67,5.67,0,0,0-8.85,3c-1.89,5.36,3,12.06,5.55,10.93,1.45-.64,4.49-2.9,5.35-5.73C26.59,7.68,25.19,3.89,23.57,2.65Z"/><path class="cls-2" d="M14.29,7.36A4.79,4.79,0,0,0,19,8.79a10.44,10.44,0,0,0,3.64-1.34l.43,2.84a2.49,2.49,0,0,0,.75-.27c0-1.12.45-1.47,1.06-1.14s.73,2,.73,2A5.82,5.82,0,0,0,27,5.62c-.44-2-3.14-5.94-6.9-5.59S14.17,2.86,13.7,5A2.64,2.64,0,0,0,14.29,7.36Z"/><path class="cls-3" d="M31,19.88c1.89.33,3.15,2,4.08,6.72A14.63,14.63,0,0,1,34.49,35c-1.83,1.24-6.89-.6-6.89-.6s-.27-4.39-.15-6.89C27.63,23.6,28.89,19.52,31,19.88Z"/><path class="cls-5" d="M8.43,23.66a58.46,58.46,0,0,1-2.88,6.78c-1,1.59-.67,4.19-.67,5.14s1.75,9.12,1.75,9.12L10,41.93V34.45L11.7,31l.22-4.21Z"/><polygon class="cls-6" points="1.29 34.54 10.61 39.93 14.26 52.45 4.94 47.05 1.29 34.54"/><polygon class="cls-6" points="0 35.27 1.29 34.54 2.51 36.28 1.29 38.19 0 35.27"/><polygon class="cls-6" points="14.26 52.45 12.97 53.18 11.26 51.2 12.76 49.99 14.26 52.45"/><polygon class="cls-7" points="0 35.27 9.32 40.66 12.97 53.18 3.65 47.78 0 35.27"/><path class="cls-5" d="M27.55,33.59s.52,5.73.62,6.52-3.71,1.4-6.54,2.66c-1.86.83-4.72,3.43-6.5,4.42,0,0-2.8-.8-3.63-1.07s-2.63-.84-3.13-.34-1,4,1.26,4.73a8.63,8.63,0,0,0,6,.28c3.3-.93,10.54-3.47,12.83-4,3.21-.77,3.68-1.59,4.24-2.82A28.5,28.5,0,0,0,35,33.27,21.48,21.48,0,0,1,27.55,33.59Z"/><polygon class="cls-8" points="46.74 127.68 46.74 98.08 70.39 84.41 70.39 113.97 46.74 127.68"/><polygon class="cls-9" points="46.74 127.68 46.74 98.08 23.08 84.41 23.08 113.97 46.74 127.68"/><polygon class="cls-10" points="23.08 84.41 46.74 98.08 70.39 84.41 46.74 70.74 23.08 84.41"/><polygon class="cls-11" points="61.59 98.1 56.32 101.16 56.32 92.52 61.59 89.46 61.59 98.1"/><polygon class="cls-12" points="61.59 89.46 37.98 75.8 32.69 78.86 56.32 92.53 61.59 89.46"/><polygon class="cls-13" points="42.88 103.08 42.88 110.99 26.39 101.3 26.39 93.39 42.88 103.08"/><polygon class="cls-8" points="46.75 95.53 46.74 79.23 70.4 65.55 70.4 81.82 46.75 95.53"/><polygon class="cls-9" points="46.75 95.53 46.74 79.23 23.09 65.55 23.09 81.82 46.75 95.53"/><polygon class="cls-10" points="23.09 65.55 46.74 79.22 70.4 65.55 46.75 51.88 23.09 65.55"/><polygon class="cls-11" points="61.6 79.25 56.33 82.31 56.33 73.67 61.6 70.6 61.6 79.25"/><polygon class="cls-12" points="61.6 70.6 37.98 56.95 32.7 60 56.33 73.68 61.6 70.6"/><polygon class="cls-13" points="42.98 81.53 42.98 88.03 26.5 78.6 26.5 72.08 42.98 81.53"/><polygon class="cls-8" points="47 75.02 47 65.49 62.27 56.66 62.27 66.2 47 75.02"/><polygon class="cls-9" points="47 75.02 47 65.49 29.16 55.19 29.16 64.71 47 75.02"/><polygon class="cls-10" points="29.16 55.19 47 65.49 62.27 56.66 44.45 46.36 29.16 55.19"/><polygon class="cls-13" points="44.93 66.44 44.93 71.73 31.41 63.83 31.41 58.53 44.93 66.44"/><polygon class="cls-11" points="58.41 63.9 53.13 66.96 53.13 61.94 58.41 58.88 58.41 63.9"/><polygon class="cls-12" points="58.41 58.88 40.6 48.58 35.31 51.63 53.13 61.95 58.41 58.88"/><polygon class="cls-8" points="45.76 60.19 45.76 52.83 56.27 46.77 56.27 54.13 45.76 60.19"/><polygon class="cls-9" points="45.76 60.19 45.76 52.83 33.58 45.78 33.58 53.14 45.76 60.19"/><polygon class="cls-10" points="33.58 45.78 45.76 52.83 56.27 46.77 44.07 39.72 33.58 45.78"/><polygon class="cls-11" points="53.2 48.52 50.5 50.09 50.5 53.96 53.2 52.39 53.2 48.52"/><polygon class="cls-12" points="53.2 48.52 41.03 41.48 38.31 43.05 50.5 50.1 53.2 48.52"/><path class="cls-11" d="M30.52,76.84l-.6-.35v-.55l1.68,1v.55L31,77.13v2.34l-.49-.28Z"/><path class="cls-11" d="M31.75,78.44c0-.95.41-1.25,1-.91a2.33,2.33,0,0,1,1,2.06c0,.95-.4,1.28-1,.94A2.38,2.38,0,0,1,31.75,78.44Zm1.47.85a1.37,1.37,0,0,0-.48-1.2c-.29-.17-.48.07-.49.64A1.42,1.42,0,0,0,32.73,80C33,80.13,33.21,79.87,33.21,79.29Z"/><path class="cls-11" d="M34.43,80.43l-.65-2.24.52.3.19.78.17.74h0c.06-.19.13-.35.19-.53l.19-.55.51.3-.66,1.48v1l-.49-.28Z"/><path class="cls-11" d="M35.88,81.49a1.73,1.73,0,0,0,.53.61c.2.12.3.07.3-.1s-.12-.31-.31-.53l-.28-.32a1.6,1.6,0,0,1-.44-1c0-.48.33-.67.77-.41a2,2,0,0,1,.7.79l-.25.27a1.36,1.36,0,0,0-.45-.49c-.17-.1-.28-.06-.28.1s.14.32.33.54l.28.31a1.51,1.51,0,0,1,.43,1c0,.48-.3.72-.82.42a2.32,2.32,0,0,1-.8-.88Z"/><path class="cls-11" d="M29.09,97.25a1.87,1.87,0,0,1,.64.75l-.27.25a1,1,0,0,0-.37-.43c-.3-.18-.54,0-.54.62a1.41,1.41,0,0,0,.52,1.25.32.32,0,0,0,.41,0l.27.55a.53.53,0,0,1-.69,0,2.38,2.38,0,0,1-1-2.08C28.06,97.2,28.53,96.92,29.09,97.25Z"/><path class="cls-11" d="M30.09,97.88l.49.29v2.34l.85.5v.55l-1.35-.78Z"/><path class="cls-11" d="M31.58,100.18c0-.95.41-1.25,1-.92a2.33,2.33,0,0,1,1,2.06c0,.95-.4,1.28-1,.94A2.38,2.38,0,0,1,31.58,100.18ZM33,101a1.37,1.37,0,0,0-.48-1.2c-.29-.17-.48.07-.49.64a1.42,1.42,0,0,0,.48,1.23C32.86,101.88,33,101.62,33,101Z"/><path class="cls-11" d="M34.32,100.89l-.6-.35V100l1.68,1v.55l-.59-.35v2.34l-.49-.28Z"/><path class="cls-11" d="M35.74,101.16l.49.29v1.11L37,103v-1.11l.49.28v2.89l-.49-.28v-1.21l-.75-.44v1.21l-.49-.29Z"/><path class="cls-11" d="M38,102.46l1.36.79v.55l-.87-.5v.58l.74.43v.55l-.74-.43v.67l.9.52v.55L38,105.36Z"/><path class="cls-11" d="M39.93,105.68a1.73,1.73,0,0,0,.53.61c.2.12.3.07.3-.1s-.12-.31-.31-.53l-.28-.32a1.6,1.6,0,0,1-.44-1c0-.48.33-.67.78-.41a2,2,0,0,1,.7.79l-.25.27a1.37,1.37,0,0,0-.45-.49c-.17-.1-.28-.06-.28.1s.14.32.33.54l.28.31a1.51,1.51,0,0,1,.43,1c0,.48-.3.72-.82.42a2.33,2.33,0,0,1-.8-.88Z"/><path class="cls-11" d="M33,62.93a1.73,1.73,0,0,0,.53.61c.2.12.3.07.3-.1s-.12-.31-.31-.53l-.28-.32a1.6,1.6,0,0,1-.44-1c0-.48.33-.67.78-.41a2,2,0,0,1,.7.79l-.25.27a1.37,1.37,0,0,0-.45-.49c-.17-.1-.28-.06-.28.1s.14.32.33.54l.28.31a1.51,1.51,0,0,1,.43,1c0,.48-.3.72-.82.42a2.33,2.33,0,0,1-.8-.89Z"/><path class="cls-11" d="M34.6,63.21c0-.95.41-1.25,1-.92a2.33,2.33,0,0,1,1,2.06c0,.95-.4,1.28-1,.94A2.38,2.38,0,0,1,34.6,63.21Zm1.47.85a1.37,1.37,0,0,0-.48-1.2c-.29-.17-.48.07-.49.64a1.42,1.42,0,0,0,.48,1.23C35.88,64.9,36.06,64.64,36.07,64.06Z"/><path class="cls-11" d="M37.91,63.64a1.85,1.85,0,0,1,.64.75l-.27.25a1,1,0,0,0-.36-.43c-.3-.18-.54,0-.54.62a1.41,1.41,0,0,0,.52,1.25.32.32,0,0,0,.41,0l.27.55a.53.53,0,0,1-.69,0,2.38,2.38,0,0,1-1-2.08C36.88,63.6,37.35,63.32,37.91,63.64Z"/><path class="cls-11" d="M38.91,64.27l.49.29v1.19h0l.65-.81.54.31-.66.77.77,2.19-.54-.31-.52-1.53-.25.3v.78l-.49-.29Z"/><path class="cls-11" d="M41,67.59a1.72,1.72,0,0,0,.53.61c.2.12.3.07.3-.1s-.12-.31-.31-.53l-.28-.32a1.6,1.6,0,0,1-.44-1c0-.48.33-.67.78-.41a2,2,0,0,1,.7.79l-.25.27a1.37,1.37,0,0,0-.45-.49c-.17-.1-.28-.06-.28.1s.14.32.33.54l.27.31a1.51,1.51,0,0,1,.43,1c0,.48-.3.72-.82.42a2.33,2.33,0,0,1-.8-.88Z"/></g></g></svg>