<svg xmlns="http://www.w3.org/2000/svg" viewBox="0 0 67.55 130.92"><defs><style>.cls-1{fill:red;}.cls-2{fill:#3a3a3a;}.cls-3{fill:#d30505;}.cls-4{fill:#ffa08d;}.cls-5{fill:#ffc5b3;}.cls-6{fill:#9e9e9e;}.cls-7{fill:#4d4d4d;}.cls-8{fill:#2d2d2d;}.cls-9{fill:#777;}.cls-10{fill:#c1c1c1;}.cls-11{fill:#bf4928;}.cls-12{fill:#d35933;}</style></defs><title>Ресурс 12</title><g id="Слой_2" data-name="Слой 2"><g id="Layer_1" data-name="Layer 1"><path class="cls-1" d="M43.43,95.09S42.2,96.43,40.55,98s-2,1.91-3.41,3.29c-.83.81-.15,1.55,1.43,1.49a28.27,28.27,0,0,0,6.27-1.36A31.82,31.82,0,0,0,49.53,99a3.11,3.11,0,0,0,1.39-1.76V94.77Z"/><path class="cls-1" d="M53.53,100.92s-1.23,1.34-2.88,2.95-2,1.91-3.41,3.29c-.83.81-.15,1.55,1.43,1.49a28.27,28.27,0,0,0,6.27-1.36,31.82,31.82,0,0,0,4.69-2.45A3.11,3.11,0,0,0,61,103.08V100.6Z"/><path class="cls-2" d="M65.32,53.23c.58-9.09-4.43-13.87-4.43-13.87.4-3.06-15.3,2-15.3,2S44.66,61.2,44.28,70c-.42,9.9-1.75,24.69-1.75,24.69s1.3,2,5,2c2.11,0,4.28-3,4.28-3l1.35-24.17,1.34-13.21s.34,11.43.34,17c0,5.14-2.17,26.7-2.17,26.7a6.16,6.16,0,0,0,5.25,2.88c3.92,0,5.25-2.54,5.25-2.54s-.24-14.17.41-24.48C64,68.18,65.05,57.4,65.32,53.23Z"/><path class="cls-3" d="M50.56,12.82s-2.88,0-5,3.9a73.19,73.19,0,0,0-3.27,6.95s.24,2.15,5.87,4.15C52.71,23.71,54,14.74,50.56,12.82Z"/><path class="cls-1" d="M50.41,14s-2.24,2.08-4.07,8.66c-1.12,4-1,23.45-1,23.45a15.14,15.14,0,0,0,11.15,4.6c5.07,0,7.52-1.21,8.43-3.13-.62-6.94,2.17-22.18,1.82-24.81s-6.62-7.66-6.62-7.66S54.78,12.3,50.41,14Z"/><path class="cls-4" d="M54,14.16l-.84,4.91s2.5,2.81,4.95.71,2.8-3.06,2.8-3.06L59.69,10Z"/><path class="cls-5" d="M57.44,2.65a5.67,5.67,0,0,0-8.85,3c-1.89,5.36,3,12.06,5.55,10.93,1.45-.64,4.49-2.9,5.35-5.73C60.46,7.68,59.07,3.89,57.44,2.65Z"/><path class="cls-2" d="M48.17,7.36a4.79,4.79,0,0,0,4.71,1.43,10.44,10.44,0,0,0,3.64-1.34L57,10.29A2.49,2.49,0,0,0,57.7,10c0-1.12.45-1.47,1.06-1.14s.73,2,.73,2a5.82,5.82,0,0,0,1.4-5.24C60.45,3.62,57.75-.33,54,0S48,2.86,47.57,5A2.64,2.64,0,0,0,48.17,7.36Z"/><path class="cls-6" d="M28.53,50.59V70.43L13.34,79.19a3.52,3.52,0,0,0-1.76,3v26.54h1.54V96.12l15.41-8.9v8.36h1.54v-45Zm-15.41,44V82.9a3.52,3.52,0,0,1,1.76-3L28.53,72V85.69Z"/><path class="cls-6" d="M12.72,105.52l-3.45,2a3.52,3.52,0,0,0-1.76,3v3.72H9.05v-3.07a3.52,3.52,0,0,1,1.76-3l1.91-1.1Z"/><polygon class="cls-6" points="26.31 101.39 14.23 108.37 14.23 109.9 26.31 102.92 26.31 101.39"/><path class="cls-2" d="M37.46,92.36c0,5.52-3.35,11.92-7.49,14.31-1.92,1.11-3.68,1.16-5,.33-1.53-.95-2.49-3-2.49-6,0-5.52,3.35-11.92,7.49-14.31S37.46,86.84,37.46,92.36Z"/><polygon class="cls-2" points="26.7 108.03 25.06 107.06 26.24 106.56 26.7 108.03"/><path class="cls-2" d="M34.6,86.16l1.88,1.09-1.31.35S34.6,86.16,34.6,86.16Z"/><path class="cls-7" d="M39,93.28c0,5.52-3.35,11.92-7.49,14.31S24,107.44,24,101.93,27.39,90,31.52,87.62,39,87.76,39,93.28Z"/><path class="cls-6" d="M33.09,96.7a3.76,3.76,0,0,1-1.57,3c-.87.5-1.57,0-1.57-1.19a3.76,3.76,0,0,1,1.57-3C32.39,95,33.09,95.54,33.09,96.7Z"/><path class="cls-2" d="M16.73,108.92c0,2.75-1.67,5.94-3.73,7.13s-3.73-.07-3.73-2.82,1.67-5.94,3.73-7.13S16.73,106.17,16.73,108.92Z"/><polygon class="cls-2" points="10.54 116.24 11.84 116.99 11.84 115.9 10.54 116.24"/><polygon class="cls-2" points="15.37 105.86 16.73 106.65 16.13 106.92 15.15 106 15.37 105.86"/><path class="cls-7" d="M18,109.63c0,2.75-1.67,5.94-3.73,7.13s-3.73-.07-3.73-2.82,1.67-5.94,3.73-7.13S18,106.88,18,109.63Z"/><path class="cls-6" d="M15.8,110.88a3.76,3.76,0,0,1-1.57,3c-.87.5-1.57,0-1.57-1.19a3.76,3.76,0,0,1,1.57-3C15.09,109.19,15.8,109.72,15.8,110.88Z"/><polygon class="cls-7" points="13.12 76.94 15.62 78.39 27.98 71.25 25.45 69.79 13.12 76.94"/><polygon class="cls-2" points="13.12 76.94 13.12 78.47 15.62 79.91 15.62 78.39 13.12 76.94"/><polygon class="cls-8" points="27.98 71.25 15.62 78.39 15.62 79.91 27.98 72.75 27.98 71.25"/><path class="cls-7" d="M32.25,44.33l-1.54.89A4.83,4.83,0,0,0,28.53,49v3.72a1.49,1.49,0,0,0,.9.3c.54,0,.64-.3.64-.3V49.64a3.52,3.52,0,0,1,1.76-3l1.91-1.1v-.31A1,1,0,0,0,32.25,44.33Z"/><path class="cls-4" d="M42.3,23.66s-1.77,8-3.39,9.53c-2,1.91-3.86,6.37-7.39,9.43-3.89,3.37-3,5.92-3,5.92l3-.47s0-2.27,3.54-4.52a33.13,33.13,0,0,0,7.24-6.73,47,47,0,0,0,3.07-4.72c.15-2.72.52-3.94.52-6.44A6.45,6.45,0,0,1,42.3,23.66Z"/><polygon class="cls-2" points="12.05 95.28 12.05 96.93 31.45 108.16 31.45 106.48 12.05 95.28"/><polygon class="cls-7" points="12.05 95.28 31.45 106.48 47.97 96.87 28.53 85.69 12.05 95.28"/><polygon class="cls-6" points="19.39 129.25 19.39 130.92 28.52 125.65 28.52 123.93 19.39 129.25"/><polygon class="cls-9" points="0 118.04 0 119.7 19.39 130.92 19.39 129.25 0 118.04"/><polygon class="cls-10" points="0 118.04 19.39 129.25 28.52 123.93 9.17 112.76 0 118.04"/><path class="cls-7" d="M8.07,113.91s-1.23,1.34-2.88,2.95-2,1.91-3.41,3.29c-.83.81-.15,1.55,1.43,1.49a28.27,28.27,0,0,0,6.27-1.36,31.82,31.82,0,0,0,4.69-2.45,3.11,3.11,0,0,0,1.39-1.76v-2.48Z"/><path class="cls-7" d="M18.17,119.74s-1.23,1.34-2.88,2.95-2,1.91-3.41,3.29c-.83.81-.15,1.55,1.43,1.49a28.27,28.27,0,0,0,6.27-1.36,31.82,31.82,0,0,0,4.69-2.45,3.11,3.11,0,0,0,1.39-1.76v-2.48Z"/><path class="cls-2" d="M28.16,81S15.49,89.92,13,91.57c-1.27.86-1.42,3.08-1.75,4.78s-2.5,13.09-3.69,17.15c1.64,1.15,5.74,5.24,7.07,4.42L16,117.1l3.29-18.38,9.42-5.12c-2.37,2-5,3.72-6.37,5.42-1,1.26-.8,3.09-1.05,4.75-.79,5.18-2.93,16-2.93,16a22.25,22.25,0,0,0,4.93,3.52,9.68,9.68,0,0,0,4.32.32l2.66-19.06S39,98.72,42.7,97.35c4.73-1.75,3.63-11.22,3.63-11.22Z"/><path class="cls-4" d="M24.12,66.33a78.82,78.82,0,0,0-2.74,9.24c-.36,2-.83,9.81-.83,11.14a19,19,0,0,0,1.14,4.56c.65,2,3.5,1.58,3.76-1.09s-1-3-1.25-4.5c-.11-.62.89-3.73,1.06-5.77a10.86,10.86,0,0,1,1.21-4.33c2.21-3.15,2.24-5.15,2.24-5.15S31.21,67.06,24.12,66.33Z"/><path class="cls-11" d="M32,56.19s-2.88,0-5,3.9A46.46,46.46,0,0,0,24,66.58,13.11,13.11,0,0,1,30.73,70C35.27,65.92,35.39,58.11,32,56.19Z"/><path class="cls-12" d="M31.81,57.39A14.83,14.83,0,0,0,28.16,68.1c.43,10.15-2.5,13-2.5,13s4,7.58,11.27,7.58c5.07,0,8.49-.62,9.4-2.55-.62-6.94,2-18.59,1.64-21.21s-6.42-6.43-6.42-6.43S36.18,55.67,31.81,57.39Z"/><path class="cls-5" d="M38.91,73.89a63.81,63.81,0,0,1-3,8.54c-.81,1.54-5,5.81-6.31,7.18-3,3.24-3.25,5.89-3.25,5.89A5,5,0,0,0,31,93.77c1.44-1.91,7.81-7.58,9.51-9.46s4.9-8.11,4.9-8.11Z"/><path class="cls-4" d="M34.52,57.65l-.84,4.91s2.5,2.81,4.95.71,2.8-3.06,2.8-3.06l-1.2-6.7Z"/><path class="cls-5" d="M38,46.14c-2.09-1.59-8.67-2.41-8.85,3-.21,6.31,3,12.06,5.55,10.93,1.45-.64,4.49-2.9,5.35-5.73C41,51.17,39.59,47.38,38,46.14Z"/><path class="cls-6" d="M28.16,49.91l1.17,2.68-.22-1.8a4.81,4.81,0,0,0,3.23,2,18.07,18.07,0,0,0,5.7-.21v1.7l.66-.54s-.29-1.92.84-1.54c.77.26.68,1.26.68,1.26a24.43,24.43,0,0,0,1.39-3.33A6.26,6.26,0,0,0,36,43.63C30.53,42.84,28.91,46.93,28.16,49.91Z"/><path class="cls-6" d="M48,61.77V81.62L32.79,90.38a3.52,3.52,0,0,0-1.76,3V120h1.54V107.31L48,98.41v8.36h1.54v-45Zm-15.41,44V94.08a3.52,3.52,0,0,1,1.76-3L48,83.15V96.87Z"/><path class="cls-6" d="M32.17,116.71l-3.45,2a3.52,3.52,0,0,0-1.76,3v3.72H28.5V122.4a3.52,3.52,0,0,1,1.76-3l1.91-1.1Z"/><polygon class="cls-6" points="45.76 112.58 33.67 119.55 33.67 121.09 45.76 114.11 45.76 112.58"/><path class="cls-2" d="M56.9,103.55c0,5.52-3.35,11.92-7.49,14.31-1.92,1.11-3.68,1.16-5,.33-1.53-.95-2.49-3-2.49-6,0-5.52,3.35-11.92,7.49-14.31S56.9,98,56.9,103.55Z"/><polygon class="cls-2" points="46.15 119.22 44.51 118.25 45.69 117.75 46.15 119.22"/><path class="cls-2" d="M54,97.35l1.88,1.09-1.31.35S54,97.35,54,97.35Z"/><path class="cls-7" d="M58.46,104.46c0,5.52-3.35,11.92-7.49,14.31s-7.49-.15-7.49-5.66S46.83,101.19,51,98.8,58.46,98.95,58.46,104.46Z"/><path class="cls-6" d="M52.54,107.88a3.76,3.76,0,0,1-1.57,3c-.87.5-1.57,0-1.57-1.19a3.76,3.76,0,0,1,1.57-3C51.84,106.2,52.54,106.73,52.54,107.88Z"/><path class="cls-2" d="M36.18,120.1c0,2.75-1.67,5.94-3.73,7.13s-3.73-.07-3.73-2.82,1.67-5.94,3.73-7.13S36.18,117.35,36.18,120.1Z"/><polygon class="cls-2" points="29.98 127.42 31.29 128.18 31.29 127.08 29.98 127.42"/><polygon class="cls-2" points="34.81 117.04 36.17 117.83 35.58 118.11 34.59 117.19 34.81 117.04"/><path class="cls-7" d="M37.41,120.82c0,2.75-1.67,5.94-3.73,7.13s-3.73-.07-3.73-2.82,1.67-5.94,3.73-7.13S37.41,118.07,37.41,120.82Z"/><path class="cls-6" d="M35.24,122.06a3.76,3.76,0,0,1-1.57,3c-.87.5-1.57,0-1.57-1.19a3.76,3.76,0,0,1,1.57-3C34.54,120.38,35.24,120.91,35.24,122.06Z"/><polygon class="cls-7" points="32.56 88.12 35.06 89.57 47.43 82.43 44.9 80.98 32.56 88.12"/><polygon class="cls-2" points="32.56 88.12 32.56 89.65 35.06 91.1 35.06 89.57 32.56 88.12"/><polygon class="cls-8" points="47.43 82.43 35.06 89.57 35.06 91.1 47.43 83.94 47.43 82.43"/><path class="cls-11" d="M46.49,62.13c1.66,1,2,3.48.93,8.15a24.17,24.17,0,0,1-2,5.93c-2.15.52-6.52-2.31-6.52-2.31s1.26-3.42,2.23-5.72C42.7,64.52,44.68,61.07,46.49,62.13Z"/><path class="cls-7" d="M51.7,55.7l-1.54.89A4.83,4.83,0,0,0,48,60.37v3.72a1.49,1.49,0,0,0,.9.3c.54,0,.64-.3.64-.3V61a3.52,3.52,0,0,1,1.76-3l1.91-1.1v-.31A1,1,0,0,0,51.7,55.7Z"/><path class="cls-5" d="M58.21,32.1S54,41.31,53,44.19a74,74,0,0,1-4.31,10.13c-.76,1.24-1.75,2.87-1.21,4.45a8.67,8.67,0,0,0,2.08,3A6.67,6.67,0,0,0,52,59.7a2.79,2.79,0,0,0,0-3.51c1.37-1.5,4.77-9.19,5.75-11.24C59.21,42,64,36,64,36Z"/><path class="cls-3" d="M65.64,20.56c1.68.93,2.32,2.93,1.66,7.68A14.63,14.63,0,0,1,64,36c-2.14.57-6.32-2.82-6.32-2.82s1.19-4.24,2.11-6.56C61.28,23,63.81,19.54,65.64,20.56Z"/></g></g></svg>