<svg xmlns="http://www.w3.org/2000/svg" viewBox="0 0 87.49 92"><defs><style>.cls-1{fill:#9e9e9e;}.cls-2{fill:#777;}.cls-3{fill:#c1c1c1;}.cls-4{fill:#d6d6d6;}.cls-5{fill:#fff;}.cls-6{fill:#1dbca5;}.cls-7{fill:#37d3b9;}.cls-8{fill:#11a58c;}</style></defs><title>Ресурс 14</title><g id="Слой_2" data-name="Слой 2"><g id="Layer_1" data-name="Layer 1"><polygon class="cls-1" points="45.54 92 2.97 67.4 2.97 35.48 45.54 60.08 45.54 92"/><polygon class="cls-2" points="84.27 37.7 45.54 60.08 45.54 92 84.27 69.62 84.27 37.7"/><polygon class="cls-3" points="45.54 61.96 0 35.65 0 30.85 45.54 57.17 45.54 61.96"/><polygon class="cls-1" points="45.54 57.17 87.49 32.94 87.49 37.73 45.54 61.96 45.54 57.17"/><polygon class="cls-4" points="0 30.85 41.93 6.59 87.49 32.94 45.54 57.17 0 30.85"/><polygon class="cls-2" points="30.83 24.53 32.62 23.5 57.41 37.85 55.59 38.9 30.83 24.53"/><path class="cls-5" d="M10.35,47.06l1,.58a4,4,0,0,1,1.78,3.75c0,1.88-.71,2.36-1.75,1.75l-1.05-.61Zm.95,5c.6.35,1,.13,1-1.18a2.34,2.34,0,0,0-1-2.3l-.15-.09V52Z"/><path class="cls-5" d="M13.63,51.68c0-1.79.67-2.43,1.62-1.87a4.25,4.25,0,0,1,1.6,3.75c0,1.79-.66,2.48-1.62,1.92A4.34,4.34,0,0,1,13.63,51.68Zm2.4,1.4a2.55,2.55,0,0,0-.78-2.2c-.48-.28-.79.2-.79,1.29a2.66,2.66,0,0,0,.78,2.25C15.72,54.69,16,54.17,16,53.08Z"/><path class="cls-5" d="M17.53,51.23l.82.48L19.27,55l.35,1.41h0c0-.6-.1-1.41-.1-2.06V52.4l.76.44,0,5.47-.82-.48-.92-3.27-.34-1.39h0c0,.63.1,1.39.1,2v1.94l-.77-.45Z"/><path class="cls-5" d="M22.8,58.47l-1.09-.63L21.49,59l-.82-.48,1.13-4.82,1,.56,1.1,6.12L23,59.9Zm-.16-1.06-.09-.55c-.1-.6-.19-1.3-.28-1.93h0c-.08.53-.18,1.11-.28,1.6l-.09.45Z"/><path class="cls-5" d="M24.73,56.46l-1-.57v-1l2.76,1.6v1l-1-.57v4.43l-.8-.46Z"/><path class="cls-5" d="M27.05,56.77l.81.47,0,5.47L27,62.24Z"/><path class="cls-5" d="M28.51,60.33c0-1.79.67-2.43,1.62-1.87a4.25,4.25,0,0,1,1.6,3.75c0,1.79-.66,2.48-1.62,1.92A4.34,4.34,0,0,1,28.51,60.33Zm2.4,1.4a2.55,2.55,0,0,0-.78-2.2c-.48-.28-.79.19-.79,1.29a2.66,2.66,0,0,0,.78,2.25C30.6,63.34,30.91,62.83,30.91,61.73Z"/><path class="cls-5" d="M32.41,59.88l.82.48.92,3.26L34.5,65h0c0-.6-.1-1.41-.1-2.06V61.05l.76.44,0,5.47-.82-.48-.92-3.27-.34-1.39h0c0,.63.1,1.39.1,2V65.8l-.77-.45Z"/><path class="cls-5" d="M36.25,66.05a2.78,2.78,0,0,0,.87,1.08c.33.19.5.09.5-.24s-.2-.57-.51-1l-.46-.57a3,3,0,0,1-.71-1.91c0-.91.53-1.32,1.27-.89A3.18,3.18,0,0,1,38.34,64l-.4.55a2.2,2.2,0,0,0-.74-.87c-.27-.16-.45-.08-.45.23s.23.59.54,1l.45.55a2.85,2.85,0,0,1,.7,1.89c0,.91-.5,1.41-1.34.92a3.71,3.71,0,0,1-1.32-1.56Z"/><ellipse class="cls-2" cx="27.54" cy="40.17" rx="3.29" ry="2.47"/><ellipse class="cls-1" cx="27.54" cy="39.59" rx="2.03" ry="1.53"/><ellipse class="cls-2" cx="27.95" cy="39.17" rx="0.48" ry="0.36"/><polygon class="cls-2" points="26.45 39.79 27.24 40.26 28.17 39.25 28.01 38.92 26.45 39.79"/><polygon class="cls-6" points="30.83 1.02 30.83 17.07 55.6 31.38 55.6 15.38 30.83 1.02"/><path class="cls-7" d="M53.92,26.58V18.71a6.83,6.83,0,0,1-2.05-3.44L34.5,5.2a1.57,1.57,0,0,1-2.2,1.06v7.82a6.55,6.55,0,0,1,2,3.08L52,27.36A1.51,1.51,0,0,1,53.92,26.58Z"/><path class="cls-6" d="M53.92,18.71V16.46l-2.05-1.19A6.83,6.83,0,0,0,53.92,18.71Z"/><path class="cls-6" d="M34.5,5.2l-2.2-1.27V6.27A1.57,1.57,0,0,0,34.5,5.2Z"/><path class="cls-6" d="M53.92,26.58a1.51,1.51,0,0,0-1.93.78l1.93,1.11Z"/><path class="cls-6" d="M32.31,14.09V16l2,1.19A6.55,6.55,0,0,0,32.31,14.09Z"/><polygon class="cls-8" points="55.6 15.38 55.6 31.38 57.39 30.34 57.39 14.34 55.6 15.38"/><polygon class="cls-7" points="30.83 1.02 32.6 0 57.39 14.34 55.6 15.38 30.83 1.02"/><path class="cls-8" d="M45.92,17.83c0,2.25-1.37,3.28-3.05,2.31a7.31,7.31,0,0,1-3.05-5.84c0-2.25,1.37-3.28,3.05-2.31A7.31,7.31,0,0,1,45.92,17.83Z"/><path class="cls-6" d="M45.23,17.44c0,1.74-1.06,2.54-2.37,1.79a5.67,5.67,0,0,1-2.37-4.52c0-1.74,1.06-2.54,2.37-1.79A5.67,5.67,0,0,1,45.23,17.44Z"/><path class="cls-8" d="M37.59,13c0,1-.59,1.41-1.31,1A3.13,3.13,0,0,1,35,11.54c0-1,.59-1.41,1.31-1A3.13,3.13,0,0,1,37.59,13Z"/><path class="cls-8" d="M51,20.71c0,1-.59,1.41-1.31,1a3.13,3.13,0,0,1-1.31-2.5c0-1,.59-1.41,1.31-1A3.13,3.13,0,0,1,51,20.71Z"/><polygon class="cls-8" points="50.75 15.31 50.75 15.95 34.98 6.81 34.98 6.18 50.75 15.31"/><polygon class="cls-8" points="50.75 25.33 50.75 25.97 34.98 16.83 34.98 16.2 50.75 25.33"/><path class="cls-5" d="M43.4,15.32a1.29,1.29,0,0,0-.45-.59c-.2-.12-.31-.06-.31.23,0,.61,1.1,1.2,1.1,2.42,0,.62-.22,1-.65.86v.67l-.4-.24V18a2.77,2.77,0,0,1-.73-.91l.27-.48a1.9,1.9,0,0,0,.6.72c.23.13.34,0,.34-.25,0-.66-1.1-1.29-1.1-2.45,0-.63.24-.93.64-.82v-.66l.4.24v.65a2.34,2.34,0,0,1,.62.89Z"/></g></g></svg>