<svg xmlns="http://www.w3.org/2000/svg" viewBox="0 0 36.07 108.41"><defs><style>.cls-1{fill:#d35933;}.cls-2{fill:#3a3a3a;}.cls-3{fill:#bf4928;}.cls-4{fill:#eaeaea;}.cls-5{fill:#ffa08d;}.cls-6{fill:#ffc5b3;}.cls-7{fill:#e8b679;}.cls-8{fill:#dba763;}.cls-9{fill:#ffe1c0;}</style></defs><title>Ресурс 3</title><g id="Слой_2" data-name="Слой 2"><g id="Layer_1" data-name="Layer 1"><path class="cls-1" d="M6.67,94.88a22.58,22.58,0,0,0-4.07,3c-1.52,1.49-1.94,4.8-.36,4.74a24.87,24.87,0,0,0,5.84-1.32,31.82,31.82,0,0,0,4.69-2.45A3.11,3.11,0,0,0,14.16,97V94Z"/><path class="cls-1" d="M16.82,100.72a22.58,22.58,0,0,0-4.07,3c-1.52,1.49-1.94,4.8-.36,4.74a24.87,24.87,0,0,0,5.84-1.32,31.82,31.82,0,0,0,4.69-2.45,3.11,3.11,0,0,0,1.39-1.76V100.4Z"/><path class="cls-2" d="M28.32,53.23c.58-9.09-4.43-13.87-4.43-13.87.4-3.06-15.3,2-15.3,2S7.66,61.2,7.28,70c-.42,9.9-1.75,24.69-1.75,24.69s1.3,2,5,2c.14,0,.52-1.21.52-1.21a5.88,5.88,0,0,1,.59,1c.14-.06.28-1,.78-.88,1.68.57,2.39-1.88,2.39-1.88l1.35-24.17,1.34-13.21s.34,11.43.34,17c0,5.14-2.17,26.7-2.17,26.7a6.18,6.18,0,0,0,3.28,2.57,3.05,3.05,0,0,0,.6-1s.71.67.62,1.29a6.65,6.65,0,0,0,.75,0,7.92,7.92,0,0,0,3.4-.54,7.64,7.64,0,0,0,.56-1.37,1.26,1.26,0,0,1,.42.67,4.39,4.39,0,0,0,.87-1.29s-.24-14.17.41-24.48C27,68.18,28.06,57.41,28.32,53.23Z"/><path class="cls-3" d="M13.56,12.82s-2.66.08-5,3.9c-4,6.62-5,12.05-5.83,14.14a19.49,19.49,0,0,0-1,5.1l7.58,2.31,2.85-11.73.15.13C16.87,22.55,17,14.74,13.56,12.82Z"/><path class="cls-4" d="M13.41,14s-2.24,2.08-4.07,8.66c-1.12,4-1,23.45-1,23.45a15.14,15.14,0,0,0,11.15,4.6c5.07,0,7.52-1.21,8.43-3.13-.62-6.94,2.17-22.18,1.82-24.81s-6.62-7.66-6.62-7.66S17.78,12.3,13.41,14Z"/><path class="cls-1" d="M16.15,15.29a10.33,10.33,0,0,0-3.32,4.45C12,22.29,10.1,36.95,9.89,39.68S9.3,58.81,9.3,58.81,6.3,56.06,6,54,7.52,25,9,20.57a17.4,17.4,0,0,1,4.88-7.11Z"/><path class="cls-1" d="M32.17,33.41c-.17-4.48,0-11.5-5.89-15.48A18.27,18.27,0,0,0,20,23.07c-1.63,2.26-3.66,9.46-4.07,13.22s-.59,26-.59,26a13.08,13.08,0,0,0,5.43,3.24,12.73,12.73,0,0,1,1.5-1.84A7.48,7.48,0,0,0,23.42,66,15.56,15.56,0,0,0,24,62.7s.69,1.36,1.08,2.15a7.91,7.91,0,0,0,4.68-4S32.34,37.89,32.17,33.41ZM24.06,60.34c-1.56-2.22-1-5.71-.06-8.12A23.56,23.56,0,0,0,24.8,57,4.34,4.34,0,0,1,24.06,60.34Z"/><path class="cls-5" d="M17,14.16l-.84,4.91s2.5,2.81,4.95.71,2.8-3.06,2.8-3.06L22.69,10Z"/><path class="cls-6" d="M20.44,2.65a5.67,5.67,0,0,0-8.85,3c-1.89,5.36,3,12.06,5.55,10.93,1.45-.64,4.49-2.9,5.35-5.73C23.46,7.69,22.07,3.89,20.44,2.65Z"/><polygon class="cls-7" points="1.74 27.25 1.74 45.94 21.04 57.09 21.04 38.43 1.74 27.25"/><path class="cls-2" d="M5.57,34.05l.63.37v3.71l-.63-.37Z"/><path class="cls-2" d="M7.73,35.31l.64.37L9.09,38l.27,1h0c0-.41-.08-1-.08-1.4V36.23l.6.35v3.71l-.64-.37-.72-2.27-.27-1h0c0,.43.08,1,.08,1.39v1.31L7.72,39Z"/><path class="cls-2" d="M10.56,37l1.74,1v.71L11.19,38v.75l.95.55V40l-.95-.55v.85l1.15.67v.71l-1.79-1Z"/><path class="cls-2" d="M12.88,38.31l1.74,1V40l-1.11-.65v.75l.95.55v.7l-.95-.55v.85l1.15.67v.71l-1.79-1Z"/><path class="cls-2" d="M15.21,39.66l.78.46a2.87,2.87,0,0,1,1.39,2.65c0,1.27-.55,1.56-1.37,1.08l-.82-.48ZM16,43.13c.47.27.79.15.79-.74A1.66,1.66,0,0,0,16,40.77l-.12-.07v2.36Z"/><path class="cls-2" d="M6.74,40.45l.63.37v1.43l1,.56V41.38l.63.36v3.71l-.63-.36V43.54l-1-.56v1.55l-.63-.37Z"/><path class="cls-2" d="M9.6,42.12l1.74,1v.71l-1.11-.65v.75l.95.55v.7l-.95-.55v.85l1.15.67v.71l-1.79-1Z"/><path class="cls-2" d="M11.93,43.47l.63.37v3l1.09.64v.71l-1.73-1Z"/><path class="cls-2" d="M14.13,44.75l1,.59a2,2,0,0,1,1.08,1.83c0,.87-.5,1-1.09.63l-.38-.22v1.26l-.63-.37Zm1,2.35c.35.2.51.09.51-.29A.89.89,0,0,0,15.1,46l-.35-.2V46.9Z"/><polygon class="cls-8" points="21.04 38.43 22.3 37.7 22.3 56.33 21.04 57.09 21.04 38.43"/><polygon class="cls-9" points="1.74 27.25 21.04 38.43 22.3 37.7 2.97 26.53 1.74 27.25"/><path class="cls-6" d="M27.9,33.62a18.65,18.65,0,0,0,2.83,6.07s-4.24,3.45-4.93,3.83a15.69,15.69,0,0,1-4,1.25c-2,.17-3.68.69-3.2,2.94.31,1.45,2.23,3.73,3.16,3.29s3.21-3.26,4.91-3.73c2-.55,5.19-1,6.76-2.17a7.49,7.49,0,0,0,2.42-2.33c.33-.8,0-1.7-.17-3.08-.5-3.59-1.23-7.45-1.23-7.45S28.52,31.94,27.9,33.62Z"/><path class="cls-3" d="M35.91,40.8c-.27-1.52-.36-7.51-2.77-13.84-1.7-4.49-3.23-6.45-5.15-6.38-2.09.08-2.18,4.35-1.63,8.27,1.07,7.6,3.87,10.5,3.87,10.5l-4.75,4s1.49.54,1.65,1.1c.27,1,.48,1.52.48,1.52l2.19-.87a10.4,10.4,0,0,0-1.43,2.26,9.93,9.93,0,0,0-.2,1.5s1.81-1.16,3-1.83a21.39,21.39,0,0,0,3.68-2.52C36,43.48,36.3,43,35.91,40.8Z"/><path class="cls-2" d="M24.9,12.11c.06-2.25.23-5.12-1-7.36C22.3,1.84,20-.26,17,0A7.08,7.08,0,0,0,10.77,4.4l0,0c-.8,1.5-.44,3.27-.23,4.7a2.38,2.38,0,0,1-.62,2.35.78.78,0,0,0,.84,0,1.77,1.77,0,0,0,.75-.87A4.94,4.94,0,0,1,11.85,8c.78,1.16,2.74,1,3.74,2A4.71,4.71,0,0,1,17,12.5a1.68,1.68,0,0,0,.6-1.62,15.49,15.49,0,0,1,0-1.74,10.71,10.71,0,0,1,1,2.32,10.46,10.46,0,0,1,0,2.82,4.28,4.28,0,0,0,1.28-2c.33-1.12.62-2,.62-2a17.89,17.89,0,0,0,.62,4c.46,1,1.17,2.44,2,2.44s.43.26,1.82.74l1.39.48A17.72,17.72,0,0,1,24.9,12.11Z"/><path class="cls-6" d="M1.74,32C-.2,32.48-.12,35.47.13,36a13.41,13.41,0,0,0,2.42,2.71C3.63,39.7,4,37.31,3.63,36A36.28,36.28,0,0,0,1.74,32Z"/><path class="cls-3" d="M9.9,97.73c-.76-.93-1.7.15-3,.57S4,99,4,99.79s1.13.35,2.44.6a3.6,3.6,0,0,0,3.09-.71C10.41,99,10.4,98.34,9.9,97.73Z"/><path class="cls-3" d="M3.16,98a2.22,2.22,0,0,0-.76,1.53c-.06.66.63.72.78.19s0-1.07.47-1.4S3.74,97.51,3.16,98Z"/><path class="cls-3" d="M12.74,105.07c-.44.21-.47,1,0,1.69a1.29,1.29,0,0,0,1.87.22c.56-.44.72-1-.11-1.18C13.89,105.67,13.87,104.53,12.74,105.07Z"/><path class="cls-3" d="M18.3,105.33c-.45.34-1.68.37-1.87.77s.22.22,1.12,0,1.44-.22,1.84-.59S19.26,104.61,18.3,105.33Z"/><path class="cls-3" d="M20.93,103.32c-.44.05-1.12.38-1.12.72s0,.12.41.36,1,.2,1.19-.17S21.74,103.23,20.93,103.32Z"/></g></g></svg>