<svg xmlns="http://www.w3.org/2000/svg" viewBox="0 0 115.39 92.62"><defs><style>.cls-1{fill:#ffc5b3;}.cls-2{fill:#ffa08d;}.cls-3{fill:#d30505;}.cls-4{fill:red;}</style></defs><title>Ресурс 11</title><g id="Слой_2" data-name="Слой 2"><g id="Layer_1" data-name="Layer 1"><path class="cls-1" d="M2.24,16.81C9.09,14.32,16,12.08,23,10c-2.54-3.63-4.53-6.31-6.26-7.68S14.05-.27,12.92.05,11.64,1.11,12,2.56C10.37.65,8.83-.07,7.92.29s-1,1.82-.82,3.09C6,1.11,4.28.29,3.38.84c-1.72,1-.27,3,.18,4.91C.26,3.74-.26,7.06.1,9.19A49.13,49.13,0,0,0,2.24,16.81Z"/><path class="cls-1" d="M42.34,31.27c-3.13-2.57-10.57-8.06-15.77-15.44C25.65,14.51,23.79,11.11,23,10c-6.49,2-14.39,4.52-20.76,6.84C5.56,26,11.52,36.64,15,40.7c4.67,5.43,17.92,17.86,17.92,22.86s2.26,23.59,2.26,23.59l20.58-11.9s.09-12.8.09-23.77C55.86,42.19,47.34,35.37,42.34,31.27Z"/><path class="cls-2" d="M0,8.19A60.31,60.31,0,0,0,4.17,23.1,83.18,83.18,0,0,0,15,40.7l3.87,1.25s-6.24-9.28-9.67-14.06A44.43,44.43,0,0,1,2,12.85,16.88,16.88,0,0,0,0,8.19Z"/><path class="cls-1" d="M40,57.43S37,61,33,61.1c-4.33.13-12.67-5-17.33-10S4.54,42.15,2,35.43C.33,31-.78,29.1.67,27.77S5.6,29.1,7.6,33.43s8.74,7,12.42,8.52C20.8,42.27,41,49.1,40,57.43Z"/><path class="cls-2" d="M0,29.2a66.09,66.09,0,0,0,2.61,6.69c1.78,3.92,6.31,7.17,10.69,11.92a33.81,33.81,0,0,0,10.94,8.08c2.62,1.25,10.95,3.09,10.95,8.42V87.14l-5.51-2.93V63.73c0-1.62-1.69-2.87-6.11-5.06a47.44,47.44,0,0,1-13-10.28C7.17,44.27-.07,38.45,0,29.2Z"/><path class="cls-2" d="M2.63,2.89S3.25,5,3.56,5.74a42.69,42.69,0,0,1,2.55,5.34c.69,2.13,2.25,6.81,3,7.94s6.81,9.08,6.81,9.08l1.17-.68S11.17,20.58,10,18.2,6.56,9.14,5.43,7.39A29.37,29.37,0,0,1,2.63,2.89Z"/><path class="cls-2" d="M7,2.14l.1,1.24a31.46,31.46,0,0,1,3.07,4.14c.69,1.38,2.56,5.69,3.56,7.62S20.8,25.27,20.8,25.27l.81-.46s-5.68-8.54-7.31-11.42S9.87,4.85,7,2.14Z"/><path class="cls-2" d="M11.85,1.71l.15.85a69.15,69.15,0,0,1,4.5,6.64c.61,1.44,9,13.27,9,13.27l.69-.37S18.92,11.17,16.92,8.41,11.85,1.71,11.85,1.71Z"/><path class="cls-2" d="M40.21,46.55C35.63,43,33.5,45,36.76,49.28c2.25,3,7.56,7.14,7.87,11.78a18.85,18.85,0,0,1-1.42,8.34l5.94-10S48.43,53,40.21,46.55Z"/><path class="cls-3" d="M58.57,18.15c-3.43-1.88-7,1-7.39,1.8-.71-2.48-2.32-7.47-7.17-10.32-6.52-3.83-8.79,7.51-7.33,14.62C39.32,37.16,46,44.59,51.11,50c0,0,10-4.4,12.94-14.21C66.64,27.17,62.67,20.4,58.57,18.15Z"/><polygon class="cls-3" points="48.68 20.92 53.15 18.33 52.14 19.55 49.5 21.38 48.68 20.92"/><polygon class="cls-3" points="35.72 11.74 39.94 9.28 41.72 11.52 36.53 12.2 35.72 11.74"/><path class="cls-3" d="M48.93,51.34,53,49l-2.45-.42S48.93,51.34,48.93,51.34Z"/><path class="cls-4" d="M54.4,20.57c-3.43-1.88-7,1-7.39,1.8-.71-2.48-2.32-7.47-7.17-10.32C33.31,8.23,31,19.56,32.51,26.67,35.15,39.58,41.85,47,46.94,52.41c0,0,10-4.4,12.94-14.21C62.48,29.59,58.5,22.82,54.4,20.57Z"/><path class="cls-1" d="M66.92,80.13v-9L45.51,65.59a9.24,9.24,0,0,0-2.35,7c.26,4.51,1,17.76,1,17.76l1.34,2.28Z"/><path class="cls-1" d="M40.67,65.59S50,48.95,68.07,50.48C74.42,51,84.92,55.75,91.92,57s13.72-2.52,20.62-1c4.21.94,3.12,3.75.71,3.31,2.25.53,2.61,3.82-2.17,3.33,2.37,1.91,0,3.68-4.67,3.29,1.63,1.5,1.49,2.41-1.47,3.5-2.4.88-4.9,5.13-26.4,6-4.72.19,7.23,2,6.67,2.29C82.34,79.43,73.3,79,62.92,76.21S40.67,65.59,40.67,65.59Z"/><path class="cls-1" d="M61.42,68.84l13.25,4.75s7.61-.21,9.12.38c2.59,1,3.24,3,1.42,3.79-2.08.9-6.3,2.09-6.3,2.09Z"/><path class="cls-2" d="M40,89.71V67.13c0-3,4-2.24,7.25-.25,2.19,1.34,6.23,5.81,12.59,7.66,3.44,1,10,2.79,14.25,3.58,4.1.76,11.09-.38,11.09-.38s-4.19,1.88-6.3,2.09A26,26,0,0,1,69,79.1C65.13,78,55.92,77.59,49.83,73.2c-1.12-.81-4.32-4.18-4.32-1.74V92.62Z"/><path class="cls-2" d="M68.67,70s3.81,1.83,4.59,2.23c1.33.68,7.31.29,9.5,1.18A7.74,7.74,0,0,1,85.53,75s8.1-.66,11.6-1.72a29,29,0,0,0,7.82-3.83s-1.19-.62-9.65,2.26c-1.81.62-10.24.31-11.17.19-4.17-.54-6.33-1.07-8.7-1.46A62.38,62.38,0,0,0,68.67,70Z"/><path class="cls-2" d="M82.38,66.35a29,29,0,0,0,6.55,1.36c2.87.13,9.3-1.62,11.41-1.94a14.3,14.3,0,0,1,6.09.19,10.45,10.45,0,0,0-3.66-1c-2.25-.25-9,1.44-10.84,1.73a16,16,0,0,1-5.67,0C85,66.35,83,66,83,66Z"/><path class="cls-2" d="M111.09,62.67a20.56,20.56,0,0,0-5.42-1,54.5,54.5,0,0,0-11,1.23,19.1,19.1,0,0,1-7.13.46l1-.55A32,32,0,0,0,95.19,62a60.82,60.82,0,0,1,9.76-1C108.49,61.37,110.23,61.61,111.09,62.67Z"/><path class="cls-2" d="M113.26,59.34a17.18,17.18,0,0,0-5.71-1.1c-1.39,0-7.4.8-8.87,1.1a49.71,49.71,0,0,1-5.79.94l1-.67s8.76-1.53,11.08-1.89a19.25,19.25,0,0,1,6.14,0C113.26,58.09,113.26,59.34,113.26,59.34Z"/><path class="cls-2" d="M46.73,57.95s3.68-1.15,9.78,1.88c4.33,2.15,7.82.21,2.92-2.78-4.75-2.89-8.12-2.36-8.12-2.36Z"/></g></g></svg>