<svg xmlns="http://www.w3.org/2000/svg" viewBox="0 0 71.35 75.33"><defs><style>.cls-1{fill:#1dbca5;}.cls-2{fill:#37d3b9;}.cls-3{fill:#11a58c;}.cls-4{fill:#fff;}</style></defs><title>Ресурс 13</title><g id="Слой_2" data-name="Слой 2"><g id="Layer_1" data-name="Layer 1"><polygon class="cls-1" points="14.89 2.18 14.89 36.28 67.53 66.7 67.53 32.68 14.89 2.18"/><path class="cls-2" d="M64,56.5V39.77a14.52,14.52,0,0,1-4.37-7.32L22.7,11.06A3.33,3.33,0,0,1,18,13.32V29.94a13.92,13.92,0,0,1,4.36,6.54L59.86,58.16A3.2,3.2,0,0,1,64,56.5Z"/><path class="cls-1" d="M64,39.77V35l-4.37-2.53A14.52,14.52,0,0,0,64,39.77Z"/><path class="cls-1" d="M22.7,11.06,18,8.35v5A3.33,3.33,0,0,0,22.7,11.06Z"/><path class="cls-1" d="M64,56.5a3.2,3.2,0,0,0-4.1,1.65L64,60.53Z"/><path class="cls-1" d="M18,29.94v4l4.36,2.52A13.92,13.92,0,0,0,18,29.94Z"/><polygon class="cls-3" points="67.53 32.68 67.53 66.7 71.35 64.48 71.35 30.47 67.53 32.68"/><polygon class="cls-2" points="14.89 2.18 18.64 0 71.35 30.47 67.53 32.68 14.89 2.18"/><path class="cls-3" d="M47,37.91c0,4.78-2.91,7-6.49,4.91S34,35.19,34,30.41s2.91-7,6.49-4.91S47,33.13,47,37.91Z"/><path class="cls-1" d="M45.5,37.06c0,3.71-2.25,5.41-5,3.8s-5-5.91-5-9.61,2.25-5.41,5-3.8S45.5,33.36,45.5,37.06Z"/><path class="cls-3" d="M29.27,27.73c0,2-1.25,3-2.78,2.1a6.66,6.66,0,0,1-2.78-5.31c0-2,1.25-3,2.78-2.1A6.66,6.66,0,0,1,29.27,27.73Z"/><path class="cls-3" d="M57.68,44c0,2-1.25,3-2.78,2.1a6.66,6.66,0,0,1-2.78-5.31c0-2,1.25-3,2.78-2.1A6.66,6.66,0,0,1,57.68,44Z"/><polygon class="cls-3" points="57.23 32.53 57.23 33.89 23.7 14.48 23.7 13.14 57.23 32.53"/><polygon class="cls-3" points="57.23 53.83 57.23 55.19 23.7 35.78 23.7 34.44 57.23 53.83"/><polygon class="cls-1" points="7.4 6.49 7.4 40.6 60.04 71.02 60.04 36.99 7.4 6.49"/><path class="cls-2" d="M56.46,60.82V44.08a14.52,14.52,0,0,1-4.37-7.32L15.21,15.38a3.33,3.33,0,0,1-4.67,2.26V34.26a13.92,13.92,0,0,1,4.36,6.54L52.37,62.47A3.2,3.2,0,0,1,56.46,60.82Z"/><path class="cls-1" d="M56.46,44.08V39.3L52.1,36.76A14.52,14.52,0,0,0,56.46,44.08Z"/><path class="cls-1" d="M15.21,15.38l-4.67-2.71v5A3.33,3.33,0,0,0,15.21,15.38Z"/><path class="cls-1" d="M56.46,60.82a3.2,3.2,0,0,0-4.1,1.65l4.1,2.37Z"/><path class="cls-1" d="M10.54,34.26v4l4.36,2.52A13.92,13.92,0,0,0,10.54,34.26Z"/><polygon class="cls-3" points="60.04 36.99 60.04 71.02 63.86 68.8 63.86 34.79 60.04 36.99"/><polygon class="cls-2" points="7.4 6.49 11.15 4.32 63.86 34.79 60.04 36.99 7.4 6.49"/><path class="cls-3" d="M39.46,42.22c0,4.78-2.91,7-6.49,4.91s-6.49-7.62-6.49-12.4,2.91-7,6.49-4.91S39.46,37.44,39.46,42.22Z"/><path class="cls-1" d="M38,41.38c0,3.71-2.25,5.41-5,3.8s-5-5.91-5-9.61,2.25-5.41,5-3.8S38,37.67,38,41.38Z"/><path class="cls-3" d="M21.77,32c0,2-1.25,3-2.78,2.1a6.66,6.66,0,0,1-2.78-5.31c0-2,1.25-3,2.78-2.1A6.66,6.66,0,0,1,21.77,32Z"/><path class="cls-3" d="M50.18,48.33c0,2-1.25,3-2.78,2.1a6.66,6.66,0,0,1-2.78-5.31c0-2,1.25-3,2.78-2.1A6.66,6.66,0,0,1,50.18,48.33Z"/><polygon class="cls-3" points="49.73 36.85 49.73 38.2 16.21 18.8 16.21 17.45 49.73 36.85"/><polygon class="cls-3" points="49.73 58.15 49.73 59.5 16.21 40.09 16.21 38.75 49.73 58.15"/><polygon class="cls-1" points="0 10.8 0 44.91 52.64 75.33 52.64 41.3 0 10.8"/><path class="cls-2" d="M49.07,65.13V48.39a14.52,14.52,0,0,1-4.37-7.32L7.81,19.69a3.33,3.33,0,0,1-4.67,2.26V38.57a13.92,13.92,0,0,1,4.36,6.54L45,66.78A3.2,3.2,0,0,1,49.07,65.13Z"/><path class="cls-1" d="M49.07,48.39V43.61L44.7,41.07A14.52,14.52,0,0,0,49.07,48.39Z"/><path class="cls-1" d="M7.81,19.69,3.14,17v5A3.33,3.33,0,0,0,7.81,19.69Z"/><path class="cls-1" d="M49.07,65.13A3.2,3.2,0,0,0,45,66.78l4.1,2.37Z"/><path class="cls-1" d="M3.14,38.57v4l4.36,2.52A13.92,13.92,0,0,0,3.14,38.57Z"/><polygon class="cls-3" points="52.64 41.3 52.64 75.33 56.46 73.11 56.46 39.1 52.64 41.3"/><polygon class="cls-2" points="0 10.8 3.75 8.63 56.46 39.1 52.64 41.3 0 10.8"/><path class="cls-3" d="M32.07,46.53c0,4.78-2.91,7-6.49,4.91S19.08,43.82,19.08,39s2.91-7,6.49-4.91S32.07,41.75,32.07,46.53Z"/><path class="cls-1" d="M30.61,45.69c0,3.71-2.25,5.41-5,3.8s-5-5.91-5-9.61,2.25-5.41,5-3.8S30.61,42,30.61,45.69Z"/><path class="cls-3" d="M14.38,36.36c0,2-1.25,3-2.78,2.1a6.66,6.66,0,0,1-2.78-5.31c0-2,1.25-3,2.78-2.1A6.66,6.66,0,0,1,14.38,36.36Z"/><path class="cls-3" d="M42.79,52.64c0,2-1.25,3-2.78,2.1a6.66,6.66,0,0,1-2.78-5.31c0-2,1.25-3,2.78-2.1A6.66,6.66,0,0,1,42.79,52.64Z"/><polygon class="cls-3" points="42.34 41.16 42.34 42.52 8.81 23.11 8.81 21.77 42.34 41.16"/><polygon class="cls-3" points="42.34 62.46 42.34 63.81 8.81 44.41 8.81 43.06 42.34 62.46"/><path class="cls-4" d="M26.7,41.1a2.76,2.76,0,0,0-1-1.25c-.43-.25-.66-.12-.66.49,0,1.3,2.34,2.55,2.33,5.16,0,1.31-.48,2.05-1.39,1.82v1.42l-.86-.5V46.89a5.9,5.9,0,0,1-1.56-1.95l.57-1a4,4,0,0,0,1.27,1.53c.5.29.72.1.72-.53,0-1.41-2.34-2.74-2.33-5.2,0-1.34.52-2,1.36-1.75V36.57l.86.5v1.38a5,5,0,0,1,1.32,1.89Z"/></g></g></svg>