<svg xmlns="http://www.w3.org/2000/svg" viewBox="0 0 55.86 87.14"><defs><style>.cls-1{fill:#ffc5b3;}.cls-2{fill:#ffa08d;}.cls-3{fill:#eaad00;}.cls-4{fill:#ffc200;}.cls-5{fill:#ffe7a4;}.cls-6{fill:#fff;}</style></defs><title>Ресурс 5</title><g id="Слой_2" data-name="Слой 2"><g id="Layer_1" data-name="Layer 1"><path class="cls-1" d="M2.24,16.81C9.09,14.32,16,12.08,23,10c-2.54-3.63-4.53-6.31-6.26-7.68S14.05-.27,12.92.05,11.64,1.11,12,2.56C10.37.65,8.83-.07,7.92.29s-1,1.82-.82,3.09C6,1.11,4.28.29,3.38.84c-1.72,1-.27,3,.18,4.91C.26,3.74-.26,7.06.1,9.19A49.13,49.13,0,0,0,2.24,16.81Z"/><path class="cls-1" d="M42.34,31.27c-3.13-2.57-10.57-8.06-15.77-15.44C25.65,14.51,23.79,11.11,23,10c-6.49,2-14.39,4.52-20.76,6.84C5.56,26,11.52,36.64,15,40.7c4.67,5.43,17.92,17.86,17.92,22.86s2.26,23.59,2.26,23.59l20.58-11.9s.09-12.8.09-23.77C55.86,42.19,47.34,35.37,42.34,31.27Z"/><path class="cls-2" d="M0,8.19A60.31,60.31,0,0,0,4.17,23.1,83.18,83.18,0,0,0,15,40.7l3.87,1.25s-6.24-9.28-9.67-14.06A44.43,44.43,0,0,1,2,12.85,16.88,16.88,0,0,0,0,8.19Z"/><path class="cls-1" d="M40,57.43S37,61,33,61.1c-4.33.13-12.67-5-17.33-10S4.54,42.15,2,35.43C.33,31-.78,29.1.67,27.77S5.6,29.1,7.6,33.43s8.74,7,12.42,8.52C20.8,42.27,41,49.1,40,57.43Z"/><path class="cls-2" d="M0,29.2a66.13,66.13,0,0,0,2.61,6.69c1.78,3.92,6.31,7.17,10.69,11.92a33.81,33.81,0,0,0,10.94,8.08c2.62,1.25,10.95,3.09,10.95,8.42V87.14l-5.51-2.93V63.73c0-1.62-1.69-2.87-6.11-5.06a47.43,47.43,0,0,1-13-10.28C7.17,44.27-.07,38.45,0,29.2Z"/><path class="cls-2" d="M2.63,2.89S3.25,5,3.56,5.74a42.7,42.7,0,0,1,2.55,5.34c.69,2.13,2.25,6.81,3,7.94s6.81,9.08,6.81,9.08l1.17-.68S11.17,20.58,10,18.2,6.56,9.14,5.43,7.39A29.36,29.36,0,0,1,2.63,2.89Z"/><path class="cls-2" d="M7,2.14l.1,1.24a31.47,31.47,0,0,1,3.07,4.14c.69,1.38,2.56,5.69,3.56,7.62S20.8,25.27,20.8,25.27l.81-.46s-5.68-8.54-7.31-11.42S9.87,4.85,7,2.14Z"/><path class="cls-2" d="M11.85,1.71l.15.85a69.15,69.15,0,0,1,4.5,6.64c.61,1.44,9,13.27,9,13.27l.69-.37S18.92,11.17,16.92,8.41,11.85,1.71,11.85,1.71Z"/><path class="cls-2" d="M29,34.88c-2.81-2.4-5.42-.08-3.49,3.4,1.66,3,8.49,5.32,11.86,8.95,2.83,3,6,1.28,3.69-3C38.67,39.81,31,36.53,29,34.88Z"/><polygon class="cls-3" points="25.34 3.37 29.44 0.98 31.33 1.98 26.47 5.08 25.34 3.37"/><polygon class="cls-3" points="40.62 36.78 44.96 34.24 45.51 31 38.87 35.03 40.62 36.78"/><path class="cls-3" d="M44.53,29.6l-.67-1.21,5.4-3.12q0-.39,0-.8c0-.71,0-1.43-.11-2.15l-4.24,2.46-.67-1.21L49,20.82c-.14-.92-.33-1.84-.56-2.75L43.3,21l-.67-1.21L48,16.7c-.26-.86-.56-1.72-.9-2.56l-5.48,3.17L41,16.1l5.6-3.24c-.37-.82-.77-1.61-1.2-2.39L40,13.59l-.67-1.21,5.34-3.09c-.37-.61-.76-1.2-1.17-1.76l-4.69,2.71L38.19,9,42.7,6.42Q42,5.56,41.29,4.79L35.82,8l-.67-1.21,5.11-3a18.26,18.26,0,0,0-1.76-1.43L32.34,5.94l-.67-1.21L37.2,1.53a11.39,11.39,0,0,0-2.43-1L28.85,3.91,28.19,2.7,32.59.15c-4.27,0-7.26,3.9-7.26,10.48,0,8.82,5.36,19.06,12,22.87,4.12,2.38,7.76,1.7,9.91-1.28l-4.47,2.59-.67-1.21,6.32-3.65a13.9,13.9,0,0,0,.72-3Z"/><path class="cls-4" d="M28.85,3.91,34.77.49A8,8,0,0,0,32.59.15L28.19,2.7Z"/><path class="cls-4" d="M32.34,5.94l6.17-3.57q-.59-.42-1.2-.77l-.11-.06L31.67,4.72Z"/><path class="cls-4" d="M35.82,8l5.46-3.16c-.33-.35-.67-.69-1-1l-5.11,3Z"/><path class="cls-4" d="M38.86,10.24l4.69-2.71c-.27-.38-.55-.75-.84-1.11L38.19,9Z"/><path class="cls-4" d="M40,13.59l5.37-3.11q-.34-.61-.7-1.19l-5.34,3.09Z"/><path class="cls-4" d="M41.67,17.31l5.48-3.17q-.26-.65-.54-1.28L41,16.1Z"/><path class="cls-4" d="M43.3,21l5.13-3q-.18-.69-.38-1.37l-5.42,3.13Z"/><path class="cls-4" d="M44.93,24.77l4.24-2.46q-.07-.74-.18-1.49l-4.73,2.73Z"/><path class="cls-4" d="M44.53,29.6l4.6-2.66c.07-.54.12-1.09.14-1.67l-5.4,3.12Z"/><path class="cls-4" d="M42.75,34.81l4.47-2.59a9.51,9.51,0,0,0,1.19-2.28L42.08,33.6Z"/><path class="cls-5" d="M45,26.95c0,8.82-5.36,12.87-12,9.05s-12-14.06-12-22.87,5.36-12.87,12-9.05S45,18.13,45,26.95Z"/><path class="cls-4" d="M43,25.79c0,7.34-4.46,10.71-10,7.53s-10-11.7-10-19,4.46-10.71,10-7.53S43,18.45,43,25.79Z"/><path class="cls-6" d="M33.91,17.31a4.1,4.1,0,0,0-1.44-1.86c-.63-.37-1-.18-1,.74,0,1.94,3.49,3.8,3.47,7.69,0,2-.71,3.06-2.07,2.71v2.12L31.6,28v-2A8.77,8.77,0,0,1,29.29,23l.85-1.52A6,6,0,0,0,32,23.78c.74.43,1.07.15,1.08-.78,0-2.1-3.48-4.09-3.47-7.75,0-2,.78-2.94,2-2.6v-2.1l1.28.75v2.06a7.41,7.41,0,0,1,2,2.82Z"/></g></g></svg>