<svg xmlns="http://www.w3.org/2000/svg" viewBox="0 0 72.56 104.32"><defs><style>.cls-1{fill:#c1c1c1;}.cls-2{fill:#777;}.cls-3{fill:#9e9e9e;}.cls-4{fill:#3a3a3a;}.cls-5{fill:#4d4d4d;}.cls-6{fill:#fff;}.cls-7{fill:red;}.cls-8{fill:#1dbca5;}</style></defs><title>Ресурс 6</title><g id="Слой_2" data-name="Слой 2"><g id="Layer_1" data-name="Layer 1"><path class="cls-1" d="M60.83,90.86s-11-6-14-8.13c-2.17-1.52-1.49-2.83-.16-7.16s4.24-12.28,4.24-12.28l-2.68-.43S45.1,72.44,44,76.1s-1.59,6.25,1.75,8.36c4.54,2.86,15.09,9,15.09,9Z"/><path class="cls-1" d="M50.57,86.3c-2.45-1.5-5.16-2.42-6-5.68s.87-6.46,2.06-9.39c1.63-4,1.74-7.85,3.64-11.75-8.88.89-17.74,7.53-18.37,8.32S26.32,86.92,25.65,89.3s0,3.79,4.11,6.25,12.15,6.21,12.15,6.21L60.2,91.43C57.27,89.69,53.55,88.13,50.57,86.3Z"/><path class="cls-2" d="M41.91,101.76s-11.22-6.33-14.15-8.18c-2.25-1.41-1.35-3,0-7.32S32,74,32,74l-2.68-.43s-3.12,9.57-4.23,13.24-1.87,6.51,1.47,8.62c4.54,2.86,15.37,8.91,15.37,8.91Z"/><polygon class="cls-3" points="41.91 101.76 41.91 104.32 60.83 93.43 60.83 90.86 41.91 101.76"/><path class="cls-4" d="M0,38.07v49a4.76,4.76,0,0,0,7.14,4.12L64.83,57.91a4.76,4.76,0,0,0,2.38-4.12v-49A4.76,4.76,0,0,0,60.07.64L2.38,34A4.76,4.76,0,0,0,0,38.07Z"/><polygon class="cls-4" points="2.43 91.25 7.81 94.36 11.54 90.46 4.15 85.94 2.43 91.25"/><polygon class="cls-4" points="64.94 0.71 70.15 3.73 64.64 3.82 64.94 0.71"/><path class="cls-5" d="M5.35,41.17v49a4.76,4.76,0,0,0,7.14,4.12L70.18,61a4.76,4.76,0,0,0,2.38-4.12v-49a4.76,4.76,0,0,0-7.14-4.12L7.73,37A4.76,4.76,0,0,0,5.35,41.17Z"/><polygon class="cls-6" points="67.22 10.05 11.54 42.23 11.54 88.34 67.22 56.16 67.22 10.05"/><path class="cls-6" d="M46.76,72.07l-5,2.83c-.6.34-1.13.16-1.16-.42h0a2,2,0,0,1,1-1.67l5-2.83c.6-.34,1.13-.16,1.16.42h0A2,2,0,0,1,46.76,72.07Z"/><path class="cls-7" d="M60.2,41.7,21,64.31c-1,.58-1.82,0-1.82-1.38V55.78A4.38,4.38,0,0,1,21,52.29L60.2,29.68c1-.58,1.82,0,1.82,1.38v7.16A4.38,4.38,0,0,1,60.2,41.7Z"/><path class="cls-6" d="M24,54l1.1-.64c1.2-.69,2-.34,2,1.44a4.08,4.08,0,0,1-1.91,3.73L24,59.25Zm1.05,3.65a2.41,2.41,0,0,0,1.11-2.32c0-1.24-.45-1.37-1.11-1l-.17.1v3.3Z"/><path class="cls-6" d="M27.61,54.54a4.18,4.18,0,0,1,1.77-3.7c1.05-.61,1.77,0,1.77,1.65a4.26,4.26,0,0,1-1.77,3.74C28.33,56.84,27.61,56.24,27.61,54.54ZM30.25,53c0-1-.34-1.47-.87-1.16A2.46,2.46,0,0,0,28.51,54c0,1,.34,1.51.87,1.21A2.54,2.54,0,0,0,30.25,53Z"/><path class="cls-6" d="M31.88,49.5l.9-.52,1,2,.39.92h0c0-.53-.11-1.22-.11-1.83V48.22l.84-.48v5.2l-.9.52-1-2-.38-.91h0c0,.55.11,1.2.11,1.82v1.84l-.84.49Z"/><path class="cls-6" d="M37.68,50.11l-1.2.69-.24,1.38-.9.52,1.23-5.91,1.05-.61,1.23,4.49-.93.54Zm-.18-.81-.1-.42c-.11-.46-.21-1-.32-1.49h0c-.09.6-.2,1.27-.31,1.85l-.1.53Z"/><path class="cls-6" d="M39.79,45.92l-1.08.62v-1l3-1.75v1l-1.07.62v4.21l-.88.51Z"/><path class="cls-6" d="M42.34,43.46,44.79,42v1l-1.56.9v1l1.33-.77v1L43.22,46v1.2l1.62-.94v1l-2.51,1.45Z"/><path class="cls-6" d="M46.85,40.85l.9-.52,1,2,.39.92h0c0-.53-.11-1.22-.11-1.83V39.57l.84-.48v5.2l-.9.52-1-2-.38-.91h0c0,.55.11,1.2.11,1.82v1.84l-.84.49Z"/><path class="cls-6" d="M50.63,41.25a4.18,4.18,0,0,1,1.77-3.7c1.05-.61,1.77,0,1.77,1.65a4.26,4.26,0,0,1-1.77,3.74C51.36,43.55,50.63,42.95,50.63,41.25Zm2.64-1.52c0-1-.33-1.47-.87-1.16a2.46,2.46,0,0,0-.87,2.16c0,1,.34,1.51.87,1.21A2.54,2.54,0,0,0,53.27,39.72Z"/><path class="cls-6" d="M54.53,36.42l.9-.52.27,2.28.16,1.55h0c.07-.59.15-1.19.23-1.78l.42-2.68.75-.43L57.71,37c.08.48.16,1,.23,1.51h0c0-.59.1-1.17.16-1.73l.27-2.59.84-.49-.69,5.6-1.11.64L57,37.81c-.06-.36-.11-.76-.16-1.12h0c0,.41-.1.86-.16,1.29l-.37,2.58-1.09.63Z"/><polygon class="cls-7" points="14.76 43.48 14.76 46.62 64.64 17.81 64.64 14.59 14.76 43.48"/><polygon class="cls-5" points="40.55 60.2 14.76 75.14 14.76 77.05 40.55 62.15 40.55 60.2"/><polygon class="cls-5" points="64.64 19.53 14.76 48.4 14.76 50.31 64.64 21.48 64.64 19.53"/><polygon class="cls-8" points="64.64 46.28 43.5 58.52 43.5 64.44 64.64 52.23 64.64 46.28"/><polygon class="cls-5" points="40.55 64.2 14.76 79.14 14.76 81.05 40.55 66.15 40.55 64.2"/></g></g></svg>