<svg xmlns="http://www.w3.org/2000/svg" viewBox="0 0 33.26 75.49"><defs><style>.cls-1{fill:#3a3a3a;}.cls-2{fill:#4d4d4d;}.cls-3{fill:#fff;}.cls-4{fill:red;}</style></defs><title>Ресурс 2</title><g id="Слой_2" data-name="Слой 2"><g id="Layer_1" data-name="Layer 1"><path class="cls-1" d="M24.54.43l-23,13.26A3.16,3.16,0,0,0,0,16.42V70a3.16,3.16,0,0,0,4.74,2.73l23-13.26a3.16,3.16,0,0,0,1.58-2.73V3.16A3.16,3.16,0,0,0,24.54.43Z"/><polygon class="cls-1" points="5.56 75.06 1.54 72.75 3.99 70.38 5.56 75.06"/><polygon class="cls-1" points="27.68 0.42 31.51 2.63 28.39 3.6 27.68 0.42"/><path class="cls-2" d="M28.53,2.72,5.57,16A3.16,3.16,0,0,0,4,18.72V72.33a3.16,3.16,0,0,0,4.74,2.73l23-13.26a3.16,3.16,0,0,0,1.58-2.73V5.45A3.16,3.16,0,0,0,28.53,2.72Z"/><polygon class="cls-3" points="30.58 8.25 7.46 21.61 7.46 68.4 30.58 55.04 30.58 8.25"/><ellipse class="cls-3" cx="19.02" cy="11.28" rx="1.12" ry="0.8" transform="translate(6.55 29.53) rotate(-86.33)"/><path class="cls-3" d="M23.34,63.64l-5,2.88c-.61.35-1.14.16-1.18-.42h0a2.08,2.08,0,0,1,1-1.69l5-2.87c.61-.35,1.14-.16,1.18.42h0A2.08,2.08,0,0,1,23.34,63.64Z"/><polygon class="cls-2" points="9.78 63.83 9.78 65.35 28.67 54.42 28.67 52.92 9.78 63.83"/><polygon class="cls-2" points="9.78 35.92 9.78 37.43 28.67 26.5 28.67 25.01 9.78 35.92"/><polygon class="cls-2" points="9.78 39.14 9.78 40.66 28.67 29.73 28.67 28.23 9.78 39.14"/><polygon class="cls-2" points="9.78 42.47 9.78 43.99 28.67 33.06 28.67 31.57 9.78 42.47"/><path class="cls-4" d="M17.1,44.07a2.11,2.11,0,0,1,2.52.61,5.7,5.7,0,0,1,2.45-3.52c2.22-1.3,3,2.56,2.5,5a17.12,17.12,0,0,1-4.92,8.78,8.62,8.62,0,0,1-4.41-4.84C14.34,47.14,15.7,44.84,17.1,44.07Z"/><g id="MAKE_A_DONATEON" data-name="MAKE A DONATEON"><path class="cls-4" d="M15.17,21.6l.52-.3L16,22.39l.13.43h0l.13-.58.35-1.51.52-.3v2.9l-.46.27V22.53c0-.28,0-.73.06-1h0l-.18.77-.34,1.32-.2.11-.33-.93-.17-.57h0c0,.27.06.66.06.95v1.06l-.45.26Z"/><path class="cls-4" d="M18.72,21.75l-.66.38-.13.77-.5.29.68-3.29.59-.34.68,2.5-.52.3Zm-.1-.45-.05-.23c-.06-.25-.12-.56-.18-.83h0c-.05.34-.11.71-.17,1l-.05.3Z"/><path class="cls-4" d="M19.6,19l.49-.28v1.19h0l.65-1.56.54-.31-.66,1.53.78,1.29-.54.31-.53-.92-.25.59v.78l-.49.28Z"/><path class="cls-4" d="M21.65,17.86,23,17.07v.55l-.87.5v.58l.74-.43v.55l-.74.43v.67l.9-.52v.55l-1.4.81Z"/><path class="cls-4" d="M10.78,30.8l-.67.38L10,32l-.5.29L10.16,29l.59-.34.68,2.5-.52.3Zm-.1-.45-.05-.23c-.06-.25-.12-.56-.18-.83h0c-.05.33-.11.71-.17,1l-.05.3Z"/><path class="cls-4" d="M12.35,27.69l.61-.35c.67-.38,1.09-.19,1.09.8A2.27,2.27,0,0,1,13,30.21l-.64.37Zm.59,2a1.34,1.34,0,0,0,.62-1.29c0-.69-.25-.76-.62-.55l-.09.05v1.84Z"/><path class="cls-4" d="M14.36,28a2.33,2.33,0,0,1,1-2.06c.59-.34,1,0,1,.92a2.37,2.37,0,0,1-1,2.08C14.76,29.24,14.36,28.91,14.36,28Zm1.47-.85c0-.58-.19-.82-.48-.65a1.37,1.37,0,0,0-.48,1.2c0,.58.19.84.48.67A1.42,1.42,0,0,0,15.83,27.11Z"/><path class="cls-4" d="M16.74,25.15l.5-.29L17.81,26l.22.51h0c0-.29-.06-.68-.06-1v-1l.47-.27v2.9l-.5.29-.57-1.12-.21-.51h0c0,.31.06.67.06,1v1l-.47.27Z"/><path class="cls-4" d="M20,25.49l-.66.38-.13.77-.5.29.68-3.29.59-.34.68,2.5-.52.3Zm-.1-.45-.05-.23c-.06-.25-.12-.56-.18-.83h0c-.05.34-.11.71-.17,1l-.05.3Z"/><path class="cls-4" d="M21.15,23.16l-.6.35V23l1.68-1v.55l-.6.34v2.34l-.49.28Z"/><path class="cls-4" d="M22.57,21.78,23.93,21v.55l-.87.5v.58l.74-.43v.55l-.74.43v.67l.9-.52v.55l-1.4.81Z"/><path class="cls-4" d="M24.29,22.23a2.33,2.33,0,0,1,1-2.06c.59-.34,1,0,1,.92a2.37,2.37,0,0,1-1,2.08C24.69,23.51,24.29,23.17,24.29,22.23Zm1.47-.85c0-.58-.19-.82-.48-.64a1.37,1.37,0,0,0-.48,1.2c0,.58.19.84.48.67A1.42,1.42,0,0,0,25.76,21.38Z"/><path class="cls-4" d="M26.67,19.42l.5-.29.57,1.11.22.51h0c0-.29-.06-.68-.06-1v-1l.47-.27v2.9l-.5.29-.57-1.12L27.09,20h0c0,.31.06.67.06,1v1l-.47.27Z"/></g></g></g></svg>