<svg xmlns="http://www.w3.org/2000/svg" viewBox="0 0 51.36 86.57"><defs><style>.cls-1{fill:#c1c1c1;}.cls-2{fill:#9e9e9e;}.cls-3{fill:red;}.cls-4{fill:#ff4d4d;}.cls-5{fill:#eaad00;}.cls-6{fill:#ffc200;}.cls-7{fill:#ffe7a4;}.cls-8{fill:#fff;}.cls-9{fill:#eaeaea;}.cls-10{fill:#3a3a3a;}</style></defs><title>Ресурс 8</title><g id="Слой_2" data-name="Слой 2"><g id="Layer_1" data-name="Layer 1"><path class="cls-1" d="M0,75V34.48A22.88,22.88,0,0,1,22.88,11.6h5.61A22.88,22.88,0,0,1,51.36,34.48V75Z"/><ellipse class="cls-1" cx="25.68" cy="74.54" rx="25.68" ry="12.03"/><ellipse class="cls-2" cx="25.68" cy="73.91" rx="20.91" ry="9.8"/><ellipse class="cls-2" cx="25.68" cy="19.4" rx="16.47" ry="7.72"/><ellipse class="cls-2" cx="25.68" cy="12.88" rx="16.47" ry="7.72"/><rect class="cls-2" x="9.21" y="12.88" width="32.94" height="6.52"/><rect class="cls-3" x="6.81" y="8.84" width="37.74" height="3.23"/><ellipse class="cls-3" cx="25.68" cy="12.07" rx="18.87" ry="8.84"/><ellipse class="cls-4" cx="25.68" cy="8.84" rx="18.87" ry="8.84"/><polygon class="cls-5" points="20.99 34.5 22.86 33.42 23.71 33.87 21.5 35.28 20.99 34.5"/><polygon class="cls-5" points="27.94 49.7 29.91 48.55 30.16 47.07 27.14 48.91 27.94 49.7"/><path class="cls-5" d="M29.72,46.43l-.3-.55,2.46-1.42q0-.18,0-.36c0-.32,0-.65,0-1L29.9,44.24l-.3-.55,2.15-1.24c-.06-.42-.15-.84-.26-1.25l-2.33,1.35-.3-.55,2.46-1.42c-.12-.39-.26-.78-.41-1.16l-2.49,1.44-.3-.55,2.55-1.47c-.17-.37-.35-.73-.54-1.09l-2.44,1.41-.3-.55,2.43-1.4c-.17-.28-.35-.54-.53-.8l-2.13,1.23-.3-.55,2.05-1.19c-.21-.26-.42-.51-.64-.74l-2.49,1.44-.3-.55,2.33-1.34A8.31,8.31,0,0,0,27,34l-2.81,1.63-.3-.55,2.51-1.45a5.18,5.18,0,0,0-1.1-.47l-2.69,1.56-.3-.55,2-1.16c-1.94,0-3.3,1.77-3.3,4.77,0,4,2.44,8.67,5.45,10.4,1.87,1.08,3.53.77,4.51-.58l-2,1.18-.3-.55,2.88-1.66a6.32,6.32,0,0,0,.33-1.37Z"/><path class="cls-6" d="M22.59,34.75l2.69-1.56a3.63,3.63,0,0,0-1-.15l-2,1.16Z"/><path class="cls-6" d="M24.17,35.67,27,34q-.27-.19-.55-.35l0,0-2.51,1.45Z"/><path class="cls-6" d="M25.76,36.59l2.49-1.44c-.15-.16-.31-.31-.46-.46L25.45,36Z"/><path class="cls-6" d="M27.14,37.63l2.13-1.23-.38-.5-2.05,1.19Z"/><path class="cls-6" d="M27.68,39.15l2.44-1.41-.32-.54-2.43,1.4Z"/><path class="cls-6" d="M28.42,40.85l2.49-1.44q-.12-.29-.25-.58L28.11,40.3Z"/><path class="cls-6" d="M29.16,42.54l2.33-1.35q-.08-.31-.17-.62L28.85,42Z"/><path class="cls-6" d="M29.9,44.24l1.93-1.12q0-.34-.08-.68L29.6,43.69Z"/><path class="cls-6" d="M29.72,46.43l2.09-1.21c0-.24.05-.5.06-.76l-2.46,1.42Z"/><path class="cls-6" d="M28.91,48.81l2-1.18a4.32,4.32,0,0,0,.54-1L28.6,48.26Z"/><path class="cls-7" d="M30,45.23c0,4-2.44,5.85-5.45,4.12S19.06,43,19.06,38.94s2.44-5.85,5.45-4.12S30,41.22,30,45.23Z"/><path class="cls-6" d="M29,44.7c0,3.34-2,4.87-4.53,3.43S20,42.81,20,39.47,22,34.6,24.5,36,29,41.36,29,44.7Z"/><path class="cls-8" d="M24.9,40.87a1.88,1.88,0,0,0-.65-.84c-.29-.17-.45-.08-.45.33,0,.88,1.59,1.73,1.58,3.5,0,.89-.32,1.39-.94,1.23v1l-.58-.34v-.93a4,4,0,0,1-1.06-1.32l.39-.69a2.74,2.74,0,0,0,.86,1c.34.2.49.07.49-.36,0-1-1.59-1.86-1.58-3.53,0-.91.35-1.33.92-1.18v-1l.58.34v.94a3.37,3.37,0,0,1,.89,1.28Z"/><rect class="cls-5" x="9.5" y="73.21" width="17.1" height="2.2"/><path class="cls-5" d="M26.6,75.41A2.24,2.24,0,0,0,26.06,74v2.78A2.24,2.24,0,0,0,26.6,75.41Z"/><path class="cls-5" d="M26,73.9c-1.27-1.46-4.33-2.49-7.91-2.49-4.72,0-8.55,1.79-8.55,4a2.36,2.36,0,0,0,.71,1.6V73.9h.54v3.59a6.65,6.65,0,0,0,1.16.7V74.84h.54v3.6a11.37,11.37,0,0,0,1.16.4V75.75h.54V79q.56.13,1.16.23V75.75h.54v3.53c.38,0,.76.08,1.16.11V75.75h.54v3.65h.49l.67,0V75.75h.54v3.62c.4,0,.78-.06,1.16-.11V75.75H21v3.42c.4-.07.79-.14,1.16-.24V75.75h.54v3a10.87,10.87,0,0,0,1.16-.42V74.84h.54v3.27a6.23,6.23,0,0,0,1.16-.75V73.9Z"/><path class="cls-6" d="M10.22,73.9V77a4.4,4.4,0,0,0,.54.48V73.9Z"/><path class="cls-6" d="M11.92,74.84V78.2l.54.24v-3.6Z"/><path class="cls-6" d="M13.62,75.75v3.08l.54.14V75.75Z"/><path class="cls-6" d="M15.32,75.75v3.45l.54.07V75.75Z"/><path class="cls-6" d="M17,75.75v3.63l.54,0V75.75Z"/><path class="cls-6" d="M18.72,75.75V79.4l.54,0V75.75Z"/><path class="cls-6" d="M20.42,75.75v3.51l.54-.08V75.75Z"/><path class="cls-6" d="M22.12,75.75v3.18l.54-.15v-3Z"/><path class="cls-6" d="M23.82,74.84v3.52l.54-.25V74.84Z"/><path class="cls-6" d="M26.06,73.9H26l.1.12Z"/><path class="cls-6" d="M26.06,76.81V74L26,73.9h-.45v3.46A3.82,3.82,0,0,0,26.06,76.81Z"/><ellipse class="cls-7" cx="18.05" cy="73.21" rx="8.55" ry="4.01"/><ellipse class="cls-6" cx="18.05" cy="73.06" rx="6.61" ry="3.1"/><path class="cls-8" d="M20,72.77c.12-.26.13-.45-.08-.62a.91.91,0,0,0-1-.07c-.88.34.52,1.38-1.25,2.06a3.35,3.35,0,0,1-2.56,0l-1,.37-.48-.39.93-.36a.9.9,0,0,1-.18-1l1.24-.09a.66.66,0,0,0,.18.79,1,1,0,0,0,1,.08c1-.37-.39-1.43,1.28-2.07a3.21,3.21,0,0,1,2.47,0l1-.37.48.39-.94.36a.71.71,0,0,1,0,.9Z"/><rect class="cls-5" x="26.01" y="67.64" width="17.1" height="2.2"/><path class="cls-5" d="M43.11,69.84a2.24,2.24,0,0,0-.54-1.39v2.78A2.24,2.24,0,0,0,43.11,69.84Z"/><path class="cls-5" d="M42.47,68.33c-1.27-1.46-4.33-2.49-7.91-2.49-4.72,0-8.55,1.79-8.55,4a2.36,2.36,0,0,0,.71,1.6V68.33h.54v3.59a6.66,6.66,0,0,0,1.16.7V69.27H29v3.6a11.34,11.34,0,0,0,1.16.4V70.19h.54v3.22q.56.13,1.16.23V70.19h.54v3.53c.38,0,.76.08,1.16.11V70.19h.54v3.65h.49l.67,0V70.19h.54V73.8c.4,0,.78-.06,1.16-.11V70.19h.54v3.42c.4-.07.79-.14,1.16-.24V70.19h.54v3a10.87,10.87,0,0,0,1.16-.42V69.27h.54v3.27A6.23,6.23,0,0,0,42,71.79V68.33Z"/><path class="cls-6" d="M26.72,68.33v3.11a4.4,4.4,0,0,0,.54.48V68.33Z"/><path class="cls-6" d="M28.42,69.27v3.36l.54.24v-3.6Z"/><path class="cls-6" d="M30.12,70.19v3.08l.54.14V70.19Z"/><path class="cls-6" d="M31.82,70.19v3.45l.54.08V70.19Z"/><path class="cls-6" d="M33.52,70.19v3.63l.54,0V70.19Z"/><path class="cls-6" d="M35.22,70.19v3.65l.54,0V70.19Z"/><path class="cls-6" d="M36.92,70.19v3.51l.54-.08V70.19Z"/><path class="cls-6" d="M38.62,70.19v3.18l.54-.15v-3Z"/><path class="cls-6" d="M40.32,69.27v3.52l.54-.25V69.27Z"/><path class="cls-6" d="M42.57,68.33h-.1l.1.12Z"/><path class="cls-6" d="M42.57,71.24V68.45l-.1-.12H42v3.46A3.82,3.82,0,0,0,42.57,71.24Z"/><ellipse class="cls-7" cx="34.56" cy="67.64" rx="8.55" ry="4.01"/><ellipse class="cls-6" cx="34.56" cy="67.49" rx="6.61" ry="3.1"/><path class="cls-8" d="M36.56,67.2c.12-.26.13-.45-.08-.62a.91.91,0,0,0-1-.07c-.88.34.52,1.38-1.25,2.06a3.35,3.35,0,0,1-2.56,0l-1,.37-.48-.39.93-.36a.9.9,0,0,1-.18-1l1.24-.09a.66.66,0,0,0,.18.79,1,1,0,0,0,1,.08c1-.37-.39-1.43,1.28-2.07a3.21,3.21,0,0,1,2.47,0l1-.37.48.39-.94.36a.71.71,0,0,1,0,.9Z"/><rect class="cls-5" x="15.05" y="66.39" width="17.1" height="2.2"/><path class="cls-5" d="M32.14,68.59a2.24,2.24,0,0,0-.54-1.39V70A2.24,2.24,0,0,0,32.14,68.59Z"/><path class="cls-5" d="M31.51,67.07c-1.27-1.46-4.33-2.49-7.91-2.49-4.72,0-8.55,1.79-8.55,4a2.36,2.36,0,0,0,.71,1.6V67.07h.54v3.59a6.66,6.66,0,0,0,1.16.7V68H18v3.6a11.4,11.4,0,0,0,1.16.4V68.93h.54v3.22q.56.13,1.16.23V68.93h.54v3.53c.38,0,.76.08,1.16.11V68.93h.54v3.65h.49l.67,0V68.93h.54v3.62c.4,0,.78-.06,1.16-.11V68.93h.54v3.42c.4-.07.79-.15,1.16-.24V68.93h.54v3a10.89,10.89,0,0,0,1.16-.42V68h.54v3.27a6.23,6.23,0,0,0,1.16-.75V67.07Z"/><path class="cls-6" d="M15.76,67.07v3.11a4.4,4.4,0,0,0,.54.48V67.07Z"/><path class="cls-6" d="M17.46,68v3.36l.54.24V68Z"/><path class="cls-6" d="M19.16,68.93V72l.54.14V68.93Z"/><path class="cls-6" d="M20.86,68.93v3.45l.54.07V68.93Z"/><path class="cls-6" d="M22.56,68.93v3.63l.54,0V68.93Z"/><path class="cls-6" d="M24.26,68.93v3.65l.54,0V68.93Z"/><path class="cls-6" d="M26,68.93v3.51l.54-.08V68.93Z"/><path class="cls-6" d="M27.66,68.93v3.18L28.2,72v-3Z"/><path class="cls-6" d="M29.36,68v3.52l.54-.25V68Z"/><path class="cls-6" d="M31.6,67.07h-.1l.1.12Z"/><path class="cls-6" d="M31.6,70V67.2l-.1-.12h-.45v3.46A3.82,3.82,0,0,0,31.6,70Z"/><ellipse class="cls-7" cx="23.59" cy="66.39" rx="8.55" ry="4.01"/><ellipse class="cls-6" cx="23.59" cy="66.23" rx="6.61" ry="3.1"/><path class="cls-8" d="M25.59,65.94c.12-.26.13-.45-.08-.62a.91.91,0,0,0-1-.07c-.88.34.52,1.38-1.25,2.06a3.35,3.35,0,0,1-2.56,0l-1,.37-.48-.39.93-.36A.9.9,0,0,1,20,66l1.24-.09a.66.66,0,0,0,.18.79,1,1,0,0,0,1,.08c1-.37-.39-1.43,1.28-2.07a3.21,3.21,0,0,1,2.47,0l1-.37.48.39-.94.36a.71.71,0,0,1,0,.9Z"/><rect class="cls-5" x="18.43" y="61.62" width="17.1" height="2.2"/><path class="cls-5" d="M35.53,63.82A2.24,2.24,0,0,0,35,62.43v2.78A2.24,2.24,0,0,0,35.53,63.82Z"/><path class="cls-5" d="M34.89,62.31c-1.27-1.46-4.33-2.49-7.91-2.49-4.72,0-8.55,1.79-8.55,4a2.36,2.36,0,0,0,.71,1.6V62.31h.54V65.9a6.66,6.66,0,0,0,1.16.7V63.25h.54v3.6a11.38,11.38,0,0,0,1.16.4V64.16h.54v3.22q.56.13,1.16.23V64.16h.54v3.53c.38,0,.76.08,1.16.11V64.16h.54v3.65H27l.67,0V64.16h.54v3.62c.4,0,.78-.06,1.16-.11V64.16h.54v3.42c.4-.07.79-.14,1.16-.24V64.16h.54v3a10.87,10.87,0,0,0,1.16-.42V63.25h.54v3.27a6.23,6.23,0,0,0,1.16-.75V62.31Z"/><path class="cls-6" d="M19.15,62.31v3.11a4.41,4.41,0,0,0,.54.48V62.31Z"/><path class="cls-6" d="M20.85,63.25v3.36l.54.24v-3.6Z"/><path class="cls-6" d="M22.55,64.16v3.08l.54.14V64.16Z"/><path class="cls-6" d="M24.25,64.16v3.45l.54.07V64.16Z"/><path class="cls-6" d="M25.95,64.16V67.8l.54,0V64.16Z"/><path class="cls-6" d="M27.65,64.16v3.65l.54,0V64.16Z"/><path class="cls-6" d="M29.35,64.16v3.51l.54-.08V64.16Z"/><path class="cls-6" d="M31,64.16v3.18l.54-.15v-3Z"/><path class="cls-6" d="M32.75,63.25v3.52l.54-.25V63.25Z"/><path class="cls-6" d="M35,62.31h-.1l.1.12Z"/><path class="cls-6" d="M35,65.21V62.43l-.1-.12h-.45v3.46A3.83,3.83,0,0,0,35,65.21Z"/><ellipse class="cls-7" cx="26.98" cy="61.62" rx="8.55" ry="4.01"/><ellipse class="cls-6" cx="26.98" cy="61.47" rx="6.61" ry="3.1"/><path class="cls-8" d="M29,61.18c.12-.26.13-.45-.08-.62a.91.91,0,0,0-1-.07c-.88.34.52,1.38-1.25,2.06a3.35,3.35,0,0,1-2.56,0l-1,.37-.48-.39.93-.36a.9.9,0,0,1-.18-1l1.24-.09a.66.66,0,0,0,.18.79,1,1,0,0,0,1,.08c1-.37-.39-1.43,1.28-2.07a3.21,3.21,0,0,1,2.47,0l1-.37.48.39-.94.36a.71.71,0,0,1,0,.9Z"/><path class="cls-9" d="M0,34.67v21H0c0,.12,0,.24,0,.37,0,6.65,11.5,12,25.68,12h.75V46.69h-.75C11.5,46.7,0,41.31,0,34.67Z"/><path class="cls-10" d="M18.29,52.23C7.71,50.74,0,46.14,0,40.7v3.1c0,5.44,7.71,10,18.29,11.52Z"/><path class="cls-10" d="M18.29,59C7.71,57.47,0,52.87,0,47.43v3.1c0,5.44,7.71,10,18.29,11.52Z"/><path class="cls-9" d="M0,62.67V63c0-.12,0-.25,0-.37Z"/></g></g></svg>