<svg xmlns="http://www.w3.org/2000/svg" viewBox="0 0 67.98 124.61"><defs><style>.cls-1{fill:#4d4d4d;}.cls-2{fill:#3a3a3a;}.cls-3{fill:#ffa08d;}.cls-4{fill:#11a58c;}.cls-5{fill:#1dbca5;}.cls-6{fill:#ffc5b3;}.cls-7{fill:red;}.cls-8{fill:#d30505;}.cls-9{fill:#a02d12;}.cls-10{fill:#bf4928;}.cls-11{fill:#eaeaea;}.cls-12{fill:#9e9e9e;}.cls-13{fill:#777;}</style></defs><title>Ресурс 9</title><g id="Слой_2" data-name="Слой 2"><g id="Layer_1" data-name="Layer 1"><path class="cls-1" d="M39.11,111.05s-1.23,1.34-2.88,2.95-2,1.91-3.41,3.29c-.83.81-.15,1.55,1.43,1.49a28.27,28.27,0,0,0,6.27-1.36A31.82,31.82,0,0,0,45.21,115a3.11,3.11,0,0,0,1.39-1.76v-2.48Z"/><path class="cls-1" d="M49.2,116.89s-1.23,1.34-2.88,2.95-2,1.91-3.41,3.29c-.83.81-.15,1.55,1.43,1.49a28.27,28.27,0,0,0,6.27-1.36,31.82,31.82,0,0,0,4.69-2.45A3.11,3.11,0,0,0,56.7,119v-2.48Z"/><path class="cls-2" d="M61,69.2c.58-9.09-4.43-13.87-4.43-13.87.4-3.06-15.3,2-15.3,2S40.33,77.17,40,85.92c-.42,9.9-1.75,24.69-1.75,24.69s1.3,2,5,2c2.11,0,4.28-3,4.28-3l1.35-24.17,1.34-13.21s.34,11.43.34,17c0,5.14-2.17,26.7-2.17,26.7a6.16,6.16,0,0,0,5.25,2.88c3.92,0,5.25-2.54,5.25-2.54s-.24-14.17.41-24.48C59.72,84.14,60.73,73.37,61,69.2Z"/><path class="cls-3" d="M38.21,38.93s-2,5.8-2.8,7.89a19.49,19.49,0,0,0-1,5.1L42,54.22,45.5,39.8S39.48,37,38.21,38.93Z"/><path class="cls-4" d="M46.23,28.79s-2.88,0-5,3.9-3,6.25-3,6.25A15.11,15.11,0,0,1,45,42.62C49.55,38.52,49.66,30.71,46.23,28.79Z"/><path class="cls-5" d="M46.08,30S43.84,32.07,42,38.65c-1.12,4-1,23.45-1,23.45a15.14,15.14,0,0,0,11.15,4.6c5.07,0,7.52-1.21,8.43-3.13-.62-6.94,2.17-22.19,1.82-24.81s-6.62-7.66-6.62-7.66S50.45,28.27,46.08,30Z"/><path class="cls-3" d="M49.67,30.13,48.82,35s2.5,2.81,4.95.71,2.8-3.06,2.8-3.06L55.36,26Z"/><path class="cls-6" d="M53.12,18.62a5.67,5.67,0,0,0-8.85,3c-1.89,5.36,3,12.06,5.55,10.93,1.45-.64,4.49-2.9,5.35-5.73C56.14,23.65,54.74,19.85,53.12,18.62Z"/><path class="cls-2" d="M43.84,23.33a4.79,4.79,0,0,0,4.71,1.43,10.44,10.44,0,0,0,3.64-1.34l.43,2.84a2.49,2.49,0,0,0,.75-.27c0-1.12.45-1.47,1.06-1.14s.73,2,.73,2a5.82,5.82,0,0,0,1.4-5.24c-.44-2-3.14-5.94-6.9-5.59s-5.95,2.84-6.41,5A2.64,2.64,0,0,0,43.84,23.33Z"/><path class="cls-3" d="M12.12,60.57s.53,4.88.46,7a28.67,28.67,0,0,0,.26,5.81c.32,2.53.5,12.65.35,16s-2.34,6.33-3.16,7.5,1.51,3.17,3.43,1.5,2.13-2,3.19-2.5,1.95-2.83,1.25-5.5,0-7.83,1.05-12.33.11-10.33.68-11.67S12.12,60.57,12.12,60.57Z"/><path class="cls-7" d="M10,96.91a33.9,33.9,0,0,0-3.15,2.65c-.8.88,1.47,2.35,3.74,1.68s4.19-2.67,6-4.17,2.3-2,2.3-3.77a3.48,3.48,0,0,0-.86-1.84s-.73,3.57-3.33,5S11.27,97.91,10,96.91Z"/><path class="cls-6" d="M19,64.82s0,4.88,0,7,.24,2.88.76,5.38.5,13.08.35,16.42-2.34,6.33-3.16,7.5,1.51,3.17,3.43,1.5,2.13-2,3.19-2.5,1.95-2.83,1.25-5.5,0-7.83,1.05-12.33-.08-10.37.31-11.77c.95-3.44,3.09-8.71,1.19-10S19,64.82,19,64.82Z"/><path class="cls-7" d="M16.91,101.16a33.9,33.9,0,0,0-3.15,2.65c-.8.88,1.47,2.35,3.74,1.68s4.19-2.68,6-4.17,2.3-2,2.3-3.77A3.48,3.48,0,0,0,25,95.71s-.73,3.57-3.33,5S18.14,102.16,16.91,101.16Z"/><path class="cls-2" d="M12.08,44s-.37,3.44-.67,7.89a96,96,0,0,0,.15,12s7.83,6.69,10.77,5.8a14.7,14.7,0,0,0,7.25-5S30.3,52.26,28.39,44,12.47,39.76,12.08,44Z"/><path class="cls-7" d="M9.54,21.4s-1.6,4.53-1.1,6.6,2.88,6,2.88,7.7A53.1,53.1,0,0,1,10,42.62s4,4.47,8.12,4.49c4.76,0,8.2-4.49,8.2-4.49S25.29,35,25.67,32.25s.69-6,.69-6S11.92,25.56,9.54,21.4Z"/><path class="cls-7" d="M30.69,25.11c-.35-1.73-5.39-5.56-5.39-5.56L21.2,22.49a27,27,0,0,0-2.93,2.81,22.18,22.18,0,0,1,1.52-5.69,10.56,10.56,0,0,0,0-3.44s-.4-.12-1-.26c-.94.94-3.51,3.55-4.37,4.7-.67.89-3.11,4.68-4.84,7.38,4.19,4.85,12.84,11.64,12.84,11.64l6-1.72S31.83,30.81,30.69,25.11Z"/><path class="cls-8" d="M18.8,15.92c-1.18-.27-3.11-.59-4.07-.06C12.68,17,9.86,21,7.58,23.61c-.66.75.31,2.4,2,4.38,1.73-2.7,4.18-6.49,4.84-7.38C15.29,19.46,17.87,16.86,18.8,15.92Z"/><path class="cls-8" d="M30.37,24.4c-.24-.67-2.43.21-4.71,2.63s-5.16,5.65-5.16,5.65l7.35,6.51A17.48,17.48,0,0,0,30,33.62C30.74,30.1,31.54,27.69,30.37,24.4Z"/><path class="cls-9" d="M19.79,4.37s-.76-2.5,2.39-4c2.12-1,4.75.26,5.94,3.17s1.56,4.6.94,6.85-2.1,4.31-1.48,6.06,2.73-.51,2.73-.51.39,3.5-2.63,3.25-4.75-2.23-5.5-5.92S19.79,4.37,19.79,4.37Z"/><path class="cls-3" d="M19.46,16.55a18.2,18.2,0,0,1-.7,4.48,8.73,8.73,0,0,0-.84,4.65,25.9,25.9,0,0,0,3.6-2.9c1.14-1,4.14-2.92,4.14-2.92l-.1-8.7Z"/><path class="cls-6" d="M23,6.22A5.22,5.22,0,0,0,14.83,9c-1.74,4.94,2.72,11.1,5.1,10.05,1.33-.59,4.14-2.67,4.92-5.27C25.74,10.85,24.46,7.36,23,6.22Z"/><path class="cls-10" d="M14.49,9.93s.54-1.65,3.4-.75c4.56,1.44,3.88,4.56,3.88,4.56l1.09-.2s.47-2.18,1.13-2c1.31.38.53,3.07.53,3.07a7.89,7.89,0,0,0,1.21-2.44c.14-.94,1.85-6-3.27-8.09C17.89,2.24,14.43,5.06,14.49,9.93Z"/><polygon class="cls-11" points="1.35 21.4 1.35 55.51 54 85.92 54 51.9 1.35 21.4"/><path class="cls-12" d="M52.26,83.19,2.89,54.51V24.23L52.26,53ZM3.89,53.93,51.26,81.45V53.56L3.89,26Z"/><polygon class="cls-12" points="3.2 20.31 1.35 21.4 54 51.9 55.95 50.78 3.2 20.31"/><polygon class="cls-13" points="54 51.9 55.95 50.78 55.95 84.77 54 85.92 54 51.9"/><path class="cls-7" d="M15.12,34.43l1,.58a4,4,0,0,1,1.78,3.75c0,1.88-.71,2.36-1.75,1.75L15.1,39.9Zm.95,5c.6.35,1,.13,1-1.18s-.4-2-1-2.3l-.15-.09v3.47Z"/><path class="cls-7" d="M18.39,39c0-1.79.67-2.43,1.62-1.87a4.25,4.25,0,0,1,1.6,3.75c0,1.79-.66,2.48-1.62,1.92A4.34,4.34,0,0,1,18.39,39Zm2.4,1.4a2.55,2.55,0,0,0-.79-2.2c-.48-.28-.79.2-.79,1.29A2.66,2.66,0,0,0,20,41.78C20.49,42.06,20.79,41.54,20.8,40.44Z"/><path class="cls-7" d="M22.29,38.6l.82.48L24,42.33l.35,1.41h0c0-.6-.1-1.41-.1-2.06V39.77l.76.44,0,5.47-.82-.48-.92-3.27L23,40.55h0c0,.63.1,1.39.1,2v1.94l-.77-.45Z"/><path class="cls-7" d="M27.56,45.84l-1.09-.63-.22,1.17-.82-.48,1.13-4.82,1,.56,1.1,6.12-.85-.49Zm-.16-1.06-.09-.55c-.1-.6-.19-1.3-.28-1.93h0c-.08.53-.18,1.11-.28,1.6l-.09.45Z"/><path class="cls-7" d="M29.49,43.82l-1-.57v-1l2.76,1.6v1l-1-.57v4.43l-.8-.47Z"/><path class="cls-7" d="M31.82,44.14l.81.47,0,5.47-.81-.47Z"/><path class="cls-7" d="M33.27,47.7c0-1.79.67-2.43,1.62-1.87a4.24,4.24,0,0,1,1.6,3.75c0,1.79-.66,2.48-1.62,1.92A4.34,4.34,0,0,1,33.27,47.7Zm2.4,1.4a2.55,2.55,0,0,0-.78-2.2c-.48-.28-.79.2-.79,1.29a2.66,2.66,0,0,0,.78,2.25C35.37,50.71,35.67,50.19,35.68,49.09Z"/><path class="cls-7" d="M37.17,47.25l.82.48L38.91,51l.35,1.41h0c0-.6-.1-1.41-.1-2.06V48.42l.76.44,0,5.47-.82-.48-.92-3.27-.34-1.39h0c0,.63.1,1.39.1,2v1.94l-.77-.45Z"/><path class="cls-7" d="M14.79,49.83a1.69,1.69,0,0,0-.59-.76c-.26-.15-.4-.08-.41.3,0,.8,1.44,1.57,1.43,3.17,0,.81-.29,1.26-.85,1.12v.87l-.53-.31v-.84a3.61,3.61,0,0,1-1-1.2l.35-.63a2.48,2.48,0,0,0,.78.94c.31.18.44.06.44-.32,0-.86-1.43-1.68-1.43-3.19,0-.82.32-1.21.83-1.07V47l.53.31v.85a3.08,3.08,0,0,1,.81,1.16Z"/><path class="cls-7" d="M17.06,54.17l.75.44V51.53l-.65-.38v-.76a1.31,1.31,0,0,0,.86,0l.59.34v4.33l.65.38v1l-2.2-1.28Z"/><path class="cls-7" d="M20.37,55.64a1.29,1.29,0,0,1,.48,1.06c0,.44-.21.65-.49.49a1.28,1.28,0,0,1-.48-1.05C19.89,55.69,20.1,55.48,20.37,55.64Z"/><path class="cls-7" d="M21.4,55c0-1.81.5-2.46,1.25-2s1.23,1.65,1.23,3.46-.5,2.5-1.24,2.07S21.39,56.81,21.4,55Zm1.72,1c0-1.46-.2-1.91-.47-2.07s-.48,0-.48,1.51.21,2,.47,2.11S23.11,57.45,23.11,56Z"/><path class="cls-7" d="M24.27,56.67c0-1.81.5-2.46,1.25-2s1.23,1.65,1.23,3.46-.5,2.5-1.24,2.07S24.26,58.48,24.27,56.67Zm1.72,1c0-1.46-.2-1.91-.47-2.07s-.48,0-.49,1.51.21,2,.47,2.11S26,59.12,26,57.67Z"/><path class="cls-7" d="M27.15,58.34c0-1.81.5-2.46,1.25-2s1.23,1.65,1.23,3.46-.5,2.5-1.24,2.07S27.14,60.15,27.15,58.34Zm1.71,1c0-1.46-.2-1.91-.47-2.07s-.48,0-.49,1.51.21,2,.47,2.11S28.86,60.79,28.86,59.34Z"/><path class="cls-7" d="M30.63,61.6a1.28,1.28,0,0,1,.48,1.06c0,.44-.21.65-.49.49a1.27,1.27,0,0,1-.48-1.05C30.15,61.66,30.35,61.44,30.63,61.6Z"/><path class="cls-7" d="M31.65,61c0-1.81.5-2.46,1.25-2s1.23,1.65,1.23,3.46-.5,2.5-1.25,2.07S31.65,62.77,31.65,61Zm1.72,1c0-1.46-.2-1.91-.47-2.07s-.48,0-.48,1.51.21,2,.47,2.11S33.37,63.41,33.37,62Z"/><path class="cls-7" d="M34.53,62.63c0-1.81.5-2.46,1.25-2S37,62.26,37,64.07s-.5,2.5-1.24,2.07S34.52,64.45,34.53,62.63Zm1.72,1c0-1.46-.2-1.91-.47-2.07s-.48,0-.48,1.51.21,2,.47,2.11S36.24,65.08,36.24,63.63Z"/><path class="cls-7" d="M37.4,64.3c0-1.81.5-2.46,1.25-2s1.23,1.65,1.23,3.46-.5,2.5-1.24,2.07S37.4,66.12,37.4,64.3Zm1.72,1c0-1.46-.2-1.91-.47-2.07s-.48,0-.49,1.51.21,2,.47,2.11S39.11,66.75,39.12,65.3Z"/><polygon class="cls-13" points="14.16 41.95 39.96 56.89 39.96 57.95 14.16 43.05 14.16 41.95"/><polygon class="cls-13" points="14.16 44.37 39.96 59.31 39.96 60.37 14.16 45.47 14.16 44.37"/><polygon class="cls-13" points="8.77 52.66 43.94 73 43.94 74.06 8.77 53.76 8.77 52.66"/><path class="cls-6" d="M59.85,49.57a18.65,18.65,0,0,0,2.83,6.07s-4.24,3.45-4.93,3.83a15.69,15.69,0,0,1-4,1.25c-2,.17-3.68.69-3.2,2.94.31,1.45,3.16,3.29,4.08,2.85s2.29-2.82,4-3.29c2-.55,5.19-1,6.76-2.17a7.49,7.49,0,0,0,2.42-2.33c.33-.8,0-1.7-.17-3.08-.5-3.59-1.23-7.45-1.23-7.45S60.47,47.89,59.85,49.57Z"/><path class="cls-4" d="M59.93,36.52c1.92-.07,3.58,1.84,5.15,6.38A24.17,24.17,0,0,1,66.59,49c-1.53,1.59-6.75,1.55-6.75,1.55s-.77-3.56-1.18-6C58,40.58,57.84,36.6,59.93,36.52Z"/><path class="cls-6" d="M1.35,28.79S0,29.06,0,31.26s1.24,3.95,2,4a2.41,2.41,0,0,0,1.84-3A9.62,9.62,0,0,0,1.35,28.79Z"/></g></g></svg>