<svg xmlns="http://www.w3.org/2000/svg" viewBox="0 0 50.46 92.41"><defs><style>.cls-1{fill:#d8d9d9;}.cls-1,.cls-2,.cls-3,.cls-6{fill-rule:evenodd;}.cls-2{fill:#ebebeb;}.cls-3{fill:#dd2a1b;}.cls-4{fill:#c3c4c4;}.cls-5{fill:#fefefe;}.cls-6{fill:#989898;}</style></defs><title>Ресурс 3</title><g id="Слой_2" data-name="Слой 2"><g id="Layer_1" data-name="Layer 1"><path class="cls-1" d="M4.87,0H45.94a4.53,4.53,0,0,1,4.52,4.52v56A4.5,4.5,0,0,1,45.94,65H40.65V87.08H36.38V65H28.86v9.28H21.63V65H15V80.73h4.59v5.93H15v2.51H7.83V86.66H3.25V80.73H7.83V65h-3A4.49,4.49,0,0,1,.35,60.48v-56A4.52,4.52,0,0,1,4.87,0Z"/><path class="cls-2" d="M4.87,3.85H45.94a.67.67,0,0,1,.67.67v56a.64.64,0,0,1-.67.64H4.87a.64.64,0,0,1-.67-.64v-56a.67.67,0,0,1,.67-.67Z"/><path class="cls-3" d="M46.61,18.84V60.48a.64.64,0,0,1-.67.64H39.73V85.7H37.29V61.11H27.17v8.68H23.32V61.11H13.44V80h-4V61.11H4.87a.64.64,0,0,1-.67-.64V18.84c17.85,5.75,27.42-6.88,42.41,0Z"/><rect class="cls-4" x="20.82" y="71.2" width="8.89" height="5.93"/><rect class="cls-5" x="8.75" y="30.34" width="33.31" height="12.6"/><polygon class="cls-6" points="9.42 89.16 13.44 89.16 13.44 85.81 19.62 85.81 19.62 81.79 13.44 81.79 13.44 79.95 9.42 79.95 9.42 81.79 3.25 81.79 3.25 85.81 9.42 85.81 9.42 89.16"/><path class="cls-2" d="M2.89,80H.35a.39.39,0,0,0-.35.39v6.56a.39.39,0,0,0,.35.39H2.89a.39.39,0,0,0,.35-.39V80.38A.39.39,0,0,0,2.89,80Z"/><path class="cls-2" d="M22.51,80H20a.39.39,0,0,0-.39.39v6.56a.39.39,0,0,0,.39.39h2.51a.36.36,0,0,0,.35-.39V80.38a.36.36,0,0,0-.35-.39Z"/><path class="cls-2" d="M15.88,92.05V89.51a.39.39,0,0,0-.39-.35H7.37a.39.39,0,0,0-.39.35v2.54a.39.39,0,0,0,.39.35h8.12a.39.39,0,0,0,.39-.35Z"/></g></g></svg>