<svg xmlns="http://www.w3.org/2000/svg" viewBox="0 0 71.4 103.66"><defs><style>.cls-1{fill:#f7d2a4;}.cls-1,.cls-2,.cls-3{fill-rule:evenodd;}.cls-2{fill:#dcbb92;}.cls-3{fill:#ffe3bb;}</style></defs><title>Ресурс 12</title><g id="Слой_2" data-name="Слой 2"><g id="Layer_1" data-name="Layer 1"><path class="cls-1" d="M35.53,0h0A4.47,4.47,0,0,1,40,4.45V40.22h3.35L45.2,12.14A4.46,4.46,0,0,1,49.93,8h0a4.48,4.48,0,0,1,4.13,4.73L52.22,40.47V54.69l9.7-15.21A5.14,5.14,0,0,1,69,37.89h0A5.15,5.15,0,0,1,70.6,45L52.22,73.88v1.55a9.94,9.94,0,0,1-8.33,9.77l0,.14v18.31H17.5V85.35a10,10,0,0,1-9.91-9.91V40.58L2.51,20.15a4.44,4.44,0,0,1,3.21-5.4h0A4.46,4.46,0,0,1,11.11,18l5.54,22.23h1.83L15.84,12.1a4.41,4.41,0,0,1,4-4.83h0a4.43,4.43,0,0,1,4.83,4l2.75,29h3.67V4.45A4.47,4.47,0,0,1,35.53,0Z"/><path class="cls-2" d="M11.47,83.3a9.91,9.91,0,0,1-3.88-7.87V71.27l.11.18a.77.77,0,0,0-.11-.18V66.58a4.6,4.6,0,0,1,1.69-1.8l.67-.39,7.34-15a2.51,2.51,0,0,1,3.35-1.13h0a2.53,2.53,0,0,1,1.16,3.35l-3.88,7.9,5.93-3.63,11.08-7.8a2.19,2.19,0,0,1,3,.49h0a2.2,2.2,0,0,1-.53,3L26.22,59.52l.85,1.38L42,51.8a2.18,2.18,0,0,1,3,.71h0a2.22,2.22,0,0,1-.74,3L29.32,64.6l1,1.52L43,59.91a2.18,2.18,0,0,1,2.93,1h0a2.19,2.19,0,0,1-1,2.89L32.53,69.86l.49.74,10.66-3.35a2.18,2.18,0,0,1,2.72,1.41h0A2.18,2.18,0,0,1,45,71.38l-9.81,3.1-14.5,8.86A4.85,4.85,0,0,1,14,81.75h0Z"/><path class="cls-3" d="M14.36,79.85h0A4.88,4.88,0,0,0,21,81.43l14.5-8.89,9.81-3.07a2.2,2.2,0,0,0,1.41-2.72h0A2.13,2.13,0,0,0,44,65.34L33.34,68.7l-.46-.78,12.38-6.07a2.13,2.13,0,0,0,1-2.89h0a2.15,2.15,0,0,0-2.89-1L30.63,64.22l-1-1.55,14.89-9.1a2.18,2.18,0,0,0,.74-3h0a2.22,2.22,0,0,0-3-.74L27.42,59l-.85-1.41,11.22-7.94a2.19,2.19,0,0,0,.53-3h0a2.2,2.2,0,0,0-3-.53L24.2,53.95l-5.93,3.63,3.88-7.9A2.56,2.56,0,0,0,21,46.29h0a2.53,2.53,0,0,0-3.35,1.16l-7.34,15-.67.42A4.85,4.85,0,0,0,8,69.51l-.42-.67L0,73.5l6.74,11Z"/></g></g></svg>