<svg xmlns="http://www.w3.org/2000/svg" viewBox="0 0 89.26 43.2"><defs><style>.cls-1{fill:#ebbc07;}.cls-1,.cls-2,.cls-3,.cls-5,.cls-6{fill-rule:evenodd;}.cls-2{fill:#fcc900;}.cls-3{fill:#bb9700;}.cls-4{fill:#feed8a;}.cls-5{fill:#ffd9a8;}.cls-6{fill:#e4c29a;}.cls-7{fill:#81d8df;}.cls-8{fill:#4d897b;}</style></defs><title>Ресурс 5</title><g id="Слой_2" data-name="Слой 2"><g id="Layer_1" data-name="Layer 1"><path class="cls-1" d="M52.68.21a14.66,14.66,0,0,1,0,28.9v.21H50.21A14.66,14.66,0,1,1,50.21,0h2.47Z"/><path class="cls-2" d="M52.68,0A14.66,14.66,0,1,1,38,14.68,14.66,14.66,0,0,1,52.68,0Z"/><path class="cls-3" d="M52.68,3.56A11.1,11.1,0,1,1,41.56,14.68,11.11,11.11,0,0,1,52.68,3.56Z"/><path class="cls-1" d="M51.8,25.72a11.09,11.09,0,0,1,0-22.12,11.09,11.09,0,0,1,0,22.12Z"/><path class="cls-4" d="M53.31,16.16V18.7a1.69,1.69,0,0,0,1-.39,1.19,1.19,0,0,0,0-1.69,2.3,2.3,0,0,0-1-.46ZM52,9.95a1.37,1.37,0,0,0-.88.39,1.17,1.17,0,0,0-.32.88,1.13,1.13,0,0,0,.28.81,1.49,1.49,0,0,0,.92.42Zm0,12.31V20.11h-.07a5.25,5.25,0,0,1-3-.71,2.25,2.25,0,0,1-1.06-2,1.6,1.6,0,0,1,.46-1.2,1.37,1.37,0,0,1,1.06-.49,1.44,1.44,0,0,1,1.06.42,1.33,1.33,0,0,1,.39,1,1.3,1.3,0,0,1-.21.74,1.15,1.15,0,0,1-.64.39,3.2,3.2,0,0,0,.78.39,3.94,3.94,0,0,0,1,.11H52V15.84a7.38,7.38,0,0,1-3.07-1.34A2.73,2.73,0,0,1,48,12.31a3.59,3.59,0,0,1,1.06-2.65A4.76,4.76,0,0,1,52,8.43V7.06h1.31V8.43A4.7,4.7,0,0,1,56,9.17a2.22,2.22,0,0,1,1,1.91,2,2,0,0,1-.39,1.2,1.34,1.34,0,0,1-1.06.46,1.47,1.47,0,0,1-1-.39,1.28,1.28,0,0,1-.39-.92,2.06,2.06,0,0,1,.14-.63,1.51,1.51,0,0,1,.46-.49,1.87,1.87,0,0,0-.6-.28,5.8,5.8,0,0,0-.81-.07v2.82a6.88,6.88,0,0,1,3.14,1.34,3,3,0,0,1,1,2.33,3.38,3.38,0,0,1-1.06,2.65,4.68,4.68,0,0,1-3,1v2.15Z"/><path class="cls-5" d="M10.73,21.38h.11c17.08-2.75,17.64-2.68,27.59,5.15,8.15-.42,15.28-.25,19.69,1.69,9.1-1.2,18.21-2.36,27.31-3.56,4.06-.25,6.07,4.62,0,6.56C52,40.12,51.76,47.91,17.22,39.76H10.73Z"/><path class="cls-6" d="M57.9,30.17c-2.68,3.28-12.6,4.94-18.38,3.74-3.81,2.29-8,1.73-12.38.64,2.82,2.12,6.77,2.86,12.56,1.34,8,1.45,16.87-.88,18.21-5.72Z"/><rect class="cls-7" x="6.84" y="20.15" width="3.88" height="20.71"/><rect class="cls-8" y="19.44" width="6.84" height="22.12"/></g></g></svg>