<svg xmlns="http://www.w3.org/2000/svg" viewBox="0 0 65.98 85.07"><defs><style>.cls-1,.cls-6{fill:#63b0b8;}.cls-1,.cls-2,.cls-4{fill-rule:evenodd;}.cls-2{fill:#81d8df;}.cls-3{fill:#40494c;}.cls-4{fill:#ffd9a8;}.cls-5{fill:#ebebeb;}</style></defs><title>Ресурс 2</title><g id="Слой_2" data-name="Слой 2"><g id="Layer_1" data-name="Layer 1"><path class="cls-1" d="M6.14,0h53.7A6.14,6.14,0,0,1,66,6.14V24.38a6.14,6.14,0,0,1-6.14,6.14H6.14A6.17,6.17,0,0,1,0,24.38V6.14A6.17,6.17,0,0,1,6.14,0Z"/><path class="cls-2" d="M6.14,2.26h53.7a3.87,3.87,0,0,1,3.88,3.88V24.38a3.89,3.89,0,0,1-3.88,3.88H6.14a3.92,3.92,0,0,1-3.88-3.88V6.14A3.89,3.89,0,0,1,6.14,2.26Z"/><path class="cls-1" d="M6.14,4.52h53.7a1.64,1.64,0,0,1,1.62,1.62V24.38A1.64,1.64,0,0,1,59.84,26H6.14a1.64,1.64,0,0,1-1.62-1.62V6.14A1.64,1.64,0,0,1,6.14,4.52Z"/><path class="cls-3" d="M10.58,22.23H14c2.19,0,3.25-1.23,3.25-3.46v-7c0-2.22-1.06-3.46-3.25-3.46H10.58ZM14,10.3c.67,0,1.09.35,1.09,1.34v7.23c0,1-.42,1.34-1.09,1.34H12.77V10.3Zm6.7,1.2c0-1,.42-1.38,1.13-1.38S23,10.51,23,11.5V19c0,1-.46,1.38-1.13,1.38S20.71,20,20.71,19Zm-2.19,7.37c0,2.22,1.16,3.49,3.32,3.49s3.32-1.27,3.32-3.49V11.64c0-2.22-1.2-3.49-3.32-3.49s-3.32,1.27-3.32,3.49Zm12.7,3.35h2.26V8.29H31.54v8.33L29.29,8.29H26.53V22.23h2V12.14ZM39.91,8.29H36.69L34.47,22.23h2l.39-2.54h2.68l.35,2.54h2.22Zm-1.73,2.47,1.06,7H37.12Zm3.56-.46H44V22.23h2.19V10.3h2.29v-2H41.74Zm9.91,0h3.78v-2h-6V22.23h6v-2H51.65V16.16h3v-2h-3Z"/><path class="cls-4" d="M31.54,24.13h0a3.73,3.73,0,0,1,3.74,3.7V41.32A3.73,3.73,0,0,1,39,37.61h0a3.7,3.7,0,0,1,3.7,3.7v3.49a3.76,3.76,0,0,1,3.74-3.74h0a3.76,3.76,0,0,1,3.74,3.74v3.67a3.73,3.73,0,0,1,3.7-3.74h0a3.76,3.76,0,0,1,3.74,3.74V63A8.88,8.88,0,0,1,53,70.81V75H30.59V69.4a9.38,9.38,0,0,1-2-2.82L16.72,51.2a4.34,4.34,0,0,1,.78-6h0a4.27,4.27,0,0,1,6,.78l4.34,5.61V27.84a3.7,3.7,0,0,1,3.7-3.7Z"/><rect class="cls-5" x="29.64" y="75.01" width="24.27" height="3.42"/><rect class="cls-6" x="28.69" y="78.43" width="26.15" height="6.63"/></g></g></svg>