<svg xmlns="http://www.w3.org/2000/svg" viewBox="0 0 81.86 72.61"><defs><style>.cls-1{fill:#63b0b8;}.cls-1,.cls-2,.cls-3{fill-rule:evenodd;}.cls-2{fill:#488790;}.cls-3{fill:#81d8df;}.cls-4{fill:#e31145;}</style></defs><title>Ресурс 7</title><g id="Слой_2" data-name="Слой 2"><g id="Layer_1" data-name="Layer 1"><path class="cls-1" d="M35,2.72a34.95,34.95,0,1,1-35,35,35,35,0,0,1,35-35Z"/><path class="cls-2" d="M35,2.72A34.92,34.92,0,0,1,69.9,36.87c-3.53,3.67-7.3,7.16-11,10.55L57.34,48.9l-1.59-1.48C49.86,42,43.68,36.31,38.67,30c-4.23-5.22-8.19-11.64-8.19-18.59a13,13,0,0,1,3.28-8.68c.39,0,.81,0,1.2,0Z"/><path class="cls-3" d="M35,2.72a36.92,36.92,0,0,1,6.56.6A25.29,25.29,0,0,1,53,12.63a35.73,35.73,0,0,1,2,3.21c.49-.42,1-.88,1.45-1.34.78-.81,1.52-1.62,2.22-2.51l.81.81c-.71.88-1.45,1.69-2.22,2.51-.56.53-1.13,1.06-1.73,1.55a45.09,45.09,0,0,1,4.8,20.22h9.56v1.16H60.37a45,45,0,0,1-4.8,20.22c.6.49,1.16,1,1.73,1.59a30.41,30.41,0,0,1,2.22,2.51c-.28.25-.53.53-.81.78-.71-.85-1.45-1.69-2.22-2.47-.49-.46-1-.92-1.45-1.38-.64,1.13-1.34,2.22-2,3.25A25.2,25.2,0,0,1,41.53,72a36.92,36.92,0,0,1-6.56.6A36.32,36.32,0,0,1,28.4,72a25,25,0,0,1-11.47-9.28,33.65,33.65,0,0,1-2-3.25c-.49.46-1,.92-1.45,1.38-.78.78-1.52,1.62-2.22,2.47-.28-.25-.53-.53-.81-.78a30.43,30.43,0,0,1,2.22-2.51c.56-.56,1.13-1.09,1.73-1.59a45,45,0,0,1-4.8-20.22H0V37.08H9.56a45.09,45.09,0,0,1,4.8-20.22c-.6-.49-1.16-1-1.73-1.55-.78-.81-1.52-1.62-2.22-2.51.25-.28.53-.53.81-.81.71.88,1.45,1.69,2.22,2.51.49.46,1,.92,1.45,1.34a29.31,29.31,0,0,1,2-3.21A25.11,25.11,0,0,1,28.4,3.32,36.32,36.32,0,0,1,35,2.72ZM52.08,13.3c-3.81-5.36-8.86-8.93-14.47-9.81,1.62,1.69,3,5,4.13,9.31a79,79,0,0,1,1.73,9.39,29.72,29.72,0,0,0,10.66-5.61,30.33,30.33,0,0,0-2-3.28Zm7.16,23.78a44.72,44.72,0,0,0-4.55-19.44,31.7,31.7,0,0,1-11.11,5.72,118.6,118.6,0,0,1,.78,13.73Zm-7.16,25a34.78,34.78,0,0,0,2-3.32,30.29,30.29,0,0,0-10.66-5.61,79,79,0,0,1-1.73,9.39c-1.09,4.38-2.51,7.62-4.13,9.31,5.61-.85,10.66-4.45,14.47-9.77Zm2.61-4.34a44.75,44.75,0,0,0,4.55-19.48H44.35A119.22,119.22,0,0,1,43.57,52a31.13,31.13,0,0,1,11.11,5.72ZM17.85,62.06c3.81,5.33,8.86,8.93,14.47,9.77-1.62-1.69-3-4.94-4.16-9.31a87.38,87.38,0,0,1-1.69-9.39,30.29,30.29,0,0,0-10.66,5.61,34.8,34.8,0,0,0,2,3.32ZM10.69,38.25a44.75,44.75,0,0,0,4.55,19.48A31.13,31.13,0,0,1,26.36,52a119.2,119.2,0,0,1-.78-13.76ZM17.85,13.3a30.34,30.34,0,0,0-2,3.28,29.72,29.72,0,0,0,10.66,5.61,87.39,87.39,0,0,1,1.69-9.39c1.13-4.34,2.54-7.62,4.16-9.31-5.61.88-10.66,4.45-14.47,9.81Zm-2.61,4.34a44.72,44.72,0,0,0-4.55,19.44H25.58a118.57,118.57,0,0,1,.78-13.73,31.7,31.7,0,0,1-11.11-5.72Zm25.4-4.55C39.13,7,37.12,3.28,35,3.28S30.8,7,29.29,13.09a72.29,72.29,0,0,0-1.69,9.42,31.73,31.73,0,0,0,7.37.88,31.72,31.72,0,0,0,7.37-.88,78.77,78.77,0,0,0-1.69-9.42Zm2.58,24a131.94,131.94,0,0,0-.74-13.44,31.31,31.31,0,0,1-7.52.92,31.09,31.09,0,0,1-7.52-.92,131.94,131.94,0,0,0-.74,13.44ZM40.65,62.24a79.41,79.41,0,0,0,1.69-9.39,30.1,30.1,0,0,0-14.75,0,72.79,72.79,0,0,0,1.69,9.39C30.8,68.31,32.81,72,35,72s4.16-3.74,5.68-9.81Zm1.83-10.55a131.37,131.37,0,0,0,.74-13.44H26.71a131.36,131.36,0,0,0,.74,13.44,32.46,32.46,0,0,1,15,0Z"/><path class="cls-4" d="M57.34,8.57C60.41,2.86,63.47,0,69.58,0c6.77,0,12.28,5.12,12.28,11.43,0,11.43-12.28,22.86-24.52,34.3C45.06,34.3,32.81,22.86,32.81,11.43,32.81,5.12,38.28,0,45.06,0c6.14,0,9.21,2.86,12.28,8.57Z"/></g></g></svg>