<svg xmlns="http://www.w3.org/2000/svg" viewBox="0 0 62.81 99.65"><defs><style>.cls-1,.cls-3{fill:#ffd9a8;}.cls-1,.cls-10,.cls-11,.cls-2,.cls-6,.cls-7,.cls-8,.cls-9{fill-rule:evenodd;}.cls-2{fill:#dcbb92;}.cls-4{fill:#81d8df;}.cls-5{fill:#40494c;}.cls-6{fill:#9db500;}.cls-7{fill:#7a8d00;}.cls-8{fill:#313130;}.cls-9{fill:#9e040c;}.cls-10{fill:#78060c;}.cls-11{fill:#2d1306;}</style></defs><title>Ресурс 13</title><g id="Слой_2" data-name="Слой 2"><g id="Layer_1" data-name="Layer 1"><path class="cls-1" d="M39.82,7.77h0a4.56,4.56,0,0,0-4.55,4.55V48.63a4.56,4.56,0,0,0,4.55,4.55h0a4.56,4.56,0,0,0,4.55-4.55V12.33a4.56,4.56,0,0,0-4.55-4.55Z"/><path class="cls-1" d="M29.2,4.49h0a4.73,4.73,0,0,0-4.55,4.87v39a4.73,4.73,0,0,0,4.55,4.87h0a4.7,4.7,0,0,0,4.52-4.87v-39A4.7,4.7,0,0,0,29.2,4.49Z"/><path class="cls-1" d="M18.58,7.77h0A4.56,4.56,0,0,0,14,12.33V48.63a4.56,4.56,0,0,0,4.55,4.55h0a4.56,4.56,0,0,0,4.52-4.55V12.33a4.56,4.56,0,0,0-4.52-4.55Z"/><path class="cls-1" d="M7.93,16.14h0a4.53,4.53,0,0,0-4.52,4.55V48.63a4.53,4.53,0,0,0,4.52,4.55h0a4.56,4.56,0,0,0,4.55-4.55V20.69a4.56,4.56,0,0,0-4.55-4.55Z"/><path class="cls-1" d="M61.84,50.25h0a4.53,4.53,0,0,0-6.35-.78L33.44,66.63A4.59,4.59,0,0,0,32.62,73h0a4.51,4.51,0,0,0,6.35.78L61.06,56.64a4.54,4.54,0,0,0,.78-6.39Z"/><path class="cls-1" d="M3.41,42.32h41V65.85A14.35,14.35,0,0,1,30,80.14H17.7A14.32,14.32,0,0,1,3.41,65.85Z"/><path class="cls-2" d="M3.41,42.32h41v4.8c-2.43,7.06-7.23,13.16-13.69,14.71a11.24,11.24,0,0,1-4.16.18h0l-1.09,2-1.41-1-.92,1.38-.92-1.38-1.41,1-1.09-2h0a11.24,11.24,0,0,1-4.16-.18c-5.29-1.27-9.46-5.57-12.1-11Z"/><rect class="cls-3" x="10.11" y="72.7" width="27.52" height="7.44"/><rect class="cls-4" x="7.4" y="80.14" width="32.95" height="5.12"/><rect class="cls-5" x="5.42" y="85.26" width="36.91" height="14.4"/><path class="cls-6" d="M22.43,12.22c4-11.54-11.22-17-22.3-7,12.1-.78,14.47,15.31,22.3,7Z"/><path class="cls-7" d="M.13,5.2c10-4.76,18.21-2.43,23.5,8.26.07.64-.25,2.08-.21,2.72C19.08,6.43,11.81,1.25.13,5.2Z"/><polygon class="cls-8" points="23.1 61.65 22.18 60.38 20.77 61.3 19.68 59.36 23.1 57.77 26.52 59.36 25.43 61.3 24.02 60.38 23.1 61.65"/><path class="cls-9" d="M23.1,57.77c-1.94,1.69-4.55,2-7.59,1.45C-4.53,54.63-8.27,9.5,23.1,21.85,54.46,9.5,50.72,54.63,30.68,59.22c-3,.6-5.65.25-7.59-1.45Z"/><path class="cls-10" d="M23.1,23c3,0,5.4-1.8,5.4-.71,0,4.2-10.76,4.16-10.76,0,0-1.09,2.4.71,5.36.71Z"/><path class="cls-11" d="M22.29,24c-1-7.2,1.06-12.49,4.2-17.18a4.75,4.75,0,0,1,3.35.63C27,11.37,24.16,15.15,23.66,24a1.37,1.37,0,0,1-1.38,0Z"/></g></g></svg>