<svg xmlns="http://www.w3.org/2000/svg" viewBox="0 0 67.55 101.55"><defs><style>.cls-1,.cls-2{fill:#ffd9a8;}.cls-1,.cls-5,.cls-6{fill-rule:evenodd;}.cls-3{fill:#ebebeb;}.cls-4{fill:#63b0b8;}.cls-5{fill:#e4c29a;}.cls-6{fill:#4a271a;}</style></defs><title>Ресурс 6</title><g id="Слой_2" data-name="Слой 2"><g id="Layer_1" data-name="Layer 1"><path class="cls-1" d="M41.42,3.74h0a5.16,5.16,0,0,0-5.15,5.19V50.21a5.16,5.16,0,0,0,5.15,5.15h0a5.18,5.18,0,0,0,5.15-5.15V8.93a5.19,5.19,0,0,0-5.15-5.19Z"/><path class="cls-1" d="M29.32,0h0a5.39,5.39,0,0,0-5.15,5.54V49.82a5.36,5.36,0,0,0,5.15,5.54h0a5.37,5.37,0,0,0,5.19-5.54V5.54A5.39,5.39,0,0,0,29.32,0Z"/><path class="cls-1" d="M17.25,3.74h0a5.2,5.2,0,0,0-5.19,5.19V50.21a5.19,5.19,0,0,0,5.19,5.15h0a5.18,5.18,0,0,0,5.15-5.15V8.93a5.19,5.19,0,0,0-5.15-5.19Z"/><path class="cls-1" d="M5.15,13.27h0A5.18,5.18,0,0,0,0,18.42V50.21a5.18,5.18,0,0,0,5.15,5.15h0a5.16,5.16,0,0,0,5.15-5.15V18.42a5.16,5.16,0,0,0-5.15-5.15Z"/><path class="cls-1" d="M66.47,52.08h0a5.16,5.16,0,0,0-7.23-.92L34.15,70.67a5.13,5.13,0,0,0-.92,7.23h0a5.16,5.16,0,0,0,7.23.92L65.56,59.31a5.16,5.16,0,0,0,.92-7.23Z"/><path class="cls-1" d="M0,43H46.57V69.79A16.32,16.32,0,0,1,30.31,86.06h-14A16.32,16.32,0,0,1,0,69.79Z"/><rect class="cls-2" x="7.66" y="77.55" width="31.26" height="8.5"/><rect class="cls-3" x="4.55" y="86.06" width="37.47" height="5.79"/><rect class="cls-4" x="2.33" y="91.84" width="41.92" height="9.7"/><path class="cls-5" d="M36.09,57.9C38.85,71,27.42,60.55,24,60.58c-3.21,0-15.1,10.44-12.35-2.68,4.66-21.38,19.79-21.42,24.45,0ZM15.35,23c2.82-.88,6,1.73,7.09,5.82s-.32,8.15-3.18,9-6-1.73-7.09-5.82.32-8.15,3.18-9Zm17,0c-2.82-.88-6,1.73-7.09,5.82s.32,8.15,3.18,9,6-1.73,7.09-5.82-.32-8.15-3.18-9ZM3.81,36.06c2.26-2.08,6.14-1.16,8.71,2s2.89,7.55.64,9.63S7,48.9,4.45,45.69s-2.86-7.55-.64-9.63Zm40.12,0c-2.22-2.08-6.14-1.16-8.71,2s-2.89,7.55-.64,9.63,6.14,1.16,8.71-2,2.86-7.55.64-9.63Z"/><path class="cls-6" d="M36.09,55.25c2.75,12.1-8.68,2.47-12.1,2.51-3.21,0-15.1,9.67-12.35-2.51,4.66-19.76,19.79-19.79,24.45,0ZM15.35,23c2.82-.85,6,1.59,7.09,5.4s-.32,7.52-3.18,8.33-6-1.59-7.09-5.4.32-7.52,3.18-8.33Zm17,0c-2.82-.85-6,1.59-7.09,5.4s.32,7.52,3.18,8.33,6-1.59,7.09-5.4-.32-7.52-3.18-8.33ZM3.81,35.07C6.07,33.13,9.95,34,12.53,37s2.89,7,.64,8.89S7,47,4.45,44s-2.86-7-.64-8.89Zm40.12,0C41.7,33.13,37.79,34,35.21,37s-2.89,7-.64,8.89S40.72,47,43.29,44s2.86-7,.64-8.89Z"/></g></g></svg>