<svg xmlns="http://www.w3.org/2000/svg" viewBox="0 0 95.29 73.53"><defs><style>.cls-1{fill:#ffd9a8;}.cls-1,.cls-2,.cls-4{fill-rule:evenodd;}.cls-2{fill:#dcbb92;}.cls-3{fill:#9e040c;}.cls-4{fill:#fefefe;}</style></defs><title>Ресурс 16</title><g id="Слой_2" data-name="Слой 2"><g id="Layer_1" data-name="Layer 1"><path class="cls-1" d="M45.5,73.53A25.29,25.29,0,0,1,44,63.93c0-7.27-4.9-12.45-12-14.71C26.2,44.39,19.85,36.94,14.94,37.93Q10.39,30.68,5.8,23.5C2.95,19.19-1.57,21.38.55,26Q6.26,38.76,12,51.44c2.36,4.59,8.26,7.23,13.69,10.13a29.14,29.14,0,0,1,7.27,12Z"/><path class="cls-1" d="M49.8,73.53a26,26,0,0,0,1.45-9.6c0-7.27,4.94-12.45,12-14.71,5.86-4.83,12.17-12.28,17.08-11.29q4.6-7.25,9.14-14.43c2.89-4.3,7.37-2.12,5.29,2.51-3.85,8.5-7.66,17-11.5,25.44C80.89,56,75,58.68,69.56,61.57a28.77,28.77,0,0,0-7.27,12Z"/><path class="cls-2" d="M14.55,39.41c-.28,5.33,7.9,9.95,12,13.16a6.18,6.18,0,0,1,2.22,5.86A12,12,0,0,0,25.56,53c-3.56-2.86-13.87-8.82-11-13.58Z"/><path class="cls-2" d="M80.75,39.41c.28,5.33-7.9,9.95-12,13.16a6,6,0,0,0-2.22,5.86A12,12,0,0,1,69.7,53c3.6-2.86,13.87-8.82,11-13.58Z"/><path class="cls-3" d="M49.13,0C55.24,13.83,63.6,22.19,63.6,29.57c0,19.94-28.9,19.94-28.9,0,0-7.37,7-16.12,14.43-29.57Z"/><polygon class="cls-4" points="46.91 19.19 51.39 19.19 51.39 26.25 58.45 26.25 58.45 30.7 51.39 30.7 51.39 37.75 46.91 37.75 46.91 30.7 39.85 30.7 39.85 26.25 46.91 26.25 46.91 19.19"/></g></g></svg>