<svg xmlns="http://www.w3.org/2000/svg" viewBox="0 0 90.07 61.68"><defs><style>.cls-1{fill:#fffadd;}.cls-1,.cls-2,.cls-3,.cls-6,.cls-7,.cls-8,.cls-9{fill-rule:evenodd;}.cls-2{fill:#e7e3c5;}.cls-3,.cls-4{fill:#4a271a;}.cls-5{fill:#63b0b8;}.cls-6{fill:#81d8df;}.cls-7{fill:#2d1306;}.cls-8{fill:#ffd9a8;}.cls-9{fill:#e4c29a;}.cls-10{fill:#ebebeb;}.cls-11{fill:#40494c;}</style></defs><title>Ресурс 9</title><g id="Слой_2" data-name="Слой 2"><g id="Layer_1" data-name="Layer 1"><polygon class="cls-1" points="39.02 20.22 54.3 6.32 69.61 20.22 69.61 46.75 39.02 46.75 39.02 20.22"/><polygon class="cls-2" points="39.02 20.22 54.3 6.32 69.61 20.22 69.61 25.23 54.3 9.91 39.02 25.23 39.02 20.22"/><polygon class="cls-3" points="54.3 0 75.93 21.63 72.08 25.51 54.3 7.73 36.55 25.51 32.67 21.63 54.3 0"/><rect class="cls-4" x="49.68" y="33.91" width="9.24" height="12.84"/><rect class="cls-4" x="49.04" y="18.14" width="10.55" height="10.55"/><rect class="cls-5" x="50.46" y="19.55" width="7.73" height="7.69"/><polygon class="cls-6" points="53.88 19.55 54.76 19.55 54.76 22.97 58.18 22.97 58.18 23.85 54.76 23.85 54.76 27.24 53.88 27.24 53.88 23.85 50.45 23.85 50.45 22.97 53.88 22.97 53.88 19.55"/><path class="cls-7" d="M50.49,38.56h3.46V42H50.49V38.56Zm4.16,0h3.46V42H54.65V38.56Zm-4.16,3.92h3.46v3.46H50.49Zm4.16,0h3.46v3.46H54.65Zm-4.16-7.83h3.46v3.46H50.49Zm4.16,0h3.46v3.46H54.65Z"/><polygon class="cls-7" points="62.13 3.49 70.07 3.49 70.07 15.74 62.13 7.83 62.13 3.49"/><rect class="cls-4" x="60.83" y="1.06" width="10.55" height="2.43"/><path class="cls-8" d="M10.83,39.66H11c17.22-2.75,17.78-2.72,27.8,5.22,8.22-.46,15.45-.25,19.86,1.69L86.2,43c4.09-.25,6.14,4.66,0,6.63-33.66,9-33.94,16.83-68.8,8.61H10.83Z"/><path class="cls-9" d="M58.43,48.51c-2.68,3.35-12.7,5-18.52,3.81-3.85,2.33-8.15,1.73-12.49.63,2.82,2.15,6.81,2.86,12.67,1.34,8.08,1.45,17-.88,18.35-5.79Z"/><rect class="cls-10" x="6.92" y="38.71" width="3.92" height="20.36"/><rect class="cls-11" y="37.72" width="6.92" height="22.33"/></g></g></svg>