<svg xmlns="http://www.w3.org/2000/svg" viewBox="0 0 66.11 99.36"><defs><style>.cls-1,.cls-2{fill:#ffd9a8;}.cls-1{fill-rule:evenodd;}.cls-3{fill:#ebebeb;}.cls-4{fill:#63b0b8;}.cls-5{fill:#e4c29a;}.cls-6{fill:#e31145;}</style></defs><title>Ресурс 8</title><g id="Слой_2" data-name="Слой 2"><g id="Layer_1" data-name="Layer 1"><path class="cls-1" d="M40.54,3.67h0a5.07,5.07,0,0,0-5,5v40.4a5,5,0,0,0,5,5h0a5.07,5.07,0,0,0,5-5V8.72a5.09,5.09,0,0,0-5-5Z"/><path class="cls-1" d="M28.72,0h0a5.28,5.28,0,0,0-5.08,5.43V48.76a5.27,5.27,0,0,0,5.08,5.4h0a5.26,5.26,0,0,0,5-5.4V5.43a5.27,5.27,0,0,0-5-5.43Z"/><path class="cls-1" d="M16.87,3.67h0a5.09,5.09,0,0,0-5,5v40.4a5.07,5.07,0,0,0,5,5h0a5.07,5.07,0,0,0,5.08-5V8.72a5.1,5.1,0,0,0-5.08-5Z"/><path class="cls-1" d="M5,13H5a5.07,5.07,0,0,0-5,5V49.11a5.07,5.07,0,0,0,5,5H5a5,5,0,0,0,5-5V18a5,5,0,0,0-5-5Z"/><path class="cls-1" d="M65.06,50.95h0A5.06,5.06,0,0,0,58,50.07L33.41,69.16a5.05,5.05,0,0,0-.88,7.09h0a5.08,5.08,0,0,0,7.09.88L64.15,58a5.06,5.06,0,0,0,.92-7.09Z"/><path class="cls-1" d="M0,42.09H45.59V68.27A16,16,0,0,1,29.67,84.19H15.91A16,16,0,0,1,0,68.27Z"/><rect class="cls-2" x="7.48" y="75.89" width="30.63" height="8.29"/><rect class="cls-3" x="4.48" y="84.19" width="36.62" height="5.68"/><rect class="cls-4" x="2.26" y="89.87" width="41.07" height="9.49"/><path class="cls-5" d="M22.79,37.68c2.51-5.36,5-8,10-8,5.54,0,10,4.76,10,10.66,0,10.69-10,21.35-20,32-10-10.66-20-21.31-20-32,0-5.89,4.48-10.66,10-10.66,5,0,7.52,2.65,10,8Z"/><path class="cls-6" d="M22.79,37c2.51-4.9,5-7.34,10-7.34a9.9,9.9,0,0,1,10,9.77c0,9.77-10,19.55-20,29.32-10-9.77-20-19.55-20-29.32a9.9,9.9,0,0,1,10-9.77c5,0,7.52,2.43,10,7.34Z"/></g></g></svg>