<svg xmlns="http://www.w3.org/2000/svg" viewBox="0 0 99.39 69.68"><defs><style>.cls-1{fill:#e31145;}.cls-2{fill:#ffd9a8;}.cls-2,.cls-3{fill-rule:evenodd;}.cls-3{fill:#dcbb92;}</style></defs><title>Ресурс 14</title><g id="Слой_2" data-name="Слой 2"><g id="Layer_1" data-name="Layer 1"><path class="cls-1" d="M49.68,9c3.25-6,6.46-9,12.91-9,7.09,0,12.88,5.4,12.88,12,0,12-12.88,24-25.79,36.06-12.88-12-25.76-24-25.76-36.06,0-6.63,5.75-12,12.88-12,6.46,0,9.67,3,12.88,9Z"/><path class="cls-2" d="M47.46,69.68a26.59,26.59,0,0,1-1.55-10c.07-7.59-5.12-12.95-12.49-15.35-6.1-5-12.7-12.81-17.82-11.78l-9.53-15C3,13-1.62,15.31.57,20.11q6,13.28,12,26.57C15,51.41,21.17,54.2,26.82,57.23a30.52,30.52,0,0,1,7.62,12.46Z"/><path class="cls-2" d="M51.94,69.68a26.59,26.59,0,0,0,1.52-10c0-7.59,5.15-12.95,12.53-15.35,6.1-5,12.7-12.81,17.82-11.78l9.53-15c3-4.48,7.69-2.19,5.5,2.61q-6,13.28-12,26.57c-2.47,4.73-8.61,7.52-14.29,10.55A30.43,30.43,0,0,0,65,69.68Z"/><path class="cls-3" d="M15.17,34.12c-.28,5.54,8.26,10.37,12.49,13.69A6.44,6.44,0,0,1,30,53.91c-.74-2-1.48-4.06-3.28-5.65-3.74-3-14.47-9.17-11.5-14.15Z"/><path class="cls-3" d="M84.19,34.12C84.5,39.66,76,44.49,71.73,47.81a6.47,6.47,0,0,0-2.33,6.1c.78-2,1.48-4.06,3.32-5.65,3.7-3,14.47-9.17,11.47-14.15Z"/></g></g></svg>