<svg xmlns="http://www.w3.org/2000/svg" viewBox="0 0 61.68 86.83"><defs><style>.cls-1{fill:#63b0b8;}.cls-2,.cls-3{fill:#81d8df;}.cls-3,.cls-4,.cls-5,.cls-6{fill-rule:evenodd;}.cls-4{fill:#40494c;}.cls-5{fill:#9db500;}.cls-6{fill:#bbd700;}</style></defs><title>Ресурс 4</title><g id="Слой_2" data-name="Слой 2"><g id="Layer_1" data-name="Layer 1"><rect class="cls-1" y="35.71" width="61.68" height="51.13"/><rect class="cls-2" x="5.4" y="41.11" width="50.84" height="40.29"/><path class="cls-3" d="M0,35.71H61.68c-2-2.33-3.74-4.41-5.29-6.21-1.38-1.62-2.61-3.1-3.74-4.41H9C7.9,26.39,6.67,27.87,5.29,29.5,3.74,31.3,2,33.38,0,35.71Z"/><path class="cls-4" d="M12.81,29.6h36a.83.83,0,0,1,.85.81h0a.86.86,0,0,1-.85.85h-36a.85.85,0,0,1-.81-.85h0a.82.82,0,0,1,.81-.81Z"/><path class="cls-1" d="M31.93,63.83l0,4.3a2.82,2.82,0,0,0,1.73-.6A2,2,0,0,0,34.3,66a1.84,1.84,0,0,0-.6-1.38,3.3,3.3,0,0,0-1.76-.81ZM29.71,53.17a2.41,2.41,0,0,0-1.52.64,2.15,2.15,0,0,0-.53,1.52,2,2,0,0,0,.46,1.41,2.79,2.79,0,0,0,1.59.74Zm0,21.13V70.6H29.6a9.12,9.12,0,0,1-5.15-1.2,3.91,3.91,0,0,1-1.76-3.46,3,3,0,0,1,.74-2.08,2.36,2.36,0,0,1,1.87-.81,2.39,2.39,0,0,1,1.76.67,2.32,2.32,0,0,1,.71,1.69,2.26,2.26,0,0,1-.35,1.27,2,2,0,0,1-1.09.71,4.09,4.09,0,0,0,1.31.64,5.91,5.91,0,0,0,1.66.21h.42v-5a12,12,0,0,1-5.29-2.33,4.68,4.68,0,0,1-1.59-3.74,6.12,6.12,0,0,1,1.83-4.52,8.18,8.18,0,0,1,5-2.12V48.2h2.22l0,2.33a8.8,8.8,0,0,1,4.66,1.31,3.76,3.76,0,0,1,1.62,3.25,3,3,0,0,1-.71,2,2.28,2.28,0,0,1-1.8.81A2.43,2.43,0,0,1,34,57.3a2.28,2.28,0,0,1-.42-2.65,2.7,2.7,0,0,1,.78-.92,4.79,4.79,0,0,0-1.06-.46,5.5,5.5,0,0,0-1.38-.14V58a11.37,11.37,0,0,1,5.36,2.29,5,5,0,0,1,1.66,4,5.73,5.73,0,0,1-1.83,4.52,7.64,7.64,0,0,1-5.19,1.76v3.7Z"/><polygon class="cls-5" points="46.08 26.64 41.49 31.26 19.23 31.26 3.71 15.74 19.44 0 46.08 26.64"/><path class="cls-6" d="M39.73,29.5,38,31.26H35.6a.48.48,0,0,0-.18-.32l-4.83-4.83a.5.5,0,0,0-.78,0h0a.54.54,0,0,0,0,.81l4.34,4.34H22.72L10.09,18.59a4.09,4.09,0,0,0,0-5.72l6.49-6.49a4.09,4.09,0,0,0,5.72,0L39.73,23.78a4,4,0,0,0,0,5.72ZM29,17.11a5.79,5.79,0,1,1-8.19,8.19A5.79,5.79,0,0,1,29,17.11ZM24.59,22l-.92.92a.67.67,0,0,0,.49.25.74.74,0,0,0,.46-.18.73.73,0,0,0,.18-.42,1,1,0,0,0-.21-.56Zm1.8-2.75a.69.69,0,0,0-.46-.18.62.62,0,0,0-.46.21.57.57,0,0,0-.18.39.77.77,0,0,0,.18.49Zm-4.52,4.52.78-.78v0a2.78,2.78,0,0,1-.85-1.34,1.24,1.24,0,0,1,.35-1.13.87.87,0,0,1,.6-.28.59.59,0,0,1,.56.21.69.69,0,0,1,0,1,.54.54,0,0,1-.35.21.76.76,0,0,1-.39-.07,1.26,1.26,0,0,0,.14.39,1.66,1.66,0,0,0,.32.42l.11.07,1.06-1.06a3.3,3.3,0,0,1-.64-1.62,1.31,1.31,0,0,1,.46-1.13,1.71,1.71,0,0,1,1.34-.56,2.61,2.61,0,0,1,1.55.6l.49-.49.46.49-.49.49a2.69,2.69,0,0,1,.74,1.27,1.13,1.13,0,0,1-.35,1,.87.87,0,0,1-.6.28.53.53,0,0,1-.53-.21.62.62,0,0,1-.25-.49.7.7,0,0,1,.21-.49.77.77,0,0,1,.28-.18,1.18,1.18,0,0,1,.35,0,1.25,1.25,0,0,0-.14-.32,1.27,1.27,0,0,0-.25-.35l-1.06,1.06a3.52,3.52,0,0,1,.67,1.62A1.63,1.63,0,0,1,26,23.6a1.71,1.71,0,0,1-1.34.56,2.47,2.47,0,0,1-1.48-.74l-.81.81ZM15,10.51l4.83,4.83a.6.6,0,0,1,0,.81h0a.6.6,0,0,1-.81,0l-4.83-4.83a.6.6,0,0,1,0-.81h0a.6.6,0,0,1,.81,0Z"/></g></g></svg>