<svg xmlns="http://www.w3.org/2000/svg" viewBox="0 0 86.89 74.99"><defs><style>.cls-1{fill:#b8625d;}.cls-1,.cls-2,.cls-3,.cls-5,.cls-6{fill-rule:evenodd;}.cls-2{fill:#ff918c;}.cls-3{fill:#ec7f7a;}.cls-4{fill:#313130;}.cls-5{fill:#fcc900;}.cls-6{fill:#ebbc07;}.cls-7{fill:#bb9700;}</style></defs><title>Ресурс 15</title><g id="Слой_2" data-name="Слой 2"><g id="Layer_1" data-name="Layer 1"><path class="cls-1" d="M76.83,30.41c2.86-6,1.59-7.48-5-7.55L70.16,23a18.83,18.83,0,0,1,6.67,7.44Z"/><path class="cls-2" d="M58.72,20.43C24.71.56-6.51,21.1,1.18,58a26.9,26.9,0,0,0,3,15c1.09,2.33,10.06,3.28,10.37-.88a11.87,11.87,0,0,1,5.33-8.93C28.1,65.87,36,66.37,43.59,64.29a17.47,17.47,0,0,1,4.48,7c1.41,4,4.55,4.06,8.26,3.46a4.5,4.5,0,0,0,3.81-3.63,33.73,33.73,0,0,0,.25-11.33c6.92.6,12.74-.74,16.12-6.49a25.2,25.2,0,0,1,7.06-3.81c1.76-.46,3.18-1.83,3.28-5.22V40.4c.32-2.29-1-4.06-2.4-4.3l-5.54-.85c-3.35-10-9.77-15.38-20.18-14.82Z"/><path class="cls-3" d="M19.84,63.19C28.1,65.87,36,66.37,43.59,64.29A12.19,12.19,0,0,0,40,60.65c-1.8-1.27-1.87-1.52-3.92-1.2a37.72,37.72,0,0,1-10.16,0c-1.76-.21-1.69-.46-3.25.6a8.13,8.13,0,0,0-2.82,3.18Z"/><path class="cls-3" d="M58.2,27.27C58,32,59.75,36.2,63.73,38.49s4.73,1.09,7-2.68a26.72,26.72,0,0,0,2.68-6.39c2.75-9.6,1.83-11.33-5.68-9.74a31.27,31.27,0,0,0-7.62,3.14c-2,1.16-1.8,2-1.91,4.45Z"/><path class="cls-4" d="M20.72,22.55a1.64,1.64,0,1,1-1-3.14,48.36,48.36,0,0,1,14.11-2.29,42.43,42.43,0,0,1,13.83,2.29,1.63,1.63,0,0,1,1,2.08,1.65,1.65,0,0,1-2.08,1.06,39,39,0,0,0-12.77-2.12,44.56,44.56,0,0,0-13.16,2.12Z"/><path class="cls-5" d="M33.71,0A13.36,13.36,0,0,1,45.18,20.18a40.46,40.46,0,0,0-22.9,0A13.35,13.35,0,0,1,33.71,0Z"/><path class="cls-6" d="M33.71,3.56a9.77,9.77,0,0,1,9.77,9.77,9.62,9.62,0,0,1-2,5.93A40.16,40.16,0,0,0,26,19.34,9.78,9.78,0,0,1,33.71,3.56Z"/><path class="cls-7" d="M34.31,14.68V17a1.35,1.35,0,0,0,.88-.35,1,1,0,0,0,.32-.78,1,1,0,0,0-.32-.74,2.05,2.05,0,0,0-.88-.42ZM33.14,9.1a1.32,1.32,0,0,0-.81.32,1.19,1.19,0,0,0-.28.81,1,1,0,0,0,.25.74,1.58,1.58,0,0,0,.85.39Zm0,9.46v-.32h-.07a4.7,4.7,0,0,1-2.68-.64,2,2,0,0,1-.92-1.8,1.49,1.49,0,0,1,.39-1.09,1.29,1.29,0,0,1,2.26.81,1,1,0,0,1-.21.67,1,1,0,0,1-.56.39,2.55,2.55,0,0,0,.71.32,3.09,3.09,0,0,0,.85.11h.25V14.4a6.93,6.93,0,0,1-2.79-1.2,2.6,2.6,0,0,1-.81-2,3.22,3.22,0,0,1,1-2.4,4.14,4.14,0,0,1,2.65-1.09V6.49h1.16v1.2a4.53,4.53,0,0,1,2.43.71,1.93,1.93,0,0,1,.85,1.69,1.66,1.66,0,0,1-.39,1.09,1.09,1.09,0,0,1-.92.42,1.41,1.41,0,0,1-.92-.35,1.17,1.17,0,0,1-.35-.85.92.92,0,0,1,.14-.53,1.72,1.72,0,0,1,.39-.49A1.85,1.85,0,0,0,35,9.14a4.35,4.35,0,0,0-.71-.07v2.58a5.87,5.87,0,0,1,2.79,1.2A2.76,2.76,0,0,1,37.94,15a3,3,0,0,1-1,2.36,3.9,3.9,0,0,1-2.68.92v.32Z"/></g></g></svg>