<svg xmlns="http://www.w3.org/2000/svg" viewBox="0 0 89.06 65.9"><defs><style>.cls-1,.cls-5{fill:#fff4b3;}.cls-1,.cls-6,.cls-7,.cls-8{fill-rule:evenodd;}.cls-2{fill:#bbd700;}.cls-3{fill:#9db500;}.cls-4,.cls-6{fill:#fffadd;}.cls-7{fill:#ffd9a8;}.cls-8{fill:#e4c29a;}.cls-9{fill:#81d8df;}.cls-10{fill:#313130;}</style></defs><title>Ресурс 10</title><g id="Слой_2" data-name="Слой 2"><g id="Layer_1" data-name="Layer 1"><path class="cls-1" d="M35.28.7C37-1,41.25.49,44.77,4.05s5,7.76,3.35,9.49-6,.21-9.53-3.32-5-7.8-3.32-9.53Zm3.49,3.49c1.06-1.06,3.74-.14,6,2.08s3.14,4.9,2.08,6-3.74.14-6-2.08-3.18-4.9-2.08-6ZM62.35.7c-1.69-1.69-6-.21-9.49,3.35s-5,7.76-3.32,9.49,6,.21,9.49-3.32S64,2.43,62.35.7ZM58.89,4.19c-1.09-1.06-3.74-.14-6,2.08s-3.18,4.9-2.08,6,3.74.14,6-2.08,3.14-4.9,2.08-6Z"/><rect class="cls-2" x="28.93" y="24.23" width="39.76" height="28.02"/><rect class="cls-3" x="27.7" y="12.48" width="42.23" height="11.75"/><rect class="cls-4" x="45.83" y="24.23" width="5.96" height="28.02"/><rect class="cls-5" x="45.23" y="12.48" width="7.16" height="11.75"/><path class="cls-6" d="M45.8,12.48h6V9.91a1,1,0,0,0-1-1h-4a1,1,0,0,0-1,1Z"/><path class="cls-7" d="M10.73,44.13h.11c17-2.75,17.61-2.68,27.52,5.15C46.47,48.83,53.63,49,58,50.94c9.07-1.16,18.14-2.36,27.24-3.53,4.06-.28,6,4.59,0,6.53C52,62.83,51.69,70.6,17.22,62.48H10.73Z"/><path class="cls-8" d="M57.79,52.88c-2.68,3.28-12.6,4.94-18.35,3.74-3.81,2.29-8,1.73-12.35.64,2.79,2.12,6.74,2.82,12.53,1.34,8,1.45,16.83-.88,18.17-5.72Z"/><rect class="cls-9" x="6.85" y="42.9" width="3.88" height="20.68"/><rect class="cls-10" y="42.19" width="6.85" height="22.09"/></g></g></svg>