<svg xmlns="http://www.w3.org/2000/svg" viewBox="0 0 92.11 66.75"><defs><style>.cls-1{fill:#ffd9a8;}.cls-1,.cls-10,.cls-12,.cls-2,.cls-7,.cls-8,.cls-9{fill-rule:evenodd;}.cls-2{fill:#e4c29a;}.cls-3{fill:#ebebeb;}.cls-4,.cls-8{fill:#63b0b8;}.cls-5{fill:#40494c;}.cls-6{fill:#30373a;}.cls-11,.cls-7{fill:#4f99a3;}.cls-9{fill:#4d4d4d;}.cls-10{fill:#313130;}.cls-12{fill:#498c96;}</style></defs><title>Ресурс 11</title><g id="Слой_2" data-name="Слой 2"><g id="Layer_1" data-name="Layer 1"><path class="cls-1" d="M11.08,44.21h.11c17.61-2.82,18.21-2.75,28.47,5.33,8.4-.42,15.77-.25,20.32,1.76q14.08-1.85,28.16-3.67c4.2-.28,6.28,4.73,0,6.77-34.4,9.17-34.72,17.22-70.35,8.79h-6.7Z"/><path class="cls-2" d="M59.77,53.28c-2.79,3.42-13,5.12-19,3.88-4,2.36-8.33,1.76-12.77.67C30.91,60,35,60.76,41,59.17c8.29,1.52,17.39-.88,18.81-5.89Z"/><rect class="cls-3" x="7.06" y="43.22" width="4.02" height="20.82"/><rect class="cls-4" y="42.23" width="7.06" height="22.83"/><polygon class="cls-5" points="31.9 20.96 26.11 10.83 14.25 10.83 14.25 9.35 26.57 9.35 26.99 9.35 27.2 9.7 33.2 20.18 31.9 20.96"/><path class="cls-5" d="M46.75,39.38,50,36.09l-10-8.68,1-1.13L51.05,35l6.74-6.81,1.09,1.06L52.18,36l4.16,3.6a4.94,4.94,0,0,0-1,1.13l-4.23-3.67-3.32,3.35a7.5,7.5,0,0,0-1.06-1.06Z"/><polygon class="cls-6" points="49.29 35.49 39.94 27.41 40.93 26.29 51.05 35.04 57.79 28.23 58.89 29.29 52.68 35.49 49.29 35.49"/><path class="cls-7" d="M30.8,19.72H72.61A14.19,14.19,0,0,1,58.46,33.87H45A14.17,14.17,0,0,1,30.8,19.72Z"/><path class="cls-8" d="M64.18,2.36A30.72,30.72,0,0,1,51.9,0c.07,6.6.14,13.16.21,19.72L64.18,2.36Z"/><path class="cls-7" d="M71.45,9.63a22,22,0,0,1-7.27-7.27L52.11,19.72C58.57,16.37,65,13,71.45,9.63Z"/><path class="cls-8" d="M52.11,19.72h20.5A15.54,15.54,0,0,1,71.45,9.63C65,13,58.57,16.37,52.11,19.72Z"/><path class="cls-9" d="M43.54,39.8a3.88,3.88,0,1,1-3.88,3.88,3.89,3.89,0,0,1,3.88-3.88Zm0-1.48a5.36,5.36,0,1,1-5.36,5.36,5.36,5.36,0,0,1,5.36-5.36Zm16.3,1.48A3.88,3.88,0,1,1,56,43.68a3.87,3.87,0,0,1,3.85-3.88Zm0-1.48a5.36,5.36,0,1,1-5.36,5.36,5.39,5.39,0,0,1,5.36-5.36Z"/><path class="cls-10" d="M43.54,42.38a1.31,1.31,0,1,1-1.31,1.31,1.3,1.3,0,0,1,1.31-1.31Z"/><path class="cls-10" d="M59.84,42.38a1.31,1.31,0,1,1-1.27,1.31,1.3,1.3,0,0,1,1.27-1.31Z"/><rect class="cls-4" x="13.65" y="8.57" width="1.09" height="3"/><rect class="cls-11" x="14.75" y="9.03" width="4.48" height="2.12"/><rect class="cls-4" x="19.23" y="8.57" width="1.09" height="3"/><path class="cls-12" d="M30.27,19.72H73.11v1.87A1.14,1.14,0,0,1,72,22.72H31.4a1.14,1.14,0,0,1-1.13-1.13Z"/></g></g></svg>