<svg xmlns="http://www.w3.org/2000/svg" viewBox="0 0 53.45 90.5"><defs><style>.cls-1{fill:#ff60a3;}.cls-1,.cls-2,.cls-3,.cls-4{fill-rule:evenodd;}.cls-2{fill:#ff2977;}.cls-3{fill:#e8276e;}.cls-4{fill:#d90049;}</style></defs><title>Ресурс 1</title><g id="Слой_2" data-name="Слой 2"><g id="Layer_1" data-name="Layer 1"><path class="cls-1" d="M42.38,2.76c-8.61-3.42-21.45-3.92-31.3,0V18.1c7.69-6.25,24.7-5.43,31.3,0V2.76Z"/><path class="cls-2" d="M42.38,2.76C35.85,31.69,21.1,53.21,0,68.63A60,60,0,0,1,9.53,90.5c17.85-21.95,33.24-45,37-71.84A35.44,35.44,0,0,0,42.38,2.76Z"/><path class="cls-3" d="M28.26,38.21A102.81,102.81,0,0,1,15.14,55.33,146.28,146.28,0,0,0,24.2,71.06,166.56,166.56,0,0,0,36.52,50.28a86.74,86.74,0,0,1-8.26-12.07Z"/><path class="cls-4" d="M11.08,2.76C18.14,29.5,30.94,56.07,53.45,68.63A60,60,0,0,0,43.93,90.5C27.84,74.66,9.77,46.75,7,18.67A35.44,35.44,0,0,1,11.08,2.76Z"/></g></g></svg>