<?xml version="1.0" encoding="utf-8"?>
<!-- Generator: Adobe Illustrator 21.1.0, SVG Export Plug-In . SVG Version: 6.00 Build 0)  -->
<svg version="1.1" id="Shape_1_1_" xmlns="http://www.w3.org/2000/svg" xmlns:xlink="http://www.w3.org/1999/xlink" x="0px" y="0px"
	 width="12.8px" height="16px" viewBox="0 0 12.8 16" style="enable-background:new 0 0 12.8 16;" xml:space="preserve">
<g id="Shape_1">
	<g>
		<path style="fill-rule:evenodd;clip-rule:evenodd;" d="M12.797,13.831L11.881,3.514
			c-0.02-0.229-0.213-0.402-0.438-0.402H9.559C9.533,1.391,8.127,0,6.4,0S3.267,1.391,3.241,3.112H1.357
			c-0.229,0-0.419,0.173-0.438,0.402L0.003,13.831C0.003,13.844,0,13.857,0,13.87C0,15.045,1.076,16,2.4,16H10.4
			c1.324,0,2.4-0.955,2.4-2.13C12.8,13.857,12.8,13.844,12.797,13.831z M6.4,0.883c1.239,0,2.25,0.995,2.276,2.228H4.124
			C4.15,1.878,5.161,0.883,6.4,0.883z M10.4,15.117H2.4c-0.831,0-1.504-0.55-1.517-1.227l0.876-9.891h1.478V5.34
			c0,0.245,0.196,0.442,0.441,0.442c0.245,0,0.442-0.196,0.442-0.442V3.998h4.556V5.34c0,0.245,0.196,0.442,0.441,0.442
			c0.245,0,0.442-0.196,0.442-0.442V3.998h1.478l0.88,9.891C11.904,14.567,11.227,15.117,10.4,15.117z"/>
	</g>
</g>
</svg>
