<?xml version="1.0" encoding="UTF-8"?>
<svg width="174px" height="32px" viewBox="0 0 174 32" version="1.1" xmlns="http://www.w3.org/2000/svg" xmlns:xlink="http://www.w3.org/1999/xlink">
    <!-- Generator: Sketch 59.1 (86144) - https://sketch.com -->
    <title>Group</title>
    <desc>Created with Sketch.</desc>
    <g id="Page-1" stroke="none" stroke-width="1">
        <g id="Group">
            <g id="Bootstrap_logo">
                <path d="M26.6666667,0 C29.6,0 32,2.4 32,5.33333333 L32,26.6666667 C32,29.6 29.6,32 26.6666667,32 L5.33333333,32 C2.4,32 0,29.6 0,26.6666667 L0,5.33333333 C0,2.4 2.4,0 5.33333333,0 L26.6666667,0 Z M17.7673203,6.95424837 L8.69542484,6.95424837 L8.69542484,25.620915 L17.2705882,25.620915 C18.4732026,25.620915 19.5084967,25.4849673 20.3816993,25.2130719 C21.254902,24.9411765 21.9660131,24.5751634 22.5254902,24.1150327 C23.0849673,23.654902 23.4928105,23.1058824 23.7542484,22.4679739 C24.0156863,21.8352941 24.1464052,21.1503268 24.1464052,20.4183007 C24.1464052,19.1424837 23.848366,18.0862745 23.2575163,17.2392157 C22.6666667,16.3973856 21.7934641,15.8535948 20.6431373,15.6078431 L20.6431373,15.6078431 L20.6431373,15.5555556 C21.5006536,15.1895425 22.1594771,14.6666667 22.6196078,13.9973856 C23.0797386,13.3281046 23.3098039,12.5228758 23.3098039,11.5816993 C23.3098039,10.0287582 22.8026144,8.87320261 21.7934641,8.10457516 C20.7843137,7.33594771 19.4405229,6.95424837 17.7673203,6.95424837 L17.7673203,6.95424837 Z M17.7411765,17.1189542 C18.7346405,17.1189542 19.4980392,17.3594771 20.0522876,17.8614379 C20.6065359,18.3633987 20.8784314,19.069281 20.8784314,19.9947712 C20.8784314,20.9359477 20.6013072,21.6679739 20.0522876,22.1803922 C19.5084967,22.6980392 18.7346405,22.9542484 17.7411765,22.9542484 L17.7411765,22.9542484 L11.9633987,22.9542484 L11.9633987,17.1189542 Z M17.296732,9.61568627 C18.1856209,9.61568627 18.8653595,9.80915033 19.3359477,10.1908497 C19.8065359,10.572549 20.0418301,11.2366013 20.0418301,12.1777778 C20.0418301,13.0143791 19.7803922,13.6522876 19.2575163,14.1019608 C18.7346405,14.551634 18.0810458,14.7712418 17.296732,14.7712418 L17.296732,14.7712418 L11.9633987,14.7712418 L11.9633987,9.61568627 Z" id="Combined-Shape"></path>
            </g>
            <path d="M37.378,6.236 L45.498,6.236 C46.6580058,6.236 47.7261618,6.47766425 48.7025,6.961 C49.6788382,7.44433575 50.4473305,8.10166251 51.008,8.933 C51.5686695,9.76433749 51.849,10.6729951 51.849,11.659 C51.849,12.7030052 51.5928359,13.6068295 51.0805,14.3705 C50.5681641,15.1341705 49.8963375,15.718998 49.065,16.125 L49.065,16.357 C50.1476721,16.7436686 51.0079968,17.3574958 51.646,18.1985 C52.2840032,19.0395042 52.603,20.0496608 52.603,21.229 C52.603,22.3696724 52.298503,23.3798289 51.6895,24.2595 C51.080497,25.1391711 50.2588385,25.815831 49.2245,26.2895 C48.1901615,26.763169 47.0446729,27 45.788,27 L37.378,27 L37.378,6.236 Z M45.208,14.704 C46.0586709,14.704 46.7401641,14.467169 47.2525,13.9935 C47.7648359,13.519831 48.021,12.9253369 48.021,12.21 C48.021,11.5139965 47.7745025,10.929169 47.2815,10.4555 C46.7884975,9.98183097 46.1360041,9.745 45.324,9.745 L41.293,9.745 L41.293,14.704 L45.208,14.704 Z M45.643,23.433 C46.5903381,23.433 47.3298307,23.1865025 47.8615,22.6935 C48.3931693,22.2004975 48.659,21.5576706 48.659,20.765 C48.659,19.9723294 48.388336,19.3246692 47.847,18.822 C47.305664,18.3193308 46.5323384,18.068 45.527,18.068 L41.293,18.068 L41.293,23.433 L45.643,23.433 Z M62.695,27.464 C61.167659,27.464 59.8046727,27.1208368 58.606,26.4345 C57.4073273,25.7481632 56.4745033,24.8105059 55.8075,23.6215 C55.1404967,22.4324941 54.807,21.0936741 54.807,19.605 C54.807,18.1356593 55.1404967,16.8016727 55.8075,15.603 C56.4745033,14.4043273 57.4073273,13.4618368 58.606,12.7755 C59.8046727,12.0891632 61.167659,11.746 62.695,11.746 C64.2030075,11.746 65.5563273,12.0891632 66.755,12.7755 C67.9536727,13.4618368 68.8864967,14.4043273 69.5535,15.603 C70.2205033,16.8016727 70.554,18.1356593 70.554,19.605 C70.554,21.0936741 70.2205033,22.4324941 69.5535,23.6215 C68.8864967,24.8105059 67.9536727,25.7481632 66.755,26.4345 C65.5563273,27.1208368 64.2030075,27.464 62.695,27.464 Z M62.695,23.955 C63.4296703,23.955 64.1063302,23.7810017 64.725,23.433 C65.3436698,23.0849983 65.8366648,22.5823366 66.204,21.925 C66.5713352,21.2676634 66.755,20.4943378 66.755,19.605 C66.755,18.7349957 66.5713352,17.9713366 66.204,17.314 C65.8366648,16.6566634 65.3436698,16.1540017 64.725,15.806 C64.1063302,15.4579983 63.4296703,15.284 62.695,15.284 C61.9603297,15.284 61.2836698,15.4579983 60.665,15.806 C60.0463302,16.1540017 59.5485019,16.6566634 59.1715,17.314 C58.7944981,17.9713366 58.606,18.7349957 58.606,19.605 C58.606,20.4750043 58.7944981,21.2434967 59.1715,21.9105 C59.5485019,22.5775033 60.0463302,23.0849983 60.665,23.433 C61.2836698,23.7810017 61.9603297,23.955 62.695,23.955 Z M80.53,27.464 C79.002659,27.464 77.6396727,27.1208368 76.441,26.4345 C75.2423273,25.7481632 74.3095033,24.8105059 73.6425,23.6215 C72.9754967,22.4324941 72.642,21.0936741 72.642,19.605 C72.642,18.1356593 72.9754967,16.8016727 73.6425,15.603 C74.3095033,14.4043273 75.2423273,13.4618368 76.441,12.7755 C77.6396727,12.0891632 79.002659,11.746 80.53,11.746 C82.0380075,11.746 83.3913273,12.0891632 84.59,12.7755 C85.7886727,13.4618368 86.7214967,14.4043273 87.3885,15.603 C88.0555033,16.8016727 88.389,18.1356593 88.389,19.605 C88.389,21.0936741 88.0555033,22.4324941 87.3885,23.6215 C86.7214967,24.8105059 85.7886727,25.7481632 84.59,26.4345 C83.3913273,27.1208368 82.0380075,27.464 80.53,27.464 Z M80.53,23.955 C81.2646703,23.955 81.9413302,23.7810017 82.56,23.433 C83.1786698,23.0849983 83.6716648,22.5823366 84.039,21.925 C84.4063352,21.2676634 84.59,20.4943378 84.59,19.605 C84.59,18.7349957 84.4063352,17.9713366 84.039,17.314 C83.6716648,16.6566634 83.1786698,16.1540017 82.56,15.806 C81.9413302,15.4579983 81.2646703,15.284 80.53,15.284 C79.7953297,15.284 79.1186698,15.4579983 78.5,15.806 C77.8813302,16.1540017 77.3835019,16.6566634 77.0065,17.314 C76.6294981,17.9713366 76.441,18.7349957 76.441,19.605 C76.441,20.4750043 76.6294981,21.2434967 77.0065,21.9105 C77.3835019,22.5775033 77.8813302,23.0849983 78.5,23.433 C79.1186698,23.7810017 79.7953297,23.955 80.53,23.955 Z M97.292,27.232 C96.5573297,27.232 95.8806698,27.1208344 95.262,26.8985 C94.6433302,26.6761656 94.1406686,26.3716686 93.754,25.985 C92.8453288,25.1149956 92.391,23.8776747 92.391,22.273 L92.391,15.458 L89.81,15.458 L89.81,12.21 L92.391,12.21 L92.391,8.034 L96.19,8.034 L96.19,12.21 L99.815,12.21 L99.815,15.458 L96.19,15.458 L96.19,21.577 C96.19,22.3310038 96.3543317,22.8723317 96.683,23.201 C96.953668,23.5103349 97.4176634,23.665 98.075,23.665 C98.4423352,23.665 98.7468321,23.6166671 98.9885,23.52 C99.2301679,23.4233329 99.5443314,23.2590012 99.931,23.027 L99.931,26.739 C99.0996625,27.0676683 98.2200046,27.232 97.292,27.232 Z M108.892,27.464 C107.093991,27.464 105.639172,27.0966703 104.5275,26.362 C103.415828,25.6273297 102.637669,24.6703392 102.193,23.491 L105.586,22.012 C105.895335,22.7080035 106.335164,23.2348315 106.9055,23.5925 C107.475836,23.9501685 108.137996,24.129 108.892,24.129 C109.588003,24.129 110.167998,24.0178344 110.632,23.7955 C111.096002,23.5731656 111.328,23.2106692 111.328,22.708 C111.328,22.2246643 111.115335,21.8621679 110.69,21.6205 C110.264665,21.3788321 109.626671,21.1613343 108.776,20.968 L107.036,20.591 C105.837327,20.3009986 104.841671,19.7741705 104.049,19.0105 C103.256329,18.2468295 102.86,17.2946724 102.86,16.154 C102.86,15.3033291 103.116164,14.5396701 103.6285,13.863 C104.140836,13.1863299 104.836829,12.6643352 105.7165,12.297 C106.596171,11.9296648 107.567661,11.746 108.631,11.746 C111.685682,11.746 113.725328,12.8189893 114.75,14.965 L111.502,16.386 C110.921997,15.3419948 109.994006,14.82 108.718,14.82 C108.060663,14.82 107.538669,14.9408321 107.152,15.1825 C106.765331,15.4241679 106.572,15.7286648 106.572,16.096 C106.572,16.7920035 107.229327,17.3139983 108.544,17.662 L110.719,18.184 C112.188341,18.5513352 113.295163,19.1119962 114.0395,19.866 C114.783837,20.6200038 115.156,21.5479945 115.156,22.65 C115.156,23.5973381 114.880503,24.4334964 114.3295,25.1585 C113.778497,25.8835036 113.024505,26.448998 112.0675,26.855 C111.110495,27.261002 110.052006,27.464 108.892,27.464 Z M124.204,27.232 C123.46933,27.232 122.79267,27.1208344 122.174,26.8985 C121.55533,26.6761656 121.052669,26.3716686 120.666,25.985 C119.757329,25.1149956 119.303,23.8776747 119.303,22.273 L119.303,15.458 L116.722,15.458 L116.722,12.21 L119.303,12.21 L119.303,8.034 L123.102,8.034 L123.102,12.21 L126.727,12.21 L126.727,15.458 L123.102,15.458 L123.102,21.577 C123.102,22.3310038 123.266332,22.8723317 123.595,23.201 C123.865668,23.5103349 124.329663,23.665 124.987,23.665 C125.354335,23.665 125.658832,23.6166671 125.9005,23.52 C126.142168,23.4233329 126.456331,23.2590012 126.843,23.027 L126.843,26.739 C126.011663,27.0676683 125.132005,27.232 124.204,27.232 Z M129.888,12.21 L133.455,12.21 L133.455,14.182 L133.687,14.182 C134.054335,13.4859965 134.624663,12.9108356 135.398,12.4565 C136.171337,12.0021644 137.021995,11.775 137.95,11.775 C138.62667,11.775 139.245331,11.8813323 139.806,12.094 L139.806,15.893 C139.283997,15.6996657 138.844168,15.5595004 138.4865,15.4725 C138.128832,15.3854996 137.747002,15.342 137.341,15.342 C136.219661,15.342 135.330337,15.7479959 134.673,16.56 C134.015663,17.3720041 133.687,18.3966605 133.687,19.634 L133.687,27 L129.888,27 L129.888,12.21 Z M146.331,27.464 C144.764992,27.464 143.479338,27.0048379 142.474,26.0865 C141.468662,25.1681621 140.966,23.9646741 140.966,22.476 C140.966,21.4899951 141.226997,20.6200038 141.749,19.866 C142.271003,19.1119962 142.986329,18.532002 143.895,18.126 C144.803671,17.719998 145.808994,17.517 146.911,17.517 C148.438341,17.517 149.743328,17.7393311 150.826,18.184 L150.826,17.546 C150.826,16.7339959 150.521503,16.0766692 149.9125,15.574 C149.303497,15.0713308 148.486672,14.82 147.462,14.82 C146.765997,14.82 146.09417,14.9794984 145.4465,15.2985 C144.79883,15.6175016 144.262335,16.0379974 143.837,16.56 L141.401,14.646 C142.116337,13.7179954 143.015328,13.0026692 144.098,12.5 C145.180672,11.9973308 146.359994,11.746 147.636,11.746 C149.898011,11.746 151.618661,12.2679948 152.798,13.312 C153.977339,14.3560052 154.567,15.8833233 154.567,17.894 L154.567,27 L150.826,27 L150.826,25.492 L150.594,25.492 C150.149331,26.0720029 149.564504,26.5456648 148.8395,26.913 C148.114496,27.2803352 147.278338,27.464 146.331,27.464 Z M147.23,24.506 C148.332006,24.506 149.20683,24.1531702 149.8545,23.4475 C150.50217,22.7418298 150.826,21.9153381 150.826,20.968 C149.839995,20.5039977 148.805672,20.272 147.723,20.272 C145.75099,20.272 144.765,21.0066593 144.765,22.476 C144.765,23.0753363 144.977665,23.5634981 145.403,23.9405 C145.828335,24.3175019 146.437329,24.506 147.23,24.506 Z" id="Bootstrap"></path>
            <path d="M166.196,11.746 C167.530007,11.746 168.743161,12.0794967 169.8355,12.7465 C170.927839,13.4135033 171.78333,14.3463273 172.402,15.545 C173.02067,16.7436727 173.33,18.0969925 173.33,19.605 C173.33,21.132341 173.02067,22.4904941 172.402,23.6795 C171.78333,24.8685059 170.927839,25.7964967 169.8355,26.4635 C168.743161,27.1305033 167.530007,27.464 166.196,27.464 C165.190662,27.464 164.296504,27.2513355 163.5135,26.826 C162.730496,26.4006645 162.145669,25.8690032 161.759,25.231 L161.527,25.231 L161.759,27.319 L161.759,31.264 L157.96,31.264 L157.96,12.21 L161.527,12.21 L161.527,14.008 L161.759,14.008 C162.165002,13.3699968 162.754663,12.8335022 163.528,12.3985 C164.301337,11.9634978 165.190662,11.746 166.196,11.746 Z M165.529,15.284 C164.832997,15.284 164.17567,15.4628315 163.557,15.8205 C162.93833,16.1781685 162.445335,16.6856634 162.078,17.343 C161.710665,18.0003366 161.527,18.7543291 161.527,19.605 C161.527,20.4556709 161.710665,21.2096634 162.078,21.867 C162.445335,22.5243366 162.93833,23.0366648 163.557,23.404 C164.17567,23.7713352 164.832997,23.955 165.529,23.955 C166.244337,23.955 166.91133,23.7713352 167.53,23.404 C168.14867,23.0366648 168.641665,22.5243366 169.009,21.867 C169.376335,21.2096634 169.56,20.4556709 169.56,19.605 C169.56,18.7543291 169.376335,18.0003366 169.009,17.343 C168.641665,16.6856634 168.14867,16.1781685 167.53,15.8205 C166.91133,15.4628315 166.244337,15.284 165.529,15.284 Z" id="Combined-Shape"></path>
        </g>
    </g>
</svg>