<?xml version="1.0" encoding="iso-8859-1"?>
<!-- Generator: Adobe Illustrator 19.0.0, SVG Export Plug-In . SVG Version: 6.00 Build 0)  -->
<svg version="1.1" id="Capa_1" xmlns="http://www.w3.org/2000/svg" xmlns:xlink="http://www.w3.org/1999/xlink" x="0px" y="0px"
	 viewBox="0 0 512.002 512.002" style="enable-background:new 0 0 512.002 512.002;" xml:space="preserve">
<g>
	<g>
		<path d="M495.535,92.143h-4.457c0.344-1.447,0.545-2.949,0.545-4.5V67.738c0-10.752-8.748-19.5-19.5-19.5h-11.408
			c-4.142,0-7.5,3.358-7.5,7.5c0,4.142,3.358,7.5,7.5,7.5h11.408c2.439,0,4.5,2.061,4.5,4.5v19.904c0,2.439-2.061,4.5-4.5,4.5
			h-57.818c-2.439,0-4.5-2.061-4.5-4.5V67.738c0-2.439,2.061-4.5,4.5-4.5h11.408c4.142,0,7.5-3.358,7.5-7.5
			c0-4.142-3.358-7.5-7.5-7.5h-11.408c-10.752,0-19.5,8.748-19.5,19.5v19.904c0,1.551,0.201,3.053,0.545,4.5H287.629
			c-9.212,0-16.707,7.495-16.707,16.707c0,9.227,0,173.848,0,180.013c-25.03-8.489-50.928-12.394-76.045-12.394
			c-83.833,0-154.508,42.636-187.491,101.791c-21.401,38.38,6.263,85.506,50.106,85.506h119.884c4.142,0,7.5-3.357,7.5-7.5
			s-3.358-7.5-7.5-7.5H57.493c-32.46,0-52.795-34.88-37.005-63.201c13.073-23.447,32.309-43.48,55.554-58.968v46.363
			c0,4.143,3.358,7.5,7.5,7.5s7.5-3.357,7.5-7.5v-55.419c12.713-6.936,26.367-12.601,40.668-16.866v72.286
			c0,4.143,3.358,7.5,7.5,7.5c4.142,0,7.5-3.357,7.5-7.5v-76.201c13.182-2.932,26.806-4.688,40.667-5.155v81.356
			c0,4.143,3.358,7.5,7.5,7.5c4.142,0,7.5-3.357,7.5-7.5v-81.356c13.861,0.467,27.485,2.223,40.668,5.155v76.2
			c0,4.143,3.358,7.5,7.5,7.5s7.5-3.357,7.5-7.5v-72.286c14.3,4.265,27.954,9.93,40.668,16.866v55.419c0,4.143,3.358,7.5,7.5,7.5
			s7.5-3.357,7.5-7.5v-46.363c24.616,16.4,43.256,36.911,55.554,58.968c15.808,28.352-4.579,63.201-37.005,63.201H212.378
			c-4.142,0-7.5,3.357-7.5,7.5s3.358,7.5,7.5,7.5c17.422,0,275.056,0,283.049,0c9.139,0,16.574-7.436,16.574-16.574
			c0-10.307,0-308.876,0-338.583C512.001,99.528,504.615,92.143,495.535,92.143z M285.923,108.849c0-0.941,0.765-1.706,1.706-1.706
			c9.598,0,197.464,0,207.906,0c0.808,0,1.464,0.657,1.464,1.464v46.037L285.923,261.942V108.849z M497,447.19
			c0,0.868-0.706,1.574-1.574,1.574H371.037c9.483-8.735,16.233-21.034,18.146-34.47c2.737-19.237-4.076-33.112-14.606-48.661
			L497,303.402V447.19z M497,286.576l-131.476,66.833c-19.813-24.581-47.229-45.241-79.601-58.859v-15.781L497,171.472V286.576z"/>
	</g>
</g>
<g>
	<g>
		<path d="M403.594,129.388h-30.552c-4.142,0-7.5,3.358-7.5,7.5s3.358,7.5,7.5,7.5h30.552c4.142,0,7.5-3.358,7.5-7.5
			S407.736,129.388,403.594,129.388z"/>
	</g>
</g>
<g>
</g>
<g>
</g>
<g>
</g>
<g>
</g>
<g>
</g>
<g>
</g>
<g>
</g>
<g>
</g>
<g>
</g>
<g>
</g>
<g>
</g>
<g>
</g>
<g>
</g>
<g>
</g>
<g>
</g>
</svg>
