<?xml version="1.0" encoding="iso-8859-1"?>
<!-- Generator: Adobe Illustrator 19.0.0, SVG Export Plug-In . SVG Version: 6.00 Build 0)  -->
<svg version="1.1" id="Capa_1" xmlns="http://www.w3.org/2000/svg" xmlns:xlink="http://www.w3.org/1999/xlink" x="0px" y="0px"
	 viewBox="0 0 512 512" style="enable-background:new 0 0 512 512;" xml:space="preserve">
<g>
	<g>
		<path d="M511.833,310.027c-8.158-38.269-45.677-65.235-86.638-57.957c10.639-123.887-86.883-231.318-212.203-231.318h-0.021
			c-0.001,0-0.002,0-0.003,0c-0.01,0-0.019,0.001-0.029,0.001C94.34,20.783,0,117.275,0,233.744
			C0,354.22,98.509,446.943,213.073,446.943c22.075,0,44.019-3.522,65.576-10.536c19.43,20.469,43.935,38.917,71.778,53.909
			c3.658,1.97,8.22,0.601,10.189-3.057c1.97-3.658,0.601-8.219-3.057-10.189c-98.571-53.076-125.017-132.852-108.589-173.626
			c18.607-46.07,82.568-50.594,107.262-7.141c1.376,2.421,7.796,8.56,15.846,8.383c6.247-0.146,12.028-4.11,15.077-9.002
			c31.133-49.96,99.33-32.402,109.965,17.481c0.866,4.062,4.855,6.655,8.925,5.788C510.108,318.087,512.7,314.09,511.833,310.027z
			 M162.425,42.355c-22.262,20.549-37.029,50.349-46.474,79.023c-18.425-5.258-35.275-12.033-49.856-20.172
			C92.997,71.531,126.397,51.925,162.425,42.355z M56.303,112.931c16.08,9.278,34.798,16.957,55.322,22.828
			c-8.072,29.433-11.922,60.32-12.472,90.463H15.202C16.734,185.357,30.763,145.99,56.303,112.931z M56.096,354.677
			c-25.017-32.159-39.367-71.359-40.899-113.411h83.956c0.546,30.053,4.257,60.998,12.401,90.484
			C90.971,337.644,72.204,345.356,56.096,354.677z M66.007,366.329c14.598-8.16,31.475-14.95,49.931-20.217
			c9.481,28.467,24.256,58.54,46.219,78.774C124.74,414.916,91.434,394.472,66.007,366.329z M205.47,430.978
			c-36.885-6.393-62.719-52.612-74.917-88.641c23.308-5.413,48.683-8.516,74.917-9.016V430.978z M205.47,318.277
			c-27.715,0.512-54.584,3.842-79.301,9.668c-7.279-26.463-11.392-55.947-11.97-86.678h91.271V318.277z M205.47,226.222h-91.271
			c0.548-29.094,4.286-58.741,11.97-86.678c24.718,5.825,51.588,9.156,79.301,9.667V226.222z M205.47,134.165
			c-26.236-0.499-51.614-3.604-74.923-9.016c12.129-36.335,37.274-82.924,74.923-88.763V134.165z M359.891,101.206
			c-14.581,8.14-31.43,14.915-49.856,20.172c-9.346-28.376-24.45-58.872-46.477-79.024
			C300.041,51.986,333.55,72.123,359.891,101.206z M220.515,36.386c37.773,5.858,62.794,52.424,74.923,88.762
			c-23.31,5.414-48.687,8.518-74.923,9.017V36.386z M257.329,410.184c-11.743,12.055-24.164,19.093-36.813,20.979v-97.839
			c3.111,0.06,6.226,0.148,9.334,0.282C231.466,361.514,241.539,387.112,257.329,410.184z M311.468,251.392
			c-41.192-4-77.628,26.35-81.513,67.17c-3.144-0.13-6.294-0.227-9.441-0.285v-77.011h91.264
			C311.715,244.647,311.619,248.027,311.468,251.392z M220.515,226.222v-77.011c27.714-0.511,54.584-3.842,79.301-9.667
			c7.279,26.463,11.392,55.947,11.97,86.678H220.515z M409.611,256.683c-23.949,10.169-34.499,30.393-35.484,31.426
			c-1.808,1.894-2.863,2.147-5.317-0.131c-0.008-0.008-0.016-0.013-0.024-0.021c-9.286-15.833-24.084-27.996-42.402-33.598
			c0.22-4.346,0.368-8.719,0.448-13.092h83.946C410.582,246.403,410.204,251.556,409.611,256.683z M326.831,226.222
			c-0.583-31.975-4.869-62.741-12.472-90.463c20.523-5.871,39.241-13.55,55.322-22.828c25.222,32.632,39.548,71.881,41.102,113.291
			H326.831z"/>
	</g>
</g>
<g>
	<g>
		<path d="M505.475,339.272c-4.098-0.657-7.961,2.129-8.622,6.23c-11.221,69.69-81.629,115.269-111.381,131.631
			c-3.64,2.002-4.969,6.576-2.967,10.216c2.003,3.642,6.577,4.968,10.216,2.967c55.891-30.738,108.926-79.956,118.984-142.421
			C512.366,343.793,509.577,339.933,505.475,339.272z"/>
	</g>
</g>
<g>
</g>
<g>
</g>
<g>
</g>
<g>
</g>
<g>
</g>
<g>
</g>
<g>
</g>
<g>
</g>
<g>
</g>
<g>
</g>
<g>
</g>
<g>
</g>
<g>
</g>
<g>
</g>
<g>
</g>
</svg>
