<?xml version="1.0" encoding="iso-8859-1"?>
<!-- Generator: Adobe Illustrator 19.0.0, SVG Export Plug-In . SVG Version: 6.00 Build 0)  -->
<svg version="1.1" id="Capa_1" xmlns="http://www.w3.org/2000/svg" xmlns:xlink="http://www.w3.org/1999/xlink" x="0px" y="0px"
	 viewBox="0 0 511.998 511.998" style="enable-background:new 0 0 511.998 511.998;" xml:space="preserve">
<g>
	<g>
		<path d="M443.726,325.008l-88.417-69.347v-33.14c0-4.143-3.357-7.5-7.5-7.5s-7.5,3.357-7.5,7.5v21.374l-79.68-62.494
			c-2.719-2.131-6.539-2.131-9.259,0l-79.68,62.494v-89.068L255.998,88.7l84.309,66.125v32.692c0,4.143,3.357,7.5,7.5,7.5
			s7.5-3.357,7.5-7.5V166.59l13.309,10.439c3.26,2.558,7.974,1.985,10.531-1.272c2.557-3.26,1.986-7.974-1.272-10.531
			L263.499,75.521V43.999h21.381c4.143,0,7.5-3.357,7.5-7.5s-3.357-7.5-7.5-7.5h-21.381V7.5c0-4.143-3.357-7.5-7.5-7.5
			c-4.143,0-7.5,3.357-7.5,7.5v21.496h-21.381c-4.143,0-7.5,3.357-7.5,7.5s3.357,7.5,7.5,7.5h21.381V75.52
			c-3.849,3.019-110.328,86.532-114.375,89.706c-3.259,2.557-3.829,7.271-1.272,10.531c2.561,3.264,7.277,3.825,10.531,1.272
			l13.308-10.438v89.068l-88.417,69.347c-3.259,2.557-3.829,7.271-1.272,10.531c2.557,3.259,7.271,3.83,10.531,1.272l30.124-23.626
			v183.814H76.078c-4.143,0-7.5,3.357-7.5,7.5c0,4.143,3.357,7.5,7.5,7.5c10.259,0,349.583,0,359.842,0c4.143,0,7.5-3.357,7.5-7.5
			c0-4.143-3.357-7.5-7.5-7.5h-31.576V313.185l30.124,23.626c3.255,2.554,7.972,1.989,10.531-1.272
			C447.555,332.279,446.985,327.565,443.726,325.008z M248.498,496.999h-43.629V378.22c0-18.035,14.673-32.708,32.708-32.708h10.921
			V496.999z M389.343,496.998h-67.214v-67.13c0-4.143-3.357-7.5-7.5-7.5s-7.5,3.357-7.5,7.5v67.131h-43.629V345.511h10.921
			c18.035,0,32.708,14.673,32.708,32.709v16.646c0,4.143,3.357,7.5,7.5,7.5s7.5-3.357,7.5-7.5V378.22
			c0-26.308-21.401-47.71-47.709-47.71h-36.842c-26.31,0-47.709,21.405-47.709,47.71v118.778h-67.214V301.419
			c6.806-5.338,125.674-98.568,133.344-104.584c7.956,6.24,126.605,99.298,133.344,104.584V496.998z"/>
	</g>
</g>
<g>
	<g>
		<path d="M270.885,121.611h-29.773c-4.143,0-7.5,3.357-7.5,7.5s3.357,7.5,7.5,7.5h29.773c4.143,0,7.5-3.357,7.5-7.5
			S275.029,121.611,270.885,121.611z"/>
	</g>
</g>
<g>
	<g>
		<path d="M270.885,149.425h-29.773c-4.143,0-7.5,3.357-7.5,7.5c0,4.143,3.357,7.5,7.5,7.5h29.773c4.143,0,7.5-3.357,7.5-7.5
			C278.386,152.782,275.029,149.425,270.885,149.425z"/>
	</g>
</g>
<g>
	<g>
		<path d="M270.885,261.076h-29.773c-4.143,0-7.5,3.357-7.5,7.5c0,4.143,3.357,7.5,7.5,7.5h29.773c4.143,0,7.5-3.357,7.5-7.5
			C278.386,264.433,275.029,261.076,270.885,261.076z"/>
	</g>
</g>
<g>
	<g>
		<path d="M270.885,288.888h-29.773c-4.143,0-7.5,3.357-7.5,7.5c0,4.143,3.357,7.5,7.5,7.5h29.773c4.143,0,7.5-3.357,7.5-7.5
			C278.386,292.246,275.029,288.888,270.885,288.888z"/>
	</g>
</g>
<g>
</g>
<g>
</g>
<g>
</g>
<g>
</g>
<g>
</g>
<g>
</g>
<g>
</g>
<g>
</g>
<g>
</g>
<g>
</g>
<g>
</g>
<g>
</g>
<g>
</g>
<g>
</g>
<g>
</g>
</svg>
