<?xml version="1.0" encoding="iso-8859-1"?>
<!-- Generator: Adobe Illustrator 19.0.0, SVG Export Plug-In . SVG Version: 6.00 Build 0)  -->
<svg version="1.1" id="Capa_1" xmlns="http://www.w3.org/2000/svg" xmlns:xlink="http://www.w3.org/1999/xlink" x="0px" y="0px"
	 viewBox="0 0 512 512" style="enable-background:new 0 0 512 512;" xml:space="preserve">
<g>
	<g>
		<path d="M249.391,480.848l-5.955-81.261c-0.644-8.765-8.267-15.274-16.937-14.626l-4.06,0.298
			c-1.684-16.72-4.663-33.083-8.881-48.743c-5.795-21.513-11.132-28.631-35.39-58.71c-0.03-0.037-0.061-0.074-0.091-0.111
			c-9.117-10.87-16.034-13.592-63.355-40.001c-10.804-6.03-20.514-4.362-27.552-0.111l-0.951-2.285
			c0.792-2.303,1.289-4.692,1.465-7.138l4.32-59.924c1.125-15.605-10.594-29.147-26.202-30.272
			c-8.141-0.594-15.872,2.306-21.525,7.704c-17.838-13.303-50.332-0.331-43.294,33.012c0.068,0.325,32.147,118.269,32.234,118.588
			c4.603,21.37,20.138,33.048,26.62,37.084c0.805,0.499,17.8,9.877,18.63,10.335c25.706,14.18,27.804,15.34,34.941,24.697
			c6.853,8.987,6.83,17.261,7.275,23.332l-3.786,0.278c-8.702,0.639-15.262,8.236-14.623,16.936l5.357,73.138
			c0.61,8.334,7.635,14.862,15.991,14.862h109.893C242.755,497.93,250.066,490.065,249.391,480.848z M77.051,167.156l-2.834,39.302
			c-20.513-49.296-18.527-45.451-20.4-49.113C62.099,147.971,77.973,154.362,77.051,167.156z M67.611,321.534
			c-11.585-7.277-16.527-15.939-19.88-28.012L15.607,175.388c-0.62-3.095-2.482-16.157,9.303-19.475
			c6.087-1.42,10.482,0.561,13.937,5.552c1.548,2.237-2.11-6.058,37.249,88.526c-3.5,7.964-3.862,19.859,7.323,28.337
			c12.099,9.172,40.842,31.136,41.131,31.357c1.358,1.038,2.958,1.541,4.545,1.54c2.255,0,4.486-1.014,5.961-2.944
			c2.514-3.289,1.885-7.993-1.404-10.506c-0.289-0.222-29.054-22.203-41.178-31.393c-7.136-5.408-2.456-13.048,2.76-16.16
			c3.688-2.196,7.558-2.02,12.183,0.562c46.012,25.678,52.068,28.089,59.133,36.492c24.266,30.094,27.651,35.01,32.535,53.141
			c3.974,14.75,6.793,30.168,8.402,45.94l-71.854,5.264c-0.452-6.156-0.485-18.448-10.306-31.327
			C114.594,346.223,110.944,345.706,67.611,321.534z M234.194,482.641c-0.183,0.197-0.412,0.297-0.681,0.297H123.62
			c-0.545,0-1.002-0.425-1.042-0.967l-5.357-73.138c-0.033-0.458,0.313-0.857,0.771-0.892c12.324-0.902,95.982-7.031,109.603-8.029
			c0.022-0.002,0.045-0.003,0.067-0.003c0.201,0,0.383,0.068,0.539,0.203c0.174,0.149,0.27,0.342,0.287,0.57l5.953,81.259
			C234.459,482.209,234.376,482.445,234.194,482.641z"/>
	</g>
</g>
<g>
	<g>
		<path d="M467.721,145.664c-18.673-17.826-49.575-3.071-47.727,22.57l4.32,59.923c0.176,2.447,0.672,4.836,1.465,7.139
			l-0.951,2.285c-7.037-4.251-16.753-5.918-27.552,0.111c-47.382,26.436-54.259,29.154-63.356,40
			c-0.031,0.037-0.062,0.075-0.092,0.112c-24.257,30.081-29.593,37.197-35.388,58.709c-4.219,15.66-7.197,32.023-8.881,48.743
			l-4.061-0.298c-8.749-0.623-16.298,5.91-16.935,14.626l-5.955,81.261c-0.673,9.215,6.638,17.08,15.877,17.08h40.195
			c4.14,0,7.495-3.355,7.495-7.495s-3.355-7.495-7.495-7.495h-40.195c-0.269,0-0.498-0.1-0.681-0.297
			c-0.184-0.197-0.267-0.433-0.247-0.7l5.955-81.26c0.017-0.229,0.112-0.421,0.286-0.57c0.174-0.149,0.383-0.209,0.606-0.201
			c22.598,1.656,86.714,6.353,109.603,8.03c0.459,0.034,0.804,0.435,0.77,0.893l-5.357,73.138c-0.04,0.543-0.498,0.967-1.042,0.967
			h-34.722c-4.14,0-7.495,3.355-7.495,7.495s3.355,7.495,7.495,7.495h34.722c8.356,0,15.382-6.528,15.991-14.862l5.357-73.137
			c0.64-8.701-5.921-16.3-14.624-16.938l-3.785-0.278l0.38-5.186c0.484-6.59,2.868-12.864,6.895-18.146
			c8.604-11.281,9.973-10.686,53.261-34.849c0.105-0.058,0.208-0.119,0.311-0.183c6.481-4.036,22.016-15.714,26.62-37.084
			l32.133-118.17c0.038-0.139,0.071-0.278,0.101-0.419C518.065,145.28,485.527,132.383,467.721,145.664z M458.178,157.346
			c-1.619,3.165,1.656-3.891-20.4,49.113l-2.834-39.302C434.034,154.523,449.785,147.844,458.178,157.346z M496.388,175.388
			c-0.092,0.338-32.155,118.224-32.228,118.565c-3.207,15.173-13.7,23.763-19.776,27.58c-43.332,24.172-46.983,24.688-57.714,38.758
			c-9.536,12.505-9.786,24.25-10.306,31.327c-11.619-0.851-64.994-4.762-71.854-5.264c1.609-15.77,4.429-31.19,8.402-45.94
			c4.884-18.132,8.265-23.043,32.538-53.141c7.063-8.402,13.12-10.814,59.13-36.491c9.705-5.417,15.255,1.44,16.683,3.606
			c0.013,0.021,0.029,0.038,0.042,0.058c0.027,0.042,0.049,0.085,0.078,0.126c1.692,2.601,3.701,7.594-1.86,11.809
			c-12.124,9.189-40.889,31.17-41.178,31.392c-3.289,2.513-3.918,7.217-1.404,10.506c1.476,1.931,3.704,2.944,5.961,2.944
			c1.587,0,3.186-0.502,4.545-1.54c0.289-0.221,29.032-22.184,41.131-31.356c11.185-8.478,10.823-20.373,7.323-28.338
			c45.243-108.727,33.54-81.367,37.715-89.307C481.631,150.103,500.303,155.84,496.388,175.388z"/>
	</g>
</g>
<g>
	<g>
		<path d="M301.341,110.864h-20.043V90.819c0-13.93-11.332-25.262-25.262-25.262c-13.93,0-25.262,11.332-25.262,25.262v20.044
			h-20.044c-13.93,0-25.263,11.332-25.263,25.262s11.333,25.262,25.263,25.262h20.044v20.045
			c-0.001,13.93,11.331,25.262,25.261,25.262c13.93,0,25.262-11.332,25.262-25.262v-20.045h20.044
			c13.93,0,25.263-11.332,25.263-25.262S315.27,110.864,301.341,110.864z M301.341,146.397h-27.538c-4.14,0-7.495,3.355-7.495,7.495
			v27.54c0,5.664-4.608,10.272-10.272,10.272c-5.664,0-10.272-4.608-10.272-10.272v-27.54c0-4.14-3.355-7.495-7.495-7.495h-27.54
			c-5.665,0-10.273-4.608-10.273-10.272s4.608-10.272,10.273-10.272h27.539c4.14,0,7.495-3.355,7.495-7.495V90.819
			c0-5.664,4.608-10.272,10.272-10.272c5.664,0,10.272,4.608,10.272,10.272v27.539c0,4.14,3.355,7.495,7.495,7.495h27.539
			c5.665,0,10.273,4.608,10.273,10.272C311.614,141.79,307.006,146.397,301.341,146.397z"/>
	</g>
</g>
<g>
	<g>
		<path d="M370.268,145.993c-4.096-0.624-7.917,2.187-8.541,6.277c-7.892,51.672-53.33,90.637-105.692,90.637
			c-58.958,0-106.923-47.965-106.923-106.923S197.077,29.06,256.035,29.06c52.295,0,97.725,38.91,105.67,90.507
			c0.631,4.092,4.463,6.899,8.549,6.267c4.091-0.63,6.896-4.457,6.267-8.548C367.472,58.523,316.651,14.07,256.035,14.07
			c-67.223,0-121.913,54.691-121.913,121.914c0,67.223,54.691,121.913,121.913,121.913c29.319,0,57.654-10.559,79.789-29.734
			c21.906-18.977,36.368-45.125,40.721-73.63C377.169,150.442,374.358,146.617,370.268,145.993z"/>
	</g>
</g>
<g>
</g>
<g>
</g>
<g>
</g>
<g>
</g>
<g>
</g>
<g>
</g>
<g>
</g>
<g>
</g>
<g>
</g>
<g>
</g>
<g>
</g>
<g>
</g>
<g>
</g>
<g>
</g>
<g>
</g>
</svg>
