<?xml version="1.0" encoding="UTF-8"?>
<svg width="76px" height="46px" viewBox="0 0 76 46" version="1.1" xmlns="http://www.w3.org/2000/svg" xmlns:xlink="http://www.w3.org/1999/xlink">
    <!-- Generator: Sketch 59.1 (86144) - https://sketch.com -->
    <title>3401baa47599a9b87bb02919e7070d1e</title>
    <desc>Created with Sketch.</desc>
    <g id="Page-1" stroke="none" stroke-width="1">
        <g id="3401baa47599a9b87bb02919e7070d1e">
            <path d="M20.2276094,23.7666667 C20.1734007,23.8441077 20.0804714,24.0919192 19.9410774,24.510101 C19.8016835,24.9282828 19.6313131,25.447138 19.4377104,26.0744108 C19.2363636,26.7016835 19.0272727,27.4063973 18.7949495,28.1808081 C18.5626263,28.9552189 18.3225589,29.752862 18.0824916,30.5582492 C17.8346801,31.3636364 17.6023569,32.1612795 17.3777778,32.9356902 C17.1531987,33.710101 16.9518519,34.4148148 16.7737374,35.0420875 C16.5956229,35.6693603 16.4484848,36.1959596 16.3245791,36.6218855 C16.2084175,37.0478114 16.1309764,37.2956229 16.1077441,37.373064 C16.0380471,37.6208754 15.9373737,37.8996633 15.7902357,38.2094276 C15.6430976,38.5114478 15.4727273,38.8057239 15.2713805,39.0767677 C15.0700337,39.3478114 14.8531987,39.5801347 14.6131313,39.7582492 C14.373064,39.9363636 14.1329966,40.0292929 13.8774411,40.0292929 C13.4515152,40.0292929 13.1417508,39.889899 12.9558923,39.603367 C12.7622896,39.316835 12.6693603,38.8057239 12.6693603,38.0468013 C12.6693603,37.9383838 12.6693603,37.8299663 12.6693603,37.7138047 C12.6693603,37.5976431 12.6771044,37.4892256 12.6925926,37.3575758 C12.7080808,37.1097643 12.8087542,36.6373737 12.9868687,35.9481481 C13.1727273,35.2589226 13.3973064,34.4767677 13.652862,33.6094276 C13.9084175,32.7420875 14.1872054,31.8360269 14.4892256,30.906734 C14.7835017,29.969697 15.0545455,29.1410774 15.2946128,28.3976431 C14.589899,29.179798 13.8309764,29.9619529 13.010101,30.7363636 C12.1892256,31.5107744 11.3451178,32.2077441 10.4855219,32.8272727 C9.62592593,33.4468013 8.75858586,33.9501684 7.88350168,34.3451178 C7.00841751,34.7400673 6.16430976,34.93367 5.35892256,34.93367 C4.42962963,34.93367 3.63198653,34.7323232 2.96599327,34.3218855 C2.3,33.9114478 1.74242424,33.3771044 1.30875421,32.7188552 C0.875084175,32.0606061 0.54983165,31.3171717 0.332996633,30.4808081 C0.108417508,29.6599327 0,28.8313131 0,28.0026936 C0,27.8942761 0,27.7936027 0,27.6929293 C0,27.6 0.00774410774,27.5070707 0.0232323232,27.4141414 C0.100673401,25.9117845 0.317508418,24.362963 0.665993266,22.7754209 C1.01447811,21.1878788 1.47912458,19.6158249 2.04444444,18.043771 C2.61750842,16.4717172 3.27575758,14.9383838 4.01919192,13.443771 C4.77037037,11.9491582 5.58350168,10.5319865 6.46632997,9.2 C7.34915825,7.86801347 8.28619529,6.63670034 9.27744108,5.51380471 C10.2686869,4.39090909 11.2909091,3.43063973 12.3363636,2.61750842 C13.3818182,1.81212121 14.4350168,1.17710438 15.5037037,0.72020202 C16.5723906,0.263299663 17.6255892,0.0387205387 18.6710438,0.0387205387 C19.8791246,0.0387205387 21.0407407,0.371717172 22.1713805,1.02996633 C23.2942761,1.68821549 24.3474747,2.75690236 25.3309764,4.22828283 C25.5555556,4.56127946 25.6949495,4.89427609 25.7569024,5.22727273 C25.8188552,5.56801347 25.8498316,5.88552189 25.8498316,6.17979798 C25.8498316,6.88451178 25.6794613,7.44208754 25.3464646,7.85252525 C25.0057239,8.26296296 24.6107744,8.46430976 24.1461279,8.46430976 C23.720202,8.46430976 23.3252525,8.23973064 22.9612795,7.79057239 C22.5973064,7.34141414 22.1868687,6.70639731 21.7377104,5.87003367 C21.3117845,5.11885522 20.847138,4.56902357 20.3360269,4.23602694 C19.8249158,3.8952862 19.2750842,3.73265993 18.6787879,3.73265993 C17.7494949,3.73265993 16.7582492,4.11986532 15.7050505,4.88653199 C14.6518519,5.65319865 13.6063973,6.66767677 12.576431,7.93771044 C11.5464646,9.2 10.5552189,10.640404 9.6026936,12.2666667 C8.65791246,13.8929293 7.82154882,15.5501684 7.08585859,17.2538721 C6.35791246,18.9575758 5.77710438,20.6380471 5.35117845,22.2875421 C4.91750842,23.9447811 4.70841751,25.4316498 4.70841751,26.7481481 C4.70841751,27.1895623 4.73939394,27.6387205 4.8013468,28.103367 C4.86329966,28.5680135 4.97171717,28.9861953 5.14208754,29.3656566 C5.3047138,29.7451178 5.52929293,30.0548822 5.81582492,30.2949495 C6.1023569,30.5427609 6.45858586,30.6589226 6.9,30.6589226 C7.38787879,30.6589226 7.94545455,30.4962963 8.56498316,30.1632997 C9.18451178,29.830303 9.83501684,29.4043771 10.5010101,28.8700337 C11.1670034,28.3356902 11.8407407,27.7316498 12.5144781,27.0579125 C13.1882155,26.3841751 13.8154882,25.7026936 14.4040404,25.013468 C14.9848485,24.3242424 15.5037037,23.6582492 15.952862,23.0232323 C16.4020202,22.3882155 16.7427609,21.8383838 16.9673401,21.3659933 L18.8181818,15.8367003 C19.0427609,15.240404 19.337037,14.8144781 19.7010101,14.5666667 C20.0649832,14.3188552 20.4367003,14.1872054 20.8239057,14.1872054 C21.0097643,14.1872054 21.1956229,14.2181818 21.3814815,14.2801347 C21.5673401,14.3420875 21.7299663,14.4427609 21.8771044,14.5744108 C22.0242424,14.7060606 22.140404,14.8841751 22.2255892,15.093266 C22.3107744,15.3023569 22.3572391,15.5501684 22.3572391,15.8367003 C22.3572391,16.5878788 22.2875421,17.2925926 22.1558923,17.9585859 C22.0242424,18.616835 21.8538721,19.259596 21.6525253,19.8868687 C21.4434343,20.5141414 21.2188552,21.1491582 20.9710438,21.7841751 C20.7077441,22.4114478 20.4599327,23.0774411 20.2276094,23.7666667 Z" id="Path"></path>
            <path d="M45.279798,28.3744108 C44.6989899,29.1565657 44.0175084,29.9232323 43.2430976,30.6666667 C42.4686869,31.410101 41.6710438,32.0760943 40.8501684,32.6569024 C40.0292929,33.2377104 39.2239057,33.7023569 38.4262626,34.0585859 C37.6286195,34.4148148 36.9161616,34.5851852 36.2811448,34.5851852 C35.6461279,34.5851852 35.1272727,34.3760943 34.7323232,33.9501684 C34.3373737,33.5242424 34.1360269,32.8040404 34.1360269,31.7818182 C34.1360269,31.0616162 34.2444444,30.2175084 34.4535354,29.2649832 C34.1127946,29.8767677 33.6791246,30.4962963 33.1602694,31.123569 C32.6414141,31.7508418 32.052862,32.3239057 31.3946128,32.8427609 C30.7286195,33.3616162 29.9929293,33.779798 29.1720539,34.1050505 C28.3511785,34.4225589 27.452862,34.5851852 26.4925926,34.5851852 C26.0589226,34.5851852 25.6329966,34.5309764 25.230303,34.4225589 C24.8276094,34.3141414 24.4713805,34.1282828 24.1693603,33.8572391 C23.8673401,33.5939394 23.6195286,33.2377104 23.43367,32.7885522 C23.2478114,32.3393939 23.1548822,31.7818182 23.1548822,31.1080808 C23.1548822,31.0925926 23.1781145,30.8525253 23.2323232,30.3878788 C23.286532,29.9232323 23.4569024,29.1952862 23.7356902,28.1962963 C24.0222222,27.1973064 24.4636364,25.9117845 25.0599327,24.3242424 C25.656229,22.7367003 26.5003367,20.8161616 27.5845118,18.5626263 C27.8632997,17.96633 28.1808081,17.540404 28.5447811,17.2771044 C28.9087542,17.0215488 29.3037037,16.889899 29.7296296,16.889899 C29.9154882,16.889899 30.1090909,16.9208754 30.3026936,16.9750842 C30.5040404,17.0292929 30.689899,17.1144781 30.8602694,17.2306397 C31.0306397,17.3468013 31.1700337,17.4939394 31.2784512,17.679798 C31.3868687,17.8579125 31.4410774,18.0670034 31.4410774,18.3070707 C31.4410774,18.4619529 31.4178451,18.616835 31.3791246,18.756229 C31.3094276,19.0272727 31.1700337,19.3757576 30.9531987,19.8016835 C30.7363636,20.2353535 30.4808081,20.7309764 30.186532,21.2808081 C29.8922559,21.8383838 29.5902357,22.4346801 29.2649832,23.0774411 C28.9397306,23.720202 28.6377104,24.3861953 28.3589226,25.0754209 C28.0801347,25.7646465 27.8400673,26.4693603 27.6464646,27.1818182 C27.4451178,27.8942761 27.3367003,28.5912458 27.3057239,29.2649832 C27.3057239,29.5515152 27.3754209,29.8070707 27.5070707,30.0393939 C27.6387205,30.2717172 27.8555556,30.3956229 28.1653199,30.3956229 C29.0249158,30.3956229 29.8457912,30.1090909 30.6279461,29.5515152 C31.410101,28.9861953 32.130303,28.2814815 32.7962963,27.4451178 C33.4545455,26.6087542 34.0585859,25.7026936 34.5929293,24.7424242 C35.1272727,23.7744108 35.576431,22.8915825 35.9326599,22.0939394 C36.1804714,21.559596 36.4050505,20.986532 36.5986532,20.3747475 C36.7922559,19.762963 37.0013468,19.1976431 37.2259259,18.6787879 C37.4505051,18.1599327 37.7060606,17.7262626 38.0003367,17.3855219 C38.2946128,17.037037 38.6585859,16.8666667 39.0922559,16.8666667 C39.5723906,16.8666667 39.9441077,17.0447811 40.2228956,17.4087542 C40.5016835,17.7727273 40.6410774,18.1986532 40.6410774,18.7020202 C40.6410774,18.9885522 40.5481481,19.3757576 40.3700337,19.8636364 C40.1919192,20.3592593 39.9673401,20.9245791 39.6962963,21.559596 C39.4252525,22.1946128 39.1309764,22.8760943 38.813468,23.5962963 C38.4959596,24.3164983 38.2016835,25.0521886 37.9306397,25.7956229 C37.659596,26.5390572 37.4350168,27.2670034 37.2569024,27.9872054 C37.0787879,28.6996633 36.9858586,29.3656566 36.9858586,29.9774411 C36.9858586,30.5427609 37.2801347,30.8215488 37.8609428,30.8215488 C38.2713805,30.8215488 38.7824916,30.6821549 39.386532,30.3956229 C39.9983165,30.1090909 40.6333333,29.7141414 41.3070707,29.2107744 C41.973064,28.6996633 42.6468013,28.103367 43.3127946,27.4141414 C43.9787879,26.7249158 44.5750842,25.9814815 45.0939394,25.1760943 L45.279798,28.3744108 Z" id="Path"></path>
            <path d="M45.8915825,27.1973064 C45.7444444,27.5612795 45.6050505,27.9794613 45.4656566,28.459596 C45.3262626,28.9397306 45.2565657,29.3656566 45.2565657,29.7451178 C45.2565657,29.9774411 45.2952862,30.1710438 45.3727273,30.3104377 C45.4501684,30.4498316 45.6050505,30.5195286 45.8296296,30.5195286 C46.1084175,30.5195286 46.4569024,30.4188552 46.8750842,30.2252525 C47.293266,30.0316498 47.7424242,29.7683502 48.2225589,29.4508418 C48.7026936,29.1333333 49.2060606,28.7616162 49.7326599,28.3434343 C50.2592593,27.9252525 50.7781145,27.4993266 51.2892256,27.0501684 C51.8080808,26.6010101 52.2959596,26.159596 52.7683502,25.7104377 C53.2407407,25.2612795 53.6589226,24.8508418 54.0306397,24.4713805 C54.1390572,24.362963 54.262963,24.2855219 54.410101,24.2390572 C54.5572391,24.1925926 54.6811448,24.1693603 54.7895623,24.1693603 C55.052862,24.1693603 55.269697,24.2777778 55.4478114,24.5023569 C55.6181818,24.7191919 55.703367,25.013468 55.703367,25.369697 C55.703367,25.7026936 55.6104377,26.0666667 55.4245791,26.4771044 C55.2387205,26.8875421 54.913468,27.2824916 54.4488215,27.6774411 C53.6047138,28.606734 52.7451178,29.4818182 51.8855219,30.3104377 C51.0259259,31.1390572 50.16633,31.8747475 49.3144781,32.5097643 C48.4626263,33.1447811 47.6107744,33.6481481 46.7744108,34.0276094 C45.930303,34.4070707 45.1171717,34.5929293 44.3195286,34.5929293 C43.7774411,34.5929293 43.3205387,34.5077441 42.9565657,34.3373737 C42.5925926,34.1670034 42.2983165,33.926936 42.0814815,33.6326599 C41.8646465,33.3306397 41.7097643,32.9821549 41.616835,32.5717172 C41.5239057,32.1612795 41.4774411,31.7353535 41.4774411,31.2784512 C41.4774411,30.5117845 41.5703704,29.7218855 41.7639731,28.9164983 C41.9575758,28.1111111 42.1821549,27.3676768 42.4454545,26.6939394 C42.910101,25.4703704 43.3824916,24.2545455 43.8548822,23.0464646 C44.3350168,21.8383838 44.7686869,20.7309764 45.1636364,19.7319865 L51.1808081,4.55353535 C51.4208754,3.94175084 51.7383838,3.50808081 52.1410774,3.26026936 C52.543771,3.01245791 52.9542088,2.88080808 53.3646465,2.88080808 C53.7750842,2.88080808 54.1468013,3.01245791 54.4875421,3.28350168 C54.8282828,3.54680135 54.9909091,3.98047138 54.9909091,4.57676768 C54.9909091,4.85555556 54.9367003,5.15757576 54.8205387,5.46734007 C54.7043771,5.78484848 54.5649832,6.11784512 54.3946128,6.48181818 C54.0616162,7.21750842 53.6666667,8.12356902 53.2097643,9.18451178 C52.752862,10.2531987 52.2649832,11.4148148 51.7383838,12.6693603 C51.2117845,13.9239057 50.6774411,15.2326599 50.1276094,16.5878788 C49.5777778,17.9430976 49.0434343,19.2673401 48.516835,20.552862 C47.9902357,21.8383838 47.5023569,23.0619529 47.0454545,24.2158249 C46.6195286,25.3542088 46.2245791,26.3531987 45.8915825,27.1973064 Z" id="Path"></path>
            <path d="M74.0414141,22.9380471 C74.2272727,22.8141414 74.3976431,22.713468 74.5602694,22.6282828 C74.7151515,22.5508418 74.8700337,22.5121212 75.0171717,22.5121212 C75.3114478,22.5121212 75.5282828,22.643771 75.6754209,22.8993266 C75.8225589,23.1548822 75.8922559,23.4723906 75.8922559,23.8518519 C75.8922559,24.2622896 75.8070707,24.6727273 75.6212121,25.0986532 C75.4430976,25.5245791 75.1720539,25.873064 74.8158249,26.159596 C73.3986532,27.4141414 72.1363636,28.5602694 71.0212121,29.5979798 C69.9060606,30.6356902 68.8606061,31.5262626 67.8693603,32.269697 C66.8858586,33.0131313 65.9178451,33.5939394 64.9808081,33.996633 C64.043771,34.4070707 63.037037,34.6084175 61.9606061,34.6084175 C60.9538721,34.6084175 60.1794613,34.3915825 59.6296296,33.9501684 C59.079798,33.5087542 58.8087542,32.9047138 58.8087542,32.1380471 C58.8087542,32.0760943 58.8087542,32.0141414 58.8087542,31.9599327 C58.8087542,31.9057239 58.8164983,31.8360269 58.8319865,31.7585859 C58.8861953,31.2861953 59.0875421,30.7441077 59.4515152,30.1323232 C59.8077441,29.5205387 60.2414141,28.8855219 60.7447811,28.2272727 C61.2481481,27.5690236 61.7824916,26.9030303 62.3555556,26.2292929 C62.9286195,25.5555556 63.4474747,24.9127946 63.9353535,24.3087542 C64.4154882,23.7047138 64.8181818,23.1548822 65.1356902,22.6515152 C65.4531987,22.1481481 65.6158249,21.7454545 65.6158249,21.4279461 C65.6158249,21.2420875 65.5461279,21.0872054 65.4144781,20.9787879 C65.2828283,20.8703704 65.0659933,20.8161616 64.756229,20.8161616 C64.2296296,20.8161616 63.679798,20.9555556 63.1144781,21.2265993 C62.5491582,21.4976431 61.9915825,21.8693603 61.4417508,22.3340067 C60.8919192,22.7986532 60.3575758,23.3252525 59.8309764,23.9215488 C59.3043771,24.5178451 58.8164983,25.1373737 58.359596,25.7801347 C57.9026936,26.4228956 57.4845118,27.0734007 57.1050505,27.7239057 C56.7255892,28.3744108 56.4080808,28.9784512 56.1447811,29.5205387 C56.0673401,29.6909091 55.9511785,29.9387205 55.8040404,30.2484848 C55.6569024,30.5659933 55.5020202,30.9144781 55.3239057,31.3094276 C55.1535354,31.7043771 54.9676768,32.1070707 54.7740741,32.5175084 C54.5804714,32.9356902 54.410101,33.3228956 54.2474747,33.6946128 C54.0848485,34.06633 53.9454545,34.3915825 53.8215488,34.6858586 C53.6976431,34.9723906 53.6047138,35.1737374 53.5505051,35.2821549 C53.4808081,35.4215488 53.3723906,35.6925926 53.2252525,36.079798 C53.0703704,36.4747475 52.9,36.9316498 52.6986532,37.4582492 C52.4973064,37.9848485 52.2882155,38.5346801 52.0713805,39.1154882 C51.8545455,39.6962963 51.6454545,40.2461279 51.4518519,40.7649832 C51.2582492,41.2838384 51.0878788,41.7407407 50.9484848,42.1279461 C50.8013468,42.5228956 50.7084175,42.7861953 50.669697,42.9255892 C50.5380471,43.3360269 50.383165,43.7154882 50.2050505,44.0794613 C50.026936,44.4434343 49.8178451,44.7609428 49.5855219,45.0319865 C49.3531987,45.3030303 49.089899,45.5276094 48.7878788,45.6902357 C48.4858586,45.852862 48.152862,45.9380471 47.7811448,45.9380471 C47.3010101,45.9380471 46.9138047,45.8218855 46.5962963,45.5973064 C46.286532,45.3727273 46.1316498,44.9313131 46.1316498,44.2885522 C46.1316498,43.9710438 46.1703704,43.6535354 46.2478114,43.3205387 C46.3252525,42.9875421 46.4259259,42.6622896 46.5420875,42.3447811 C46.6582492,42.0195286 46.7821549,41.7097643 46.9060606,41.4077441 C47.0299663,41.0979798 47.1461279,40.8114478 47.2545455,40.5249158 C47.9670034,38.952862 48.6949495,37.3808081 49.4383838,35.8087542 C50.1818182,34.2289562 50.8942761,32.6723906 51.5757576,31.123569 C52.2572391,29.5747475 52.8922559,28.0569024 53.473064,26.5700337 C54.0538721,25.083165 54.5417508,23.6505051 54.9212121,22.2875421 C55.0296296,22.0010101 55.1690236,21.6060606 55.3548822,21.0872054 C55.5407407,20.5683502 55.7498316,20.0572391 55.989899,19.5616162 C56.2299663,19.0582492 56.493266,18.6245791 56.7952862,18.252862 C57.0895623,17.8811448 57.4148148,17.7030303 57.7555556,17.7030303 C58.2821549,17.7030303 58.6693603,17.826936 58.9094276,18.0670034 C59.1494949,18.3070707 59.2656566,18.6632997 59.2656566,19.1356902 C59.2656566,19.2286195 59.2501684,19.3757576 59.226936,19.5848485 C59.2037037,19.7861953 59.1649832,20.0030303 59.1262626,20.2353535 C59.0875421,20.4599327 59.0410774,20.6767677 58.9946128,20.8858586 C58.9481481,21.0872054 58.9016835,21.2420875 58.862963,21.3350168 C59.3508418,20.8006734 59.8851852,20.2740741 60.4505051,19.7474747 C61.023569,19.2208754 61.6121212,18.7484848 62.2161616,18.3225589 C62.8279461,17.896633 63.4474747,17.5558923 64.0824916,17.2848485 C64.7175084,17.0215488 65.3525253,16.8821549 65.9875421,16.8821549 C66.4212121,16.8821549 66.8548822,16.9441077 67.2885522,17.0680135 C67.7222222,17.1919192 68.1016835,17.3777778 68.4424242,17.6178451 C68.783165,17.8579125 69.0542088,18.1676768 69.2632997,18.5393939 C69.4723906,18.9111111 69.5808081,19.337037 69.5808081,19.8249158 C69.5808081,20.4676768 69.4181818,21.1569024 69.0929293,21.8848485 C68.7676768,22.6127946 68.3572391,23.3484848 67.8693603,24.0841751 C67.3814815,24.8198653 66.847138,25.5400673 66.2818182,26.237037 C65.7087542,26.9340067 65.1821549,27.5690236 64.6787879,28.1420875 C64.183165,28.7151515 63.7649832,29.2030303 63.4242424,29.5979798 C63.0835017,30.0006734 62.9131313,30.2717172 62.8976431,30.4111111 C62.8976431,30.5969697 62.959596,30.7518519 63.0757576,30.8680135 C63.1919192,30.9841751 63.393266,31.0461279 63.6720539,31.0461279 C63.896633,31.0461279 64.2296296,30.9222222 64.6632997,30.6666667 C65.0969697,30.4188552 65.7164983,29.9774411 66.4986532,29.3579125 C67.2885522,28.7383838 68.2875421,27.9097643 69.4956229,26.8643098 C70.7734007,25.8420875 72.2680135,24.5255892 74.0414141,22.9380471 Z" id="Path"></path>
        </g>
    </g>
</svg>