<?xml version="1.0" encoding="UTF-8"?>
<svg width="134px" height="38px" viewBox="0 0 134 38" version="1.1" xmlns="http://www.w3.org/2000/svg" xmlns:xlink="http://www.w3.org/1999/xlink">
    <!-- Generator: Sketch 59.1 (86144) - https://sketch.com -->
    <title>JQuery_logo_text</title>
    <desc>Created with Sketch.</desc>
    <g id="Page-1" stroke="none" stroke-width="1">
        <g id="JQuery_logo_text">
            <path d="M38.2810084,14.7436807 L38.2813277,14.742084 C38.2813277,14.742084 37.2109412,18.5356975 37.2109412,18.5356975 C37.2109412,18.5356975 38.2809445,14.7436807 38.2809445,14.7436807 L38.2810084,14.7436807 Z" id="Path"></path>
            <path d="M43.7862185,22.9794622 C43.7862185,22.9794622 42.6066857,22.972437 42.6066857,22.972437 C42.6066857,22.972437 43.7862185,22.9794622 43.7862185,22.9794622 Z" id="Path"></path>
            <path d="M43.4828571,28.6446555 L43.4841345,28.6446555 C43.4841345,28.6446555 36.4170924,28.6703933 36.4170924,28.6703933 C36.4170924,28.6703933 43.4831765,28.6446555 43.4831765,28.6446555 L43.4828571,28.6446555 Z" id="Path"></path>
            <path d="M44.9645378,22.9864874 C44.9645378,22.9864874 43.7845899,22.9794622 43.7845899,22.9794622 C43.7845899,22.9794622 44.9645378,22.9864874 44.9645378,22.9864874 Z" id="Path"></path>
            <path d="M44.1023529,28.1631092 C44.1023529,28.1631092 45.3333613,23.4683529 45.3333613,23.4683529 C45.3333613,23.4683529 44.1023529,28.1640672 44.1023529,28.1640672 L44.1023529,28.1634286 L44.1023529,28.1631092 Z" id="Path"></path>
            <path d="M70.1211765,6.54302521 C70.1211765,6.54302521 67.8279563,17.3235294 67.8279563,17.3235294 C67.8279563,17.3235294 70.1211765,6.54302521 70.1211765,6.54302521 Z" id="Path"></path>
            <path d="M64.2263866,6.54302521 C64.2263866,6.54302521 62.4855076,14.5964706 62.4855076,14.5964706 C62.4855076,14.5964706 64.2263866,6.54238655 64.2263866,6.54238655 L64.2263866,6.54302521 L64.2263866,6.54302521 Z" id="Path"></path>
            <path d="M69.7284034,6.05796639 L64.8248067,6.05796639 C64.5527235,6.05796639 64.2825882,6.27625563 64.2245025,6.54209916 C64.2245025,6.54209916 62.4836555,14.5961832 62.4836555,14.5961832 C62.4836555,14.5961832 60.7427765,22.6502672 60.7427765,22.6502672 C60.6850867,22.9161108 60.4153378,23.1336336 60.1432706,23.1336336 L56.6724975,23.1336336 C53.2387664,23.1336336 53.6359143,20.7589529 54.3391378,17.5048437 C54.346163,17.4721126 54.3531882,17.4401383 54.3601815,17.4066153 C54.3601815,17.4066153 54.4373598,16.9965346 54.4373598,16.9965346 C54.442022,16.9700304 54.4474825,16.9435166 54.4517615,16.9193531 C54.4517615,16.9193531 54.608462,16.084375 54.608462,16.084375 C54.608462,16.084375 54.7764667,15.1893951 54.7764667,15.1893951 C54.8275336,14.9196494 54.9051015,14.5251615 54.9557788,14.2772674 C54.9557788,14.2772674 55.7470729,10.4105279 55.7470729,10.4105279 C55.7470729,10.4105279 56.5391654,6.5437884 56.5391654,6.5437884 C56.5937385,6.27716252 56.4152055,6.05796639 56.1431351,6.05796639 L51.1098914,6.05796639 C50.837805,6.05796639 50.5684393,6.27716252 50.5127166,6.54302202 C50.5127166,6.54302202 49.4306108,11.6774926 49.4306108,11.6774926 C49.4306108,11.6774926 48.3485049,16.8113245 48.3485049,16.8113245 C48.3475469,16.8135598 48.3472276,16.816785 48.3469082,16.8191161 C48.3469082,16.8191161 48.2463392,17.2962556 48.2463392,17.2962556 C46.9997476,22.9873145 47.3303156,28.4142892 54.105045,28.5841716 C54.215756,28.5873649 54.3015114,28.5881632 54.3015114,28.5881632 L64.9357635,28.5881632 C65.2078499,28.5881632 65.4772156,28.3698708 65.5341198,28.1032321 C65.5341198,28.1032321 67.82734,17.3236859 67.82734,17.3236859 C67.82734,17.3236859 70.1205602,6.54318168 70.1205602,6.54318168 C70.1770844,6.27655261 70.0004993,6.05825059 69.7284257,6.05825059 L69.7284034,6.05796639 Z" id="Path"></path>
            <path d="M89.2904202,23.1898992 C89.5628929,23.1898992 89.7410235,23.4081916 89.6864504,23.6748303 C89.6864504,23.6748303 89.2101092,26.001963 89.2101092,26.001963" id="Path"></path>
            <path d="M88.7347899,28.330437 C88.7347899,28.330437 89.2107479,26.0017395 89.2107479,26.0017395 C89.2107479,26.0017395 88.7344067,28.3312034 88.7344067,28.3312034 C88.7344067,28.3305647 88.7347229,28.3305647 88.7347229,28.3305647 L88.7347899,28.330437 Z" id="Path"></path>
            <path d="M88.1376471,28.8202857 C88.1382857,28.8202857 88.1392437,28.8196471 88.1398824,28.8196471 C86.6968403,28.8313345 82.3603697,28.8640847 79.1009916,28.8640847 C83.0676807,28.8640847 88.1373277,28.8204262 88.1373277,28.8204262 L88.1376471,28.8202857 Z" id="Path"></path>
            <path d="M76.1756303,20.1923697 C76.1716387,19.9374345 76.4617479,19.4985025 76.7342303,19.4985025 C76.7342303,19.4985025 76.1218555,19.4883798 76.1218555,19.4883798 C75.8458733,22.2637849 76.1756462,20.1923697 76.1756462,20.1923697 L76.1756303,20.1923697 Z" id="Path"></path>
            <path d="M79.5477311,28.8630756 C79.5165647,28.8630756 79.484584,28.8630756 79.4533953,28.8637143 C79.4845617,28.8630756 79.5165487,28.8630756 79.5477311,28.8630756 Z" id="Path"></path>
            <path d="M89.2904202,23.1898992 C89.5628929,23.1898992 89.7410235,23.4081916 89.6864504,23.6748303 C89.6864504,23.6748303 89.2101092,26.001963 89.2101092,26.001963 C89.2101092,26.001963 89.132535,26.3816437 89.132535,26.3816437" id="Path"></path>
            <path d="M81.8692437,28.8576471 L81.8493496,28.8576471 L81.8692437,28.8576471 Z" id="Path"></path>
            <path d="M80.6653782,28.861479 L80.5955987,28.861479 L80.6653782,28.861479 Z" id="Path"></path>
            <path d="M80.2981513,28.862437 C80.2591901,28.862437 80.2209697,28.862437 80.1827654,28.8630756 C80.2209666,28.862437 80.2591709,28.862437 80.2981513,28.862437 Z" id="Path"></path>
            <path d="M79.9245378,28.8630756 L79.8231928,28.8630756 L79.9245378,28.8630756 Z" id="Path"></path>
            <path d="M80.5951261,28.861479 C80.4957289,28.861479 80.3963286,28.8621176 80.2981002,28.8621176 C80.3963286,28.8621176 80.4957289,28.861479 80.5951261,28.861479 Z" id="Path"></path>
            <path d="M81.850084,28.8576471 C81.4532555,28.8592437 81.0572252,28.8608403 80.6670387,28.8616387 C81.0572252,28.861 81.4536706,28.8594034 81.850084,28.8576471 Z" id="Path"></path>
            <path d="M88.1408403,28.8193277 L88.1411597,28.8193277 C87.0836101,28.8279176 84.472084,28.8473966 81.8676471,28.8575289 C84.4707429,28.8482045 87.0829076,28.8279272 88.1408403,28.8193277 L88.1408403,28.8193277 Z" id="Path"></path>
            <path d="M88.7347899,28.331395 C88.7347899,28.331395 89.1335664,26.3815798 89.1335664,26.3815798 C89.1335664,26.3815798 88.7344067,28.3329277 88.7344067,28.3329277 C88.7344067,28.3322891 88.7347261,28.3322891 88.7347261,28.3313311 L88.7347899,28.331395 Z" id="Path"></path>
            <path d="M80.1831933,28.8630756 L79.9243654,28.8630756 L80.1831933,28.8630756 Z" id="Path"></path>
            <path d="M79.4519328,28.8637143 L79.1018857,28.8637143 L79.4519328,28.8637143 Z" id="Path"></path>
            <path d="M79.8223529,28.8630756 L79.5463708,28.8630756 L79.8223529,28.8630756 Z" id="Path"></path>
            <path d="M8.09304202,20.2508067 C8.09304202,20.2508067 8.85470252,16.8742353 8.85470252,16.8742353 C8.85470252,16.8742353 7.9838958,20.7339496 7.9838958,20.7339496 C7.9838958,20.7339496 7.14815126,24.6655126 7.14815126,24.6655126 C7.14815126,24.6655126 7.88059328,21.2190084 7.88059328,21.2190084 C7.93711429,20.9523793 8.0330084,20.5165832 8.09303882,20.2507429 L8.09304202,20.2508067 Z" id="Path"></path>
            <path d="M17.2098487,6.00112605 L11.8247059,6.00112605 C11.5522363,6.00112605 11.2805395,6.21863613 11.2197395,6.48369412 C11.2197395,6.48369412 10.7091025,8.73754118 10.7091025,8.73754118 C10.7091025,8.73754118 10.1984655,10.9921866 10.1984655,10.9921866 C10.1384351,11.2572541 10.3119003,11.4747546 10.5843731,11.4747546 L16.0113479,11.4747546 C16.2834311,11.4747546 16.5539496,11.2572445 16.6124185,10.9913882 C16.6124185,10.9913882 17.1059076,8.73754118 17.1059076,8.73754118 C17.1059076,8.73754118 17.5993966,6.48525882 17.5993966,6.48525882 L17.5993966,6.48462017 C17.6574792,6.21877025 17.4824556,6.00125378 17.2099765,6.00125378 L17.2098487,6.00112605 Z" id="Path"></path>
            <path d="M16.037916,13.4986218 L16.037916,13.4979832 C16.037916,13.4979832 14.4584252,20.8051597 14.4584252,20.8051597 C14.4584252,20.8051597 16.037916,13.4986218 16.037916,13.4986218 L16.037916,13.4986218 Z" id="Path"></path>
            <path d="M0.393986555,37.7094118 C0.393986555,37.7094118 3.1085916,37.7444995 4.83423866,37.7444995 C3.52333445,37.7444995 1.3583563,37.7203583 0.391751261,37.708655 C0.392709244,37.708655 0.393347899,37.7092936 0.394305882,37.7092936 L0.393986555,37.7094118 Z" id="Path"></path>
            <path d="M9.61623529,13.4976639 C9.61623529,13.4976639 8.85377647,16.8742353 8.85377647,16.8742353 C8.85377647,16.8742353 9.61623529,13.4976639 9.61623529,13.4976639 Z" id="Path"></path>
            <path d="M15.6483361,13.014521 L10.2207227,13.014521 C9.9486395,13.014521 9.6765563,13.2320375 9.61652269,13.4978874 C9.61652269,13.4978874 8.85406387,16.8744588 8.85406387,16.8744588 C8.85406387,16.8744588 8.09240336,20.2510303 8.09240336,20.2510303 C8.03237294,20.5168802 7.93647882,20.9526891 7.87995782,21.2192958 C7.87995782,21.2192958 7.1475158,24.6658 7.1475158,24.6658 C7.1475158,24.6658 6.41545697,28.1123042 6.41545697,28.1123042 C6.35854639,28.3781509 6.24160538,28.8077042 6.1542884,29.0657529 C6.1542884,29.0657529 5.14042286,32.0828252 3.43578756,32.0485294 C3.3632842,32.0469328 3.29272874,32.0462941 3.22295563,32.0445378 C2.39695059,32.0289227 1.74794891,32.0172353 1.74794891,32.0172353 L1.7466716,32.0172353 C1.47497798,32.0132437 1.20170689,32.2253891 1.13819261,32.4896807 C1.13819261,32.4896807 0.575313613,34.8558034 0.575313613,34.8558034 C0.575313613,34.8558034 0.0132010084,37.2211277 0.0132010084,37.2211277 C-0.0499460504,37.4854097 0.120788908,37.7036958 0.391316975,37.7083899 C1.35804975,37.7200773 3.52299597,37.7442345 4.83380437,37.7442345 C9.09172034,37.7442345 11.336275,35.385137 12.7751657,28.5964529 C12.7751657,28.5964529 14.4591086,20.8051756 14.4591086,20.8051756 C14.4591086,20.8051756 16.0385993,13.4979992 16.0385993,13.4979992 C16.0959027,13.2321556 15.9200968,13.014521 15.6479976,13.014521 L15.6483361,13.014521 Z" id="Path"></path>
            <path d="M92.7487395,28.5878151 C92.4766563,28.5878151 92.300084,28.3695227 92.3573714,28.102884 C92.3573714,28.102884 96.4402958,8.97834622 96.4402958,8.97834622" id="Path"></path>
            <path d="M98.4231933,28.1021176 C98.4231933,28.1021176 100.074405,19.9394622 100.074405,19.9394622 C100.074405,19.9394622 98.4231933,28.1021176 98.4231933,28.1021176 Z" id="Path"></path>
            <path d="M92.4166387,28.3454454 C92.3835084,28.2121292 92.4029714,27.8854857 92.4606835,27.6188471 C92.4606835,27.6188471 94.3983961,18.5409983 94.3983961,18.5409983 C94.3983961,18.5409983 92.3569978,28.1029479 92.3569978,28.1029479 C92.2996976,28.3695706 92.4762795,28.587879 92.7483659,28.587879 L93.244218,28.587879 C92.971742,28.587879 92.4494113,28.4787328 92.4166482,28.345423 L92.4166387,28.3454454 Z" id="Path"></path>
            <path d="M98.1006723,28.478605 C97.9525425,28.5386355 97.6079496,28.5877513 97.3354992,28.5877513 L97.8313193,28.5877513 C98.1034025,28.5877513 98.3707916,28.3694588 98.4245983,28.1020538 C98.4245983,28.1020538 98.5228267,27.6171227 98.5228267,27.6171227 C98.4686464,27.8837486 98.2491884,28.4185714 98.1006755,28.478605 L98.1006723,28.478605 Z" id="Path"></path>
            <path d="M99.2502521,24.0207899 C99.2502521,24.0207899 99.9791815,20.4181345 99.9791815,20.4181345 C99.9788622,20.4203697 99.9785429,20.423595 99.9779042,20.4251597 C99.9779042,20.4251597 99.2501563,24.0207899 99.2501563,24.0207899 L99.2502521,24.0207899 Z" id="Path"></path>
            <path d="M115.360336,10.2593613 C115.360336,10.2593613 115.585251,11.1886689 115.585251,11.1886689 C115.647233,11.4545124 115.475326,11.6704706 115.203623,11.671237" id="Path"></path>
            <path d="M98.5221849,27.6173782 C98.5221849,27.6173782 99.2491664,24.0211092 99.2491664,24.0211092 C99.2491664,24.0211092 98.5221849,27.6173782 98.5221849,27.6173782 Z" id="Path"></path>
            <path d="M115.136807,9.30744538 C115.136807,9.30744538 115.359388,10.2593613 115.359388,10.2593613 C115.359388,10.2593613 115.136807,9.30744538 115.136807,9.30744538 Z" id="Path"></path>
            <path d="M99.9783161,20.4184538 C100.032506,20.1518279 100.122161,19.7199244 100.178685,19.4556487 C100.178685,19.4556487 100.95711,15.8086067 100.95711,15.8086067 C100.95711,15.8086067 100.075382,19.9397496 100.075382,19.9397496 C100.075382,19.9397496 99.9783161,20.4184538 99.9783161,20.4184538 L99.9783161,20.4184538 Z" id="Path"></path>
            <path d="M96.5072269,8.66495798 C96.4530466,8.92223076 96.3836598,9.24731597 96.3376607,9.46251092 C96.3376607,9.46251092 94.3999481,18.5409983 94.3999481,18.5409983 C94.3999481,18.5409983 96.4413464,8.97841008 96.4413464,8.97841008 C96.4413464,8.97841008 96.5072269,8.66495798 96.5072269,8.66495798 L96.5072269,8.66495798 Z" id="Path"></path>
            <path d="M115.583866,11.188605 C115.583866,11.188605 115.35895,10.2592975 115.35895,10.2592975 C115.35895,10.2592975 115.136369,9.30738151 115.136369,9.30738151 C115.136369,9.30738151 115.023717,8.82557983 115.023717,8.82557983 C114.582853,7.11276975 113.288682,6.12422689 110.478725,6.12422689 C110.478725,6.12422689 106.103935,6.11956471 106.103935,6.11956471 C106.103935,6.11956471 102.074977,6.11490252 102.074977,6.11490252 L97.5414815,6.11490252 C97.2693983,6.11490252 97.0000294,6.33241261 96.9439235,6.59903529 L96.9436042,6.59903529 C96.9436042,6.59903529 96.7432484,7.54625714 96.7432484,7.54625714 C96.7432484,7.54625714 96.5066393,8.66498992 96.5066393,8.66498992 C96.5066393,8.66498992 96.440762,8.97839412 96.440762,8.97839412 C96.440762,8.97839412 94.3993637,18.5409824 94.3993637,18.5409824 C94.3993637,18.5409824 92.4616511,27.6188311 92.4616511,27.6188311 C92.4039645,27.885457 92.3844728,28.2121101 92.4176094,28.3454294 C92.4503405,28.4787392 92.9726968,28.5878854 93.2451472,28.5878854 L97.3350968,28.5878854 C97.6075696,28.5878854 97.9521657,28.5387696 98.1002699,28.4787392 C98.2487829,28.4187087 98.4682313,27.8838955 98.5224212,27.6172568 C98.5224212,27.6172568 99.2494027,24.0209879 99.2494027,24.0209879 C99.2494027,24.0209879 99.9771506,20.4253576 99.9771506,20.4253576 C99.9774699,20.423761 99.9777892,20.4206955 99.9784279,20.4183324 C99.9784279,20.4183324 100.075491,19.9396602 100.075491,19.9396602 C100.075491,19.9396602 100.957218,15.8085173 100.957218,15.8085173 C100.957218,15.8085173 101.736059,12.1598787 101.736059,12.1598787 C101.793755,11.8948143 102.061933,11.678077 102.333617,11.6773106 C102.333617,11.6773106 115.202524,11.6710837 115.202524,11.6710837 C115.474218,11.670445 115.646134,11.4543496 115.584153,11.1885156 L115.583866,11.188605 Z" id="Path"></path>
            <path d="M132.150588,2.78594286 C131.878119,2.78785882 131.43258,2.78955126 131.160097,2.78955126 L127.041089,2.78955126 C126.768613,2.78955126 126.419741,2.97354151 126.266145,3.19845042 C126.266145,3.19845042 117.15796,16.5421983 117.15796,16.5421983 C117.003986,16.7675064 116.828573,16.7339834 116.768156,16.4689158 C116.768156,16.4689158 116.098079,13.529025 116.098079,13.529025 C116.037659,13.2631783 115.764797,13.046457 115.492697,13.046457 L109.637185,13.046457 C109.364712,13.046457 109.203346,13.2600713 109.277782,13.5220318 C109.277782,13.5220318 111.90157,22.7135612 111.90157,22.7135612 C111.976411,22.9755121 111.981871,23.4058637 111.914439,23.6693729 C111.914439,23.6693729 110.770766,28.1179276 110.770766,28.1179276 C110.702941,28.382216 110.870556,28.5981645 111.143039,28.5981645 L116.930215,28.5981645 C117.202298,28.5981645 117.480608,28.3822128 117.54805,28.1179276 C117.54805,28.1179276 118.692138,23.6693729 118.692138,23.6693729 C118.759577,23.4058669 118.949021,23.0113982 119.113139,22.7938721 C119.113139,22.7938721 133.899929,3.16830908 133.899929,3.16830908 C134.064042,2.95079899 133.975163,2.7738116 133.70308,2.77577498 C133.70308,2.77577498 132.150892,2.78591412 132.150892,2.78591412 L132.150588,2.78594286 Z" id="Path"></path>
            <path d="M85.6309244,14.2975798 C85.6309244,14.2975798 85.630605,14.2921193 85.630605,14.2921193 C85.5963188,14.5875869 85.3238301,14.804321 85.0517277,14.804321 L77.6279966,14.804321 C77.371503,14.804321 77.2409076,14.6296871 77.278716,14.4145176 C77.2809513,14.4082908 77.2819092,14.4028303 77.2857412,14.3973697 C77.2857412,14.3973697 77.2831866,14.3980084 77.281079,14.399605 C77.2826756,14.3910151 77.2826756,14.3832555 77.2850706,14.3746655 C77.2850706,14.3746655 77.299121,14.3224299 77.3189992,14.248365 C78.0280345,12.3632776 79.4722899,11.1260424 82.1865118,11.1260424 C85.2421908,11.1260424 85.838663,12.6189953 85.6311,14.2974776 L85.6309244,14.2975798 Z M83.4531092,5.7287395 C73.9240504,5.7287395 71.666084,11.5127227 70.3993109,17.3503529 C69.132442,23.3003866 69.2415882,28.8637143 79.1019496,28.8637143 L79.4519966,28.8637143 C79.483163,28.8630756 79.5151501,28.8630756 79.5463324,28.8630756 L80.1824971,28.8630756 C80.2206983,28.862437 80.2589027,28.862437 80.2978798,28.862437 C80.3961114,28.862437 80.4955118,28.8617983 80.5949089,28.8617983 L80.6646884,28.8617983 C81.054875,28.8611597 81.4509371,28.8592437 81.8477338,28.8578067 L81.8676279,28.8578067 C84.4719052,28.847684 87.0835271,28.828205 88.1414598,28.8196087 C88.4119847,28.8156171 88.6766531,28.5974205 88.7324077,28.3331449 C88.7324077,28.3331449 89.1315674,26.381797 89.1315674,26.381797 C89.1315674,26.381797 89.2091417,26.0021163 89.2091417,26.0021163 C89.2091417,26.0021163 89.6854829,23.6749835 89.6854829,23.6749835 C89.740056,23.4083576 89.5619158,23.1900524 89.2894526,23.1900524 L80.4245955,23.1900524 C76.898898,23.1900524 75.8518224,22.2529533 76.2375703,19.4986239 L90.408377,19.4986239 C90.408377,19.4986239 90.4070997,19.5002205 90.4070997,19.5002205 C90.4107081,19.5002205 90.4137417,19.4986239 90.4168392,19.4986239 C90.642144,19.4946323 90.8502946,19.3395859 90.9329366,19.1329936 C90.9485518,19.0932373 90.9618039,19.0519131 90.9672229,19.009037 C90.9672229,19.009037 90.9656262,19.0106336 90.9656262,19.0106336 C93.0698044,11.0740622 92.4663708,5.72915462 83.4524834,5.72915462 L83.4531092,5.7287395 Z" id="Shape"></path>
            <path d="M38.4151261,14.2672437 C38.4151261,14.2672437 38.2810308,14.7420202 38.2810308,14.7420202 C38.2810308,14.7436168 38.2807114,14.7436168 38.2807114,14.7436168 C38.2807114,14.7436168 37.2107081,18.5356336 37.2107081,18.5356336 C37.2107081,18.5356336 36.1410879,22.3270118 36.1410879,22.3270118 C36.0670262,22.5889595 35.7840156,22.8033529 35.5111501,22.8033529 L29.8475534,22.8033529 C25.5516375,22.8033529 24.5055198,19.4433866 25.5516375,14.4874202 C26.5974997,9.41841176 28.6482543,6.26728571 32.876377,5.94827731 C38.6542929,5.51245882 39.8102593,9.57647899 38.4151165,14.2674034 L38.4151261,14.2672437 Z M42.2991092,22.5116471 C42.2991092,22.5116471 44.9692639,16.0283361 45.5757311,12.2832605 C46.4059832,7.27013445 43.8960672,0 34.2012773,0 C24.5610924,0 20.3753445,6.94122689 18.7780672,14.4869412 C17.1810454,22.0872605 19.2735042,28.7529076 28.8582857,28.6983025 C28.8582857,28.6983025 36.4196471,28.6702336 36.4196471,28.6702336 C36.4196471,28.6702336 43.4866891,28.6444958 43.4866891,28.6444958 C43.7587723,28.6422605 44.0370824,28.4262034 44.1064723,28.1634605 C44.1064723,28.1634605 45.3374807,23.4677462 45.3374807,23.4677462 C45.4060882,23.204237 45.2396418,22.9875092 44.9675714,22.9859445 C44.9675714,22.9859445 43.7876235,22.9789193 43.7876235,22.9789193 C43.7876235,22.9789193 42.6080908,22.9718941 42.6080908,22.9718941 C42.3765462,22.9702975 42.2440252,22.8206477 42.2720941,22.6218471 C42.2771714,22.5860025 42.2853462,22.5493437 42.3009613,22.5111425 L42.2991092,22.5116471 Z" id="Shape"></path>
            <path d="M90.0184874,18.1723025 C90.0184874,18.3516146 89.8730911,18.4974101 89.6933798,18.4974101 C89.5140709,18.4974101 89.3682723,18.3516242 89.3682723,18.1723025 C89.3682723,17.9929936 89.5140613,17.8479933 89.6933798,17.8479933 C89.8730783,17.8479933 90.0184874,17.993 90.0184874,18.1723025 Z" id="Path"></path>
        </g>
    </g>
</svg>