<?xml version="1.0" encoding="UTF-8"?>
<svg width="536px" height="641px" viewBox="0 0 536 641" version="1.1" xmlns="http://www.w3.org/2000/svg" xmlns:xlink="http://www.w3.org/1999/xlink">
    <!-- Generator: Sketch 54.1 (76490) - https://sketchapp.com -->
    <title>Path</title>
    <desc>Created with Sketch.</desc>
    <g id="Page-1" stroke="none" stroke-width="1" fill-rule="evenodd">
        <g id="2" transform="translate(-107.000000, -51.000000)" fill-rule="nonzero">
            <path d="M375.152746,658.77227 C410.767162,627.259851 431.826864,592.602102 431.826864,558.268348 C431.826864,515.846473 403.467489,487.135535 366.904989,487.135535 C346.983114,487.135535 330.459676,496.74491 318.740926,516.783973 C307.139364,496.74491 290.498739,487.135535 270.576864,487.135535 C234.014364,487.135535 205.654989,515.846473 205.654989,558.268348 C205.654989,593.663323 228.105544,629.402632 265.721267,661.685203 C246.101569,658.106007 234.381794,653.626993 215.581464,638.172845 C188.400696,615.829852 177.245668,574.983238 168.400192,540.399147 C159.554717,505.815056 161.632674,472.566211 161.131672,446.467113 C160.885924,420.915598 161.861887,397.62747 164.05956,376.602727 C166.111102,355.979476 164.609488,322.013967 159.554717,274.706201 C154.353815,227.799926 151.901397,198.944511 152.197462,188.139954 C152.493527,177.335398 153.518348,169.524165 155.271923,164.706257 C156.879367,160.289841 160.493739,156.603887 166.11504,153.648395 C171.590209,151.094396 175.805709,150.127973 178.76154,150.749128 C181.717371,151.370283 184.38094,152.794422 186.752246,155.021546 C189.524937,157.394763 196.11979,185.484502 206.536804,239.290764 C206.536804,239.290764 221.210009,316.754958 222.162326,320.000157 C223.114642,323.245356 235.722866,336.35962 239.628306,311.35282 C242.112538,304.52745 241.981617,264.922656 239.235544,192.538437 C239.235544,192.538437 233.594334,104.550721 235.021966,93.1349916 C236.449598,81.7192622 238.950955,77.1735239 238.950955,77.1735239 C241.507301,72.6478003 244.701784,69.4910387 248.534402,67.7032392 C252.22089,66.316932 256.76471,65.6973483 262.165863,65.844488 C267.822271,66.5392126 271.909193,67.7993907 274.42663,69.6250225 C277.199322,71.9982392 279.351431,74.8276019 280.882957,78.1131107 C282.268352,81.800112 283.032214,88.4436523 283.174543,98.0437316 C283.572126,108.191396 286.244692,133.94418 291.19224,175.302083 C296.139789,216.659987 298.410019,244.767071 298.002929,259.623336 C298.002929,259.623336 297.247375,278.785899 297.994373,282.126873 C298.741371,285.467846 304.152409,294.93952 307.574969,280.157767 C309.182413,275.741351 311.707455,257.563839 315.150096,225.625232 C318.994123,193.832717 322.457169,156.21804 325.539235,112.781199 C325.539235,112.781199 328.092241,69.7201458 329.73907,57.7021778 C331.385899,45.6842098 331.276853,42.38332 335.82846,32.9171083 C340.380068,23.4508965 342.919587,21.3705309 353.682627,19.8632388 C360.857987,18.8583774 367.95496,21.3823311 374.973546,27.4350999 C379.041557,31.670109 381.594555,37.1356626 382.63254,43.8317604 C384.189517,53.8759073 384.189517,55.9232291 385.278847,70.4147868 C386.222046,85.3078369 385.738088,110.36642 383.826974,145.590536 C382.685876,166.622315 382.56459,186.60801 381.936313,204.777709 C381.512348,217.038701 380.5818,228.523695 379.416311,239.012064 C376.488435,265.360359 376.545297,274.152038 376.540409,275.343794 C376.535522,276.53555 377.650997,279.428115 379.416311,279.729627 C381.181625,280.031139 383.826974,281.256622 385.346539,277.543813 C386.359582,275.068607 389.010351,262.165673 393.298844,238.835013 C398.60038,213.029146 402.771776,184.083863 405.813031,151.999163 C409.255672,120.060556 412.073928,86.5796669 414.267798,75.5564954 C416.461669,64.533324 419.092032,57.3064613 422.158887,53.8759073 C425.225743,50.4453533 429.752009,48.0006614 435.737688,46.5418317 C441.577235,45.4844943 447.215138,46.8545036 452.651398,50.6518597 C458.087658,54.4492157 462.08206,59.0858178 464.634604,64.5616659 C467.442402,70.5850988 469.354909,91.6927707 470.372124,103.884682 C471.389339,116.076593 471.255057,133.305551 469.969278,155.571556 C468.6835,177.837561 465.936408,204.11849 461.728004,234.414343 C459.092571,254.976634 456.535715,277.899637 454.057437,303.183352 L455.232488,349.173875 L455.057437,395.989235 C453.933587,412.063214 454.149347,423.251918 455.704718,429.555346 C458.037773,439.010487 463.910817,443.227097 466.866648,443.848252 C469.822479,444.469406 473.636594,443.356892 478.308992,440.510707 C483.236644,438.212108 495.576181,426.789539 515.327602,406.243 C535.079022,385.696461 549.554065,372.777753 558.75273,367.486877 C567.951395,362.196001 576.912359,358.182648 585.635622,355.446819 C594.358885,352.710989 602.643754,351.179637 610.490229,350.852762 C618.73809,350.671979 626.273799,351.823373 633.097355,354.306945 C639.920912,356.790516 644.499839,359.821149 646.834136,363.398843 C649.022303,367.378029 649.404234,370.699799 647.979929,373.364153 C646.95701,376.1746 641.80921,381.575831 632.536529,389.567846 C623.263848,397.559861 608.988547,413.052008 589.710627,436.044286 C570.286576,459.438056 558.876487,473.926996 555.480361,479.511104 C552.339489,485.642797 549.244234,491.046608 547.781241,495.169307 C546.318249,499.292005 507.053568,560.682888 481.209684,586.154652 C455.365801,611.626415 448.334272,619.945302 429.689583,635.270236 C420.643239,642.705846 399.460135,651.981645 375.152752,658.772268 L375.152746,658.77227 Z" id="Path" transform="translate(400.497911, 340.666917) rotate(-22.000000) translate(-400.497911, -340.666917) "></path>
        </g>
    </g>
</svg>