<?xml version="1.0" encoding="iso-8859-1"?>
<!-- Generator: Adobe Illustrator 19.0.0, SVG Export Plug-In . SVG Version: 6.00 Build 0)  -->
<svg version="1.1" id="Capa_1" xmlns="http://www.w3.org/2000/svg" xmlns:xlink="http://www.w3.org/1999/xlink" x="0px" y="0px"
	 viewBox="0 0 512.001 512.001" style="enable-background:new 0 0 512.001 512.001;" xml:space="preserve">
<g>
	<g>
		<path d="M472.809,467.412l-50.096-77.655l50.094-77.589c1.747-2.706,1.574-6.227-0.432-8.748l-24.819-31.206
			c-1.339-1.683-3.559-2.836-5.878-2.836h-32.837c-4.148,0-7.51,3.362-7.51,7.51c0,4.147,3.361,7.51,7.51,7.51h19.056
			l-10.442,16.187h-52.269l-0.939-1.455l-9.504-14.732h19.055c4.148,0,7.51-3.362,7.51-7.51s-3.361-7.51-7.51-7.51H340.96
			c-2.276,0-4.506,1.116-5.873,2.829l-81.372-31.514v-21.018c14.24-11.075,24.114-27.492,26.594-46.22
			c17.362-1.227,30.129-15.305,30.129-31.914c0-7.708-2.781-15.07-7.737-20.806V92.958C302.703,41.701,261.003,0,209.745,0
			c-51.258,0-92.958,41.701-92.958,92.958v28.507c-5.009,5.679-7.734,12.666-7.734,20.078c0,16.594,12.742,30.682,30.119,31.913
			c2.496,19.04,12.63,36.085,28.115,47.334v19.908l-89.562,34.722c-0.047,0.018-0.094,0.037-0.141,0.056
			c-1.616,0.665-39.59,16.786-39.59,61.134c0,10.338,0,151.681,0,156.241c0,10.56,8.591,19.151,19.151,19.151
			c6.272,0,129.87,0,135.17,0c4.148,0,7.51-3.362,7.51-7.51s-3.361-7.51-7.51-7.51h-79.842c0-10.717,0-104.701,0-115.503
			c0-4.147-3.361-7.51-7.51-7.51c-4.148,0-7.51,3.362-7.51,7.51v32.704c-1.333-0.294-2.711-0.461-4.131-0.461H53.013V336.61
			c0-33.764,28.493-46.479,30.237-47.224l53.822-20.866l23.647,47.393c0,0,0,0.001,0.001,0.001
			c3.589,7.188,12.772,9.528,19.368,4.845l30.437-21.618l30.437,21.617c6.581,4.674,15.772,2.362,19.369-4.846l23.646-47.39
			l41.315,16.001l-15.03,18.898c-2.006,2.521-2.179,6.041-0.432,8.748l50.094,77.589l-15.46,23.964h-16.683
			c-1.42,0-2.799,0.167-4.131,0.461v-32.704c0-4.147-3.361-7.51-7.51-7.51s-7.51,3.362-7.51,7.51c0,5.762,0,109.686,0,115.503
			h-81.272c-4.148,0-7.51,3.362-7.51,7.51s3.361,7.51,7.51,7.51c5.781,0,130.751,0,136.598,0c10.745,0,19.151-8.763,19.152-19.15
			v-0.001v-41.753l8.211-12.717l35.119,54.393c2.09,3.236,6.289,4.367,9.722,2.616l33.75-17.217
			C473.872,476.152,475.216,471.145,472.809,467.412z M93.322,428.739c2.278,0,4.131,1.853,4.131,4.131c0,7.714,0,56.683,0,64.109
			H57.145c-2.278,0-4.131-1.853-4.131-4.131v-64.109H93.322z M295.421,141.542c0,8.155-5.825,15.316-14.48,16.728v-33.454
			C289.452,126.206,295.421,133.268,295.421,141.542z M138.553,158.27c-8.657-1.411-14.481-8.567-14.481-16.728
			c0-8.011,6.646-14.533,14.481-16.348V158.27z M138.959,109.892c-2.352,0.27-5.059,0.902-7.152,1.61V92.958h-0.001
			c0-42.975,34.963-77.939,77.939-77.939c42.976,0,77.939,34.963,77.939,77.939v18.03c-2.175-0.66-4.43-1.096-6.743-1.304v-0.72
			c0-2.761-0.229-4.276-1.897-6.708c-0.002-0.003-0.004-0.006-0.006-0.009c-2.354-3.424-7.211-8.268-21.711-23.854
			c-4.433-4.764-11.604-5.638-17.049-2.079c-25.557,16.694-57.356,25.688-87.405,23.53
			C146.425,99.358,140.541,103.627,138.959,109.892z M153.573,164.188c0-10.793,0-39.72,0-49.245
			c31.692,1.848,65.661-7.309,93.724-25.279c10.708,11.5,16.719,17.752,18.626,20.09c0,65.164,0.013,52.488-0.036,55.835
			c-0.75,29.884-25.274,53.864-55.231,53.864C176.604,219.452,153.573,193.119,153.573,164.188z M173.181,307.243l-22.039-44.169
			l21.277-8.241l27.23,33.611L173.181,307.243z M182.306,243.116v-14.017c17.228,6.924,38.104,7.549,56.391-0.47v14.549
			c-2.818,3.478-25.362,31.305-28.171,34.773L182.306,243.116z M247.873,307.242l-26.5-18.819l27.224-33.604l21.315,8.255
			L247.873,307.242z M407.765,315.605l-16.445,25.492l-16.445-25.492H407.765z M325.373,308.549l14.95-18.794
			c4.419,6.85,38.293,59.357,42.059,65.194l-13.52,20.957L325.373,308.549z M323.651,432.871c0-2.279,1.853-4.132,4.131-4.132h6.996
			l-11.127,17.248V432.871z M368.089,492.848L368.089,492.848c-0.001,2.256-1.853,4.131-4.132,4.131h-40.306v-13.238l22.828,11.645
			c3.464,1.765,7.674,0.56,9.721-2.616l11.888-18.413V492.848z M347.263,478.927l-20.305-10.358
			c81.771-126.752,34.947-54.171,115.358-178.814l14.949,18.796C451.783,317.041,349.854,474.913,347.263,478.927z M435.377,478.927
			l-35.118-54.393l13.512-20.929l41.911,64.964L435.377,478.927z"/>
	</g>
</g>
<g>
</g>
<g>
</g>
<g>
</g>
<g>
</g>
<g>
</g>
<g>
</g>
<g>
</g>
<g>
</g>
<g>
</g>
<g>
</g>
<g>
</g>
<g>
</g>
<g>
</g>
<g>
</g>
<g>
</g>
</svg>
