<?xml version="1.0" encoding="UTF-8"?>
<svg width="151px" height="44px" viewBox="0 0 151 44" version="1.1" xmlns="http://www.w3.org/2000/svg" xmlns:xlink="http://www.w3.org/1999/xlink">
    <!-- Generator: Sketch 59.1 (86144) - https://sketch.com -->
    <title>Node.js_logo</title>
    <desc>Created with Sketch.</desc>
    <g id="Page-1" stroke="none" stroke-width="1">
        <g id="Node.js_logo">
            <path d="M132.681099,43.7246784 C132.305427,43.7246784 131.932327,43.6261287 131.602971,43.4364912 L128.171228,41.4047719 C127.658667,41.1181287 127.908772,41.0167485 128.077825,40.9583392 C128.76124,40.7190409 128.89993,40.6650058 129.629404,40.2507368 C129.706082,40.2069942 129.806433,40.2224327 129.884912,40.2687485 L132.52131,41.833193 C132.616515,41.884655 132.751602,41.884655 132.83986,41.833193 L143.119392,35.8996257 C143.214596,35.8455906 143.276351,35.7349474 143.276351,35.621731 L143.276351,23.7597427 C143.276351,23.6413801 143.214596,23.535883 143.117333,23.4767018 L132.841918,17.5482807 C132.746713,17.4916725 132.620632,17.4916725 132.525427,17.5482807 L122.25207,23.4767018 C122.152491,23.5333099 122.089193,23.6439532 122.089193,23.7571696 L122.089193,35.6191579 C122.089193,35.7323743 122.150947,35.8404444 122.248725,35.8944795 L125.063696,37.5206784 C126.592117,38.2848889 127.526152,37.3843041 127.526152,36.4785731 L127.526152,24.7709708 C127.526152,24.6037193 127.65738,24.4750643 127.824632,24.4750643 L129.12662,24.4750643 C129.288725,24.4750643 129.422526,24.6037193 129.422526,24.7709708 L129.422526,36.4837193 C129.422526,38.521614 128.310947,39.6923743 126.37855,39.6923743 C125.784164,39.6923743 125.31586,39.6923743 124.008725,39.0490994 L121.312117,37.4949474 C120.645684,37.1089825 120.233988,36.3885146 120.233988,35.6191579 L120.233988,23.7571696 C120.233988,22.9852398 120.645684,22.2647719 121.312117,21.8839532 L131.601942,15.9478129 C132.252936,15.5798596 133.117497,15.5798596 133.763345,15.9478129 L144.040304,21.8865263 C144.704164,22.2699181 145.118433,22.9878129 145.118433,23.7597427 L145.118433,35.621731 C145.118433,36.3910877 144.704164,37.1089825 144.040304,37.4949474 L133.763345,43.4310877 C133.433988,43.6214971 133.060889,43.7192749 132.68007,43.7192749" id="Path"></path>
            <path d="M135.856304,35.5509708 C131.358526,35.5509708 130.415485,33.4863158 130.415485,31.7546199 C130.415485,31.5899415 130.548257,31.4587135 130.713193,31.4587135 L132.040912,31.4587135 C132.187579,31.4587135 132.311088,31.5654971 132.334246,31.7103626 C132.534947,33.0632982 133.131906,33.7456842 135.851673,33.7456842 C138.018222,33.7456842 138.939392,33.2562807 138.939392,32.1073918 C138.939392,31.4461053 138.676936,30.9546433 135.311322,30.6252865 C132.496351,30.3473918 130.756936,29.7272749 130.756936,27.4758129 C130.756936,25.4018947 132.506643,24.166807 135.437404,24.166807 C138.728398,24.166807 140.359743,25.3092632 140.565591,27.764 C140.57331,27.8489123 140.542433,27.9312515 140.485825,27.9930058 C140.429216,28.0521871 140.34945,28.0882105 140.267111,28.0882105 L138.931673,28.0882105 C138.792725,28.0882105 138.671789,27.9904327 138.643485,27.8566316 C138.321848,26.4337076 137.544772,25.978269 135.432257,25.978269 C133.067579,25.978269 132.792257,26.8016608 132.792257,27.4192047 C132.792257,28.1679766 133.116468,28.3866901 136.307111,28.8086784 C139.466877,29.2280936 140.966994,29.8199064 140.966994,32.0404912 C140.966994,34.2790877 139.098924,35.5630643 135.84138,35.5630643 M148.362082,22.9831813 L148.706877,22.9831813 C148.989918,22.9831813 149.043953,22.7850526 149.043953,22.6692632 C149.043953,22.3656374 148.835532,22.3656374 148.719743,22.3656374 L148.364655,22.3656374 L148.362082,22.9831813 Z M147.942667,22.0105497 L148.706877,22.0105497 C148.969333,22.0105497 149.483953,22.0105497 149.483953,22.5972164 C149.483953,23.0063392 149.221497,23.0912515 149.064538,23.1427135 C149.370737,23.1632982 149.391322,23.364 149.432491,23.6470409 C149.453076,23.8245848 149.486526,24.1307836 149.548281,24.2337076 L149.077404,24.2337076 C149.064538,24.1307836 148.992491,23.5647018 148.992491,23.5338246 C148.961614,23.4077427 148.917871,23.3459883 148.760912,23.3459883 L148.372374,23.3459883 L148.372374,24.2362807 L147.942667,24.2362807 L147.942667,22.0105497 Z M147.02407,23.1169825 C147.02407,24.038152 147.767696,24.7843509 148.681146,24.7843509 C149.602316,24.7843509 150.345942,24.0227135 150.345942,23.1169825 C150.345942,22.1932398 149.592023,21.4599064 148.678573,21.4599064 C147.777988,21.4599064 147.021497,22.1829474 147.021497,23.1144094 M150.665006,23.1221287 C150.665006,24.2131228 149.77214,25.1034152 148.683719,25.1034152 C147.603018,25.1034152 146.702433,24.2234152 146.702433,23.1221287 C146.702433,22.0002573 147.623602,21.1408421 148.683719,21.1408421 C149.751556,21.1408421 150.662433,22.0028304 150.662433,23.1221287" id="Shape"></path>
            <path d="M24.4279766,23.2994152 C24.4279766,22.8259649 24.178386,22.3911111 23.7697778,22.1556725 L12.8711579,15.8850292 C12.6871813,15.7769591 12.481076,15.7203509 12.2721404,15.7126316 L12.1594386,15.7126316 C11.9505029,15.7203509 11.7443977,15.7769591 11.5573333,15.8850292 L0.65922807,22.1556725 C0.253192982,22.3923977 0,22.8272515 0,23.3007018 L0.0239298246,40.1905263 C0.0239298246,40.4246784 0.144865497,40.6433918 0.35071345,40.7591813 C0.551415205,40.8826901 0.803578947,40.8826901 1.0042807,40.7591813 L7.48334503,37.0487719 C7.89246784,36.8053567 8.14205848,36.3751345 8.14205848,35.9063158 L8.14205848,28.0159064 C8.14205848,27.5450292 8.39164912,27.1101754 8.79948538,26.8760234 L11.557848,25.2873918 C11.7626667,25.1690292 11.9875556,25.1103626 12.2165614,25.1103626 C12.4419649,25.1103626 12.672,25.1685146 12.8711579,25.2871345 L15.6282339,26.8752515 C16.0363275,27.1094035 16.2869474,27.5442573 16.2869474,28.0151345 L16.2869474,35.9050292 C16.2869474,36.3733333 16.539883,36.805614 16.9469474,37.0474854 L23.4218947,40.7553216 C23.6251696,40.8762573 23.8781053,40.8762573 24.0806082,40.7553216 C24.2802807,40.6395322 24.4068772,40.4208187 24.4068772,40.1866667 L24.4279766,23.2994152 Z M75.856,32.0932398 C75.856,32.2108304 75.7934737,32.3196725 75.6913216,32.3778246 L71.9479766,34.5356257 C71.8463392,34.5940351 71.7207719,34.5940351 71.6193918,34.5356257 L67.8755322,32.3778246 C67.7726082,32.3194152 67.7108538,32.2105731 67.7108538,32.0932398 L67.7108538,27.771462 C67.7108538,27.653614 67.7726082,27.5450292 67.8729591,27.485848 L71.6142456,25.3244444 C71.7171696,25.2652632 71.8432515,25.2652632 71.9461754,25.3244444 L75.6900351,27.485848 C75.7929591,27.5450292 75.8547135,27.653614 75.8547135,27.771462 L75.856,32.0932398 Z M76.8672281,0.0833684211 C76.662924,-0.0303625731 76.4143626,-0.0272748538 76.2126316,0.0903157895 C76.0119298,0.208678363 75.8879064,0.424818713 75.8879064,0.65897076 L75.8879064,17.384117 C75.8879064,17.5487953 75.8004211,17.7006082 75.6578713,17.7829474 C75.5163509,17.8652865 75.3400936,17.8652865 75.1972865,17.7829474 L72.4672281,16.2105263 C72.0606784,15.975345 71.5599532,15.975345 71.1518596,16.2105263 L60.2496374,22.5025263 C59.8423158,22.7366784 59.590924,23.1715322 59.590924,23.6398363 L59.590924,36.2274386 C59.590924,36.6983158 59.8423158,37.1305965 60.2496374,37.3673216 L71.1518596,43.6636959 C71.558924,43.897848 72.0601637,43.897848 72.4685146,43.6636959 L83.3707368,37.3647485 C83.7772865,37.1280234 84.0294503,36.6957427 84.0294503,36.2248655 L84.0294503,4.85363743 C84.0294503,4.37607018 83.7695673,3.93684211 83.3527251,3.70346199 L76.8672281,0.0833684211 Z M113.17186,27.657731 C113.576865,27.4225497 113.826199,26.9882105 113.826199,26.5199064 L113.826199,23.4692398 C113.826199,22.9999064 113.576608,22.5668538 113.17083,22.3306433 L102.338082,16.0419883 C101.928959,15.8052632 101.427205,15.8052632 101.018082,16.0419883 L90.1184327,22.3332164 C89.7093099,22.5699415 89.4597193,23.0022222 89.4597193,23.4730994 L89.4597193,36.0555556 C89.4597193,36.5290058 89.7144561,36.9664327 90.1235789,37.2005848 L100.953754,43.3734503 C101.352585,43.6024561 101.841474,43.6050292 102.24545,43.3811696 L108.796561,39.7402339 C109.002409,39.6244444 109.133637,39.405731 109.133637,39.1690058 C109.133637,38.9322807 109.007556,38.7109942 108.801708,38.5952047 L97.8351579,32.3014035 C97.6293099,32.185614 97.5032281,31.9669006 97.5032281,31.7327485 L97.5032281,27.785614 C97.5032281,27.5499181 97.6267368,27.3327485 97.8325848,27.2154152 L101.244515,25.2469942 C101.447789,25.1286316 101.69738,25.1286316 101.900655,25.2469942 L105.315158,27.2154152 C105.518433,27.3312047 105.644515,27.5499181 105.644515,27.7840702 L105.644515,30.8872281 C105.644515,31.1213801 105.770596,31.3400936 105.973871,31.4584561 C106.177146,31.5742456 106.42931,31.5742456 106.632585,31.455883 L113.17186,27.657731 Z" id="Shape"></path>
            <path d="M101.51855,27.0690058 C101.595743,27.023462 101.692491,27.023462 101.770713,27.0690058 L103.862643,28.2757895 C103.940865,28.321076 103.988725,28.4044444 103.988725,28.4945029 L103.988725,30.9106433 C103.988725,31.0007018 103.940865,31.0840702 103.862643,31.1293567 L101.770713,32.3361404 C101.692491,32.3816842 101.595743,32.3816842 101.51855,32.3361404 L99.4279064,31.1293567 C99.3481404,31.0840702 99.2992515,31.0007018 99.2992515,30.9106433 L99.2992515,28.4945029 C99.2992515,28.4044444 99.3455673,28.321076 99.4253333,28.2757895 L101.51855,27.0690058 Z" id="Path"></path>
            <path d="M41.2947401,16.1484305 C41.6967966,15.9112171 42.2007074,15.9112171 42.6081246,16.1484305 L53.5038552,22.4339134 C53.9112724,22.6697865 54.1605474,23.1040075 54.1605474,23.5730734 L54.1605474,36.1574412 C54.1605474,36.6265071 53.9112724,37.0607281 53.5038552,37.2966012 L42.6081246,43.5820842 C42.2007074,43.8192975 41.6967966,43.8192975 41.2947401,43.5820842 L30.4057105,37.2966012 C29.9902521,37.0607281 29.7356163,36.6265071 29.7356163,36.1574412 L29.7356163,23.5730734 C29.7356163,23.1040075 29.9768502,22.6697865 30.3923086,22.4339134 L41.2947401,16.1484305 Z" id="Path"></path>
        </g>
    </g>
</svg>