<?xml version="1.0" encoding="iso-8859-1"?>
<!-- Generator: Adobe Illustrator 19.0.0, SVG Export Plug-In . SVG Version: 6.00 Build 0)  -->
<svg version="1.1" id="Capa_1" xmlns="http://www.w3.org/2000/svg" xmlns:xlink="http://www.w3.org/1999/xlink" x="0px" y="0px"
	 viewBox="0 0 512 512" style="enable-background:new 0 0 512 512;" xml:space="preserve">
<g>
	<g>
		<path d="M256.022,164.026c-22.168-31.041-72.379-15.809-72.34,23.296c0.041,40.218,35.007,71.043,67.718,86.483
			c2.967,1.399,6.388,1.411,9.387-0.012c32.679-15.507,67.582-46.404,67.541-86.62C328.286,148.562,278.947,132.493,256.022,164.026
			z M256.077,259.413c-28.048-13.708-57.362-39.556-57.395-72.105c-0.027-25.68,34.091-34.27,46.571-12.311
			c4.021,7.085,15.957,8.831,21.568-0.169c14.365-23.089,46.48-11.644,46.506,12.364C313.362,219.737,284.1,245.646,256.077,259.413
			z"/>
	</g>
</g>
<g>
	<g>
		<path d="M508.068,147.558l-79.259-84.265c-0.025-0.027-0.052-0.054-0.077-0.082c-8.358-8.622-20.071-12.224-106.129-50.94
			c-0.877-0.395-2.018-0.66-3.077-0.66H191.921c-1.06,0-2.199,0.265-3.077,0.66c-99.385,44.712-93.451,42.028-94.467,42.59
			c-10.464,5.778-7.78,4.223-90.976,92.677c-0.131,0.139-0.256,0.282-0.375,0.431c-4.851,6.014-3.502,13.611,1.436,19.599
			l0.017-0.014c1.85,2.277,11.566,14.063,66.106,80.208c4.853,5.885,12.135,7.023,20.196,0.33c0.119-0.099,0.235-0.202,0.349-0.309
			l19.703-18.54v253.7c0,9.62,7.826,17.446,17.445,17.446h110.228c4.143,0,7.5-3.358,7.5-7.5s-3.357-7.5-7.5-7.5H128.277
			c-1.349,0-2.445-1.097-2.445-2.446V172.846c0-12.024,0.323-10.745-28.566-102.094c3.849-2.984-1.16-0.312,90.152-41.391
			c13.606,35.662,50.953,58.519,70.794,57.318c12.048-0.717,50.608-17.551,65.816-57.323c62.142,27.887,82.507,36.175,90.643,41.63
			c-28.695,90.74-29.327,89.701-29.327,101.86c0,12.411,0,293.701,0,310.618c0,1.062-0.864,1.926-1.927,1.926H273.505
			c-4.143,0-7.5,3.358-7.5,7.5s3.357,7.5,7.5,7.5h109.912c9.333,0,16.927-7.593,16.927-16.926V228.458
			c0.264,0.248,20.609,19.404,20.887,19.635c6.17,5.121,15.103,5.158,21.86-3.031l-0.021-0.018
			c5.45-6.55,57.439-69.604,64.943-78.762C513.314,160.939,513.326,152.913,508.068,147.558z M111.668,172.846v35.774
			c-2.583,1.156-4.574,3.016-5.528,3.914c0,0-19.5,18.348-25.081,23.6c-0.166-0.163-0.349-0.356-0.568-0.621
			c-0.903-1.094-58.41-70.837-64.784-78.567l69.664-74.063C111.716,166.19,111.668,163.739,111.668,172.846z M260.278,71.207
			c-11.329,3.394-44.786-13.577-57.807-44.596H308.98C300.008,47.944,281.976,63.597,260.278,71.207z M430.672,236.4
			c-26.623-25.052-26.965-25.779-30.328-27.378v-36.176c0-9.072-0.098-6.497,26.297-89.963l69.664,74.063
			C428.006,239.783,431.291,235.874,430.672,236.4z"/>
	</g>
</g>
<g>
	<g>
		<path d="M270.867,177.348c-7.454,11.998-23.925,10.275-29.756,0.002c-10.152-17.86-37.686-10.752-37.662,9.953
			c0.036,35.108,37.478,58.493,48.952,64.823c2.272,1.253,5.031,1.244,7.295-0.027c18.266-10.256,48.902-32.325,48.868-64.905
			C308.54,167.548,282.517,158.623,270.867,177.348z M255.997,236.894c-18.767-11.247-37.528-29.533-37.549-49.606
			c-0.006-5.354,7.079-7,9.62-2.528c11.435,20.141,42.09,22.156,55.537,0.509c3.747-6.024,9.954-2.575,9.959,1.942
			C293.587,210.784,269.628,228.645,255.997,236.894z"/>
	</g>
</g>
<g>
	<g>
		<path d="M340.134,198.888c-4.041-0.928-8.063,1.588-8.993,5.625c-7.854,34.083-40.436,60.361-68.309,73.586
			c-4.277,2.029-9.184,2.036-13.459,0.02c-34.033-16.063-70.415-48.35-70.457-90.792c-0.038-38.012,43.788-57.847,72.44-35.086
			c2.745,2.181,6.635,2.168,9.366-0.029c11.418-9.187,26.128-12.019,40.352-7.772c14.387,4.295,25.269,14.89,29.856,29.067
			c1.277,3.942,5.506,6.099,9.446,4.827c3.94-1.275,6.102-5.504,4.826-9.445c-12.074-37.31-56.638-53.03-89.199-31.764
			c-39.047-25.376-92.133,2.481-92.087,50.217c0.05,49.444,40.869,86.319,79.058,104.344c8.354,3.938,17.937,3.927,26.287-0.035
			c40.209-19.081,68.806-50.396,76.496-83.77C346.688,203.845,344.17,199.818,340.134,198.888z"/>
	</g>
</g>
<g>
</g>
<g>
</g>
<g>
</g>
<g>
</g>
<g>
</g>
<g>
</g>
<g>
</g>
<g>
</g>
<g>
</g>
<g>
</g>
<g>
</g>
<g>
</g>
<g>
</g>
<g>
</g>
<g>
</g>
</svg>
