<?xml version="1.0" encoding="iso-8859-1"?>
<!-- Generator: Adobe Illustrator 19.0.0, SVG Export Plug-In . SVG Version: 6.00 Build 0)  -->
<svg xmlns="http://www.w3.org/2000/svg" xmlns:xlink="http://www.w3.org/1999/xlink" version="1.1" id="Capa_1" x="0px" y="0px" viewBox="0 0 512 512" style="enable-background:new 0 0 512 512;" xml:space="preserve" width="512px" height="512px">
<g>
	<g>
		<path d="M472,0H40C17.92,0.026,0.026,17.92,0,40v432c0.026,22.08,17.92,39.974,40,40h432c22.08-0.026,39.974-17.92,40-40V40    C511.974,17.92,494.08,0.026,472,0z M496,472c0,13.255-10.745,24-24,24H40c-13.255,0-24-10.745-24-24V40c0-13.255,10.745-24,24-24    h432c13.255,0,24,10.745,24,24V472z" fill="#2cd9a2"/>
	</g>
</g>
<g>
	<g>
		<path d="M56,40c-0.221-0.005-0.442-0.005-0.663,0C46.684,40.183,39.817,47.347,40,56v32h16V56h40V40H56z" fill="#2cd9a2"/>
	</g>
</g>
<g>
	<g>
		<path d="M424,80H88c-4.418,0-8,3.582-8,8v96c0,4.418,3.582,8,8,8h336c4.418,0,8-3.582,8-8V88C432,83.582,428.418,80,424,80z     M416,176H96V96h320V176z" fill="#2cd9a2"/>
	</g>
</g>
<g>
	<g>
		<path d="M216,216H88c-4.418,0-8,3.582-8,8v128c0,4.418,3.582,8,8,8h128c4.418,0,8-3.582,8-8V224C224,219.582,220.418,216,216,216z     M96,344V243.312L196.688,344H96z M208,332.685L107.315,232H208V332.685z" fill="#2cd9a2"/>
	</g>
</g>
<g>
	<g>
		<path d="M424,216H248c-4.418,0-8,3.582-8,8v48c0,4.418,3.582,8,8,8h176c4.418,0,8-3.582,8-8v-48C432,219.582,428.418,216,424,216z     M416,264H256v-32h160V264z" fill="#2cd9a2"/>
	</g>
</g>
<g>
	<g>
		<rect x="240" y="304" width="192" height="16" fill="#2cd9a2"/>
	</g>
</g>
<g>
	<g>
		<rect x="240" y="344" width="192" height="16" fill="#2cd9a2"/>
	</g>
</g>
<g>
	<g>
		<rect x="144" y="384" width="288" height="16" fill="#2cd9a2"/>
	</g>
</g>
<g>
	<g>
		<rect x="80" y="424" width="288" height="16" fill="#2cd9a2"/>
	</g>
</g>
<g>
	<g>
		<rect x="80" y="384" width="16" height="16" fill="#2cd9a2"/>
	</g>
</g>
<g>
	<g>
		<rect x="112" y="384" width="16" height="16" fill="#2cd9a2"/>
	</g>
</g>
<g>
</g>
<g>
</g>
<g>
</g>
<g>
</g>
<g>
</g>
<g>
</g>
<g>
</g>
<g>
</g>
<g>
</g>
<g>
</g>
<g>
</g>
<g>
</g>
<g>
</g>
<g>
</g>
<g>
</g>
</svg>
