<?xml version="1.0" encoding="iso-8859-1"?>
<!-- Generator: Adobe Illustrator 18.0.0, SVG Export Plug-In . SVG Version: 6.00 Build 0)  -->
<!DOCTYPE svg PUBLIC "-//W3C//DTD SVG 1.1//EN" "http://www.w3.org/Graphics/SVG/1.1/DTD/svg11.dtd">
<svg xmlns="http://www.w3.org/2000/svg" xmlns:xlink="http://www.w3.org/1999/xlink" version="1.1" id="Capa_1" x="0px" y="0px" viewBox="0 0 423.748 423.748" style="enable-background:new 0 0 423.748 423.748;" xml:space="preserve" width="512px" height="512px">
<g>
	<path d="M368.375,241.615l-16.904-16.904c-1.031-1.031-2.43-1.611-3.889-1.611s-2.857,0.58-3.889,1.611l-2.217,2.217   l-15.609-15.609v-30.525c0-2.404-1.561-4.529-3.854-5.248l-96.487-30.25c-1.955-0.612-4.087-0.089-5.534,1.359   c-1.448,1.448-1.972,3.581-1.359,5.535l30.249,96.488c0.719,2.293,2.845,3.854,5.248,3.854h30.525l15.609,15.609l-2.217,2.217   c-1.032,1.032-1.611,2.431-1.611,3.889c0,1.459,0.579,2.858,1.611,3.889l16.904,16.904c1.073,1.074,2.481,1.611,3.889,1.611   s2.815-0.537,3.889-1.611l45.646-45.646C370.524,247.245,370.524,243.763,368.375,241.615z M286.933,241.532h-28.764l-22.34-71.261   l31.846,31.847c-1.324,2.55-2.034,5.395-2.034,8.351c0,4.852,1.89,9.413,5.32,12.843c3.541,3.541,8.192,5.312,12.844,5.312   c4.65,0,9.302-1.771,12.843-5.312c7.082-7.082,7.082-18.604,0-25.687c-5.726-5.727-14.354-6.817-21.192-3.283l-31.85-31.851   l71.262,22.341v28.764c0,1.458,0.579,2.858,1.611,3.889l17.22,17.219l-25.657,25.657l-17.22-17.22   C289.79,242.111,288.392,241.532,286.933,241.532z M283.804,203.309c1.835,0,3.669,0.698,5.066,2.095   c2.792,2.793,2.792,7.337,0,10.13c-2.794,2.792-7.336,2.793-10.132,0c-2.792-2.793-2.792-7.337,0-10.13   C280.136,204.007,281.97,203.309,283.804,203.309z M318.84,283.372l-9.126-9.125l37.868-37.869l9.126,9.126L318.84,283.372z" fill="#2cd9a2"/>
	<path d="M268.321,377.811c-10.378,0-19.166,6.92-22.003,16.387c-41.11-4.372-79.77-22.673-109.335-51.879   C107.434,313.13,88.66,274.73,83.768,233.724c9.232-2.979,15.931-11.651,15.931-21.861S93,192.981,83.768,190.001   c4.891-41.006,23.666-79.406,53.215-108.595c29.564-29.204,68.221-47.505,109.329-51.878c2.83,9.478,11.623,16.409,22.009,16.409   c12.665,0,22.969-10.304,22.969-22.969S280.986,0,268.321,0c-10.77,0-19.828,7.453-22.299,17.471H136.521v-4.473   c0-3.038-2.462-5.5-5.5-5.5h-19.94c-3.038,0-5.5,2.462-5.5,5.5v19.94c0,3.038,2.462,5.5,5.5,5.5h19.94c3.038,0,5.5-2.462,5.5-5.5   v-4.468h64.906c-26.884,9.456-51.607,24.792-72.175,45.11c-21.664,21.4-37.86,47.476-47.508,75.906v-41.732h4.467   c3.038,0,5.5-2.462,5.5-5.5v-19.94c0-3.038-2.462-5.5-5.5-5.5h-19.94c-3.038,0-5.5,2.462-5.5,5.5v19.94c0,3.038,2.462,5.5,5.5,5.5   h4.473v81.936c-9.771,2.641-16.982,11.578-16.982,22.172s7.212,19.531,16.982,22.172v81.936h-4.473c-3.038,0-5.5,2.462-5.5,5.5   v19.94c0,3.038,2.462,5.5,5.5,5.5h19.94c3.038,0,5.5-2.462,5.5-5.5v-19.94c0-3.038-2.462-5.5-5.5-5.5h-4.467v-41.733   c9.649,28.43,25.844,54.506,47.508,75.906c20.588,20.338,45.341,35.684,72.256,45.138h-64.987v-4.473c0-3.038-2.462-5.5-5.5-5.5   h-19.94c-3.038,0-5.5,2.462-5.5,5.5v19.94c0,3.038,2.462,5.5,5.5,5.5h19.94c3.038,0,5.5-2.462,5.5-5.5v-4.468h109.502   c2.472,10.016,11.529,17.466,22.298,17.466c12.665,0,22.969-10.304,22.969-22.969S280.986,377.811,268.321,377.811z M268.321,11   c6.6,0,11.969,5.369,11.969,11.969s-5.369,11.969-11.969,11.969s-11.969-5.369-11.969-11.969S261.721,11,268.321,11z    M64.761,211.863c0-6.6,5.369-11.969,11.969-11.969s11.969,5.369,11.969,11.969s-5.369,11.969-11.969,11.969   S64.761,218.462,64.761,211.863z M268.321,412.748c-6.6,0-11.969-5.369-11.969-11.969s5.369-11.969,11.969-11.969   s11.969,5.369,11.969,11.969S274.92,412.748,268.321,412.748z" fill="#2cd9a2"/>
</g>
<g>
</g>
<g>
</g>
<g>
</g>
<g>
</g>
<g>
</g>
<g>
</g>
<g>
</g>
<g>
</g>
<g>
</g>
<g>
</g>
<g>
</g>
<g>
</g>
<g>
</g>
<g>
</g>
<g>
</g>
</svg>
