<?xml version="1.0" encoding="utf-8"?>
<!-- Generator: Adobe Illustrator 23.0.1, SVG Export Plug-In . SVG Version: 6.00 Build 0)  -->
<svg version="1.1" id="Layer_1" xmlns="http://www.w3.org/2000/svg" xmlns:xlink="http://www.w3.org/1999/xlink" x="0px" y="0px"
	 viewBox="0 0 1920 284" style="enable-background:new 0 0 1920 284;" xml:space="preserve">
<style type="text/css">
	.st0{opacity:3.000000e-02;fill:#3B46A1;enable-background:new    ;}
</style>
<g id="Designed_By_Freepik">
</g>
<path class="st0" d="M1920,284c-261-181-700-42.1-700-42.1V271c-0.1-9.7,0-19.4,0-29.1c-8.9,2.6-17.7,5.6-26.5,8
	c-41.5,10.7-83.8,12.9-126.4,10.5c-102.7-5.9-198.8-36.5-291.5-79.2c-48.2-22.2-96.3-44.3-146.5-61.8
	c-65.9-23-133.2-39.8-202.3-49.2c-27.6-3.8-55.3-6.2-83.1-7.3c-1.2-0.1-76.8,0.4-83.5,0.8c-72.7,4.4-143.4,18-211.5,44.1
	c-16.6,6.4-32.8,13.7-48.5,22.1c0,49.6,0.1,99.3-0.1,148.9c-0.1,4.1,0.6,5.2,5,5.2c403.3-0.1,806.6-0.1,1209.9-0.1
	c0.8,0,1.7-0.2,2.5,0c1.6,0.4,2.3,0,2.5-1.1v1.3L1920,284L1920,284z"/>
<path class="st0" d="M0,0c0,0,138,252,691,162c0,0,362-77,681,60c0,0,232,82,548-16v78H0V0z"/>
</svg>
