<?xml version="1.0" encoding="utf-8"?>
<!-- Generator: Adobe Illustrator 23.0.1, SVG Export Plug-In . SVG Version: 6.00 Build 0)  -->
<svg version="1.1" id="Layer_1" xmlns="http://www.w3.org/2000/svg" xmlns:xlink="http://www.w3.org/1999/xlink" x="0px" y="0px"
	 viewBox="0 0 773.6 648.3" style="enable-background:new 0 0 773.6 648.3;" xml:space="preserve">
<style type="text/css">
	.st0{opacity:0.8;}
	.st1{fill:#E5E9FF;}
	.st2{fill:#413AA4;}
	.st3{fill:#FFD740;}
	.st4{fill:#00E1A0;}
</style>
<g class="st0">
	<g>
		
			<ellipse transform="matrix(0.7071 -0.7071 0.7071 0.7071 -121.7653 368.2777)" class="st1" cx="383.7" cy="331.1" rx="292.8" ry="292.8"/>
	</g>
	<g>
		<path class="st1" d="M382.4,97.4h-187c-15.8,0-28.6-12.8-28.6-28.6l0,0c0-15.8,12.8-28.6,28.6-28.6h187
			c15.8,0,28.6,12.8,28.6,28.6l0,0C411,84.6,398.2,97.4,382.4,97.4z"/>
	</g>
	<g>
		<path class="st1" d="M148.6,500.6h120.2c12.4,0,22.4,10,22.4,22.4l0,0c0,12.4-10,22.4-22.4,22.4H148.6c-12.4,0-22.4-10-22.4-22.4
			l0,0C126.1,510.6,136.2,500.6,148.6,500.6z"/>
	</g>
	<g>
		<path class="st1" d="M124.8,588.5h178c8,0,14.5,6.5,14.5,14.5l0,0c0,8-6.5,14.5-14.5,14.5h-178c-8,0-14.5-6.5-14.5-14.5l0,0
			C110.3,595,116.8,588.5,124.8,588.5z"/>
	</g>
	<g>
		<path class="st1" d="M505.1,618.1h43.6c3.5,0,6.3,2.8,6.3,6.3v16.5c0,3.5-2.8,6.3-6.3,6.3h-43.6c-3.5,0-6.3-2.8-6.3-6.3v-16.5
			C498.8,620.9,501.6,618.1,505.1,618.1z"/>
	</g>
	<g>
		<path class="st1" d="M364.1,532.1h268.1c13.2,0,23.8,10.7,23.8,23.8l0,0c0,13.2-10.7,23.8-23.8,23.8H364.1
			c-13.2,0-23.8-10.7-23.8-23.8l0,0C340.2,542.7,350.9,532.1,364.1,532.1z"/>
	</g>
	<g>
		<path class="st1" d="M174.1,545.1h83.7c-6.2,0-11.8,2.7-15.9,6.7c-4.1,4.1-6.6,8.9-6.6,15.1c0,12.4,10.1,21.6,22.4,21.6h-83.7
			c6.2,0,11.8-1.6,15.9-5.7c4-4,6.6-9.4,6.6-15.6C196.6,554.8,186.5,545.1,174.1,545.1z"/>
	</g>
	<g>
		<path class="st1" d="M517.5,289h215.8c22.3,0,40.3,18,40.3,40.3l0,0c0,22.2-18,40.3-40.3,40.3H517.5c-22.3,0-40.3-18-40.3-40.3
			l0,0C477.2,307,495.3,289,517.5,289z"/>
	</g>
	<g>
		<path class="st1" d="M425.5,447.8h319.8c14.4,0,26.1,11.7,26.1,26.1l0,0c0,14.4-11.7,26.1-26.1,26.1H425.5
			c-14.4,0-26.1-11.7-26.1-26.1l0,0C399.4,459.5,411.1,447.8,425.5,447.8z"/>
	</g>
	<g>
		<path class="st1" d="M566,369.8h150.4c-11.1,0-21.2,4.4-28.5,11.6c-7.3,7.3-11.8,15.9-11.8,27.1c0,22.2,18.1,38.8,40.3,38.8H566
			c11.1,0,21.2-3.1,28.5-10.4c7.3-7.3,11.8-16.5,11.8-27.7C606.3,387,588.3,369.8,566,369.8z"/>
	</g>
	<g>
		<path class="st1" d="M321.9,253.9H69c-23.6,0-42.8-19.1-42.8-42.8l0,0c0-23.6,19.1-42.8,42.8-42.8h252.9
			c23.6,0,42.8,19.2,42.8,42.8l0,0C364.7,234.8,345.6,253.9,321.9,253.9z"/>
	</g>
	<g>
		<path class="st1" d="M427.3,500.6H61.8C27.7,500.6,0,472.9,0,438.7l0,0c0-34.1,27.7-61.8,61.8-61.8h365.5
			c34.1,0,61.8,27.7,61.8,61.8l0,0C489.1,472.9,461.4,500.6,427.3,500.6z"/>
	</g>
	<g>
		<path class="st1" d="M634.1,156.4H432.3c-18.8,0-34.1-15.3-34.1-34.1l0,0c0-18.8,15.3-34.1,34.1-34.1h201.8
			c18.8,0,34.1,15.3,34.1,34.1l0,0C668.2,141.2,652.9,156.4,634.1,156.4z"/>
	</g>
	<g>
		<path class="st1" d="M572,38.4h-47.9c-10.3,0-18.6-8.3-18.6-18.6l0,0c0-10.3,8.3-18.6,18.6-18.6H572c10.3,0,18.6,8.3,18.6,18.6
			l0,0C590.6,30,582.3,38.4,572,38.4z"/>
	</g>
</g>
<g>
	<path class="st2" d="M315.6,558.4c-2,0-3.6-1.5-3.8-3.5L297.1,384l-48.7,20.9c-19.8,8.5-32.6,27.9-32.6,49.4v100.3
		c0,2.1-1.7,3.8-3.8,3.8c-2.1,0-3.8-1.7-3.8-3.8V454.3c0-24.6,14.6-46.8,37.2-56.5l53.6-22.9c1.1-0.5,2.4-0.4,3.5,0.2
		c1.1,0.6,1.7,1.7,1.9,3l15.2,176.2c0.2,2.1-1.4,4-3.5,4.2C315.9,558.4,315.7,558.4,315.6,558.4z"/>
	<path class="st2" d="M427.1,520c-2.1,0-3.8-1.7-3.8-3.8v-23c0-2.1,1.7-3.8,3.8-3.8s3.8,1.7,3.8,3.8v23
		C430.9,518.3,429.2,520,427.1,520z"/>
	<path class="st2" d="M350.3,366.4c-40.3,0-74.9-26.7-85.2-65.3c-12.4-0.4-22.3-10.6-22.3-23c0-12.5,9.9-22.6,22.3-23
		c10.4-38.6,44.9-65.3,85.2-65.3c40.3,0,74.9,26.7,85.2,65.3c12.4,0.4,22.3,10.6,22.3,23c0,12.5-9.9,22.6-22.3,23
		C425.1,339.7,390.5,366.4,350.3,366.4z M267.4,293.3c1.8,0,3.9,1.1,4.3,2.9c8.5,36.8,40.7,62.5,78.5,62.5s70.1-25.7,78.5-62.5
		c0.4-1.9,2.1-3.2,4.2-3c1,0.1,1.4,0.2,1.8,0.2c8.5,0,15.4-6.9,15.4-15.4c0-8.5-6.9-15.4-15.4-15.4c-0.4,0-0.7,0.1-1.1,0.1
		c-2,0.2-4.4-0.9-4.9-2.9c-8.5-36.8-40.7-62.5-78.5-62.5s-70.1,25.7-78.5,62.5c-0.4,1.9-2.3,3.2-4.2,3c-1-0.1-1.4-0.2-1.8-0.2
		c-8.5,0-15.4,6.9-15.4,15.4c0,8.5,6.9,15.4,15.4,15.4c0.4,0,0.7-0.1,1.1-0.1C267.1,293.3,267.2,293.3,267.4,293.3z"/>
	<path class="st3" d="M273.5,270.4h-3.8v-49.9h23v30.7C292.7,261.8,284.1,270.4,273.5,270.4z"/>
	<path class="st2" d="M273.5,274.3h-3.8c-2.1,0-3.8-1.7-3.8-3.8v-49.9c0-2.1,1.7-3.8,3.8-3.8h23c2.1,0,3.8,1.7,3.8,3.8v30.7
		C296.5,263.9,286.2,274.3,273.5,274.3z M273.5,266.6L273.5,266.6L273.5,266.6z M273.5,224.3v42.2c8.5,0,15.4-6.9,15.4-15.4v-26.9
		H273.5z"/>
	<path class="st3" d="M407.9,220.1v31.1c0,10.6,8.6,19.2,19.2,19.2h3.8v-60.9C424.8,215.4,416.8,219.2,407.9,220.1z"/>
	<path class="st2" d="M430.9,274.3h-3.8c-12.7,0-23-10.3-23-23v-31.1c0-2,1.5-3.6,3.5-3.8c7.9-0.8,15.3-4.2,20.7-9.6
		c1.1-1.1,2.8-1.4,4.2-0.8c1.4,0.6,2.4,2,2.4,3.5v60.9C434.7,272.5,433,274.3,430.9,274.3z M411.7,223.4v27.8
		c0,8.5,6.9,15.4,15.4,15.4v-49.2C422.4,220.4,417.2,222.4,411.7,223.4z"/>
	<path class="st2" d="M350.3,320.3c-10.8,0-21.6-4.1-29.9-12.3c-1.5-1.5-1.5-3.9,0-5.4c1.5-1.5,3.9-1.5,5.4,0
		c13.5,13.5,35.4,13.5,48.9,0c1.5-1.5,3.9-1.5,5.4,0c1.5,1.5,1.5,3.9,0,5.4C371.9,316.2,361.1,320.3,350.3,320.3z"/>
	<path class="st3" d="M404,220.5H269.6c0-31.8,25.8-57.6,57.6-57.6h40c16.7,0,33.1-3.6,48.3-10.6l26.9-12.4v42.2
		C442.4,203.3,425.2,220.5,404,220.5z"/>
	<path class="st2" d="M404,224.3H269.6c-2.1,0-3.8-1.7-3.8-3.8c0-33.9,27.6-61.4,61.4-61.4h40c16,0,32.1-3.5,46.7-10.3l26.9-12.4
		c1.2-0.5,2.6-0.5,3.7,0.3c1.1,0.7,1.8,1.9,1.8,3.2v42.2C446.3,205.4,427.3,224.3,404,224.3z M273.6,216.7H404
		c19.1,0,34.6-15.5,34.6-34.6v-36.2l-21.5,9.9c-15.5,7.2-32.8,11-49.9,11h-40C298.9,166.7,275.6,188.8,273.6,216.7z"/>
	<path class="st4" d="M369.5,532l-19.2,22.6L331.1,532l11.5-115.7h15.4L369.5,532z"/>
	<g>
		<path class="st2" d="M350.3,558.4c-1.1,0-2.2-0.5-2.9-1.3l-19.2-22.6c-0.7-0.8-1-1.8-0.9-2.9l11.5-115.7c0.2-2,1.9-3.5,3.8-3.5
			h15.4c2,0,3.6,1.5,3.8,3.5l11.5,115.7c0.1,1-0.2,2.1-0.9,2.9l-19.2,22.6C352.5,557.9,351.4,558.4,350.3,558.4z M335,530.8
			l15.2,17.9l15.2-17.9l-11-110.6h-8.4L335,530.8z"/>
		<path class="st2" d="M273.5,558.4c-2.1,0-3.8-1.7-3.8-3.8v-76.8c0-2.1,1.7-3.8,3.8-3.8c2.1,0,3.8,1.7,3.8,3.8v76.8
			C277.3,556.7,275.6,558.4,273.5,558.4z"/>
		<path class="st2" d="M427.1,558.4c-2.1,0-3.8-1.7-3.8-3.8v-80.6c0-1.3,0.6-2.5,1.7-3.2c1.1-0.7,2.4-0.8,3.6-0.3l54,23.1
			c10.7,4.6,22.9,3.5,32.6-2.9c9.7-6.4,15.5-17.2,15.5-28.9v-72.3H477v46.1c0,2.1-1.7,3.8-3.8,3.8s-3.8-1.7-3.8-3.8v-49.9
			c0-2.1,1.7-3.8,3.8-3.8h61.4c2.1,0,3.8,1.7,3.8,3.8v76.2c0,14.2-7.1,27.4-19,35.3c-11.9,7.8-26.8,9.2-39.9,3.6l-48.6-20.8v74.8
			C430.9,556.7,429.2,558.4,427.1,558.4z"/>
		<path class="st2" d="M303.7,420.2c-0.5,0-1.1-0.1-1.6-0.3c-1.3-0.6-2.1-1.8-2.2-3.2l-3.2-37.9c-0.1-1.6,0.8-3.2,2.3-3.8l19.1-8.2
			c1.7-0.7,3.7-0.1,4.7,1.4l15.4,23c1.1,1.7,0.7,4-0.9,5.2l-31.2,23C305.3,419.9,304.5,420.2,303.7,420.2z M304.5,380.9l2.4,28.3
			l22.7-16.8L318.1,375L304.5,380.9z"/>
		<path class="st2" d="M396.8,420.2c-0.8,0-1.6-0.3-2.3-0.8l-31.2-23c-1.6-1.2-2.1-3.5-0.9-5.2l15.4-23c1-1.5,3-2.1,4.7-1.4
			l19.1,8.2c1.5,0.7,2.4,2.2,2.3,3.9l-3.3,37.9c-0.1,1.4-1,2.6-2.2,3.2C397.8,420.1,397.3,420.2,396.8,420.2z M370.8,392.4
			l22.7,16.8l2.4-28.3l-13.6-5.8L370.8,392.4z"/>
		<path class="st2" d="M357.9,420.2h-15.4c-6.4,0-11.5-5.2-11.5-11.5V401c0-6.4,5.2-11.5,11.5-11.5h15.4c6.4,0,11.5,5.2,11.5,11.5
			v7.7C369.5,415,364.3,420.2,357.9,420.2z M342.6,397.1c-2.1,0-3.8,1.7-3.8,3.8v7.7c0,2.1,1.7,3.8,3.8,3.8h15.4
			c2.1,0,3.8-1.7,3.8-3.8V401c0-2.1-1.7-3.8-3.8-3.8H342.6z"/>
		<path class="st2" d="M363.7,399.9c-1.1,0-2.2-0.5-2.9-1.4c-0.5-0.5-1.4-1.4-2.9-1.4h-15.4c-1.4,0-2.4,0.9-2.9,1.4
			c-0.8,0.9-2,1.4-3.2,1.4c-1.2-0.1-2.3-0.7-3-1.7l-17.2-25.9c-0.4-0.6-0.6-1.4-0.6-2.1v-13.5c0-1.3,0.6-2.5,1.7-3.2
			c1-0.7,2.4-0.9,3.6-0.4c18.9,7.4,39.8,7.4,58.6,0c1.2-0.5,2.5-0.3,3.6,0.4c1,0.7,1.7,1.9,1.7,3.2v13.5c0,0.8-0.2,1.5-0.6,2.1
			l-17.2,25.9c-0.7,1-1.8,1.6-3,1.7C363.9,399.9,363.8,399.9,363.7,399.9z M342.6,389.5h15.4c1.7,0,3.4,0.4,4.9,1.1l14.3-21.5v-6.9
			c-17.4,5.6-36.3,5.6-53.8,0v6.9l14.3,21.5C339.2,389.8,340.9,389.5,342.6,389.5z"/>
		<path class="st2" d="M261.9,362.6h-57.6c-2.1,0-3.8-1.7-3.8-3.8c0-2.1,1.7-3.8,3.8-3.8h57.6c2.1,0,3.8,1.7,3.8,3.8
			C265.8,360.9,264.1,362.6,261.9,362.6z"/>
		<path class="st2" d="M189,362.6h-7.7c-2.1,0-3.8-1.7-3.8-3.8c0-2.1,1.7-3.8,3.8-3.8h7.7c2.1,0,3.8,1.7,3.8,3.8
			C192.8,360.9,191.1,362.6,189,362.6z"/>
		<path class="st2" d="M565.3,535.4h-57.6c-2.1,0-3.8-1.7-3.8-3.8c0-2.1,1.7-3.8,3.8-3.8h57.6c2.1,0,3.8,1.7,3.8,3.8
			C569.1,533.7,567.4,535.4,565.3,535.4z"/>
		<path class="st2" d="M588.3,535.4h-7.7c-2.1,0-3.8-1.7-3.8-3.8c0-2.1,1.7-3.8,3.8-3.8h7.7c2.1,0,3.8,1.7,3.8,3.8
			C592.2,533.7,590.5,535.4,588.3,535.4z"/>
		<path class="st2" d="M477,345.3h-15.4c-6.4,0-11.5-5.2-11.5-11.5v-3.8c0-6.4,5.2-11.5,11.5-11.5H477c6.4,0,11.5,5.2,11.5,11.5v3.8
			C488.5,340.1,483.3,345.3,477,345.3z M461.6,326.1c-2.1,0-3.8,1.7-3.8,3.8v3.8c0,2.1,1.7,3.8,3.8,3.8H477c2.1,0,3.8-1.7,3.8-3.8
			v-3.8c0-2.1-1.7-3.8-3.8-3.8H461.6z"/>
		<path class="st2" d="M534.6,335.7h-3.8c-6.4,0-11.5-5.2-11.5-11.5v-23c0-6.4,5.2-11.5,11.5-11.5h3.8c6.4,0,11.5,5.2,11.5,11.5v23
			C546.1,330.5,540.9,335.7,534.6,335.7z M530.7,297.3c-2.1,0-3.8,1.7-3.8,3.8v23c0,2.1,1.7,3.8,3.8,3.8h3.8c2.1,0,3.8-1.7,3.8-3.8
			v-23c0-2.1-1.7-3.8-3.8-3.8H530.7z"/>
		<path class="st2" d="M515.4,335.7h-3.8c-6.4,0-11.5-5.2-11.5-11.5v-23c0-6.4,5.2-11.5,11.5-11.5h3.8c6.4,0,11.5,5.2,11.5,11.5v23
			C526.9,330.5,521.7,335.7,515.4,335.7z M511.5,297.3c-2.1,0-3.8,1.7-3.8,3.8v23c0,2.1,1.7,3.8,3.8,3.8h3.8c2.1,0,3.8-1.7,3.8-3.8
			v-23c0-2.1-1.7-3.8-3.8-3.8H511.5z"/>
		<path class="st2" d="M496.2,335.7h-3.8c-6.4,0-11.5-5.2-11.5-11.5v-23c0-6.4,5.2-11.5,11.5-11.5h3.8c6.4,0,11.5,5.2,11.5,11.5v23
			C507.7,330.5,502.5,335.7,496.2,335.7z M492.3,297.3c-2.1,0-3.8,1.7-3.8,3.8v23c0,2.1,1.7,3.8,3.8,3.8h3.8c2.1,0,3.8-1.7,3.8-3.8
			v-23c0-2.1-1.7-3.8-3.8-3.8H492.3z"/>
		<path class="st2" d="M523.1,374.1c-2.1,0-3.8-1.7-3.8-3.8c0-2.1,1.7-3.8,3.8-3.8c8.5,0,15.4-6.9,15.4-15.4v-19.2
			c0-2.1,1.7-3.8,3.8-3.8c2.1,0,3.8,1.7,3.8,3.8v19.2C546.1,363.8,535.8,374.1,523.1,374.1z"/>
		<path class="st2" d="M484.7,374.1c-12.7,0-23-10.3-23-23v-9.6c0-2.1,1.7-3.8,3.8-3.8c2.1,0,3.8,1.7,3.8,3.8v9.6
			c0,8.5,6.9,15.4,15.4,15.4c2.1,0,3.8,1.7,3.8,3.8C488.5,372.4,486.8,374.1,484.7,374.1z"/>
		<path class="st2" d="M484.7,335.7c-2.1,0-3.8-1.7-3.8-3.8v-69.1c0-2.1-1.7-3.8-3.8-3.8h-3.8c-2.1,0-3.8,1.7-3.8,3.8v59.5
			c0,2.1-1.7,3.8-3.8,3.8c-2.1,0-3.8-1.7-3.8-3.8v-59.5c0-6.4,5.2-11.5,11.5-11.5h3.8c6.4,0,11.5,5.2,11.5,11.5v69.1
			C488.5,334,486.8,335.7,484.7,335.7z"/>
		<path class="st2" d="M384.9,558.4c-0.1,0-0.2,0-0.3,0c-2.1-0.2-3.7-2-3.5-4.2l15.2-176.2c0.1-1.2,0.8-2.3,1.9-3
			c1-0.6,2.3-0.7,3.5-0.2l73.1,31.3c2,0.8,2.8,3.1,2,5c-0.8,2-3.1,2.8-5,2L403.4,384l-14.7,170.9
			C388.5,556.9,386.9,558.4,384.9,558.4z"/>
	</g>
	<path class="st3" d="M569.8,170.6c0-23.9-21.9-42.7-46.7-37.5c-14.7,3.1-26.4,15-29.3,29.7c-2.6,13,1.5,25.1,9.3,33.6
		c5.6,6,9.1,13.7,9.1,21.9v2.3h38.4v-2.3c0-8.3,3.6-15.9,9.2-22C566,189.5,569.8,180.5,569.8,170.6z"/>
	<path class="st2" d="M550.6,224.3h-38.4c-2.1,0-3.8-1.7-3.8-3.8v-2.3c0-6.8-2.9-13.6-8.1-19.3c-9.2-10-12.9-23.4-10.3-36.9
		c3.2-16.2,16.2-29.4,32.3-32.7c12.8-2.7,25.8,0.4,35.7,8.5c9.9,8.1,15.6,20,15.6,32.8c0,10.5-3.9,20.5-11,28.3
		c-3.7,4.1-8.2,10.7-8.2,19.4v2.3C554.4,222.6,552.7,224.3,550.6,224.3z M516,216.7h30.8c0.4-8.1,4-16.2,10.2-23
		c5.8-6.3,9-14.5,9-23.1c0-10.5-4.7-20.2-12.8-26.9c-8.1-6.6-18.8-9.1-29.3-6.9c-13.1,2.7-23.7,13.5-26.3,26.7
		c-2.2,11.1,0.9,22.1,8.4,30.2C512.1,200.4,515.6,208.5,516,216.7z"/>
	<path class="st2" d="M531.4,262.7c-12.7,0-23-10.3-23-23v-19.2c0-2.1,1.7-3.8,3.8-3.8h38.4c2.1,0,3.8,1.7,3.8,3.8v19.2
		C554.4,252.4,544.1,262.7,531.4,262.7z M516,224.3v15.4c0,8.5,6.9,15.4,15.4,15.4s15.4-6.9,15.4-15.4v-15.4H516z"/>
	<path class="st2" d="M550.6,243.5h-38.4c-2.1,0-3.8-1.7-3.8-3.8c0-2.1,1.7-3.8,3.8-3.8h38.4c2.1,0,3.8,1.7,3.8,3.8
		C554.4,241.8,552.7,243.5,550.6,243.5z"/>
	<path class="st2" d="M531.4,113c-2.1,0-3.8-1.7-3.8-3.8V93.8c0-2.1,1.7-3.8,3.8-3.8c2.1,0,3.8,1.7,3.8,3.8v15.4
		C535.2,111.3,533.5,113,531.4,113z"/>
	<path class="st2" d="M493,126.1c-1,0-2-0.4-2.7-1.1l-10.9-10.9c-1.5-1.5-1.5-3.9,0-5.4c1.5-1.5,3.9-1.5,5.4,0l10.9,10.9
		c1.5,1.5,1.5,3.9,0,5.4C495,125.7,494,126.1,493,126.1z"/>
	<path class="st2" d="M569.8,126.1c-1,0-2-0.4-2.7-1.1c-1.5-1.5-1.5-3.9,0-5.4l10.9-10.9c1.5-1.5,3.9-1.5,5.4,0
		c1.5,1.5,1.5,3.9,0,5.4L572.5,125C571.8,125.7,570.8,126.1,569.8,126.1z"/>
	<path class="st2" d="M531.4,224.3c-2.1,0-3.8-1.7-3.8-3.8v-38.4c0-2.1,1.7-3.8,3.8-3.8c2.1,0,3.8,1.7,3.8,3.8v38.4
		C535.2,222.6,533.5,224.3,531.4,224.3z"/>
</g>
</svg>
