<svg id="Layer_1" data-name="Layer 1" xmlns="http://www.w3.org/2000/svg" viewBox="0 0 447.1 511"><title>analysis</title><path d="M432.1,24H400.2a4,4,0,0,1,0-8h31.9a4,4,0,0,1,4,4A4,4,0,0,1,432.1,24Z" transform="translate(-33)" style="fill:#263238"/><path d="M416.2,39.9a4,4,0,0,1-4-4V4a4,4,0,0,1,8,0V35.9A4,4,0,0,1,416.2,39.9Z" transform="translate(-33)" style="fill:#263238"/><path d="M476.1,67.9H444.2a4,4,0,1,1,0-8h31.9a4,4,0,0,1,0,8Z" transform="translate(-33)" style="fill:#263238"/><path d="M460.1,83.8a4,4,0,0,1-4-4V47.9a4,4,0,1,1,8,0V79.8A4,4,0,0,1,460.1,83.8Z" transform="translate(-33)" style="fill:#263238"/><path d="M432.1,351.3a4,4,0,0,1-4-4v-16a4,4,0,0,1,8,0v16A4,4,0,0,1,432.1,351.3Z" transform="translate(-33)" style="fill:#263238"/><path d="M432.1,319.4a4,4,0,0,1-4-4V171.7a4,4,0,1,1,8,0V315.4A4,4,0,0,1,432.1,319.4Z" transform="translate(-33)" style="fill:#263238"/><path d="M236.5,394.1c-68.2,0-123.8-55.5-123.8-123.8s55.5-123.8,123.8-123.8S360.3,202,360.3,270.3A123.89,123.89,0,0,1,236.5,394.1Zm0-239.5A115.8,115.8,0,1,0,352.3,270.4,115.93,115.93,0,0,0,236.5,154.6Z" transform="translate(-33)" style="fill:#263238"/><path d="M332.3,270.4a95.8,95.8,0,1,1-95.8-95.8A95.81,95.81,0,0,1,332.3,270.4Z" transform="translate(-33)" style="fill:#ffd740"/><path d="M236.5,370.2a99.8,99.8,0,1,1,0-199.6h0a99.8,99.8,0,0,1,0,199.6Zm0-191.7a91.8,91.8,0,1,0,91.8,91.8A91.31,91.31,0,0,0,236.5,178.5Z" transform="translate(-33)" style="fill:#263238"/><path d="M308.4,274.4a4,4,0,0,1-4-4,68,68,0,0,0-67.9-67.9,4,4,0,0,1,0-8,76,76,0,0,1,75.9,75.9A4,4,0,0,1,308.4,274.4Z" transform="translate(-33)" style="fill:#263238"/><path d="M355.1,415.5a4,4,0,0,1-2.8-1.2l-46-46a4.3,4.3,0,0,1-1.2-3.1,3.74,3.74,0,0,1,1.6-2.9,115.4,115.4,0,0,0,21.8-21.8,4.26,4.26,0,0,1,2.9-1.6,3.93,3.93,0,0,1,3.1,1.2l46,46a3.87,3.87,0,0,1,0,5.6l-22.6,22.6A4,4,0,0,1,355.1,415.5Zm-40-49.7,40,40L372,388.9l-40-40A117.38,117.38,0,0,1,315.1,365.8Z" transform="translate(-33)" style="fill:#263238"/><path d="M380.5,386.1l-28.2,28.2a8,8,0,0,0,0,11.3l79,79a8,8,0,0,0,11.3,0l28.2-28.2a8,8,0,0,0,0-11.3l-79-79A8,8,0,0,0,380.5,386.1Z" transform="translate(-33)" style="fill:#40c4ff"/><path d="M437,511a12.21,12.21,0,0,1-8.5-3.5l-79-79a11.89,11.89,0,0,1,0-16.9l28.2-28.2a11.89,11.89,0,0,1,16.9,0l79,79a11.89,11.89,0,0,1,0,16.9l-28.2,28.2A12,12,0,0,1,437,511ZM386.1,387.8a4,4,0,0,0-2.8,1.2l-28.2,28.2a4,4,0,0,0,0,5.7l79,79a3.87,3.87,0,0,0,5.6,0l28.2-28.2a3.87,3.87,0,0,0,0-5.6l-79-79A3.41,3.41,0,0,0,386.1,387.8Z" transform="translate(-33)" style="fill:#263238"/><path d="M371.1,471.1H92.8a24,24,0,0,1-24-24V71.9a24,24,0,0,1,24-24H380.2a24,24,0,0,1,24,24V372.5a4,4,0,0,1-8,0V71.9a16,16,0,0,0-16-16H92.8a16,16,0,0,0-16,16V447.2a16,16,0,0,0,16,16H371.1a4,4,0,1,1,0,7.9Z" transform="translate(-33)" style="fill:#263238"/><path d="M236.5,274.4a3.6,3.6,0,0,1-2.2-.7l-117-78L39.8,273.2a4,4,0,0,1-5.6-5.6L114,187.8a4,4,0,0,1,5-.5l117,78L353.5,147.8a4,4,0,0,1,5.6,5.6L239.4,273.2A4,4,0,0,1,236.5,274.4Z" transform="translate(-33)" style="fill:#263238"/><path d="M256.5,270.4a20,20,0,1,1-20-20A20,20,0,0,1,256.5,270.4Z" transform="translate(-33)" style="fill:#ffd740"/><path d="M236.5,294.3a24,24,0,1,1,24-24A24,24,0,0,1,236.5,294.3Zm0-39.9a16,16,0,1,0,16,16A16,16,0,0,0,236.5,254.4Z" transform="translate(-33)" style="fill:#263238"/><path d="M152.7,83.8H320.4v31.9H152.7Z" transform="translate(-33)" style="fill:#ff5252"/><path d="M320.4,119.8H152.7a4,4,0,0,1-4-4v-32a4,4,0,0,1,4-4H320.4a4,4,0,0,1,4,4v31.9A4,4,0,0,1,320.4,119.8Zm-163.7-8H316.4v-24H156.7Z" transform="translate(-33)" style="fill:#263238"/></svg>