<svg id="Layer_1" data-name="Layer 1" xmlns="http://www.w3.org/2000/svg" viewBox="0 0 432 488.01"><title>businessman</title><path d="M143.93,499.5a4,4,0,0,1-4-3.66l-15.31-178L74,339.59a56,56,0,0,0-34,51.47V495.5a4,4,0,0,1-8,0V391.06a63.94,63.94,0,0,1,38.79-58.83l55.78-23.9a4,4,0,0,1,3.64.25,4,4,0,0,1,1.93,3.09l15.78,183.49a4,4,0,0,1-3.64,4.33Z" transform="translate(0 -11.5)" style="fill:#263238"/><path d="M260,459.5a4,4,0,0,1-4-4v-24a4,4,0,0,1,8,0v24A4,4,0,0,1,260,459.5Z" transform="translate(0 -11.5)" style="fill:#263238"/><path d="M180,299.5a91.46,91.46,0,0,1-88.76-68,24,24,0,0,1,0-48,91.93,91.93,0,0,1,177.52,0,24,24,0,0,1,0,48A91.46,91.46,0,0,1,180,299.5ZM93.73,223.35c1.92,0,4.06,1.19,4.48,3a83.92,83.92,0,0,0,163.58,0,3.9,3.9,0,0,1,4.37-3.08,14.23,14.23,0,0,0,1.84.23,16,16,0,0,0,0-32,7.35,7.35,0,0,0-1.14.12c-2.06.23-4.6-1-5.07-3a83.92,83.92,0,0,0-163.58,0,4,4,0,0,1-4.36,3.08,16.35,16.35,0,0,0-1.85-.2,16,16,0,0,0,0,32,8.79,8.79,0,0,0,1.14-.11A3.9,3.9,0,0,1,93.73,223.35Z" transform="translate(0 -11.5)" style="fill:#263238"/><path d="M100,199.5H96v-52h24v32A20,20,0,0,1,100,199.5Z" transform="translate(0 -11.5)" style="fill:#ffd740"/><path d="M100,203.5H96a4,4,0,0,1-4-4v-52a4,4,0,0,1,4-4h24a4,4,0,0,1,4,4v32A24,24,0,0,1,100,203.5Zm0-8Zm0-44v44a16,16,0,0,0,16-16v-28Z" transform="translate(0 -11.5)" style="fill:#263238"/><path d="M240,147.1v32.4a20,20,0,0,0,20,20h4V136A39.78,39.78,0,0,1,240,147.1Z" transform="translate(0 -11.5)" style="fill:#ffd740"/><path d="M264,203.5h-4a24,24,0,0,1-24-24V147.1a4,4,0,0,1,3.6-4,36,36,0,0,0,21.59-10A4,4,0,0,1,268,136V199.5A4,4,0,0,1,264,203.5Zm-20-52.94V179.5a16,16,0,0,0,16,16V144.29A44.45,44.45,0,0,1,244,150.56Z" transform="translate(0 -11.5)" style="fill:#263238"/><path d="M180,251.5a43.79,43.79,0,0,1-31.11-12.86,4,4,0,0,1,5.65-5.66,36,36,0,0,0,50.91,0h0a4,4,0,0,1,5.65,5.66A43.89,43.89,0,0,1,180,251.5Z" transform="translate(0 -11.5)" style="fill:#263238"/><path d="M236,147.5H96a60,60,0,0,1,60-60h41.64a120.1,120.1,0,0,0,50.29-11L276,63.5v44A40,40,0,0,1,236,147.5Z" transform="translate(0 -11.5)" style="fill:#ffd740"/><path d="M236,151.5H96a4,4,0,0,1-4-4,64.07,64.07,0,0,1,64-64h41.65a116.89,116.89,0,0,0,48.61-10.68l28.07-13A4,4,0,0,1,280,63.5v44A44,44,0,0,1,236,151.5Zm-135.86-8H236a36,36,0,0,0,36-36V69.75L249.61,80.09a125.12,125.12,0,0,1-52,11.41H156A56.09,56.09,0,0,0,100.14,143.5Z" transform="translate(0 -11.5)" style="fill:#263238"/><path d="M200,472l-20,23.5L160,472l12-120.5h16Z" transform="translate(0 -11.5)" style="fill:#40c4ff"/><path d="M180,499.5a4,4,0,0,1-3.05-1.41l-20-23.5a4,4,0,0,1-.93-3l12-120.5a4,4,0,0,1,4-3.61h16a4,4,0,0,1,4,3.61l12,120.5a4,4,0,0,1-.93,3l-20,23.5A4,4,0,0,1,180,499.5Zm-15.85-28.8L180,489.32l15.85-18.62L184.38,355.5h-8.76Z" transform="translate(0 -11.5)" style="fill:#263238"/><path d="M100,499.5a4,4,0,0,1-4-4v-80a4,4,0,0,1,8,0v80A4,4,0,0,1,100,499.5Z" transform="translate(0 -11.5)" style="fill:#263238"/><path d="M260,499.5a4,4,0,0,1-4-4v-84a4,4,0,0,1,4-4,3.94,3.94,0,0,1,1.59.33l56.23,24.1A36,36,0,0,0,368,398.84V323.5H312v48a4,4,0,0,1-8,0v-52a4,4,0,0,1,4-4h64a4,4,0,0,1,4,4v79.34a44,44,0,0,1-61.34,40.44L264,417.56V495.5A4,4,0,0,1,260,499.5Z" transform="translate(0 -11.5)" style="fill:#263238"/><path d="M131.47,355.5a4.07,4.07,0,0,1-1.65-.35,4,4,0,0,1-2.34-3.31l-3.33-39.5a4,4,0,0,1,2.41-4l19.85-8.5a4,4,0,0,1,4.9,1.46l16,24a4,4,0,0,1-.95,5.43l-32.53,24A4,4,0,0,1,131.47,355.5Zm.91-40.95L134.86,344l23.7-17.49-12-18.06Z" transform="translate(0 -11.5)" style="fill:#263238"/><path d="M228.46,355.5a4,4,0,0,1-2.38-.79l-32.45-24a4,4,0,0,1-1-5.42l16-24a4,4,0,0,1,4.9-1.46l19.86,8.5a4,4,0,0,1,2.41,4l-3.4,39.49a4,4,0,0,1-2.33,3.31A4.25,4.25,0,0,1,228.46,355.5Zm-27-28.95L225.1,344l2.52-29.53-14.14-6Z" transform="translate(0 -11.5)" style="fill:#263238"/><path d="M188,355.5H172a12,12,0,0,1-12-12v-8a12,12,0,0,1,12-12h16a12,12,0,0,1,12,12v8A12,12,0,0,1,188,355.5Zm-16-24a4,4,0,0,0-4,4v8a4,4,0,0,0,4,4h16a4,4,0,0,0,4-4v-8a4,4,0,0,0-4-4Z" transform="translate(0 -11.5)" style="fill:#263238"/><path d="M194.05,334.43A4,4,0,0,1,191,333a4,4,0,0,0-3-1.5H172a4,4,0,0,0-3,1.5,4.18,4.18,0,0,1-3.28,1.42,4,4,0,0,1-3.11-1.78l-18-26.93a4,4,0,0,1-.61-2.21V289.42a4,4,0,0,1,1.74-3.3,3.92,3.92,0,0,1,3.72-.42,83.64,83.64,0,0,0,61.08,0,4,4,0,0,1,5.18,2.26,3.87,3.87,0,0,1,.28,1.46V303.5a3.94,3.94,0,0,1-.67,2.21l-18,26.93a4,4,0,0,1-3.11,1.78ZM172,323.5h16a11.43,11.43,0,0,1,5.07,1.18L208,302.29v-7.2a91.39,91.39,0,0,1-56,0v7.2l14.93,22.39A11.43,11.43,0,0,1,172,323.5Z" transform="translate(0 -11.5)" style="fill:#263238"/><path d="M88,295.5H28a4,4,0,0,1,0-8H88a4,4,0,0,1,0,8Z" transform="translate(0 -11.5)" style="fill:#263238"/><path d="M12,295.5H4a4,4,0,0,1,0-8h8a4,4,0,0,1,0,8Z" transform="translate(0 -11.5)" style="fill:#263238"/><path d="M404,475.5H344a4,4,0,0,1,0-8h60a4,4,0,0,1,0,8Z" transform="translate(0 -11.5)" style="fill:#263238"/><path d="M428,475.5h-8a4,4,0,0,1,0-8h8a4,4,0,0,1,0,8Z" transform="translate(0 -11.5)" style="fill:#263238"/><path d="M312,277.5H296a12,12,0,0,1-12-12v-4a12,12,0,0,1,12-12h16a12,12,0,0,1,12,12v4A12,12,0,0,1,312,277.5Zm-16-20a4,4,0,0,0-4,4v4a4,4,0,0,0,4,4h16a4,4,0,0,0,4-4v-4a4,4,0,0,0-4-4Z" transform="translate(0 -11.5)" style="fill:#263238"/><path d="M372,267.5h-4a12,12,0,0,1-12-12v-24a12,12,0,0,1,12-12h4a12,12,0,0,1,12,12v24A12,12,0,0,1,372,267.5Zm-4-40a4,4,0,0,0-4,4v24a4,4,0,0,0,4,4h4a4,4,0,0,0,4-4v-24a4,4,0,0,0-4-4Z" transform="translate(0 -11.5)" style="fill:#263238"/><path d="M352,267.5h-4a12,12,0,0,1-12-12v-24a12,12,0,0,1,12-12h4a12,12,0,0,1,12,12v24A12,12,0,0,1,352,267.5Zm-4-40a4,4,0,0,0-4,4v24a4,4,0,0,0,4,4h4a4,4,0,0,0,4-4v-24a4,4,0,0,0-4-4Z" transform="translate(0 -11.5)" style="fill:#263238"/><path d="M332,267.5h-4a12,12,0,0,1-12-12v-24a12,12,0,0,1,12-12h4a12,12,0,0,1,12,12v24A12,12,0,0,1,332,267.5Zm-4-40a4,4,0,0,0-4,4v24a4,4,0,0,0,4,4h4a4,4,0,0,0,4-4v-24a4,4,0,0,0-4-4Z" transform="translate(0 -11.5)" style="fill:#263238"/><path d="M360,307.5a4,4,0,0,1,0-8,16,16,0,0,0,16-16v-20a4,4,0,0,1,8,0v20A24,24,0,0,1,360,307.5Z" transform="translate(0 -11.5)" style="fill:#263238"/><path d="M320,307.5a24,24,0,0,1-24-24v-10a4,4,0,0,1,8,0v10a16,16,0,0,0,16,16,4,4,0,0,1,0,8Z" transform="translate(0 -11.5)" style="fill:#263238"/><path d="M320,267.5a4,4,0,0,1-4-4v-72a4,4,0,0,0-4-4h-4a4,4,0,0,0-4,4v62a4,4,0,0,1-8,0v-62a12,12,0,0,1,12-12h4a12,12,0,0,1,12,12v72A4,4,0,0,1,320,267.5Z" transform="translate(0 -11.5)" style="fill:#263238"/><path d="M216.06,499.5h-.34a4,4,0,0,1-3.64-4.32l15.79-183.5a4,4,0,0,1,5.56-3.34L309.6,341a4,4,0,0,1-3.15,7.36l-71.08-30.47-15.32,178A4,4,0,0,1,216.06,499.5Z" transform="translate(0 -11.5)" style="fill:#263238"/><path d="M408.69,95.5a40,40,0,1,0-69.48,26.87c5.8,6.29,9.48,14.22,9.48,22.78v2.35h40v-2.36c0-8.6,3.76-16.54,9.57-22.89A39.45,39.45,0,0,0,408.69,95.5Z" transform="translate(0 -11.5)" style="fill:#ffd740"/><path d="M388.69,151.5h-40a4,4,0,0,1-4-4v-2.37c0-7.06-3-14.18-8.42-20.08a44,44,0,1,1,64.92-.1c-3.88,4.25-8.51,11.19-8.51,20.18v2.37A4,4,0,0,1,388.69,151.5Zm-36-8h32.08c.43-8.48,4.15-16.92,10.57-24a35.47,35.47,0,0,0,9.39-24,35.92,35.92,0,0,0-13.32-28,36.29,36.29,0,0,0-30.51-7.21,35.88,35.88,0,0,0-18.71,59.31,38.34,38.34,0,0,1,10.46,23.9Z" transform="translate(0 -11.5)" style="fill:#263238"/><path d="M368.69,191.5a24,24,0,0,1-24-24v-20a4,4,0,0,1,4-4h40a4,4,0,0,1,4,4v20A24,24,0,0,1,368.69,191.5Zm-16-40v16a16,16,0,1,0,32,0v-16Z" transform="translate(0 -11.5)" style="fill:#263238"/><path d="M388.69,171.5h-40a4,4,0,0,1,0-8h40a4,4,0,1,1,0,8Z" transform="translate(0 -11.5)" style="fill:#263238"/><path d="M368.69,35.5a4,4,0,0,1-4-4v-16a4,4,0,0,1,8,0v16A4,4,0,0,1,368.69,35.5Z" transform="translate(0 -11.5)" style="fill:#263238"/><path d="M328.69,49.16A4,4,0,0,1,325.86,48L314.54,36.68A4,4,0,0,1,320.2,31l11.31,11.31a4,4,0,0,1-2.82,6.83Z" transform="translate(0 -11.5)" style="fill:#263238"/><path d="M408.69,49.16a4,4,0,0,1-2.83-6.83L417.17,31a4,4,0,0,1,5.65,5.66L411.51,48A4,4,0,0,1,408.69,49.16Z" transform="translate(0 -11.5)" style="fill:#263238"/><path d="M368.69,151.5a4,4,0,0,1-4-4v-40a4,4,0,0,1,8,0v40A4,4,0,0,1,368.69,151.5Z" transform="translate(0 -11.5)" style="fill:#263238"/></svg>