<svg id="Layer_1" data-name="Layer 1" xmlns="http://www.w3.org/2000/svg" viewBox="0 0 415.41 511"><title>cash</title><path d="M184.51,446.52a4,4,0,0,1-2.82-6.81L207.39,414a43.87,43.87,0,0,1,13.55-9.23L271.08,383a75.85,75.85,0,0,0,32.17-26.45l72.64-105.07a4,4,0,0,1,6.57,4.54L309.82,361.08a83.74,83.74,0,0,1-35.57,29.23l-50.13,21.78A36.07,36.07,0,0,0,213,419.64l-25.7,25.71A3.94,3.94,0,0,1,184.51,446.52Z" transform="translate(-47.65)" style="fill:#263238"/><path d="M251.17,328.08a43.65,43.65,0,0,1-16.31-3.15l-13.55-5.42A43.68,43.68,0,0,1,197.23,296l-17.44-40.71a4,4,0,0,1,7.34-3.14l17.45,40.71a35.73,35.73,0,0,0,19.69,19.22l13.56,5.42a35.83,35.83,0,0,0,20.4,1.88l14.2-2.84A36,36,0,0,0,293.27,304l42.86-52.75a4,4,0,1,1,6.2,5L299.47,309A44,44,0,0,1,274,324.4l-14.2,2.83A44,44,0,0,1,251.17,328.08Z" transform="translate(-47.65)" style="fill:#263238"/><path d="M119.55,381.56a4,4,0,0,1-2.83-6.81l20-20a55.8,55.8,0,0,0,16.13-44.85l-5.31-55.78a4,4,0,0,1,3.59-4.35,3.92,3.92,0,0,1,4.36,3.59l5.31,55.79a63.71,63.71,0,0,1-18.43,51.24l-20,20A4,4,0,0,1,119.55,381.56Z" transform="translate(-47.65)" style="fill:#263238"/><path d="M57.42,422.76l81.9,81.9a8,8,0,0,0,11.3,0l31.07-31.06a8,8,0,0,0,0-11.3L99.78,380.39a8,8,0,0,0-11.3,0L57.42,411.45A8,8,0,0,0,57.42,422.76Z" transform="translate(-47.65)" style="fill:#40c4ff"/><path d="M145,511a11.91,11.91,0,0,1-8.47-3.51L54.59,425.58a12,12,0,0,1,0-16.95l31.08-31.06a12.25,12.25,0,0,1,16.94,0l81.9,81.9a12,12,0,0,1,0,16.95l-31.06,31.06A11.91,11.91,0,0,1,145,511ZM60.24,419.93l81.9,81.91a4.09,4.09,0,0,0,5.65,0l31.07-31.07a4,4,0,0,0,0-5.65L97,383.21a4.1,4.1,0,0,0-5.65,0L60.24,414.28A4,4,0,0,0,60.24,419.93Z" transform="translate(-47.65)" style="fill:#263238"/><path d="M451.08,241.76H59.64a12,12,0,0,1-12-12v-16a12,12,0,0,1,12-12H451.08a12,12,0,0,1,12,12v16A12,12,0,0,1,451.08,241.76Zm-391.44-32a4,4,0,0,0-4,4v16a4,4,0,0,0,4,4H451.08a4,4,0,0,0,4-4v-16a4,4,0,0,0-4-4Z" transform="translate(-47.65)" style="fill:#263238"/><path d="M256.44,310.48a4,4,0,0,1-3.1-6.52l42.86-52.75a4,4,0,1,1,6.19,5L259.54,309A4,4,0,0,1,256.44,310.48Z" transform="translate(-47.65)" style="fill:#263238"/><path d="M419.13,423.12h-8a4,4,0,0,1,0-8h8a4,4,0,0,1,0,8Z" transform="translate(-47.65)" style="fill:#263238"/><path d="M395.16,423.12H307.29a4,4,0,1,1,0-8h87.87a4,4,0,1,1,0,8Z" transform="translate(-47.65)" style="fill:#263238"/><path d="M379.19,447.09H275.33a4,4,0,0,1,0-8H379.19a4,4,0,0,1,0,8Z" transform="translate(-47.65)" style="fill:#263238"/><path d="M401.15,71.62a4,4,0,0,1-3.79-2.73L393,55.64a18.64,18.64,0,0,0-11.77-11.76l-13.24-4.42a4,4,0,0,1,0-7.58l13.24-4.41A18.68,18.68,0,0,0,393,15.7l4.42-13.25c1.09-3.27,6.48-3.27,7.58,0l4.41,13.25a18.62,18.62,0,0,0,11.77,11.76l13.24,4.42a4,4,0,0,1,0,7.58l-13.24,4.42a18.67,18.67,0,0,0-11.77,11.75l-4.42,13.26A4,4,0,0,1,401.15,71.62ZM381.82,35.67l1.89.63a26.67,26.67,0,0,1,16.81,16.82l.63,1.87.62-1.87A26.73,26.73,0,0,1,418.59,36.3l1.9-.63L418.6,35a26.72,26.72,0,0,1-16.81-16.81l-.64-1.89-.62,1.88A26.73,26.73,0,0,1,383.71,35Z" transform="translate(-47.65)" style="fill:#263238"/><path d="M351.22,70a8,8,0,0,0-8-8H103.57a8,8,0,0,0-8,8V197.82a8,8,0,0,0,8,8H343.24a8,8,0,0,0,8-8Z" transform="translate(-47.65)" style="fill:#4db6ac"/><path d="M343.24,209.8H103.57a12,12,0,0,1-12-12V70a12,12,0,0,1,12-12H343.24a12,12,0,0,1,12,12V197.82A12,12,0,0,1,343.24,209.8ZM103.57,66a4,4,0,0,0-4,4V197.82a4,4,0,0,0,4,4H343.24a4,4,0,0,0,4-4V70a4,4,0,0,0-4-4Z" transform="translate(-47.65)" style="fill:#263238"/><path d="M367.2,205.81h39.95a8,8,0,0,0,8-8v-16a8,8,0,0,0-8-8H367.2" transform="translate(-47.65)" style="fill:#ffd740"/><path d="M407.15,209.8H367.2a4,4,0,0,1,0-8h39.95a4,4,0,0,0,4-4v-16a4,4,0,0,0-4-4H367.2a4,4,0,0,1,0-8h39.95a12,12,0,0,1,12,12v16A12,12,0,0,1,407.15,209.8Z" transform="translate(-47.65)" style="fill:#263238"/><path d="M367.2,173.85h39.95a8,8,0,0,0,8-8v-16a8,8,0,0,0-8-8H367.2" transform="translate(-47.65)" style="fill:#ffd740"/><path d="M407.15,177.85H367.2a4,4,0,0,1,0-8h39.95a4,4,0,0,0,4-4v-16a4,4,0,0,0-4-4H367.2a4,4,0,0,1,0-8h39.95a12,12,0,0,1,12,12v16A12,12,0,0,1,407.15,177.85Z" transform="translate(-47.65)" style="fill:#263238"/><path d="M367.2,141.9h39.95a8,8,0,0,0,8-8v-16a8,8,0,0,0-8-8H367.2" transform="translate(-47.65)" style="fill:#ffd740"/><path d="M407.15,145.89H367.2a4,4,0,0,1,0-8h39.95a4,4,0,0,0,4-4v-16a4,4,0,0,0-4-4H367.2a4,4,0,0,1,0-8h39.95a12,12,0,0,1,12,12v16A12,12,0,0,1,407.15,145.89Z" transform="translate(-47.65)" style="fill:#263238"/><path d="M271.34,133.91A47.94,47.94,0,1,1,223.4,86,47.93,47.93,0,0,1,271.34,133.91Z" transform="translate(-47.65)" style="fill:#fff"/><path d="M223.4,185.84a51.93,51.93,0,1,1,51.93-51.93A52,52,0,0,1,223.4,185.84Zm0-95.87a43.94,43.94,0,1,0,43.94,43.94A44,44,0,0,0,223.4,90Z" transform="translate(-47.65)" style="fill:#263238"/><path d="M229.4,157.88h-22a4,4,0,1,1,0-8h22a6,6,0,0,0,0-12h-12a14,14,0,1,1,0-28h18a4,4,0,0,1,0,8h-18a6,6,0,0,0,0,12h12a14,14,0,0,1,0,28Z" transform="translate(-47.65)" style="fill:#263238"/><path d="M223.4,117.93a4,4,0,0,1-4-4V102a4,4,0,0,1,8,0v12A4,4,0,0,1,223.4,117.93Z" transform="translate(-47.65)" style="fill:#263238"/><path d="M223.4,169.86a4,4,0,0,1-4-4v-12a4,4,0,0,1,8,0v12A4,4,0,0,1,223.4,169.86Z" transform="translate(-47.65)" style="fill:#263238"/><path d="M300.78,185.84H146a4,4,0,0,1-3.61-2.28,51.79,51.79,0,0,0-28.29-26.19,4,4,0,0,1-2.57-3.73V114.18a4,4,0,0,1,2.57-3.73,51.9,51.9,0,0,0,28.3-26.2A4,4,0,0,1,146,82H300.78a4,4,0,0,1,3.61,2.28,51.86,51.86,0,0,0,28.3,26.2,4,4,0,0,1,2.56,3.73v39.46a4,4,0,0,1-2.56,3.73,51.84,51.84,0,0,0-28.3,26.19A4,4,0,0,1,300.78,185.84Zm-152.29-8H298.31A59.76,59.76,0,0,1,327.26,151V116.85A59.79,59.79,0,0,1,298.31,90H148.49a59.68,59.68,0,0,1-28.94,26.88V151A59.74,59.74,0,0,1,148.49,177.85Z" transform="translate(-47.65)" style="fill:#263238"/></svg>