<?xml version="1.0" encoding="utf-8"?>
<!-- Generator: Adobe Illustrator 23.0.1, SVG Export Plug-In . SVG Version: 6.00 Build 0)  -->
<svg version="1.1" id="Capa_1" xmlns="http://www.w3.org/2000/svg" xmlns:xlink="http://www.w3.org/1999/xlink" x="0px" y="0px"
	 viewBox="0 0 490 490" style="enable-background:new 0 0 490 490;" xml:space="preserve">
<path d="M418.3,71.8c-95.7-95.7-250.8-95.7-346.5,0s-95.7,250.8,0,346.5c95.7,95.7,250.9,95.7,346.5,0
	C514,322.6,514,167.5,418.3,71.8z M157.2,220.1c7.7,0,15.4,2.9,21.3,8.8c0,0,0,0.1,0.1,0.1l12.4,12.4l21.3,21.3l21.3-21.3l78-77.9
	c0,0,0,0,0,0c11.8-11.7,30.9-11.7,42.7,0l0,0c11.8,11.8,11.8,30.9,0,42.7l-99.3,99.3l-21.5,21.4c-11.8,11.8-30.9,11.8-42.7,0
	l-55.1-55.1c-11.8-11.8-11.8-30.9,0-42.7C141.7,223,149.5,220.1,157.2,220.1z"/>
</svg>
