<svg id="Layer_1" data-name="Layer 1" xmlns="http://www.w3.org/2000/svg" viewBox="0 0 456 488"><title>crowdfunding</title><path d="M80,119.5H48a4,4,0,0,1,0-8H80a4,4,0,0,1,0,8Z" transform="translate(0 -11.5)" style="fill:#263238"/><path d="M64,135.5a4,4,0,0,1-4-4v-32a4,4,0,0,1,8,0v32A4,4,0,0,1,64,135.5Z" transform="translate(0 -11.5)" style="fill:#263238"/><path d="M36,171.5H4a4,4,0,0,1,0-8H36a4,4,0,0,1,0,8Z" transform="translate(0 -11.5)" style="fill:#263238"/><path d="M20,187.5a4,4,0,0,1-4-4v-32a4,4,0,0,1,8,0v32A4,4,0,0,1,20,187.5Z" transform="translate(0 -11.5)" style="fill:#263238"/><path d="M201.91,247.5a64,64,0,1,0-123.81,0" transform="translate(0 -11.5)" style="fill:#ffd740"/><path d="M201.91,251.5a3.76,3.76,0,0,1-1-.13,4,4,0,0,1-2.92-4.85v0a60,60,0,1,0-116,0,4,4,0,1,1-7.75,2,68,68,0,1,1,131.53,0A4,4,0,0,1,201.91,251.5Z" transform="translate(0 -11.5)" style="fill:#263238"/><path d="M377.91,247.5a64,64,0,1,0-123.81,0" transform="translate(0 -11.5)" style="fill:#ffd740"/><path d="M377.91,251.5a3.76,3.76,0,0,1-1-.13,4,4,0,0,1-2.92-4.85v0a60,60,0,1,0-116,0,4,4,0,1,1-7.75,2,68,68,0,1,1,131.53,0A4,4,0,0,1,377.91,251.5Z" transform="translate(0 -11.5)" style="fill:#263238"/><path d="M140,215.5a4,4,0,0,1-4-4v-12a4,4,0,0,1,8,0v12A4,4,0,0,1,140,215.5Z" transform="translate(0 -11.5)" style="fill:#263238"/><path d="M154,251.5a4,4,0,0,1-3.19-6.41A6,6,0,0,0,146,235.5H134a14,14,0,0,1,0-28h18a4,4,0,0,1,0,8H134a6,6,0,0,0,0,12h12a14,14,0,0,1,11.18,22.43A4,4,0,0,1,154,251.5Z" transform="translate(0 -11.5)" style="fill:#263238"/><path d="M316,215.5a4,4,0,0,1-4-4v-12a4,4,0,0,1,8,0v12A4,4,0,0,1,316,215.5Z" transform="translate(0 -11.5)" style="fill:#263238"/><path d="M330,251.5a4,4,0,0,1-3.19-6.4,6,6,0,0,0-4.81-9.6H310a14,14,0,0,1,0-28h18a4,4,0,0,1,0,8H310a6,6,0,0,0,0,12h12a14,14,0,0,1,11.17,22.43A4,4,0,0,1,330,251.5Z" transform="translate(0 -11.5)" style="fill:#263238"/><path d="M228,499.5H64a24,24,0,0,1-24-24h0v-128a4,4,0,0,1,8,0v128a16,16,0,0,0,16,16H224v-228a4,4,0,0,1,8,0v232A4,4,0,0,1,228,499.5Z" transform="translate(0 -11.5)" style="fill:#263238"/><path d="M156,335.5H4a4,4,0,0,1-2.74-6.9l72-68A4,4,0,0,1,76,259.5H228a4,4,0,0,1,2.75,6.9l-72,68A4,4,0,0,1,156,335.5Zm-141.93-8H154.41l63.53-60H77.59Z" transform="translate(0 -11.5)" style="fill:#263238"/><path d="M392,499.5H228a4,4,0,0,1-4-4v-232a4,4,0,0,1,8,0v228H392a16,16,0,0,0,16-16v-128a4,4,0,0,1,8,0v128a24,24,0,0,1-24,24Z" transform="translate(0 -11.5)" style="fill:#263238"/><path d="M452,335.5H300a4,4,0,0,1-2.74-1.1l-72-68a4,4,0,0,1,2.74-6.9H380a4,4,0,0,1,2.75,1.1l72,68a4,4,0,0,1-2.75,6.9Zm-150.41-8H441.94l-63.53-60H238.07Z" transform="translate(0 -11.5)" style="fill:#263238"/><path d="M292,79.5a64,64,0,1,1-64-64A64,64,0,0,1,292,79.5Z" transform="translate(0 -11.5)" style="fill:#ffd740"/><path d="M228,147.5a68,68,0,1,1,68-68A68,68,0,0,1,228,147.5Zm0-128a60,60,0,1,0,60,60A60,60,0,0,0,228,19.5Z" transform="translate(0 -11.5)" style="fill:#263238"/><path d="M228,63.5a4,4,0,0,1-4-4v-12a4,4,0,0,1,8,0v12A4,4,0,0,1,228,63.5Z" transform="translate(0 -11.5)" style="fill:#263238"/><path d="M228,115.5a4,4,0,0,1-4-4v-12a4,4,0,0,1,8,0v12A4,4,0,0,1,228,115.5Z" transform="translate(0 -11.5)" style="fill:#263238"/><path d="M234,103.5H212a4,4,0,0,1,0-8h22a6,6,0,0,0,0-12H222a14,14,0,0,1,0-28h18a4,4,0,0,1,0,8H222a6,6,0,0,0,0,12h12a14,14,0,0,1,0,28Z" transform="translate(0 -11.5)" style="fill:#263238"/><path d="M320,367.5a4,4,0,0,1-4-4v-16a4,4,0,0,1,8,0v16A4,4,0,0,1,320,367.5Z" transform="translate(0 -11.5)" style="fill:#263238"/><path d="M280,381.16a4,4,0,0,1-2.83-1.16l-11.32-11.32a4,4,0,0,1,5.66-5.66l11.32,11.32a4,4,0,0,1-2.83,6.82Z" transform="translate(0 -11.5)" style="fill:#263238"/><path d="M360,381.16a4,4,0,0,1-2.83-6.82L368.48,363a4,4,0,0,1,5.66,5.66L362.83,380A4,4,0,0,1,360,381.16Z" transform="translate(0 -11.5)" style="fill:#263238"/><path d="M320,439.5a32,32,0,1,1,32-32A32,32,0,0,1,320,439.5Zm0-56a24,24,0,1,0,24,24A24,24,0,0,0,320,383.5Z" transform="translate(0 -11.5)" style="fill:#263238"/><path d="M336,459.5H304a4,4,0,0,1,0-8h32a4,4,0,0,1,0,8Z" transform="translate(0 -11.5)" style="fill:#263238"/><path d="M328,475.5H312a4,4,0,0,1,0-8h16a4,4,0,0,1,0,8Z" transform="translate(0 -11.5)" style="fill:#263238"/><path d="M320,435.5a4,4,0,0,1-4-4v-24a4,4,0,0,1,8,0v24A4,4,0,0,1,320,435.5Z" transform="translate(0 -11.5)" style="fill:#263238"/><path d="M316,139.5a4,4,0,0,1-4-4v-16a4,4,0,0,1,8,0v16A4,4,0,0,1,316,139.5Z" transform="translate(0 -11.5)" style="fill:#263238"/><path d="M316,107.5a4,4,0,0,1-4-4v-20a44,44,0,0,1,44-44h20a4,4,0,0,1,0,8H356a36,36,0,0,0-36,36v20A4,4,0,0,1,316,107.5Z" transform="translate(0 -11.5)" style="fill:#263238"/><path d="M140,139.5a4,4,0,0,1-4-4v-16a4,4,0,0,1,8,0v16A4,4,0,0,1,140,139.5Z" transform="translate(0 -11.5)" style="fill:#263238"/><path d="M140,107.5a4,4,0,0,1-4-4v-20a36,36,0,0,0-36-36H80a4,4,0,0,1,0-8h20a44,44,0,0,1,44,44v20A4,4,0,0,1,140,107.5Z" transform="translate(0 -11.5)" style="fill:#263238"/></svg>