<?xml version="1.0" encoding="utf-8"?>
<!-- Generator: Adobe Illustrator 23.0.1, SVG Export Plug-In . SVG Version: 6.00 Build 0)  -->
<svg version="1.1" id="Layer_1" xmlns="http://www.w3.org/2000/svg" xmlns:xlink="http://www.w3.org/1999/xlink" x="0px" y="0px"
	 viewBox="0 0 773.6 648.3" style="enable-background:new 0 0 773.6 648.3;" xml:space="preserve">
<style type="text/css">
	.st0{opacity:0.8;}
	.st1{fill:#E5E9FF;}
	.st2{fill:#00E1A0;}
	.st3{fill:#413AA4;}
	.st4{fill:#FFD740;}
</style>
<g class="st0">
	<g>
		
			<ellipse transform="matrix(0.7071 -0.7071 0.7071 0.7071 -121.7653 368.2777)" class="st1" cx="383.7" cy="331.1" rx="292.8" ry="292.8"/>
	</g>
	<g>
		<path class="st1" d="M382.4,97.4h-187c-15.8,0-28.6-12.8-28.6-28.6l0,0c0-15.8,12.8-28.6,28.6-28.6h187
			c15.8,0,28.6,12.8,28.6,28.6l0,0C411,84.6,398.2,97.4,382.4,97.4z"/>
	</g>
	<g>
		<path class="st1" d="M148.6,500.6h120.2c12.4,0,22.4,10,22.4,22.4l0,0c0,12.4-10,22.4-22.4,22.4H148.6c-12.4,0-22.4-10-22.4-22.4
			l0,0C126.1,510.6,136.2,500.6,148.6,500.6z"/>
	</g>
	<g>
		<path class="st1" d="M124.8,588.5h178c8,0,14.5,6.5,14.5,14.5l0,0c0,8-6.5,14.5-14.5,14.5h-178c-8,0-14.5-6.5-14.5-14.5l0,0
			C110.3,595,116.8,588.5,124.8,588.5z"/>
	</g>
	<g>
		<path class="st1" d="M505.1,618.1h43.6c3.5,0,6.3,2.8,6.3,6.3v16.5c0,3.5-2.8,6.3-6.3,6.3h-43.6c-3.5,0-6.3-2.8-6.3-6.3v-16.5
			C498.8,620.9,501.6,618.1,505.1,618.1z"/>
	</g>
	<g>
		<path class="st1" d="M364.1,532.1h268.1c13.2,0,23.8,10.7,23.8,23.8l0,0c0,13.2-10.7,23.8-23.8,23.8H364.1
			c-13.2,0-23.8-10.7-23.8-23.8l0,0C340.2,542.7,350.9,532.1,364.1,532.1z"/>
	</g>
	<g>
		<path class="st1" d="M174.1,545.1h83.7c-6.2,0-11.8,2.7-15.9,6.7c-4.1,4.1-6.6,8.9-6.6,15.1c0,12.4,10.1,21.6,22.4,21.6h-83.7
			c6.2,0,11.8-1.6,15.9-5.7c4-4,6.6-9.4,6.6-15.6C196.6,554.8,186.5,545.1,174.1,545.1z"/>
	</g>
	<g>
		<path class="st1" d="M517.5,289h215.8c22.3,0,40.3,18,40.3,40.3l0,0c0,22.2-18,40.3-40.3,40.3H517.5c-22.3,0-40.3-18-40.3-40.3
			l0,0C477.2,307,495.3,289,517.5,289z"/>
	</g>
	<g>
		<path class="st1" d="M425.5,447.8h319.8c14.4,0,26.1,11.7,26.1,26.1l0,0c0,14.4-11.7,26.1-26.1,26.1H425.5
			c-14.4,0-26.1-11.7-26.1-26.1l0,0C399.4,459.5,411.1,447.8,425.5,447.8z"/>
	</g>
	<g>
		<path class="st1" d="M566,369.8h150.4c-11.1,0-21.2,4.4-28.5,11.6c-7.3,7.3-11.8,15.9-11.8,27.1c0,22.2,18.1,38.8,40.3,38.8H566
			c11.1,0,21.2-3.1,28.5-10.4c7.3-7.3,11.8-16.5,11.8-27.7C606.3,387,588.3,369.8,566,369.8z"/>
	</g>
	<g>
		<path class="st1" d="M321.9,253.9H69c-23.6,0-42.8-19.1-42.8-42.8l0,0c0-23.6,19.1-42.8,42.8-42.8h252.9
			c23.6,0,42.8,19.2,42.8,42.8l0,0C364.7,234.8,345.6,253.9,321.9,253.9z"/>
	</g>
	<g>
		<path class="st1" d="M427.3,500.6H61.8C27.7,500.6,0,472.9,0,438.7l0,0c0-34.1,27.7-61.8,61.8-61.8h365.5
			c34.1,0,61.8,27.7,61.8,61.8l0,0C489.1,472.9,461.4,500.6,427.3,500.6z"/>
	</g>
	<g>
		<path class="st1" d="M634.1,156.4H432.3c-18.8,0-34.1-15.3-34.1-34.1l0,0c0-18.8,15.3-34.1,34.1-34.1h201.8
			c18.8,0,34.1,15.3,34.1,34.1l0,0C668.2,141.2,652.9,156.4,634.1,156.4z"/>
	</g>
	<g>
		<path class="st1" d="M572,38.4h-47.9c-10.3,0-18.6-8.3-18.6-18.6l0,0c0-10.3,8.3-18.6,18.6-18.6H572c10.3,0,18.6,8.3,18.6,18.6
			l0,0C590.6,30,582.3,38.4,572,38.4z"/>
	</g>
</g>
<g>
	<path class="st2" d="M414.9,379.5c-22.1,22.1-20,59.9-20,59.9s37.9,2.1,59.9-20c22.1-22.1,20-59.9,20-59.9S436.9,357.4,414.9,379.5
		z"/>
	<path class="st3" d="M397.8,443.4c-1.8,0-2.9-0.1-3.1-0.1c-2-0.1-3.7-1.7-3.8-3.8c-0.1-1.6-1.9-39.9,21.1-63
		c23.1-23.1,61.4-21.2,63-21.1c2,0.1,3.7,1.7,3.8,3.8c0.1,1.6,1.9,39.9-21.1,63C438.1,441.8,407.6,443.4,397.8,443.4z M470.8,363.5
		c-9.8,0.2-36.5,2.2-53.1,18.8c-16.6,16.6-18.7,43.3-18.8,53.1c9.8-0.2,36.5-2.2,53.1-18.8C468.6,400,470.6,373.2,470.8,363.5z
		 M414.9,379.5L414.9,379.5L414.9,379.5z"/>
	<path class="st2" d="M358.8,379.5c-22.1-22.1-59.9-20-59.9-20s-2.1,37.9,20,59.9c22.1,22.1,59.9,20,59.9,20
		S380.9,401.5,358.8,379.5z"/>
	<path class="st3" d="M375.9,443.4c-9.8,0-40.3-1.7-59.8-21.2c-23.1-23.1-21.2-61.4-21.1-63c0.1-2,1.7-3.7,3.8-3.8
		c1.6-0.1,39.9-1.9,63,21.1c23.1,23.1,21.2,61.3,21.1,63c-0.1,2-1.7,3.7-3.8,3.8C378.7,443.4,377.6,443.4,375.9,443.4z M378.8,439.4
		L378.8,439.4L378.8,439.4z M302.8,363.4c0.2,9.8,2.2,36.5,18.8,53.1c16.6,16.6,43.3,18.7,53.1,18.8c-0.2-9.8-2.3-36.5-18.8-53.1
		C339.3,365.7,312.6,363.6,302.8,363.4z"/>
	<path class="st3" d="M378.8,552.2c-2.2,0-4-1.8-4-4v-232c0-2.2,1.8-4,4-4s4,1.8,4,4v232C382.8,550.4,381,552.2,378.8,552.2z"/>
	<path class="st3" d="M394.8,552.2c-2.2,0-4-1.8-4-4v-232c0-2.2,1.8-4,4-4s4,1.8,4,4v232C398.8,550.4,397,552.2,394.8,552.2z"/>
	<path class="st3" d="M562.8,552.2c-2.2,0-4-1.8-4-4v-160c0-2.2,1.8-4,4-4s4,1.8,4,4v160C566.8,550.4,565,552.2,562.8,552.2z"/>
	<path class="st2" d="M572.8,426.2c-11,11-10,30-10,30s18.9,1,30-10s10-30,10-30S583.9,415.2,572.8,426.2z"/>
	<path class="st3" d="M564.2,460.2c-0.9,0-1.5,0-1.6,0c-2-0.1-3.7-1.7-3.8-3.8c0-0.8-1-20.8,11.2-33s32.2-11.2,33-11.2
		c2,0.1,3.7,1.7,3.8,3.8c0,0.8,1,20.8-11.2,33C585.3,459.3,569.4,460.2,564.2,460.2z M598.7,420.3c-5.6,0.4-16.3,1.9-23.1,8.8
		c-6.8,6.8-8.4,17.4-8.8,23.1c5.7-0.4,16.3-1.9,23.1-8.8C596.8,436.5,598.4,425.9,598.7,420.3z"/>
	<path class="st2" d="M552.8,426.2c-11-11-30-10-30-10s-1,18.9,10,30s30,10,30,10S563.8,437.2,552.8,426.2z"/>
	<path class="st3" d="M561.4,460.2c-5.1,0-21.1-0.9-31.4-11.2c-12.2-12.2-11.2-32.2-11.2-33c0.1-2,1.7-3.7,3.8-3.8
		c0.8,0,20.8-1,33,11.2s11.2,32.2,11.2,33c-0.1,2-1.7,3.7-3.8,3.8C562.9,460.1,562.3,460.2,561.4,460.2z M562.8,456.1L562.8,456.1
		L562.8,456.1z M526.9,420.3c0.3,5.6,1.9,16.2,8.7,23.1c6.8,6.8,17.4,8.4,23.1,8.7c-0.3-5.6-1.9-16.2-8.7-23.1
		S532.6,420.6,526.9,420.3z"/>
	<path class="st3" d="M210.8,552.2c-2.2,0-4-1.8-4-4v-160c0-2.2,1.8-4,4-4s4,1.8,4,4v160C214.8,550.4,213,552.2,210.8,552.2z"/>
	<path class="st2" d="M220.8,426.2c-11,11-10,30-10,30s18.9,1,30-10s10-30,10-30S231.9,415.2,220.8,426.2z"/>
	<path class="st3" d="M212.2,460.2c-0.9,0-1.5,0-1.6,0c-2-0.1-3.7-1.7-3.8-3.8c0-0.8-1-20.8,11.2-33s32.2-11.2,33-11.2
		c2,0.1,3.7,1.7,3.8,3.8c0,0.8,1,20.8-11.2,33C233.3,459.3,217.4,460.2,212.2,460.2z M246.7,420.3c-5.6,0.4-16.3,1.9-23.1,8.8
		c-6.8,6.8-8.4,17.4-8.8,23.1c5.7-0.4,16.3-1.9,23.1-8.8C244.8,436.5,246.4,425.9,246.7,420.3z"/>
	<path class="st2" d="M200.8,426.2c-11-11-30-10-30-10s-1,18.9,10,30s30,10,30,10S211.8,437.2,200.8,426.2z"/>
	<path class="st3" d="M209.4,460.2c-5.1,0-21.1-0.9-31.4-11.2c-12.2-12.2-11.2-32.2-11.2-33c0.1-2,1.7-3.7,3.8-3.8
		c0.8,0,20.9-1,33,11.1s11.2,32.2,11.2,33c-0.1,2-1.7,3.7-3.8,3.8C210.9,460.1,210.3,460.2,209.4,460.2z M210.8,456.1L210.8,456.1
		L210.8,456.1z M174.9,420.3c0.3,5.6,1.9,16.2,8.7,23.1c6.8,6.8,17.4,8.4,23.1,8.7c-0.3-5.6-1.9-16.2-8.7-23.1
		S180.6,420.6,174.9,420.3z"/>
	<path class="st3" d="M178.8,255.8h-8c-2.2,0-4-1.8-4-4s1.8-4,4-4h8c2.2,0,4,1.8,4,4S181,255.8,178.8,255.8z"/>
	<path class="st3" d="M274.8,255.8h-80c-2.2,0-4-1.8-4-4s1.8-4,4-4h80c2.2,0,4,1.8,4,4S277,255.8,274.8,255.8z"/>
	<path class="st3" d="M602.8,255.8h-8c-2.2,0-4-1.8-4-4s1.8-4,4-4h8c2.2,0,4,1.8,4,4S605,255.8,602.8,255.8z"/>
	<path class="st3" d="M578.8,255.8h-80c-2.2,0-4-1.8-4-4s1.8-4,4-4h80c2.2,0,4,1.8,4,4S581,255.8,578.8,255.8z"/>
	<path class="st4" d="M450.8,252.2c0,35.3-28.7,64-64,64s-64-28.7-64-64s28.7-64,64-64S450.8,216.8,450.8,252.2z"/>
	<path class="st3" d="M386.8,320.2c-37.5,0-68-30.5-68-68s30.5-68,68-68s68,30.5,68,68S424.3,320.2,386.8,320.2z M386.8,192.2
		c-33.1,0-60,26.9-60,60s26.9,60,60,60s60-26.9,60-60S419.9,192.2,386.8,192.2z"/>
	<path class="st3" d="M386.8,236.2c-2.2,0-4-1.8-4-4v-12c0-2.2,1.8-4,4-4s4,1.8,4,4v12C390.8,234.4,389,236.2,386.8,236.2z"/>
	<path class="st3" d="M386.8,288.2c-2.2,0-4-1.8-4-4v-12c0-2.2,1.8-4,4-4s4,1.8,4,4v12C390.8,286.4,389,288.2,386.8,288.2z"/>
	<path class="st3" d="M392.8,276.2h-22c-2.2,0-4-1.8-4-4s1.8-4,4-4h22c3.3,0,6-2.7,6-6s-2.7-6-6-6h-12c-7.7,0-14-6.3-14-14
		s6.3-14,14-14h18c2.2,0,4,1.8,4,4s-1.8,4-4,4h-18c-3.3,0-6,2.7-6,6s2.7,6,6,6h12c7.7,0,14,6.3,14,14
		C406.8,269.9,400.5,276.2,392.8,276.2z"/>
	<path class="st4" d="M258.8,340.2c0,26.5-21.5,48-48,48s-48-21.5-48-48s21.5-48,48-48S258.8,313.7,258.8,340.2z"/>
	<path class="st3" d="M210.8,392.2c-28.7,0-52-23.3-52-52s23.3-52,52-52s52,23.3,52,52S239.5,392.2,210.8,392.2z M210.8,296.2
		c-24.3,0-44,19.7-44,44s19.7,44,44,44s44-19.7,44-44S235.1,296.2,210.8,296.2z"/>
	<path class="st3" d="M210.8,368.2c-15.4,0-28-12.6-28-28s12.6-28,28-28s28,12.6,28,28S226.3,368.2,210.8,368.2z M210.8,320.2
		c-11,0-20,9-20,20s9,20,20,20s20-9,20-20S221.9,320.2,210.8,320.2z"/>
	<path class="st4" d="M610.8,340.2c0,26.5-21.5,48-48,48s-48-21.5-48-48s21.5-48,48-48S610.8,313.7,610.8,340.2z"/>
	<g>
		<path class="st3" d="M562.8,392.2c-28.7,0-52-23.3-52-52s23.3-52,52-52s52,23.3,52,52S591.5,392.2,562.8,392.2z M562.8,296.2
			c-24.3,0-44,19.7-44,44s19.7,44,44,44s44-19.7,44-44S587.1,296.2,562.8,296.2z"/>
		<path class="st3" d="M562.8,368.2c-15.4,0-28-12.6-28-28s12.6-28,28-28s28,12.6,28,28S578.3,368.2,562.8,368.2z M562.8,320.2
			c-11,0-20,9-20,20s9,20,20,20s20-9,20-20S573.9,320.2,562.8,320.2z"/>
		<path class="st3" d="M466.8,120.2h-32c-2.2,0-4-1.8-4-4s1.8-4,4-4h32c2.2,0,4,1.8,4,4S469,120.2,466.8,120.2z"/>
		<path class="st3" d="M450.8,136.2c-2.2,0-4-1.8-4-4v-32c0-2.2,1.8-4,4-4s4,1.8,4,4v32C454.8,134.4,453,136.2,450.8,136.2z"/>
		<path class="st3" d="M522.8,172.2h-32c-2.2,0-4-1.8-4-4s1.8-4,4-4h32c2.2,0,4,1.8,4,4S525,172.2,522.8,172.2z"/>
		<path class="st3" d="M506.8,188.2c-2.2,0-4-1.8-4-4v-32c0-2.2,1.8-4,4-4s4,1.8,4,4v32C510.8,186.4,509,188.2,506.8,188.2z"/>
	</g>
</g>
</svg>
