<?xml version="1.0" encoding="iso-8859-1"?>
<!-- Generator: Adobe Illustrator 19.0.0, SVG Export Plug-In . SVG Version: 6.00 Build 0)  -->
<svg version="1.1" id="Capa_1" xmlns="http://www.w3.org/2000/svg" xmlns:xlink="http://www.w3.org/1999/xlink" x="0px" y="0px"
	 viewBox="0 0 512 512" style="enable-background:new 0 0 512 512;" xml:space="preserve">
<path style="fill:#21D8DE;" d="M253.733,478.995L76.168,248.782c-0.712-0.923-0.793-2.185-0.206-3.192l59.368-101.728
	c0.513-0.879,1.455-1.42,2.473-1.42h236.392c1.018,0,1.96,0.541,2.473,1.42l59.368,101.728c0.588,1.007,0.506,2.269-0.206,3.192
	L258.267,478.995C257.121,480.481,254.879,480.481,253.733,478.995z"/>
<path style="fill:#0FB9C1;" d="M436.037,245.59l-59.368-101.728c-0.513-0.879-1.455-1.42-2.473-1.42h-56.651l61.169,104.813
	L254.491,479.659c1.202,0.751,2.846,0.541,3.776-0.665l177.564-230.213C436.543,247.859,436.625,246.597,436.037,245.59z"/>
<path d="M426.683,214.736c-2.08-3.564-6.655-4.766-10.22-2.687c-3.564,2.08-4.768,6.656-2.687,10.22l10.158,17.406h-96.192
	l48.099-82.408l14.088,24.139c2.08,3.565,6.657,4.768,10.22,2.687c3.564-2.08,4.768-6.656,2.687-10.22l-19.712-33.777
	c-1.845-3.161-5.266-5.126-8.927-5.126H137.804c-3.661,0-7.082,1.964-8.926,5.126L69.511,241.821
	c-2.132,3.651-1.842,8.174,0.741,11.525l103.663,134.399c1.472,1.909,3.685,2.909,5.922,2.909c1.593,0,3.199-0.507,4.558-1.556
	c3.268-2.52,3.873-7.213,1.353-10.481l-95.64-123.998h101.311l49.223,195.168l-26.057-33.784c-2.519-3.266-7.213-3.873-10.481-1.352
	c-3.268,2.52-3.873,7.213-1.353,10.48l45.063,58.426c1.972,2.558,4.956,4.025,8.186,4.025s6.213-1.467,8.185-4.024L441.75,253.345
	c2.582-3.35,2.872-7.873,0.741-11.521L426.683,214.736z M362.827,149.915l-47.921,82.104l-46.136-82.104L362.827,149.915
	L362.827,149.915z M302.065,239.675h-92.13L256,157.696L302.065,239.675z M88.067,239.675l48.093-82.408l48.099,82.408
	L88.067,239.675L88.067,239.675z M149.173,149.915h94.057l-46.136,82.104L149.173,149.915z M256,449.569l-49.168-194.95h98.336
	L256,449.569z M271.358,449.789l49.223-195.169h101.311L271.358,449.789z"/>
<path d="M256,73.237c4.127,0,7.472-3.345,7.472-7.472V31.89c0-4.127-3.346-7.472-7.472-7.472s-7.472,3.345-7.472,7.472v33.875
	C248.528,69.892,251.873,73.237,256,73.237z"/>
<path d="M407.782,119.502c1.912,0,3.825-0.73,5.284-2.188l23.953-23.952c2.918-2.919,2.918-7.649,0-10.568
	c-2.918-2.917-7.649-2.917-10.567,0l-23.953,23.952c-2.918,2.919-2.918,7.649,0,10.568
	C403.958,118.772,405.87,119.502,407.782,119.502z"/>
<path d="M504.528,256.34h-33.875c-4.127,0-7.472,3.345-7.472,7.472s3.346,7.472,7.472,7.472h33.875c4.127,0,7.472-3.345,7.472-7.472
	S508.654,256.34,504.528,256.34z"/>
<path d="M41.347,256.34H7.472c-4.127,0-7.472,3.345-7.472,7.472s3.346,7.472,7.472,7.472h33.875c4.127,0,7.472-3.345,7.472-7.472
	S45.474,256.34,41.347,256.34z"/>
<path d="M98.934,117.314c1.459,1.458,3.371,2.188,5.284,2.188s3.825-0.73,5.284-2.188c2.918-2.919,2.918-7.649,0-10.568
	L85.548,82.793c-2.918-2.917-7.649-2.917-10.567,0c-2.918,2.919-2.918,7.649,0,10.568L98.934,117.314z"/>
<g>
</g>
<g>
</g>
<g>
</g>
<g>
</g>
<g>
</g>
<g>
</g>
<g>
</g>
<g>
</g>
<g>
</g>
<g>
</g>
<g>
</g>
<g>
</g>
<g>
</g>
<g>
</g>
<g>
</g>
</svg>
