<?xml version="1.0" encoding="utf-8"?>
<!-- Generator: Adobe Illustrator 23.0.1, SVG Export Plug-In . SVG Version: 6.00 Build 0)  -->
<svg version="1.1" id="Layer_1" xmlns="http://www.w3.org/2000/svg" xmlns:xlink="http://www.w3.org/1999/xlink" x="0px" y="0px"
	 viewBox="0 0 773.6 648.3" style="enable-background:new 0 0 773.6 648.3;" xml:space="preserve">
<style type="text/css">
	.st0{opacity:0.8;}
	.st1{fill:#E5E9FF;}
	.st2{fill:#FFD740;}
	.st3{fill:#413AA4;}
	.st4{fill:#00E2A1;}
	.st5{fill:#263238;}
</style>
<g class="st0">
	<g>
		
			<ellipse transform="matrix(0.7071 -0.7071 0.7071 0.7071 -121.7653 368.2777)" class="st1" cx="383.7" cy="331.1" rx="292.8" ry="292.8"/>
	</g>
	<g>
		<path class="st1" d="M382.4,97.4h-187c-15.8,0-28.6-12.8-28.6-28.6l0,0c0-15.8,12.8-28.6,28.6-28.6h187
			c15.8,0,28.6,12.8,28.6,28.6l0,0C411,84.6,398.2,97.4,382.4,97.4z"/>
	</g>
	<g>
		<path class="st1" d="M148.6,500.6h120.2c12.4,0,22.4,10,22.4,22.4l0,0c0,12.4-10,22.4-22.4,22.4H148.6c-12.4,0-22.4-10-22.4-22.4
			l0,0C126.1,510.6,136.2,500.6,148.6,500.6z"/>
	</g>
	<g>
		<path class="st1" d="M124.8,588.5h178c8,0,14.5,6.5,14.5,14.5l0,0c0,8-6.5,14.5-14.5,14.5h-178c-8,0-14.5-6.5-14.5-14.5l0,0
			C110.3,595,116.8,588.5,124.8,588.5z"/>
	</g>
	<g>
		<path class="st1" d="M505.1,618.1h43.6c3.5,0,6.3,2.8,6.3,6.3v16.5c0,3.5-2.8,6.3-6.3,6.3h-43.6c-3.5,0-6.3-2.8-6.3-6.3v-16.5
			C498.8,620.9,501.6,618.1,505.1,618.1z"/>
	</g>
	<g>
		<path class="st1" d="M364.1,532.1h268.1c13.2,0,23.8,10.7,23.8,23.8l0,0c0,13.2-10.7,23.8-23.8,23.8H364.1
			c-13.2,0-23.8-10.7-23.8-23.8l0,0C340.2,542.7,350.9,532.1,364.1,532.1z"/>
	</g>
	<g>
		<path class="st1" d="M174.1,545.1h83.7c-6.2,0-11.8,2.7-15.9,6.7c-4.1,4.1-6.6,8.9-6.6,15.1c0,12.4,10.1,21.6,22.4,21.6h-83.7
			c6.2,0,11.8-1.6,15.9-5.7c4-4,6.6-9.4,6.6-15.6C196.6,554.8,186.5,545.1,174.1,545.1z"/>
	</g>
	<g>
		<path class="st1" d="M517.5,289h215.8c22.3,0,40.3,18,40.3,40.3l0,0c0,22.2-18,40.3-40.3,40.3H517.5c-22.3,0-40.3-18-40.3-40.3
			l0,0C477.2,307,495.3,289,517.5,289z"/>
	</g>
	<g>
		<path class="st1" d="M425.5,447.8h319.8c14.4,0,26.1,11.7,26.1,26.1l0,0c0,14.4-11.7,26.1-26.1,26.1H425.5
			c-14.4,0-26.1-11.7-26.1-26.1l0,0C399.4,459.5,411.1,447.8,425.5,447.8z"/>
	</g>
	<g>
		<path class="st1" d="M566,369.8h150.4c-11.1,0-21.2,4.4-28.5,11.6c-7.3,7.3-11.8,15.9-11.8,27.1c0,22.2,18.1,38.8,40.3,38.8H566
			c11.1,0,21.2-3.1,28.5-10.4c7.3-7.3,11.8-16.5,11.8-27.7C606.3,387,588.3,369.8,566,369.8z"/>
	</g>
	<g>
		<path class="st1" d="M321.9,253.9H69c-23.6,0-42.8-19.1-42.8-42.8l0,0c0-23.6,19.1-42.8,42.8-42.8h252.9
			c23.6,0,42.8,19.2,42.8,42.8l0,0C364.7,234.8,345.6,253.9,321.9,253.9z"/>
	</g>
	<g>
		<path class="st1" d="M427.3,500.6H61.8C27.7,500.6,0,472.9,0,438.7l0,0c0-34.1,27.7-61.8,61.8-61.8h365.5
			c34.1,0,61.8,27.7,61.8,61.8l0,0C489.1,472.9,461.4,500.6,427.3,500.6z"/>
	</g>
	<g>
		<path class="st1" d="M634.1,156.4H432.3c-18.8,0-34.1-15.3-34.1-34.1l0,0c0-18.8,15.3-34.1,34.1-34.1h201.8
			c18.8,0,34.1,15.3,34.1,34.1l0,0C668.2,141.2,652.9,156.4,634.1,156.4z"/>
	</g>
	<g>
		<path class="st1" d="M572,38.4h-47.9c-10.3,0-18.6-8.3-18.6-18.6l0,0c0-10.3,8.3-18.6,18.6-18.6H572c10.3,0,18.6,8.3,18.6,18.6
			l0,0C590.6,30,582.3,38.4,572,38.4z"/>
	</g>
</g>
<g>
	<path class="st2" d="M436.5,230.1H308.8c-4.4,0-8-3.6-8-8v-24c0-4.4,3.6-8,8-8h127.7c4.4,0,8,3.6,8,8v24
		C444.5,226.5,440.9,230.1,436.5,230.1z"/>
	<path class="st3" d="M436.5,234.1H308.8c-6.6,0-12-5.4-12-12v-24c0-6.6,5.4-12,12-12h127.7c6.6,0,12,5.4,12,12v24
		C448.5,228.7,443.1,234.1,436.5,234.1z M308.8,194.2c-2.2,0-4,1.8-4,4v24c0,2.2,1.8,4,4,4h127.7c2.2,0,4-1.8,4-4v-24
		c0-2.2-1.8-4-4-4H308.8z"/>
	<path class="st3" d="M444.4,533.4H304.9c-39.2,0-73.6-20.7-91.9-55.5c-18.3-34.7-15.9-74.8,6.3-107.1l87.4-127.1
		c1.3-1.8,3.7-2.3,5.5-1c1.8,1.2,2.3,3.7,1,5.5l-87.4,127.1c-20.5,29.9-22.7,66.8-5.8,98.9c16.9,32.1,48.6,51.2,84.8,51.2h139.5
		c36.2,0,67.9-19.1,84.8-51.2c16.9-32.1,14.7-69-5.8-98.9L436,248.3c-1.2-1.8-0.8-4.3,1-5.5c1.8-1.2,4.3-0.8,5.6,1l87.4,127.1
		c22.2,32.3,24.6,72.4,6.3,107.1C518,512.7,483.6,533.4,444.4,533.4z"/>
	<path class="st3" d="M424.5,178.2c-0.7,0-1.4-0.2-2-0.5c-1.9-1.1-2.6-3.5-1.5-5.5l39.8-68.8l-51.8,6.9c-0.7,0.1-1.5,0-2.2-0.3
		l-34.3-15.2L338.3,110c-0.7,0.3-1.4,0.4-2.2,0.3l-51.8-6.9l39.8,68.8c1.1,1.9,0.5,4.4-1.5,5.5c-1.9,1.1-4.4,0.5-5.5-1.5l-43.9-75.8
		c-0.8-1.3-0.7-3,0.1-4.2c0.8-1.3,2.3-2,3.8-1.7l58.8,7.8L371,86.7c1-0.5,2.2-0.5,3.2,0l34.9,15.5l58.7-7.8c1.5-0.2,3,0.5,3.8,1.7
		c0.8,1.3,0.9,2.9,0.1,4.2L428,176.2C427.2,177.5,425.9,178.2,424.5,178.2z"/>
	<path class="st3" d="M352.7,178.2c-1.8,0-3.5-1.2-3.9-3.1l-16-67.9c-0.5-2.1,0.8-4.3,3-4.8c2.2-0.5,4.3,0.8,4.8,3l16,67.9
		c0.5,2.1-0.8,4.3-3,4.8C353.3,178.2,353,178.2,352.7,178.2z"/>
	<path class="st3" d="M392.6,178.2c-0.3,0-0.6,0-0.9-0.1c-2.2-0.5-3.5-2.7-3-4.8l16-67.9c0.5-2.1,2.6-3.5,4.8-3
		c2.2,0.5,3.5,2.7,3,4.8l-16,67.9C396.1,176.9,394.4,178.2,392.6,178.2z"/>
	<path class="st2" d="M460.5,210.1h87.9l-20,20l20,20h-87.9"/>
	<path class="st3" d="M548.3,254h-87.9c-2.2,0-4-1.8-4-4c0-2.2,1.8-4,4-4h78.3l-13.1-13.1c-1.6-1.6-1.6-4.1,0-5.6l13.1-13.1h-78.3
		c-2.2,0-4-1.8-4-4c0-2.2,1.8-4,4-4h87.9c1.6,0,3.1,1,3.7,2.5c0.6,1.5,0.3,3.2-0.9,4.4L534,230.1l17.1,17.1c1.1,1.1,1.5,2.9,0.9,4.4
		C551.4,253.1,550,254,548.3,254z"/>
	<path class="st4" d="M446.5,387.7c0,39.7-32.2,71.9-71.9,71.9c-39.7,0-71.9-32.2-71.9-71.9c0-39.7,32.2-71.9,71.9-71.9
		C414.3,315.9,446.5,348.1,446.5,387.7z"/>
	<path class="st3" d="M374.6,463.6c-41.8,0-75.8-34-75.8-75.8c0-41.8,34-75.8,75.8-75.8c41.8,0,75.8,34,75.8,75.8
		C450.5,429.6,416.5,463.6,374.6,463.6z M374.6,319.9c-37.4,0-67.9,30.4-67.9,67.9c0,37.4,30.4,67.9,67.9,67.9s67.9-30.4,67.9-67.9
		C442.5,350.3,412.1,319.9,374.6,319.9z"/>
	<path class="st3" d="M380.3,419.7h-25.9c-2.2,0-4-1.8-4-4c0-2.2,1.8-4,4-4h25.9c5.5,0,10-4.5,10-10c0-5.5-4.5-10-10-10h-12
		c-9.9,0-18-8.1-18-18c0-9.9,8.1-18,18-18h22c2.2,0,4,1.8,4,4c0,2.2-1.8,4-4,4h-22c-5.5,0-10,4.5-10,10c0,5.5,4.5,10,10,10h12
		c9.9,0,18,8.1,18,18C398.3,411.6,390.2,419.7,380.3,419.7z"/>
	<path class="st5" d="M374.3,363.8c-2.2,0-4-1.8-4-4v-12c0-2.2,1.8-4,4-4c2.2,0,4,1.8,4,4v12C378.3,362,376.5,363.8,374.3,363.8z"/>
	<path class="st5" d="M374.3,431.7c-2.2,0-4-1.8-4-4v-12c0-2.2,1.8-4,4-4c2.2,0,4,1.8,4,4v12C378.3,429.9,376.5,431.7,374.3,431.7z"
		/>
	<g>
		<path class="st3" d="M213.1,305.9c-2.2,0-4-1.8-4-4V270c0-2.2,1.8-4,4-4c2.2,0,4,1.8,4,4v31.9C217,304.1,215.3,305.9,213.1,305.9z
			"/>
		<path class="st3" d="M229,290h-31.9c-2.2,0-4-1.8-4-4c0-2.2,1.8-4,4-4H229c2.2,0,4,1.8,4,4C233,288.2,231.2,290,229,290z"/>
		<path class="st3" d="M253,250c-2.2,0-4-1.8-4-4v-31.9c0-2.2,1.8-4,4-4c2.2,0,4,1.8,4,4V246C257,248.2,255.2,250,253,250z"/>
		<path class="st3" d="M268.9,234.1H237c-2.2,0-4-1.8-4-4c0-2.2,1.8-4,4-4h31.9c2.2,0,4,1.8,4,4
			C272.9,232.3,271.1,234.1,268.9,234.1z"/>
	</g>
	<path class="st3" d="M294.8,565.4h-16c-2.2,0-4-1.8-4-4c0-2.2,1.8-4,4-4h16c2.2,0,4,1.8,4,4C298.8,563.6,297,565.4,294.8,565.4z"/>
	<path class="st3" d="M470.4,565.4H310.8c-2.2,0-4-1.8-4-4c0-2.2,1.8-4,4-4h159.7c2.2,0,4,1.8,4,4
		C474.4,563.6,472.7,565.4,470.4,565.4z"/>
</g>
</svg>
