<?xml version="1.0" encoding="utf-8"?>
<!-- Generator: Adobe Illustrator 23.0.1, SVG Export Plug-In . SVG Version: 6.00 Build 0)  -->
<svg version="1.1" id="Layer_1" xmlns="http://www.w3.org/2000/svg" xmlns:xlink="http://www.w3.org/1999/xlink" x="0px" y="0px"
	 viewBox="0 0 1920 75.5" style="enable-background:new 0 0 1920 75.5;" xml:space="preserve">
<style type="text/css">
	.st0{opacity:0.3;fill:#FFFFFF;}
	.st1{fill:#FFFFFF;}
</style>
<path class="st0" d="M217.2,22.1c-3.9,0-7.8,0-11.7,0C92.3,22.5,13.6,32.5-0.1,34.3v-31C-0.1,3.3,119.3,0.8,217.2,22.1z"/>
<path class="st0" d="M1030.5,56.9c-16.2,1-31.5,1.9-45.5,2.6h0c-0.8,0-1.6,0.1-2.4,0.1c-0.2,0-0.4,0-0.7,0c-0.6,0-1.1,0.1-1.7,0.1
	c-0.3,0-0.6,0-0.9,0c-0.5,0-1,0-1.5,0.1c-0.3,0-0.7,0-1,0c-0.4,0-0.9,0-1.3,0.1c-0.4,0-0.9,0-1.3,0.1c-0.3,0-0.5,0-0.8,0
	c-0.6,0-1.2,0.1-1.8,0.1c0,0-0.1,0-0.2,0c-34.6,1.7-57.7,2.4-57.7,2.4v0.1c-2.8,0-5.6,0.1-8.4,0.1c-4.4,0-8.9,0.1-13.4,0.1
	c-2.2,0-4.3,0-6.5,0c-1.8,0-3.7,0-5.5,0c-3.7,0-7.5,0-11.2,0h-1c-2.2,0-4.5,0-6.8,0c0,0,0,0,0,0c0,0,0,0,0,0c0,0-0.1,0-0.1,0
	c0,0,0,0,0,0c0,0,0,0-0.1,0H860c-0.1,0-0.2,0-0.3,0c-1.6,0-3.2,0-4.8,0c-2.7,0-5.4,0-8.1-0.1c-1.1,0-2.3,0-3.4,0
	c-7.1-0.1-14.2-0.2-21.4-0.3c-3.9-0.1-7.7-0.1-11.6-0.2c-3.2-0.1-6.4-0.1-9.6-0.2c-1.1,0-2.3,0-3.4-0.1c-3.4-0.1-6.8-0.1-10.3-0.2
	c-4.3-0.1-8.6-0.2-12.9-0.3c-6.7-0.2-13.4-0.4-20.1-0.6c-2.2-0.1-4.5-0.2-6.7-0.2c-2.5-0.1-4.9-0.2-7.4-0.3c-3.5-0.1-7-0.3-10.6-0.4
	c-0.7,0-1.5-0.1-2.2-0.1c-3.6-0.1-7.2-0.3-10.8-0.5c-4-0.2-7.9-0.4-11.9-0.5c-3.6-0.2-7.2-0.3-10.8-0.5c-0.3,0-0.7,0-1,0
	c0,0,0,0,0,0c-0.6,0-1.2-0.1-1.8-0.1c-1.9-0.1-3.8-0.2-5.7-0.3c-2.5-0.1-5-0.3-7.6-0.4c-2.5-0.1-5-0.3-7.6-0.4
	c-2.5-0.1-5-0.3-7.6-0.4c-5.4-0.3-10.7-0.6-16.1-1c-9.7-0.6-19.4-1.3-29.1-2c-17.1-1.2-34.1-2.6-50.9-4.1c-0.4,0-0.8-0.1-1.2-0.1
	c-2.5-0.2-4.9-0.4-7.4-0.7c-2.5-0.2-4.9-0.4-7.4-0.7c-1.9-0.2-3.9-0.4-5.8-0.5c-7.8-0.8-15.6-1.5-23.4-2.3c-1.9-0.2-3.7-0.4-5.5-0.6
	c-3-0.3-5.9-0.6-8.9-1c-2.4-0.3-4.8-0.5-7.2-0.8c-5.2-0.6-10.3-1.2-15.4-1.8c-2-0.2-3.9-0.5-5.9-0.7c-1.8-0.2-3.5-0.4-5.3-0.7
	c-5.3-0.7-10.5-1.3-15.7-2c-85.2-11.2-165.2-15.2-233.8-15.6c-1.9,0-3.7,0-5.6,0h-1c0,0,92.2-21.4,222.5-22.1c4.3,0,8.7,0,13.1,0
	c60.5,0.3,128.4,5.3,198.8,18.8C715.2,31,775.8,39.3,830.3,45C917,54.1,988.1,56.5,1030.5,56.9z"/>
<path class="st0" d="M1407.8,14.9c-84.6,4.6-153.1,16.4-208.4,26.3c-106,15.7-285.6,21.5-285.6,21.5v0.1c-2.8,0-5.6,0.1-8.4,0.1
	c-4.4,0-8.9,0.1-13.4,0.1c-2.2,0-4.3,0-6.5,0c-1.8,0-3.7,0-5.5,0c-3.7,0-7.5,0-11.2,0c-2.6,0-5.2,0-7.7,0c0,0,0,0-0.1,0
	c0,0-0.1,0-0.1,0c0,0,0,0-0.1,0c-1.6,0-3.2,0-4.8,0c-2.7,0-5.4,0-8.1-0.1c-1.1,0-2.3,0-3.4,0c-7.1-0.1-14.2-0.2-21.4-0.3
	c-3.9-0.1-7.7-0.1-11.6-0.2c-3.2,0-6.4-0.1-9.6-0.2c-1.1,0-2.3,0-3.4-0.1c-3.4-0.1-6.8-0.1-10.3-0.2c-4.3-0.1-8.6-0.2-12.9-0.3
	c-6.7-0.2-13.4-0.4-20.1-0.6c-2.2-0.1-4.5-0.2-6.7-0.2c-2.5-0.1-4.9-0.2-7.4-0.3c-3.5-0.1-7.1-0.3-10.6-0.4c-0.7,0-1.5-0.1-2.2-0.1
	c-3.6-0.1-7.2-0.3-10.8-0.5c-4-0.2-7.9-0.4-11.9-0.5c-3.6-0.2-7.2-0.3-10.8-0.5c-0.3,0-0.7,0-1,0c0,0,0,0,0,0c-0.2,0-0.4,0-0.6,0
	c5.3-0.4,63.6-5.1,137.2-13.2c53.1-5.8,114.1-13.5,168.9-22.6C1114.4,3.3,1298.5,2.3,1407.8,14.9z"/>
<path class="st0" d="M855.9,62.8c1.6,0,3.2,0,4.8,0H860c-0.1,0-0.2,0-0.3,0c-1.6,0-3.2,0-4.8,0c-2.7,0-5.4,0-8.1-0.1
	c-1.1,0-2.3,0-3.4,0c-7.1-0.1-14.2-0.2-21.4-0.3c-3.9-0.1-7.7-0.1-11.6-0.2c-3.2-0.1-6.4-0.1-9.6-0.2c-1.1,0-2.3,0-3.4-0.1
	c-3.4-0.1-6.8-0.1-10.3-0.2c-4.3-0.1-8.6-0.2-12.9-0.3c-6.7-0.2-13.4-0.4-20.1-0.6c-2.2-0.1-4.5-0.2-6.7-0.2
	c-2.5-0.1-4.9-0.2-7.4-0.3c-3.5-0.1-7-0.3-10.6-0.4c-0.7,0-1.5-0.1-2.2-0.1c-3.6-0.1-7.2-0.3-10.8-0.5c-4-0.2-7.9-0.4-11.9-0.5
	c-3.6-0.2-7.2-0.3-10.8-0.5c-0.3,0-0.7,0-1,0c0,0,0.2,0,0.4,0c0.2,0,0.4,0,0.6,0c0,0,0,0,0,0c0.3,0,0.7,0,1,0
	c3.6,0.2,7.2,0.4,10.8,0.5c4,0.2,7.9,0.4,11.9,0.5c3.6,0.2,7.2,0.3,10.8,0.5c0.8,0,1.5,0.1,2.2,0.1c3.5,0.1,7.1,0.3,10.6,0.4
	c2.5,0.1,4.9,0.2,7.4,0.3c2.2,0.1,4.5,0.2,6.7,0.2c6.7,0.2,13.4,0.4,20.1,0.6c4.3,0.1,8.6,0.2,12.9,0.3c3.4,0.1,6.9,0.2,10.3,0.2
	c1.1,0,2.3,0.1,3.4,0.1c3.2,0.1,6.4,0.1,9.6,0.2c3.9,0.1,7.7,0.1,11.6,0.2c7.2,0.1,14.3,0.2,21.4,0.3c1.1,0,2.3,0,3.4,0
	C850.5,62.8,853.2,62.8,855.9,62.8z"/>
<path class="st0" d="M861,62.9c2.6,0,5.2,0,7.7,0h-1C865.5,62.9,863.2,62.9,861,62.9C861,62.9,861,62.9,861,62.9z"/>
<path class="st0" d="M1919.9,27.1v48.3c-180-48.7-326.6-63.3-445.7-62.6C1476.9,12.6,1745.4-12.6,1919.9,27.1z"/>
<path class="st0" d="M855.9,62.8c1.6,0,3.2,0,4.8,0H860c-0.1,0-0.2,0-0.3,0c-1.6,0-3.2,0-4.8,0c-2.7,0-5.4,0-8.1-0.1
	c-1.1,0-2.3,0-3.4,0c-7.1-0.1-14.2-0.2-21.4-0.3c-3.9-0.1-7.7-0.1-11.6-0.2c-3.2-0.1-6.4-0.1-9.6-0.2c-1.1,0-2.3,0-3.4-0.1
	c-3.4-0.1-6.8-0.1-10.3-0.2c-4.3-0.1-8.6-0.2-12.9-0.3c-6.7-0.2-13.4-0.4-20.1-0.6c-2.2-0.1-4.5-0.2-6.7-0.2
	c-2.5-0.1-4.9-0.2-7.4-0.3c-3.5-0.1-7-0.3-10.6-0.4c-0.7,0-1.5-0.1-2.2-0.1c-3.6-0.1-7.2-0.3-10.8-0.5c-4-0.2-7.9-0.4-11.9-0.5
	c-3.6-0.2-7.2-0.3-10.8-0.5c-0.3,0-0.7,0-1,0c0,0,0,0,0,0c-0.6,0-1.2-0.1-1.8-0.1c-1.9-0.1-3.8-0.2-5.7-0.3c-2.5-0.1-5-0.3-7.6-0.4
	c-2.5-0.1-5-0.3-7.6-0.4c-2.5-0.1-5-0.3-7.6-0.4c-5.4-0.3-10.7-0.6-16.1-1c-9.7-0.6-19.4-1.3-29.1-2c-17.1-1.2-34.1-2.6-50.9-4.1
	c-0.4,0-0.8-0.1-1.2-0.1c-2.5-0.2-4.9-0.4-7.4-0.7c-2.5-0.2-4.9-0.4-7.4-0.7c-1.9-0.2-3.9-0.4-5.8-0.5c-7.8-0.8-15.6-1.5-23.4-2.3
	c-1.9-0.2-3.7-0.4-5.5-0.6c-3-0.3-5.9-0.6-8.9-1c-2.4-0.3-4.8-0.5-7.2-0.8c-5.2-0.6-10.3-1.2-15.4-1.8c-2-0.2-3.9-0.5-5.9-0.7
	c-1.8-0.2-3.5-0.4-5.3-0.7c-5.3-0.7-10.5-1.3-15.7-2c-85.2-11.2-165.2-15.2-233.8-15.6c68.8,0.4,149.2,4.3,234.8,15.6
	c5.2,0.7,10.4,1.4,15.7,2c1.8,0.2,3.5,0.4,5.3,0.7c2,0.2,3.9,0.5,5.9,0.7c5.1,0.6,10.2,1.2,15.4,1.8c2.4,0.3,4.8,0.5,7.2,0.8
	c3,0.3,5.9,0.6,8.9,1c1.8,0.2,3.7,0.4,5.5,0.6c7.7,0.8,15.5,1.6,23.4,2.3c1.9,0.2,3.9,0.4,5.8,0.5c2.5,0.2,4.9,0.5,7.4,0.7
	c2.5,0.2,4.9,0.4,7.4,0.7c0.4,0,0.8,0.1,1.2,0.1c16.8,1.5,33.8,2.8,50.9,4.1c9.7,0.7,19.4,1.4,29.1,2c5.4,0.3,10.7,0.7,16.1,1
	c2.5,0.1,5,0.3,7.6,0.4c2.5,0.1,5,0.3,7.6,0.4c2.5,0.1,5,0.3,7.6,0.4c1.9,0.1,3.8,0.2,5.7,0.3c0.4,0,0.8,0,1.2,0.1
	c0.2,0,0.4,0,0.6,0c0,0,0,0,0,0c0.3,0,0.7,0,1,0c3.6,0.2,7.2,0.4,10.8,0.5c4,0.2,7.9,0.4,11.9,0.5c3.6,0.2,7.2,0.3,10.8,0.5
	c0.8,0,1.5,0.1,2.2,0.1c3.5,0.1,7.1,0.3,10.6,0.4c2.5,0.1,4.9,0.2,7.4,0.3c2.2,0.1,4.5,0.2,6.7,0.2c6.7,0.2,13.4,0.4,20.1,0.6
	c4.3,0.1,8.6,0.2,12.9,0.3c3.4,0.1,6.9,0.2,10.3,0.2c1.1,0,2.3,0.1,3.4,0.1c3.2,0.1,6.4,0.1,9.6,0.2c3.9,0.1,7.7,0.1,11.6,0.2
	c7.2,0.1,14.3,0.2,21.4,0.3c1.1,0,2.3,0,3.4,0C850.5,62.8,853.2,62.8,855.9,62.8z"/>
<path class="st0" d="M861,62.9c2.6,0,5.2,0,7.7,0h-1C865.5,62.9,863.3,62.9,861,62.9C861,62.9,861,62.9,861,62.9z"/>
<path class="st1" d="M1920,75.3v0.2H0V34.7c1.7-0.3-0.4-0.2,0.1-0.3c13.7-1.9,92.4-11.9,205.7-12.2c3.5,0,7.1,0,10.6,0h1
	c1.9,0,3.7,0,5.6,0c68.6,0.4,148.6,4.4,233.9,15.6c5.2,0.7,10.4,1.4,15.7,2c1.8,0.2,3.5,0.4,5.3,0.7c2,0.2,3.9,0.5,5.9,0.7
	c5.1,0.6,10.2,1.2,15.4,1.8c2.4,0.3,4.8,0.5,7.2,0.8c3,0.3,5.9,0.7,8.9,1c1.8,0.2,3.7,0.4,5.5,0.6c7.7,0.8,15.5,1.6,23.4,2.3
	c1.9,0.2,3.9,0.4,5.8,0.5c2.4,0.2,4.9,0.5,7.3,0.7c2.5,0.2,4.9,0.4,7.4,0.7c0.4,0,0.8,0.1,1.2,0.1c16.8,1.5,33.8,2.8,50.9,4.1
	c9.7,0.7,19.4,1.3,29.1,2c5.4,0.3,10.7,0.7,16.1,1c2.5,0.2,5,0.3,7.5,0.4c2.5,0.1,5,0.3,7.6,0.4c2.5,0.1,5,0.3,7.5,0.4
	c1.9,0.1,3.8,0.2,5.7,0.3c0.6,0,1.2,0.1,1.8,0.1c0,0,0,0,0,0c0.4,0,0.7,0,1,0c3.6,0.2,7.2,0.4,10.8,0.5c4,0.2,7.9,0.4,11.8,0.5
	c3.6,0.2,7.2,0.3,10.9,0.5c0.8,0,1.5,0.1,2.2,0.1c3.5,0.1,7,0.3,10.6,0.4c2.4,0.1,4.9,0.2,7.4,0.3c2.2,0.1,4.5,0.2,6.7,0.2
	c6.7,0.2,13.4,0.4,20.1,0.6c4.3,0.1,8.6,0.2,12.9,0.3c3.4,0.1,6.9,0.2,10.3,0.2c1.1,0,2.3,0,3.4,0.1c3.2,0.1,6.4,0.1,9.6,0.2
	c3.9,0.1,7.7,0.1,11.6,0.2c7.2,0.1,14.3,0.2,21.4,0.3c1.1,0,2.3,0,3.4,0c2.7,0,5.4,0,8.1,0.1c1.6,0,3.2,0,4.8,0c0.1,0,0.2,0,0.3,0
	h0.7c0,0,0,0,0.1,0c0,0,0,0,0,0c0,0,0.1,0,0.1,0c0,0,0,0,0,0c0,0,0,0,0,0c2.3,0,4.5,0,6.8,0h1c3.8,0,7.5,0,11.2,0c1.8,0,3.7,0,5.5,0
	c2.2,0,4.3,0,6.5,0c4.5,0,8.9,0,13.4-0.1c2.8,0,5.6,0,8.4-0.1v-0.1c0,0,23.2-0.8,57.7-2.4c0,0,0.1,0,0.1,0c0.6,0,1.2-0.1,1.8-0.1
	c0.3,0,0.5,0,0.8,0c0.4,0,0.9,0,1.3-0.1c0.4,0,0.9,0,1.3-0.1c0.3,0,0.6,0,1,0c0.5,0,1,0,1.5-0.1c0.3,0,0.6,0,0.9,0
	c0.6,0,1.1-0.1,1.7-0.1c0.2,0,0.5,0,0.7,0c0.8,0,1.6-0.1,2.4-0.1h0c14-0.7,29.3-1.6,45.5-2.6c10.7-0.7,21.8-1.4,33-2.2
	c0.6,0,91.5-7.9,166.5-18.8c12.8-2.2,26.2-4.4,40.2-6.5h0c40.6-6.1,86.6-11.7,138.7-14.6c21.1-1.2,43.3-1.9,66.4-2c0,0,0,0,0,0
	c119-0.7,265.3,13.8,444.9,62.3C1919.9,75.2,1920,75.2,1920,75.3z"/>
</svg>
