<?xml version="1.0" encoding="utf-8"?>
<!-- Generator: Adobe Illustrator 23.0.1, SVG Export Plug-In . SVG Version: 6.00 Build 0)  -->
<svg version="1.1" id="Layer_1" xmlns="http://www.w3.org/2000/svg" xmlns:xlink="http://www.w3.org/1999/xlink" x="0px" y="0px"
	 viewBox="0 0 589 629" style="enable-background:new 0 0 589 629;" xml:space="preserve">
<style type="text/css">
	.st0{fill:#858994;}
	.st1{fill:#838892;}
	.st2{fill:#828791;}
	.st3{fill:#B9BCC2;}
	.st4{fill:#B8BBC1;}
	.st5{fill:#F1F6FF;}
</style>
<path class="st0" d="M252.97,11c-3,1.26-6,1.49-9,0C246.97,11,249.97,11,252.97,11z"/>
<path class="st1" d="M558.93,326.96c-1.39-2.67-1.21-5.33,0-8C558.93,321.63,558.93,324.29,558.93,326.96z"/>
<path class="st2" d="M265.97,11c-2.33,1.29-4.67,1.18-7,0C261.3,11,263.63,11,265.97,11z"/>
<path class="st3" d="M272.97,11c-0.67,1-1.33,0.86-2,0C271.63,11,272.3,11,272.97,11z"/>
<path class="st4" d="M558.93,298.96c-0.57-0.67-0.91-1.33,0-2C558.93,297.63,558.93,298.3,558.93,298.96z"/>
<path class="st5" d="M588.03,240.17c-1.97-24.35-6.25-48.15-15.68-70.83c-14.91-35.86-35.35-68.24-62.13-96.39
	c-20.93-22.01-45.09-39.84-72.16-53.7c-18.56-9.5-38.02-15.92-58.84-18c-6.41-0.64-12.88-0.28-19.26-1.25h-29
	c-1.01,0.88-2.23,0.5-3.35,0.49c-20.47-0.08-39.6,5.48-57.38,15.07c-37.16,20.06-59.13,51.71-68.54,92.48
	c-2.47,10.71-4.85,21.41-8.83,31.72c-17.71,45.83-49.56,77.86-94.67,96.74c-12.13,5.08-24.51,9.52-36.05,15.92
	c-17.17,9.54-31.95,21.62-43.03,37.67c0,0-0.04,0.07-0.12,0.19C17.7,292.42,6.18,312.08,2,342.07c-2.18,15.61-2.37,34.02,1.91,54.21
	c0,0.04,0.01,0.07,0.02,0.1c2.63,15.73,8.68,30.52,16.36,44.76c1.52,2.81,3.12,5.56,4.75,8.28c0.77,1.3,1.57,2.61,2.39,3.92
	c0.03,0.05,0.07,0.11,0.1,0.16c15.24,24.13,34.98,44.41,58.08,61.55c31.1,23.08,65.1,40.96,101.37,54.41
	c22.54,8.37,45.77,14.29,69.71,17.2c7.4,0.9,14.88,0.26,22.28,1.27h31.99c7.07-0.94,14.24-0.23,21.28-1.13
	c35.96-4.61,69.62-16.19,101.2-33.87c32.27-18.08,58.7-43.17,82.47-70.99c23.75-27.8,42.17-59.01,54.71-93.5
	c8.28-22.76,14.24-46.09,16.89-70.23c0.88-8.06,0.36-16.2,1.42-24.25v-35.99C587.66,252.09,588.51,246.11,588.03,240.17z"/>
<g>
	<defs>
		<path id="SVGID_1_" d="M580.97,261.79c-0.28-2.66-0.65-5.3-1.16-7.94c-0.12-0.62-0.25-1.24-0.38-1.87
			c-0.04-0.21-0.06-0.33-0.06-0.33l0,0c-9.93-49.16-31.64-92.88-62.07-132.54c-12.09-15.77-25.09-30.82-40.41-43.45
			c-25.52-21.01-54.2-36.89-84.84-49.18c-12.52-5.02-25.23-9.38-38.25-12.65l0,0c-58.2-18.16-123.59-4.42-123.59-4.42
			c-2,0.35-4,0.79-5.97,1.39c-27.26,8.24-53.2,19.38-76.51,36c-23.01,16.4-40.88,37.05-51.3,63.63
			c-6.42,16.38-8.42,33.42-8.05,50.95c0.3,14.33,2.89,28.07,7.56,41.55c7.97,23.04,12.25,46.54,9.71,71.13
			c-3.34,32.23-14.81,61.02-34.99,86.25c-10.4,12.99-21.89,25.14-29.92,39.89c-3,5.51-5.92,11.04-8.21,16.84
			c0,0-0.02,0.06-0.06,0.17c-1.42,3.97-26.07,76.85,49.57,147.76c0.02,0.03,0.05,0.05,0.07,0.07c1.85,1.7,3.73,3.37,5.63,5.02
			c16.3,14.15,34.83,24.99,54.52,33.82c18.54,8.32,37.42,15.2,56.93,19.35l0,0c0,0,0.31,0.07,0.88,0.18
			c7.56,1.58,15.23,2.74,23,3.41c19.52,2.12,49.29,3.63,82.85-0.64c4.17-0.28,8.33-0.69,12.46-1.45c7.69-1.39,15.27-3.1,22.74-5.09
			c0.1-0.02,0.2-0.05,0.3-0.07l-0.01,0c23.58-6.3,46.12-15.51,67.76-27.34c29.62-16.17,55.84-36.81,79.64-60.5
			c10.59-10.54,20.69-21.66,29.79-33.59c15.11-19.81,29.64-39.93,40.42-62.17l0,0C592.49,373.2,584.91,290.28,580.97,261.79z"/>
	</defs>
	<clipPath id="SVGID_2_">
		<use xlink:href="#SVGID_1_"  style="overflow:visible;"/>
	</clipPath>
	<g style="clip-path:url(#SVGID_2_);">
		<image style="overflow:visible;" width="1022" height="681" xlink:href="../199375.jpg"  transform="matrix(1 0 0 1 -218 -30)">
		</image>
	</g>
</g>
</svg>
