<svg id="Layer_1" data-name="Layer 1" xmlns="http://www.w3.org/2000/svg" viewBox="0 0 456 440"><title>statistics</title><path d="M380,32H348a4,4,0,0,1,0-8h32a4,4,0,0,1,0,8Z" transform="translate(0 -8)" style="fill:#263238"/><path d="M364,48a4,4,0,0,1-4-4V12a4,4,0,0,1,8,0V44A4,4,0,0,1,364,48Z" transform="translate(0 -8)" style="fill:#263238"/><path d="M452,72H420a4,4,0,0,1,0-8h32a4,4,0,0,1,0,8Z" transform="translate(0 -8)" style="fill:#263238"/><path d="M436,88a4,4,0,0,1-4-4V52a4,4,0,0,1,8,0V84A4,4,0,0,1,436,88Z" transform="translate(0 -8)" style="fill:#263238"/><path d="M452,428H4a4,4,0,0,1-4-4V16a4,4,0,0,1,8,0V420H452a4,4,0,0,1,0,8Z" transform="translate(0 -8)" style="fill:#263238"/><path d="M68,448a4,4,0,0,1-4-4V424a4,4,0,0,1,8,0v20A4,4,0,0,1,68,448Z" transform="translate(0 -8)" style="fill:#263238"/><path d="M148,448a4,4,0,0,1-4-4V424a4,4,0,0,1,8,0v20A4,4,0,0,1,148,448Z" transform="translate(0 -8)" style="fill:#263238"/><path d="M228,448a4,4,0,0,1-4-4V424a4,4,0,0,1,8,0v20A4,4,0,0,1,228,448Z" transform="translate(0 -8)" style="fill:#263238"/><path d="M308,448a4,4,0,0,1-4-4V424a4,4,0,0,1,8,0v20A4,4,0,0,1,308,448Z" transform="translate(0 -8)" style="fill:#263238"/><path d="M388,448a4,4,0,0,1-4-4V424a4,4,0,0,1,8,0v20A4,4,0,0,1,388,448Z" transform="translate(0 -8)" style="fill:#263238"/><path d="M148.25,360.93H55a12,12,0,1,1,0-24h93.3a468.22,468.22,0,0,0,237.28-64.62l23.34-13.72A12,12,0,1,1,421,279.27L397.7,293A492.37,492.37,0,0,1,148.25,360.93Z" transform="translate(0 -8)" style="fill:#ff5252"/><path d="M148.25,364.93H55a16,16,0,1,1,0-32h93.3A464.2,464.2,0,0,0,383.5,268.86l23.35-13.72a16,16,0,1,1,16.22,27.58l-23.34,13.73A496.36,496.36,0,0,1,148.25,364.93Zm-93.3-24a8,8,0,1,0,0,16h93.3a488.3,488.3,0,0,0,247.42-67.38L419,275.82A8,8,0,0,0,410.9,262l-23.35,13.73a472.31,472.31,0,0,1-239.31,65.17Z" transform="translate(0 -8)" style="fill:#263238"/><path d="M55,360.94a12,12,0,0,1-3.35-23.53L128.4,315a350.28,350.28,0,0,0,181-125.28l48-64a12,12,0,0,1,19.2,14.4l-48,64A374.28,374.28,0,0,1,135.12,338.05l-76.8,22.4A12.05,12.05,0,0,1,55,360.94Z" transform="translate(0 -8)" style="fill:#40c4ff"/><path d="M55,364.94a16,16,0,0,1-4.47-31.37l76.8-22.39A346.17,346.17,0,0,0,306.16,187.34l48-64a16,16,0,0,1,22.4-3.2,16,16,0,0,1,3.2,22.4l-48,64A378.26,378.26,0,0,1,136.24,341.89L59.44,364.3A16.68,16.68,0,0,1,55,364.94Zm312-240a8,8,0,0,0-6.43,3.2l-48,64a354.28,354.28,0,0,1-183,126.72l-76.8,22.4a8,8,0,0,0-5.44,9.92,8.13,8.13,0,0,0,9.91,5.44L134,334.21A370.23,370.23,0,0,0,325.35,201.73l48-64A8,8,0,0,0,367,124.94Z" transform="translate(0 -8)" style="fill:#263238"/><path d="M148,124a4,4,0,0,1-4-4V108a4,4,0,0,1,8,0v12A4,4,0,0,1,148,124Z" transform="translate(0 -8)" style="fill:#263238"/><path d="M148,176a4,4,0,0,1-4-4V160a4,4,0,0,1,8,0v12A4,4,0,0,1,148,176Z" transform="translate(0 -8)" style="fill:#263238"/><path d="M154,164H132a4,4,0,0,1,0-8h22a6,6,0,0,0,0-12H142a14,14,0,0,1,0-28h18a4,4,0,0,1,0,8H142a6,6,0,0,0,0,12h12a14,14,0,0,1,0,28Z" transform="translate(0 -8)" style="fill:#263238"/><path d="M336,368H320a4,4,0,0,1,0-8h16a4,4,0,0,1,0,8Z" transform="translate(0 -8)" style="fill:#263238"/><path d="M452,368H352a4,4,0,0,1,0-8H452a4,4,0,0,1,0,8Z" transform="translate(0 -8)" style="fill:#263238"/><path d="M84,140a64,64,0,0,1,64-64V44a96,96,0,0,0,0,192V204A64,64,0,0,1,84,140Z" transform="translate(0 -8)" style="fill:#ffd740"/><path d="M148,240a100,100,0,0,1,0-200,4,4,0,0,1,4,4V76a4,4,0,0,1-4,4,60,60,0,0,0,0,120,4,4,0,0,1,4,4v32A4,4,0,0,1,148,240ZM144,48.09a92,92,0,0,0,0,183.82v-24a68,68,0,0,1,0-135.76Z" transform="translate(0 -8)" style="fill:#263238"/><path d="M148,240a4,4,0,0,1-4-4V204a4,4,0,0,1,4-4,60,60,0,0,0,0-120,4,4,0,0,1-4-4V44a4,4,0,0,1,4-4,100,100,0,0,1,0,200Zm4-32.12v24a92,92,0,0,0,0-183.82v24a68,68,0,0,1,0,135.76Z" transform="translate(0 -8)" style="fill:#263238"/></svg>