<?xml version="1.0" encoding="iso-8859-1"?>
<!-- Generator: Adobe Illustrator 19.0.0, SVG Export Plug-In . SVG Version: 6.00 Build 0)  -->
<svg version="1.1" id="Capa_1" xmlns="http://www.w3.org/2000/svg" xmlns:xlink="http://www.w3.org/1999/xlink" x="0px" y="0px"
	 viewBox="0 0 511.999 511.999" style="enable-background:new 0 0 511.999 511.999;" xml:space="preserve">
<path style="fill:#FFB125;" d="M441.465,177.58H51.644c-9.624,0-17.425,7.801-17.425,17.425v46.807H458.89v-46.807
	C458.89,185.381,451.089,177.58,441.465,177.58z"/>
<path style="fill:#B6FA4C;" d="M299.941,80.811l-35.302,357.378c-0.887,8.977-8.883,15.536-17.86,14.649L67.908,435.169
	c-8.977-0.887-15.536-8.883-14.649-17.86L88.561,59.931c0.887-8.977,8.883-15.536,17.86-14.649l178.871,17.669
	C294.269,63.838,300.828,71.834,299.941,80.811z"/>
<path style="fill:#A8E83A;" d="M285.292,62.951L106.421,45.282c-8.977-0.887-16.974,5.672-17.86,14.649l-3.167,32.063
	c2.683-1.363,5.767-2.015,8.985-1.697l178.871,17.669c8.977,0.887,15.536,8.883,14.649,17.86l-32.135,325.315
	c4.804-2.441,8.307-7.192,8.876-12.952l35.302-357.377C300.828,71.834,294.269,63.838,285.292,62.951z"/>
<path style="fill:#77DD00;" d="M107.52,110.606L81.766,371.322c-0.369,3.732,1.389,7.369,4.571,9.352
	c8.77,5.467,15.56,13.67,19.292,23.3c1.341,3.461,4.546,5.848,8.239,6.213l92.726,9.16c3.694,0.365,7.303-1.349,9.296-4.481
	c5.544-8.714,13.808-15.429,23.478-19.075c3.509-1.323,5.944-4.546,6.312-8.277l25.754-260.716c0.369-3.732-1.389-7.369-4.571-9.352
	c-8.77-5.467-15.56-13.67-19.292-23.3c-1.341-3.461-4.546-5.848-8.239-6.213l-92.726-9.16c-3.694-0.365-7.303,1.349-9.296,4.481
	c-5.544,8.714-13.808,15.429-23.478,19.075C110.323,103.652,107.888,106.874,107.52,110.606z"/>
<path style="fill:#73CC00;" d="M266.863,117.445c-8.77-5.467-15.56-13.67-19.292-23.3c-1.341-3.461-4.546-5.848-8.239-6.213
	l-92.726-9.16c-3.694-0.365-7.303,1.349-9.296,4.481c-5.544,8.714-13.808,15.429-23.478,19.075
	c-3.509,1.323-5.943,4.546-6.312,8.277l-0.98,9.925l120.147,11.498c3.694,0.365,6.898,2.752,8.239,6.213
	c3.732,9.63,10.522,17.832,19.292,23.3c3.182,1.984,4.939,5.621,4.571,9.352l-22.336,226.118c0.958-0.436,1.927-0.848,2.916-1.221
	c3.509-1.323,5.944-4.546,6.312-8.277l25.754-260.716C271.802,123.066,270.045,119.429,266.863,117.445z"/>
<path style="fill:#B6FA4C;" d="M451.605,134.056l-202.234,296.76c-5.08,7.455-15.241,9.379-22.696,4.299L78.144,333.895
	c-7.455-5.08-9.379-15.241-4.299-22.696l202.234-296.76c5.08-7.455,15.241-9.379,22.696-4.299l148.531,101.22
	C454.76,116.44,456.685,126.601,451.605,134.056z"/>
<path style="fill:#A8E83A;" d="M447.306,111.36L298.774,10.139c-7.455-5.08-17.616-3.155-22.696,4.299L258.78,39.823
	c1.501,0.47,2.96,1.161,4.328,2.092l148.531,101.22c7.455,5.08,9.379,15.241,4.299,22.696L231.003,437.207
	c6.684,2.091,14.22-0.305,18.368-6.392l202.234-296.76C456.685,126.601,454.76,116.44,447.306,111.36z"/>
<path style="fill:#77DD00;" d="M268.437,68.002L120.902,284.496c-2.112,3.099-2.312,7.133-0.47,10.399
	c5.078,9.001,7.107,19.455,5.768,29.695c-0.481,3.68,1.187,7.311,4.254,9.402l76.998,52.472c3.067,2.09,7.057,2.315,10.306,0.521
	c9.041-4.992,19.513-6.926,29.747-5.492c3.714,0.52,7.395-1.142,9.507-4.241l147.535-216.494c2.112-3.099,2.312-7.133,0.47-10.399
	c-5.078-9.001-7.107-19.455-5.768-29.695c0.481-3.68-1.187-7.311-4.254-9.402L317.997,58.79c-3.067-2.09-7.057-2.315-10.306-0.521
	c-9.041,4.992-19.513,6.926-29.747,5.492C274.23,63.241,270.548,64.903,268.437,68.002z"/>
<path style="fill:#73CC00;" d="M405.017,150.359c-5.078-9.001-7.107-19.454-5.768-29.695c0.481-3.68-1.187-7.311-4.254-9.402
	L317.997,58.79c-3.067-2.09-7.057-2.315-10.306-0.521c-9.041,4.992-19.512,6.926-29.747,5.492c-3.714-0.52-7.395,1.142-9.507,4.241
	l-6.149,9.023l96.23,64.866c3.067,2.09,4.736,5.721,4.254,9.402c-1.339,10.241,0.69,20.694,5.768,29.695
	c1.842,3.266,1.642,7.3-0.47,10.399l-129.275,189.7c2.898-0.127,5.814-0.001,8.711,0.405c3.714,0.52,7.395-1.142,9.507-4.24
	l147.535-216.494C406.659,157.659,406.86,153.625,405.017,150.359z"/>
<circle style="fill:#B6FA4C;" cx="285.32" cy="202.57" r="52.839"/>
<path style="fill:#FFB125;" d="M447.502,504.705H40.435c-13.879,0-25.13-11.251-25.13-25.13V230.88
	c0-13.879,11.251-25.13,25.13-25.13h407.067c13.879,0,25.13,11.251,25.13,25.13v248.695
	C472.633,493.453,461.381,504.705,447.502,504.705z"/>
<path style="fill:#FF901D;" d="M447.502,205.749h-45.718c13.879,0,25.13,11.251,25.13,25.131v248.695
	c0,13.879-11.251,25.13-25.13,25.13h45.718c13.879,0,25.13-11.251,25.13-25.13V230.88C472.633,217,461.381,205.749,447.502,205.749z
	"/>
<path style="fill:#FF6D3A;" d="M487.591,307.189h-91.62c-26.53,0-48.037,21.507-48.037,48.037l0,0
	c0,26.53,21.507,48.037,48.037,48.037h91.62c5.029,0,9.105-4.077,9.105-9.105v-77.865
	C496.696,311.266,492.619,307.189,487.591,307.189z"/>
<path style="fill:#ED5729;" d="M487.59,307.189h-45.88c5.029,0,9.105,4.077,9.105,9.105v65.587c0,5.363-4.348,9.71-9.71,9.71
	h-45.134c-24.553,0-44.79-18.425-47.672-42.201c-0.232,1.914-0.365,3.859-0.365,5.836c0,26.53,21.507,48.038,48.038,48.038h45.739
	h45.88c5.029,0,9.105-4.076,9.105-9.105v-11.673v-66.192C496.696,311.266,492.619,307.189,487.59,307.189z"/>
<path style="fill:#FF6D3A;" d="M447.502,205.749H40.435c-13.879,0-25.13,11.251-25.13,25.13v27.539h457.328v-27.539
	C472.633,217,461.381,205.749,447.502,205.749z"/>
<path style="fill:#ED5729;" d="M468.341,216.829c-0.903-1.337-1.932-2.582-3.069-3.719c-0.013-0.013-0.027-0.026-0.041-0.039
	c-1.126-1.121-2.357-2.137-3.679-3.03c-0.334-0.226-0.674-0.444-1.02-0.654c-0.514-0.312-1.044-0.6-1.581-0.876
	c-0.348-0.179-0.701-0.349-1.058-0.512c-3.168-1.441-6.684-2.251-10.392-2.251h-45.716c13.878,0.001,25.128,11.252,25.128,25.131
	v27.539h45.718V230.88c0-4.337-1.099-8.418-3.033-11.979C469.213,218.189,468.792,217.497,468.341,216.829z"/>
<path style="fill:#FF6D3A;" d="M40.435,504.705h407.067c13.879,0,25.13-11.251,25.13-25.13v-27.539H15.304v27.539
	C15.304,493.453,26.556,504.705,40.435,504.705z"/>
<path style="fill:#ED5729;" d="M426.915,452.035v27.539c0,0.014,0,0.029,0,0.043c-0.004,2.32-1.947,4.174-4.267,4.174H40.435
	c-13.879,0-25.13-11.251-25.13-25.13v20.914c0,13.879,11.251,25.13,25.13,25.13h361.35h45.718c0.496,0,0.988-0.018,1.477-0.047
	c0.153-0.009,0.304-0.023,0.456-0.035c0.341-0.026,0.68-0.057,1.017-0.097c0.167-0.019,0.334-0.041,0.501-0.064
	c0.335-0.046,0.667-0.1,0.998-0.159c0.147-0.026,0.294-0.05,0.44-0.079c0.468-0.092,0.932-0.194,1.389-0.311c0,0,0.001,0,0.002,0
	c0.201-0.052,0.398-0.113,0.596-0.169c0.994-0.282,1.966-0.617,2.905-1.014c0.376-0.159,0.747-0.327,1.113-0.503
	s0.727-0.362,1.084-0.555l0.001-0.001c0.711-0.386,1.402-0.806,2.07-1.257l0.001-0.001l0.001-0.001
	c0.569-0.384,1.117-0.796,1.651-1.224c0.025-0.02,0.051-0.04,0.076-0.06c0.541-0.437,1.062-0.898,1.565-1.378l0,0l0,0
	c0.592-0.565,1.156-1.158,1.691-1.778v-0.001c0.836-0.97,1.6-2.002,2.282-3.092c0.019-0.029,0.038-0.058,0.056-0.088
	c0.251-0.405,0.494-0.815,0.722-1.235c0-0.001,0.001-0.002,0.002-0.003v-0.001c0.607-1.119,1.129-2.29,1.564-3.503
	c0.05-0.138,0.094-0.279,0.142-0.418c0.105-0.31,0.205-0.622,0.298-0.938c0.047-0.16,0.093-0.321,0.137-0.482
	c0.086-0.317,0.166-0.637,0.24-0.958c0.034-0.147,0.071-0.293,0.102-0.441c0.098-0.464,0.187-0.93,0.26-1.403
	c0-0.003,0.001-0.005,0.001-0.008c0-0.001,0-0.003,0-0.004c0.084-0.552,0.144-1.112,0.191-1.675
	c0.012-0.143,0.023-0.285,0.033-0.428c0.038-0.569,0.065-1.141,0.065-1.719l0,0v-20.913v-6.626h-45.717V452.035z"/>
<circle style="fill:#F2F2F2;" cx="397.68" cy="355.23" r="22.304"/>
<path d="M487.59,299.894h-7.662v-41.475V230.88c0-10.926-5.438-20.6-13.743-26.478l0,0v-9.397c0-13.631-11.089-24.72-24.72-24.72
	h-5.721l21.889-32.12c7.337-10.766,4.547-25.495-6.219-32.833L302.883,4.111c-5.215-3.555-11.501-4.867-17.705-3.69
	c-6.201,1.175-11.574,4.694-15.128,9.91L141.849,198.454h-35.675l8.607-87.13c0.097-0.982,0.735-1.833,1.625-2.168
	c11.089-4.181,20.699-11.989,27.059-21.985c0.501-0.787,1.446-1.237,2.424-1.138l55.955,5.528c4.012,0.389,7.581-2.533,7.977-6.543
	c0.396-4.01-2.533-7.581-6.543-7.977l-55.955-5.528c-6.495-0.636-12.689,2.357-16.169,7.825c-4.676,7.35-11.742,13.09-19.895,16.164
	c-6.137,2.314-10.351,7.826-10.999,14.387l-8.748,88.564h-9.303L95.821,60.649c0.49-4.96,4.917-8.604,9.883-8.107l113.074,11.17
	c4.01,0.387,7.581-2.533,7.977-6.543c0.396-4.01-2.533-7.581-6.543-7.977l-113.074-11.17C94.174,36.743,82.581,46.248,81.3,59.214
	l-10.972,111.07H51.643c-13.63,0-24.72,11.089-24.72,24.72v6.41c-11.151,5.134-18.915,16.406-18.915,29.465v27.539v193.616v27.539
	c0,17.88,14.546,32.426,32.427,32.426h407.067c17.88,0,32.426-14.546,32.426-32.426v-27.539V410.56h7.662
	c9.044,0,16.401-7.357,16.401-16.4v-77.865C503.992,307.251,496.634,299.894,487.59,299.894z M441.465,184.875
	c5.586,0,10.129,4.544,10.129,10.13v3.717c-1.342-0.17-2.705-0.267-4.092-0.267h-30.955l9.253-13.579h15.665V184.875z
	 M282.107,18.547c1.36-1.995,3.415-3.341,5.787-3.791c0.567-0.107,1.136-0.161,1.701-0.161c1.797,0,3.553,0.538,5.071,1.572
	l148.531,101.22c4.118,2.807,5.186,8.441,2.38,12.559l-46.686,68.506h-11.204l22.889-33.587c3.712-5.447,4.018-12.379,0.796-18.092
	c-4.282-7.59-6.018-16.527-4.888-25.166c0.84-6.427-1.988-12.701-7.38-16.375L322.106,52.76c-5.393-3.675-12.267-4.012-17.941-0.879
	c-7.625,4.21-16.578,5.863-25.208,4.655c-6.4-0.898-12.891,1.992-16.548,7.357l-91.699,134.56h-11.204L282.107,18.547z
	 M285.32,142.438c-31.771,0-57.851,24.773-59.976,56.015h-36.979L274.464,72.11c0.001,0,0.001,0,0.001,0
	c0.489-0.719,1.3-1.147,2.133-1.147c0.111,0,0.222,0.008,0.333,0.023c11.738,1.642,23.913-0.604,34.285-6.331
	c0.816-0.452,1.864-0.387,2.672,0.163l76.999,52.473c0.806,0.55,1.249,1.502,1.129,2.426c-1.537,11.749,0.825,23.903,6.648,34.225
	c0.467,0.829,0.41,1.891-0.144,2.706l-28.488,41.804h-24.733C343.172,167.211,317.093,142.438,285.32,142.438z M330.668,198.454
	h-90.695c2.09-23.189,21.624-41.424,45.347-41.424C309.044,157.029,328.579,175.265,330.668,198.454z M41.514,195.004
	c0-5.586,4.543-10.13,10.129-10.13h17.244l0,0l-1.341,13.579H41.514V195.004z M22.599,230.879c0-9.834,8.001-17.835,17.836-17.835
	h407.067c9.835,0,17.835,8.001,17.835,17.835v20.244H22.599V230.879z M465.337,444.74H108.655c-4.03,0-7.295,3.266-7.295,7.295
	s3.266,7.295,7.295,7.295h356.682v20.244c0,9.834-8,17.835-17.835,17.835H40.435c-9.835,0-17.836-8.001-17.836-17.835V459.33h39.342
	c4.03,0,7.295-3.266,7.295-7.295s-3.266-7.295-7.295-7.295H22.599V265.714h442.738v34.18h-69.366h-0.001
	c-21.856,0-40.788,12.74-49.773,31.181c-0.03,0.062-0.064,0.122-0.095,0.184c-0.076,0.157-0.142,0.32-0.216,0.478
	c-1.07,2.273-2,4.626-2.757,7.054c-0.002,0.007-0.004,0.013-0.006,0.02c-1.615,5.189-2.486,10.702-2.486,16.416l0,0l0,0
	c0,30.511,24.822,55.333,55.332,55.333h0.001h69.366v34.18H465.337z M489.401,394.159c0,0.998-0.812,1.81-1.811,1.81h-14.958
	h-76.661c-15.445,0-28.911-8.639-35.818-21.338c-0.314-0.577-0.614-1.163-0.901-1.756c-0.573-1.187-1.09-2.406-1.547-3.654
	c-1.602-4.366-2.476-9.08-2.476-13.994s0.875-9.628,2.476-13.994c0.458-1.247,0.975-2.466,1.547-3.654
	c0.287-0.593,0.587-1.179,0.901-1.756c6.907-12.699,20.373-21.338,35.818-21.338h76.661h14.958c0.998,0,1.811,0.812,1.811,1.81
	V394.159z"/>
<path d="M397.681,325.627c-16.322,0-29.6,13.279-29.6,29.6s13.278,29.599,29.6,29.599s29.6-13.278,29.6-29.599
	S414.003,325.627,397.681,325.627z M397.681,370.235c-8.276,0-15.009-6.733-15.009-15.008s6.733-15.009,15.009-15.009
	s15.009,6.733,15.009,15.009S405.957,370.235,397.681,370.235z"/>
<g>
</g>
<g>
</g>
<g>
</g>
<g>
</g>
<g>
</g>
<g>
</g>
<g>
</g>
<g>
</g>
<g>
</g>
<g>
</g>
<g>
</g>
<g>
</g>
<g>
</g>
<g>
</g>
<g>
</g>
</svg>
