<svg xmlns="http://www.w3.org/2000/svg" width="93.151" height="128.805" viewBox="0 0 93.151 128.805">
    <defs>
        <style>
            .cls-1{fill:url(#linear-gradient)}.cls-2{fill:url(#linear-gradient-2)}.cls-3{fill:#341670}
        </style>
        <linearGradient id="linear-gradient" x1="1" x2="0" y1="2.278" y2="2.278" gradientUnits="objectBoundingBox">
            <stop offset="0" stop-color="#591fb2"/>
            <stop offset="1" stop-color="#591fe1"/>
        </linearGradient>
        <linearGradient id="linear-gradient-2" x1="1" x2="0" y1="2.273" y2="2.273" gradientUnits="objectBoundingBox">
            <stop offset="0" stop-color="#84fed2"/>
            <stop offset="1" stop-color="#0aff99"/>
        </linearGradient>
    </defs>
    <g id="Group_5409" data-name="Group 5409" transform="translate(-66 -24.102)">
        <g id="Group_5417" data-name="Group 5417" transform="translate(73.173 24.102)">
            <path id="Path_1060" d="M838.538 128.809a6.93 6.93 0 0 1-6.266-4.348 6.348 6.348 0 0 1 1.528-7.161l22.458-22.458a5.581 5.581 0 0 0 .839-6.866 5.782 5.782 0 0 0-.839-1.079l-.03-.03a5.646 5.646 0 0 0-7.975 0l-2.009 2.009-3.838 3.838a6.732 6.732 0 0 1-9.475 0 6.714 6.714 0 0 1 0-9.475l5.847-5.817a16.017 16.017 0 0 0 2.009-20.239 1.637 1.637 0 0 1 .21-2.1 1.665 1.665 0 0 1 2.339 0L865.7 77.447a18.138 18.138 0 0 1 1.26 1.379 19.06 19.06 0 0 1-1.29 25.516l-22.244 22.248c-.21.21-.42.39-.6.57a6.736 6.736 0 0 1-4.288 1.649z" class="cls-1" data-name="Path 1060" transform="translate(-792.693 -54.6)"/>
            <path id="Path_1061" d="M732.474 141.989a1.655 1.655 0 0 1-1.169-.48l-22.428-22.428a18.007 18.007 0 0 1-1.259-1.379 19.012 19.012 0 0 1 1.259-25.516l22.307-22.308c.18-.18.39-.39.6-.57A6.622 6.622 0 0 1 736.1 67.6a6.912 6.912 0 0 1 6.267 4.378 6.4 6.4 0 0 1-1.529 7.2l-22.488 22.488a5.671 5.671 0 0 0-.869 6.9 5.791 5.791 0 0 0 .839 1.079l.03.03a5.578 5.578 0 0 0 3.988 1.649 5.651 5.651 0 0 0 3.988-1.649l1.049-1.049 3.838-3.838.12-.09.09-.09.09-.09c.03-.03.06-.03.06-.06a6.73 6.73 0 0 1 9.115.33 6.727 6.727 0 0 1 .39 9.055 2.683 2.683 0 0 1-.27.3l-4.977 4.977a15.991 15.991 0 0 0-4.707 11.364 15.772 15.772 0 0 0 2.728 8.935 1.638 1.638 0 0 1-.21 2.1 1.655 1.655 0 0 1-1.168.47z" class="cls-2" data-name="Path 1061" transform="translate(-703.3 -63.702)"/>
        </g>
        <g id="Group_5418" data-name="Group 5418" transform="translate(66 126.037)">
            <path id="Path_1062" d="M311.711 171.121a2.711 2.711 0 1 1 2.711-2.711 2.71 2.71 0 0 1-2.711 2.711z" class="cls-3" data-name="Path 1062" transform="translate(-266.293 -158.482)"/>
            <path id="Path_1063" d="M40.584 139.5a2.584 2.584 0 1 1 0-5.169h7.107a4.374 4.374 0 0 0 3.12-1.292 4.311 4.311 0 0 0 1.292-3.1v-.473a4.412 4.412 0 0 0-4.413-4.4h-7.106a2.584 2.584 0 0 1 0-5.169h8.526a8.161 8.161 0 0 1 8.147 8.163v1.891a4.4 4.4 0 0 0 7.517 3.1 4.311 4.311 0 0 0 1.292-3.1v-7.47a2.584 2.584 0 1 1 5.169 0v8.888a8.158 8.158 0 0 1-8.147 8.147h-2.836a8.116 8.116 0 0 1-5.468-2.112.152.152 0 0 0-.221 0 8.133 8.133 0 0 1-5.468 2.112h-.915l-7.6-.016z" class="cls-3" data-name="Path 1063" transform="translate(-38 -119.9)"/>
            <path id="Path_1064" d="M268.384 147.511a1.442 1.442 0 0 1-.252-.016 2.649 2.649 0 0 1-2.332-2.648v-15.884a8.158 8.158 0 0 1 8.147-8.147h2.837a8.158 8.158 0 0 1 8.147 8.147v1.891a4.412 4.412 0 0 0 4.413 4.4c.189 0 .378-.016.567-.032a4.42 4.42 0 0 0 3.814-3.94v-2.506a8.012 8.012 0 0 1 7.864-7.974h13.49a7.983 7.983 0 0 1 7.974 7.974v3.814a8.019 8.019 0 0 1-7.974 7.848h-13.4a7.869 7.869 0 0 1-5.326-2.064.143.143 0 0 0-.11-.047.292.292 0 0 0-.11.032l-.11.095a8.16 8.16 0 0 1-5.279 1.954h-2.834a8.158 8.158 0 0 1-8.147-8.147v-1.765a4.522 4.522 0 0 0-4.412-4.523h-.11a4.415 4.415 0 0 0-3.01 1.292 4.365 4.365 0 0 0-1.292 3.1v14.545a2.553 2.553 0 0 1-2.555 2.601zm45.2-21.653a2.653 2.653 0 0 0-2.647 2.648v4.208a2.653 2.653 0 0 0 2.647 2.648h1.749a2.653 2.653 0 0 0 2.647-2.648c0-.079.016-.173.016-.252l-.016-3.94a2.653 2.653 0 0 0-2.647-2.648l-1.749-.016zm-14.8 6.808v.047a2.653 2.653 0 0 0 2.648 2.648h1.768a2.653 2.653 0 0 0 2.647-2.648v-4.208a2.653 2.653 0 0 0-2.647-2.648h-1.765a2.653 2.653 0 0 0-2.648 2.648v4.16z" class="cls-3" data-name="Path 1064" transform="translate(-229.901 -120.658)"/>
            <path id="Path_1065" d="M312.01 216.421a2.711 2.711 0 1 1 2.711-2.711 2.71 2.71 0 0 1-2.711 2.711z" class="cls-3" data-name="Path 1065" transform="translate(-266.546 -196.644)"/>
            <path id="Path_1066" d="M172.911 261.421a2.711 2.711 0 1 1 2.711-2.711 2.71 2.71 0 0 1-2.711 2.711z" class="cls-3" data-name="Path 1066" transform="translate(-149.367 -234.552)"/>
        </g>
    </g>
</svg>
