<svg xmlns="http://www.w3.org/2000/svg" xmlns:xlink="http://www.w3.org/1999/xlink" width="24px" height="24px" viewBox="0 0 24 24" version="1.1">
    <g stroke="none" stroke-width="1" fill="none" fill-rule="evenodd">
        <rect x="0" y="0" width="24" height="24"></rect>
        <path d="M13.6,13.7l-3.9,1.4c-0.4,0.1-0.6,0.5-0.6,0.9v4.4c0,0.1-0.1,0.3-0.3,0.3H7.9c-0.3,0-0.4,0.4-0.1,0.5l3.3,1.9
			c0.6,0.3,1.3,0.3,1.9,0l3.3-1.9c0.2-0.1,0.1-0.5-0.1-0.5h-0.9c-0.1,0-0.3-0.1-0.3-0.3v-5.8C14.9,14,14.2,13.5,13.6,13.7z" fill="#000000"></path>
        <path d="M10.4,10.3l3.9-1.4c0.4-0.1,0.6-0.5,0.6-0.9V3.5c0-0.1,0.1-0.3,0.3-0.3h0.9c0.3,0,0.4-0.4,0.1-0.5l-3.3-1.9
			c-0.6-0.3-1.3-0.3-1.9,0L7.8,2.8C7.5,2.9,7.6,3.3,7.9,3.3h0.9c0.1,0,0.3,0.1,0.3,0.3v5.8C9.1,10,9.8,10.5,10.4,10.3z" fill="#000000" fill-rule="nonzero" opacity="0.3"></path>
        <path d="M2.8,5.6c-0.6,0.3-1,1-1,1.6v9.4c0,0.7,0.4,1.3,1,1.6l1.6,0.9c0.2,0.1,0.4,0,0.4-0.2V5c0-0.2-0.2-0.3-0.4-0.2
			L2.8,5.6z" fill="#000000" fill-rule="nonzero" opacity="0.3"></path>
        <path d="M21.2,5.6l-1.6-0.9c-0.2-0.1-0.4,0-0.4,0.2v14c0,0.2,0.2,0.3,0.4,0.2l1.6-0.9c0.6-0.3,1-1,1-1.6V7.3
			C22.2,6.6,21.8,6,21.2,5.6z" fill="#000000"></path>
    </g>
</svg>
