<?xml version="1.0" standalone="no"?>
<!DOCTYPE svg PUBLIC "-//W3C//DTD SVG 1.1//EN" "http://www.w3.org/Graphics/SVG/1.1/DTD/svg11.dtd" >
<svg xmlns="http://www.w3.org/2000/svg">
<metadata>Generated by IcoMoon</metadata>
<defs>
<font id="icomoon" horiz-adv-x="1024">
<font-face units-per-em="1024" ascent="870.4" descent="-153.6" />
<missing-glyph horiz-adv-x="1024" />
<glyph unicode="&#x20;" d="" />
<glyph unicode="&#x23;" glyph-name="numbersign" horiz-adv-x="1064" d="M15.36 353.024h513.024v-513.024h-513.024v513.024zM536.576 350.976v513.024h512v-513.024h-512z" />
<glyph unicode="&#x24;" glyph-name="dollar" horiz-adv-x="1028" d="M214.016 864h448.512q109.568 0 185.344-75.776 82.944-80.896 53.248-234.496-28.672-138.24-131.072-219.136-101.376-79.872-239.616-79.872h-187.392l-64.512-303.104h-263.168zM117.76-160l11.264 50.176h221.184l64.512 302.080h187.392q138.24 0 239.616 79.872 102.4 80.896 131.072 219.136 21.504 98.304-12.288 174.080 72.704-87.040 44.032-224.256-30.72-139.264-132.096-219.136t-238.592-79.872h-188.416l-64.512-302.080h-263.168zM654.336 613.12q-8.192 28.672-31.744 47.104t-57.344 18.432h-128l-56.32-249.856h84.992l43.008 187.392h128q2.048 0 17.408-3.072zM508.928 429.824q51.2 2.048 93.184 39.424t52.224 84.48q0 1.024 1.024 6.144t1.024 6.144h-116.736z" />
<glyph unicode="&#x2b;" glyph-name="plus" horiz-adv-x="1243" d="M339.968-160q-77.824 0-148.992 17.92t-123.392 61.952-52.224 106.496q0 89.088 91.136 158.72t220.16 69.632h55.296q-43.008 41.984-43.008 88.064 0 30.72 16.384 59.392-7.168-1.024-29.696-1.024-105.472 0-174.080 66.56-67.584 66.56-67.584 163.84 0 94.208 83.968 162.816 84.992 69.632 191.488 69.632h317.44l-70.656-51.2h-100.352q46.080-17.408 74.24-68.096t28.16-115.2q0-95.232-90.112-165.888-36.864-28.672-49.152-47.104-11.264-17.408-11.264-43.008 0-19.456 27.648-49.152 30.72-32.768 55.296-50.176 61.44-43.008 86.016-90.112 24.576-46.080 24.576-115.712 0-93.184-83.968-160.768t-227.328-67.584zM190.464-59.648q61.44-50.176 148.48-50.176 120.832 0 177.152 45.056 54.272 44.032 54.272 119.808 0 48.128-37.888 90.112-4.096 4.096-40.96 31.744-35.84 25.6-52.224 35.84-39.936 12.288-78.848 12.288-92.16 1.024-161.792-48.128-68.608-49.152-68.608-116.736 0-70.656 60.416-119.808zM197.632 632.576q10.24-73.728 58.88-135.68t115.2-62.976q64.512-2.048 97.792 55.808t24.064 133.632q-9.216 73.728-57.856 133.632t-115.2 61.952q-64.512 2.048-98.304-54.272t-24.576-132.096zM765.952 608v51.2h204.8v204.8h51.2v-204.8h205.824v-51.2h-205.824v-205.824h-51.2v205.824h-204.8z" />
<glyph unicode="&#x2f;" glyph-name="slash" horiz-adv-x="1371" d="M686.080 633.6q-29.696 0-50.688-20.992t-20.992-49.664v-427.008q0-123.904-88.064-209.92t-210.944-86.016q-123.904 0-211.968 88.064t-88.064 211.968v185.344h229.376v-183.296q0-29.696 20.992-50.176t49.664-20.48q29.696 0 50.688 20.992t20.992 49.664v433.152q0 120.832 88.064 204.8t210.944 83.968q120.832 0 210.944-84.992 88.064-83.968 88.064-205.824v-94.208l-137.216-40.96-91.136 43.008v81.92q0 28.672-20.992 49.664t-49.664 20.992zM756.736 136.96v187.392l91.136-43.008 137.216 40.96v-188.416q0-29.696 20.992-50.688t49.664-20.992 49.664 20.992 20.992 50.688v191.488h229.376v-185.344q0-123.904-88.064-211.968t-210.944-88.064q-124.928 0-211.968 87.040-88.064 88.064-88.064 209.92z" />
<glyph unicode="&#x30;" glyph-name="zero" horiz-adv-x="1323" d="M635.904 47.872q-68.608 0-116.224 35.328t-73.216 92.672q-63.488-131.072-207.872-131.072-97.28 0-160.768 49.152-62.464 49.152-62.464 141.312h121.856q5.12-40.96 29.696-65.536t66.56-24.576q48.128 0 77.824 33.28t29.696 83.456q0 49.152-28.672 80.896t-76.8 31.744q-38.912 0-66.56-24.576-28.672-25.6-52.224-25.6-45.056 0-81.92 2.048 5.12 28.672 29.184 164.352t29.184 168.448h337.92v-100.352h-248.832q-13.312-68.608-24.576-137.216h3.072q15.36 19.456 49.664 31.744t69.12 12.288q116.736 0 163.84-105.472 22.528 58.368 71.168 94.72t116.224 36.352q45.056 0 89.6-18.432t71.168-44.032q24.576-23.552 64.512-67.584 2.048-3.072 6.144-7.168l7.168-7.168q8.192 10.24 22.528 26.112t18.432 20.48 13.824 14.336 18.944 17.408 24.576 19.968q55.296 45.056 135.168 45.056 91.136 0 147.968-61.952t56.832-155.136q0-96.256-56.32-159.744-57.344-64.512-150.528-64.512-118.784 0-231.424 134.144-72.704-72.704-82.944-79.872-4.096-3.072-17.408-11.776t-21.504-13.824q-45.056-29.696-111.616-29.696zM542.72 265.984q0-43.008 26.112-69.632t69.12-26.624q76.8 0 158.72 97.28-13.312 13.312-29.696 30.208t-19.456 19.968q-9.216 9.216-49.152 32.768-34.816 20.48-64.512 20.48-38.912 0-65.024-31.744t-26.112-72.704zM941.056 265.984q30.72-32.768 48.128-47.616t49.152-32.256q29.696-16.384 62.464-16.384 43.008 0 68.608 28.16t25.6 72.192-26.112 72.192-69.12 28.16q-44.032 0-88.064-33.792z" />
<glyph unicode="&#x31;" glyph-name="one" horiz-adv-x="823" d="M15.36 496.384q0 132.096 105.472 245.76 51.2 55.296 134.144 88.576t181.248 33.28q161.792 0 267.264-100.352 104.448-100.352 104.448-236.544 0-176.128-89.088-289.792t-228.352-113.664q-45.056 0-86.016 21.504t-57.344 52.224l-40.96-161.792q-20.48-77.824-87.040-166.912-3.072-5.12-9.728-12.8t-9.728-12.8q-3.072-4.096-8.192-3.072t-6.144 6.144q0 5.12-2.56 21.504t-2.56 21.504q-10.24 100.352 7.168 181.248 5.12 24.576 75.776 320.512-18.432 36.864-18.432 76.8l-1.024 15.36q0 60.416 31.744 106.496t81.92 46.080q36.864 0 58.368-24.576t21.504-63.488q0-24.576-9.216-58.368-4.096-13.312-20.992-71.168t-22.016-79.36q-10.24-46.080 18.432-79.872t74.752-33.792q59.392 0 103.424 50.176t63.488 119.808 19.456 143.36q0 98.304-64.512 161.792-65.536 63.488-180.224 63.488-129.024 0-208.896-82.944-80.896-83.968-80.896-198.656 0-67.584 38.912-115.712 6.144-7.168 7.68-14.336t1.536-11.264-3.072-14.848-4.096-15.872q-5.12-20.48-6.144-23.552-4.096-24.576-28.672-14.336-58.368 23.552-89.6 82.432t-31.232 141.824z" />
<glyph unicode="&#x3a;" glyph-name="colon" horiz-adv-x="885" d="M15.36-160l427.008 1024 427.008-1024h-377.856v138.24l174.080 87.040-13.312 56.32-160.768-80.896v68.608l100.352 53.248-14.336 58.368-86.016-46.080v89.088h-94.208v-160.768l-88.064 60.416-16.384-65.536 104.448-71.68v-186.368h-381.952z" />
<glyph unicode="&#x3b;" glyph-name="semicolon" horiz-adv-x="1180" d="M15.36 530.176q0 13.312 13.312 13.312h180.224v132.096q0 14.336 13.312 14.336h100.352v-526.336q0-14.336-12.288-14.336h-294.912v380.928zM195.584 234.24q13.312 0 13.312 14.336v210.944h-68.608q-13.312 0-13.312-14.336v-210.944h68.608zM357.376 530.176q0 13.312 13.312 13.312h100.352v-379.904q0-14.336-12.288-14.336h-101.376v380.928zM357.376 675.584q0 14.336 12.288 14.336h101.376v-70.656q0-14.336-12.288-14.336h-101.376v70.656zM509.952 530.176q0 13.312 13.312 13.312h294.912v-516.096q0-13.312-13.312-13.312h-294.912l1.024 70.656q0 14.336 12.288 14.336h180.224v50.176h-193.536v380.928zM691.2 234.24q12.288 0 12.288 14.336v210.944h-68.608q-12.288 0-12.288-14.336v-210.944h68.608zM870.4 99.072h180.224v50.176h-193.536v380.928q0 13.312 13.312 13.312h293.888v-516.096q0-13.312-12.288-13.312h-294.912v70.656q0 14.336 13.312 14.336zM968.704 234.24h68.608q13.312 0 13.312 14.336v210.944h-68.608q-13.312 0-13.312-14.336v-210.944z" />
<glyph unicode="&#x3d;" glyph-name="equal" d="M196.608-38.144q-80.896 69.632-131.072 168.96t-50.176 221.184q0 147.456 71.68 262.656t183.296 180.736q117.76 68.608 257.024 68.608 147.456 0 262.656-71.68t180.736-183.296q68.608-117.76 68.608-257.024 0-211.968-148.48-360.448-58.368 70.656-144.384 114.688t-191.488 44.032q-115.712 0-208.384-52.736t-150.016-135.68zM183.296 499.456q0-17.408 12.8-30.208t30.208-12.8q7.168 0 9.216 1.024 146.432 59.392 305.152 59.392t305.152-59.392q1.024 0 4.608-0.512t4.608-0.512q17.408 0 30.208 13.312t12.8 29.696q0 25.6-23.552 37.888-162.816 64.512-333.824 64.512-175.104 0-336.896-65.536-20.48-14.336-20.48-36.864zM236.544 330.496q7.168-13.312 23.552-13.312 1.024 0 9.216 2.048 129.024 56.32 271.36 56.32 141.312 0 273.408-57.344 6.144-2.048 7.168-2.048 16.384 0 23.552 13.312l5.12 17.408q0 14.336-10.24 21.504-142.336 63.488-299.008 63.488-155.648 0-300.032-63.488-10.24-10.24-10.24-21.504zM311.296 183.040q110.592 52.224 229.376 52.224 114.688 0 224.256-49.152 24.576-14.336 35.84 12.288 9.216 25.6-14.336 38.912-110.592 54.272-245.76 54.272-133.12 0-249.856-56.32-18.432-10.24-11.264-35.84 10.24-25.6 31.744-16.384zM342.016-125.184q81.92 106.496 212.992 106.496 115.712 0 197.632-88.064-105.472-53.248-225.28-53.248-97.28 0-185.344 34.816z" />
<glyph unicode="&#x3e;" glyph-name="greater" horiz-adv-x="1265" d="M1249.28 352q0-50.176-28.16-89.6t-70.144-59.904q0-199.68-266.24-310.272-47.104-21.504-69.632-27.648t-80.896-15.36q-60.416-9.216-95.232-9.216-120.832 0-236.544 35.84-3.072 3.072-73.728 38.912-99.328 53.248-156.672 118.784-58.368 66.56-58.368 159.744h-5.12q-33.792 17.408-60.416 51.2l-9.216 12.288q-15.36 27.648-19.456 44.544t-4.096 53.76q0 64.512 50.176 108.544 51.2 45.056 115.712 45.056 62.464 0 107.52-36.864h5.12q136.192 83.968 343.040 83.968l5.12 4.096 71.68 273.408 247.808-36.864q0-1.024 2.048-1.024 1.024 0 0 1.024 2.048 1.024 14.336 18.432l12.288 16.384q35.84 32.768 83.968 32.768 50.176 0 84.48-33.28t34.304-83.456-34.816-86.016-83.968-35.84q-56.32 0-88.064 38.912t-31.744 99.328q-2.048-1.024-99.84 13.312t-112.128 17.408h-3.072l-16.384-55.296q-4.096-15.36-23.552-86.016t-25.6-90.112v-3.072l5.12-4.096q78.848 0 156.672-23.040t131.072-58.88q1.024 1.024 2.048 1.024t2.048 1.024q4.096 3.072 16.384 11.776t15.872 11.264 14.336 8.704 18.432 7.68 19.456 3.584 26.112 2.048q69.632 0 118.784-49.664t49.152-119.296zM177.152 476.928q-49.152 0-88.064-41.984t-38.912-92.16q0-66.56 58.368-114.688 5.12 60.416 49.152 118.784 47.104 61.44 103.424 103.424-38.912 26.624-83.968 26.624zM154.624 193.28q0-109.568 113.664-193.536 101.376-74.752 211.968-96.256 79.872-14.336 149.504-14.336 136.192 0 246.784 44.032t181.248 121.856h-3.072q28.672 35.84 44.032 69.632 13.312 29.696 13.312 74.752 0 111.616-98.304 191.488-153.6 124.928-381.952 124.928-160.768 0-308.224-73.728-72.704-35.84-120.832-99.84t-48.128-148.992zM345.088 268.032q0 37.888 23.040 60.928t60.928 23.040 63.488-23.552 25.6-60.416-26.112-61.44-62.976-24.576-60.416 24.576-23.552 61.44zM622.592 5.888q63.488 0 115.712 26.112t82.944 68.096h41.984q-25.6-63.488-95.232-98.304-68.608-34.816-145.408-34.816-75.776 0-145.408 34.816-70.656 34.816-95.232 98.304h45.056q25.6-45.056 80.896-69.632t114.688-24.576zM726.016 268.032q0 38.912 23.552 61.44t62.464 22.528q34.816 0 59.392-24.576t24.576-59.392-24.576-60.416-59.392-25.6q-37.888 0-61.952 24.064t-24.064 61.952zM987.136 747.264q0-34.816 25.6-60.928t61.44-26.112q36.864 0 60.416 25.088t23.552 61.952q0 34.816-24.576 59.392t-59.392 24.576q-33.792 0-60.416-25.088t-26.624-58.88zM1001.472 459.52q54.272-35.84 96.256-93.184t58.368-123.904q60.416 45.056 60.416 98.304 0 59.392-36.864 102.4t-94.208 43.008q-45.056 0-83.968-26.624z" />
<glyph unicode="&#x40;" glyph-name="at" horiz-adv-x="813" d="M211.968 40.704q0 2.048 0.512 10.752t0.512 10.752q-136.192 70.656-184.32 220.16-13.312 40.96-13.312 57.344v105.472q0 89.088 88.064 204.8 89.088 116.736 175.104 163.84 80.896 45.056 191.488 45.056 97.28 0 178.176-41.984 40.96-21.504 67.584-58.88t26.624-87.552q0-51.2-32.768-93.184-6.144-7.168-13.312-17.408t-18.432-21.504q-21.504-21.504-36.864-34.816-10.24-9.216-17.408-16.384h172.032q2.048-98.304 2.048-110.592 0-258.048-43.008-333.824-34.816-60.416-95.744-109.568t-131.584-72.704q-39.936-15.36-57.344-15.36h-86.016q-2.048 0-49.152 17.408-122.88 53.248-122.88 178.176zM164.864 472.832q0-86.016 38.912-163.84 18.432-37.888 52.736-62.976t79.36-25.088q13.312 0 40.96 15.36t50.176 15.36q14.336 0 52.224-10.752t37.888-19.968q0-21.504-26.624-21.504-133.12 0-133.12-77.824 0-58.368 41.984-89.088t106.496-30.72q52.224 0 97.792 18.432t71.168 49.152q43.008 51.2 43.008 167.936 0 10.24-1.024 56.32t-1.024 56.32q0 46.080 5.12 81.92h-197.632q-1.024-5.12-1.024-23.552 0-7.168 1.024-35.84t1.024-34.816q0-34.816-8.192-57.344-3.072-1.024-17.408-1.024-47.104 0-80.384 32.256t-46.592 77.312q-12.288 43.008-12.288 91.136 0 110.592 56.32 179.2 32.768 38.912 78.848 38.912 11.264 0 21.504-3.072-4.096-20.48-4.096-34.816 0-36.864 19.456-59.904t54.272-23.040 58.368 23.552 23.552 59.392q0 40.96-31.232 71.168t-72.192 41.472q-41.984 11.264-80.896 11.264-138.24 0-228.352-87.040t-90.112-224.256z" />
<glyph unicode="&#x41;" glyph-name="A" horiz-adv-x="911" d="M750.592 329.472q-2.048-78.848 38.912-135.68t106.496-81.408q-70.656-151.552-153.6-230.4-41.984-39.936-93.184-41.984-31.744 0-77.824 22.528-47.104 20.48-93.184 20.48h-4.096q-48.128 0-97.28-21.504t-79.872-21.504q-86.016 2.048-176.128 140.288-59.392 91.136-84.992 188.416-20.48 79.872-20.48 147.456 0 24.576 1.024 36.864 13.312 159.744 143.36 236.544 60.416 34.816 116.736 34.816 39.936 0 104.448-22.528 61.44-21.504 92.16-21.504 29.696 0 88.064 21.504 61.44 22.528 107.52 22.528 114.688 0 196.608-104.448-46.080-25.6-78.336-68.608t-36.352-97.28v-24.576zM441.344 617.216q-3.072 15.36-3.072 30.72 0 65.536 54.272 132.096 25.6 31.744 68.608 55.808t87.040 28.16q2.048-20.48 2.048-30.72 0-69.632-51.2-135.168-26.624-33.792-68.096-57.856t-85.504-23.040h-4.096z" />
<glyph unicode="&#x42;" glyph-name="B" horiz-adv-x="1051" d="M15.36 540.416q0 133.12 95.232 228.352t228.352 95.232h226.304q65.536-8.192 141.312-58.368 75.776-51.2 107.52-117.76 22.528-46.080 29.696-110.592 9.216-70.656 26.624-87.040 13.312-13.312 72.704-15.36t66.56-7.168l14.336-11.264 8.192-17.408 3.072-14.336-2.048-262.144q-1.024-133.12-95.232-228.352-93.184-94.208-227.328-94.208h-371.712q-134.144 0-228.352 94.208-95.232 95.232-95.232 228.352v377.856zM280.576 167.68q0-25.6 18.432-43.52t44.032-17.92h364.544q25.6 0 43.52 17.92t17.92 43.52-17.92 43.52-43.52 17.92h-364.544q-25.6 0-44.032-17.92t-18.432-43.52zM280.576 538.368q0-25.6 18.432-44.032t44.032-18.432h179.2q25.6 0 43.52 18.432t17.92 44.032-17.92 43.52-43.52 17.92h-179.2q-25.6 0-44.032-17.92t-18.432-43.52z" />
<glyph unicode="&#x44;" glyph-name="D" d="M15.36 352q0 147.456 71.68 262.656t183.296 180.736q117.76 68.608 257.024 68.608 147.456 0 262.656-71.68t180.736-183.296q68.608-117.76 68.608-257.024 0-147.456-71.68-262.656t-183.296-180.736q-117.76-68.608-257.024-68.608-147.456 0-262.656 71.68t-180.736 183.296q-68.608 117.76-68.608 257.024zM101.376 372.48q0-2.048-0.512-10.24t-0.512-10.24q0-159.744 107.52-281.6 48.128 94.208 155.648 183.296 104.448 86.016 207.872 109.568-9.216 22.528-29.696 64.512-175.104-56.32-380.928-56.32-46.080 0-59.392 1.024zM180.224 455.424q171.008 0 324.608 46.080-79.872 140.288-171.008 230.4-78.848-39.936-137.216-112.128t-82.944-162.304q30.72-2.048 66.56-2.048zM527.36-75.008q76.8 0 150.528 28.672-19.456 174.080-79.872 338.944-95.232-20.48-190.464-103.424t-141.312-174.080q114.688-90.112 261.12-90.112zM589.824 532.224q139.264 58.368 209.92 148.48-117.76 98.304-272.384 98.304-50.176 0-104.448-14.336 91.136-94.208 166.912-232.448zM661.504 376.576q70.656 7.168 164.864 7.168 62.464 0 125.952-3.072-7.168 138.24-100.352 247.808-65.536-99.328-225.28-168.96 12.288-25.6 34.816-82.944zM687.104 304.896q52.224-152.576 70.656-311.296 76.8 50.176 129.536 131.072t64 180.224q-83.968 5.12-136.192 5.12-48.128 0-128-5.12z" />
<glyph unicode="&#x45;" glyph-name="E" horiz-adv-x="888" d="M15.36 547.584q0 90.112 90.112 90.112h96.256q15.36 0 26.624 11.264t11.264 26.624q0 29.696-1.024 45.056v60.416q0 58.368 63.488 76.8 11.264 6.144 54.272 6.144h19.456q66.56-3.072 102.912-18.944t43.52-61.952q17.408 1.024 49.152 1.024 56.32 0 126.464-9.728t96.768-19.968q44.032-14.336 54.272-68.608 6.144-35.84 14.848-168.448t8.704-197.12q0-45.056-3.072-72.704-17.408-177.152-44.032-260.096-24.576-75.776-57.344-113.664-23.552-27.648-79.872-31.744-26.624-2.048-60.416-2.048-109.568 0-148.48 26.624t-38.912 108.544q0 92.16 43.008 111.616 31.744 14.336 89.088 14.336h28.672q3.072 0 4.608-1.536t1.536-5.12-1.024-6.656-2.56-6.656-1.536-5.632q-2.048-10.24-2.048-13.312 0-2.048 2.048-15.36t1.024-16.384q-1.024-2.048-7.168-2.048h-20.48q-20.48 0-20.48-2.048 0-1.024-4.096-1.536t-8.192-1.536-4.096-3.072-6.144-7.168-4.096-9.216q2.048-6.144-1.024-11.264 0-21.504 11.264-37.888 6.144-9.216 40.96-9.216h33.792q58.368 0 74.752 13.312t16.384 65.536q0 76.8-18.432 104.448t-58.368 32.768q-87.040 9.216-121.856 20.48-54.272 20.48-54.272 121.856 0 2.048-3.072 2.048-2.048 0-2.048-2.048 0-68.608-18.432-122.88l-8.192-24.576q-10.24-24.576-37.888-26.624h-6.144q-22.528 0-55.296 8.192-134.144 17.408-202.752 48.128-23.552 10.24-37.888 40.96-19.456 39.936-36.864 131.072-19.456 100.352-23.552 137.216-4.096 29.696-4.096 52.224zM91.136 685.824q-34.816 0-69.632-16.384v2.048l187.392 184.32q0 1.024 1.024 1.024-14.336-28.672-14.336-55.296 0-50.176 1.024-105.472 0-10.24-10.24-10.24h-95.232zM603.136 372.48q21.504 3.072 47.104 3.072 46.080-1.024 82.944-18.432 0 88.064-62.464 89.088h-3.072q-55.296 0-64.512-73.728z" />
<glyph unicode="&#x46;" glyph-name="F" horiz-adv-x="1108" d="M90.112 533.248q74.752 74.752 181.248 74.752t181.248-74.752 74.752-181.248-74.752-181.248-181.248-74.752-181.248 74.752-74.752 181.248 74.752 181.248zM580.608 352q0 106.496 74.752 181.248t181.248 74.752 181.248-74.752 74.752-181.248-74.752-181.248-181.248-74.752-181.248 74.752-74.752 181.248z" />
<glyph unicode="&#x4c;" glyph-name="L" horiz-adv-x="1092" d="M15.36 741.12q0 52.224 36.864 84.992t92.16 32.768 91.136-33.28 35.84-87.552q0-51.2-36.864-83.456t-92.16-32.256h-1.024q-54.272 0-90.112 33.28t-35.84 85.504zM28.672 529.152h227.328v-684.032h-227.328v684.032zM381.952-154.88h227.328v381.952q0 33.792 8.192 55.296 34.816 82.944 116.736 82.944 114.688 0 114.688-154.624v-365.568h227.328v392.192q0 141.312-67.072 224.768t-194.048 83.456q-132.096 0-205.824-113.664v-2.048h-1.024l1.024 2.048v97.28h-227.328q2.048-43.008 2.048-203.776 0-68.608-2.048-480.256z" />
<glyph unicode="&#x52;" glyph-name="R" d="M15.36-22.784q0 56.32 39.936 96.256t96.256 39.936 96.256-39.936 39.936-96.256-39.936-96.256-96.256-39.936-96.256 39.936-39.936 96.256zM15.36 515.84q193.536 0 346.112-94.72t238.592-242.176q91.136-155.648 91.136-338.944h-196.608q0 198.656-140.288 338.944-141.312 141.312-338.944 141.312v195.584zM15.36 667.392v196.608q216.064 0 403.968-83.968t320-216.064 216.064-320 83.968-403.968h-196.608q0 175.104-68.096 327.68t-174.592 258.048q-106.496 106.496-258.048 174.080t-326.656 67.584z" />
<glyph unicode="&#x54;" glyph-name="T" horiz-adv-x="1290" d="M15.36-44.288q30.72-3.072 61.44-3.072 180.224 0 321.536 110.592-86.016 1.024-152.064 52.736t-89.6 126.464q17.408-4.096 48.128-4.096 36.864 0 68.608 9.216-87.040 16.384-147.456 87.040t-60.416 165.888v3.072q53.248-29.696 117.76-31.744-50.176 32.768-82.944 89.088t-32.768 125.952 35.84 130.048q91.136-114.688 228.352-187.904t304.128-82.432q-7.168 31.744-7.168 59.392 0 106.496 75.776 182.272t183.296 75.776q111.616 0 188.416-81.92 87.040 18.432 163.84 63.488-28.672-93.184-112.64-143.36 76.8 9.216 147.456 40.96-49.152-76.8-128-134.144v-33.792q0-217.088-122.88-405.504-134.144-206.848-354.304-286.72-119.808-43.008-258.048-43.008-212.992 0-396.288 115.712z" />
<glyph unicode="&#x55;" glyph-name="U" horiz-adv-x="914" d="M21.504 285.44q4.096 54.272 38.912 88.576t89.088 37.376q114.688 5.12 308.224 5.12t308.224-5.12q54.272-3.072 89.088-37.376t38.912-88.576q5.12-102.4 5.12-165.888t-5.12-165.888q-4.096-54.272-38.912-88.576t-89.088-37.376q-114.688-5.12-308.224-5.12t-308.224 5.12q-54.272 3.072-89.088 37.376t-38.912 88.576q-6.144 110.592-6.144 165.888t6.144 165.888zM146.432 263.936v-333.824h60.416v333.824h62.464v56.32h-185.344v-56.32h62.464zM150.528 881.408h61.44l38.912-155.648h4.096l36.864 155.648h61.44l-47.104-151.552q-6.144-19.456-12.8-40.448t-8.704-28.16l-2.048-8.192v-161.792h-60.416v154.624q-2.048 12.288-6.144 26.112t-9.728 29.184-7.68 23.552zM306.176-73.984q32.768 0 62.464 35.84v-31.744h53.248v287.744h-53.248v-219.136q-21.504-21.504-31.744-21.504-14.336 0-14.336 19.456v221.184h-53.248v-242.688q0-49.152 36.864-49.152zM428.032 484.096q-35.84 0-56.832 22.016t-20.992 57.856v149.504q0 33.792 22.016 53.248t57.856 19.456q33.792 0 54.784-20.48t20.992-54.272v-148.48q0-36.864-20.48-57.856t-57.344-20.992zM428.032 737.024q-9.216 0-15.872-5.632t-6.656-14.848v-159.744q0-23.552 22.528-23.552 23.552 0 23.552 25.6v156.672q0 9.216-7.168 15.36t-16.384 6.144zM528.384-69.888v21.504q19.456-25.6 51.2-25.6 48.128 0 48.128 63.488v159.744q0 72.704-52.224 72.704-25.6 0-47.104-27.648v125.952h-54.272v-390.144h54.272zM528.384 164.608q11.264 11.264 22.528 11.264 22.528 0 22.528-28.672v-151.552q0-24.576-19.456-24.576-15.36 0-25.6 13.312v180.224zM551.936 779.008h53.248v-220.16q0-19.456 14.336-19.456 13.312 0 31.744 21.504v218.112h53.248v-287.744h-53.248v31.744q-29.696-35.84-62.464-35.84-36.864 0-36.864 49.152v242.688zM668.672 11.008q0-39.936 19.968-64.512t57.856-24.576q79.872 0 79.872 89.088v21.504h-55.296v-23.552q0-4.096-0.512-11.264t-2.048-10.752-4.096-7.68-6.656-5.632-10.24-1.536q-23.552 0-23.552 40.96v54.272h102.4v73.728q0 83.968-76.8 83.968-36.864 0-58.88-23.552t-22.016-60.416v-130.048zM723.968 112.384v30.72q0 31.744 23.552 31.744t23.552-31.744v-30.72h-47.104z" />
<glyph unicode="&#x56;" glyph-name="V" horiz-adv-x="1204" d="M15.36 585.472q143.36 169.984 284.672 241.664 35.84 19.456 49.152 22.528l17.408 4.096q16.384 2.048 24.576 2.048 23.552 0 41.472-8.192t30.72-24.576 19.968-29.696 16.384-35.84q20.48-50.176 39.936-163.328t26.624-142.848q31.744-128 52.224-181.248 20.48-54.272 43.008-54.272 24.576 0 67.584 56.32 45.056 60.416 96.256 155.648 26.624 50.176 26.624 93.184t-20.48 68.608-58.368 25.6q-34.816 0-84.992-26.624 22.528 133.12 137.216 214.016 88.064 61.44 178.176 61.44 125.952 0 166.912-93.184 18.432-37.888 18.432-90.112 0-29.696-6.144-62.464-18.432-102.4-71.168-211.968t-116.224-193.536q-53.248-70.656-126.464-148.48t-135.68-130.048q-47.104-38.912-92.16-69.632-43.008-24.576-79.872-24.576-69.632 0-129.024 70.656-24.576 29.696-38.912 58.368-20.48 41.984-100.352 305.152-81.92 268.288-98.304 287.744-3.072 6.144-16.384 8.704t-26.624 0.512q-34.816-7.168-88.064-48.128z" />
<glyph unicode="&#x58;" glyph-name="X" horiz-adv-x="993" d="M15.36 149.248l177.152 292.864-133.12 234.496h224.256l133.12-234.496-177.152-292.864h-224.256zM386.048 241.408l354.304 622.592h237.568l-353.28-622.592 227.328-401.408h-237.568z" />
<glyph unicode="&#x59;" glyph-name="Y" horiz-adv-x="1439" d="M466.944 11.008q8.192 3.072 8.192 17.408v196.608q0 12.288-11.264 25.6l-293.888 352.256h-113.664l-19.456 10.24-2.048 2.048q-1.024 1.024-13.312 15.36l-6.144 19.456v8.192q1.024 5.12 10.24 7.168h503.808q6.144 0 6.144-7.168v-14.336q0-15.36-10.24-15.36l-69.632-21.504q-11.264-5.12-22.528-4.096h-41.984l233.472-297.984 211.968 199.68h-117.76l-18.432 7.168-23.552 23.552-2.048 4.096q-9.216 9.216-7.168 22.528l7.168 6.144h448.512q4.096 0 6.144-6.144v-14.336q0-11.264-6.144-18.432l-17.408-19.456q-8.192-7.168-18.432-7.168h-136.192q-241.664-226.304-273.408-258.048-9.216-9.216-7.168-14.336v-206.848q0-15.36 9.216-15.36h149.504q7.168 0 7.168-7.168v-58.368h-528.384v56.32q0 9.216 10.24 9.216 30.72 3.072 145.408 3.072h3.072zM1233.92 761.6l189.44-7.168-84.992-580.608-62.464 3.072zM1247.232-19.712l4.096 112.64 112.64-4.096-4.096-112.64z" />
<glyph unicode="&#x61;" glyph-name="a" horiz-adv-x="1157" d="M33.792 70.4q256-148.48 557.056-148.48 218.112 0 410.624 80.896 29.696 13.312 38.912 0 8.192-11.264-6.144-22.528-87.040-62.464-206.848-101.376t-248.832-38.912q-320.512 0-557.056 212.992-6.144 4.096-6.144 10.24 0 2.048 2.048 6.144 5.12 9.216 16.384 1.024zM505.856 174.848q-81.92 0-131.072 50.688t-49.152 135.68q0 140.288 130.048 196.608 65.536 28.672 226.304 41.984v17.408q0 64.512-14.336 88.064-21.504 30.72-67.584 30.72h-8.192q-34.816-3.072-58.88-22.528t-31.232-50.176q-5.12-20.48-20.48-23.552l-117.76 14.336q-17.408 5.12-17.408 18.432 0 4.096 1.024 7.168 16.384 90.112 84.992 135.168 67.584 44.032 159.744 49.152h25.6q157.696 0 215.040-103.424 1.024-1.024 15.36-50.176 4.096-16.384 4.096-55.296v-247.808q0-10.24 1.024-19.968t2.048-16.384 5.12-15.36 5.632-12.8 7.168-12.8 7.168-10.752 9.216-11.776 8.704-11.776q6.144-9.216 6.144-16.384 0-8.192-8.192-14.336-84.992-73.728-92.16-79.872-13.312-9.216-29.696-2.048-34.816 30.72-55.296 60.416-12.288 17.408-14.336 19.456-56.32-62.464-112.64-77.824-33.792-10.24-86.016-10.24zM501.76 381.696q0-38.912 19.456-63.488t54.272-24.576q2.048 0 8.192 1.024t8.192 1.024q37.888 10.24 62.976 48.64t27.136 86.528v72.704q-57.344 0-90.112-8.192-90.112-25.6-90.112-113.664zM931.84 51.968q1.024 3.072 6.144 8.192 50.176 32.768 124.928 34.816 19.456 2.048 45.056-4.608t29.696-11.776 4.096-18.432v-7.168q0-35.84-19.456-83.968-20.48-51.2-54.272-78.848-4.096-4.096-9.216-4.096-10.24 0-7.168 12.288 37.888 88.064 37.888 123.904 0 12.288-4.096 16.384-10.24 12.288-57.344 12.288-25.6 0-88.064-8.192-4.096 0-7.168 1.536t-2.048 4.608q0 2.048 1.024 3.072z" />
<glyph unicode="&#x62;" glyph-name="b" horiz-adv-x="1374" d="M15.36 474.88q0 56.32 39.424 96.256t95.744 39.936q49.152 0 86.528-31.232t46.592-75.264l514.048-206.848q31.744 19.456 69.632 19.456 1.024 0 7.168-0.512t7.168-0.512l112.64 162.816q1.024 73.728 54.272 126.976t128 53.248 128.512-53.248 53.76-129.024-53.76-129.024-128.512-53.248l-174.080-126.976q-5.12-51.2-43.52-87.040t-91.648-35.84q-50.176 0-87.040 31.232t-46.080 76.288l-514.048 205.824q-31.744-19.456-69.632-19.456-56.32 0-95.744 39.936t-39.424 96.256zM51.2 474.88q0-40.96 29.184-70.144t70.144-29.184q5.12 0 21.504 2.048l-41.984 16.384v1.024q-47.104 21.504-47.104 71.68 0 25.6 13.312 45.056t33.792 28.672q15.36 7.168 31.744 6.144 12.288 0 27.648-5.12v1.024l50.176-20.48q-28.672 53.248-89.088 53.248-40.96 0-70.144-29.696t-29.184-70.656zM937.984 188.16q0-34.816-22.528-57.344t-57.344-22.528q-12.288 0-25.6 4.096t-32.256 12.288-22.016 9.216q28.672-53.248 89.088-53.248 40.96 0 70.656 29.696t29.696 70.656-29.696 70.144-70.656 29.184q-11.264 0-21.504-2.048l40.96-16.384q21.504-8.192 36.352-27.648t14.848-46.080zM1054.72 476.928q0-50.176 35.84-86.016t86.016-35.84 86.528 35.84 36.352 86.016-36.352 86.016-86.528 35.84-86.016-35.84-35.84-86.016zM1080.32 477.952q0-40.96 28.16-69.632t69.12-28.672q39.936 0 68.608 29.184t28.672 69.12-28.672 68.608-68.608 28.672-68.608-28.672-28.672-68.608z" />
<glyph unicode="&#x64;" glyph-name="d" horiz-adv-x="1079" d="M15.36 312.064l219.136 166.912-219.136 165.888 318.464 207.872 207.872-178.176 212.992 178.176 309.248-197.632-202.752-168.96 202.752-174.080-314.368-189.44-207.872 159.744-207.872-159.744zM233.472 55.040v58.368l96.256-56.32 207.872 158.72 1.024-1.024v-363.52zM238.592 481.024l301.056-189.44 303.104 200.704-301.056 173.056zM538.624-148.736l1.024 363.52 2.048 1.024 206.848-158.72 102.4 61.44v-64.512z" />
<glyph unicode="&#x66;" glyph-name="f" horiz-adv-x="582" d="M15.36 314.112v195.584h157.696v98.304q0 106.496 68.608 181.248t167.936 74.752h156.672v-195.584h-156.672q-17.408 0-28.672-18.432t-11.264-39.936v-100.352h196.608v-195.584h-196.608v-474.112h-196.608v474.112h-157.696z" />
<glyph unicode="&#x67;" glyph-name="g" horiz-adv-x="992" d="M232.448 154.368q83.968 0 151.040-44.032t67.072-113.664q0-65.536-63.488-110.592-64.512-46.080-154.624-46.080-91.136 0-153.6 46.080-63.488 46.080-63.488 110.592 0 86.016 102.4 133.12-26.624 40.96-26.624 76.8 0 39.936 28.672 75.776-38.912 23.552-64.512 63.488t-25.6 91.136q0 74.752 54.784 128.512t130.56 53.76q56.32 0 103.424-31.744h7.168q61.44 0 111.616 32.768v-117.76q-18.432-10.24-45.056-14.336 7.168-21.504 7.168-51.2 0-71.68-51.2-123.904t-121.856-56.32q-24.576-29.696-24.576-54.272 0-26.624 24.576-49.152 1.024 0 3.072 0.512t3.072 0.512zM212.992 520.96q-29.696 0-51.712-25.088t-22.016-56.832 22.016-56.832 51.712-25.088q30.72 0 52.224 24.576t21.504 57.344-21.504 57.344-52.224 24.576zM232.448 62.208q-34.816 0-62.464-17.92t-27.648-47.616q0-28.672 27.648-47.104t62.464-18.432 62.976 18.432 28.16 47.104q0 29.696-27.648 47.616t-63.488 17.92zM481.28 781.056q0 34.816 24.064 58.88t58.88 24.064 59.392-24.064 24.576-58.88-24.576-59.392-59.392-24.576-58.88 24.576-24.064 59.392zM500.736 609.024h137.216v-490.496h-137.216v490.496zM686.080 504.576h56.32v-291.84q9.216-74.752 93.184-101.376 15.36-5.12 31.744-7.168h20.48q22.528 0 46.592 7.168t33.28 17.408l7.168 9.216 2.048 101.376q-40.96-13.312-66.56-13.312-31.744 0-36.864 17.408l-4.096 13.312q0 3.072-1.024 4.096v243.712h93.184v104.448h-93.184v95.232h-125.952v-95.232h-56.32v-104.448z" />
<glyph unicode="&#x6c;" glyph-name="l" horiz-adv-x="1392" d="M15.36 352q0 167.936 118.784 286.72t286.72 118.784q135.168 0 230.4-68.608t144.384-181.248q15.36-36.864 132.096-307.2 21.504-48.128 38.912-75.776 39.936-62.464 131.072-67.584h7.168q66.56 0 113.664 37.376t48.128 97.792q0 54.272-37.888 78.848-28.672 19.456-102.4 43.008-126.976 40.96-184.32 91.136-56.32 49.152-56.32 139.264 0 95.232 60.416 150.016t158.72 54.784q130.048 0 195.584-117.76l-86.016-44.032q-46.080 63.488-114.688 63.488-46.080 0-77.824-29.184t-31.744-74.24q0-30.72 11.264-46.080 15.36-20.48 29.696-30.72 40.96-25.6 139.264-53.248 111.616-36.864 158.72-86.016 47.104-48.128 47.104-143.36 0-102.4-77.824-169.984-77.824-66.56-190.464-66.56h-3.072q-101.376 0-164.864 48.128-62.464 47.104-105.472 143.36l-144.384 328.704q-32.768 74.752-104.96 124.928t-164.352 50.176q-121.856 0-207.872-86.016-87.040-87.040-87.040-208.896t87.040-208.896q86.016-86.016 207.872-86.016 87.040 0 156.16 45.056t104.96 113.664l52.224-120.832q-54.272-66.56-134.656-107.52t-178.688-40.96q-167.936 0-286.72 118.784t-118.784 286.72z" />
<glyph unicode="&#x74;" glyph-name="t" horiz-adv-x="662" d="M15.36 444.16v145.408q60.416 19.456 103.424 56.32 88.064 70.656 104.448 218.112h146.432v-259.072h242.688v-160.768h-242.688v-262.144q0-88.064 9.216-114.688 10.24-27.648 42.496-44.032t70.144-16.384q79.872 0 154.624 50.176v-160.768q-61.44-29.696-112.128-43.008t-121.344-13.312q-67.584 0-124.928 17.408-108.544 36.864-144.384 120.832-14.336 36.864-14.336 107.52v358.4h-113.664z" />
<glyph unicode="&#x77;" glyph-name="w" d="M15.36 352q0 147.456 71.68 262.656t183.296 180.736q117.76 68.608 257.024 68.608 147.456 0 262.656-71.68t180.736-183.296q68.608-117.76 68.608-257.024 0-147.456-71.68-262.656t-183.296-180.736q-117.76-68.608-257.024-68.608-147.456 0-262.656 71.68t-180.736 183.296q-68.608 117.76-68.608 257.024zM55.296 352q0-144.384 76.288-257.024t189.952-167.936l-225.28 617.472q-40.96-89.088-40.96-192.512zM760.832 617.216q0 33.792 23.040 58.88t56.832 25.088q1.024 0 3.072-0.512t3.072-0.512q-133.12 123.904-319.488 123.904-128 0-230.912-59.904t-164.352-153.088h30.72q49.152 0 125.952 6.144 11.264 1.024 17.408-8.192t2.048-19.456-16.384-11.264l-54.272-5.12 172.032-510.976 103.424 309.248-73.728 201.728q-32.768 4.096-49.152 5.12-11.264 1.024-15.872 11.264t1.024 19.456 17.92 8.192l123.904-6.144q50.176 0 125.952 6.144 11.264 1.024 17.408-8.192t2.048-19.456-16.384-11.264l-53.248-5.12 169.984-507.904 47.104 157.696q36.864 119.808 36.864 152.576 0 64.512-39.936 131.072-22.528 35.84-35.84 64.512-10.24 21.504-10.24 46.080zM394.24-101.632q62.464-18.432 133.12-18.432 79.872 0 156.672 26.624-28.672 73.728-78.336 212.48t-70.144 192zM764.928-56.576q102.4 59.392 168.448 166.4t66.048 242.176q0 122.88-57.344 226.304 3.072-21.504 3.072-48.128 0-63.488-35.84-168.96z" />
<glyph unicode="&#xf0d5;" glyph-name="google-plus" horiz-adv-x="1317" d="M821.143 356q0-118.857-49.714-211.714t-141.714-145.143-210.857-52.286q-85.143 0-162.857 33.143t-133.714 89.143-89.143 133.714-33.143 162.857 33.143 162.857 89.143 133.714 133.714 89.143 162.857 33.143q163.429 0 280.571-109.714l-113.714-109.143q-66.857 64.571-166.857 64.571-70.286 0-130-35.429t-94.571-96.286-34.857-132.857 34.857-132.857 94.571-96.286 130-35.429q47.429 0 87.143 13.143t65.429 32.857 44.857 44.857 28 47.429 12.286 42.286h-237.714v144h395.429q6.857-36 6.857-69.714zM1316.571 425.714v-120h-119.429v-119.429h-120v119.429h-119.429v120h119.429v119.429h120v-119.429h119.429z" />
<glyph unicode="&#xf31b;" glyph-name="uniF31B" d="M216.064 864h622.592q82.944 0 141.824-58.88t58.88-141.824v-622.592q0-82.944-58.88-141.824t-141.824-58.88h-622.592q-82.944 0-141.824 58.88t-58.88 141.824v622.592q0 82.944 58.88 141.824t141.824 58.88zM343.040 4.864v465.92h-154.624v-465.92h154.624zM265.216 534.272q39.936 0 64 22.528t24.064 57.344q-1.024 35.84-24.576 58.368t-62.464 22.528-62.976-23.040-24.064-57.856 23.040-57.344 61.952-22.528h1.024zM428.032 4.864h154.624v260.096q0 25.6 5.12 37.888 22.528 56.32 79.872 56.32 77.824 0 77.824-105.472v-248.832h154.624v267.264q0 103.424-49.152 156.16t-129.024 52.736q-90.112 0-140.288-77.824h1.024v67.584h-154.624v-465.92z" />
<glyph unicode="&#xf31f;" glyph-name="uniF31F" horiz-adv-x="1054" d="M632.832 340.736q0-41.984-29.696-71.168t-70.656-29.184q-41.984 0-71.68 29.696t-29.696 70.656 29.696 70.656 71.68 29.696q40.96 0 70.656-29.184t29.696-71.168zM782.336 862.976q106.496 0 181.248-74.24t74.752-179.712v-70.656h-365.568q-63.488 44.032-140.288 44.032-77.824 0-141.312-44.032h-375.808v70.656q0 105.472 74.752 179.712t181.248 74.24h510.976zM886.784 621.312v87.040q0 11.264-8.704 19.968t-19.968 8.704h-88.064q-11.264 0-19.968-8.704t-8.704-19.968v-87.040q0-11.264 8.704-19.968t19.968-8.704h88.064q11.264 0 19.968 8.704t8.704 19.968zM775.168 340.736q0 52.224-23.552 102.4h286.72v-348.16q0-105.472-74.752-179.712t-181.248-74.24h-510.976q-106.496 0-181.248 74.24t-74.752 179.712v348.16h296.96q-23.552-50.176-23.552-102.4 0-99.328 71.68-170.496t172.032-71.168 171.52 70.656 71.168 171.008z" />
</font>
</defs>
</svg>
